<svg xmlns="http://www.w3.org/2000/svg" width="16" height="16" viewBox="0 0 17 17">
  <g id="Group_2" data-name="Group 2" transform="translate(-399.5 -352.5)">
    <g id="Group_46" data-name="Group 46" transform="translate(388 -452)">
      <g id="Group_45" data-name="Group 45">
        <g id="Group_43" data-name="Group 43">
          <path id="Path_53" data-name="Path 53" d="M20,821h0a8.024,8.024,0,0,1-8-8h0a8.024,8.024,0,0,1,8-8h0a8.024,8.024,0,0,1,8,8h0A8.024,8.024,0,0,1,20,821Z" fill="#414141" stroke="#414141" stroke-width="1"/>
        </g>
      </g>
    </g>
    <g id="Group_137" data-name="Group 137" transform="translate(392 -448)">
      <g id="Group_45-2" data-name="Group 45" transform="translate(12 805)">
        <g id="Group_43-2" data-name="Group 43">
          <path id="Path_53-2" data-name="Path 53" d="M16,813h0a4.012,4.012,0,0,1-4-4h0a4.012,4.012,0,0,1,4-4h0a4.012,4.012,0,0,1,4,4h0A4.012,4.012,0,0,1,16,813Z" transform="translate(-12 -805)" fill="#fff"/>
        </g>
      </g>
    </g>
  </g>
</svg>
