<svg xmlns="http://www.w3.org/2000/svg" width="48" height="48" viewBox="0 0 48 48">
  <g id="BookOpen-32" transform="translate(-649 -1737)">
    <rect id="Rectangle_724" data-name="Rectangle 724" width="48" height="48" transform="translate(649 1737)" fill="none"/>
    <path id="Path_2437" data-name="Path 2437" d="M-3276.5,757.591l8-2" transform="translate(3953.503 1005.409)" fill="none" stroke="#414141" stroke-width="2"/>
    <g id="Group_5612" data-name="Group 5612" transform="translate(649 1737)">
      <path id="Path_2460" data-name="Path 2460" d="M24,12,8,8V36l16,4,16-4V8ZM10,10.562l13,3.25V37.688l-13-3.25ZM38,34.438l-13,3.25V13.812l13-3.25Z" fill="#414141"/>
      <g id="Group_5612-2" data-name="Group 5612">
        <rect id="Rectangle_2108" data-name="Rectangle 2108" width="1.999" height="8.246" transform="translate(11.761 30.97) rotate(-75.964)" fill="#414141"/>
        <rect id="Rectangle_2109" data-name="Rectangle 2109" width="2" height="8.246" transform="translate(11.761 24.97) rotate(-75.967)" fill="#414141"/>
        <rect id="Rectangle_2110" data-name="Rectangle 2110" width="2" height="8.246" transform="translate(11.762 18.97) rotate(-75.964)" fill="#414141"/>
        <rect id="Rectangle_2111" data-name="Rectangle 2111" width="8.246" height="1.999" transform="matrix(0.97, -0.242, 0.242, 0.97, 27.761, 31.029)" fill="#414141"/>
        <rect id="Rectangle_2112" data-name="Rectangle 2112" width="8.246" height="1.999" transform="matrix(0.97, -0.242, 0.242, 0.97, 27.76, 25.029)" fill="#414141"/>
        <rect id="Rectangle_2113" data-name="Rectangle 2113" width="8.246" height="2" transform="matrix(0.97, -0.242, 0.242, 0.97, 27.761, 19.028)" fill="#414141"/>
      </g>
    </g>
  </g>
</svg>
