<svg xmlns="http://www.w3.org/2000/svg" width="48" height="48" viewBox="0 0 48 48">
  <g id="Cards-32" transform="translate(-1035 -1271)">
    <rect id="Rectangle_1005" data-name="Rectangle 1005" width="48" height="48" transform="translate(1035 1271)" fill="none"/>
    <g id="Group_3972" data-name="Group 3972">
      <g id="Rectangle_1072" transform="translate(1047 1297)">
        <rect id="Rectangle_1943" data-name="Rectangle 1943" width="10" height="10" fill="none"/>
        <path id="Path_2038" data-name="Path 2038" d="M10,10H0V0H10ZM2,8H8V2H2Z" fill="#414141"/>
      </g>
      <g id="Rectangle_1223" transform="translate(1047 1283)">
        <rect id="Rectangle_1944" data-name="Rectangle 1944" width="10" height="10" fill="none"/>
        <path id="Path_2039" data-name="Path 2039" d="M10,10H0V0H10ZM2,8H8V2H2Z" fill="#414141"/>
      </g>
      <g id="Rectangle_1221" transform="translate(1061 1297)">
        <rect id="Rectangle_1945" data-name="Rectangle 1945" width="10" height="10" fill="none"/>
        <path id="Path_2040" data-name="Path 2040" d="M10,10H0V0H10ZM2,8H8V2H2Z" fill="#414141"/>
      </g>
      <g id="Rectangle_1222" transform="translate(1061 1283)">
        <rect id="Rectangle_1946" data-name="Rectangle 1946" width="10" height="10" fill="none"/>
        <path id="Path_2041" data-name="Path 2041" d="M10,10H0V0H10ZM2,8H8V2H2Z" fill="#414141"/>
      </g>
    </g>
  </g>
</svg>
