<svg xmlns="http://www.w3.org/2000/svg" width="48" height="48" viewBox="0 0 48 48">
  <g id="Disc-32" transform="translate(-911 -1633)">
    <path id="Path_1187" data-name="Path 1187" d="M0,0H48V48H0Z" transform="translate(911 1633)" fill="none"/>
    <path id="Path_2087" data-name="Path 2087" d="M935,1641a16,16,0,1,0,16,16A16.047,16.047,0,0,0,935,1641Zm14,16a13.681,13.681,0,0,1-1.4,6.1l-7-4a7.789,7.789,0,0,0,.4-2.1,6.018,6.018,0,0,0-6-6,5.221,5.221,0,0,0-2.1.4l-4-7a13.681,13.681,0,0,1,6.1-1.4A14.041,14.041,0,0,1,949,1657Zm-10,0a4,4,0,1,1-4-4A4.012,4.012,0,0,1,939,1657Zm-11.8-11.6,4,7a3.043,3.043,0,0,0-.8.8l-7-4A13.745,13.745,0,0,1,927.2,1645.4ZM921,1657a13.681,13.681,0,0,1,1.4-6.1l7,4a7.789,7.789,0,0,0-.4,2.1,6.018,6.018,0,0,0,6,6,5.221,5.221,0,0,0,2.1-.4l4,7a13.681,13.681,0,0,1-6.1,1.4A14.041,14.041,0,0,1,921,1657Zm21.8,11.6-4-7a3.043,3.043,0,0,0,.8-.8l7,4A13.745,13.745,0,0,1,942.8,1668.6Z" fill="#414141"/>
  </g>
</svg>
