<svg xmlns="http://www.w3.org/2000/svg" width="48" height="48" viewBox="0 0 48 48">
  <g id="Layers-32" transform="translate(-732 -1665)">
    <path id="Path_1234" data-name="Path 1234" d="M0,0H48V48H0Z" transform="translate(732 1665)" fill="none"/>
    <g id="Group_2575" transform="translate(101 -1474.908)">
      <g id="Path_1237" transform="translate(655 3146.343) rotate(45)">
        <path id="Path_2101" data-name="Path 2101" d="M1.2,1.2l17-5.7-5.7,17-17,5.7Z" fill="none"/>
        <path id="Path_2102" data-name="Path 2102" d="M15-1.3,2.8,2.8-1.3,15l12.2-4.1L15-1.3m3.1-3.2-5.7,17-17,5.7,5.7-17Z" fill="#414141"/>
      </g>
      <g id="Group_2575_1_" transform="translate(740 1673)">
        <g id="Group_2576">
          <path id="Path_1248" d="M-77.2,1489.1l3.8,1.9-11.5,5.8-11.5-5.8,3.8-1.9-2.2-1.1-6,3,16,8,16-8-6-3Z" fill="#414141"/>
        </g>
        <g id="Group_2577">
          <path id="Path_1249" d="M-77.2,1497.1l3.8,1.9-11.5,5.8-11.5-5.8,3.8-1.9-2.2-1.1-6,3,16,8,16-8-6-3Z" fill="#414141"/>
        </g>
      </g>
    </g>
  </g>
</svg>
