<svg xmlns="http://www.w3.org/2000/svg" width="48" height="48" viewBox="0 0 48 48">
  <g id="PaintBucket-32" transform="translate(-574 -1295)">
    <g id="Group_5813" data-name="Group 5813" transform="translate(574 1295)">
      <g id="Group_5814" data-name="Group 5814">
        <g id="Path_2889" data-name="Path 2889">
          <path id="Path_3016" data-name="Path 3016" d="M37.393,21.34l-10,17.32-17.321-10,9-15.588-3.464-2,1-1.732Z" fill="none"/>
          <path id="Path_3017" data-name="Path 3017" d="M34.661,22.072l-13.857-8-8,13.856,13.857,8,8-13.856m2.732-.732-10,17.32-17.321-10,9-15.588-3.464-2,1-1.732Z" fill="#414141"/>
        </g>
      </g>
    </g>
    <rect id="Rectangle_2270" data-name="Rectangle 2270" width="48" height="48" transform="translate(574 1295)" fill="none"/>
    <g id="Path_2890" data-name="Path 2890" transform="translate(574 1295)">
      <path id="Path_3018" data-name="Path 3018" d="M37,28s3,5.343,3,7a3,3,0,0,1-6,0C34,33.343,37,28,37,28Z" fill="none"/>
      <path id="Path_3019" data-name="Path 3019" d="M37,32.38a10.813,10.813,0,0,0-1,2.638,1,1,0,0,0,2,0,10.813,10.813,0,0,0-1-2.638M37,28s3,5.343,3,7a3,3,0,0,1-6,0C34,33.343,37,28,37,28Z" fill="#414141"/>
    </g>
  </g>
</svg>
