<svg xmlns="http://www.w3.org/2000/svg" width="48" height="48" viewBox="0 0 48 48">
  <g id="PieChart-32" transform="translate(-719 -1428)">
    <rect id="Rectangle_1008" data-name="Rectangle 1008" width="48" height="48" transform="translate(719 1428)" fill="none"/>
    <g id="Group_2528" transform="translate(727 1436)">
      <g id="Ellipse_36_1_" transform="translate(2.974 2.974)">
        <path id="Path_1015" d="M15,0A14.98,14.98,0,0,1,30,15h0A14.98,14.98,0,0,1,15,30h0A14.98,14.98,0,0,1,0,15H0" fill="none"/>
        <path id="Path_2066" data-name="Path 2066" d="M15.1,29.2A14.148,14.148,0,0,1,1,15.1H3A12.1,12.1,0,1,0,15.1,3V1a14.1,14.1,0,0,1,0,28.2Z" fill="#414141"/>
      </g>
      <g id="Ellipse_37_1_">
        <g id="Path_1017" transform="translate(655.5 1067.5)">
          <path id="Path_2067" data-name="Path 2067" d="M-655.5-1053.5a14.041,14.041,0,0,1,14-14v14Z" fill="none"/>
          <path id="Path_2068" data-name="Path 2068" d="M-643.5-1055.5v-9.8a11.893,11.893,0,0,0-9.8,9.8h9.8m2,2h-14a14.041,14.041,0,0,1,14-14Z" fill="#414141"/>
        </g>
      </g>
    </g>
  </g>
</svg>
