<svg xmlns="http://www.w3.org/2000/svg" width="48" height="48" viewBox="0 0 48 48">
  <g id="Tool-32" transform="translate(-558 -1269)">
    <rect id="Rectangle_1007" data-name="Rectangle 1007" width="48" height="48" transform="translate(558 1269)" fill="none"/>
    <g id="Subtraction_4" data-name="Subtraction 4" transform="translate(-569.188 -3389.47) rotate(45)">
      <path id="Path_2287" data-name="Path 2287" d="M4131.051,2513h-12.038v-14.045a10.033,10.033,0,0,1,4.013-17.855v5.817l2.006,2.008,2.007-2.008V2481.1a10.057,10.057,0,0,1,8.025,9.829,9.956,9.956,0,0,1-4.013,8.026V2513Z" fill="none"/>
      <path id="Path_2288" data-name="Path 2288" d="M4129.051,2511v-13.044l.8-.6a7.972,7.972,0,0,0,3.214-6.427,8.062,8.062,0,0,0-4.025-6.96v3.776l-.585.586-2.007,2.008-1.415,1.416-1.415-1.416-2.006-2.008-.585-.585v-3.776a8.062,8.062,0,0,0-4.025,6.96,7.973,7.973,0,0,0,3.213,6.427l.8.6V2511h8.038m2,2h-12.038v-14.045a10.033,10.033,0,0,1,4.013-17.855v5.817l2.006,2.008,2.007-2.008V2481.1a10.057,10.057,0,0,1,8.025,9.829,9.955,9.955,0,0,1-4.013,8.026V2513Z" fill="#414141"/>
    </g>
  </g>
</svg>
