<svg xmlns="http://www.w3.org/2000/svg" width="0" height="0" viewBox="0 0 0 0">
<symbol id="FemaleRunning" xmlns="http://www.w3.org/2000/svg" viewBox="0 0 32 32"> <path fill="var(--color-0)" className="color0" d="M22.97 20c-.22-3.9-1.74-7.2-3.88-8.86a6 6 0 1 0-6.18 0c-2.13 1.65-3.66 4.97-3.88 8.86L9 22.01l-5 .03v6L16.4 28 15 32h6l1.33-4H23zm-3.41 10h-1.74l.66-1.89 1.72-.04zM16 2.01a4 4 0 1 1-4 4 4 4 0 0 1 4-4zM6 26.03v-2l5-.03v-3l.03-.88a12.02 12.02 0 0 1 1.88-6.08A4.17 4.17 0 0 1 16 12.01a4.17 4.17 0 0 1 3.09 2.03 12.01 12.01 0 0 1 1.88 6.08L21 26z"/></symbol>
<symbol id="FemaleRunningLowerClothes" xmlns="http://www.w3.org/2000/svg" viewBox="0 0 32 32"> <path fill="var(--color-0)" className="color0" d="M22.97 20c-.22-3.9-1.74-7.2-3.88-8.86a6 6 0 1 0-6.18 0c-2.13 1.65-3.66 4.97-3.88 8.86H9v2.01l-5 .03v6L16.4 28 15 32h6l1.33-4H23v-8zM12 6a4 4 0 1 1 4 4 4 4 0 0 1-4-4zm.91 8.04A4.17 4.17 0 0 1 16 12.01a4.17 4.17 0 0 1 3.09 2.03A12.01 12.01 0 0 1 20.96 20h-9.92a12.02 12.02 0 0 1 1.87-5.96z"/></symbol>
<symbol id="FemaleRunningHat" xmlns="http://www.w3.org/2000/svg" viewBox="0 0 32 32"> <path fill="var(--color-0)" className="color0" d="M22 6h2V4h-2.34a6 6 0 0 0-11.32 0H8v2h1.97a6 6 0 0 0 2.89 5.13C10.74 12.8 9.22 16.1 9 20l-.03 2-4.97.03V28l12.5-.03L15.1 32H21l1.33-4H23l-.03-8c-.22-3.9-1.74-7.21-3.88-8.86A6 6 0 0 0 22 6zm-6-4a4 4 0 0 1 3.46 2h-6.92A4 4 0 0 1 16 2zm3.56 28h-1.74l.66-1.89 1.72-.04zM21 20.09l.03 5.91L6 26.03V24l5-.03v-3l.03-.88A12 12 0 0 1 12.9 14a4.18 4.18 0 0 1 3.1-2.04A4.18 4.18 0 0 1 19.1 14a11.99 11.99 0 0 1 1.9 6.09zM16 10a4 4 0 0 1-4-4h8a4 4 0 0 1-4 4z"/></symbol>
<symbol id="FemaleRunningUpperClothesHat" xmlns="http://www.w3.org/2000/svg" viewBox="0 0 32 32"> <path fill="var(--color-0)" className="color0" d="M22 6.01h2v-2h-2.34a6 6 0 0 0-11.32 0H8v2h2a5.98 5.98 0 0 0 2.9 5.13l-.05.05a7.8 7.8 0 0 0-1.4 1.46l-.06.1q-.28.37-.53.8l-.1.19c-.18.3-.33.6-.48.93l-.04.08q-.24.55-.44 1.13l-.05.17q-.16.5-.28 1l-.08.33-.19 1-.04.27c-.06.43-.1.87-.13 1.31v.2L9 21l.01.35v.67l-5 .02v6L16.4 28 15 32h6l1.32-4H23l-.02-6.23a16.15 16.15 0 0 0 0-1.63V20l-.01-.05a16.6 16.6 0 0 0-.13-1.29l-.06-.32c-.05-.32-.1-.63-.17-.94l-.09-.36q-.12-.49-.26-.95l-.07-.22q-.2-.57-.43-1.1l-.06-.13c-.14-.31-.29-.6-.45-.89l-.12-.2q-.24-.42-.5-.8l-.09-.1a7.82 7.82 0 0 0-1.4-1.46l-.05-.05a5.99 5.99 0 0 0 2.9-5.13zm-6-4a3.98 3.98 0 0 1 3.45 2h-6.9a3.98 3.98 0 0 1 3.45-2zm3.56 28h-1.74l.66-1.9 1.72-.04zm1.42-8 .02 4-15 .02v-2l5-.03v-2zM16 10a4 4 0 0 1-4-4h8a4 4 0 0 1-4 4z"/></symbol>
<symbol id="FemaleRunningUpperClothes" xmlns="http://www.w3.org/2000/svg" viewBox="0 0 32 32"> <path fill="var(--color-0)" className="color0" d="M23 21c0-.29-.02-.57-.03-.86V20l-.01-.05a16.6 16.6 0 0 0-.13-1.29l-.05-.32c-.05-.32-.11-.64-.18-.94l-.08-.36q-.12-.5-.27-.95l-.07-.22q-.19-.58-.43-1.1l-.06-.13c-.14-.31-.29-.6-.45-.9l-.12-.2q-.24-.41-.5-.78l-.08-.11a7.79 7.79 0 0 0-1.4-1.46l-.06-.05a6 6 0 1 0-6.18 0l-.05.05a7.78 7.78 0 0 0-1.4 1.46l-.07.1q-.27.37-.52.8l-.11.19c-.17.3-.33.6-.47.93l-.04.08q-.24.55-.44 1.13l-.05.17q-.16.49-.28 1l-.08.33-.19 1-.04.27c-.06.43-.1.87-.13 1.31v.2L9 21l.01.35L9 22l-5 .03v6L16.4 28 15 32h6l1.33-4h.66v-6c.02-.25 0-.74 0-1zM12 6a4 4 0 1 1 4 4 4 4 0 0 1-4-4zm7.55 24h-1.74l.66-1.89 1.73-.04zM6 26.03v-2l5-.03v-2h9.98l.01 4z"/></symbol>
<symbol id="FemaleStanding" xmlns="http://www.w3.org/2000/svg" viewBox="0 0 32 32"> <path fill="var(--color-0)" className="color0" d="M19.5 10.87a6 6 0 1 0-7 0C9.27 12.54 7 16.45 7 21c0 .34.01.67.04 1H9v6h3v4h8v-4h3v-6h1.96a11 11 0 0 0 .04-1c0-4.55-2.27-8.46-5.5-10.13zM12 6.01a4 4 0 1 1 4 4 4 4 0 0 1-4-4zm9 14v6h-3v4h-4v-4h-3v-6H9.04a10.04 10.04 0 0 1 2.14-5.52A6.25 6.25 0 0 1 16 12.01a6.25 6.25 0 0 1 4.81 2.48A10.03 10.03 0 0 1 22.96 20z"/></symbol>
<symbol id="FemaleStandingHat" xmlns="http://www.w3.org/2000/svg" viewBox="0 0 32 32"> <path fill="var(--color-0)" className="color0" d="M19.5 10.87A6 6 0 0 0 22 6h2V4h-2.34a6 6 0 0 0-11.32 0H8v2h2a5.99 5.99 0 0 0 2.5 4.87C9.27 12.54 7 16.44 7 21c0 .34.01.67.04 1H9v6h3v4h8v-4h3v-6h1.96a11 11 0 0 0 .04-1c0-4.56-2.27-8.46-5.5-10.13zM16 2a4 4 0 0 1 3.46 2h-6.92A4 4 0 0 1 16 2zm-4 4h8a4 4 0 0 1-8 0zm9 14v6h-3v4h-4v-4h-3v-6H9.04a10.05 10.05 0 0 1 2.15-5.5A6.25 6.25 0 0 1 16 12a6.25 6.25 0 0 1 4.82 2.5 10.04 10.04 0 0 1 2.14 5.5z"/></symbol>
<symbol id="FemaleStandingLowerClothes" xmlns="http://www.w3.org/2000/svg" viewBox="0 0 32 32"> <path fill="var(--color-0)" className="color0" d="M19.5 10.87a6 6 0 1 0-7 0C9.27 12.54 7 16.45 7 21c0 .34.01.67.04 1H9v6h3v4h8v-4h3v-6h1.96a11 11 0 0 0 .04-1c0-4.55-2.27-8.46-5.5-10.13zM12 6.01a4 4 0 1 1 4 4 4 4 0 0 1-4-4zM9.04 20a10.04 10.04 0 0 1 2.14-5.52A6.25 6.25 0 0 1 16 12.01a6.25 6.25 0 0 1 4.81 2.48A10.03 10.03 0 0 1 22.96 20z"/></symbol>
<symbol id="FemaleRunningLowerClothesHat" xmlns="http://www.w3.org/2000/svg" viewBox="0 0 32 32"> <path fill="var(--color-0)" className="color0" d="M22 6.01h2v-2h-2.34a6 6 0 0 0-11.32 0H8v2h2a5.97 5.97 0 0 0 2.9 5.13C10.78 12.8 9.26 16.11 9.04 20H9v2.02l-5 .02v6L16.4 28 15 32h6l1.33-4H23v-8h-.03c-.22-3.9-1.74-7.2-3.88-8.86a5.99 5.99 0 0 0 2.9-5.13zm-6-4a3.98 3.98 0 0 1 3.44 2h-6.89a3.98 3.98 0 0 1 3.45-2zm4.96 18h-9.92a12.01 12.01 0 0 1 1.87-5.97A4.17 4.17 0 0 1 16 12.01a4.17 4.17 0 0 1 3.09 2.03A12.01 12.01 0 0 1 20.96 20zM16 10a4 4 0 0 1-4-4h8a4 4 0 0 1-4 4z"/></symbol>
<symbol id="FemaleStandingLowerClothesHat" xmlns="http://www.w3.org/2000/svg" viewBox="0 0 32 32"> <path fill="var(--color-0)" className="color0" d="M19.5 10.87A5.98 5.98 0 0 0 22 6.01h2v-2h-2.34a6 6 0 0 0-11.32 0H8v2h2a5.98 5.98 0 0 0 2.5 4.86C9.27 12.54 7 16.45 7 21c0 .34.01.67.04 1H9v6h3v4h8v-4h3v-6h1.96c.03-.32.04-.66.04-1 0-4.55-2.27-8.46-5.5-10.13zM16 2.01a3.98 3.98 0 0 1 3.44 2h-6.89a3.98 3.98 0 0 1 3.45-2zm-4 4h8a4 4 0 0 1-8 0zm-2.96 14a10.05 10.05 0 0 1 2.14-5.51A6.25 6.25 0 0 1 16 12a6.25 6.25 0 0 1 4.81 2.5 10.03 10.03 0 0 1 2.15 5.5z"/></symbol>
<symbol id="FemaleStandingUpperClothes" xmlns="http://www.w3.org/2000/svg" viewBox="0 0 32 32"> <path fill="var(--color-0)" className="color0" d="M25 20.98a13.19 13.19 0 0 0-.09-1.46l-.05-.38a13.1 13.1 0 0 0-.26-1.38l-.01-.05a12.52 12.52 0 0 0-.42-1.3l-.13-.34a11.8 11.8 0 0 0-.57-1.2l-.02-.04a11.1 11.1 0 0 0-.7-1.08l-.2-.27a10.3 10.3 0 0 0-.81-.95l-.03-.03a9.18 9.18 0 0 0-.92-.8 6.59 6.59 0 0 0-.25-.19 8.4 8.4 0 0 0-1.03-.64 6 6 0 1 0-7 0 8.58 8.58 0 0 0-1.05.65l-.23.17a9.75 9.75 0 0 0-1.78 1.8l-.19.25a11.44 11.44 0 0 0-1.3 2.35l-.12.3a12.69 12.69 0 0 0-.7 2.76l-.04.35A13.44 13.44 0 0 0 7 21c0 .27.01.53.03.79a1.96 1.96 0 0 0 0 .22H9v6h3V32h8v-4h3v-6h1.96c.03-.32.04-.66.04-1zM16 2.02a4 4 0 1 1-4 4 4 4 0 0 1 4-4zM18 26v4h-4v-4h-3v-4h10v4z"/></symbol>
<symbol id="FemaleStandingUpperClothesHat" xmlns="http://www.w3.org/2000/svg" viewBox="0 0 32 32"> <path fill="var(--color-0)" className="color0" d="m24.91 19.52-.05-.38a12.9 12.9 0 0 0-.26-1.38l-.01-.05a12.42 12.42 0 0 0-.42-1.3l-.13-.34a11.8 11.8 0 0 0-.57-1.2l-.02-.04a11.11 11.11 0 0 0-.7-1.08c-.06-.1-.13-.18-.2-.27a10.16 10.16 0 0 0-.81-.95l-.03-.03a9.08 9.08 0 0 0-.92-.8 6.58 6.58 0 0 0-.25-.19 8.4 8.4 0 0 0-1.03-.64A5.98 5.98 0 0 0 22 6.02h2v-2h-2.33a6 6 0 0 0-11.32 0H8v2h2.01a5.98 5.98 0 0 0 2.5 4.85 8.56 8.56 0 0 0-1.04.65l-.24.18a9.73 9.73 0 0 0-1.78 1.8l-.18.24a11.42 11.42 0 0 0-1.3 2.35l-.13.3a12.69 12.69 0 0 0-.7 2.77l-.04.35A13.46 13.46 0 0 0 7 21l.03.78a1.96 1.96 0 0 0 0 .22H9v6h3v4h8v-4h3v-6h1.96c.03-.32.04-.66.04-1v-.02a13.15 13.15 0 0 0-.09-1.46zM16 2.02a3.98 3.98 0 0 1 3.44 2h-6.89a3.98 3.98 0 0 1 3.45-2zm-4 4h8a4 4 0 0 1-8 0zM21 26h-3v4h-4v-4h-3v-4h10z"/></symbol>
<symbol id="FemaleWalking" xmlns="http://www.w3.org/2000/svg" viewBox="0 0 32 32"> <path fill="var(--color-0)" className="color0" d="M22.97 20c-.22-3.9-1.74-7.2-3.88-8.86a6 6 0 1 0-6.18 0c-2.13 1.65-3.66 4.97-3.88 8.86L9 28h1.33L9 32h6l1-3 1 3h6l-1.33-4H23zM12 6a4 4 0 1 1 4 4 4 4 0 0 1-4-4zm2.9 20-.46 1.37-.88 2.63h-1.79l.46-1.37.88-2.63H11l.03-5.88a12.02 12.02 0 0 1 1.88-6.08A4.17 4.17 0 0 1 16 12.01a4.17 4.17 0 0 1 3.09 2.03 12.02 12.02 0 0 1 1.88 6.08l.03.44V26zm3.54 4-.67-2h1.79l.66 2z"/></symbol>
<symbol id="FemaleWalkingHat" xmlns="http://www.w3.org/2000/svg" viewBox="0 0 32 32"> <path fill="var(--color-0)" className="color0" d="M22 6h2V4h-2.34a6 6 0 0 0-11.32 0H8v2h2a6 6 0 0 0 2.9 5.14C10.78 12.79 9.26 16.1 9.04 20L9 28h1.33L9 32h6l1-3 1 3h6l-1.33-4H23l-.03-8c-.22-3.9-1.74-7.21-3.88-8.86A6 6 0 0 0 22 6zm-6-4a4 4 0 0 1 3.46 2h-6.92A4 4 0 0 1 16 2zm2.44 28-.66-2h1.78l.67 2zm2.54-9.88.02.44V26h-6.1l-.46 1.37-.88 2.63h-1.79l.46-1.37.88-2.63H11l.03-5.88a12.02 12.02 0 0 1 1.88-6.08A4.17 4.17 0 0 1 16 12a4.17 4.17 0 0 1 3.09 2.04 12.02 12.02 0 0 1 1.89 6.08zM16 10a4 4 0 0 1-4-4h8a4 4 0 0 1-4 4z"/></symbol>
<symbol id="FemaleWalkingLowerClothes" xmlns="http://www.w3.org/2000/svg" viewBox="0 0 32 32"> <path fill="var(--color-0)" className="color0" d="M23 20h-.03c-.22-3.9-1.74-7.2-3.88-8.86a6 6 0 1 0-6.18 0c-2.13 1.65-3.66 4.97-3.88 8.86H9v8h1.33L9 32h6l1-3 1 3h6l-1.33-4H23zM12 6a4 4 0 1 1 4 4 4 4 0 0 1-4-4zm.9 8.04a4.18 4.18 0 0 1 3.1-2.03 4.16 4.16 0 0 1 3.09 2.03A12.01 12.01 0 0 1 20.96 20h-9.92a12 12 0 0 1 1.87-5.96z"/></symbol>
<symbol id="FemaleWalkingLowerClothesHat" xmlns="http://www.w3.org/2000/svg" viewBox="0 0 32 32"> <path fill="var(--color-0)" className="color0" d="M22 6.01h2v-2h-2.34a6 6 0 0 0-11.32 0H8v2h2a5.98 5.98 0 0 0 2.9 5.13C10.79 12.8 9.26 16.11 9.04 20H9v8h1.33L9 32h6l1-3 1 3h6l-1.33-4H23v-8h-.03c-.22-3.9-1.74-7.2-3.88-8.86A5.99 5.99 0 0 0 22 6.01zm-6-4a3.98 3.98 0 0 1 3.44 2h-6.89a3.98 3.98 0 0 1 3.45-2zm4.96 18h-9.92a12.01 12.01 0 0 1 1.87-5.97A4.18 4.18 0 0 1 16 12.01a4.16 4.16 0 0 1 3.09 2.03A12.01 12.01 0 0 1 20.96 20zM16 10a4 4 0 0 1-4-4h8a4 4 0 0 1-4 4z"/></symbol>
<symbol id="FemaleWalkingUpperClothes" xmlns="http://www.w3.org/2000/svg" viewBox="0 0 32 32"> <path fill="var(--color-0)" className="color0" d="M23 28v-7c0-.29-.01-.57-.03-.86v-.19a16.5 16.5 0 0 0-.13-1.28l-.06-.35a14.88 14.88 0 0 0-.26-1.3q-.12-.46-.26-.91l-.07-.24q-.2-.57-.43-1.1l-.07-.15a9.52 9.52 0 0 0-.44-.87l-.12-.22q-.24-.4-.5-.76l-.1-.13a7.76 7.76 0 0 0-1.38-1.45l-.06-.05a6 6 0 1 0-6.18 0l-.05.05a7.78 7.78 0 0 0-1.4 1.46l-.07.1q-.28.37-.53.8l-.1.19c-.17.3-.33.6-.47.93l-.04.08q-.24.55-.44 1.13l-.05.17q-.16.49-.29 1l-.07.33c-.07.32-.14.66-.19 1l-.04.27c-.06.43-.1.86-.14 1.31v.14l-.02.9c0 .27-.02.73-.01 1v6h1.33L9 32h6l1-3 1 3h6l-1.33-4zM12 6.01a4 4 0 1 1 4 4 4 4 0 0 1-4-4zm6.44 24-.67-2h1.79l.66 2zm-3.55-4-.45 1.36-.88 2.63h-1.79l.46-1.37.88-2.63H11l.02-4H21v4z"/></symbol>
<symbol id="FemaleWalkingUpperClothesHat" xmlns="http://www.w3.org/2000/svg" viewBox="0 0 32 32"> <path fill="var(--color-0)" className="color0" d="M22 6h2V4h-2.34a5.92 5.92 0 0 0-.52-1.1A6 6 0 0 0 10.34 4H8v2h2a5.98 5.98 0 0 0 2.9 5.14l-.05.04a7.8 7.8 0 0 0-1.4 1.47l-.07.09q-.27.38-.53.8l-.1.2c-.17.3-.33.6-.47.92l-.04.09q-.24.54-.44 1.13l-.05.17q-.16.49-.28 1l-.08.32-.19 1-.04.28c-.06.43-.1.86-.13 1.3v.15a16.9 16.9 0 0 0-.01 1.7L9 28h1.33L9 32h6l1-3 1 3h6l-1.33-4H23l-.02-6.23a16.16 16.16 0 0 0 0-1.63V20l-.02-.05a16.5 16.5 0 0 0-.12-1.28l-.06-.35a14.88 14.88 0 0 0-.26-1.3q-.12-.47-.26-.91l-.07-.25q-.2-.57-.43-1.1l-.07-.14a9.43 9.43 0 0 0-.44-.87l-.12-.22q-.24-.4-.5-.76a.45.45 0 0 0-.1-.13 7.77 7.77 0 0 0-1.38-1.45l-.06-.05A5.99 5.99 0 0 0 21.99 6zm-6-4a3.98 3.98 0 0 1 3.44 2h-6.89A3.98 3.98 0 0 1 16 2zm2.44 28-.67-2h1.79l.66 2zM21 22v4h-6.1l-.46 1.37-.88 2.63h-1.79l.46-1.37.88-2.63H11l.02-4zm-5-12a4 4 0 0 1-4-4h8a4 4 0 0 1-4 4z"/></symbol>
<symbol id="MaleAccessibility" xmlns="http://www.w3.org/2000/svg" viewBox="0 0 15 16"> <path fill="var(--color-0)" className="color0" d="M6.05 15.79H3.13l1.62-4.86h-.63c-.02-.16-.02-.32-.02-.5a6 6 0 0 1 .46-2.71L.02 5.35l2.1-2.03L5.2 4.94l-.2-.3a2.92 2.92 0 1 1 4.8.3l3.1-1.61L15 5.36l-4.55 2.36c.37.85.52 1.79.46 2.72 0 .15 0 .3-.02.49h-.63l1.62 4.86H8.96L7.5 11.4l-1.46 4.38Zm.86-5.84h1.2l1.55 4.86h.87L8.9 9.95h1.02c-.05-.91-.3-1.8-.74-2.61l2.28-1.2 1.9-1.03-.63-.6-1.89 1-2.18 1.12c-.3-.34-.71-.54-1.16-.56-.45.02-.87.22-1.16.56L3.06 4.91l-.78-.4-.62.6 1.07.57 3.1 1.66a6 6 0 0 0-.74 2.61h1l-.42 1.28-1.19 3.58h.87l1.57-4.86Zm.6-8.75a1.94 1.94 0 1 0 0 3.89 1.94 1.94 0 0 0 0-3.89Zm0 0"/></symbol>
<symbol id="MaleRunning" xmlns="http://www.w3.org/2000/svg" viewBox="0 0 32 32"> <path fill="var(--color-0)" className="color0" d="M23 21c0-4.32-1.6-8.06-3.92-9.85a6 6 0 1 0-6.16 0C10.6 12.95 9 16.68 9 21.01c0 .33.01.67.03 1L4 22.04V28l10.09-.03 1.96-5.22 1.11 3.35L15.1 32H21l1.97-6.1-1.3-3.9h1.3c.02-.32.03-.66.03-1zM12 6.03a4 4 0 1 1 4 4 4 4 0 0 1-4-4zm2.85 13.99-.49 1.3L12.6 26l-6.6.01V24l5-.03-.01-3.2a12.68 12.68 0 0 1 1.74-6.46c1.26-2 2.58-2.3 3.25-2.3.68 0 2 .3 3.26 2.3a12.32 12.32 0 0 1 1.7 5.69zm6.01 5.9-1.32 4.1h-1.72l1.12-3.2.22-.64-.21-.65L17.77 22h1.79z"/></symbol>
<symbol id="MaleRunningHat" xmlns="http://www.w3.org/2000/svg" viewBox="0 0 32 32"> <path fill="var(--color-0)" className="color0" d="M22 6h2V4h-2.34a6 6 0 0 0-11.32 0H8v2h2a6 6 0 0 0 2.92 5.14C10.6 12.93 9 16.67 9 21c0 .34.01.67.03 1L4 22.03V28l10.08-.03 1.96-5.22 1.12 3.35-2.07 5.9H21l1.97-6.1-1.3-3.9h1.3c.02-.33.03-.66.03-1 0-4.33-1.6-8.07-3.92-9.86A6 6 0 0 0 22 6zm-6-4a4 4 0 0 1 3.46 2h-6.92A4 4 0 0 1 16 2zm3.54 28h-1.72l1.12-3.2.22-.64-.21-.65-1.17-3.5h1.78l1.3 3.9zm-.3-15.65A12.18 12.18 0 0 1 20.92 20h-6.08l-.49 1.3L12.6 26l-6.6.03V24l5-.02-.01-3.2a12.54 12.54 0 0 1 1.73-6.42c1.27-1.98 2.59-2.28 3.26-2.28s1.99.29 3.25 2.27zM16 10a4 4 0 0 1-4-4h8a4 4 0 0 1-4 4z"/></symbol>
<symbol id="MaleRunningLowerClothes" xmlns="http://www.w3.org/2000/svg" viewBox="0 0 32 32"> <path fill="var(--color-0)" className="color0" d="M23 21c0-4.33-1.6-8.06-3.92-9.86a6 6 0 1 0-6.16 0C10.6 12.94 9 16.67 9 21c0 .34.01.67.03 1l-4.56.04H4v6L14 28l.17-.46 1.77-4.71 1.1 3.32L15 32h6l1.97-6.1-1.3-3.9h1.3c.02-.33.03-.66.03-1zM12 6a4 4 0 1 1 4 4 4 4 0 0 1-4-4zm5 14h-5.98a12.72 12.72 0 0 1 1.72-5.7C14 12.3 15.33 12 16 12s1.99.3 3.26 2.3a12.34 12.34 0 0 1 1.7 5.7z"/></symbol>
<symbol id="MaleRunningLowerClothesHat" xmlns="http://www.w3.org/2000/svg" viewBox="0 0 32 32"> <path fill="var(--color-0)" className="color0" d="M22 6.01h2v-2h-2.34a6 6 0 0 0-11.32 0H8v2h2a5.98 5.98 0 0 0 2.92 5.13C10.6 12.94 9 16.67 9 21c0 .34.01.67.03 1l-4.56.04H4v6L14 28l.17-.46 1.77-4.71 1.1 3.32L15 32h6l1.97-6.1-1.3-3.9h1.3c.02-.33.03-.66.03-1 0-4.33-1.6-8.06-3.92-9.86A5.99 5.99 0 0 0 22 6.01zm-6-4a3.98 3.98 0 0 1 3.44 2h-6.89a3.98 3.98 0 0 1 3.45-2zm3.26 12.3a12.34 12.34 0 0 1 1.7 5.7h-9.94a12.72 12.72 0 0 1 1.72-5.7C14 12.3 15.33 12 16 12s1.99.3 3.26 2.3zM16 10a4 4 0 0 1-4-4h8a4 4 0 0 1-4 4z"/></symbol>
<symbol id="MaleRunningUpperClothes" xmlns="http://www.w3.org/2000/svg" viewBox="0 0 32 32"> <path fill="var(--color-0)" className="color0" d="M23 21.14v-.19c0-.46-.03-.9-.06-1.36l-.04-.4q-.06-.57-.16-1.13l-.04-.23a15.5 15.5 0 0 0-.3-1.3l-.08-.22q-.16-.56-.37-1.08l-.06-.16a11.27 11.27 0 0 0-1.2-2.2l-.03-.06a7.8 7.8 0 0 0-1.56-1.66h-.01a6 6 0 1 0-6.17 0 7.85 7.85 0 0 0-1.58 1.67l-.02.03a11.24 11.24 0 0 0-1.21 2.23l-.04.12c-.15.36-.28.75-.4 1.14l-.06.18c-.12.43-.23.87-.32 1.33l-.02.17c-.07.39-.13.79-.17 1.2l-.04.35c-.04.47-.06.95-.06 1.43l.01.47c0 .18 0 .36.02.53L4 22.04V28l10.09-.03 1.96-5.23 1.11 3.36L15.1 32H21l1.97-6.1-1.3-3.9h1.3c.02-.28.02-.57.03-.86zM12 6a4 4 0 1 1 4 4 4 4 0 0 1-4-4zm.6 20-6.6.01V24l5-.02-.01-1.98h3.1zm8.26-.1L19.54 30h-1.72l1.12-3.2.22-.65-.21-.64L17.77 22h1.79z"/></symbol>
<symbol id="MaleRunningUpperClothesHat" xmlns="http://www.w3.org/2000/svg" viewBox="0 0 32 32"> <path fill="var(--color-0)" className="color0" d="M21.67 4.01a6 6 0 0 0-11.33 0H8v2h2a5.98 5.98 0 0 0 2.92 5.13v.01a7.83 7.83 0 0 0-1.58 1.67l-.02.03a11.26 11.26 0 0 0-1.21 2.24l-.04.1c-.15.37-.28.76-.4 1.15l-.06.18c-.12.43-.23.87-.32 1.33l-.02.17c-.07.39-.13.79-.17 1.2l-.04.35c-.04.47-.06.95-.06 1.44l.01.47c0 .17 0 .35.02.53L4 22.04V28l10.09-.03 1.96-5.22 1.11 3.35L15.1 32H21l1.97-6.1-1.3-3.9h1.3c.02-.28.02-.57.03-.86v-.19c0-.46-.03-.91-.06-1.36l-.04-.4q-.06-.57-.16-1.13l-.04-.23a15.5 15.5 0 0 0-.3-1.3l-.08-.22q-.16-.56-.37-1.09l-.06-.15a11.28 11.28 0 0 0-1.19-2.2l-.04-.06a7.82 7.82 0 0 0-1.56-1.66A5.99 5.99 0 0 0 22 6h2V4zm-5.67-2a3.98 3.98 0 0 1 3.44 2h-6.89a3.98 3.98 0 0 1 3.45-2zm-3.4 24-6.6.01V24l5-.02-.01-1.97h3.1zm6.96-4 1.3 3.9-1.32 4.1h-1.72l1.12-3.2.22-.65-.21-.64L17.78 22zM16 10a4 4 0 0 1-4-4h8a4 4 0 0 1-4 4z"/></symbol>
<symbol id="MaleStanding" xmlns="http://www.w3.org/2000/svg" viewBox="0 0 32 32"> <path fill="var(--color-0)" className="color0" d="M19.5 10.87a6 6 0 1 0-7 0C9.27 12.54 7 16.45 7 21c0 .34.01.67.04 1H12v10h8V22h4.96a11 11 0 0 0 .04-1c0-4.55-2.27-8.46-5.5-10.13zM16 2.01a4 4 0 1 1-4 4 4 4 0 0 1 4-4zm4 18h-2v10h-4V20H9.04a10.04 10.04 0 0 1 2.14-5.52A6.25 6.25 0 0 1 16 12.01a6.25 6.25 0 0 1 4.82 2.48A10.02 10.02 0 0 1 22.96 20z"/></symbol>
<symbol id="MaleStandingHat" xmlns="http://www.w3.org/2000/svg" viewBox="0 0 32 32"> <path fill="var(--color-0)" className="color0" d="M19.5 10.86A5.99 5.99 0 0 0 22 6h2V4h-2.34a6 6 0 0 0-11.32 0H8v2h2a5.99 5.99 0 0 0 2.5 4.86C9.27 12.53 7 16.44 7 21c0 .34.01.67.04 1H12v10h8V22h4.96a11 11 0 0 0 .04-1c0-4.56-2.27-8.47-5.5-10.14zM16 2a4 4 0 0 1 3.46 2h-6.92A4 4 0 0 1 16 2zm-4 4h8a4 4 0 0 1-8 0zm6 14v10h-4V20H9.04a10.04 10.04 0 0 1 2.14-5.51A6.25 6.25 0 0 1 16 12a6.25 6.25 0 0 1 4.82 2.49A10.03 10.03 0 0 1 22.96 20z"/></symbol>
<symbol id="MaleStandingLowerClothes" xmlns="http://www.w3.org/2000/svg" viewBox="0 0 32 32"> <path fill="var(--color-0)" className="color0" d="M19.5 10.87a6 6 0 1 0-7 0C9.27 12.54 7 16.45 7 21c0 .34.01.67.04 1H12v10h8V22h4.96a11 11 0 0 0 .04-1c0-4.55-2.27-8.46-5.5-10.13zM12 6.01a4 4 0 1 1 4 4 4 4 0 0 1-4-4zM9.04 20a10.03 10.03 0 0 1 2.14-5.52A6.25 6.25 0 0 1 16 12.01a6.25 6.25 0 0 1 4.82 2.48A10.03 10.03 0 0 1 22.96 20z"/></symbol>
<symbol id="MaleStandingLowerClothesHat" xmlns="http://www.w3.org/2000/svg" viewBox="0 0 32 32"> <path fill="var(--color-0)" className="color0" d="M19.5 10.87A5.98 5.98 0 0 0 22 6.01h2v-2h-2.34a6 6 0 0 0-11.32 0H8v2h2a5.98 5.98 0 0 0 2.5 4.86C9.27 12.54 7 16.45 7 21c0 .34.01.67.04 1H12v10h8V22h4.96a11 11 0 0 0 .04-1c0-4.55-2.27-8.46-5.5-10.13zM16 2.01a3.98 3.98 0 0 1 3.44 2h-6.89a3.98 3.98 0 0 1 3.45-2zm-4 4h8a4 4 0 0 1-8 0zm-2.96 14a10.03 10.03 0 0 1 2.14-5.52A6.25 6.25 0 0 1 16 12.01a6.25 6.25 0 0 1 4.82 2.49 10.03 10.03 0 0 1 2.14 5.5z"/></symbol>
<symbol id="MaleStandingUpperClothes" xmlns="http://www.w3.org/2000/svg" viewBox="0 0 32 32"> <path fill="var(--color-0)" className="color0" d="M25 21.01a13.4 13.4 0 0 0-.1-1.5c0-.12-.02-.23-.04-.35a12.69 12.69 0 0 0-.7-2.76l-.08-.22a11.04 11.04 0 0 0-1.25-2.3l-.27-.38a9.7 9.7 0 0 0-1.78-1.8 7.7 7.7 0 0 0-.24-.17 8.33 8.33 0 0 0-1.04-.65 6 6 0 1 0-7 0 8.41 8.41 0 0 0-1.04.64l-.59.46a8.83 8.83 0 0 0-1.35 1.41l-.27.36a11.25 11.25 0 0 0-.71 1.1 11.92 11.92 0 0 0-.58 1.22l-.13.33a12.5 12.5 0 0 0-.42 1.31v.03a12.86 12.86 0 0 0-.27 1.4l-.05.37A13.6 13.6 0 0 0 7 21v.02c0 .34.01.67.04 1H12V32h8V22h4.96c.03-.32.04-.65.04-.99zM12.16 6.02a4 4 0 1 1 4 4 4 4 0 0 1-4-4zM18 30h-4v-8h4z"/></symbol>
<symbol id="MaleStandingUpperClothesHat" xmlns="http://www.w3.org/2000/svg" viewBox="0 0 32 32"> <path fill="var(--color-0)" className="color0" d="M24.9 19.5c0-.11-.02-.23-.04-.34a12.7 12.7 0 0 0-.7-2.76l-.12-.31a11.37 11.37 0 0 0-1.3-2.34 9.5 9.5 0 0 0-.18-.25 9.73 9.73 0 0 0-1.78-1.8 7.64 7.64 0 0 0-.24-.18 8.36 8.36 0 0 0-1.04-.65 5.98 5.98 0 0 0 2.49-4.85H24v-2h-2.34a6 6 0 0 0-11.32 0H8v2h2a5.98 5.98 0 0 0 2.5 4.85 8.44 8.44 0 0 0-1.04.65 8.5 8.5 0 0 0-.24.18 9.73 9.73 0 0 0-1.78 1.79l-.19.25a11.27 11.27 0 0 0-.71 1.1 11.96 11.96 0 0 0-.58 1.23l-.12.32a12.4 12.4 0 0 0-.43 1.32v.02a12.77 12.77 0 0 0-.27 1.4l-.05.38A13.58 13.58 0 0 0 7 20.99V21c0 .33.01.67.04 1H12v10h8V22h4.96c.03-.32.04-.66.04-1a13.42 13.42 0 0 0-.1-1.5zM16 2.03a3.98 3.98 0 0 1 3.44 2h-6.89a3.98 3.98 0 0 1 3.45-2zM18 30h-4v-8h4zm-2-19.99a4 4 0 0 1-4-4h8a4 4 0 0 1-4 4z"/></symbol>
<symbol id="MaleWalking" xmlns="http://www.w3.org/2000/svg" viewBox="0 0 32 32"> <path fill="var(--color-0)" className="color0" d="m25 32-3.33-10h1.3c.02-.33.03-.66.03-1 0-4.33-1.6-8.06-3.92-9.86a6 6 0 1 0-6.17 0C10.6 12.94 9 16.67 9 21c0 .34.01.67.03 1h1.3L7 32h6l3-9 3 9zm-2.77-2h-1.79l-2.67-8h1.79zM12 6a4 4 0 1 1 4 4 4 4 0 0 1-4-4zm2.9 14-.47 1.37L11.57 30h-1.8l2.46-7.36.88-2.64h-2.08a12.33 12.33 0 0 1 1.7-5.7C14 12.3 15.33 12 16 12s2 .3 3.26 2.3a12.34 12.34 0 0 1 1.7 5.7z"/></symbol>
<symbol id="MaleWalkingHat" xmlns="http://www.w3.org/2000/svg" viewBox="0 0 32 32"> <path fill="var(--color-0)" className="color0" d="M21.67 22h1.3c.02-.33.03-.66.03-1 0-4.33-1.6-8.07-3.92-9.86A6 6 0 0 0 22 6h2V4h-2.34a6 6 0 0 0-11.32 0H8v2h2a6 6 0 0 0 2.92 5.14C10.6 12.94 9 16.67 9 21c0 .34.01.67.03 1h1.3L7 32h6l3-9 3 9h6zM16 2a4 4 0 0 1 3.46 2h-6.92A4 4 0 0 1 16 2zm-4 4h8a4 4 0 0 1-8 0zm2.9 14-.46 1.37L11.57 30H9.78l2.46-7.37.87-2.63h-2.07a12.34 12.34 0 0 1 1.7-5.7c1.27-2 2.59-2.3 3.27-2.3s2 .3 3.27 2.3a12.33 12.33 0 0 1 1.7 5.7zm2.88 2h1.78l2.67 8h-1.79z"/></symbol>
<symbol id="MaleWalkingLowerClothes" xmlns="http://www.w3.org/2000/svg" viewBox="0 0 32 32"> <path fill="var(--color-0)" className="color0" d="m25 32-3.33-10h1.3c.02-.33.03-.66.03-1 0-4.33-1.6-8.06-3.92-9.86a6 6 0 1 0-6.17 0C10.6 12.94 9 16.67 9 21c0 .34.01.67.03 1h1.3L7 32h6l3-9 3 9zM12 6a4 4 0 1 1 4 4 4 4 0 0 1-4-4zm-.97 14a12.33 12.33 0 0 1 1.7-5.7C14 12.3 15.33 12 16 12s2 .3 3.26 2.3a12.34 12.34 0 0 1 1.7 5.7z"/></symbol>
<symbol id="MaleWalkingLowerClothesHat" xmlns="http://www.w3.org/2000/svg" viewBox="0 0 32 32"> <path fill="var(--color-0)" className="color0" d="M21.67 22h1.3c.02-.33.03-.66.03-1 0-4.33-1.6-8.06-3.92-9.86A5.99 5.99 0 0 0 22 6.01h2v-2h-2.34a6 6 0 0 0-11.32 0H8v2h2a5.98 5.98 0 0 0 2.9 5.13C10.6 12.94 9 16.67 9 21c0 .34.01.67.03 1h1.3L7 32h6l3-9 3 9h6zM16 2.01a3.98 3.98 0 0 1 3.44 2h-6.89a3.98 3.98 0 0 1 3.45-2zm-4 4h8a4 4 0 0 1-8 0zm-.97 14a12.33 12.33 0 0 1 1.7-5.7C14 12.3 15.33 12 16 12s2 .3 3.26 2.3a12.34 12.34 0 0 1 1.7 5.7z"/></symbol>
<symbol id="MaleWalkingUpperClothesHat" xmlns="http://www.w3.org/2000/svg" viewBox="0 0 32 32"> <path fill="var(--color-0)" className="color0" d="M21.67 22h1.3a14.99 14.99 0 0 0-.04-2.49l-.02-.22c-.05-.48-.11-.94-.2-1.4a13.74 13.74 0 0 0-.33-1.41l-.02-.07a13.55 13.55 0 0 0-.45-1.28v-.01a9.45 9.45 0 0 0-2.82-3.98A5.99 5.99 0 0 0 22 6.01h2v-2h-2.34a6 6 0 0 0-11.32 0H8v2h2a5.98 5.98 0 0 0 2.92 5.13l-.03.03a7.84 7.84 0 0 0-1.54 1.64l-.05.06a11.25 11.25 0 0 0-1.2 2.21 13.78 13.78 0 0 0-.44 1.26l-.05.18c-.12.43-.23.87-.31 1.33l-.03.17c-.07.4-.13.8-.17 1.2l-.03.36c-.04.47-.07.94-.07 1.43l.01.47c0 .18 0 .35.02.53h1.3L7 32h6l3-9 3 9h6zM16 2.01a3.98 3.98 0 0 1 3.44 2h-6.89a3.98 3.98 0 0 1 3.45-2zm-4.44 28H9.77l2.46-7.37.21-.64h1.78zM12 6h8a4 4 0 0 1-8 0zm5.78 16h1.78l2.66 8h-1.78z"/></symbol>
<symbol id="MaleWalkingUpperClothes" xmlns="http://www.w3.org/2000/svg" viewBox="0 0 32 32"> <path fill="var(--color-0)" className="color0" d="M21.67 22h1.3q.03-.49.03-1c0-.5-.03-1-.07-1.49l-.02-.22c-.05-.48-.11-.95-.2-1.4a13.74 13.74 0 0 0-.33-1.41l-.02-.07a13.58 13.58 0 0 0-.45-1.28v-.01a9.45 9.45 0 0 0-2.82-3.98 6 6 0 1 0-6.17 0l-.03.03a7.86 7.86 0 0 0-1.54 1.64l-.05.06a11.24 11.24 0 0 0-1.2 2.21 13.78 13.78 0 0 0-.44 1.26l-.05.18c-.12.43-.23.87-.31 1.33l-.03.17c-.07.4-.13.8-.17 1.2l-.03.36c-.04.47-.07.94-.07 1.43l.01.47c0 .18 0 .35.02.53h1.3L7 32h6l3-9 3 9h6zM12 6.01a4 4 0 1 1 4 4 4 4 0 0 1-4-4zm-.44 24H9.77l2.46-7.37.21-.64h1.78zm6.21-8h1.79l2.66 8h-1.78z"/></symbol>
</svg>