<svg xmlns="http://www.w3.org/2000/svg" viewBox="0 0 86.6 20">
  <defs>
    <style>.cls-1{fill:#c00;}.cls-2{fill:#221f1f;} </style>
  </defs>
  <title>lumada-logo-2-color</title>
  <g id="Layer_2" data-name="Layer 2">
    <g id="Layer_1-2" data-name="Layer 1">
      <path class="cls-1" d="M15.88,9.06l-.34-1.28.85-.85a7.09,7.09,0,0,0-.6-1l-1.15.31-1-.94L14,4.11a8.07,8.07,0,0,0-1-.59l-.85.85L10.84,4l-.31-1.16a7.75,7.75,0,0,0-1.18,0L9,4l-1.28.34L6.9,3.52a6.22,6.22,0,0,0-1,.59l.31,1.16-.94.94L4.08,5.9a7.32,7.32,0,0,0-.59,1l.85.85L4,9.06l-1.16.31a7.88,7.88,0,0,0,0,1.19L4,10.87l.35,1.28L3.49,13a7,7,0,0,0,.59,1l1.16-.31.94.94-.31,1.16a6.16,6.16,0,0,0,1,.6l.85-.85L9,15.91,9.32,17h1.23l.29-1.09,1.29-.34.84.85a6.59,6.59,0,0,0,1-.6l-.31-1.16.94-.94,1.16.31a6.5,6.5,0,0,0,.6-1l-.85-.85.34-1.29L17,10.56a5.92,5.92,0,0,0,0-1.19Zm-.78,2.17A5.31,5.31,0,1,1,11.2,4.8a5.32,5.32,0,0,1,3.9,6.43"/>
      <path class="cls-2" d="M11,5.65A4.45,4.45,0,1,0,14.26,11,4.44,4.44,0,0,0,11,5.65m2.39,5.24a3.58,3.58,0,1,1-2.53-4.38,3.57,3.57,0,0,1,2.53,4.38"/>
      <path class="cls-1" d="M10,0a.43.43,0,0,0-.43.43V1.75a.43.43,0,0,0,.43.43.43.43,0,0,0,.43-.42V.43A.42.42,0,0,0,10,0"/>
      <path class="cls-1" d="M10,17.82a.42.42,0,0,0-.43.42v1.33A.43.43,0,0,0,10,20a.43.43,0,0,0,.43-.43V18.25a.42.42,0,0,0-.42-.43"/>
      <path class="cls-1" d="M17,2.93a.44.44,0,0,0-.61,0l-.94.94a.42.42,0,1,0,.6.6L17,3.54a.44.44,0,0,0,0-.61"/>
      <path class="cls-1" d="M4.47,15.36a.44.44,0,0,0-.61,0l-.94.94a.42.42,0,0,0,0,.6.43.43,0,0,0,.6,0L4.46,16a.43.43,0,0,0,0-.6"/>
      <path class="cls-1" d="M19.83,10a.44.44,0,0,0-.43-.43H18.07a.43.43,0,0,0-.43.43.44.44,0,0,0,.43.43H19.4a.43.43,0,0,0,.43-.43"/>
      <path class="cls-1" d="M2.18,9.88a.42.42,0,0,0-.42-.43H.43a.43.43,0,0,0,0,.86H1.75a.43.43,0,0,0,.43-.43"/>
      <path class="cls-1" d="M16.94,17a.43.43,0,0,0,0-.6l-.94-1a.43.43,0,1,0-.6.61l.93.94a.43.43,0,0,0,.61,0"/>
      <path class="cls-1" d="M4.51,4.42a.43.43,0,0,0,0-.6l-.94-.94a.43.43,0,0,0-.6,0,.44.44,0,0,0,0,.61l.94.94a.42.42,0,0,0,.6,0"/>
      <path d="M22.86,4.49h1v9.22h4.68v.89H22.86Z"/>
      <path d="M31.39,4.49h1v6.57a2.63,2.63,0,0,0,2.87,2.79A2.64,2.64,0,0,0,38.13,11V4.49h1v6.59a3.56,3.56,0,0,1-3.85,3.69,3.58,3.58,0,0,1-3.88-3.69Z"/>
      <path d="M43.85,4.49h1l2.64,5.94c.23.52.49,1.24.49,1.24h0s.28-.72.51-1.24L51.2,4.49h1L53,14.6H52l-.56-7.07c0-.55,0-1.41,0-1.41h0s-.31.89-.54,1.41l-2.37,5.19h-.93L45.21,7.53C45,7,44.66,6.09,44.66,6.09h0s0,.89,0,1.44L44,14.6h-1Z"/>
      <path d="M62.07,11.38H58L56.85,14.6H55.8L59.51,4.49h1.06L64.28,14.6H63.23ZM60,5.54s-.22.84-.39,1.31l-1.35,3.67h3.48L60.44,6.85c-.17-.47-.38-1.31-.38-1.31Z"/>
      <path d="M67.37,4.49h3.27a4.71,4.71,0,0,1,5.07,5,4.7,4.7,0,0,1-5.07,5.06H67.37Zm3.17,9.22a3.83,3.83,0,0,0,4.14-4.17,3.83,3.83,0,0,0-4.14-4.16H68.37v8.33Z"/>
      <path d="M84.38,11.38H80.31L79.16,14.6h-1L81.82,4.49h1.07L86.6,14.6h-1Zm-2-5.84s-.22.84-.39,1.31L80.6,10.52h3.48L82.76,6.85c-.18-.47-.39-1.31-.39-1.31Z"/>
    </g>
  </g>
</svg>
