<svg xmlns="http://www.w3.org/2000/svg" width="32" height="32" viewBox="0 0 32 32">
  <g id="Binoculars.S" transform="translate(-727 -349)">
    <rect id="Rectangle_724" data-name="Rectangle 724" width="32" height="32" transform="translate(727 349)" fill="none"/>
    <path id="Path_2334" data-name="Path 2334" d="M750.8,367.5l-1.8-7a2.5,2.5,0,0,0-5,.1v3.5h-2v-3.5a2.5,2.5,0,0,0-5-.1l-1.8,7a3.477,3.477,0,1,0,6.8,1,.9.9,0,0,0-.1-.5h2.2c0,.2-.1.3-.1.5a3.5,3.5,0,0,0,7,0A2.958,2.958,0,0,0,750.8,367.5Zm-5.8-7a1.5,1.5,0,0,1,3,0l1.3,5a3.453,3.453,0,0,0-1.8-.5,3.25,3.25,0,0,0-2.5,1.1v-5.6Zm-7,.1v-.1a1.5,1.5,0,0,1,3,0v5.6a3.25,3.25,0,0,0-2.5-1.1,3.453,3.453,0,0,0-1.8.5Zm.5,10.4a2.476,2.476,0,0,1-2.5-2.5v-.4l.1-.4a2.46,2.46,0,0,1,4.8.8A2.393,2.393,0,0,1,738.5,371Zm3.5-4v-2h2v2Zm5.5,4a2.5,2.5,0,0,1,0-5,2.41,2.41,0,0,1,2.3,1.6l.1.5v.4A2.336,2.336,0,0,1,747.5,371Z" fill="#414141"/>
  </g>
</svg>
