<svg xmlns="http://www.w3.org/2000/svg" width="32" height="32" viewBox="0 0 32 32">
  <g id="CardsSelected.S" transform="translate(11677 1868)">
    <rect id="Rectangle_1005" data-name="Rectangle 1005" width="32" height="32" transform="translate(-11677 -1868)" fill="#414141"/>
    <g id="Group_3965" data-name="Group 3965" transform="translate(-12567 -3669)">
      <g id="Group_3985" data-name="Group 3985">
        <g id="Rectangle_1072" transform="translate(900 1818)">
          <rect id="Rectangle_1884" data-name="Rectangle 1884" width="5" height="5" fill="none"/>
          <path id="Path_1919" data-name="Path 1919" d="M5,5H0V0H5ZM1,4H4V1H1Z" fill="#f9f9f9"/>
        </g>
        <g id="Rectangle_1219" transform="translate(900 1811)">
          <rect id="Rectangle_1885" data-name="Rectangle 1885" width="5" height="5" fill="none"/>
          <path id="Path_1920" data-name="Path 1920" d="M5,5H0V0H5ZM1,4H4V1H1Z" fill="#f9f9f9"/>
        </g>
        <g id="Rectangle_1072-2" transform="translate(907 1818)">
          <rect id="Rectangle_1886" data-name="Rectangle 1886" width="5" height="5" fill="none"/>
          <path id="Path_1921" data-name="Path 1921" d="M5,5H0V0H5ZM1,4H4V1H1Z" fill="#f9f9f9"/>
        </g>
        <g id="Rectangle_1220" transform="translate(907 1811)">
          <rect id="Rectangle_1887" data-name="Rectangle 1887" width="5" height="5" fill="none"/>
          <path id="Path_1922" data-name="Path 1922" d="M5,5H0V0H5ZM1,4H4V1H1Z" fill="#f9f9f9"/>
        </g>
      </g>
    </g>
  </g>
</svg>
