<svg xmlns="http://www.w3.org/2000/svg" width="32" height="32" viewBox="0 0 32 32">
  <g id="FavoriteColor.S" transform="translate(-848 -661)">
    <rect id="Rectangle_1010" data-name="Rectangle 1010" width="32" height="32" transform="translate(848 661)" fill="none"/>
    <g id="Group_5882" data-name="Group 5882" transform="translate(848 661)">
      <path id="Path_2365" data-name="Path 2365" d="M16,20.375,20.375,23,19.5,17.75l3.5-3.5-4.624-.639L16,9l-2.37,4.611L9,14.25l3.5,3.5L11.63,23Z" fill="#e8c758"/>
      <path id="Path_3062" data-name="Path 3062" d="M10.959,23.986l1.006-6.064-4.03-4.03,5.369-.741L16,7.907l2.7,5.244,5.363.742-4.029,4.029,1.011,6.063L16,20.958ZM16,19.792l3.7,2.223-.739-4.437,2.971-2.971-3.885-.536L16,10.093l-2.044,3.978-3.891.537,2.97,2.97L12.3,22.014Z" fill="#414141"/>
    </g>
  </g>
</svg>
