<svg xmlns="http://www.w3.org/2000/svg" width="32" height="32" viewBox="0 0 32 32">
  <g id="Level4.S" transform="translate(-935.5 -517.5)">
    <rect id="Rectangle_999" data-name="Rectangle 999" width="32" height="32" transform="translate(935.5 517.5)" fill="none"/>
    <g id="Group_4694" transform="translate(231.5 -2647.5)">
      <g id="Group_4666" transform="translate(2348 2790) rotate(90)">
        <rect id="Rectangle_2043" data-name="Rectangle 2043" width="2" height="2" transform="translate(395 1628.9)" fill="#414141"/>
      </g>
      <rect id="Rectangle_2044" data-name="Rectangle 2044" width="2" height="8" transform="translate(717 3175)" fill="#414141"/>
    </g>
    <g id="Group_4695" transform="translate(235.5 -2647.5)">
      <g id="Group_4666-2" transform="translate(2348 2790) rotate(90)">
        <rect id="Rectangle_2045" data-name="Rectangle 2045" width="2" height="2" transform="translate(395 1628.9)" fill="#414141"/>
      </g>
      <rect id="Rectangle_2046" data-name="Rectangle 2046" width="2" height="8" transform="translate(717 3175)" fill="#414141"/>
    </g>
    <g id="Ellipse_269" data-name="Ellipse 269" transform="translate(935.5 517.5)">
      <circle id="Ellipse_257" data-name="Ellipse 257" cx="12" cy="12" r="12" transform="translate(4 4)" fill="none"/>
      <path id="Path_2675" data-name="Path 2675" d="M16,28A12,12,0,1,1,28,16,12.013,12.013,0,0,1,16,28ZM16,5A11,11,0,1,0,27,16,11.013,11.013,0,0,0,16,5Z" fill="#414141"/>
    </g>
  </g>
</svg>
