<svg xmlns="http://www.w3.org/2000/svg" width="32" height="32" viewBox="0 0 32 32">
  <g id="LineChartAlt.S" transform="translate(-511 -1014)">
    <rect id="Rectangle_1003" data-name="Rectangle 1003" width="32" height="32" transform="translate(511 1014)" fill="none"/>
    <rect id="Rectangle_2308" data-name="Rectangle 2308" width="16" height="1" transform="translate(519 1037)" fill="#414141"/>
    <path id="Path_3074" data-name="Path 3074" d="M18.139,19.595a1.5,1.5,0,0,1-1.5-1.5,1.486,1.486,0,0,1,.146-.646l-2.2-2.2a1.534,1.534,0,0,1-1.312.022l-2.349,2.347a1.5,1.5,0,0,1-2.646,1.344A1.487,1.487,0,0,1,8,18.095H8a1.5,1.5,0,0,1,2.3-1.27l2.258-2.257a1.5,1.5,0,1,1,2.716-.042l2.217,2.216a1.555,1.555,0,0,1,1.294,0L21.1,14.428A1.475,1.475,0,0,1,21,13.9a1.5,1.5,0,1,1,.748,1.3l-2.256,2.256a1.5,1.5,0,0,1-1.353,2.147Zm0-2a.5.5,0,1,0,.5.5A.5.5,0,0,0,18.139,17.595Zm-8.64,0a.5.5,0,0,0-.5.5H9a.5.5,0,0,0,.416.492.493.493,0,0,0,.373-.085.5.5,0,0,0,.119-.7v0A.5.5,0,0,0,9.5,17.594Zm4.057-3.327h0a.515.515,0,0,0,.707-.009.5.5,0,1,0-.708.008ZM22.5,13.4a.5.5,0,1,0,.5.5A.5.5,0,0,0,22.5,13.4Z" transform="translate(511 1014)" fill="#414141"/>
  </g>
</svg>
