<svg xmlns="http://www.w3.org/2000/svg" width="32" height="32" viewBox="0 0 32 32">
  <g id="Link.S" transform="translate(-763.5 -897.5)">
    <rect id="Rectangle_1005" data-name="Rectangle 1005" width="32" height="32" transform="translate(763.5 897.5)" fill="none"/>
    <g id="Rectangle_2093" data-name="Rectangle 2093" transform="translate(763.5 897.5)">
      <path id="Path_2446" data-name="Path 2446" d="M14.586,14.586l4.243-4.243a3,3,0,0,1,4.243,0h0a3,3,0,0,1,0,4.243l-4.243,4.242a3,3,0,0,1-4.243,0h0A3,3,0,0,1,14.586,14.586Z" fill="none"/>
      <path id="Path_2447" data-name="Path 2447" d="M23.071,10.343a3.07,3.07,0,0,0-4.242,0l-2.26,2.26a3.076,3.076,0,0,0-3.4.568L8.929,17.414a3,3,0,1,0,4.243,4.242l2.25-2.25a2.962,2.962,0,0,0,3.407-.578l4.242-4.243a3,3,0,0,0,0-4.242Zm-6.364,6.364-1.414,1.414a2,2,0,0,1,0-2.829l1.415-1.413A2,2,0,0,1,16.707,16.707Zm-4.242,4.242a2.048,2.048,0,0,1-2.829,0,2,2,0,0,1,0-2.828l4.243-4.243a1.943,1.943,0,0,1,1.926-.511l-1.219,1.218a3,3,0,0,0,0,4.243Zm9.9-7.071-4.242,4.243a2.033,2.033,0,0,1-1.914.5l1.206-1.206a3,3,0,0,0,0-4.242l2.121-2.122a2.047,2.047,0,0,1,2.828,0,2,2,0,0,1,0,2.828Z" fill="#414141"/>
    </g>
  </g>
</svg>
