<svg xmlns="http://www.w3.org/2000/svg" width="32" height="32" viewBox="0 0 32 32">
  <g id="MachineAlt.S" transform="translate(-750 -1805)">
    <rect id="Rectangle_724" data-name="Rectangle 724" width="32" height="32" transform="translate(750 1805)" fill="none"/>
    <circle id="Ellipse_327" data-name="Ellipse 327" cx="2" cy="2" r="2" transform="translate(768 1813)" fill="none"/>
    <g id="Path_2972" data-name="Path 2972" transform="translate(750 1805)">
      <path id="Path_3076" data-name="Path 3076" d="M8,21.059,12,18l4,3.059V15l-3.96-2L8,15Z" fill="none"/>
      <path id="Path_3077" data-name="Path 3077" d="M21.394,23.044a1.482,1.482,0,0,0-.894-1.952V17.408a1.491,1.491,0,0,0,0-2.816V11.929A2,2,0,1,0,18.071,9.5H13.408A1.5,1.5,0,1,0,11.5,11.408v1.861L8,15v6.059L12,18l4,3.059V15l-3.5-1.769V11.408a1.5,1.5,0,0,0,.908-.908h4.663A2,2,0,0,0,19.5,11.929v2.663a1.491,1.491,0,0,0,0,2.816v3.684a1.482,1.482,0,0,0-.894,1.952H16v1h8v-1ZM15,15.615v3.42l-2.393-1.829L12,16.741l-.608.465L9,19.035V15.621l3.035-1.5ZM12,10.5a.5.5,0,1,1,.5-.5A.5.5,0,0,1,12,10.5Zm7-.5a1,1,0,1,1,1,1A1,1,0,0,1,19,10Zm1,5.5a.5.5,0,1,1-.5.5A.5.5,0,0,1,20,15.5ZM20,23a.5.5,0,1,1,.5-.5A.5.5,0,0,1,20,23Z" fill="#414141"/>
    </g>
  </g>
</svg>
