<svg xmlns="http://www.w3.org/2000/svg" width="32" height="32" viewBox="0 0 32 32">
  <g id="MarkerD.S" transform="translate(-513 -3227)">
    <rect id="Rectangle_1005" data-name="Rectangle 1005" width="32" height="32" transform="translate(513 3227)" fill="none"/>
    <path id="Path_2690" data-name="Path 2690" d="M16,22.992l-1.851-3.24-.144-.252H12.787L9.579,14l3.208-5.5h6.426L22.421,14l-3.208,5.5H18l-.144.252Z" transform="translate(513 3227)" fill="#fff"/>
    <path id="Path_2691" data-name="Path 2691" d="M16,21.984l1.418-2.48.288-.5h1.22l2.916-5L18.926,9H13.074l-2.917,5,2.917,5H14.3l.288.5L16,21.984M16,24l-2.285-4H12.5L9,14l3.5-6h7L23,14l-3.5,6H18.286Z" transform="translate(513 3227)" fill="#414141"/>
  </g>
</svg>
