<svg xmlns="http://www.w3.org/2000/svg" width="32" height="32" viewBox="0 0 32 32">
  <g id="MarkerE.sema6.S" transform="translate(-576 -3280)">
    <rect id="Rectangle_1005" data-name="Rectangle 1005" width="32" height="32" transform="translate(576 3280)" fill="none"/>
    <path id="Path_2694" data-name="Path 2694" d="M16,22.992l-1.852-3.24L14,19.5H10.663l1.532-5.363L12.234,14l-.039-.137L10.663,8.5H21.337l-1.532,5.362L19.766,14l.039.137L21.337,19.5H18l-.144.252Z" transform="translate(576 3280)" fill="#fff"/>
    <path id="Path_2881" data-name="Path 2881" d="M0,0H12L10.286,6,12,12H0L1.714,6Z" transform="translate(586 3288)" fill="#ff00d8"/>
    <path id="Path_2884" data-name="Path 2884" d="M16,21.985,17.417,19.5,17.7,19h2.97l-1.351-4.725L19.246,14l.078-.275L20.675,9H11.326l1.349,4.725.079.275-.079.274L11.326,19H14.3l.288.5L16,21.985M16,24l-2.286-4H10l1.714-6L10,8H22l-1.714,6L22,20H18.286Z" transform="translate(576 3280)" fill="#414141"/>
  </g>
</svg>
