<svg xmlns="http://www.w3.org/2000/svg" width="32" height="32" viewBox="0 0 32 32">
  <g id="PhotoCam.S" transform="translate(-943 -722)">
    <rect id="Rectangle_724" data-name="Rectangle 724" width="32" height="32" transform="translate(943 722)" fill="none"/>
    <g id="Rectangle_2290" data-name="Rectangle 2290" transform="translate(943 722)">
      <rect id="Rectangle_2274" data-name="Rectangle 2274" width="16" height="12" transform="translate(8 11)" fill="none"/>
      <path id="Path_3070" data-name="Path 3070" d="M24,23H8V11H24ZM9,22H23V12H9Z" fill="#414141"/>
    </g>
    <rect id="Rectangle_2275" data-name="Rectangle 2275" width="6" height="1" transform="translate(951 731)" fill="#414141"/>
    <g id="Ellipse_293" data-name="Ellipse 293" transform="translate(943 722)">
      <circle id="Ellipse_267" data-name="Ellipse 267" cx="4" cy="4" r="4" transform="translate(12 13)" fill="none"/>
      <path id="Path_3071" data-name="Path 3071" d="M16,21a4,4,0,1,1,4-4A4,4,0,0,1,16,21Zm0-7a3,3,0,1,0,3,3A3,3,0,0,0,16,14Z" fill="#414141"/>
    </g>
  </g>
</svg>
