<svg xmlns="http://www.w3.org/2000/svg" width="32" height="32" viewBox="0 0 32 32">
  <g id="PieChart.S" transform="translate(-648.5 -1060.5)">
    <rect id="Rectangle_1008" data-name="Rectangle 1008" width="32" height="32" transform="translate(648.5 1060.5)" fill="none"/>
    <g id="Group_5884" data-name="Group 5884" transform="translate(648.5 1060.5)">
      <path id="Path_3014" data-name="Path 3014" d="M16,16h7.359" fill="#fff"/>
      <path id="Path_3075" data-name="Path 3075" d="M16,8a8,8,0,1,0,8,8A8.009,8.009,0,0,0,16,8Zm6.975,7.5H16.5V9.025A7,7,0,0,1,22.975,15.5ZM9,16a7.005,7.005,0,0,1,6.5-6.975v6.768l-4.784,4.784A6.963,6.963,0,0,1,9,16Zm7,7a6.963,6.963,0,0,1-4.577-1.716L16.207,16.5h6.768A7.005,7.005,0,0,1,16,23Z" fill="#414141"/>
    </g>
  </g>
</svg>
