<svg xmlns="http://www.w3.org/2000/svg" width="32" height="32" viewBox="0 0 32 32">
  <g id="Tetris.S" transform="translate(-680 -1906)">
    <rect id="Rectangle_2086" data-name="Rectangle 2086" width="32" height="32" transform="translate(680 1906)" fill="none"/>
    <g id="Group_5603" data-name="Group 5603" transform="translate(680 1906)">
      <rect id="Rectangle_2268" data-name="Rectangle 2268" width="6" height="6" transform="translate(8 8)" fill="none"/>
      <rect id="Rectangle_2269" data-name="Rectangle 2269" width="6" height="6" transform="translate(18 13)" fill="none"/>
      <rect id="Rectangle_2270" data-name="Rectangle 2270" width="6" height="6" transform="translate(13 13)" fill="none"/>
      <rect id="Rectangle_2271" data-name="Rectangle 2271" width="6" height="6" transform="translate(8 13)" fill="none"/>
      <g id="Rectangle_2284" data-name="Rectangle 2284">
        <rect id="Rectangle_2272" data-name="Rectangle 2272" width="6" height="6" transform="translate(18 18)" fill="none"/>
        <path id="Path_3061" data-name="Path 3061" d="M14,13V8H8V19H18v5h6V13ZM9,9h4v4H9Zm4,9H9V14h4Zm1,0V14h4v4Zm9,5H19V19h4Zm-4-5V14h4v4Z" fill="#414141"/>
      </g>
    </g>
  </g>
</svg>
