<svg xmlns="http://www.w3.org/2000/svg" width="32" height="32" viewBox="0 0 32 32">
  <g id="BulbOn-16" transform="translate(-639 -3227)">
    <rect id="Rectangle_2078" data-name="Rectangle 2078" width="32" height="32" transform="translate(639 3227)" fill="none"/>
    <g id="Group_5610" data-name="Group 5610" transform="translate(639 3227)">
      <path id="Path_2456" data-name="Path 2456" d="M18,21V19.5l.4-.3a4,4,0,1,0-4.8,0l.4.3V21h4m1,1H13V20a5,5,0,1,1,6,0Z" fill="#414141"/>
      <g id="Group_5610-2" data-name="Group 5610">
        <rect id="Rectangle_2101" data-name="Rectangle 2101" width="6" height="1" transform="translate(13 23)" fill="#414141"/>
        <rect id="Rectangle_2102" data-name="Rectangle 2102" width="2" height="1" transform="translate(22 15.5)" fill="#414141"/>
        <rect id="Rectangle_2103" data-name="Rectangle 2103" width="1" height="2" transform="translate(15.5 8)" fill="#414141"/>
        <rect id="Rectangle_2104" data-name="Rectangle 2104" width="2" height="1" transform="translate(8 15.5)" fill="#414141"/>
        <rect id="Rectangle_2105" data-name="Rectangle 2105" width="2" height="1" transform="translate(19.889 11.404) rotate(-45)" fill="#414141"/>
        <rect id="Rectangle_2106" data-name="Rectangle 2106" width="1" height="2" transform="translate(9.989 10.696) rotate(-45)" fill="#414141"/>
      </g>
    </g>
  </g>
</svg>
