<svg xmlns="http://www.w3.org/2000/svg" width="32" height="32" viewBox="0 0 32 32">
  <g id="Help-16" transform="translate(-227.5 -990.5)">
    <rect id="Rectangle_1010" data-name="Rectangle 1010" width="32" height="32" transform="translate(227.5 990.5)" fill="none"/>
    <g id="Group_3984" data-name="Group 3984">
      <g id="Ellipse_15" transform="translate(235.5 998.5)">
        <circle id="Ellipse_211" data-name="Ellipse 211" cx="8" cy="8" r="8" fill="none"/>
        <path id="Path_1895" data-name="Path 1895" d="M8,16a8,8,0,1,1,8-8A8.024,8.024,0,0,1,8,16ZM8,1A6.957,6.957,0,0,0,1,8a6.957,6.957,0,0,0,7,7,6.957,6.957,0,0,0,7-7A6.957,6.957,0,0,0,8,1Z" fill="#414141"/>
      </g>
      <g id="Group_3915" transform="translate(-7 5)">
        <rect id="Rectangle_1860" data-name="Rectangle 1860" width="1" height="1" transform="translate(250 1005.5)" fill="#414141"/>
        <path id="Path_1896" data-name="Path 1896" d="M253.5,999.5a3,3,0,0,0-6,0h1a2,2,0,1,1,2,2H250v3h1v-2A3.1,3.1,0,0,0,253.5,999.5Z" fill="#414141"/>
      </g>
    </g>
  </g>
</svg>
