<svg xmlns="http://www.w3.org/2000/svg" width="32" height="32" viewBox="0 0 32 32">
  <g id="Level3-alert-MarkerA-16-color-plain" transform="translate(3724 -1171)">
    <rect id="Rectangle_1005" data-name="Rectangle 1005" width="32" height="32" transform="translate(-3724 1171)" fill="none"/>
    <path id="Path_2904" data-name="Path 2904" d="M16,22.993l-2.2-3.849-.076-.134-.138-.067a5.5,5.5,0,1,1,4.827,0l-.138.068-.076.134Z" transform="translate(-3724 1171)" fill="#fff"/>
    <path id="Union_246" data-name="Union 246" d="M3882,2358v-.343a6,6,0,1,1,4,0V2358Z" transform="translate(-7592 -1167)" fill="#e8c758"/>
    <path id="Path_2906" data-name="Path 2906" d="M16,21.985,17.765,18.9l.152-.267.276-.135a5,5,0,1,0-4.387,0l.276.135.152.267L16,21.985M16,24l-2.634-4.609a6,6,0,1,1,5.267,0Z" transform="translate(-3724 1171)" fill="#414141"/>
  </g>
</svg>
