<svg xmlns="http://www.w3.org/2000/svg" width="32" height="32" viewBox="0 0 32 32">
  <g id="Level4MarkerD-16" transform="translate(-513 -3351)">
    <rect id="Rectangle_999" data-name="Rectangle 999" width="32" height="32" transform="translate(513 3351)" fill="none"/>
    <g id="Union_115" data-name="Union 115" transform="translate(513 3351)">
      <path id="Path_2978" data-name="Path 2978" d="M16,30.992l-4.137-7.24-.144-.252H9.287L2.579,12,9.287.5H22.713L29.421,12,22.713,23.5H20.281l-.144.252Z" fill="#fff"/>
      <path id="Path_2979" data-name="Path 2979" d="M16,29.984l3.7-6.48.287-.5h2.436l6.416-11L22.426,1H9.574L3.158,12,9.574,23h2.435l.288.5,3.7,6.48M16,32l-4.571-8H9L2,12,9,0H23l7,12L23,24H20.571Z" fill="#414141"/>
    </g>
    <g id="Group_5674" data-name="Group 5674" transform="translate(513 3351)">
      <g id="Group_4686" data-name="Group 4686">
        <g id="Group_4666" data-name="Group 4666">
          <rect id="Rectangle_2249" data-name="Rectangle 2249" width="2" height="2" transform="translate(13.056 16)" fill="#414141"/>
        </g>
        <rect id="Rectangle_2250" data-name="Rectangle 2250" width="2" height="8" transform="translate(13 6)" fill="#414141"/>
      </g>
      <g id="Group_4687" data-name="Group 4687">
        <g id="Group_4666-2" data-name="Group 4666-2">
          <rect id="Rectangle_2251" data-name="Rectangle 2251" width="2" height="2" transform="translate(17.056 16)" fill="#414141"/>
        </g>
        <rect id="Rectangle_2252" data-name="Rectangle 2252" width="2" height="8" transform="translate(17 6)" fill="#414141"/>
      </g>
    </g>
  </g>
</svg>
