<svg xmlns="http://www.w3.org/2000/svg" width="32" height="32" viewBox="0 0 32 32">
  <g id="Level4MarkerC-16-color-plain" transform="translate(3756 -1107)">
    <rect id="Rectangle_1005" data-name="Rectangle 1005" width="32" height="32" transform="translate(-3756 1107)" fill="none"/>
    <path id="Path_2946" data-name="Path 2946" d="M16,22.992l-1.885-3.3-.174-.3-.345.06a3.578,3.578,0,0,1-.6.05,3.5,3.5,0,0,1-.875-6.89l.385-.1-.009-.4c0-.037,0-.076,0-.114a3.5,3.5,0,0,1,7,0c0,.028,0,.055,0,.083v.031l-.01.4.385.1A3.5,3.5,0,0,1,19,19.5a3.578,3.578,0,0,1-.6-.05l-.345-.06-.174.3Z" transform="translate(-3756 1107)" fill="#fff"/>
    <path id="Union_146" data-name="Union 146" d="M9,11.874V12H5v-.126A4,4,0,1,1,3,4.125C3,4.083,3,4.042,3,4a4,4,0,1,1,8,0c0,.042,0,.084,0,.126a4,4,0,0,1-2,7.749Z" transform="translate(-3747 1115)" fill="#e68c17"/>
    <path id="Path_2950" data-name="Path 2950" d="M16,21.985l1.451-2.539.347-.608.691.119a3,3,0,0,0,1.26-5.863l-.77-.2L19,12.1V12.07c0-.023,0-.047,0-.07a3,3,0,0,0-6,0v.1l.02.8-.77.2a3,3,0,0,0,1.261,5.863l.691-.119.347.608L16,21.985M16,24l-2.319-4.058A4,4,0,0,1,12,12.126c0-.042,0-.084,0-.126a4,4,0,0,1,8,0c0,.042,0,.084,0,.126a4,4,0,0,1-1.679,7.816Z" transform="translate(-3756 1107)" fill="#414141"/>
  </g>
</svg>
