<svg xmlns="http://www.w3.org/2000/svg" width="32" height="32" viewBox="0 0 32 32">
  <g id="PieChart-16" transform="translate(-648.5 -1060.5)">
    <rect id="Rectangle_1008" data-name="Rectangle 1008" width="32" height="32" transform="translate(648.5 1060.5)" fill="none"/>
    <g id="Group_2528" transform="translate(656.5 1068.5)">
      <g id="Ellipse_36_1_" transform="translate(658.5 1070.5)">
        <path id="Path_1015" d="M-649.5-1068.5a6.957,6.957,0,0,1,7,7,6.957,6.957,0,0,1-7,7,6.957,6.957,0,0,1-7-7" fill="none"/>
        <path id="Path_1947" data-name="Path 1947" d="M-649.5-1055a6.487,6.487,0,0,1-6.5-6.5h1a5.549,5.549,0,0,0,5.5,5.5,5.549,5.549,0,0,0,5.5-5.5,5.549,5.549,0,0,0-5.5-5.5v-1a6.487,6.487,0,0,1,6.5,6.5A6.487,6.487,0,0,1-649.5-1055Z" fill="#414141"/>
      </g>
      <g id="Ellipse_37_1_" transform="translate(655.5 1067.5)">
        <g id="Path_1017">
          <path id="Path_1948" data-name="Path 1948" d="M-655.5-1060.5a6.957,6.957,0,0,1,7-7v7Z" fill="none"/>
          <path id="Path_1949" data-name="Path 1949" d="M-649.5-1061.5v-4.9a5.947,5.947,0,0,0-4.9,4.9h4.9m1,1h-7a6.957,6.957,0,0,1,7-7Z" fill="#414141"/>
        </g>
      </g>
    </g>
  </g>
</svg>
