<svg xmlns="http://www.w3.org/2000/svg" width="32" height="32" viewBox="0 0 32 32">
  <g id="Plane-16" transform="translate(-436 -287)">
    <rect id="Rectangle_724" data-name="Rectangle 724" width="32" height="32" transform="translate(436 287)" fill="none"/>
    <path id="Path_1977" data-name="Path 1977" d="M457,300h-2l-4-3h-5l3,3h-2l-1-1h-2v6l5,1-3,3h5l4-3h2a3,3,0,0,0,0-6Zm-8.6-2h2.3l2.6,2h-2.9Zm2.3,10h-2.3l2-2h2.9Zm6.3-3h-7.8l-4.2-.8V300h.6l1,1H457a2,2,0,0,1,0,4Z" fill="#414141"/>
  </g>
</svg>
