<svg xmlns="http://www.w3.org/2000/svg" width="32" height="32" viewBox="0 0 32 32">
  <g id="PlayVideoAlt-16" transform="translate(-933 -3351)">
    <rect id="Rectangle_724" data-name="Rectangle 724" width="32" height="32" transform="translate(933 3351)" fill="none"/>
    <path id="Path_2991" data-name="Path 2991" d="M16,24h0a8.024,8.024,0,0,1-8-8H8a8.024,8.024,0,0,1,8-8h0a8.024,8.024,0,0,1,8,8h0A8.024,8.024,0,0,1,16,24Z" transform="translate(933 3351)" fill="none"/>
    <path id="Path_2992" data-name="Path 2992" d="M16,23a7.023,7.023,0,1,0-4.943-2.057A6.953,6.953,0,0,0,16,23m0,1a8,8,0,1,1,8-8A8.024,8.024,0,0,1,16,24Z" transform="translate(933 3351)" fill="#414141"/>
    <path id="Path_2993" data-name="Path 2993" d="M20,16l-6,3V13Z" transform="translate(933 3351)" fill="none"/>
    <path id="Path_2994" data-name="Path 2994" d="M17.764,16,15,14.618v2.764L17.764,16M20,16l-6,3V13Z" transform="translate(933 3351)" fill="#414141"/>
  </g>
</svg>
