<svg xmlns="http://www.w3.org/2000/svg" width="32" height="32" viewBox="0 0 32 32">
  <g id="Reload-16" transform="translate(-331.5 -990.5)">
    <rect id="Rectangle_1010" data-name="Rectangle 1010" width="32" height="32" transform="translate(331.5 990.5)" fill="none"/>
    <path id="Path_1953" data-name="Path 1953" d="M23.5,13.1a7.9,7.9,0,0,0-4.2-4.4,8.034,8.034,0,0,0-7.9,13.9H9v1h4.5V19h-1v3a6.944,6.944,0,0,1-2.9-8.9,6.964,6.964,0,0,1,12.9.3,7.216,7.216,0,0,1-.1,5.4,7.027,7.027,0,0,1-3.6,3.6l.4.9a8.189,8.189,0,0,0,4.1-4.1A8.049,8.049,0,0,0,23.5,13.1Z" transform="translate(331.5 990.5)" fill="#414141"/>
  </g>
</svg>
