<svg xmlns="http://www.w3.org/2000/svg" width="32" height="32" viewBox="0 0 32 32">
  <g id="Share-16" transform="translate(-548 -815)">
    <path id="Path_3032" data-name="Path 3032" d="M21,24h0a3,3,0,0,1-2.868-3.875l-4.708-2.354a3,3,0,1,1-1.08-4.454,3.024,3.024,0,0,1,1.079.913l4.708-2.353a3,3,0,1,1,4.212,1.806A3.015,3.015,0,0,1,21,14V13a2.012,2.012,0,0,0,.894-.211A2,2,0,1,0,19.21,11.9l.224.447-6.422,3.21-.223-.448A2,2,0,1,0,10.1,17.789a2,2,0,0,0,2.684-.893l.223-.448,6.421,3.21-.223.446A2,2,0,0,0,21,23h0a2,2,0,0,0,0-4V18a3,3,0,0,1,0,6Z" transform="translate(548 815)" fill="#414141"/>
    <rect id="Rectangle_1010" data-name="Rectangle 1010" width="32" height="32" transform="translate(548 815)" fill="none"/>
    <g id="Ellipse_279" data-name="Ellipse 279" transform="translate(548 815)">
      <circle id="Ellipse_260" data-name="Ellipse 260" cx="3" cy="3" r="3" transform="translate(8 13)" fill="none"/>
      <path id="Path_3033" data-name="Path 3033" d="M11,19a3,3,0,1,1,3-3A3,3,0,0,1,11,19Zm0-5a2,2,0,1,0,2,2A2,2,0,0,0,11,14Z" fill="#414141"/>
    </g>
    <g id="Ellipse_280" data-name="Ellipse 280" transform="translate(548 815)">
      <circle id="Ellipse_261" data-name="Ellipse 261" cx="3" cy="3" r="3" transform="translate(18 8)" fill="none"/>
      <path id="Path_3034" data-name="Path 3034" d="M21,14a3,3,0,1,1,3-3A3,3,0,0,1,21,14Zm0-5a2,2,0,1,0,2,2A2,2,0,0,0,21,9Z" fill="#414141"/>
    </g>
    <g id="Ellipse_281" data-name="Ellipse 281" transform="translate(548 815)">
      <circle id="Ellipse_262" data-name="Ellipse 262" cx="3" cy="3" r="3" transform="translate(18 18)" fill="none"/>
      <path id="Path_3035" data-name="Path 3035" d="M21,24a3,3,0,1,1,3-3A3,3,0,0,1,21,24Zm0-5a2,2,0,1,0,2,2A2,2,0,0,0,21,19Z" fill="#414141"/>
    </g>
  </g>
</svg>
