<svg xmlns="http://www.w3.org/2000/svg" width="32" height="32" viewBox="0 0 32 32">
  <g id="ZoomOut-16" transform="translate(-598.5 -1072.5)">
    <rect id="Rectangle_1007" data-name="Rectangle 1007" width="32" height="32" transform="translate(598.5 1072.5)" fill="none"/>
    <g id="Group_3936" transform="translate(0 -1114)">
      <circle id="Ellipse_229" data-name="Ellipse 229" cx="6" cy="6" r="6" transform="translate(606.6 2194.6)" fill="none"/>
      <g id="Group_4023" data-name="Group 4023">
        <rect id="Rectangle_1975" data-name="Rectangle 1975" width="6" height="1" transform="translate(609.5 2200)" fill="#414141"/>
        <g id="Ellipse_203" transform="translate(606.6 2194.6)">
          <circle id="Ellipse_235" data-name="Ellipse 235" cx="6" cy="6" r="6" fill="none"/>
          <path id="Path_2331" data-name="Path 2331" d="M6,12a6,6,0,1,1,6-6A6.018,6.018,0,0,1,6,12ZM6,1A4.951,4.951,0,0,0,1,6a4.951,4.951,0,0,0,5,5,4.951,4.951,0,0,0,5-5A4.951,4.951,0,0,0,6,1Z" fill="#414141"/>
        </g>
        <rect id="Rectangle_2068" data-name="Rectangle 2068" width="1" height="6.9" transform="matrix(0.707, -0.707, 0.707, 0.707, 616.083, 2204.947)" fill="#414141"/>
      </g>
    </g>
  </g>
</svg>
