<?xml version="1.0" standalone="no"?>
<!DOCTYPE svg PUBLIC "-//W3C//DTD SVG 20010904//EN" "http://www.w3.org/TR/2001/REC-SVG-20010904/DTD/svg10.dtd">
<svg version="1.0" xmlns="http://www.w3.org/2000/svg"
    width="192.000000pt" height="192.000000pt" viewBox="0 0 192.000000 192.000000"
    preserveAspectRatio="xMidYMid meet">

    <g transform="translate(0.000000,192.000000) scale(0.100000,-0.100000)"
        fill="#000000" stroke="none">
        <path
            d="M929 1871 c-41 -59 -90 -90 -196 -126 -155 -51 -233 -96 -337 -194
-107 -102 -170 -206 -225 -373 -26 -77 -42 -108 -77 -147 -25 -28 -54 -53 -64
-56 -29 -9 -25 -18 25 -53 54 -38 88 -90 111 -168 41 -145 125 -285 230 -385
105 -98 187 -146 346 -198 77 -26 108 -42 147 -77 28 -25 53 -54 56 -64 9 -29
19 -25 49 21 34 51 102 94 191 120 38 12 111 42 160 67 74 38 108 65 190 147
111 111 162 194 210 340 39 120 81 181 153 225 16 9 15 11 -3 21 -11 7 -41 33
-66 59 -39 40 -51 63 -77 143 -53 164 -120 275 -228 378 -105 98 -187 146
-346 198 -100 33 -168 79 -197 135 -8 14 -17 26 -20 26 -3 -1 -18 -18 -32 -39z
m-44 -326 l0 -90 -199 -3 c-225 -3 -223 -4 -113 70 71 48 151 84 226 103 87
21 86 23 86 -80z m290 63 c76 -25 168 -76 220 -122 l40 -35 -202 -1 -203 0 0
96 0 96 43 -7 c23 -4 69 -16 102 -27z m-65 -322 c125 -63 193 -178 194 -322 0
-72 -4 -90 -32 -147 -86 -174 -281 -249 -450 -173 -127 58 -204 181 -204 326
0 153 86 279 230 333 72 27 190 19 262 -17z m-498 18 c4 -3 -9 -26 -29 -52
-134 -175 -134 -409 0 -585 21 -26 37 -49 37 -52 0 -3 -57 -5 -126 -5 l-125 0
-30 65 c-16 36 -36 93 -44 128 -19 79 -19 234 0 313 16 71 60 174 78 186 12 8
226 9 239 2z m934 -1 c19 -14 53 -89 75 -170 38 -133 29 -291 -23 -423 -41
-105 -33 -100 -174 -100 -68 0 -124 3 -124 6 0 4 14 22 30 41 64 72 110 200
110 303 0 103 -36 203 -104 294 -20 25 -36 48 -36 50 0 7 235 6 246 -1z m-116
-840 c-1 -16 -101 -85 -172 -118 -204 -96 -413 -91 -619 16 -42 22 -94 56
-116 74 l-38 34 473 1 c259 0 472 -3 472 -7z" />
        <path
            d="M929 1100 c-50 -15 -71 -32 -91 -77 -23 -52 -19 -97 13 -137 79 -100
230 -56 245 71 11 87 -84 168 -167 143z" />
    </g>
</svg>