<?xml version="1.0" encoding="UTF-8" standalone="no"?>
<!-- Created with Inkscape (http://www.inkscape.org/) -->

<svg
   xmlns:dc="http://purl.org/dc/elements/1.1/"
   xmlns:cc="http://creativecommons.org/ns#"
   xmlns:rdf="http://www.w3.org/1999/02/22-rdf-syntax-ns#"
   xmlns:svg="http://www.w3.org/2000/svg"
   xmlns="http://www.w3.org/2000/svg"
   xmlns:sodipodi="http://sodipodi.sourceforge.net/DTD/sodipodi-0.dtd"
   xmlns:inkscape="http://www.inkscape.org/namespaces/inkscape"
   width="112"
   height="32"
   viewBox="0 0 29.633321 8.4666642"
   version="1.1"
   id="svg8975"
   inkscape:version="0.92.3 (d244b95, 2018-08-02)"
   sodipodi:docname="hitachi-logo.svg">
  <defs
     id="defs8969" />
  <sodipodi:namedview
     id="base"
     pagecolor="#ffffff"
     bordercolor="#666666"
     borderopacity="1.0"
     inkscape:pageopacity="0.0"
     inkscape:pageshadow="2"
     inkscape:zoom="7.9195959"
     inkscape:cx="46.145941"
     inkscape:cy="30.538027"
     inkscape:document-units="mm"
     inkscape:current-layer="layer1"
     showgrid="false"
     units="px"
     inkscape:window-width="1867"
     inkscape:window-height="1025"
     inkscape:window-x="989"
     inkscape:window-y="1107"
     inkscape:window-maximized="1" />
  <metadata
     id="metadata8972">
    <rdf:RDF>
      <cc:Work
         rdf:about="">
        <dc:format>image/svg+xml</dc:format>
        <dc:type
           rdf:resource="http://purl.org/dc/dcmitype/StillImage" />
        <dc:title></dc:title>
      </cc:Work>
    </rdf:RDF>
  </metadata>
  <g
     inkscape:label="Layer 1"
     inkscape:groupmode="layer"
     id="layer1"
     transform="translate(0,-288.53338)">
    <g
       id="g9119"
       transform="matrix(1.4436609,0,0,1.4436609,-71.399106,165.20896)">
      <g
         id="g6608"
         transform="matrix(0.2645827,0,0,0.2645827,-246.91394,80.413312)">
        <path
           d="m 1148.724,35.545105 v -0.981522 h -0.08 c -0.1601,0 -0.4003,-0.08179 -0.5606,-0.08179 -0.7207,0 -1.041,0.490753 -1.2813,0.89972 0,-0.327176 0,-0.981518 0,-0.981518 h -0.08 l -1.9222,0.327167 v 0.327183 h 0.08 c 0.6405,0 0.7209,0.163582 0.7209,0.736141 v 3.271725 h 1.2011 v -2.371998 c 0,-0.40897 0.1602,-1.3087 1.2813,-1.3087 0.1603,0 0.3203,0.0818 0.4005,0.0818 l 0.1601,0.08179 h 0.08 z"
           style="fill:#000000;fill-opacity:1;fill-rule:nonzero;stroke:none"
           id="path6610"
           inkscape:connector-curvature="0" />
      </g>
      <g
         id="g6612"
         transform="matrix(0.2645827,0,0,0.2645827,-247.20358,80.403654)">
        <path
           d="m 1154.6246,36.481247 c 0,-1.226894 -0.7207,-1.881249 -2.0022,-1.881249 -1.5217,0 -2.3225,0.736145 -2.3225,2.208428 0,1.554069 0.961,2.535587 2.643,2.535587 0.7208,0 1.2812,-0.163589 1.5216,-0.245384 h 0.08 v -0.572548 l -0.08,0.08179 c -0.2404,0.08179 -0.5606,0.16359 -0.9611,0.16359 -1.2813,0 -1.8419,-1.145108 -1.8419,-2.126625 0.16,0 2.9631,0 2.9631,0 V 36.48125 Z m -2.0822,-1.390484 c 0.6407,0 0.8009,0.490757 0.8808,0.899723 -0.1601,0 -1.6017,0 -1.7617,0 0,-0.327171 0.2402,-0.899723 0.8809,-0.899723 z"
           style="fill:#000000;fill-opacity:1;fill-rule:nonzero;stroke:none"
           id="path6614"
           inkscape:connector-curvature="0" />
      </g>
      <g
         id="g6616"
         transform="matrix(0.2645827,0,0,0.2645827,-249.02156,81.314128)">
        <path
           d="m 1187.523,15.699999 c 0,0 0,4.25325 0,4.171455 h 5.5257 c 0,0 0,-4.171455 0,-4.171455 0,0 2.7229,0 2.7229,0 0,0 0,10.469536 0,10.55133 0,0 -2.7229,0 -2.7229,0 0,0 0,-4.580423 0,-4.662218 0,0 -5.5257,0 -5.5257,0 0,0 0,4.662218 0,4.662218 h -2.7231 c 0,0 0,-10.55133 0,-10.55133 z"
           style="fill:#000000;fill-opacity:1;fill-rule:nonzero;stroke:none"
           id="path6618"
           inkscape:connector-curvature="0" />
      </g>
      <g
         id="g6620"
         transform="matrix(0.2645827,0,0,0.2645827,-246.77157,81.314128)">
        <path
           d="m 1153.152,15.699999 c 0,0 0,1.799454 0,1.799454 h -4.1644 v 8.751876 h -2.7227 v -8.751876 h -4.1648 c 0,0 0,-1.799454 0,-1.799454 0,0 11.0519,0 11.0519,0 z"
           style="fill:#000000;fill-opacity:1;fill-rule:nonzero;stroke:none"
           id="path6622"
           inkscape:connector-curvature="0" />
      </g>
      <g
         id="g6624"
         transform="matrix(0.2645827,0,0,0.2645827,-247.34053,81.314128)">
        <path
           d="m 1165.8739,26.251331 c 0,0 -3.0435,0 -3.0435,0 0,0 -0.8808,-2.29021 -0.8808,-2.29021 h -5.1255 c 0,0 -0.881,2.29021 -0.881,2.29021 0,0 -3.0433,0 -3.0433,0 l 4.8052,-10.55133 c 0,0 3.3635,0 3.3635,0 z m -6.4069,-8.751878 -1.9221,4.744007 h 3.7641 l -1.842,-4.744007"
           style="fill:#000000;fill-opacity:1;fill-rule:nonzero;stroke:none"
           id="path6626"
           inkscape:connector-curvature="0" />
      </g>
      <g
         id="g6628"
         transform="matrix(0.2645827,0,0,0.2645827,67.931221,85.46806)">
        <path
           d="M 0,0 H 2.7229176 V 10.55133 H 0 Z"
           style="fill:#000000;fill-opacity:1;fill-rule:nonzero;stroke:none"
           id="path6630"
           inkscape:connector-curvature="0" />
      </g>
      <g
         id="g6632"
         transform="matrix(0.2645827,0,0,0.2645827,-245.66516,81.314128)">
        <path
           d="m 1123.8228,15.699999 c 0,0 0,4.25325 0,4.171455 h 5.526 c 0,0 0,-4.171455 0,-4.171455 0,0 2.7229,0 2.7229,0 0,0 0,10.469536 0,10.55133 0,0 -2.7229,0 -2.7229,0 0,0 0,-4.580423 0,-4.662218 0,0 -5.526,0 -5.526,0 0,0 0,4.662218 0,4.662218 h -2.7229 c 0,0 0,-10.55133 0,-10.55133 z"
           style="fill:#000000;fill-opacity:1;fill-rule:nonzero;stroke:none"
           id="path6634"
           inkscape:connector-curvature="0" />
      </g>
      <g
         id="g6636"
         transform="matrix(0.2645827,0,0,0.2645827,54.433608,85.46806)">
        <path
           d="M 0,0 H 2.7229176 V 10.55133 H 0 Z"
           style="fill:#000000;fill-opacity:1;fill-rule:nonzero;stroke:none"
           id="path6638"
           inkscape:connector-curvature="0" />
      </g>
      <g
         id="g6640"
         transform="matrix(0.2645827,0,0,0.2645827,-248.16269,81.323751)">
        <path
           d="m 1168.9005,23.270357 c -0.2402,-0.736137 -0.4005,-1.472275 -0.4005,-2.208418 0,-1.063308 0.1603,-2.208416 0.7207,-3.026352 0.5606,-0.899721 1.3617,-1.635864 2.3226,-1.963033 0.961,-0.327177 1.9222,-0.572554 3.0434,-0.572554 1.2014,0 2.4024,0.245377 3.4437,0.736139 0.9609,0.408966 1.762,1.308693 1.922,2.453799 0.08,0.24538 0.08,0.408966 0.08,0.654344 h -2.8831 c 0,-0.245378 -0.08,-0.572553 -0.1601,-0.81793 -0.2403,-0.572556 -0.7207,-1.063313 -1.2814,-1.2269 -0.4003,-0.08179 -0.8005,-0.163586 -1.2012,-0.163586 -0.4804,0 -0.961,0.08179 -1.3614,0.245379 -0.7209,0.245376 -1.2814,0.81793 -1.5216,1.554069 -0.2404,0.654345 -0.4006,1.472281 -0.4006,2.208416 0,0.654349 0.08,1.226904 0.2402,1.881249 0.2404,0.736135 0.8011,1.390483 1.5218,1.635864 0.4805,0.163586 0.9611,0.245376 1.4415,0.245376 0.4006,0 0.881,-0.08179 1.2815,-0.163583 0.5606,-0.163592 0.9609,-0.572556 1.2012,-1.063313 0.1602,-0.327173 0.2402,-0.736141 0.2402,-1.145107 h 2.8832 c 0,0.327175 -0.08,0.654348 -0.16,0.98152 -0.2405,1.063312 -0.9611,1.881244 -1.9223,2.29021 -1.0411,0.490765 -2.2423,0.736142 -3.5238,0.736142 -0.9608,0 -1.9221,-0.163588 -2.8028,-0.408968 -1.1217,-0.572552 -2.2427,-1.554068 -2.7233,-2.862763 z"
           style="fill:#000000;fill-opacity:1;fill-rule:nonzero;stroke:none"
           id="path6642"
           inkscape:connector-curvature="0" />
      </g>
      <g
         id="g6644"
         transform="matrix(0.2645827,0,0,0.2645827,-245.34374,80.524093)">
        <path
           d="M 1117.4026,32.099998 1115,32.345375 v 0.327171 h 0.08 c 0.9609,0.0818 0.9609,0.0818 0.9609,0.81794 v 5.234764 h 1.4418 v -6.625252 h -0.08 z"
           style="fill:#000000;fill-opacity:1;fill-rule:nonzero;stroke:none"
           id="path6646"
           inkscape:connector-curvature="0" />
      </g>
      <g
         id="g6648"
         transform="matrix(0.2645827,0,0,0.2645827,-245.59668,80.403654)">
        <path
           d="m 1123.5642,34.599995 c -0.8811,0 -1.4416,0.654358 -1.6819,0.981525 0,-0.327167 0,-0.981525 0,-0.981525 h -0.08 l -2.002,0.327175 v 0.327183 h 0.08 c 0.6407,0 0.7209,0.163581 0.7209,0.736133 v 3.271736 h 1.2011 v -2.372009 c 0,-0.654346 0.5608,-1.472279 1.2013,-1.472279 0.5608,0 0.6406,0.490761 0.6406,1.30869 v 2.535594 h 1.2016 v -3.271736 c 0.08,-0.899719 -0.4006,-1.390487 -1.2814,-1.390487 z"
           style="fill:#000000;fill-opacity:1;fill-rule:nonzero;stroke:none"
           id="path6650"
           inkscape:connector-curvature="0" />
      </g>
      <g
         id="g6652"
         transform="matrix(0.2645827,0,0,0.2645827,-246.02354,80.408502)">
        <path
           d="m 1129.9823,36.381245 c -0.4805,-0.245381 -0.881,-0.490761 -0.881,-0.817936 0,-0.408963 0.4805,-0.408963 0.6406,-0.408963 0.4808,0 0.9611,0.245377 1.1214,0.408963 l 0.1601,0.0818 V 35.481512 34.66358 h -0.1601 c -0.2405,-0.08179 -0.6406,-0.163586 -1.1214,-0.163586 -1.1212,0 -1.8417,0.490753 -1.8417,1.390488 0,0.736137 0.7205,1.145107 1.3614,1.472278 0.4803,0.245377 0.9609,0.490754 0.9609,0.817933 0,0.327171 -0.3205,0.572551 -0.8009,0.572551 -0.5605,0 -1.0411,-0.327175 -1.3614,-0.490753 l -0.08,-0.08179 v 0.981518 h 0.08 c 0.2403,0.08179 0.7209,0.163586 1.3614,0.163586 1.2814,0 2.0022,-0.490761 2.0022,-1.390488 -0.08,-0.899723 -0.801,-1.226898 -1.4415,-1.554069 z"
           style="fill:#000000;fill-opacity:1;fill-rule:nonzero;stroke:none"
           id="path6654"
           inkscape:connector-curvature="0" />
      </g>
      <g
         id="g6656"
         transform="matrix(0.2645827,0,0,0.2645827,-246.29227,80.403654)">
        <path
           d="m 1136.3635,34.599995 c -0.4804,0 -0.8808,0.24538 -1.2813,0.654358 0,-0.245388 0,-0.654358 0,-0.654358 h -0.08 l -2.0021,0.327175 v 0.327183 h 0.08 c 0.6406,0 0.7207,0.163581 0.7207,0.736133 v 5.152977 h 1.2012 c 0,0 0,-1.963043 0,-2.372005 0.2403,0.24538 0.5605,0.572555 1.2814,0.572555 1.2812,0 2.0021,-0.817932 2.0021,-2.4538 0,-1.472279 -0.7209,-2.290218 -1.9221,-2.290218 z m -0.3203,0.654358 c 0.801,0 0.9611,0.899719 0.9611,1.63586 0,1.226902 -0.3205,1.79945 -0.9611,1.79945 -0.8008,0 -0.961,-0.736141 -0.961,-1.390492 v -0.408958 c 0,-0.490761 0.08,-1.63586 0.961,-1.63586 z"
           style="fill:#000000;fill-opacity:1;fill-rule:nonzero;stroke:none"
           id="path6658"
           inkscape:connector-curvature="0" />
      </g>
      <g
         id="g6660"
         transform="matrix(0.2645827,0,0,0.2645827,-246.69793,80.408502)">
        <path
           d="m 1140.6998,34.827175 v 0.327175 h 0.08 c 0.6408,0 0.7208,0.163578 0.7208,0.736138 v 3.271732 h 1.2012 v -4.662216 h -0.08 l -1.9222,0.327171 z"
           style="fill:#000000;fill-opacity:1;fill-rule:nonzero;stroke:none"
           id="path6662"
           inkscape:connector-curvature="0" />
      </g>
      <g
         id="g6664"
         transform="matrix(0.2645827,0,0,0.2645827,-246.74521,80.514467)">
        <path
           d="m 1142.3207,33.608696 c 0.4005,0 0.8008,-0.327179 0.8008,-0.654343 0,-0.408966 -0.3203,-0.65435 -0.8008,-0.65435 -0.4003,0 -0.7207,0.327179 -0.7207,0.65435 0,0.327164 0.3204,0.654343 0.7207,0.654343 z"
           style="fill:#000000;fill-opacity:1;fill-rule:nonzero;stroke:none"
           id="path6666"
           inkscape:connector-curvature="0" />
      </g>
      <g
         id="g6668"
         transform="matrix(0.2645827,0,0,0.2645827,-249.74321,80.398842)">
        <path
           d="m 1202.5843,36.172279 1.2814,-1.472271 h -1.2814 l -1.2012,1.39048 -1.0412,-1.39048 h -1.8421 v 0.327164 h 0.08 c 0.6404,0.0818 0.8008,0.16359 1.2012,0.654347 l 0.8009,1.063312 -1.2814,1.472282 h 1.2814 l 0.5605,-0.65435 1.2013,1.635868 h 1.4415 l -2.3225,-3.108143 h 1.1213 v 0.08179 z"
           style="fill:#000000;fill-opacity:1;fill-rule:nonzero;stroke:none"
           id="path6670"
           inkscape:connector-curvature="0" />
      </g>
      <g
         id="g6672"
         transform="matrix(0.2645827,0,0,0.2645827,-248.88977,80.514467)">
        <path
           d="m 1189.5076,32.299999 h -1.2012 c 0,0 0,4.498623 0,4.989384 -0.2402,-0.408962 -3.2035,-4.989384 -3.2035,-4.989384 h -2.803 v 0.408966 h 0.2404 c 0.7208,0.163586 0.8008,0.163586 0.8008,0.899723 v 5.234772 h 1.2812 c 0,0 0,-4.744011 0,-5.234772 0.2404,0.408966 3.3637,5.234772 3.3637,5.234772 h 1.6017 v -6.543461 h -0.08 z"
           style="fill:#000000;fill-opacity:1;fill-rule:nonzero;stroke:none"
           id="path6674"
           inkscape:connector-curvature="0" />
      </g>
      <g
         id="g6676"
         transform="matrix(0.2645827,0,0,0.2645827,-249.44841,80.403654)">
        <path
           d="m 1197.2246,36.481247 c 0,-1.226894 -0.7208,-1.881249 -2.0022,-1.881249 -1.5217,0 -2.3224,0.736145 -2.3224,2.208428 0,1.554069 0.961,2.535587 2.6429,2.535587 0.7208,0 1.2813,-0.163589 1.5217,-0.245384 h 0.08 v -0.572548 l -0.08,0.08179 c -0.2404,0.08179 -0.5608,0.16359 -0.9611,0.16359 -1.2815,0 -1.842,-1.145108 -1.842,-2.126625 0.1601,0 2.9631,0 2.9631,0 V 36.48125 Z m -2.0821,-1.390484 c 0.6405,0 0.8006,0.490757 0.8806,0.899723 -0.1598,0 -1.6015,0 -1.7617,0 0,-0.327171 0.1602,-0.899723 0.8811,-0.899723 z"
           style="fill:#000000;fill-opacity:1;fill-rule:nonzero;stroke:none"
           id="path6678"
           inkscape:connector-curvature="0" />
      </g>
      <g
         id="g6680"
         transform="matrix(0.2645827,0,0,0.2645827,-250.12278,80.495184)">
        <path
           d="m 1206.5009,32.86359 c 0,0 0,1.308686 0,1.390476 -0.1601,0 -0.8009,0 -0.8009,0 v 0.57256 c 0,0 0.7208,0 0.8009,0 0,0.163585 0,2.780971 0,2.780971 0,1.226899 0.8007,1.308689 1.6816,1.308689 0.2404,0 0.4806,0 0.7208,-0.08179 h 0.08 v -0.57256 h -0.08 c -0.08,0 -0.2402,0 -0.4001,0 -0.7208,0 -0.8012,-0.245376 -0.8012,-0.899719 0,0 0,-2.453796 0,-2.699177 0.1602,0 1.3615,0 1.3615,0 v -0.572552 c 0,0 -1.2013,0 -1.3615,0 0,-0.163585 0,-1.390491 0,-1.390491 h -1.2011 z"
           style="fill:#000000;fill-opacity:1;fill-rule:nonzero;stroke:none"
           id="path6682"
           inkscape:connector-curvature="0" />
      </g>
      <g
         id="g6684"
         transform="matrix(0.2645827,0,0,0.2645827,-247.98362,80.528903)">
        <path
           d="m 1168.7838,34.126625 c -0.8808,0 -1.4414,0.572556 -1.6816,0.981518 0,-0.490757 0,-3.108143 0,-3.108143 h -0.08 l -1.9219,0.245377 v 0.327175 h 0.08 c 0.6407,0 0.7207,0.163589 0.7207,0.736141 v 5.398357 h 1.2014 v -2.372009 c 0,-0.817932 0.6407,-1.554073 1.1212,-1.554073 0.7207,0 0.7207,0.490761 0.7207,0.981521 v 2.862767 h 1.2015 V 35.5989 c 0,-0.327168 0,-1.472275 -1.3618,-1.472275 z"
           style="fill:#000000;fill-opacity:1;fill-rule:nonzero;stroke:none"
           id="path6686"
           inkscape:connector-curvature="0" />
      </g>
      <g
         id="g6688"
         transform="matrix(0.2645827,0,0,0.2645827,-248.39447,80.403654)">
        <path
           d="m 1177.2247,36.481247 c 0,-1.226894 -0.7209,-1.881249 -2.0022,-1.881249 -1.5217,0 -2.3225,0.736145 -2.3225,2.208428 0,1.554069 0.961,2.535587 2.6427,2.535587 0.7209,0 1.2814,-0.163589 1.5216,-0.245384 h 0.08 v -0.572548 l -0.08,0.08179 c -0.2402,0.08179 -0.5605,0.16359 -0.9609,0.16359 -1.2813,0 -1.7618,-1.145108 -1.8419,-2.126625 0.16,0 3.0432,0 3.0432,0 V 36.48125 h -0.08 z m -2.0824,-1.390484 c 0.6408,0 0.8008,0.490757 0.8809,0.899723 -0.1602,0 -1.6017,0 -1.7618,0 0,-0.327171 0.2403,-0.899723 0.8809,-0.899723 z"
           style="fill:#000000;fill-opacity:1;fill-rule:nonzero;stroke:none"
           id="path6690"
           inkscape:connector-curvature="0" />
      </g>
      <g
         id="g6692"
         transform="matrix(0.2645827,0,0,0.2645827,-247.72007,80.495184)">
        <path
           d="m 1160.9008,32.86359 c 0,0 0,1.308686 0,1.390476 -0.16,0 -0.8008,0 -0.8008,0 v 0.57256 c 0,0 0.7208,0 0.8008,0 0,0.163585 0,2.780971 0,2.780971 0,1.226899 0.8009,1.308689 1.6818,1.308689 0.2404,0 0.4806,0 0.7209,-0.08179 h 0.08 v -0.57256 h -0.08 c -0.08,0 -0.2403,0 -0.4005,0 -0.7208,0 -0.8008,-0.245376 -0.8008,-0.899719 0,0 0,-2.453796 0,-2.699177 0.16,0 1.3613,0 1.3613,0 v -0.572552 c 0,0 -1.2013,0 -1.3613,0 0,-0.163585 0,-1.390491 0,-1.390491 h -1.2014 z"
           style="fill:#000000;fill-opacity:1;fill-rule:nonzero;stroke:none"
           id="path6694"
           inkscape:connector-curvature="0" />
      </g>
      <g
         id="g6696"
         transform="matrix(0.2645827,0,0,0.2645827,-250.091,80.59153)">
        <path
           d="m 1206.3813,32.499454 h -1.2814 l 1.6019,-1.799449 h 1.2812 z"
           style="fill:#ed1b34;fill-opacity:1;fill-rule:nonzero;stroke:none"
           id="path6698"
           inkscape:connector-curvature="0" />
      </g>
    </g>
  </g>
</svg>
