<svg xmlns="http://www.w3.org/2000/svg" width="32" height="32" viewBox="0 0 32 32">
  <g id="ActualSize.S" transform="translate(-643.5 -990.5)">
    <rect id="Rectangle_1010" data-name="Rectangle 1010" width="32" height="32" transform="translate(643.5 990.5)" fill="none"/>
    <g id="Group_5815" data-name="Group 5815" transform="translate(643.5 990.5)">
      <path id="Path_3036" data-name="Path 3036" d="M13.45,9.5v3.241l-4.6-4.6-.707.707L12.8,13.5H9.45v1h5v-5Zm-.006,4,.006-.006V13.5Z" fill="#414141"/>
      <path id="Path_3037" data-name="Path 3037" d="M23.831,23.148,19.18,18.5h3.345v-1h-5v5h1v-3.24l4.6,4.6ZM18.525,18.5h.006l-.006.006Z" fill="#414141"/>
    </g>
    <g id="Group_5816" data-name="Group 5816" transform="translate(643.5 990.5)">
      <path id="Path_3038" data-name="Path 3038" d="M23.855,8.876l-.707-.707-4.65,4.65V9.475h-1v5h5v-1H19.256ZM18.5,13.47l.005.005H18.5Z" fill="#414141"/>
      <path id="Path_3039" data-name="Path 3039" d="M9.5,17.525v1h3.241l-4.6,4.6.707.707L13.5,19.18v3.345h1v-5Zm3.995,1H13.5v.006Z" fill="#414141"/>
    </g>
  </g>
</svg>
