<svg xmlns="http://www.w3.org/2000/svg" width="32" height="32" viewBox="0 0 32 32">
  <g id="Bad.sema4.S" transform="translate(-834 -311)">
    <rect id="Rectangle_974" data-name="Rectangle 974" width="32" height="32" transform="translate(834 311)" fill="none"/>
    <g id="Group_4693" transform="translate(132 -2854)">
      <g id="Group_4666" transform="translate(2348 2790) rotate(90)">
        <rect id="Rectangle_2041" data-name="Rectangle 2041" width="2" height="2" transform="translate(395 1628.9)" fill="#f13f3f"/>
      </g>
      <rect id="Rectangle_2042" data-name="Rectangle 2042" width="2" height="8" transform="translate(717 3175)" fill="#f13f3f"/>
    </g>
    <g id="Ellipse_269" data-name="Ellipse 269" transform="translate(834 311)">
      <circle id="Ellipse_257" data-name="Ellipse 257" cx="12" cy="12" r="12" transform="translate(4 4)" fill="none"/>
      <path id="Path_2675" data-name="Path 2675" d="M16,28A12,12,0,1,1,28,16,12.013,12.013,0,0,1,16,28ZM16,5A11,11,0,1,0,27,16,11.013,11.013,0,0,0,16,5Z" fill="#f13f3f"/>
    </g>
  </g>
</svg>
