<svg xmlns="http://www.w3.org/2000/svg" width="32" height="32" viewBox="0 0 32 32">
  <g id="CompletedStep.S" transform="translate(-450 -3413)">
    <rect id="Rectangle_974" data-name="Rectangle 974" width="32" height="32" transform="translate(450 3413)" fill="none"/>
    <g id="StepCompleted-16" transform="translate(-254 247)">
      <rect id="Rectangle_974-2" data-name="Rectangle 974" width="32" height="32" transform="translate(704 3166)" fill="none"/>
      <circle id="Ellipse_236" data-name="Ellipse 236" cx="8" cy="8" r="8" transform="translate(712 3174)" fill="none"/>
    </g>
    <g id="Group_5796" data-name="Group 5796" transform="translate(450 3413)">
      <path id="Path_2668" data-name="Path 2668" d="M15.034,19.74l-2.387-2.387.707-.707,1.613,1.613,4.65-5.58.768.641Z" fill="#414141"/>
      <path id="Path_2670" data-name="Path 2670" d="M16,23a7.023,7.023,0,1,0-4.943-2.057A6.953,6.953,0,0,0,16,23m0,1a8,8,0,1,1,8-8A8.024,8.024,0,0,1,16,24Z" fill="#414141"/>
    </g>
  </g>
</svg>
