<svg xmlns="http://www.w3.org/2000/svg" width="32" height="32" viewBox="0 0 32 32">
  <g id="Fire.S" transform="translate(-630 -349)">
    <rect id="Rectangle_724" data-name="Rectangle 724" width="32" height="32" transform="translate(630 349)" fill="none"/>
    <path id="Path_3096" data-name="Path 3096" d="M16,23c3.058,0,6.076-2.616,6-5.805a3.87,3.87,0,0,0-.171-.99,5.312,5.312,0,0,0-.656-1.343,5.626,5.626,0,0,1-.5-.91,5.084,5.084,0,0,1-.272-.787c-.024-.1-.045-.207-.061-.307a2.149,2.149,0,0,0-.394.777,4.468,4.468,0,0,0-.177.857l-.32,2.72L17.94,14.926c-.1-.152-.191-.3-.269-.44-.058-.1-.12-.21-.175-.3l-.022-.037-.018-.038a7.621,7.621,0,0,1-.573-1.634,10.142,10.142,0,0,1-.24-1.5,10.412,10.412,0,0,1-.011-1.31c.009-.155.018-.283.026-.39-.1.053-.215.123-.366.215a5.92,5.92,0,0,0-.97.742,5.022,5.022,0,0,0-.853,1.158,5.656,5.656,0,0,0-.62,1.683,7.259,7.259,0,0,0,.107,3.271l.606,2.393-2.1-1.3A4.249,4.249,0,0,1,11.217,16.2a5.767,5.767,0,0,1-.545-1.034c-.111.251-.211.495-.3.725a4.721,4.721,0,0,0,.524,4.271A6.007,6.007,0,0,0,16,23m0,1a7.006,7.006,0,0,1-6.619-4.716,5.257,5.257,0,0,1,.056-3.738c.112-.3.239-.606.378-.914s.245-.521.312-.64a3.181,3.181,0,0,1,.169-.273.466.466,0,0,1,.428-.257.728.728,0,0,1,.093.007.53.53,0,0,1,.3.117.437.437,0,0,1,.159.242,6.332,6.332,0,0,0,.774,1.812,3.241,3.241,0,0,0,.942.953,8.223,8.223,0,0,1-.116-3.718A6.6,6.6,0,0,1,13.6,10.9a5.974,5.974,0,0,1,1.036-1.39,6.731,6.731,0,0,1,1.135-.868,5.653,5.653,0,0,1,.875-.468c.174-.063.317-.11.429-.142a.717.717,0,0,1,.153-.017.66.66,0,0,1,.117.01.564.564,0,0,1,.252.118.44.44,0,0,1,.151.468c-.011.083-.028.19-.05.32s-.045.4-.068.8a8.3,8.3,0,0,0,.227,2.524,6.739,6.739,0,0,0,.5,1.421c.057.094.118.2.187.321s.145.247.234.383A5.563,5.563,0,0,1,19,13.328a2.873,2.873,0,0,1,1.43-1.8.839.839,0,0,1,.136-.063.509.509,0,0,1,.22-.05.542.542,0,0,1,.057,0,.527.527,0,0,1,.261.1.538.538,0,0,1,.176.219.414.414,0,0,1,.025.273,1.036,1.036,0,0,1-.008.125,2.322,2.322,0,0,0,.008.312,3.059,3.059,0,0,0,.076.485,4.166,4.166,0,0,0,.218.625,4.559,4.559,0,0,0,.413.75,6.278,6.278,0,0,1,.782,1.617c.9,3.129-1.374,6.48-4.256,7.6A7.02,7.02,0,0,1,16,24Z" transform="translate(630 349)" fill="none"/>
    <path id="Path_3099" data-name="Path 3099" d="M22.794,15.921a6.278,6.278,0,0,0-.782-1.617,4.559,4.559,0,0,1-.413-.75,4.166,4.166,0,0,1-.218-.625,3.059,3.059,0,0,1-.076-.485,2.322,2.322,0,0,1-.008-.312,1.036,1.036,0,0,0,.008-.125.414.414,0,0,0-.025-.273.538.538,0,0,0-.176-.219.523.523,0,0,0-.261-.1.542.542,0,0,0-.057,0,.509.509,0,0,0-.22.05.839.839,0,0,0-.136.063l0,0h0a2.79,2.79,0,0,0-1.2,1.224,2.9,2.9,0,0,0-.109.277c-.04.1-.086.19-.118.3a5.548,5.548,0,0,0-.219,1.047c-.089-.136-.168-.264-.234-.383s-.13-.227-.187-.321a6.712,6.712,0,0,1-.5-1.421c-.006-.028-.009-.05-.015-.078a8.848,8.848,0,0,1-.195-1.2c0-.022-.006-.047-.008-.068a9.088,9.088,0,0,1-.009-1.18c.023-.4.045-.666.068-.8s.039-.237.05-.32a.439.439,0,0,0-.151-.468.56.56,0,0,0-.252-.118.66.66,0,0,0-.117-.01.725.725,0,0,0-.153.017c-.112.032-.255.079-.429.142a5.686,5.686,0,0,0-.875.468,6.755,6.755,0,0,0-1.135.868h0l-.018.021a4.575,4.575,0,0,0-.52.6,5.863,5.863,0,0,0-.5.768c-.038.068-.061.142-.1.21a6.663,6.663,0,0,0-.632,1.765,7.962,7.962,0,0,0-.068,2.792c0,.037.016.073.022.11.043.269.092.539.161.811a3.221,3.221,0,0,1-.511-.419c-.03-.032-.059-.076-.089-.11a3.229,3.229,0,0,1-.336-.419,6.332,6.332,0,0,1-.774-1.812.437.437,0,0,0-.159-.242.53.53,0,0,0-.3-.117.728.728,0,0,0-.093-.007.469.469,0,0,0-.25.066.463.463,0,0,0-.178.191,3.181,3.181,0,0,0-.169.273c-.067.119-.173.332-.312.64s-.266.614-.378.914a5.252,5.252,0,0,0-.371,1.861v0a5.267,5.267,0,0,0,.316,1.874,6.972,6.972,0,0,0,.481,1.074c.01.017.015.036.024.053.048.086.114.16.166.243a6.894,6.894,0,0,0,.456.672c.085.108.181.2.272.308a7.2,7.2,0,0,0,.516.532c.045.041.081.09.127.13.069.06.151.1.222.161a6.853,6.853,0,0,0,.565.407c.135.088.271.171.412.25.2.109.4.2.609.294.1.042.189.1.29.14.082.031.166.053.249.081.048.017.1.032.145.048a7.116,7.116,0,0,0,.933.224c.047.008.1.012.142.019a6.839,6.839,0,0,0,3.543-.393,7.277,7.277,0,0,0,3.222-2.549A5.916,5.916,0,0,0,22.794,15.921ZM15.04,22.914c-.085-.014-.169-.032-.253-.05a5.9,5.9,0,0,1-.753-.206c-.059-.021-.121-.037-.18-.06a5.912,5.912,0,0,1-.865-.413c-.049-.029-.1-.063-.144-.093a6.054,6.054,0,0,1-.678-.488c-.053-.044-.107-.087-.159-.133a6.06,6.06,0,0,1-.5-.5c-.031-.034-.064-.066-.094-.1a5.954,5.954,0,0,1-.516-.7,5.153,5.153,0,0,1-.8-2.414,4.447,4.447,0,0,1,.279-1.857c.085-.23.185-.474.3-.725a5.78,5.78,0,0,0,.545,1.034,4.229,4.229,0,0,0,.57.694,3.621,3.621,0,0,0,.675.55l2.1,1.3-.606-2.393a7.874,7.874,0,0,1-.241-1.659,7.25,7.25,0,0,1,.1-1.387c.012-.075.017-.151.032-.225a5.655,5.655,0,0,1,.62-1.683,7,7,0,0,1,.421-.655c.082-.109.174-.209.265-.311.056-.061.113-.141.167-.192a5.878,5.878,0,0,1,.97-.742c.151-.092.27-.161.365-.214-.008.106-.017.233-.026.387a10.412,10.412,0,0,0,.011,1.31c.011.134.032.266.049.4.013.105.02.2.038.314.041.264.091.526.153.786a7.621,7.621,0,0,0,.573,1.634l.018.038.022.037c.055.09.117.2.175.3.078.14.169.288.269.44l1.509,2.286h0l.32-2.72,0-.022a4.447,4.447,0,0,1,.169-.816l.005-.019a2.515,2.515,0,0,1,.166-.424,2.089,2.089,0,0,1,.155-.24c.025-.036.045-.079.072-.112.016.1.037.206.061.306l.007.02a4.984,4.984,0,0,0,.257.743l.008.024a5.346,5.346,0,0,0,.258.469c.081.147.145.3.241.441a7.1,7.1,0,0,1,.394.692,5.233,5.233,0,0,1,.215.532c.013.038.037.083.047.119a3.87,3.87,0,0,1,.171.99,5.85,5.85,0,0,1-3.761,5.346A5.844,5.844,0,0,1,16,23,6.021,6.021,0,0,1,15.04,22.914Z" transform="translate(630 349)" fill="#414141"/>
  </g>
</svg>
