<svg xmlns="http://www.w3.org/2000/svg" width="32" height="32" viewBox="0 0 32 32">
  <g id="Layers.S" transform="translate(-652 -3140)">
    <path id="Path_1234" data-name="Path 1234" d="M0,0H32V32H0Z" transform="translate(652 3140)" fill="none"/>
    <g id="Group_3912" transform="translate(8 -9.993)">
      <g id="Group_2574_1_" transform="translate(652.007 3158.018)">
        <path id="Path_1240_1_" d="M16,8,13.2,6.6Z" fill="#414141"/>
        <path id="Path_1241_1_" d="M8,12l1.8-.9.1-.1L8,12,5.3,10.7l.9.4Z" fill="#414141"/>
        <g id="Group_3882">
          <path id="Path_1349" d="M0,8l5.6,2.8Z" fill="none"/>
          <path id="Path_1350" d="M16,8,9.7,11.2Z" fill="none"/>
          <path id="Path_1351" d="M16,8h0L13,6.5h0Z" fill="#414141"/>
          <path id="Path_1352" d="M3,6.5,0,8H0Z" fill="#414141"/>
          <path id="Path_1353" d="M5.6,10.8,8,12l1.7-.8L8,12Z" fill="#414141"/>
          <path id="Path_1354" d="M13,6.5,11.9,7l1.9,1L8,10.9,2.2,8,4.1,7,3,6.5,0,8l5.6,2.8L8,12l1.7-.8L16,8Z" fill="#414141"/>
          <path id="Path_1355" d="M13,6.5" fill="none"/>
          <path id="Path_1356" d="M3,6.5" fill="#414141"/>
          <path id="Path_1357" d="M13,6.5" fill="#414141"/>
          <path id="Path_1358" d="M3,6.5H3L4.1,7h0Z" fill="#414141"/>
          <path id="Path_1359" d="M13,6.5,11.9,7h0Z" fill="#414141"/>
        </g>
        <g id="Group_3883">
          <path id="Path_1360" d="M0,12l5.6,2.8Z" fill="none"/>
          <path id="Path_1361" d="M16,12,9.7,15.2Z" fill="none"/>
          <path id="Path_1362" d="M16,12h0l-3-1.5h0Z" fill="#414141"/>
          <path id="Path_1363" d="M3,10.5,0,12H0Z" fill="#414141"/>
          <path id="Path_1364" d="M5.6,14.8,8,16l1.7-.8L8,16Z" fill="#414141"/>
          <path id="Path_1365" d="M13,10.5l-1.1.5,1.9.9L8,14.9,2.2,12l1.9-1L3,10.5,0,12l5.6,2.8L8,16l1.7-.8L16,12Z" fill="#414141"/>
          <path id="Path_1366" d="M13,10.5" fill="none"/>
          <path id="Path_1367" d="M3,10.5" fill="#414141"/>
          <path id="Path_1368" d="M13,10.5" fill="#414141"/>
          <path id="Path_1369" d="M3,10.5H3l1.1.5h0Z" fill="#414141"/>
          <path id="Path_1370" d="M13,10.5l-1.1.5h0Z" fill="#414141"/>
        </g>
        <g id="Group_2574_2_" transform="translate(650.892 3157.462)">
          <g id="Path_1243_2_" transform="translate(7.993 2.325) rotate(45)">
            <g id="Path_1347_1_">
              <path id="Path_1980" data-name="Path 1980" d="M-2694.5-1774.1l8.5-2.8-2.8,8.5-8.5,2.8Z" fill="none"/>
              <path id="Path_1981" data-name="Path 1981" d="M-2687.6-1775.3l-6.1,2-2,6.1,6.1-2,2-6.1m1.6-1.6-2.8,8.5-8.5,2.8,2.8-8.5Z" fill="#414141"/>
            </g>
            <g id="Path_1348_1_">
              <path id="Path_1982" data-name="Path 1982" d="M-2686-1776.9l-2.8,8.5-8.5,2.8,2.8-8.5Z" fill="none"/>
              <path id="Path_1983" data-name="Path 1983" d="M-2687.6-1775.3l-6.1,2-2,6.1,6.1-2,2-6.1m1.6-1.6-2.8,8.5-8.5,2.8,2.8-8.5Z" fill="#414141"/>
            </g>
          </g>
        </g>
      </g>
    </g>
  </g>
</svg>
