<svg xmlns="http://www.w3.org/2000/svg" width="32" height="32" viewBox="0 0 32 32">
  <g id="Level5MarkerE.S" transform="translate(-576 -3351)">
    <rect id="Rectangle_1007" data-name="Rectangle 1007" width="32" height="32" transform="translate(576 3351)" fill="none"/>
    <g id="Union_102" data-name="Union 102" transform="translate(576 3351)">
      <path id="Path_2980" data-name="Path 2980" d="M16,30.992l-4.138-7.24-.144-.252H4.664L7.91,12.138,7.949,12l-.039-.138L4.664.5H27.338L24.091,11.863,24.052,12l.039.137L27.338,23.5H20.282l-.144.252Z" fill="#fff"/>
      <path id="Path_2981" data-name="Path 2981" d="M16,29.985,19.7,23.5l.288-.5h6.684L23.61,12.276,23.532,12l.078-.275L26.676,1H5.327L8.391,11.726,8.469,12l-.078.274L5.327,23h6.681l.288.5L16,29.985M16,32l-4.572-8H4L7.429,12,4,0H28L24.572,12,28,24H20.572Z" fill="#414141"/>
    </g>
    <g id="Group_5675" data-name="Group 5675" transform="translate(576 3351)">
      <g id="Group_4688" data-name="Group 4688">
        <g id="Group_4666" data-name="Group 4666">
          <rect id="Rectangle_2253" data-name="Rectangle 2253" width="2" height="2" transform="translate(15.056 16)" fill="#414141"/>
        </g>
        <rect id="Rectangle_2254" data-name="Rectangle 2254" width="2" height="8" transform="translate(15 6)" fill="#414141"/>
      </g>
      <g id="Group_4689" data-name="Group 4689">
        <g id="Group_4666-2" data-name="Group 4666-2">
          <rect id="Rectangle_2255" data-name="Rectangle 2255" width="2" height="2" transform="translate(19.056 16)" fill="#414141"/>
        </g>
        <rect id="Rectangle_2256" data-name="Rectangle 2256" width="2" height="8" transform="translate(19 6)" fill="#414141"/>
      </g>
      <g id="Group_4690" data-name="Group 4690">
        <g id="Group_4666-3" data-name="Group 4666-3">
          <rect id="Rectangle_2257" data-name="Rectangle 2257" width="2" height="2" transform="translate(11.056 16)" fill="#414141"/>
        </g>
        <rect id="Rectangle_2258" data-name="Rectangle 2258" width="2" height="8" transform="translate(11 6)" fill="#414141"/>
      </g>
    </g>
  </g>
</svg>
