<svg xmlns="http://www.w3.org/2000/svg" width="32" height="32" viewBox="0 0 32 32">
  <g id="Level0.sema1.S" transform="translate(-233 -196)">
    <path id="Path_2321" data-name="Path 2321" d="M0,0H32V32H0Z" transform="translate(233 196)" fill="none"/>
    <path id="Path_2466" data-name="Path 2466" d="M247,216.5l-3.7-3.8,1.4-1.4,2.3,2.2,6.2-7.2,1.6,1.4Z" fill="#63a621"/>
    <circle id="Ellipse_257" data-name="Ellipse 257" cx="12" cy="12" r="12" transform="translate(237 200)" fill="none"/>
    <path id="Path_2675" data-name="Path 2675" d="M16,28A12,12,0,1,1,28,16,12.013,12.013,0,0,1,16,28ZM16,5A11,11,0,1,0,27,16,11.013,11.013,0,0,0,16,5Z" transform="translate(233 196)" fill="#63a621"/>
  </g>
</svg>
