<svg xmlns="http://www.w3.org/2000/svg" width="32" height="32" viewBox="0 0 32 32">
  <g id="Level4MarkerB.S" transform="translate(-513 -3402)">
    <rect id="Rectangle_974" data-name="Rectangle 974" width="32" height="32" transform="translate(513 3402)" fill="none"/>
    <g id="Union_96" data-name="Union 96" transform="translate(512.999 3402)">
      <path id="Path_2974" data-name="Path 2974" d="M16,30.992l-4.137-7.241-.144-.251H4.5V.5h23v23H20.282l-.144.251Z" fill="#fff"/>
      <path id="Path_2975" data-name="Path 2975" d="M16,29.984,19.7,23.5l.287-.5H27V1H5V23h7.009l.288.5L16,29.984M16,32l-4.571-8H4V0H28V24H20.572Z" fill="#414141"/>
    </g>
    <g id="Group_5763" data-name="Group 5763" transform="translate(0 -2)">
      <g id="Group_5674" data-name="Group 5674" transform="translate(513 3402)">
        <g id="Group_4686" data-name="Group 4686">
          <g id="Group_4666" data-name="Group 4666">
            <rect id="Rectangle_2148" data-name="Rectangle 2148" width="2" height="2" transform="translate(13.056 18)" fill="#414141"/>
          </g>
          <rect id="Rectangle_2149" data-name="Rectangle 2149" width="2" height="8" transform="translate(13 8)" fill="#414141"/>
        </g>
        <g id="Group_4687" data-name="Group 4687">
          <g id="Group_4666-2" data-name="Group 4666-2">
            <rect id="Rectangle_2150" data-name="Rectangle 2150" width="2" height="2" transform="translate(17.056 18)" fill="#414141"/>
          </g>
          <rect id="Rectangle_2151" data-name="Rectangle 2151" width="2" height="8" transform="translate(17 8)" fill="#414141"/>
        </g>
      </g>
    </g>
  </g>
</svg>
