<svg xmlns="http://www.w3.org/2000/svg" width="32" height="32" viewBox="0 0 32 32">
  <g id="Level5MarkerD.sema6.S" transform="translate(-538 -3425)">
    <rect id="Rectangle_999" data-name="Rectangle 999" width="32" height="32" transform="translate(538 3425)" fill="none"/>
    <path id="Path_2978" data-name="Path 2978" d="M16,30.992l-4.137-7.24-.144-.252H9.287L2.579,12,9.287.5H22.713L29.421,12,22.713,23.5H20.281l-.144.252Z" transform="translate(538 3425)" fill="#fff"/>
    <g id="Group_5827" data-name="Group 5827">
      <path id="Path_2979" data-name="Path 2979" d="M16,29.984l3.7-6.48.287-.5h2.436l6.416-11L22.426,1H9.574L3.158,12,9.574,23h2.435l.288.5,3.7,6.48M16,32l-4.571-8H9L2,12,9,0H23l7,12L23,24H20.571Z" transform="translate(538 3425)" fill="#ff00d8"/>
      <g id="Group_4688" data-name="Group 4688" transform="translate(538 3423)">
        <g id="Group_4666" data-name="Group 4666">
          <rect id="Rectangle_2186" data-name="Rectangle 2186" width="2" height="2" transform="translate(15.056 18)" fill="#ff00d8"/>
        </g>
        <rect id="Rectangle_2187" data-name="Rectangle 2187" width="2" height="8" transform="translate(15 8)" fill="#ff00d8"/>
      </g>
      <g id="Group_4689" data-name="Group 4689" transform="translate(538 3423)">
        <g id="Group_4666-2" data-name="Group 4666-2">
          <rect id="Rectangle_2188" data-name="Rectangle 2188" width="2" height="2" transform="translate(19.056 18)" fill="#ff00d8"/>
        </g>
        <rect id="Rectangle_2189" data-name="Rectangle 2189" width="2" height="8" transform="translate(19 8)" fill="#ff00d8"/>
      </g>
      <g id="Group_4690" data-name="Group 4690" transform="translate(538 3423)">
        <g id="Group_4666-3" data-name="Group 4666-3">
          <rect id="Rectangle_2190" data-name="Rectangle 2190" width="2" height="2" transform="translate(11.056 18)" fill="#ff00d8"/>
        </g>
        <rect id="Rectangle_2191" data-name="Rectangle 2191" width="2" height="8" transform="translate(11 8)" fill="#ff00d8"/>
      </g>
    </g>
  </g>
</svg>
