<svg xmlns="http://www.w3.org/2000/svg" width="32" height="32" viewBox="0 0 32 32">
  <g id="Level3MarkerD.sema4.S" transform="translate(-580 -3425)">
    <rect id="Rectangle_999" data-name="Rectangle 999" width="32" height="32" transform="translate(580 3425)" fill="none"/>
    <path id="Path_2978" data-name="Path 2978" d="M16,30.992l-4.137-7.24-.144-.252H9.287L2.579,12,9.287.5H22.713L29.421,12,22.713,23.5H20.281l-.144.252Z" transform="translate(580 3425)" fill="#fff"/>
    <g id="Group_5824" data-name="Group 5824">
      <g id="Group_5825" data-name="Group 5825">
        <path id="Path_2979" data-name="Path 2979" d="M16,29.984l3.7-6.48.287-.5h2.436l6.416-11L22.426,1H9.574L3.158,12,9.574,23h2.435l.288.5,3.7,6.48M16,32l-4.571-8H9L2,12,9,0H23l7,12L23,24H20.571Z" transform="translate(580 3425)" fill="#f13f3f"/>
        <g id="Group_5724" data-name="Group 5724" transform="translate(580 3423)">
          <g id="Group_4666" data-name="Group 4666">
            <rect id="Rectangle_2140" data-name="Rectangle 2140" width="2" height="2" transform="translate(15.056 18)" fill="#f13f3f"/>
          </g>
          <rect id="Rectangle_2141" data-name="Rectangle 2141" width="2" height="8" transform="translate(15 8)" fill="#f13f3f"/>
        </g>
      </g>
    </g>
  </g>
</svg>
