<svg xmlns="http://www.w3.org/2000/svg" width="32" height="32" viewBox="0 0 32 32">
  <g id="Level1MarkerA.S" transform="translate(-612 -2093)">
    <rect id="Rectangle_974" data-name="Rectangle 974" width="32" height="32" transform="translate(612 2093)" fill="rgba(0,0,0,0)"/>
    <g id="Union_95" data-name="Union 95" transform="translate(612 2093)">
      <path id="Path_2972" data-name="Path 2972" d="M16,30.992l-4.831-8.453-.076-.134-.138-.067A11.5,11.5,0,0,1,4.5,12,11.5,11.5,0,1,1,21.045,22.338l-.138.067-.076.134Z" fill="#fff"/>
      <path id="Path_2973" data-name="Path 2973" d="M16,29.984l4.4-7.693.153-.267.276-.136a11,11,0,1,0-9.65,0l.276.136.153.267L16,29.984M16,32l-5.265-9.213a12,12,0,1,1,10.53,0Z" fill="#414141"/>
    </g>
    <g id="Group_4692" transform="translate(169 475)">
      <g id="Group_2321" transform="translate(458 1629)">
        <rect id="Rectangle_2040" data-name="Rectangle 2040" width="2" height="2" fill="#414141"/>
      </g>
    </g>
  </g>
</svg>
