<svg xmlns="http://www.w3.org/2000/svg" width="32" height="32" viewBox="0 0 32 32">
  <g id="Machine.S" transform="translate(-750 -1805)">
    <rect id="Rectangle_724" data-name="Rectangle 724" width="32" height="32" transform="translate(750 1805)" fill="none"/>
    <g id="Group_5835" data-name="Group 5835" transform="translate(750 1805)">
      <path id="Path_3078" data-name="Path 3078" d="M12.04,13a4.045,4.045,0,0,0-.8,8V18.656l.8-.808.8.809V21a4.045,4.045,0,0,0-.8-8Z" fill="none"/>
      <circle id="Ellipse_328" data-name="Ellipse 328" cx="2" cy="2" r="2" transform="translate(18 8)" fill="none"/>
      <path id="Path_3079" data-name="Path 3079" d="M21.394,23.044a1.482,1.482,0,0,0-.894-1.952V17.408a1.491,1.491,0,0,0,0-2.816V11.929A2,2,0,1,0,18.071,9.5H13.408A1.5,1.5,0,1,0,11.5,11.408v1.647A4.037,4.037,0,0,0,11.24,21V18.656l.8-.808.8.808V21a4.035,4.035,0,0,0-.341-7.953V11.408a1.5,1.5,0,0,0,.908-.908h4.663A2,2,0,0,0,19.5,11.929v2.663a1.491,1.491,0,0,0,0,2.816v3.684a1.482,1.482,0,0,0-.894,1.952H16v1h8v-1Zm-6.354-6a3.065,3.065,0,0,1-1.2,2.432V18.246l-.289-.293-.8-.809-.711-.718-.711.718-.8.809-.289.292v1.227a3.062,3.062,0,0,1-1.2-2.432,3,3,0,1,1,6,0ZM12,10.5a.5.5,0,1,1,.5-.5A.5.5,0,0,1,12,10.5Zm7-.5a1,1,0,1,1,1,1A1,1,0,0,1,19,10Zm1,5.5a.5.5,0,1,1-.5.5A.5.5,0,0,1,20,15.5ZM20,23a.5.5,0,1,1,.5-.5A.5.5,0,0,1,20,23Z" fill="#414141"/>
    </g>
  </g>
</svg>
