<svg xmlns="http://www.w3.org/2000/svg" width="32" height="32" viewBox="0 0 32 32">
  <g id="Operation.S" transform="translate(-573 -728)">
    <rect id="Rectangle_1010" data-name="Rectangle 1010" width="32" height="32" transform="translate(573 728)" fill="none"/>
    <g id="Group_3901" data-name="Group 3901" transform="translate(573 728)">
      <circle id="Ellipse_323" data-name="Ellipse 323" cx="3.75" cy="3.75" r="3.75" transform="translate(15.25 9.25)" fill="none"/>
      <rect id="Rectangle_2300" data-name="Rectangle 2300" width="1.875" height="1" transform="translate(22.125 12.5)" fill="#414141"/>
      <path id="Path_2994" data-name="Path 2994" d="M22.75,13a3.713,3.713,0,0,0-.78-2.263l.92-.92-.707-.707-.92.92A3.712,3.712,0,0,0,19.5,9.3V8h-1V9.3a3.7,3.7,0,0,0-1.763.728l-.919-.919-.707.707.919.919A3.715,3.715,0,0,0,15.3,12.5H14v1h1.3a3.715,3.715,0,0,0,.729,1.764l-.918.918.707.707.918-.918A3.7,3.7,0,0,0,18.5,16.7V18h1V16.7a3.712,3.712,0,0,0,1.763-.729l.92.919.707-.707-.92-.919A3.713,3.713,0,0,0,22.75,13ZM19,15.75A2.75,2.75,0,1,1,21.75,13,2.752,2.752,0,0,1,19,15.75Z" fill="#414141"/>
    </g>
    <g id="Group_5832" data-name="Group 5832" transform="translate(573 728)">
      <circle id="Ellipse_324" data-name="Ellipse 324" cx="3.002" cy="3.002" r="3.002" transform="translate(8.971 17.626)" fill="none"/>
      <path id="Path_2995" data-name="Path 2995" d="M14.9,19.986l.973-.392-.374-.928-.974.393a2.952,2.952,0,0,0-.936-.954L14,17.14l-.92-.391-.411.967a2.981,2.981,0,0,0-1.335-.012l-.393-.974-.928.374.393.975a2.98,2.98,0,0,0-.951.936L8.484,18.6l-.39.919.966.411a2.959,2.959,0,0,0-.012,1.337l-.973.393.375.928.973-.394a2.956,2.956,0,0,0,.936.952l-.411.967.921.391.411-.968a2.7,2.7,0,0,0,1.336.014l.393.972.927-.375-.393-.973a2.946,2.946,0,0,0,.952-.936l.966.41.391-.92-.966-.41A2.955,2.955,0,0,0,14.9,19.986ZM13.815,21.41a2,2,0,1,1,.014-1.532A1.988,1.988,0,0,1,13.815,21.41Z" fill="#414141"/>
    </g>
  </g>
</svg>
