<svg xmlns="http://www.w3.org/2000/svg" width="32" height="32" viewBox="0 0 32 32">
  <g id="ParcelDelivery.S" transform="translate(-573 -728)">
    <rect id="Rectangle_981" data-name="Rectangle 981" width="32" height="32" transform="translate(573 728)" fill="none"/>
    <rect id="Rectangle_2307" data-name="Rectangle 2307" width="11" height="8" transform="translate(582 738)" fill="none"/>
    <circle id="Ellipse_325" data-name="Ellipse 325" cx="1.5" cy="1.5" r="1.5" transform="translate(590 749)" fill="none"/>
    <circle id="Ellipse_326" data-name="Ellipse 326" cx="1.5" cy="1.5" r="1.5" transform="translate(583 749)" fill="none"/>
    <g id="Group_5846" data-name="Group 5846" transform="translate(573 728)">
      <path id="Path_2998" data-name="Path 2998" d="M20,10H9v8H20Zm-1,7H10V11h9Z" fill="#414141"/>
      <path id="Path_2999" data-name="Path 2999" d="M18.5,21A1.5,1.5,0,1,0,20,22.5,1.5,1.5,0,0,0,18.5,21Zm0,2a.5.5,0,1,1,.5-.5A.5.5,0,0,1,18.5,23Z" fill="#414141"/>
      <path id="Path_3000" data-name="Path 3000" d="M11.5,21A1.5,1.5,0,1,0,13,22.5,1.5,1.5,0,0,0,11.5,21Zm0,2a.5.5,0,1,1,.5-.5A.5.5,0,0,1,11.5,23Z" fill="#414141"/>
      <path id="Path_3001" data-name="Path 3001" d="M20.924,8.136V19.078H8v1H21.924V9.136H24v-1Z" fill="#414141"/>
    </g>
  </g>
</svg>
