<svg xmlns="http://www.w3.org/2000/svg" width="32" height="32" viewBox="0 0 32 32">
  <g id="RadioButtonSelected.S" transform="translate(-669 -2812)">
    <rect id="Rectangle_2358" data-name="Rectangle 2358" width="32" height="32" transform="translate(669 2812)" fill="none"/>
    <g id="Group_5946" data-name="Group 5946" transform="translate(669 2812)">
      <g id="Group_46" data-name="Group 46">
        <g id="Group_45" data-name="Group 45">
          <g id="Group_43" data-name="Group 43">
            <g id="Path_53" data-name="Path 53">
              <path id="Path_3094" data-name="Path 3094" d="M16,23.5a7.525,7.525,0,1,1,5.3-2.2A7.446,7.446,0,0,1,16,23.5Z" fill="#414141"/>
              <path id="Path_3095" data-name="Path 3095" d="M16,23a7.023,7.023,0,1,0-4.943-2.057A6.953,6.953,0,0,0,16,23m0,1a8,8,0,1,1,8-8A8.024,8.024,0,0,1,16,24Z" fill="#414141"/>
            </g>
          </g>
        </g>
      </g>
      <g id="Group_137" data-name="Group 137">
        <g id="Group_45-2" data-name="Group 45-2">
          <g id="Group_43-2" data-name="Group 43-2">
            <path id="Path_53-2" data-name="Path 53-2" d="M16,20h0a4.013,4.013,0,0,1-4-4h0a4.013,4.013,0,0,1,4-4h0a4.013,4.013,0,0,1,4,4h0A4.013,4.013,0,0,1,16,20Z" fill="#fff"/>
          </g>
        </g>
      </g>
    </g>
  </g>
</svg>
