<svg xmlns="http://www.w3.org/2000/svg" width="32" height="32" viewBox="0 0 32 32">
  <g id="VolumeOn.S" transform="translate(-749.5 -1022.5)">
    <rect id="Rectangle_1007" data-name="Rectangle 1007" width="32" height="32" transform="translate(749.5 1022.5)" fill="none"/>
    <g id="Group_5877" data-name="Group 5877">
      <path id="Path_3040" data-name="Path 3040" d="M16,21.132V10.869l-4.445,2.963L11.3,14H9v4h2.3l.252.168L16,21.132M17,23l-6-4H8V13h3l6-4Z" transform="translate(749.5 1022.5)" fill="#414141"/>
      <path id="Path_3041" data-name="Path 3041" d="M19,20.5v-1a3.5,3.5,0,0,0,0-7v-1a4.5,4.5,0,0,1,0,9Z" transform="translate(749.5 1022.5)" fill="#414141"/>
      <path id="Path_3042" data-name="Path 3042" d="M19,18.5v-1a1.5,1.5,0,0,0,0-3v-1a2.5,2.5,0,0,1,0,5Z" transform="translate(749.5 1022.5)" fill="#414141"/>
    </g>
  </g>
</svg>
