<svg xmlns="http://www.w3.org/2000/svg" width="32" height="32" viewBox="0 0 32 32">
  <g id="ZoomIn.S" transform="translate(-544.5 -1068.5)">
    <rect id="Rectangle_1007" data-name="Rectangle 1007" width="32" height="32" transform="translate(544.5 1068.5)" fill="none"/>
    <g id="Group_3935" transform="translate(0 -1114)">
      <circle id="Ellipse_228" data-name="Ellipse 228" cx="6" cy="6" r="6" transform="translate(552.6 2190.6)" fill="none"/>
      <g id="Group_4022" data-name="Group 4022">
        <path id="Path_2283" data-name="Path 2283" d="M559,2193.5h-1v2.5h-2.5v1H558v2.5h1V2197h2.5v-1H559Z" fill="#414141"/>
        <g id="Ellipse_203" transform="translate(552.6 2190.6)">
          <circle id="Ellipse_234" data-name="Ellipse 234" cx="6" cy="6" r="6" fill="none"/>
          <path id="Path_2330" data-name="Path 2330" d="M6,12a6,6,0,1,1,6-6A6.018,6.018,0,0,1,6,12ZM6,1A4.951,4.951,0,0,0,1,6a4.951,4.951,0,0,0,5,5,4.951,4.951,0,0,0,5-5A4.951,4.951,0,0,0,6,1Z" fill="#414141"/>
        </g>
        <rect id="Rectangle_2067" data-name="Rectangle 2067" width="1" height="6.9" transform="matrix(0.707, -0.707, 0.707, 0.707, 562.083, 2200.947)" fill="#414141"/>
      </g>
    </g>
  </g>
</svg>
