<svg xmlns="http://www.w3.org/2000/svg" width="48" height="48" viewBox="0 0 48 48">
  <g id="Champion.M" transform="translate(-732 -1582)">
    <rect id="Rectangle_724" data-name="Rectangle 724" width="48" height="48" transform="translate(732 1582)" fill="none"/>
    <g id="Group_2566">
      <path id="Path_2081" d="M747.8,1605.7a5.664,5.664,0,0,1-1.8.3,6.018,6.018,0,0,1-6-6c0-1.5,2-4,2-4h5.3a35.056,35.056,0,0,1,2.7-4h12a35.056,35.056,0,0,1,2.7,4H770s2,2.5,2,4a6.018,6.018,0,0,1-6,6,5.66,5.66,0,0,1-1.8-.3,9.987,9.987,0,0,1-16.4,0Z" fill="none"/>
      <path id="Path_2082" d="M762,1592s4,4.7,4,8a10,10,0,0,1-20,0c0-3.1,4-8,4-8Z" fill="none"/>
      <path id="Path_2332" data-name="Path 2332" d="M770,1596h-5.3a17.587,17.587,0,0,0-2.7-4H750a35.056,35.056,0,0,0-2.7,4H742s-2,2.5-2,4a6.018,6.018,0,0,0,6,6,5.66,5.66,0,0,0,1.8-.3c0,.1,0,.1.1.1a9.758,9.758,0,0,0,6.4,4c.2,0,.5.1.7.1v8.1h-7v2h16v-2h-7v-8.1a9.65,9.65,0,0,0,6.4-3.2,3.916,3.916,0,0,0,.8-1c0-.1,0-.1.1-.1a5.664,5.664,0,0,0,1.8.3,6.018,6.018,0,0,0,6-6C772,1598.5,770,1596,770,1596Zm-24,8a4.012,4.012,0,0,1-4-4,4.128,4.128,0,0,1,.7-1.5c.1-.2.2-.3.3-.5h3.4a6.465,6.465,0,0,0-.4,2,10.457,10.457,0,0,0,.8,3.9A2.2,2.2,0,0,1,746,1604Zm14.6,2.6a8.014,8.014,0,0,1-8.3.5,13.032,13.032,0,0,1-1.5-1,8.518,8.518,0,0,1-2.8-6.1,5.577,5.577,0,0,1,1-2.8l.1-.2a30.483,30.483,0,0,1,1.9-3h10c.1.1,1.5,2.3,2,3.2a5.577,5.577,0,0,1,1,2.8A8.2,8.2,0,0,1,760.6,1606.6Zm5.4-2.6a2.2,2.2,0,0,1-.8-.1,10.457,10.457,0,0,0,.8-3.9,4.477,4.477,0,0,0-.4-2H769c.1.2.2.3.3.5a2.628,2.628,0,0,1,.7,1.5A4.012,4.012,0,0,1,766,1604Z" fill="#414141"/>
    </g>
  </g>
</svg>
