<svg xmlns="http://www.w3.org/2000/svg" width="48" height="48" viewBox="0 0 48 48">
  <g id="Move.M" transform="translate(-337 -1532)">
    <rect id="Rectangle_724" data-name="Rectangle 724" width="48" height="48" transform="translate(337 1532)" fill="none"/>
    <path id="Path_2023" data-name="Path 2023" d="M369.6,1549l-1.4,1.4,4.6,4.6H362v-10.8l4.6,4.6,1.4-1.4-7.1-7.1-7,7.1,1.4,1.4,4.7-4.8v11H349.1l4.6-4.6-1.4-1.4-7.1,7,7.1,7.1,1.4-1.4L349,1557h11v11l-4.7-4.7-1.4,1.4,7,7.1,7.1-7.1-1.4-1.4-4.6,4.6V1557h10.9l-4.7,4.7,1.4,1.4,7.1-7.1Z" fill="#414141"/>
  </g>
</svg>
