<svg xmlns="http://www.w3.org/2000/svg" width="48" height="48" viewBox="0 0 48 48">
  <g id="Refresh.M" transform="translate(-798 -1428)">
    <rect id="Rectangle_1010" data-name="Rectangle 1010" width="48" height="48" transform="translate(798 1428)" fill="none"/>
    <g id="Group_4007" data-name="Group 4007">
      <g id="Group_3959" transform="translate(837.5 1467.5) rotate(180)">
        <path id="Path_1643" d="M.5,16A15.513,15.513,0,0,1,16,.5h0" fill="none"/>
        <path id="Path_2069" data-name="Path 2069" d="M6.2,29.5H1.5v2h9v-9h-2v6.1A14.439,14.439,0,0,1,1.4,16.1C1.4,7.9,7.6,1.5,15.5,1.5v-2C6.5-.5-.6,6.8-.6,16.1A16.622,16.622,0,0,0,6.2,29.5Z" fill="#414141"/>
      </g>
      <path id="Path_2069-2" data-name="Path 2069" d="M822.1,1438v-2c-9,0-16.1,7.3-16.1,16.6a16.622,16.622,0,0,0,6.8,13.4h-4.7v2h9v-9h-2v6.1a14.561,14.561,0,0,1-7.1-12.5C808,1444.4,814.2,1438,822.1,1438Z" fill="#414141"/>
    </g>
  </g>
</svg>
