<svg xmlns="http://www.w3.org/2000/svg" width="48" height="48" viewBox="0 0 48 48">
  <g id="Reload.M" transform="translate(-887 -1428)">
    <rect id="Rectangle_1010" data-name="Rectangle 1010" width="48" height="48" transform="translate(887 1428)" fill="none"/>
    <g id="Reload_2_" transform="translate(10)">
      <rect id="Rectangle_1010_7_" width="48" height="48" transform="translate(877 1428)" fill="none"/>
      <g id="Symbol_108_1_3_" transform="translate(79)">
        <rect id="Rectangle_1010_6_" width="48" height="48" transform="translate(798 1428)" fill="none"/>
      </g>
    </g>
    <path id="Path_2070" data-name="Path 2070" d="M925.9,1446.2a15.642,15.642,0,0,0-8.4-8.9,16.107,16.107,0,0,0-12.2-.3,15.642,15.642,0,0,0-8.9,8.4,16.22,16.22,0,0,0,6.9,20.6H897v2h9v-9h-2v5.1a14,14,0,0,1,2-25.2,13.287,13.287,0,0,1,10.7.3,13.988,13.988,0,0,1,7.1,18.5,13.867,13.867,0,0,1-7.2,7.1l.8,1.8a15.651,15.651,0,0,0,8.2-8.2A16.107,16.107,0,0,0,925.9,1446.2Z" fill="#414141"/>
  </g>
</svg>
