<svg xmlns="http://www.w3.org/2000/svg" width="48" height="48" viewBox="0 0 48 48">
  <g id="User.M" transform="translate(-778 -1532)">
    <rect id="Rectangle_724" data-name="Rectangle 724" width="48" height="48" transform="translate(778 1532)" fill="none"/>
    <g id="Group_2413">
      <circle id="Ellipse_225" data-name="Ellipse 225" cx="9" cy="9" r="9" transform="translate(793 1540)" fill="none"/>
      <path id="Path_2037" data-name="Path 2037" d="M806.7,1556.7a9,9,0,1,0-9.4,0A16.056,16.056,0,0,0,786,1572h2a14,14,0,0,1,28,0h2A16.056,16.056,0,0,0,806.7,1556.7ZM795,1549a7,7,0,1,1,7,7A6.957,6.957,0,0,1,795,1549Z" fill="#414141"/>
    </g>
  </g>
</svg>
