<svg xmlns="http://www.w3.org/2000/svg" width="48" height="48" viewBox="0 0 48 48">
  <g id="Binoculars.M" transform="translate(-337 -1665)">
    <rect id="Rectangle_724" data-name="Rectangle 724" width="48" height="48" transform="translate(337 1665)" fill="none"/>
    <path id="Path_2335" data-name="Path 2335" d="M376.1,1692.6l-3.1-12.7a5.061,5.061,0,0,0-5-4.9,4.951,4.951,0,0,0-5,5v7h-4v-7a4.951,4.951,0,0,0-5-5,5.061,5.061,0,0,0-5,4.9l-3.6,13.8a6.051,6.051,0,0,0-.4,2.4,7,7,0,0,0,14,0,3.4,3.4,0,0,0-.1-1h4.2c0,.3-.1.7-.1,1a7,7,0,0,0,14,0A6.756,6.756,0,0,0,376.1,1692.6ZM365,1680a3,3,0,0,1,6,0l2.4,9.9a6.651,6.651,0,0,0-3.4-.9,6.944,6.944,0,0,0-5,2.1V1680Zm-14,0a3,3,0,0,1,6,0v11.1a6.944,6.944,0,0,0-5-2.1,7.486,7.486,0,0,0-3.6,1Zm1,21a5,5,0,1,1,5-5A4.951,4.951,0,0,1,352,1701Zm7-8v-4h4v4Zm11,8a5,5,0,1,1,5-5A4.951,4.951,0,0,1,370,1701Z" fill="#414141"/>
  </g>
</svg>
