<svg xmlns="http://www.w3.org/2000/svg" width="48" height="48" viewBox="0 0 48 48">
  <g id="Fire.M" transform="translate(-504 -1665)">
    <rect id="Rectangle_724" data-name="Rectangle 724" width="48" height="48" transform="translate(504 1665)" fill="none"/>
    <path id="Path_3098" data-name="Path 3098" d="M37.471,23.845A12.557,12.557,0,0,0,35.9,20.608a9.087,9.087,0,0,1-.826-1.5,8.36,8.36,0,0,1-.437-1.251,6.153,6.153,0,0,1-.152-.971,4.566,4.566,0,0,1-.016-.624,2.189,2.189,0,0,0,.016-.25.83.83,0,0,0-.05-.547,1.075,1.075,0,0,0-.352-.438,1.045,1.045,0,0,0-.523-.2.728.728,0,0,0-.114-.008,1.032,1.032,0,0,0-.44.1,1.58,1.58,0,0,0-.272.126,5.752,5.752,0,0,0-2.863,3.6,11.107,11.107,0,0,0-.438,2.095c-.178-.272-.336-.528-.468-.766s-.261-.455-.375-.643a13.423,13.423,0,0,1-.992-2.844,17.809,17.809,0,0,1-.437-2.69,18.207,18.207,0,0,1-.018-2.362c.046-.8.09-1.333.136-1.6s.078-.475.1-.641a.879.879,0,0,0-.3-.937,1.119,1.119,0,0,0-.5-.236A1.321,1.321,0,0,0,26.344,8a1.458,1.458,0,0,0-.307.034c-.224.064-.51.158-.858.284a11.4,11.4,0,0,0-1.752.937,13.572,13.572,0,0,0-2.272,1.737,11.958,11.958,0,0,0-2.073,2.783,13.24,13.24,0,0,0-1.464,3.957,16.456,16.456,0,0,0,.233,7.442,6.5,6.5,0,0,1-1.886-1.908,12.657,12.657,0,0,1-1.549-3.626.869.869,0,0,0-.318-.485,1.058,1.058,0,0,0-.591-.234,1.541,1.541,0,0,0-.186-.014.931.931,0,0,0-.857.514,6.184,6.184,0,0,0-.338.547q-.2.357-.624,1.281c-.279.616-.533,1.225-.757,1.829a10.52,10.52,0,0,0-.112,7.482,14.023,14.023,0,0,0,18.319,8.493C34.72,36.815,39.27,30.108,37.471,23.845ZM23.882,38a12.025,12.025,0,0,1-10.209-5.68,9.451,9.451,0,0,1-1.049-8.549c.171-.461.371-.949.593-1.451a11.507,11.507,0,0,0,1.091,2.069,8.494,8.494,0,0,0,2.492,2.49l4.2,2.6-1.213-4.79a14.546,14.546,0,0,1-.214-6.548,11.315,11.315,0,0,1,1.241-3.368,10.078,10.078,0,0,1,1.707-2.318,11.783,11.783,0,0,1,1.942-1.486c.3-.184.542-.324.733-.43-.016.214-.034.471-.052.781a20.739,20.739,0,0,0,.022,2.622,20.258,20.258,0,0,0,.48,2.994A15.306,15.306,0,0,0,26.8,20.2l.036.076.044.074c.11.184.234.4.35.605.156.28.339.576.539.88l3.02,4.576.641-5.444a8.961,8.961,0,0,1,.354-1.716,4.274,4.274,0,0,1,.789-1.555c.032.2.074.4.122.614a10.124,10.124,0,0,0,.544,1.576,11.236,11.236,0,0,0,1,1.821A10.641,10.641,0,0,1,35.547,24.4a7.756,7.756,0,0,1,.342,1.982C36.043,32.762,30,38,23.882,38Z" transform="translate(504 1665)" fill="#414141"/>
  </g>
</svg>
