<svg xmlns="http://www.w3.org/2000/svg" width="48" height="48" viewBox="0 0 48 48">
  <g id="PieChart.M" transform="translate(-719 -1428)">
    <rect id="Rectangle_1008" data-name="Rectangle 1008" width="48" height="48" transform="translate(719 1428)" fill="none"/>
    <path id="Path_3080" data-name="Path 3080" d="M24,8A16,16,0,1,0,40,24,16.019,16.019,0,0,0,24,8ZM37.949,23H25V10.051A14,14,0,0,1,37.949,23ZM23,10.051V23.586l-9.568,9.568A13.967,13.967,0,0,1,23,10.051ZM24,38a13.922,13.922,0,0,1-9.154-3.432L24.414,25H37.949A14.007,14.007,0,0,1,24,38Z" transform="translate(719 1428)" fill="#414141"/>
  </g>
</svg>
