<svg xmlns="http://www.w3.org/2000/svg" width="48" height="48" viewBox="0 0 48 48">
  <g id="Table.M" transform="translate(-713 -1273)">
    <rect id="Rectangle_2086" data-name="Rectangle 2086" width="48" height="48" transform="translate(713 1273)" fill="none"/>
    <path id="Path_3110" data-name="Path 3110" d="M8,8V40H40V8Zm2,16h8v6H10Zm10,0h8v6H20Zm0-2V16h8v6Zm-2,0H10V16h8ZM10,38V32h8v6Zm10,0V32h8v6Zm18,0H30V32h8Zm0-8H30V24h8Zm0-8H30V16h8Zm0-8H10V10H38Z" transform="translate(713 1273)" fill="#414141"/>
  </g>
</svg>
