<svg xmlns="http://www.w3.org/2000/svg" width="48" height="48" viewBox="0 0 48 48">
  <g id="ZoomIn.M" transform="translate(-526 -1408)">
    <rect id="Rectangle_1007" data-name="Rectangle 1007" width="48" height="48" transform="translate(526 1408)" fill="none"/>
    <g id="Group_2324" transform="translate(76 -206)">
      <g id="Group_2321" transform="translate(458 1622)">
        <g id="Group_2342">
          <g id="Group_2321-2">
            <circle id="Ellipse_231" data-name="Ellipse 231" cx="12" cy="12" r="12" fill="none"/>
            <g id="Group_4024" data-name="Group 4024">
              <path id="Path_2290" data-name="Path 2290" d="M32,30.6,21.2,19.7A11.754,11.754,0,0,0,24,12,12,12,0,1,0,12,24a12.308,12.308,0,0,0,7.7-2.8L30.6,32ZM12,22A10,10,0,1,1,22,12,10.029,10.029,0,0,1,12,22Z" fill="#414141"/>
              <path id="Path_2291" data-name="Path 2291" d="M13,6H11v5H6v2h5v5h2V13h5V11H13Z" fill="#414141"/>
            </g>
          </g>
        </g>
      </g>
    </g>
  </g>
</svg>
