<svg xmlns="http://www.w3.org/2000/svg" style="display: none;">

    <symbol id="icon-arrow-left" viewBox="0 0 32 32" stroke="none">
      <rect width="32" height="32" fill="none"/>
      <path d="M15.469,0a.537.537,0,0,1,.379.916L8.713,8.054l7.031,7.031a.536.536,0,0,1-.758.758l-7.41-7.41a.537.537,0,0,1,0-.758L15.09.158A.539.539,0,0,1,15.468,0Z" transform="translate(4.581 8)"/>
    </symbol>

    <symbol id="icon-arrow-right" viewBox="0 0 32 32" stroke="none">
      <rect width="32" height="32" fill="none"/>
      <path id="arrow-right" class="cls-2" d="M7.955,16a.537.537,0,0,1-.379-.916l7.135-7.138L7.68.917A.536.536,0,0,1,8.438.159l7.41,7.41a.537.537,0,0,1,0,.758L8.334,15.844A.539.539,0,0,1,7.955,16Z" transform="translate(4.581 8)"/>
    </symbol>

    <symbol id="icon-first" viewBox="0 0 32 32">
      <svg xmlns="http://www.w3.org/2000/svg" viewBox="0 0 32 32">
        <g id="Symbol_22_9" data-name="Symbol 22 – 9" transform="translate(-1198 2686)">
          <g id="Group_2227" data-name="Group 2227" transform="translate(1577.5 -1802.5) rotate(180)">
            <path d="M7.955,16a.537.537,0,0,1-.379-.916l7.135-7.138L7.68.917A.536.536,0,0,1,8.438.159l7.41,7.41a.537.537,0,0,1,0,.758L8.334,15.844A.539.539,0,0,1,7.955,16Z" transform="translate(350.581 858.998)" stroke="none"/>
            <line y2="16" transform="translate(369.5 859.5)" fill="none" stroke-linecap="round"/>
          </g>
          <rect id="Rectangle_1265" data-name="Rectangle 1265" class="cls-3" width="32" height="32" transform="translate(1198 -2686)" fill="none" stroke="none"/>
        </g>
      </svg>
    </symbol>

    <symbol id="icon-last" viewBox="0 0 32 32">
      <svg xmlns="http://www.w3.org/2000/svg" viewBox="0 0 32 32">
        <g id="last" transform="translate(-348 -848)">
          <g id="Group_2227" data-name="Group 2227" transform="translate(0 -3)">
            <path id="arrow-right" class="cls-1" d="M7.955,16a.537.537,0,0,1-.379-.916l7.135-7.138L7.68.917A.536.536,0,0,1,8.438.159l7.41,7.41a.537.537,0,0,1,0,.758L8.334,15.844A.539.539,0,0,1,7.955,16Z" transform="translate(350.581 858.998)" stroke="none"/>
            <line id="Line_1469" data-name="Line 1469" class="cls-2" y2="16" transform="translate(369.5 859.5)"/>
          </g>
          <rect id="Rectangle_1265" data-name="Rectangle 1265" class="cls-3" width="32" height="32" transform="translate(348 848)" fill="none" stroke="none"/>
        </g>
      </svg>
    </symbol>
  
</svg>