<svg xmlns="http://www.w3.org/2000/svg" viewBox="0 0 32 32"><path fill="#414141" d="M22 6.01h2v-2h-2.34a6 6 0 0 0-11.32 0H8v2h2a5.98 5.98 0 0 0 2.9 5.13C10.79 12.8 9.26 16.11 9.04 20H9v8h1.33L9 32h6l1-3 1 3h6l-1.33-4H23v-8h-.03c-.22-3.9-1.74-7.2-3.88-8.86A5.99 5.99 0 0 0 22 6.01zm-6-4a3.98 3.98 0 0 1 3.44 2h-6.89a3.98 3.98 0 0 1 3.45-2zm4.96 18h-9.92a12.01 12.01 0 0 1 1.87-5.97A4.18 4.18 0 0 1 16 12.01a4.16 4.16 0 0 1 3.09 2.03A12.01 12.01 0 0 1 20.96 20zM16 10a4 4 0 0 1-4-4h8a4 4 0 0 1-4 4z"/></svg>