<svg xmlns="http://www.w3.org/2000/svg" viewBox="0 0 32 32"><path fill="#414141" d="M22.9939 21.00378c0-.29089-.013-.57775-.028-.86364v-.136c0-.019-.005-.03809-.006-.057-.026-.43591-.07-.86364-.128-1.28357-.016-.111-.036-.21789-.054-.32788-.051-.31787-.109-.63086-.177-.93774q-.04092-.18275-.084-.36279-.12-.486-.268-.94776c-.023-.07092-.042-.1449-.066-.21484q-.193-.57789-.429-1.1106c-.019-.043-.04-.083-.06-.126-.14-.30884-.29-.59986-.449-.8877l-.12-.20691q-.24307-.4118-.51-.78381c-.027-.03687-.052-.07593-.078-.11084a7.787 7.787 0 0 0-1.4-1.45557c-.019-.015-.03595-.036-.056-.051a6.0009 6.0009 0 1 0-6.18 0c-.018.014-.035.034-.053.04809a7.78245 7.78245 0 0 0-1.4 1.46338c-.022.029-.042.06006-.063.09009q-.278.38178-.529.81067c-.035.06091-.071.122-.106.184-.167.2998-.325.60571-.47.92969-.014.02893-.028.05688-.041.08593q-.24.54382-.438 1.13159c-.018.054-.033.111-.05.165q-.157.49072-.284 1.0066-.039.15892-.075.3208-.1095.49035-.188.99975c-.015.09094-.032.17993-.045.27295-.06.42871-.105.8667-.132 1.3125v.20691c-.014.27686-.027.55383-.027.83569 0 .11695.007.22986.00995.34485L9 22.0144l-5 .02405v5.99793l12.395-.035L14.99493 32h6l1.333-3.99866h.667V22c.01197-.25391-.00103-.73828-.00103-.99622zM11.995 6.009a4 4 0 1 1 3.99993 3.99854A3.99934 3.99934 0 0 1 11.995 6.009zm7.55792 23.9917H17.814l.66095-1.88745 1.722-.043zM5.995 26.03v-1.99924l5-.02807v-1.99927h9.98193l.018 3.99866z"/></svg>