<svg xmlns="http://www.w3.org/2000/svg" viewBox="0 0 32 32"><path fill="#414141" d="M21.994 6.01088H24V4.01172h-2.338a6.00079 6.00079 0 0 0-11.322 0H8v1.99916h2.006a5.975 5.975 0 0 0 2.9 5.13085C10.775 12.796 9.253 16.10666 9.029 20.005H9v2.01016l-5 .024v5.99749l12.4-.035L15 32h6l1.333-3.99833H23V20.005h-.029c-.224-3.89836-1.746-7.209-3.881-8.86329a5.987 5.987 0 0 0 2.904-5.13083zM16 2.01256a3.9823 3.9823 0 0 1 3.445 1.99916h-6.89A3.9823 3.9823 0 0 1 16 2.01256zM20.963 20.005h-9.927a12.0144 12.0144 0 0 1 1.874-5.9625A4.16907 4.16907 0 0 1 16 12.00837a4.16811 4.16811 0 0 1 3.09 2.03515 12.01237 12.01237 0 0 1 1.873 5.96148zM16 10.00921a3.99916 3.99916 0 0 1-4-3.99833h8a3.99916 3.99916 0 0 1-4 3.99833z"/></svg>