<svg xmlns="http://www.w3.org/2000/svg" viewBox="0 0 32 32"><path fill="#414141" d="M22 6h2V4h-2.34a5.92 5.92 0 0 0-.52-1.1A6 6 0 0 0 10.34 4H8v2h2a5.98 5.98 0 0 0 2.9 5.14l-.05.04a7.8 7.8 0 0 0-1.4 1.47l-.07.09q-.27.38-.53.8l-.1.2c-.17.3-.33.6-.47.92l-.04.09q-.24.54-.44 1.13l-.05.17q-.16.49-.28 1l-.08.32-.19 1-.04.28c-.06.43-.1.86-.13 1.3v.15a16.9 16.9 0 0 0-.01 1.7L9 28h1.33L9 32h6l1-3 1 3h6l-1.33-4H23l-.02-6.23a16.16 16.16 0 0 0 0-1.63V20l-.02-.05a16.5 16.5 0 0 0-.12-1.28l-.06-.35a14.88 14.88 0 0 0-.26-1.3q-.12-.47-.26-.91l-.07-.25q-.2-.57-.43-1.1l-.07-.14a9.43 9.43 0 0 0-.44-.87l-.12-.22q-.24-.4-.5-.76a.45.45 0 0 0-.1-.13 7.77 7.77 0 0 0-1.38-1.45l-.06-.05A5.99 5.99 0 0 0 21.99 6zm-6-4a3.98 3.98 0 0 1 3.44 2h-6.89A3.98 3.98 0 0 1 16 2zm2.44 28-.67-2h1.79l.66 2zM21 22v4h-6.1l-.46 1.37-.88 2.63h-1.79l.46-1.37.88-2.63H11l.02-4zm-5-12a4 4 0 0 1-4-4h8a4 4 0 0 1-4 4z"/></svg>