<svg xmlns="http://www.w3.org/2000/svg" viewBox="0 0 32 32"><path fill="#414141" d="M23 20.004h-.029c-.223-3.89869-1.746-7.20958-3.88-8.864a6.00089 6.00089 0 1 0-6.181 0c-2.135 1.65445-3.657 4.96534-3.881 8.864H9v7.99731h1.332L9 32h6l1-2.999L17 32h6l-1.333-3.99866H23zM12 6.00873a4 4 0 1 1 4 3.99865 3.99933 3.99933 0 0 1-4-3.99865zm.909 8.0333A4.17706 4.17706 0 0 1 16 12.00671a4.16407 4.16407 0 0 1 3.089 2.03529 12.01408 12.01408 0 0 1 1.873 5.962h-9.925a12.00311 12.00311 0 0 1 1.872-5.962z"/></svg>