<svg xmlns="http://www.w3.org/2000/svg" viewBox="0 0 32 32"><path fill="#414141" d="M23 28v-7c0-.29-.01-.57-.03-.86v-.19a16.5 16.5 0 0 0-.13-1.28l-.06-.35a14.88 14.88 0 0 0-.26-1.3q-.12-.46-.26-.91l-.07-.24q-.2-.57-.43-1.1l-.07-.15a9.52 9.52 0 0 0-.44-.87l-.12-.22q-.24-.4-.5-.76l-.1-.13a7.76 7.76 0 0 0-1.38-1.45l-.06-.05a6 6 0 1 0-6.18 0l-.05.05a7.78 7.78 0 0 0-1.4 1.46l-.07.1q-.28.37-.53.8l-.1.19c-.17.3-.33.6-.47.93l-.04.08q-.24.55-.44 1.13l-.05.17q-.16.49-.29 1l-.07.33c-.07.32-.14.66-.19 1l-.04.27c-.06.43-.1.86-.14 1.31v.14l-.02.9c0 .27-.02.73-.01 1v6h1.33L9 32h6l1-3 1 3h6l-1.33-4zM12 6.01a4 4 0 1 1 4 4 4 4 0 0 1-4-4zm6.44 24-.67-2h1.79l.66 2zm-3.55-4-.45 1.36-.88 2.63h-1.79l.46-1.37.88-2.63H11l.02-4H21v4z"/></svg>