<svg xmlns="http://www.w3.org/2000/svg" viewBox="0 0 32 32"><path fill="#414141" d="M22 6h2V4h-2.34a6 6 0 0 0-11.32 0H8v2h2a6 6 0 0 0 2.9 5.14C10.78 12.79 9.26 16.1 9.04 20L9 28h1.33L9 32h6l1-3 1 3h6l-1.33-4H23l-.03-8c-.22-3.9-1.74-7.21-3.88-8.86A6 6 0 0 0 22 6m-6-4a4 4 0 0 1 3.46 2h-6.92A4 4 0 0 1 16 2m2.44 28-.66-2h1.78l.67 2zm2.54-9.88.02.44V26h-6.1l-.46 1.37-.88 2.63h-1.79l.46-1.37.88-2.63H11l.03-5.88a12 12 0 0 1 1.88-6.08A4.2 4.2 0 0 1 16 12a4.2 4.2 0 0 1 3.09 2.04 12 12 0 0 1 1.89 6.08M16 10a4 4 0 0 1-4-4h8a4 4 0 0 1-4 4"/></svg>