<svg xmlns="http://www.w3.org/2000/svg" viewBox="0 0 32 32"><path fill="#414141" d="M21.994 6.00973H24V4.01048h-2.338a6.0007 6.0007 0 00-11.321 0H8v1.99925h2.006a5.97831 5.97831 0 002.9 5.13108c-2.131 1.65438-3.653 4.96514-3.877 8.86368H9v7.997h1.332L9 32h6l1-2.99888L17 32h6l-1.333-3.9985H23v-7.997h-.029c-.223-3.89854-1.746-7.2093-3.88-8.86368a5.98732 5.98732 0 002.903-5.13109zM16 2.01123a3.98226 3.98226 0 013.445 1.99925h-6.89A3.98226 3.98226 0 0116 2.01123zm4.962 17.99326h-9.925a12.01229 12.01229 0 011.872-5.96177A4.17708 4.17708 0 0116 12.00748a4.16408 4.16408 0 013.089 2.03524 12.01328 12.01328 0 011.873 5.96177zM16 10.00823a3.99925 3.99925 0 01-4-3.9985h8a3.99925 3.99925 0 01-4 3.9985z"/></svg>