<svg xmlns="http://www.w3.org/2000/svg" viewBox="0 0 32 32"><path fill="#414141" d="m24.91 19.52-.05-.38a13 13 0 0 0-.26-1.38l-.01-.05a12 12 0 0 0-.42-1.3l-.13-.34a12 12 0 0 0-.57-1.2l-.02-.04a11 11 0 0 0-.7-1.08l-.2-.27a10 10 0 0 0-.81-.95l-.03-.03a9 9 0 0 0-.92-.8l-.25-.19a8 8 0 0 0-1.03-.64A6 6 0 0 0 22 6.02h2v-2h-2.33a6 6 0 0 0-11.32 0H8v2h2.01a6 6 0 0 0 2.5 4.85 9 9 0 0 0-1.04.65l-.24.18a10 10 0 0 0-1.78 1.8l-.18.24a11 11 0 0 0-1.3 2.35l-.13.3a13 13 0 0 0-.7 2.77l-.04.35A14 14 0 0 0 7 21l.03.78V22H9v6h3v4h8v-4h3v-6h1.96q.04-.49.04-1v-.02a13 13 0 0 0-.09-1.46M16 2.02a4 4 0 0 1 3.44 2h-6.89a4 4 0 0 1 3.45-2m-4 4h8a4 4 0 0 1-8 0M21 26h-3v4h-4v-4h-3v-4h10z"/></svg>