<svg xmlns="http://www.w3.org/2000/svg" viewBox="0 0 32 32"><path fill="#414141" d="M25 20.98a13 13 0 0 0-.09-1.46l-.05-.38a13 13 0 0 0-.26-1.38l-.01-.05a13 13 0 0 0-.42-1.3l-.13-.34a12 12 0 0 0-.57-1.2l-.02-.04a11 11 0 0 0-.7-1.08l-.2-.27a10 10 0 0 0-.81-.95l-.03-.03a9 9 0 0 0-.92-.8l-.25-.19a8 8 0 0 0-1.03-.64 6 6 0 1 0-7 0 9 9 0 0 0-1.05.65l-.23.17a10 10 0 0 0-1.78 1.8l-.19.25a11 11 0 0 0-1.3 2.35l-.12.3a13 13 0 0 0-.7 2.76l-.04.35A13 13 0 0 0 7 21q0 .4.03.79v.22H9v6h3V32h8v-4h3v-6h1.96q.04-.49.04-1zM16 2.02a4 4 0 1 1-4 4 4 4 0 0 1 4-4M18 26v4h-4v-4h-3v-4h10v4z"/></svg>