<svg xmlns="http://www.w3.org/2000/svg" viewBox="0 0 32 32"><path fill="#414141" d="m24.91 19.52-.05-.38a12.9 12.9 0 0 0-.26-1.38l-.01-.05a12.42 12.42 0 0 0-.42-1.3l-.13-.34a11.8 11.8 0 0 0-.57-1.2l-.02-.04a11.11 11.11 0 0 0-.7-1.08c-.06-.1-.13-.18-.2-.27a10.16 10.16 0 0 0-.81-.95l-.03-.03a9.08 9.08 0 0 0-.92-.8 6.58 6.58 0 0 0-.25-.19 8.4 8.4 0 0 0-1.03-.64A5.98 5.98 0 0 0 22 6.02h2v-2h-2.33a6 6 0 0 0-11.32 0H8v2h2.01a5.98 5.98 0 0 0 2.5 4.85 8.56 8.56 0 0 0-1.04.65l-.24.18a9.73 9.73 0 0 0-1.78 1.8l-.18.24a11.42 11.42 0 0 0-1.3 2.35l-.13.3a12.69 12.69 0 0 0-.7 2.77l-.04.35A13.46 13.46 0 0 0 7 21l.03.78a1.96 1.96 0 0 0 0 .22H9v6h3v4h8v-4h3v-6h1.96c.03-.32.04-.66.04-1v-.02a13.15 13.15 0 0 0-.09-1.46zM16 2.02a3.98 3.98 0 0 1 3.44 2h-6.89a3.98 3.98 0 0 1 3.45-2zm-4 4h8a4 4 0 0 1-8 0zM21 26h-3v4h-4v-4h-3v-4h10z"/></svg>