<svg xmlns="http://www.w3.org/2000/svg" viewBox="0 0 32 32"><path fill="#414141" d="M22 6h2V4h-2.34a6 6 0 0 0-.52-1.1A6 6 0 0 0 10.34 4H8v2h2a6 6 0 0 0 2.9 5.14l-.05.04a8 8 0 0 0-1.4 1.47l-.07.09q-.27.38-.53.8l-.1.2q-.26.44-.47.92l-.04.09q-.24.54-.44 1.13l-.05.17q-.16.49-.28 1l-.08.32-.19 1-.04.28q-.09.64-.13 1.3v.15a17 17 0 0 0-.01 1.7L9 28h1.33L9 32h6l1-3 1 3h6l-1.33-4H23l-.02-6.23a16 16 0 0 0 0-1.63V20l-.02-.05a17 17 0 0 0-.12-1.28l-.06-.35a15 15 0 0 0-.26-1.3q-.12-.47-.26-.91l-.07-.25q-.2-.57-.43-1.1l-.07-.14a9 9 0 0 0-.44-.87l-.12-.22q-.24-.4-.5-.76l-.1-.13a8 8 0 0 0-1.38-1.45l-.06-.05A6 6 0 0 0 21.99 6zm-6-4a4 4 0 0 1 3.44 2h-6.89A4 4 0 0 1 16 2m2.44 28-.67-2h1.79l.66 2zM21 22v4h-6.1l-.46 1.37-.88 2.63h-1.79l.46-1.37.88-2.63H11l.02-4zm-5-12a4 4 0 0 1-4-4h8a4 4 0 0 1-4 4"/></svg>