<svg xmlns="http://www.w3.org/2000/svg" viewBox="0 0 32 32"><path fill="#414141" d="M23 21q0-.43-.03-.86V20l-.01-.05a17 17 0 0 0-.13-1.29l-.05-.32q-.07-.49-.18-.94l-.08-.36q-.12-.5-.27-.95l-.07-.22q-.19-.58-.43-1.1l-.06-.13q-.21-.46-.45-.9l-.12-.2q-.24-.41-.5-.78l-.08-.11a8 8 0 0 0-1.4-1.46l-.06-.05a6 6 0 1 0-6.18 0l-.05.05a8 8 0 0 0-1.4 1.46l-.07.1q-.27.37-.52.8l-.11.19q-.26.44-.47.93l-.04.08q-.24.55-.44 1.13l-.05.17q-.16.49-.28 1l-.08.33-.19 1-.04.27q-.09.65-.13 1.31v.2L9 21l.01.35L9 22l-5 .03v6L16.4 28 15 32h6l1.33-4h.66v-6c.02-.25 0-.74 0-1zM12 6a4 4 0 1 1 4 4 4 4 0 0 1-4-4m7.55 24h-1.74l.66-1.89 1.73-.04zM6 26.03v-2l5-.03v-2h9.98l.01 4z"/></svg>