<svg xmlns="http://www.w3.org/2000/svg" viewBox="0 0 32 32"><path fill="#414141" d="M25 20.9808a13.18574 13.18574 0 0 0-.09-1.45823c-.014-.12793-.03-.25387-.047-.3808a13.09557 13.09557 0 0 0-.261-1.38027l-.014-.056a12.51965 12.51965 0 0 0-.418-1.29332c-.043-.11394-.087-.22588-.133-.33782a11.79231 11.79231 0 0 0-.563-1.19937l-.026-.047a11.09293 11.09293 0 0 0-.692-1.07543c-.066-.092-.134-.18191-.2-.27186a10.30565 10.30565 0 0 0-.818-.9515l-.029-.029a9.18392 9.18392 0 0 0-.919-.79958c-.083-.065-.167-.12693-.253-.1879a8.405 8.405 0 0 0-1.031-.64466 6.00149 6.00149 0 1 0-7 0 8.57961 8.57961 0 0 0-1.042.65065c-.08.058-.158.11594-.237.17591a9.74639 9.74639 0 0 0-1.782 1.79905c-.063.082-.124.16492-.185.24887a11.44122 11.44122 0 0 0-1.3 2.34377c-.042.1-.082.19989-.121.30884a12.68755 12.68755 0 0 0-.7 2.75954c-.017.11694-.031.23288-.044.34982A13.43757 13.43757 0 0 0 7 21.00579c0 .26486.013.52372.028.78259a1.95635 1.95635 0 0 0 .008.21688H9v5.99685h3V32h8v-3.99789h3v-5.99685h1.963c.024-.32882.037-.66165.037-.99947zm-9-18.965a3.9979 3.9979 0 1 1-4 3.99789 3.99895 3.99895 0 0 1 4-3.9979zm2 23.98737v3.99789h-4v-3.9979h-3v-3.9979h10v3.9979z"/></svg>