<svg xmlns="http://www.w3.org/2000/svg" viewBox="0 0 32 32"><path fill="#414141" d="M22.971 20.00414c-.224-3.89865-1.746-7.20951-3.881-8.86394a6.00092 6.00092 0 1 0-6.18 0c-2.135 1.65443-3.657 4.96529-3.881 8.86394H9v2.01031l-5 .024v5.99793l12.4-.035L15 32h6l1.333-3.99862H23v-7.99724zM12 6.009a4 4 0 1 1 4 3.99862A3.99931 3.99931 0 0 1 12 6.009zm.91 8.03223A4.16909 4.16909 0 0 1 16 12.0069a4.16809 4.16809 0 0 1 3.09 2.0353 12.01386 12.01386 0 0 1 1.873 5.96194h-9.927a12.01889 12.01889 0 0 1 1.874-5.96294z"/></svg>