<svg xmlns="http://www.w3.org/2000/svg" viewBox="0 0 32 32"><path fill="#414141" d="M23 28.00147V22c.012-.25391-.001-.73806-.001-.996 0-.29089-.013-.57778-.028-.86368v-.136c0-.019-.005-.038-.006-.057-.026-.43484-.07-.86068-.128-1.27953-.016-.116-.037-.22791-.056-.34287-.049-.31089-.106-.61678-.173-.91766-.028-.128-.057-.25491-.088-.38086q-.117-.47083-.26-.91867c-.025-.08-.047-.16294-.074-.24091q-.192-.56979-.424-1.0996c-.022-.051-.048-.1-.071-.14894a9.517 9.517 0 0 0-.437-.86368c-.042-.075-.085-.14795-.128-.22092q-.237-.39985-.5-.76572c-.03-.041-.058-.086-.088-.126a7.7622 7.7622 0 0 0-1.387-1.44746c-.021-.016-.04-.039-.061-.055a6.001 6.001 0 1 0-6.181 0c-.018.014-.035.034-.053.048a7.78027 7.78027 0 0 0-1.4 1.46346c-.022.029-.042.06-.063.09q-.278.38185-.529.8107c-.035.061-.071.122-.106.18393-.167.29989-.325.60578-.47.92966-.014.029-.028.057-.041.086q-.24.54381-.438 1.13159c-.018.054-.033.111-.05.16494q-.157.49082-.284 1.00663-.039.15894-.075.32088c-.073.32688-.135.65976-.188.99963-.015.091-.032.17994-.045.2729-.06.42885-.105.86668-.132 1.31252v.143c-.016.29989-.029.59978-.029.89967 0 .2689-.018.73006-.006.997v6.00147h1.332L9 32h6l1-2.9989L17 32h6l-1.333-3.99853zM12 6.00954a4 4 0 1 1 4 3.99853 3.99926 3.99926 0 0 1-4-3.99853zm6.442 23.99119-.667-1.99926h1.784l.666 1.99926zm-3.55-3.99853-.455 1.3665-.878 2.632h-1.784l.456-1.3665.878-2.632H11l.017-3.99853H21v3.99853z"/></svg>