<svg xmlns="http://www.w3.org/2000/svg" viewBox="0 0 32 32"><path fill="#414141" d="M22 6.00281h2V4.003h-2.342a6.00021 6.00021 0 0 0-11.315 0H8v1.99981h2a5.99923 5.99923 0 0 0 2.909 5.13245c-2.135 1.65482-3.657 4.96646-3.881 8.866L9 28.00043h1.333L9 32h6l1-2.99968L17 32h6l-1.333-3.99957H23l-.029-7.99913c-.223-3.89958-1.746-7.21122-3.88-8.866A5.99923 5.99923 0 0 0 22 6.00281zm-6-3.99957A4.00008 4.00008 0 0 1 19.464 4.003h-6.927A4.0001 4.0001 0 0 1 16 2.00324zm2.443 27.997-.667-1.99979h1.784l.666 1.99979zm2.532-9.88293.025.43895v5.44441h-6.109l-.455 1.36585-.878 2.63372h-1.784l.456-1.36686.878-2.63271H11l.027-5.88437a12.01983 12.01983 0 0 1 1.884-6.07834A4.17305 4.17305 0 0 1 16 12.00216a4.167 4.167 0 0 1 3.09 2.03678 12.02075 12.02075 0 0 1 1.885 6.07835zM16 10.00238a3.99979 3.99979 0 0 1-4-3.99957h8a3.99979 3.99979 0 0 1-4 3.99957z"/></svg>