<svg xmlns="http://www.w3.org/2000/svg" viewBox="0 0 32 32"><path fill="#414141" d="M23 28v-7q0-.43-.03-.86v-.19a17 17 0 0 0-.13-1.28l-.06-.35a15 15 0 0 0-.26-1.3q-.12-.46-.26-.91l-.07-.24q-.2-.57-.43-1.1l-.07-.15a10 10 0 0 0-.44-.87l-.12-.22q-.24-.4-.5-.76l-.1-.13a8 8 0 0 0-1.38-1.45l-.06-.05a6 6 0 1 0-6.18 0l-.05.05a8 8 0 0 0-1.4 1.46l-.07.1q-.28.37-.53.8l-.1.19q-.26.44-.47.93l-.04.08q-.24.55-.44 1.13l-.05.17q-.16.49-.29 1l-.07.33q-.11.48-.19 1l-.04.27q-.09.64-.14 1.31v.14l-.02.9c0 .27-.02.73-.01 1v6h1.33L9 32h6l1-3 1 3h6l-1.33-4zM12 6.01a4 4 0 1 1 4 4 4 4 0 0 1-4-4m6.44 24-.67-2h1.79l.66 2zm-3.55-4-.45 1.36-.88 2.63h-1.79l.46-1.37.88-2.63H11l.02-4H21v4z"/></svg>