<svg xmlns="http://www.w3.org/2000/svg" viewBox="0 0 32 32"><path fill="#414141" d="M19.5 10.87016a6.001 6.001 0 1 0-7 0C9.268 12.5386 7 16.44727 7 21.00373c0 .33688.011.66977.036.99966H9v5.998h3V32h8v-3.99864h3v-5.998h1.963c.024-.32889.037-.66178.037-.99966 0-4.55643-2.268-8.4651-5.5-10.13354zM12 6.00881a4 4 0 1 1 4 3.99865 3.99932 3.99932 0 0 1-4-3.99865zM9.043 20.00407a10.03866 10.03866 0 0 1 2.141-5.50913A6.25065 6.25065 0 0 1 16 12.00678a6.24864 6.24864 0 0 1 4.814 2.48715 10.03269 10.03269 0 0 1 2.144 5.51014z"/></svg>