<svg xmlns="http://www.w3.org/2000/svg" viewBox="0 0 32 32"><path fill="#414141" d="M22.971 20.00414c-.224-3.89865-1.746-7.20951-3.881-8.86394a6.00092 6.00092 0 1 0-6.18 0c-2.135 1.65443-3.657 4.96529-3.881 8.86394L9 22.01445l-5 .024v5.99793l12.4-.035L15 32h6l1.333-3.99862H23zm-3.413 9.99655h-1.739l.661-1.88735 1.722-.043zM16 2.01035A3.99862 3.99862 0 1 1 12 6.009a3.99931 3.99931 0 0 1 4-3.99865zM6 26.03006v-1.99931l5-.028v-2.999l.025-.8857a12.02188 12.02188 0 0 1 1.885-6.0769A4.17006 4.17006 0 0 1 16 12.0069a4.17006 4.17006 0 0 1 3.09 2.0353 12.01189 12.01189 0 0 1 1.884 6.0769l.026 5.883z"/></svg>