<svg xmlns="http://www.w3.org/2000/svg" viewBox="0 0 32 32"><path fill="#414141" d="M22 6h2V4h-2.34a6 6 0 0 0-11.32 0H8v2h1.97a6 6 0 0 0 2.89 5.13C10.74 12.8 9.22 16.1 9 20l-.03 2-4.97.03V28l12.5-.03L15.1 32H21l1.33-4H23l-.03-8c-.22-3.9-1.74-7.21-3.88-8.86A6 6 0 0 0 22 6zm-6-4a4 4 0 0 1 3.46 2h-6.92A4 4 0 0 1 16 2zm3.56 28h-1.74l.66-1.89 1.72-.04zM21 20.09l.03 5.91L6 26.03V24l5-.03v-3l.03-.88A12 12 0 0 1 12.9 14a4.18 4.18 0 0 1 3.1-2.04A4.18 4.18 0 0 1 19.1 14a11.99 11.99 0 0 1 1.9 6.09zM16 10a4 4 0 0 1-4-4h8a4 4 0 0 1-4 4z"/></svg>