<svg xmlns="http://www.w3.org/2000/svg" viewBox="0 0 32 32"><path fill="#414141" d="M25 20.98a13.19 13.19 0 0 0-.09-1.46l-.05-.38a13.1 13.1 0 0 0-.26-1.38l-.01-.05a12.52 12.52 0 0 0-.42-1.3l-.13-.34a11.8 11.8 0 0 0-.57-1.2l-.02-.04a11.1 11.1 0 0 0-.7-1.08l-.2-.27a10.3 10.3 0 0 0-.81-.95l-.03-.03a9.18 9.18 0 0 0-.92-.8 6.59 6.59 0 0 0-.25-.19 8.4 8.4 0 0 0-1.03-.64 6 6 0 1 0-7 0 8.58 8.58 0 0 0-1.05.65l-.23.17a9.75 9.75 0 0 0-1.78 1.8l-.19.25a11.44 11.44 0 0 0-1.3 2.35l-.12.3a12.69 12.69 0 0 0-.7 2.76l-.04.35A13.44 13.44 0 0 0 7 21c0 .27.01.53.03.79a1.96 1.96 0 0 0 0 .22H9v6h3V32h8v-4h3v-6h1.96c.03-.32.04-.66.04-1zM16 2.02a4 4 0 1 1-4 4 4 4 0 0 1 4-4zM18 26v4h-4v-4h-3v-4h10v4z"/></svg>