<svg xmlns="http://www.w3.org/2000/svg" viewBox="0 0 32 32"><path fill="#414141" d="M19.5 10.86719a5.99083 5.99083 0 0 0 2.5-4.863h2v-1.9998h-2.342a6.00021 6.00021 0 0 0-11.316 0H8v1.99976h2a5.98965 5.98965 0 0 0 2.5 4.86206C9.269 12.535 7 16.44434 7 21.00171c0 .33789.011.67078.036.99975H9v5.99915h3V32h8v-3.99939h3v-5.99915h1.963c.024-.33.037-.66284.037-.99975 0-4.55737-2.269-8.46571-5.5-10.13452zM16 2.00464a3.99993 3.99993 0 0 1 3.463 1.99975h-6.926A3.99993 3.99993 0 0 1 16 2.00464zm-4 3.99951h8a4 4 0 0 1-8 0zM21 20.002v5.999h-3v3.99926h-4V26.001h-3v-5.999H9.044a10.052 10.052 0 0 1 2.141-5.51123A6.25263 6.25263 0 0 1 16 12.00317a6.2483 6.2483 0 0 1 4.816 2.48755 10.04357 10.04357 0 0 1 2.142 5.51128z"/></svg>