<svg xmlns="http://www.w3.org/2000/svg" viewBox="0 0 32 32"><path fill="#414141" d="M22 6.00281h2V4.003h-2.342a6.00021 6.00021 0 0 0-11.315 0H8v1.99981h1.9654a6.00233 6.00233 0 0 0 2.89322 5.12856C10.73593 12.78526 9.22271 16.096 9 19.99343l-.02883 2.00765L4 22.02507v5.97536l12.50315-.03327L15.09151 32H21l1.333-3.99957H23l-.029-7.99913c-.224-3.89958-1.746-7.21122-3.881-8.866A5.99924 5.99924 0 0 0 22 6.00281zm-6-3.99957A4.00008 4.00008 0 0 1 19.464 4.003h-6.927A4.0001 4.0001 0 0 1 16 2.00324zm3.559 27.997h-1.74l.661-1.8878 1.722-.043zM21 20.08529l.02605 5.91536L6 26.029v-2.02813l5-.028v-2.99968l.02506-.8859A11.99866 11.99866 0 0 1 12.915 14.009a4.18445 4.18445 0 0 1 3.098-2.03483 4.18345 4.18345 0 0 1 3.09809 2.03283A11.98861 11.98861 0 0 1 21 20.08529zm-5-10.08291a3.99979 3.99979 0 0 1-4-3.99957h8a4.00478 4.00478 0 0 1-4 3.99957z"/></svg>