<svg xmlns="http://www.w3.org/2000/svg" viewBox="0 0 32 32"><path fill="#414141" d="M22 6.01h2v-2h-2.34a6 6 0 0 0-11.32 0H8v2h2a6 6 0 0 0 2.9 5.13l-.05.05a8 8 0 0 0-1.4 1.46l-.06.1q-.28.37-.53.8l-.1.19q-.26.44-.48.93l-.04.08q-.24.55-.44 1.13l-.05.17q-.16.5-.28 1l-.08.33-.19 1-.04.27q-.09.65-.13 1.31v.2L9 21l.01.35v.67l-5 .02v6L16.4 28 15 32h6l1.32-4H23l-.02-6.23a16 16 0 0 0 0-1.63V20l-.01-.05a17 17 0 0 0-.13-1.29l-.06-.32q-.07-.48-.17-.94l-.09-.36q-.12-.49-.26-.95l-.07-.22q-.2-.57-.43-1.1l-.06-.13q-.21-.46-.45-.89l-.12-.2q-.24-.42-.5-.8l-.09-.1a8 8 0 0 0-1.4-1.46l-.05-.05a6 6 0 0 0 2.9-5.13zm-6-4a4 4 0 0 1 3.45 2h-6.9a4 4 0 0 1 3.45-2m3.56 28h-1.74l.66-1.9 1.72-.04zm1.42-8 .02 4-15 .02v-2l5-.03v-2zM16 10a4 4 0 0 1-4-4h8a4 4 0 0 1-4 4"/></svg>