<svg xmlns="http://www.w3.org/2000/svg" viewBox="0 0 32 32"><path fill="#414141" d="M24.9 19.5q0-.17-.04-.34a13 13 0 0 0-.7-2.76l-.12-.31a11 11 0 0 0-1.3-2.34l-.18-.25a10 10 0 0 0-1.78-1.8l-.24-.18a8 8 0 0 0-1.04-.65 6 6 0 0 0 2.49-4.85H24v-2h-2.34a6 6 0 0 0-11.32 0H8v2h2a6 6 0 0 0 2.5 4.85 8 8 0 0 0-1.04.65l-.24.18a10 10 0 0 0-1.78 1.79l-.19.25a11 11 0 0 0-.71 1.1 12 12 0 0 0-.58 1.23l-.12.32a12 12 0 0 0-.43 1.32v.02a13 13 0 0 0-.27 1.4l-.05.38A14 14 0 0 0 7 20.99V21q0 .5.04 1H12v10h8V22h4.96q.04-.49.04-1a13 13 0 0 0-.1-1.5M16 2.03a4 4 0 0 1 3.44 2h-6.89a4 4 0 0 1 3.45-2M18 30h-4v-8h4zm-2-19.99a4 4 0 0 1-4-4h8a4 4 0 0 1-4 4"/></svg>