<svg xmlns="http://www.w3.org/2000/svg" viewBox="0 0 32 32"><path fill="#414141" d="M21.67 22h1.3a14.99 14.99 0 0 0-.04-2.49l-.02-.22c-.05-.48-.11-.94-.2-1.4a13.74 13.74 0 0 0-.33-1.41l-.02-.07a13.55 13.55 0 0 0-.45-1.28v-.01a9.45 9.45 0 0 0-2.82-3.98A5.99 5.99 0 0 0 22 6.01h2v-2h-2.34a6 6 0 0 0-11.32 0H8v2h2a5.98 5.98 0 0 0 2.92 5.13l-.03.03a7.84 7.84 0 0 0-1.54 1.64l-.05.06a11.25 11.25 0 0 0-1.2 2.21 13.78 13.78 0 0 0-.44 1.26l-.05.18c-.12.43-.23.87-.31 1.33l-.03.17c-.07.4-.13.8-.17 1.2l-.03.36c-.04.47-.07.94-.07 1.43l.01.47c0 .18 0 .35.02.53h1.3L7 32h6l3-9 3 9h6zM16 2.01a3.98 3.98 0 0 1 3.44 2h-6.89a3.98 3.98 0 0 1 3.45-2zm-4.44 28H9.77l2.46-7.37.21-.64h1.78zM12 6h8a4 4 0 0 1-8 0zm5.78 16h1.78l2.66 8h-1.78z"/></svg>