<svg xmlns="http://www.w3.org/2000/svg" viewBox="0 0 32 32"><path fill="#414141" d="M22 6h2V4h-2.34a6 6 0 0 0-11.32 0H8v2h2a6 6 0 0 0 2.92 5.14C10.6 12.93 9 16.67 9 21q0 .5.03 1L4 22.03V28l10.08-.03 1.96-5.22 1.12 3.35-2.07 5.9H21l1.97-6.1-1.3-3.9h1.3q.03-.5.03-1c0-4.33-1.6-8.07-3.92-9.86A6 6 0 0 0 22 6m-6-4a4 4 0 0 1 3.46 2h-6.92A4 4 0 0 1 16 2m3.54 28h-1.72l1.12-3.2.22-.64-.21-.65-1.17-3.5h1.78l1.3 3.9zm-.3-15.65A12 12 0 0 1 20.92 20h-6.08l-.49 1.3L12.6 26l-6.6.03V24l5-.02-.01-3.2a12.5 12.5 0 0 1 1.73-6.42c1.27-1.98 2.59-2.28 3.26-2.28s1.99.29 3.25 2.27zM16 10a4 4 0 0 1-4-4h8a4 4 0 0 1-4 4"/></svg>