<svg xmlns="http://www.w3.org/2000/svg" viewBox="0 0 32 32"><path fill="#414141" d="M22 6.01h2v-2h-2.34a6 6 0 0 0-11.32 0H8v2h2a5.98 5.98 0 0 0 2.92 5.13C10.6 12.94 9 16.67 9 21c0 .34.01.67.03 1l-4.56.04H4v6L14 28l.17-.46 1.77-4.71 1.1 3.32L15 32h6l1.97-6.1-1.3-3.9h1.3c.02-.33.03-.66.03-1 0-4.33-1.6-8.06-3.92-9.86A5.99 5.99 0 0 0 22 6.01zm-6-4a3.98 3.98 0 0 1 3.44 2h-6.89a3.98 3.98 0 0 1 3.45-2zm3.26 12.3a12.34 12.34 0 0 1 1.7 5.7h-9.94a12.72 12.72 0 0 1 1.72-5.7C14 12.3 15.33 12 16 12s1.99.3 3.26 2.3zM16 10a4 4 0 0 1-4-4h8a4 4 0 0 1-4 4z"/></svg>