<svg xmlns="http://www.w3.org/2000/svg" viewBox="0 0 32 32"><path fill="#414141" d="M21.67 4.01a6 6 0 0 0-11.33 0H8v2h2a6 6 0 0 0 2.92 5.13v.01a8 8 0 0 0-1.58 1.67l-.02.03a11 11 0 0 0-1.21 2.24l-.04.1q-.22.56-.4 1.15l-.06.18q-.18.64-.32 1.33l-.02.17q-.1.59-.17 1.2l-.04.35q-.06.7-.06 1.44l.01.47.02.53-5.03.03V28l10.09-.03 1.96-5.22 1.11 3.35L15.1 32H21l1.97-6.1-1.3-3.9h1.3l.03-.86v-.19q0-.69-.06-1.36l-.04-.4q-.06-.57-.16-1.13l-.04-.23a16 16 0 0 0-.3-1.3l-.08-.22q-.16-.56-.37-1.09l-.06-.15a11 11 0 0 0-1.19-2.2l-.04-.06a8 8 0 0 0-1.56-1.66A6 6 0 0 0 22 6h2V4zm-5.67-2a4 4 0 0 1 3.44 2h-6.89a4 4 0 0 1 3.45-2m-3.4 24-6.6.01V24l5-.02-.01-1.97h3.1zm6.96-4 1.3 3.9-1.32 4.1h-1.72l1.12-3.2.22-.65-.21-.64L17.78 22zM16 10a4 4 0 0 1-4-4h8a4 4 0 0 1-4 4"/></svg>