<svg xmlns="http://www.w3.org/2000/svg" viewBox="0 0 32 32"><path fill="#414141" d="M21.67 22h1.3q.03-.49.03-1 0-.75-.07-1.49l-.02-.22q-.07-.72-.2-1.4a14 14 0 0 0-.33-1.41l-.02-.07a14 14 0 0 0-.45-1.28v-.01a9.5 9.5 0 0 0-2.82-3.98 6 6 0 1 0-6.17 0l-.03.03a8 8 0 0 0-1.54 1.64l-.05.06a11 11 0 0 0-1.2 2.21 14 14 0 0 0-.44 1.26l-.05.18q-.19.64-.31 1.33l-.03.17q-.1.6-.17 1.2l-.03.36q-.06.7-.07 1.43l.01.47q0 .27.02.53h1.3L7 32h6l3-9 3 9h6zM12 6.01a4 4 0 1 1 4 4 4 4 0 0 1-4-4m-.44 24H9.77l2.46-7.37.21-.64h1.78zm6.21-8h1.79l2.66 8h-1.78z"/></svg>