<svg xmlns="http://www.w3.org/2000/svg" viewBox="0 0 32 32"><path fill="#414141" d="M19.5 10.87016a6.001 6.001 0 1 0-7 0C9.268 12.5386 7 16.44827 7 21.00373c0 .33588.013.66977.037.99966H12V32h8v-9.99661h4.963c.024-.32989.037-.66378.037-.99966 0-4.55546-2.268-8.46513-5.5-10.13357zm-3.5-8.86a3.99865 3.99865 0 1 1-4 3.99864 3.99932 3.99932 0 0 1 4-3.99863zm4 17.9939h-2v9.99661h-4v-9.9966H9.043a10.03559 10.03559 0 0 1 2.141-5.51113A6.25166 6.25166 0 0 1 16 12.00678a6.25065 6.25065 0 0 1 4.816 2.48816 10.02161 10.02161 0 0 1 2.141 5.50913z"/></svg>