<svg xmlns="http://www.w3.org/2000/svg" viewBox="0 0 32 32"><path fill="#414141" d="M21.67 22.00108h1.3c.019-.33.029-.66393.029-.99989 0-4.33253-1.6-8.07013-3.915-9.86293A5.99922 5.99922 0 0 0 22 6.00281h2V4.003h-2.344a6.00021 6.00021 0 0 0-11.315 0H8v1.99981h2a5.99922 5.99922 0 0 0 2.916 5.13545C10.6 12.93106 9 16.66866 9 21.00119c0 .337.01.67093.028.99989h1.305L7 32h6l3-8.999L19 32h6zM16 2.00325A4.00007 4.00007 0 0 1 19.463 4.003h-6.927A4.00005 4.00005 0 0 1 16 2.00325zm-4 3.99956h8a4 4 0 0 1-8 0zm2.9 13.99849-.455 1.36785-2.879 8.63107H9.782l2.456-7.36622.877-2.63271h-2.074a12.34477 12.34477 0 0 1 1.7-5.69939c1.27-1.99978 2.588-2.29975 3.274-2.29975s1.991.3 3.261 2.29975a12.32568 12.32568 0 0 1 1.7 5.69939zm2.876 1.99978h1.784l2.666 7.99914h-1.785z"/></svg>