<svg xmlns="http://www.w3.org/2000/svg" viewBox="0 0 32 32"><path fill="#414141" d="M21.67 22h1.3a15 15 0 0 0-.04-2.49l-.02-.22q-.07-.72-.2-1.4a14 14 0 0 0-.33-1.41l-.02-.07a14 14 0 0 0-.45-1.28v-.01a9.5 9.5 0 0 0-2.82-3.98A6 6 0 0 0 22 6.01h2v-2h-2.34a6 6 0 0 0-11.32 0H8v2h2a6 6 0 0 0 2.92 5.13l-.03.03a8 8 0 0 0-1.54 1.64l-.05.06a11 11 0 0 0-1.2 2.21 14 14 0 0 0-.44 1.26l-.05.18q-.19.64-.31 1.33l-.03.17q-.1.6-.17 1.2l-.03.36q-.06.7-.07 1.43l.01.47q0 .27.02.53h1.3L7 32h6l3-9 3 9h6zM16 2.01a4 4 0 0 1 3.44 2h-6.89a4 4 0 0 1 3.45-2m-4.44 28H9.77l2.46-7.37.21-.64h1.78zM12 6h8a4 4 0 0 1-8 0m5.78 16h1.78l2.66 8h-1.78z"/></svg>