<svg xmlns="http://www.w3.org/2000/svg" viewBox="0 0 32 32"><path fill="#414141" d="M23 21.14v-.19q0-.68-.06-1.36l-.04-.4q-.06-.57-.16-1.13l-.04-.23a16 16 0 0 0-.3-1.3l-.08-.22q-.16-.56-.37-1.08l-.06-.16a11 11 0 0 0-1.2-2.2l-.03-.06a8 8 0 0 0-1.56-1.66h-.01a6 6 0 1 0-6.17 0 8 8 0 0 0-1.58 1.67l-.02.03a11 11 0 0 0-1.21 2.23l-.04.12q-.22.55-.4 1.14l-.06.18q-.18.64-.32 1.33l-.02.17q-.1.59-.17 1.2l-.04.35Q9 20.27 9 21l.01.47q0 .27.02.53L4 22.04V28l10.09-.03 1.96-5.23 1.11 3.36L15.1 32H21l1.97-6.1-1.3-3.9h1.3zM12 6a4 4 0 1 1 4 4 4 4 0 0 1-4-4m.6 20-6.6.01V24l5-.02-.01-1.98h3.1zm8.26-.1L19.54 30h-1.72l1.12-3.2.22-.65-.21-.64L17.77 22h1.79z"/></svg>