<svg xmlns="http://www.w3.org/2000/svg" viewBox="0 0 15 16"><path fill="#414141" d="M6.046875 15.785156H3.132812L4.75 10.925781h-.632812c-.015626-.160156-.015626-.320312-.015626-.488281-.0625-.929688.09375-1.863281.457032-2.71875L.015625 5.351562l2.097656-2.027343L5.203125 4.9375C5.128906 4.84375 5.0625 4.746094 5 4.644531c-.539062-.898437-.550781-2.019531-.035156-2.933593C5.484375.796875 6.449219.234375 7.5.230469c1.117188 0 2.132812.636719 2.625 1.636719.488281 1.003906.363281 2.195312-.324219 3.074218l3.09375-1.613281 2.097657 2.027344-4.539063 2.363281c.363281.855469.519531 1.789062.453125 2.71875 0 .148438 0 .296875-.011719.488281h-.636719L11.875 15.785156H8.957031L7.5 11.410156l-1.457031 4.375Zm.867187-5.832031h1.1875l1.5625 4.859375h.867188L8.902344 9.953125h1.015625c-.042969-.914063-.296875-1.808594-.734375-2.613281l2.28125-1.203125 1.886718-1.023438-.625-.601562-1.886718.992187L8.660156 6.625c-.292968-.335938-.710937-.539062-1.15625-.558594-.449218.019532-.871094.226563-1.164062.566406l-3.28125-1.71875-.777344-.40625-.621094.601563 1.070313.570313 3.09375 1.660156c-.4375.804687-.691407 1.699218-.734375 2.613281h1.007812l-.425781 1.28125L4.480469 14.8125h.867187l1.570313-4.859375Zm.589844-8.75c-1.074218 0-1.941406.871094-1.941406 1.945313 0 1.074218.867188 1.945312 1.941406 1.945312 1.074219 0 1.945313-.871094 1.945313-1.945312 0-1.074219-.871094-1.945313-1.945313-1.945313Zm0 0"/></svg>