<svg xmlns="http://www.w3.org/2000/svg" viewBox="0 0 15 16"><path fill="#414141" d="M6.05 15.79H3.13l1.62-4.86h-.63q-.03-.23-.02-.5a6 6 0 0 1 .46-2.71L.02 5.35l2.1-2.03L5.2 4.94l-.2-.3a2.92 2.92 0 1 1 4.8.3l3.1-1.61L15 5.36l-4.55 2.36c.37.85.52 1.79.46 2.72l-.02.49h-.63l1.62 4.86H8.96L7.5 11.4zm.86-5.84h1.2l1.55 4.86h.87L8.9 9.95h1.02q-.08-1.38-.74-2.61l2.28-1.2 1.9-1.03-.63-.6-1.89 1-2.18 1.12q-.47-.52-1.16-.56c-.45.02-.87.22-1.16.56L3.06 4.91l-.78-.4-.62.6 1.07.57 3.1 1.66a6 6 0 0 0-.74 2.61h1l-.42 1.28-1.19 3.58h.87l1.57-4.86Zm.6-8.75a1.94 1.94 0 1 0 0 3.89 1.94 1.94 0 0 0 0-3.89m0 0"/></svg>