<svg xmlns="http://www.w3.org/2000/svg" viewBox="0 0 32 32"><path fill="#414141" d="M23 21.0038c0-4.33251-1.6-8.06822-3.915-9.8606a6.00091 6.00091 0 1 0-6.17 0C10.6 12.93658 9 16.67229 9 21.0038c0 .33588.01.66977.028.99965l-4.557.032H4v5.99793l10-.032.175-.46584 1.766-4.70937 1.108 3.32183L15 32h6l1.966-6.09789-1.3-3.89866h1.3c.024-.32888.034-.66277.034-.99965zM12 6.009a4 4 0 1 1 4 3.99861A3.99931 3.99931 0 0 1 12 6.009zm5 13.99516h-5.978a12.72034 12.72034 0 0 1 1.716-5.698c1.27-1.99931 2.588-2.29921 3.261-2.29921s1.991.2999 3.261 2.29921a12.33977 12.33977 0 0 1 1.7 5.698z"/></svg>