<svg xmlns="http://www.w3.org/2000/svg" viewBox="0 0 32 32"><path fill="#414141" d="M19.5 10.87193a5.98271 5.98271 0 0 0 2.494-4.861H24v-1.9991h-2.342a5.99579 5.99579 0 0 0-11.315 0H8V6.011h2a5.97971 5.97971 0 0 0 2.5 4.861C9.268 12.54022 7 16.44957 7 21.00465c0 .33586.013.66971.037.99957H12V32h8v-9.99578h4.963c.024-.32986.037-.66371.037-.99957 0-4.55508-2.268-8.46443-5.5-10.13272zM16 2.01267a3.98232 3.98232 0 0 1 3.445 1.99916h-6.89A3.98232 3.98232 0 0 1 16 2.01267zM12 6.011h8a4 4 0 0 1-8 0zM9.043 20.00507a10.03334 10.03334 0 0 1 2.141-5.51067A6.25282 6.25282 0 0 1 16 12.00845a6.25084 6.25084 0 0 1 4.816 2.48795 10.0273 10.0273 0 0 1 2.141 5.50867z"/></svg>