<svg xmlns="http://www.w3.org/2000/svg" viewBox="0 0 32 32"><path fill="#414141" d="M25 21.01a13 13 0 0 0-.1-1.5q0-.18-.04-.35a13 13 0 0 0-.7-2.76l-.08-.22a11 11 0 0 0-1.25-2.3l-.27-.38a10 10 0 0 0-1.78-1.8l-.24-.17a8 8 0 0 0-1.04-.65 6 6 0 1 0-7 0 8 8 0 0 0-1.04.64l-.59.46a9 9 0 0 0-1.35 1.41l-.27.36a11 11 0 0 0-.71 1.1 12 12 0 0 0-.58 1.22l-.13.33a13 13 0 0 0-.42 1.31v.03a13 13 0 0 0-.27 1.4l-.05.37A14 14 0 0 0 7 21v.02q0 .5.04 1H12V32h8V22h4.96q.04-.48.04-.99M12.16 6.02a4 4 0 1 1 4 4 4 4 0 0 1-4-4M18 30h-4v-8h4z"/></svg>