<svg xmlns="http://www.w3.org/2000/svg" viewBox="0 0 32 32"><path fill="#414141" d="m25 32-3.333-9.99655h1.3c.019-.32888.029-.66277.029-.99965 0-4.33251-1.6-8.06822-3.915-9.8606a6.00091 6.00091 0 1 0-6.17 0C10.6 12.93658 9 16.67229 9 21.0038c0 .33588.01.66977.028.99965h1.305L7 32h6l3-8.99689L19 32zM12 6.009a4 4 0 1 1 4 3.99861A3.99931 3.99931 0 0 1 12 6.009zm-.967 13.99516a12.32767 12.32767 0 0 1 1.7-5.698c1.27-1.99931 2.588-2.29921 3.261-2.29921s1.991.2999 3.261 2.29921a12.33953 12.33953 0 0 1 1.7 5.698z"/></svg>