<svg xmlns="http://www.w3.org/2000/svg" viewBox="0 0 32 32"><path fill="#414141" d="M23 21c0-4.32-1.6-8.06-3.92-9.85a6 6 0 1 0-6.16 0C10.6 12.95 9 16.68 9 21.01q0 .5.03 1L4 22.04V28l10.09-.03 1.96-5.22 1.11 3.35L15.1 32H21l1.97-6.1-1.3-3.9h1.3q.03-.49.03-1M12 6.03a4 4 0 1 1 4 4 4 4 0 0 1-4-4m2.85 13.99-.49 1.3L12.6 26l-6.6.01V24l5-.03-.01-3.2a12.7 12.7 0 0 1 1.74-6.46c1.26-2 2.58-2.3 3.25-2.3.68 0 2 .3 3.26 2.3a12 12 0 0 1 1.7 5.69zm6.01 5.9-1.32 4.1h-1.72l1.12-3.2.22-.64-.21-.65L17.77 22h1.79z"/></svg>