<svg xmlns="http://www.w3.org/2000/svg" viewBox="0 0 32 32"><path fill="#414141" d="m25 32-3.333-9.99655h1.3c.019-.32888.029-.66277.029-.99965 0-4.33251-1.6-8.06822-3.915-9.8606a6.00091 6.00091 0 1 0-6.17 0C10.6 12.93658 9 16.67229 9 21.0038c0 .33588.01.66977.028.99965h1.305L7 32h6l3-8.99689L19 32zm-2.775-1.99931h-1.783l-2.667-7.99724h1.784zM12 6.009a4 4 0 1 1 4 3.99861A3.99931 3.99931 0 0 1 12 6.009zm2.891 13.99516-.456 1.36753-2.877 8.629H9.774l2.456-7.36446.878-2.63209h-2.075a12.33255 12.33255 0 0 1 1.7-5.698c1.27-1.99931 2.588-2.29921 3.261-2.29921s1.991.2999 3.261 2.29921a12.34055 12.34055 0 0 1 1.7 5.698z"/></svg>