<svg xmlns="http://www.w3.org/2000/svg" viewBox="0 0 32 32"><path fill="#414141" d="M23 21.14v-.19c0-.46-.03-.9-.06-1.36l-.04-.4q-.06-.57-.16-1.13l-.04-.23a15.5 15.5 0 0 0-.3-1.3l-.08-.22q-.16-.56-.37-1.08l-.06-.16a11.27 11.27 0 0 0-1.2-2.2l-.03-.06a7.8 7.8 0 0 0-1.56-1.66h-.01a6 6 0 1 0-6.17 0 7.85 7.85 0 0 0-1.58 1.67l-.02.03a11.24 11.24 0 0 0-1.21 2.23l-.04.12c-.15.36-.28.75-.4 1.14l-.06.18c-.12.43-.23.87-.32 1.33l-.02.17c-.07.39-.13.79-.17 1.2l-.04.35c-.04.47-.06.95-.06 1.43l.01.47c0 .18 0 .36.02.53L4 22.04V28l10.09-.03 1.96-5.23 1.11 3.36L15.1 32H21l1.97-6.1-1.3-3.9h1.3c.02-.28.02-.57.03-.86zM12 6a4 4 0 1 1 4 4 4 4 0 0 1-4-4zm.6 20-6.6.01V24l5-.02-.01-1.98h3.1zm8.26-.1L19.54 30h-1.72l1.12-3.2.22-.65-.21-.64L17.77 22h1.79z"/></svg>