<svg xmlns="http://www.w3.org/2000/svg" viewBox="0 0 32 32"><path fill="#414141" d="M25 21.01a13.4 13.4 0 0 0-.1-1.5c0-.12-.02-.23-.04-.35a12.69 12.69 0 0 0-.7-2.76l-.08-.22a11.04 11.04 0 0 0-1.25-2.3l-.27-.38a9.7 9.7 0 0 0-1.78-1.8 7.7 7.7 0 0 0-.24-.17 8.33 8.33 0 0 0-1.04-.65 6 6 0 1 0-7 0 8.41 8.41 0 0 0-1.04.64l-.59.46a8.83 8.83 0 0 0-1.35 1.41l-.27.36a11.25 11.25 0 0 0-.71 1.1 11.92 11.92 0 0 0-.58 1.22l-.13.33a12.5 12.5 0 0 0-.42 1.31v.03a12.86 12.86 0 0 0-.27 1.4l-.05.37A13.6 13.6 0 0 0 7 21v.02c0 .34.01.67.04 1H12V32h8V22h4.96c.03-.32.04-.65.04-.99zM12.16 6.02a4 4 0 1 1 4 4 4 4 0 0 1-4-4zM18 30h-4v-8h4z"/></svg>