<svg xmlns="http://www.w3.org/2000/svg" viewBox="0 0 32 32"><path fill="#414141" d="M24.9 19.5c0-.11-.02-.23-.04-.34a12.7 12.7 0 0 0-.7-2.76l-.12-.31a11.37 11.37 0 0 0-1.3-2.34 9.5 9.5 0 0 0-.18-.25 9.73 9.73 0 0 0-1.78-1.8 7.64 7.64 0 0 0-.24-.18 8.36 8.36 0 0 0-1.04-.65 5.98 5.98 0 0 0 2.49-4.85H24v-2h-2.34a6 6 0 0 0-11.32 0H8v2h2a5.98 5.98 0 0 0 2.5 4.85 8.44 8.44 0 0 0-1.04.65 8.5 8.5 0 0 0-.24.18 9.73 9.73 0 0 0-1.78 1.79l-.19.25a11.27 11.27 0 0 0-.71 1.1 11.96 11.96 0 0 0-.58 1.23l-.12.32a12.4 12.4 0 0 0-.43 1.32v.02a12.77 12.77 0 0 0-.27 1.4l-.05.38A13.58 13.58 0 0 0 7 20.99V21c0 .33.01.67.04 1H12v10h8V22h4.96c.03-.32.04-.66.04-1a13.42 13.42 0 0 0-.1-1.5zM16 2.03a3.98 3.98 0 0 1 3.44 2h-6.89a3.98 3.98 0 0 1 3.45-2zM18 30h-4v-8h4zm-2-19.99a4 4 0 0 1-4-4h8a4 4 0 0 1-4 4z"/></svg>