<svg xmlns="http://www.w3.org/2000/svg" viewBox="0 0 32 32"><path fill="#414141" d="M19.49992 10.864A5.9887 5.9887 0 0 0 22.0003 6H24V4h-2.342a6 6 0 0 0-11.316 0H8v2h2.0003a5.98772 5.98772 0 0 0 2.50039 4.862C9.26819 12.531 6.99985 16.442 6.99985 21c0 .336.013.67.037 1H12v10h8V22h4.96376c.024-.33.037-.664.037-1 0-4.556-2.26834-8.467-5.50084-10.136zM16 2.0003A4.00012 4.00012 0 0 1 19.463 4h-6.926A4.00012 4.00012 0 0 1 16 2.0003zM12 6h8a4 4 0 0 1-8 0zm6 14v10h-4V20H9.043a10.04 10.04 0 0 1 2.141-5.513A6.253 6.253 0 0 1 16 12a6.25 6.25 0 0 1 4.816 2.489A10.034 10.034 0 0 1 22.957 20z"/></svg>