<svg xmlns="http://www.w3.org/2000/svg" viewBox="0 0 32 32"><path fill="#414141" d="M22 6.00281h2V4.003h-2.343a6.00021 6.00021 0 0 0-11.315 0H8v1.99981h2a5.99924 5.99924 0 0 0 2.915 5.13345C10.6 12.92906 9 16.66666 9 21.00119c0 .337.01.67093.028.99989l-5.028.033v5.96635l10.08319-.03327 1.95715-5.22152 1.11721 3.3523L15.09151 32H21l1.971-6.09934-1.3-3.89958h1.3c.019-.33.029-.66393.029-.99989 0-4.33253-1.6-8.07013-3.915-9.86293A5.99923 5.99923 0 0 0 22 6.00281zm-6-3.99956A4.00005 4.00005 0 0 1 19.464 4.003h-6.926A4.00008 4.00008 0 0 1 16 2.00325zm3.542 27.997H17.82l1.117-3.19266.226-.64493-.216-.64893-1.169-3.51262h1.784l1.3 3.90758zm-.30811-15.64887a12.18367 12.18367 0 0 1 1.69627 5.65h-6.0819l-.48619 1.29762-1.76007 4.70165L6 26.02561v-2.02474l5-.02479-.011-3.19469a12.54445 12.54445 0 0 1 1.73519-6.42013c1.26721-1.98244 2.58232-2.2798 3.25783-2.2798s1.98563.28844 3.25284 2.27088zM16 10.00238a3.99979 3.99979 0 0 1-4-3.99957h8a3.99979 3.99979 0 0 1-4 3.99957z"/></svg>