<svg xmlns="http://www.w3.org/2000/svg" viewBox="0 0 32 32"><path fill="#414141" d="M24.907 19.50751c-.013-.11793-.027-.23386-.044-.35079a12.70462 12.70462 0 0 0-.7-2.76034c-.039-.09994-.079-.19988-.121-.30681a11.37416 11.37416 0 0 0-1.3-2.34359c-.061-.08495-.122-.1679-.185-.24985a9.73076 9.73076 0 0 0-1.782-1.79892c-.079-.061-.158-.11993-.238-.17689a8.35725 8.35725 0 0 0-1.041-.65061 5.9783 5.9783 0 0 0 2.494-4.85409H24V4.01683h-2.344a5.99612 5.99612 0 0 0-11.319 0H8v1.99879h2a5.97832 5.97832 0 0 0 2.5 4.85409 8.43719 8.43719 0 0 0-1.039.64861c-.082.059-.162.11892-.242.18089a9.733 9.733 0 0 0-1.776 1.78792c-.065.08495-.129.1699-.192.25785a11.26532 11.26532 0 0 0-.711 1.09933 11.96326 11.96326 0 0 0-.576 1.22327c-.044.10693-.087.21487-.128.3238a12.39883 12.39883 0 0 0-.425 1.31721l-.006.025a12.77362 12.77362 0 0 0-.264 1.39915c-.018.12493-.033.24886-.047.37478A13.58362 13.58362 0 0 0 7 20.98862v.018c0 .3358.013.6696.037.9994H12V32h8v-9.994h4.964c.024-.3288.036-.6626.036-.9994a13.42039 13.42039 0 0 0-.093-1.49909zM16 2.018a3.9824 3.9824 0 0 1 3.445 1.9988h-6.89A3.9824 3.9824 0 0 1 16 2.018zm2 27.9832h-4V22.006h4zm-2-19.988a3.9988 3.9988 0 0 1-4-3.9976h8a3.9988 3.9988 0 0 1-4 3.99762z"/></svg>