<svg xmlns="http://www.w3.org/2000/svg" viewBox="0 0 32 32"><path fill="#414141" d="M21.67 22h1.3q.03-.49.03-1c0-.5-.03-1-.07-1.49l-.02-.22c-.05-.48-.11-.95-.2-1.4a13.74 13.74 0 0 0-.33-1.41l-.02-.07a13.58 13.58 0 0 0-.45-1.28v-.01a9.45 9.45 0 0 0-2.82-3.98 6 6 0 1 0-6.17 0l-.03.03a7.86 7.86 0 0 0-1.54 1.64l-.05.06a11.24 11.24 0 0 0-1.2 2.21 13.78 13.78 0 0 0-.44 1.26l-.05.18c-.12.43-.23.87-.31 1.33l-.03.17c-.07.4-.13.8-.17 1.2l-.03.36c-.04.47-.07.94-.07 1.43l.01.47c0 .18 0 .35.02.53h1.3L7 32h6l3-9 3 9h6zM12 6.01a4 4 0 1 1 4 4 4 4 0 0 1-4-4zm-.44 24H9.77l2.46-7.37.21-.64h1.78zm6.21-8h1.79l2.66 8h-1.78z"/></svg>