<svg xmlns:xlink="http://www.w3.org/1999/xlink" xmlns="http://www.w3.org/2000/svg" width="845.589" height="498.26" viewBox="0 0 845.589 498.26">
  <defs>
    <clipPath id="clip-path">
      <path id="Path_88475" data-name="Path 88475" d="M296.891,1.168c163.08-5.931,294.564,11.311,293.677,38.51S456.762,93.734,293.682,99.665-.882,88.354,0,61.155,133.811,7.1,296.891,1.168Z" transform="translate(0 112.687) rotate(-11)" fill="#fff"/>
    </clipPath>
    <clipPath id="clip-path-2">
      <rect id="Rectangle_13519" data-name="Rectangle 13519" width="1047.005" height="527.177" fill="none"/>
    </clipPath>
    <clipPath id="clip-path-4">
      <path id="Path_88477" data-name="Path 88477" d="M124.819.491C193.382-2,248.66,5.246,248.288,16.682S192.032,39.408,123.47,41.9-.371,37.146,0,25.711,56.257,2.984,124.819.491Z" transform="translate(0 47.376) rotate(-11)" fill="#fff"/>
    </clipPath>
    <clipPath id="clip-path-5">
      <rect id="Rectangle_13519-2" data-name="Rectangle 13519" width="440.184" height="221.636" fill="none"/>
    </clipPath>
    <clipPath id="clip-path-7">
      <circle id="Ellipse_1337" data-name="Ellipse 1337" cx="64.7" cy="64.7" r="64.7" transform="translate(49.317 0)" fill="#ededed"/>
    </clipPath>
    <clipPath id="clip-path-8">
      <rect id="Rectangle_13519-3" data-name="Rectangle 13519" width="1263.6" height="564.4" fill="none"/>
    </clipPath>
    <clipPath id="clip-path-8">
      <rect id="Rectangle_13519-3" data-name="Rectangle 13519" width="1263.6" height="564.4" fill="none"/>
    </clipPath>
  </defs>
  <g id="_404" data-name="404" transform="translate(-514.389 -277.563)">
    <g id="Elements">
      <g id="Plus" transform="matrix(0.999, 0.035, -0.035, 0.999, 1190.453, 376.218)">
        <path id="Path_88123" data-name="Path 88123" d="M0,0H17.724" transform="translate(0 8.862)" fill="none" stroke="#ffa803" stroke-linecap="round" stroke-width="2"/>
        <path id="Path_88124" data-name="Path 88124" d="M0,0H17.724" transform="translate(8.862 17.724) rotate(-90)" fill="none" stroke="#ffa803" stroke-linecap="round" stroke-width="2"/>
      </g>
      <g id="Plus-2" data-name="Plus" transform="translate(834.503 743.4)">
        <path id="Path_88123-2" data-name="Path 88123" d="M693.276-6486.255h23.8" transform="translate(-693.276 6498.157)" fill="none" stroke="#ffa803" stroke-linecap="round" stroke-width="2"/>
        <path id="Path_88124-2" data-name="Path 88124" d="M0,0H23.8" transform="translate(11.902 23.804) rotate(-90)" fill="none" stroke="#ffa803" stroke-linecap="round" stroke-width="2"/>
      </g>
      <g id="Ellipse_1321" data-name="Ellipse 1321" transform="translate(1339.009 745.046)" fill="none" stroke="#ccced0" stroke-width="2">
        <ellipse cx="10.484" cy="10.484" rx="10.484" ry="10.484" stroke="none"/>
        <ellipse cx="10.484" cy="10.484" rx="9.484" ry="9.484" fill="none"/>
      </g>
      <g id="Ellipse_1346" data-name="Ellipse 1346" transform="translate(642.964 540)" fill="none" stroke="#ccced0" stroke-width="1">
        <ellipse cx="18.518" cy="18.518" rx="18.518" ry="18.518" stroke="none"/>
        <ellipse cx="18.518" cy="18.518" rx="18.018" ry="18.018" fill="none"/>
      </g>
      <g id="Plus-3" data-name="Plus" transform="translate(584.364 738.981)">
        <path id="Path_88123-3" data-name="Path 88123" d="M693.276-6486.255h7.96" transform="translate(-693.276 6490.235)" fill="none" stroke="#999" stroke-linecap="round" stroke-width="2"/>
        <path id="Path_88124-3" data-name="Path 88124" d="M0,0H7.96" transform="translate(3.98 7.96) rotate(-90)" fill="none" stroke="#999" stroke-linecap="round" stroke-width="2"/>
      </g>
      <g id="Plus-4" data-name="Plus" transform="translate(1163.296 592.322)">
        <path id="Path_88123-4" data-name="Path 88123" d="M693.276-6486.255h7.96" transform="translate(-693.276 6490.235)" fill="none" stroke="#999" stroke-linecap="round" stroke-width="2"/>
        <path id="Path_88124-4" data-name="Path 88124" d="M0,0H7.96" transform="translate(3.98 7.96) rotate(-90)" fill="none" stroke="#999" stroke-linecap="round" stroke-width="2"/>
      </g>
      <g id="Plus-5" data-name="Plus" transform="translate(980.04 390.636)">
        <path id="Path_88123-5" data-name="Path 88123" d="M693.276-6486.255h7.96" transform="translate(-693.276 6490.235)" fill="none" stroke="#fff" stroke-linecap="round" stroke-width="2"/>
        <path id="Path_88124-5" data-name="Path 88124" d="M0,0H7.96" transform="translate(3.98 7.96) rotate(-90)" fill="none" stroke="#fff" stroke-linecap="round" stroke-width="2"/>
      </g>
    </g>
    <g id="SPACESHIP_s" transform="matrix(0.899, 0.438, -0.438, 0.899, 1231.92, 565.645)">
      <path id="spaceship_1_" d="M59.581,122.172l-1.473-2.556c4.7-26.891-34.2-49.343-55.153-31.782H0V68.791a1.476,1.476,0,0,1,1.477-1.477h20.9L32.34,45.28A68.847,68.847,0,0,1,60.82,13.843L83.235.9a6.661,6.661,0,0,1,9.987,5.773V32.549a68.859,68.859,0,0,1-13,40.378l-14.1,19.65,10.442,18.09a1.474,1.474,0,0,1-.542,2.015Z" transform="translate(0 33.408) rotate(-21)" fill="#e8e8e8"/>
      <g id="Group_33209" data-name="Group 33209" transform="translate(30.964 105.696) rotate(-39)">
        <path id="Path_88120" data-name="Path 88120" d="M0,32.308,20.1,0" transform="matrix(0.966, 0.259, -0.259, 0.966, 25.7, 0)" fill="none" stroke="#999" stroke-linecap="round" stroke-width="1"/>
        <path id="Path_88122" data-name="Path 88122" d="M0,32.308,20.1,0" transform="matrix(0.966, 0.259, -0.259, 0.966, 23.804, 17.337)" fill="none" stroke="#999" stroke-linecap="round" stroke-width="1"/>
        <path id="Path_88121" data-name="Path 88121" d="M0,32.308,20.1,0" transform="matrix(0.966, 0.259, -0.259, 0.966, 8.362, 1.896)" fill="none" stroke="#999" stroke-linecap="round" stroke-width="1"/>
      </g>
    </g>
    <g id="SPACESHIP_L" transform="translate(0 12.341)">
      <g id="Mask_Group_18982" data-name="Mask Group 18982" transform="translate(656.528 504.767) rotate(-7)" clip-path="url(#clip-path)">
        <g id="BG_Texture" transform="translate(-58.51 -329.968)">
          <g id="Group_33212" data-name="Group 33212" transform="translate(0 163.788) rotate(-9)" opacity="0.2" clip-path="url(#clip-path-2)">
            <g id="Group_33211" data-name="Group 33211">
            </g>
          </g>
        </g>
      </g>
      <path id="Path_88476" data-name="Path 88476" d="M312.514,1.4c171.7-7.4,310.158,15.152,309.26,50.365s-140.813,69.754-312.51,77.151S-.893,113.768,0,78.556,140.817,8.8,312.514,1.4Z" transform="matrix(0.956, -0.292, 0.292, 0.956, 637.629, 578.498)" fill="#fff" opacity="0.65"/>
      <g id="Mask_Group_18983" data-name="Mask Group 18983" transform="translate(782.036 479.988) rotate(-7)" clip-path="url(#clip-path-4)">
        <g id="BG_Texture-2" data-name="BG_Texture" transform="translate(-24.599 -138.726)">
          <g id="Group_33212-2" data-name="Group 33212" transform="translate(0 68.86) rotate(-9)" opacity="0.2" clip-path="url(#clip-path-5)">
            <g id="Group_33211-2" data-name="Group 33211">
            </g>
          </g>
        </g>
      </g>
      <path id="Path_88478" data-name="Path 88478" d="M131.388.591c72.185-3.11,130.4,6.37,130.02,21.175S202.207,51.091,130.021,54.2-.375,47.83,0,33.026,59.2,3.7,131.388.591Z" transform="matrix(0.956, -0.292, 0.292, 0.956, 774.091, 510.985)" fill="#fff" opacity="0.65"/>
    </g>
    <g id="PLANET_s" transform="matrix(0.643, -0.766, 0.766, 0.643, 1271.155, 315.901)">
      <circle id="Ellipse_1337-2" data-name="Ellipse 1337" cx="17.754" cy="17.754" r="17.754" transform="translate(13.532 0)" fill="#e8e8e8"/>
      <path id="Path_88287" data-name="Path 88287" d="M15.2,0S-6.911,1.243,2.2,5.885s36.86,11.349,53.344,8.636-7.012-7.978-7.012-7.978" transform="translate(3.407 3.004) rotate(13)" fill="none" stroke="#999" stroke-width="1"/>
    </g>
    <g id="PLANET_L" transform="matrix(0.99, -0.139, 0.139, 0.99, 507.144, 342.515)">
      <g id="Group_33304" data-name="Group 33304">
        <g id="Mask_Group_18981" data-name="Mask Group 18981" clip-path="url(#clip-path-7)">
          <g id="BG_Texture-3" data-name="BG_Texture" transform="translate(-73.369 -367.617) rotate(12)">
            <g id="Group_33212-3" data-name="Group 33212" opacity="0.2" clip-path="url(#clip-path-8)">
              <g id="Group_33211-3" data-name="Group 33211">
              </g>
            </g>
          </g>
        </g>
        <path id="Path_88287-2" data-name="Path 88287" d="M55.716,0S-25.335,4.287,8.077,20.3s135.129,39.156,195.56,29.8-25.706-27.524-25.706-27.524" transform="translate(10.79 12.083) rotate(13)" fill="none" stroke="#999" stroke-width="1"/>
      </g>
    </g>
    <g id="DOG_SPACE" transform="matrix(0.978, -0.208, 0.208, 0.978, 797.917, 435.267)">
      <g id="Group_33185" data-name="Group 33185" transform="matrix(0.978, -0.208, 0.208, 0.978, 0, 42.887)">
        <path id="Path_88277" data-name="Path 88277" d="M19.5,5.017S3.247-7.1.7,6.331,3.14,26.744,5.458,29.43s13.346,11.835,22.6,2.729c1.281-5.092-.372-10.967-2.264-15.7A47.629,47.629,0,0,0,19.5,5.017Z" transform="translate(47.503 264.459) rotate(5)" fill="#ffa803" stroke="#414141" stroke-linecap="round" stroke-width="2.5"/>
        <path id="Path_88275" data-name="Path 88275" d="M10.772,108.516c10.908,31.13,13.039,28.215,19.833,43.49s2.4,27.322,4.542,40.324,9.172,13.914,9.172,13.914,23.144,1.658,25.349-4.164,1.176-9.894,0-15.413-3.5-13.3,2.546-18.01,17.008-3.2,26.2-10.449,9.412-13.493,14.57-13.688,9.756,5.546,16.479,7.735,15.918,3.236,21.7,0,3.977-15.635,0-19.036-7.153-3.9-13.314-8.872-8.28-14.261-8.491-26.933-.642-12.055-1.77-25.313S87.348,0,87.348,0s-8.58,10.057-30.939,15.7S0,7.771,0,7.771Z" transform="matrix(0.998, 0.07, -0.07, 0.998, 51.81, 135.788)" fill="#ffa803" stroke="#414141" stroke-linecap="round" stroke-linejoin="round" stroke-width="2.5"/>
        <path id="Path_88278" data-name="Path 88278" d="M1.154,10.51S-4.881,43,10.655,45.443s26.942-.408,25.933-9.46-2.376-17.367-2.376-17.367-6.124-9.328-12.31-7.13-9.433,1.573-9.981,0S7.855-.4,4.438.012,1.154,10.51,1.154,10.51Z" transform="translate(73.036 299.838)" fill="#f0f0f0"/>
        <path id="Path_88280" data-name="Path 88280" d="M16.046,0a22.743,22.743,0,0,0,10.48,18.188C37.279,25.388,37.2,28.5,37.2,28.5s3.618,15.467-7.323,16.108S12.1,43.1,4.391,37.161,1.1,31.869,2.9,27.126s9.34.339,8.667-8.938S16.046,0,16.046,0Z" transform="translate(158.378 254.668)" fill="#f0f0f0"/>
        <g id="Group_33184" data-name="Group 33184" transform="matrix(1, 0, 0, 1, 190.864, 289.096)">
          <line id="Line_18560" data-name="Line 18560" y2="7.723" transform="translate(0 0)" fill="none" stroke="#414141" stroke-linecap="round" stroke-width="2.5"/>
        </g>
        <path id="Path_88279" data-name="Path 88279" d="M9.766,108.516c10.908,31.13,13.039,28.215,19.833,43.49s2.4,27.322,4.542,40.324,9.172,13.914,9.172,13.914,23.144,1.658,25.349-4.164,1.176-9.894,0-15.413-3.5-13.3,2.546-18.01,17.008-3.2,26.2-10.449,9.412-13.493,14.57-13.688,9.756,5.546,16.479,7.735,15.918,3.236,21.7,0,3.977-15.635,0-19.036-7.153-3.9-13.314-8.872-8.28-14.261-8.491-26.933-.642-12.055-1.77-25.313S86.342,0,86.342,0,77.99,10.089,55.631,15.731,0,11.273,0,11.273Z" transform="matrix(0.998, 0.07, -0.07, 0.998, 52.813, 135.858)" fill="none" stroke="#414141" stroke-linecap="round" stroke-linejoin="round" stroke-width="2.5"/>
        <path id="Path_88274" data-name="Path 88274" d="M40.727,0C24.086,4.974,14.908,33.872,6.848,53.823A95.928,95.928,0,0,0,.076,92.23s.309,7.107,7.106,7.107H22.17s7.793-.231,7.662-7.107-.4-8.159,0-11.436,4.033-11.006,4.033-11.006" transform="translate(13.593 152.733) rotate(-15)" fill="#ffa803" stroke="#414141" stroke-linecap="round" stroke-width="2.5"/>
        <g id="Group_33183" data-name="Group 33183" transform="matrix(1, 0, 0, 1, 87.503, 337.527)">
          <line id="Line_18560-2" data-name="Line 18560" y2="7.723" transform="translate(0 0)" fill="none" stroke="#414141" stroke-linecap="round" stroke-width="2.5"/>
          <line id="Line_18562" data-name="Line 18562" y2="7.723" transform="translate(9.929 0)" fill="none" stroke="#414141" stroke-linecap="round" stroke-width="2.5"/>
        </g>
        <path id="Path_88273" data-name="Path 88273" d="M3.081,63.547s3.628,7.729,4.033,11.007.132,4.561,0,11.436S14.776,93.1,14.776,93.1s9.429-.206,14.988,0,6.226-3.154,7.106-7.107S35.14,68.4,33.7,52.985,30.008,31.624,24.04,18.532,18.394,3.231,12.358.211C8.662-1.639,3.041,9.3,0,8.064" transform="matrix(0.891, -0.454, 0.454, 0.891, 122.849, 132.724)" fill="#ffa803" stroke="#414141" stroke-linecap="round" stroke-width="2.5"/>
        <path id="Path_88281" data-name="Path 88281" d="M.833,12c-2.583,3.463,1.576,9.154,2.586,13.853S5.62,37.066,12.3,35.8a132.264,132.264,0,0,0,15.885-4.561s6.965-.616,4.773-10.024S28.185,3.962,28.185,3.962,24.31-3.183,19.665,1.717,18.209,10.47,13.751,12,3.416,8.532.833,12Z" transform="translate(157.942 176.531) rotate(-11)" fill="#f0f0f0"/>
        <path id="Path_88282" data-name="Path 88282" d="M31.944,11.771c2.535,3.4-1.546,8.984-2.539,13.594s-2.16,11.009-8.715,9.763A129.735,129.735,0,0,1,5.1,30.653s-6.836-.605-4.684-9.837S5.1,3.889,5.1,3.889s3.8-7.012,8.36-2.2,1.429,8.589,5.8,10.087S29.409,8.373,31.944,11.771Z" transform="translate(26.947 223.217) rotate(-31)" fill="#f0f0f0"/>
        <path id="Path_88283" data-name="Path 88283" d="M40.727,0C24.086,4.974,14.908,33.872,6.848,53.823A95.928,95.928,0,0,0,.076,92.23s.309,7.107,7.106,7.107H22.17s7.793-.231,7.662-7.107-.4-8.159,0-11.436,4.033-11.006,4.033-11.006" transform="translate(13.593 152.733) rotate(-15)" fill="none" stroke="#414141" stroke-linecap="round" stroke-width="2.5"/>
        <path id="Path_88284" data-name="Path 88284" d="M3.081,62.612s3.628,7.729,4.033,11.007.132,4.561,0,11.436,7.662,7.107,7.662,7.107,9.429-.206,14.988,0,6.226-3.154,7.106-7.107-1.264-17.041-2.7-32.457-3.691-21.361-9.659-34.453S16.326,3.249,10.29.229C6.594-1.621,3.041,8.364,0,7.129" transform="matrix(0.891, -0.454, 0.454, 0.891, 123.273, 133.557)" fill="none" stroke="#414141" stroke-linecap="round" stroke-width="2.5"/>
        <g id="Group_33180" data-name="Group 33180" transform="translate(189.549 201.649) rotate(155)">
          <line id="Line_18560-3" data-name="Line 18560" y1="7.723" transform="translate(0 0)" fill="none" stroke="#414141" stroke-linecap="round" stroke-width="2.5"/>
          <line id="Line_18562-2" data-name="Line 18562" y1="7.723" transform="translate(9.929 0)" fill="none" stroke="#414141" stroke-linecap="round" stroke-width="2.5"/>
        </g>
        <g id="Group_33182" data-name="Group 33182" transform="translate(46.905 237.004) rotate(-15)">
          <line id="Line_18560-4" data-name="Line 18560" y2="7.723" transform="translate(0 0)" fill="none" stroke="#414141" stroke-linecap="round" stroke-width="2.5"/>
          <line id="Line_18562-3" data-name="Line 18562" y2="7.723" transform="translate(9.929 0)" fill="none" stroke="#414141" stroke-linecap="round" stroke-width="2.5"/>
        </g>
        <path id="Path_88285" data-name="Path 88285" d="M.254,11.562A49.208,49.208,0,0,0,12.137,48.61C27.055,65.44,25.828,79.32,31.54,98.329s22.5,47.309,35.4,47.655,22.124-12.989,26-22.2,11.848-23.081,4.55-36.85S78.411,55.126,81.466,42.526,79.9,5.783,58.614.939.254,11.562.254,11.562Z" transform="translate(61.226 136.036)" fill="#f0f0f0"/>
        <g id="DOG" transform="matrix(0.978, 0.208, -0.208, 0.978, 44.088, 21.731)">
          <g id="Group_33166" data-name="Group 33166" transform="translate(0 0)">
            <path id="Path_88240" data-name="Path 88240" d="M31.882,39.517l29.1-13.422S64.079.623,70.787.025,87.757,9.54,88.544,31.683c0,0,10.366,3.914,18.7,15.988s5.451,32.679-3.86,47.339S76.2,115.629,76.2,115.629s-22.123,7.075-40.788-3.193-23.282-24.661-18.1-42.47c0,0-22.391-30.651-16.254-36.988S28.817,38.77,31.882,39.517Z" transform="translate(0.315 0)" fill="#f0f0f0" stroke="#414141" stroke-linejoin="round" stroke-width="2.5"/>
            <path id="Subtraction_136" data-name="Subtraction 136" d="M59.451,118h0c.134-.218.231-.38.332-.561a33.166,33.166,0,0,0,4.436.31l.372,0C62.863,117.9,61.135,117.987,59.451,118Zm13.943-1.635h0c1.072-.322,2.207-.716,3.373-1.172a87.826,87.826,0,0,0,14.515-7.748c.427-.271.846-.549,1.246-.825A63.81,63.81,0,0,1,81.3,113.483a49.9,49.9,0,0,1-5.092,2.144l-.008,0-.009,0c-.112.035-1.142.353-2.8.735Zm-51.33-14.546h0a29.974,29.974,0,0,1-4.294-6.964,28.959,28.959,0,0,1-2.135-7.645,35.288,35.288,0,0,1-.106-8.3,49.945,49.945,0,0,1,1.79-8.941l0-.005c-.233-.321-5.761-7.952-10.425-16.112A71.317,71.317,0,0,1,1.014,41.431c-1.368-4.164-1.351-7.008.049-8.453,1.172-1.212,3.009-1.826,5.459-1.826,6.477,0,15.766,4.18,21.316,6.677l.008,0,.025.011a36.018,36.018,0,0,0,4.008,1.673l29.1-13.422v-.008a119.983,119.983,0,0,1,2.388-12.8,45.3,45.3,0,0,1,3.057-8.933C67.787,1.617,69.255.161,70.786.025c.169-.017.36-.025.569-.025A9.719,9.719,0,0,1,76.76,1.923a20.676,20.676,0,0,1,5.415,5.845c2.664,4.144,5.931,11.658,6.367,23.915a31.023,31.023,0,0,1,4.87,2.575,47.66,47.66,0,0,1,10.52,9.124A20.641,20.641,0,0,0,92.4,54.347a82.614,82.614,0,0,1-9.82,13.892,62.027,62.027,0,0,1-4.88,5.039l-3.942,7.678a10.85,10.85,0,0,0-5.836-2.265A5.2,5.2,0,0,0,63.6,80.956c-.867,1.163-2.547,2.189-4.994,3.05a43.308,43.308,0,0,1-7.28,1.738,87.182,87.182,0,0,1-9.423.963,20.577,20.577,0,0,0-19.837,15.113ZM47.4,60.044c-1.249,0-2.436.332-2.648.739-.3.572-1.279.808-2.907,1.2-.541.13-1.155.277-1.837.458-2.262.6-2.349,1.511-2.481,2.884-.027.284-.056.578-.1.9a.986.986,0,0,0,.183.826,1.75,1.75,0,0,0,1.363.428,6.653,6.653,0,0,0,1.385-.168,90.2,90.2,0,0,1,8.868-2.383,1.852,1.852,0,0,0,1.615-1.037c.336-.884-.263-2.187-1.005-3.086A3.216,3.216,0,0,0,47.4,60.044ZM8.9,36.482c-1.655,0-2.606.5-2.827,1.5-.517,2.327,1.142,7.078,4.225,12.1,3.277,5.341,7.25,9.543,10.628,11.24l.007-.01a46.219,46.219,0,0,0,2.645-4.4c2.045-3.938,1.991-5.729,1.586-6.538a1.751,1.751,0,0,1,.487-2.467c.3-.277.577-.539.573-.89s-.283-.754-.875-1.274a2.8,2.8,0,0,1-1.177-2.216,2.65,2.65,0,0,1,1.106-1.792l-.029-.014c-.693-.325-3.19-1.474-6.231-2.635-3.117-1.19-7.4-2.61-10.116-2.61ZM67.393,46.569c-.371,0-1,.561-1.573,1.4-.633.928-1.193,2.219-.864,3.058.349.887,1.246,2.388,2.4,2.388a1.982,1.982,0,0,0,1.5-.924,90.349,90.349,0,0,1,6.384-6.6c.014-.015,1.362-1.483,1.134-2.433a.948.948,0,0,0-.663-.659c-.3-.108-.56-.223-.815-.334l-.021-.009a4.046,4.046,0,0,0-1.566-.459,3.139,3.139,0,0,0-2.16,1.231c-.492.51-.917.974-1.292,1.384-1.119,1.222-1.795,1.96-2.432,1.96h-.034Zm3.762-20a1.761,1.761,0,0,1,1.524,1.068c.558.951,2.169,1.636,4.786,2.038a40.183,40.183,0,0,0,5.718.383c.37,0,.694,0,.963-.012h.021c.418-3.754-.942-9.375-3.636-15.034C78,9.691,74.913,5.712,72.679,4.878a1.666,1.666,0,0,0-.583-.109c-.988,0-1.956.96-2.877,2.853A33.263,33.263,0,0,0,67.11,13.9c-1.067,4.277-1.671,8.636-1.737,9.119l0,.012.007,0a3.054,3.054,0,0,1,1.065-.2c.863,0,1.954.424,2.251,2.446.2,1.359.622,1.542,1.008,1.542a2.733,2.733,0,0,0,.624-.106l.009,0,.009,0,.043-.011A3.117,3.117,0,0,1,71.155,26.573Zm4.768,69.6c-2.324,0-4.045-.53-4.283-1.319-.145-.479.246-1.044,1.13-1.633a5.733,5.733,0,0,0,2.276-2.974,8.969,8.969,0,0,0,.4-3.473,14.747,14.747,0,0,0-.876-4.085,13.143,13.143,0,0,0,7.108,2.523A7.507,7.507,0,0,0,85.9,83.949,6.351,6.351,0,0,0,87.291,82.7l0-.005a.007.007,0,0,1,0,.007v.01a21.032,21.032,0,0,1-.264,4.376c-.373,2.2-1.3,5.2-3.59,6.982C81.446,95.619,78.249,96.173,75.923,96.173Z" transform="translate(0.317 0)" fill="#ffa803"/>
            <path id="Path_88241" data-name="Path 88241" d="M18.8,25.28C19.716,17,12.007,1.864,7.308.109S0,18.262,0,18.262s2.816-1.2,3.323,2.242,2.376-.37,3.985,2.368S18.8,25.28,18.8,25.28Z" transform="translate(65.689 4.769)" fill="#fafafa" stroke="#414141" stroke-linejoin="round" stroke-width="2.5"/>
            <path id="Path_88242" data-name="Path 88242" d="M.075,25.281C-.844,17,6.865,1.864,11.564.109s7.308,18.153,7.308,18.153-2.816-1.2-3.323,2.242-2.376-.369-3.985,2.368S.075,25.281.075,25.281Z" transform="translate(0 47.622) rotate(-57)" fill="#fafafa" stroke="#414141" stroke-linejoin="round" stroke-width="2.5"/>
            <line id="Line_18559" data-name="Line 18559" y1="3.697" x2="5.417" transform="translate(82.999 95.976)" fill="none" stroke="#414141" stroke-linecap="round" stroke-width="2.5"/>
            <g id="Ellipse_1332" data-name="Ellipse 1332" transform="matrix(0.588, -0.809, 0.809, 0.588, 70.964, 56.257)" fill="#f0f0f0" stroke="#414141" stroke-width="2">
              <ellipse cx="6.878" cy="4.991" rx="6.878" ry="4.991" stroke="none"/>
              <ellipse cx="6.878" cy="4.991" rx="5.878" ry="3.991" fill="none"/>
            </g>
            <g id="Ellipse_1333" data-name="Ellipse 1333" transform="translate(38.813 70.764) rotate(-14)" fill="#f0f0f0" stroke="#414141" stroke-width="2">
              <ellipse cx="7.063" cy="5.043" rx="7.063" ry="5.043" stroke="none"/>
              <ellipse cx="7.063" cy="5.043" rx="6.063" ry="4.043" fill="none"/>
            </g>
            <path id="Path_88247" data-name="Path 88247" d="M1.029,14.938c-.473,1.639-2.707,8.391,1.41,14.076s14.292,8.907,37.348,18.4,20.731,19.674,22.2,20.507,12.1-5.325,21.271-28.483S97.715,5.547,94.2.749,87.029,15.444,73.633,23.8c-6.966,4.346-20.474,10.791-33.845,9.6-11.858-1.056-24.6-3.727-38.758-18.463" transform="translate(20.001 89.246) rotate(-7)" fill="#f0f0f0" stroke="#414141" stroke-linecap="round" stroke-linejoin="round" stroke-width="2.5"/>
            <path id="Union_265" data-name="Union 265" d="M.335,3.236C-.757.578,1.054.123,2.431.018A54.6,54.6,0,0,1,7.984.31,54.747,54.747,0,0,1,13.537.017c1.377.106,3.188.56,2.1,3.219A7.876,7.876,0,0,1,8.192,8.277l-.07,0h-.14A7.893,7.893,0,0,1,.335,3.236Z" transform="matrix(0.839, -0.545, 0.545, 0.839, 62.951, 78.509)" fill="#414141" stroke="#414141" stroke-width="2.4"/>
            <path id="Path_88245" data-name="Path 88245" d="M9.363,0S16.322,12.884,0,14.176" transform="matrix(0.999, -0.035, 0.035, 0.999, 64.69, 81.81)" fill="none" stroke="#414141" stroke-linecap="round" stroke-linejoin="round" stroke-width="2.5"/>
            <path id="Path_88246" data-name="Path 88246" d="M1.474,0s-6.959,12.884,9.363,14.175" transform="matrix(0.326, -0.946, 0.946, 0.326, 73.932, 82.867)" fill="none" stroke="#414141" stroke-linecap="round" stroke-linejoin="round" stroke-width="2.5"/>
            <path id="Path_88286" data-name="Path 88286" d="M31.882,39.517l29.1-13.422S64.079.623,70.787.025,87.757,9.54,88.544,31.683c0,0,10.366,3.914,18.7,15.988s5.451,32.679-3.86,47.339S76.2,115.629,76.2,115.629s-22.123,7.075-40.788-3.193-23.282-24.661-18.1-42.47c0,0-22.391-30.651-16.254-36.988S28.817,38.77,31.882,39.517Z" transform="translate(0.315 0)" fill="none" stroke="#414141" stroke-linejoin="round" stroke-width="2.5"/>
          </g>
        </g>
        <g id="Ellipse_1336" data-name="Ellipse 1336" fill="none" stroke="#414141" stroke-width="2.5">
          <ellipse cx="83.425" cy="83.425" rx="83.425" ry="83.425" stroke="none"/>
          <ellipse cx="83.425" cy="83.425" rx="82.175" ry="82.175" fill="none"/>
        </g>
        <path id="Path_88276" data-name="Path 88276" d="M0,1.324S27.062-4.11,47.569,7.038" transform="translate(21.502 47.948) rotate(-46)" fill="none" stroke="#414141" stroke-linecap="round" stroke-width="2.5"/>
      </g>
      <ellipse id="Ellipse_1338" data-name="Ellipse 1338" cx="2.867" cy="2.867" rx="2.867" ry="2.867" transform="translate(125.986 105.849)" fill="#414141"/>
      <ellipse id="Ellipse_1339" data-name="Ellipse 1339" cx="2.867" cy="2.867" rx="2.867" ry="2.867" transform="translate(93.095 127.205)" fill="#414141"/>
    </g>
  </g>
  <text/>
</svg>
