<svg xmlns="http://www.w3.org/2000/svg" xmlns:xlink="http://www.w3.org/1999/xlink" width="321" height="315" viewBox="0 0 321 315">
  <defs>
    <clipPath id="clip-Artboard_1">
      <rect width="321" height="315"/>
    </clipPath>
  </defs>
  <g id="Artboard_1" data-name="Artboard – 1" clip-path="url(#clip-Artboard_1)">
    <rect width="321" height="315" fill="#fff"/>
    <g id="Group_6483" data-name="Group 6483" opacity="0.1">
      <path id="Path_805" data-name="Path 805" d="M88.975,315.615q-.165,0-.331.007c.019-.255.028-.507.028-.755a11.333,11.333,0,0,0-21.8-4.346,6.74,6.74,0,0,0-9.238,5.189,8.336,8.336,0,1,0-1.258,16.577h7.219v10a1,1,0,0,0,1,1H84.235a1,1,0,0,0,1-1v-10h3.737a8.336,8.336,0,1,0,0-16.672ZM65.6,341.288v-23.41H77.607V322.5a1,1,0,0,0,1,1h4.623v17.784ZM81.814,321.5h-2.2v-2.2Zm7.161,8.783H85.238V322.5a1,1,0,0,0-.02-.2,1.078,1.078,0,0,0-.039-.128c-.007-.02-.011-.04-.019-.059a.955.955,0,0,0-.07-.13c-.008-.014-.014-.029-.023-.042a1.043,1.043,0,0,0-.125-.152l-5.625-5.624a.984.984,0,0,0-.152-.125c-.014-.009-.029-.015-.042-.023a.991.991,0,0,0-.13-.07c-.019-.008-.04-.012-.059-.018a1.022,1.022,0,0,0-.128-.039,1,1,0,0,0-.2-.02H64.6a1,1,0,0,0-1,1v13.406H56.375a6.33,6.33,0,1,1,1.892-12.373,1,1,0,0,0,1.3-.99l-.01-.168a4.732,4.732,0,0,1,7.321-3.966,1,1,0,0,0,1.51-.557,9.328,9.328,0,0,1,18.275,2.639,9.266,9.266,0,0,1-.166,1.719,1,1,0,0,0,1.188,1.166,6.408,6.408,0,0,1,1.287-.131,6.33,6.33,0,1,1,0,12.661Z" transform="translate(-32.043 -162.49)" fill="#1a1818"/>
      <g id="Group_6128" data-name="Group 6128" transform="translate(0.645)">
        <path id="Path_806" data-name="Path 806" d="M91.01,146.275h7.826l-1.095-3.24c-.581-1.721-1.188-3.521-1.966-5.817A1.173,1.173,0,1,1,98,136.465c.779,2.3,1.386,4.1,1.968,5.82.443,1.311.873,2.586,1.348,3.99h3.149c-.535-1.581-.991-2.933-1.431-4.237-.53-1.57-1.037-3.071-1.63-4.82a1.173,1.173,0,0,1,2.221-.753c.593,1.75,1.1,3.252,1.631,4.823.578,1.71,1.182,3.5,1.955,5.783a1.173,1.173,0,0,1-1.111,1.549H91.01a1.173,1.173,0,0,1,0-2.346Z" transform="translate(-53.529 -78.793)" fill="#1a1818"/>
        <path id="Path_807" data-name="Path 807" d="M65.762,28.244a1.173,1.173,0,0,1-1.173-1.173V23.407a1.173,1.173,0,1,1,2.346,0V27.07A1.173,1.173,0,0,1,65.762,28.244Z" transform="translate(-40.94 -22.234)" fill="#1a1818"/>
        <path id="Path_808" data-name="Path 808" d="M77.209,28.856a1.173,1.173,0,1,1-2.265-.607l.949-3.539a1.173,1.173,0,1,1,2.265.607Z" transform="translate(-46.083 -23.034)" fill="#1a1818"/>
        <path id="Path_809" data-name="Path 809" d="M86.706,33.485a1.173,1.173,0,0,1-2.031-1.173l1.832-3.173a1.173,1.173,0,0,1,2.032,1.173Z" transform="translate(-50.876 -25.384)" fill="#1a1818"/>
        <path id="Path_810" data-name="Path 810" d="M94.774,40.641a1.173,1.173,0,1,1-1.659-1.658l2.591-2.591a1.173,1.173,0,0,1,1.659,1.659Z" transform="translate(-54.993 -29.122)" fill="#1a1818"/>
        <path id="Path_811" data-name="Path 811" d="M104.038,48l-3.173,1.832a1.173,1.173,0,1,1-1.173-2.031l3.173-1.832A1.173,1.173,0,1,1,104.038,48Z" transform="translate(-58.15 -33.992)" fill="#1a1818"/>
        <path id="Path_812" data-name="Path 812" d="M108.1,59.5l-3.539.949a1.173,1.173,0,1,1-.607-2.265l3.539-.949A1.173,1.173,0,1,1,108.1,59.5Z" transform="translate(-60.135 -39.662)" fill="#1a1818"/>
        <path id="Path_813" data-name="Path 813" d="M34.172,97.925a1.173,1.173,0,0,1,1.659,1.659l-2.591,2.591a1.173,1.173,0,1,1-1.659-1.658Z" transform="translate(-24.311 -59.803)" fill="#1a1818"/>
        <path id="Path_814" data-name="Path 814" d="M24.329,91.316,27.5,89.484a1.173,1.173,0,0,1,1.173,2.031L25.5,93.348a1.173,1.173,0,1,1-1.173-2.031Z" transform="translate(-20.574 -55.687)" fill="#1a1818"/>
        <path id="Path_815" data-name="Path 815" d="M19.9,80.7l3.539-.949a1.173,1.173,0,0,1,.607,2.266l-3.539.948A1.173,1.173,0,1,1,19.9,80.7Z" transform="translate(-18.224 -50.893)" fill="#1a1818"/>
        <path id="Path_816" data-name="Path 816" d="M18.6,69.4H22.26a1.173,1.173,0,1,1,0,2.346H18.6a1.173,1.173,0,1,1,0-2.346Z" transform="translate(-17.423 -45.751)" fill="#1a1818"/>
        <path id="Path_817" data-name="Path 817" d="M24.875,59.615a1.172,1.172,0,0,1-1.436.829L19.9,59.5a1.173,1.173,0,1,1,.607-2.265l3.539.949A1.172,1.172,0,0,1,24.875,59.615Z" transform="translate(-18.224 -39.663)" fill="#1a1818"/>
        <path id="Path_818" data-name="Path 818" d="M29.1,49.407a1.172,1.172,0,0,1-1.6.429L24.329,48A1.173,1.173,0,1,1,25.5,45.973l3.173,1.832A1.172,1.172,0,0,1,29.1,49.407Z" transform="translate(-20.574 -33.992)" fill="#1a1818"/>
        <path id="Path_819" data-name="Path 819" d="M35.831,40.641a1.172,1.172,0,0,1-1.659,0L31.581,38.05a1.173,1.173,0,1,1,1.659-1.659l2.591,2.591A1.172,1.172,0,0,1,35.831,40.641Z" transform="translate(-24.311 -29.122)" fill="#1a1818"/>
        <path id="Path_820" data-name="Path 820" d="M44.6,33.914a1.172,1.172,0,0,1-1.6-.429l-1.832-3.173a1.173,1.173,0,1,1,2.031-1.173l1.832,3.173A1.173,1.173,0,0,1,44.6,33.914Z" transform="translate(-29.182 -25.384)" fill="#1a1818"/>
        <path id="Path_821" data-name="Path 821" d="M54.806,29.685a1.172,1.172,0,0,1-1.436-.829l-.949-3.539a1.173,1.173,0,0,1,2.266-.607l.948,3.539A1.172,1.172,0,0,1,54.806,29.685Z" transform="translate(-34.853 -23.034)" fill="#1a1818"/>
        <path id="Path_822" data-name="Path 822" d="M44.9,70.568l-4.881,14.4a1.173,1.173,0,0,0,1.111,1.549H84.915a1.173,1.173,0,0,0,1.111-.8L96,56.294a1.173,1.173,0,0,0-1.111-1.549H66.968A15.907,15.907,0,1,0,44.9,70.568Zm8.813,13.6,2.53-7.463h8.469l-2.53,7.463Zm10.945,0,2.53-7.463h8.469l-2.53,7.463ZM87.4,74.364H78.931L81.46,66.9h8.469Zm-10.945,0H67.986l2.53-7.464h8.469ZM82.309,57.09l-2.53,7.464H71.31l2.53-7.464ZM57.04,74.364,59.57,66.9h8.468l-2.53,7.464Zm-2.476,0h-8.47l2.53-7.464h8.47Zm-5.145-9.81,2.53-7.464h8.47l-2.53,7.464ZM71.363,57.09l-2.53,7.464H60.365L62.9,57.09Zm21.89,0-2.53,7.464H82.255l2.53-7.464ZM84.074,84.172H75.606l2.53-7.463H86.6Zm-41.305,0,2.53-7.463h8.47L51.24,84.172ZM37.544,55.917a13.562,13.562,0,0,1,27.073-1.173H51.107a1.173,1.173,0,0,0-1.111.8l-4.338,12.8A13.558,13.558,0,0,1,37.544,55.917Z" transform="translate(-26.286 -31.096)" fill="#1a1818"/>
      </g>
      <path id="Path_823" data-name="Path 823" d="M406.208,87.2a4.237,4.237,0,0,0-3.16,1.418l-10.1-5.422a4.105,4.105,0,0,0,0-2.135l10.1-5.422a4.292,4.292,0,1,0-.95-1.767l-10.1,5.422a4.252,4.252,0,1,0,0,5.668l10.1,5.422a4.249,4.249,0,1,0,4.11-3.184Zm0-16.641a2.246,2.246,0,1,1-2.246,2.246A2.249,2.249,0,0,1,406.208,70.556ZM388.832,84.372a2.246,2.246,0,1,1,2.247-2.246A2.249,2.249,0,0,1,388.832,84.372Zm17.376,9.323a2.246,2.246,0,1,1,2.247-2.246A2.249,2.249,0,0,1,406.208,93.695Z" transform="translate(-199.844 -45.327)" fill="#1a1818"/>
      <path id="Path_824" data-name="Path 824" d="M552.048,56.163a3.9,3.9,0,0,1-3.9-3.9V38.146a7.725,7.725,0,0,1,.994-13.839,1,1,0,0,1,1.379.929v6.058h3.044V25.236a1,1,0,0,1,1.379-.929,7.726,7.726,0,0,1,.994,13.839V52.268A3.9,3.9,0,0,1,552.048,56.163Zm-3.528-29.2a5.7,5.7,0,0,0-2.2,4.513,5.758,5.758,0,0,0,3.267,5.166,1,1,0,0,1,.571.9V52.268a1.89,1.89,0,0,0,3.78,0V37.543a1,1,0,0,1,.571-.9,5.723,5.723,0,0,0,1.068-9.679V32.3a1,1,0,0,1-1,1h-5.05a1,1,0,0,1-1-1Z" transform="translate(-279.489 -23.231)" fill="#1a1818"/>
      <g id="Group_6129" data-name="Group 6129" transform="translate(279.221 54.037)">
        <path id="Path_825" data-name="Path 825" d="M610.485,138.044a.969.969,0,0,0-.039-.127c-.006-.02-.01-.041-.018-.06a.986.986,0,0,0-.07-.13c-.008-.014-.014-.029-.023-.042a1,1,0,0,0-.124-.152l-7.233-7.232a1,1,0,0,0-.152-.125c-.013-.009-.029-.015-.042-.023a.963.963,0,0,0-.13-.07c-.019-.008-.04-.012-.059-.019a.867.867,0,0,0-.326-.059H574.028a1,1,0,0,0-1,1v25.824a1,1,0,0,0,1,1H609.5a1,1,0,0,0,1-1V138.243A1.008,1.008,0,0,0,610.485,138.044Zm-7.214-4.614,3.81,3.81h-3.81Zm-28.241,22.4V132.013h26.236v6.23a1,1,0,0,0,1,1H608.5v16.585Z" transform="translate(-573.025 -130.007)" fill="#1a1818"/>
        <path id="Path_826" data-name="Path 826" d="M599.63,148.994a1.036,1.036,0,0,0-1.509,0l-7.367,8.412-2.369-2.706a1,1,0,0,0-.754-.342h0a1,1,0,0,0-.754.341l-5.606,6.393a1,1,0,0,0,.754,1.664H609.48a1,1,0,0,0,.754-1.664Zm-15.392,11.758,3.392-3.869L590,159.59a1,1,0,0,0,1.509,0l7.368-8.413,8.392,9.575Z" transform="translate(-577.012 -139.312)" fill="#1a1818"/>
        <path id="Path_827" data-name="Path 827" d="M585.388,146.772a4.4,4.4,0,1,0-4.4-4.4A4.407,4.407,0,0,0,585.388,146.772Zm0-6.8a2.4,2.4,0,1,1-2.4,2.4A2.4,2.4,0,0,1,585.388,139.973Z" transform="translate(-576.994 -133.976)" fill="#1a1818"/>
      </g>
      <g id="Group_6130" data-name="Group 6130" transform="translate(148.157 183.015)">
        <path id="Path_828" data-name="Path 828" d="M345.451,411.536l-4.81-4.81a1,1,0,0,0-1.418,1.418l3.1,3.1H312.628a1,1,0,0,0,0,2.006h29.694l-3.1,3.1a1,1,0,0,0,1.418,1.418l4.81-4.81a1,1,0,0,0,0-1.418Z" transform="translate(-311.625 -396.812)" fill="#1a1818"/>
        <path id="Path_829" data-name="Path 829" d="M331.159,392.35l-4.81-4.811a1,1,0,0,0-1.418,1.418l3.1,3.1h-15.4a1,1,0,0,0,0,2.006h15.4l-3.1,3.1a1,1,0,0,0,1.418,1.418l4.81-4.81A1,1,0,0,0,331.159,392.35Z" transform="translate(-311.625 -387.245)" fill="#1a1818"/>
        <path id="Path_830" data-name="Path 830" d="M331.159,430.723l-4.81-4.81a1,1,0,0,0-1.418,1.418l3.1,3.1h-15.4a1,1,0,0,0,0,2.006h15.4l-3.1,3.1a1,1,0,1,0,1.418,1.418l4.81-4.811A1,1,0,0,0,331.159,430.723Z" transform="translate(-311.625 -406.379)" fill="#1a1818"/>
      </g>
      <g id="Group_6132" data-name="Group 6132" transform="translate(135.09 74.375)">
        <g id="Group_6131" data-name="Group 6131">
          <path id="Path_831" data-name="Path 831" d="M317.213,175.074h-9.046v-3.5a1,1,0,0,0-1-1h-8.744a1,1,0,0,0-1,1v3.5h-9.046a2.811,2.811,0,0,0-2.808,2.808v17.776a2.811,2.811,0,0,0,2.808,2.808h28.842a2.811,2.811,0,0,0,2.808-2.808V177.881A2.811,2.811,0,0,0,317.213,175.074Zm-17.79-2.5h6.738v2.5h-6.738Zm18.592,23.081a.8.8,0,0,1-.8.8H288.372a.8.8,0,0,1-.8-.8V177.881a.8.8,0,0,1,.8-.8h28.842a.8.8,0,0,1,.8.8Z" transform="translate(-285.564 -170.571)" fill="#1a1818"/>
          <path id="Path_832" data-name="Path 832" d="M292.924,175.8h2.752a1,1,0,1,0,0-2.006h-2.752a1,1,0,1,0,0,2.006Z" transform="translate(-288.734 -172.177)" fill="#1a1818"/>
        </g>
        <path id="Path_833" data-name="Path 833" d="M342.191,175.8H339.44a1,1,0,0,1,0-2.006h2.752a1,1,0,1,1,0,2.006Z" transform="translate(-311.927 -172.177)" fill="#1a1818"/>
      </g>
      <g id="Group_6133" data-name="Group 6133" transform="translate(231.098 166.139)">
        <path id="Path_834" data-name="Path 834" d="M522.769,379.148a1,1,0,0,1-1-1v-5.528c-4.756-1.78-7.679-5.136-7.679-8.882,0-5.6,6.7-10.148,14.931-10.148s14.931,4.552,14.931,10.148-6.7,10.148-14.931,10.148c-.435,0-.882-.014-1.337-.042l-4.144,4.948A1,1,0,0,1,522.769,379.148Zm6.25-23.555c-7.127,0-12.926,3.653-12.926,8.142,0,3.029,2.678,5.8,6.99,7.22a1,1,0,0,1,.688.952v3.479l2.7-3.226a.991.991,0,0,1,.853-.355c.578.049,1.148.073,1.692.073,7.126,0,12.925-3.653,12.925-8.142S536.145,355.593,529.018,355.593Z" transform="translate(-495.515 -353.587)" fill="#1a1818"/>
        <path id="Path_835" data-name="Path 835" d="M499.968,400.995a6.158,6.158,0,1,1,6.158-6.158A6.165,6.165,0,0,1,499.968,400.995Zm0-10.31a4.152,4.152,0,1,0,4.152,4.153A4.157,4.157,0,0,0,499.968,390.685Z" transform="translate(-485.405 -371.084)" fill="#1a1818"/>
        <path id="Path_836" data-name="Path 836" d="M505.162,430.483H478.05a1,1,0,0,1-.914-1.416l2.722-6.012a7.515,7.515,0,0,1,6.834-4.407h9.829a7.515,7.515,0,0,1,6.834,4.407l2.721,6.012a1,1,0,0,1-.914,1.416ZM479.6,428.477h24l-2.081-4.6a5.5,5.5,0,0,0-5.006-3.229h-9.829a5.505,5.505,0,0,0-5.006,3.229Z" transform="translate(-477.047 -386.027)" fill="#1a1818"/>
      </g>
      <g id="Group_6134" data-name="Group 6134" transform="translate(285.384 2.057)">
        <path id="Path_837" data-name="Path 837" d="M633.046,75.07H621.359a1,1,0,0,1-.709-1.712l2.652-2.652-2.93-2.93a1,1,0,1,1,1.419-1.418L625.429,70a1,1,0,0,1,0,1.418l-1.649,1.649h8.262V64.8l-1.65,1.65a1,1,0,0,1-.709.294h0a1,1,0,0,1-.709-.294l-3.638-3.639a1,1,0,0,1,1.418-1.418l2.929,2.929,2.652-2.652a1,1,0,0,1,1.712.709V74.067A1,1,0,0,1,633.046,75.07Z" transform="translate(-602.649 -43.671)" fill="#1a1818"/>
        <path id="Path_838" data-name="Path 838" d="M598,75.07H586.319a1,1,0,0,1-1-1V62.381a1,1,0,0,1,1.712-.709l2.652,2.652,2.93-2.929a1,1,0,0,1,1.418,1.418l-3.639,3.639a1,1,0,0,1-1.418,0l-1.65-1.65v8.262h8.262l-1.65-1.65a1,1,0,0,1,0-1.418l3.639-3.639a1,1,0,0,1,1.418,1.418l-2.93,2.929,2.652,2.652A1,1,0,0,1,598,75.07Z" transform="translate(-585.316 -43.671)" fill="#1a1818"/>
        <path id="Path_839" data-name="Path 839" d="M626.046,40.306a1,1,0,0,1-.709-1.712l3.638-3.639a1,1,0,0,1,1.418,0l1.65,1.65V28.343H623.78l1.65,1.65a1,1,0,0,1,0,1.418l-3.638,3.638a1,1,0,0,1-1.419-1.418L623.3,30.7l-2.652-2.652a1,1,0,0,1,.709-1.712h11.687a1,1,0,0,1,1,1V39.026a1,1,0,0,1-1.712.709l-2.652-2.652-2.929,2.929A1,1,0,0,1,626.046,40.306Z" transform="translate(-602.649 -26.337)" fill="#1a1818"/>
        <path id="Path_840" data-name="Path 840" d="M593.319,40.306a1,1,0,0,1-.709-.294l-2.93-2.929-2.652,2.652a1,1,0,0,1-1.712-.709V27.34a1,1,0,0,1,1-1H598a1,1,0,0,1,.709,1.712L596.062,30.7l2.93,2.929a1,1,0,0,1-1.418,1.418l-3.639-3.638a1,1,0,0,1,0-1.418l1.649-1.65h-8.262v8.263l1.65-1.65a1,1,0,0,1,1.418,0l3.639,3.639a1,1,0,0,1-.709,1.712Z" transform="translate(-585.316 -26.337)" fill="#1a1818"/>
      </g>
      <g id="Group_6135" data-name="Group 6135" transform="translate(264.796 188.079)">
        <path id="Path_841" data-name="Path 841" d="M564.91,413.119A4.881,4.881,0,1,0,560.028,418,4.887,4.887,0,0,0,564.91,413.119Zm-7.757,0a2.876,2.876,0,1,1,2.876,2.875A2.879,2.879,0,0,1,557.153,413.119Z" transform="translate(-549.686 -402.776)" fill="#1a1818"/>
        <path id="Path_842" data-name="Path 842" d="M598.119,411.2h-29a2.446,2.446,0,0,0-1.73,4.177l8.81,8.811a.441.441,0,0,1-.312.753H556.362l.722-1.212c2.275-3.82,6.125-10.285,6.421-10.779a10.246,10.246,0,0,0,1.435-5.259,10.342,10.342,0,0,0-20.685,0,10.238,10.238,0,0,0,1.435,5.259c.287.48,3.931,6.6,6.226,10.452l1.82,3.056c0,.007.01.011.013.017a.986.986,0,0,0,.145.185c.006.007.015.011.021.018a1,1,0,0,0,.162.123c.02.012.04.022.061.033a.973.973,0,0,0,.159.066c.021.006.042.014.063.019a.985.985,0,0,0,.236.031h21.288a2.446,2.446,0,0,0,1.73-4.177l-8.81-8.81a.441.441,0,0,1,.312-.753h29a1,1,0,0,0,0-2.006Zm-50.708.719a8.233,8.233,0,0,1-1.151-4.229,8.337,8.337,0,1,1,16.673,0,8.235,8.235,0,0,1-1.151,4.229c-.3.495-4.147,6.961-6.423,10.784l-.763,1.281-.958-1.609C551.345,418.52,547.7,412.4,547.411,411.917Z" transform="translate(-544.255 -397.346)" fill="#1a1818"/>
      </g>
      <path id="Path_843" data-name="Path 843" d="M325.117,110.34l.056-.1c.006-.014.015-.027.021-.042a16.452,16.452,0,0,0,0-15.517c-.011-.027-.026-.05-.039-.076l-.024-.043c-.013-.023-.025-.048-.04-.07q-.375-.679-.81-1.319c2.247-4.925,1.89-7.994.394-9.37-2.042-1.877-6.02-1.024-11.22,2.387a16.455,16.455,0,0,0-17.257,8.3c-.017.025-.03.052-.045.078l-.015.028a.891.891,0,0,0-.044.085,16.468,16.468,0,0,0-1.439,11.8c-3.161,5.675-3.755,9.854-1.657,11.784a3.989,3.989,0,0,0,2.8.981,14.2,14.2,0,0,0,6.563-2.228c.092-.053.187-.11.279-.164a16.472,16.472,0,0,0,22.451-6.476C325.1,110.364,325.11,110.352,325.117,110.34Zm-14.471,6.583c-1.156,0-2.371-1.184-3.363-3.251,1.117-.874,2.244-1.831,3.369-2.858h4.383C314.06,114.269,312.495,116.923,310.647,116.923Zm-11.808-6.109h5.293a22.52,22.52,0,0,0,.684,2.214q-1.1.8-2.169,1.479A14.594,14.594,0,0,1,298.839,110.813Zm-1.2-14.751H303.7a35.515,35.515,0,0,0-.527,5.371H296.2A14.369,14.369,0,0,1,297.641,96.062Zm13.006-8.114c1.848,0,3.412,2.652,4.389,6.108h-8.81C307.3,90.256,309.032,87.949,310.647,87.949ZM325.1,101.433h-4.788a3.43,3.43,0,0,0-.444-.924,52.528,52.528,0,0,0,2.916-4.447h.873A14.371,14.371,0,0,1,325.1,101.433Zm-15.227,7.375H305.75a32.6,32.6,0,0,1-.573-5.369h8.576a3.42,3.42,0,0,0,.438.916c-.26.292-.514.585-.783.877C312.247,106.495,311.06,107.691,309.869,108.808Zm7.161-4.95a1.422,1.422,0,1,1,1.422-1.422A1.424,1.424,0,0,1,317.03,103.858Zm1.261-4.606c-.1-.039-.2-.073-.3-.1-.094-1.078-.233-2.109-.41-3.087h2.838C319.8,97.074,319.091,98.142,318.291,99.252Zm3.279-5.195h-4.422a16.971,16.971,0,0,0-2.36-5.5,14.523,14.523,0,0,1,7.144,4.813C321.82,93.592,321.694,93.825,321.571,94.057Zm-6.052,2.006a30.761,30.761,0,0,1,.462,3.112,3.44,3.44,0,0,0-2.228,2.259h-8.576a32.556,32.556,0,0,1,.574-5.371Zm-12.349,7.377a35.494,35.494,0,0,0,.527,5.369H297.64a14.372,14.372,0,0,1-1.441-5.369Zm3.056,7.375h1.394c-.371.314-.742.622-1.112.918C306.41,111.436,306.315,111.131,306.225,110.813Zm6.527-2.006q1.075-1.073,2.132-2.219c.3-.324.581-.649.869-.974.075.03.15.059.227.083a30.731,30.731,0,0,1-.462,3.11ZM318,105.723a3.44,3.44,0,0,0,2.312-2.284H325.1a14.381,14.381,0,0,1-1.442,5.369h-6.067Q317.852,107.341,318,105.723Zm5.325-20.445c.877.806.8,2.968-.466,6.079a16.536,16.536,0,0,0-6.719-4.471C320.141,84.571,322.487,84.513,323.32,85.277ZM306.489,88.56a16.921,16.921,0,0,0-2.357,5.5H298.84A14.54,14.54,0,0,1,306.489,88.56Zm-12.131,28.225c-.87-.8-.98-3.273,1.2-7.71.168.381.348.755.544,1.119.007.018.018.034.026.051l.047.087c.009.015.016.03.026.044a16.615,16.615,0,0,0,4.549,5.241C297.732,117.214,295.316,117.666,294.358,116.785ZM305.64,114.9a12.041,12.041,0,0,0,.848,1.407,14.368,14.368,0,0,1-1.859-.7C304.964,115.384,305.3,115.147,305.64,114.9Zm9.149,1.412a16.983,16.983,0,0,0,2.36-5.5h5.306A14.533,14.533,0,0,1,314.789,116.316Z" transform="translate(-153.567 -52.446)" fill="#1a1818"/>
      <g id="Group_6136" data-name="Group 6136" transform="translate(216.351 266.073)">
        <path id="Path_844" data-name="Path 844" d="M448.853,559.715h36.48l-3.1,3.1a1,1,0,1,0,1.418,1.418l4.81-4.81a1,1,0,0,0,0-1.418l-4.81-4.81a1,1,0,0,0-1.418,1.418l3.1,3.1h-36.48a1,1,0,1,0,0,2.006Z" transform="translate(-447.742 -552.899)" fill="#1a1818"/>
        <path id="Path_845" data-name="Path 845" d="M487.539,577.445h-36.48l3.1-3.1a1,1,0,0,0-1.418-1.418l-4.811,4.81a1,1,0,0,0,0,1.418l4.811,4.81a1,1,0,0,0,1.418-1.418l-3.1-3.1h36.48a1,1,0,1,0,0-2.006Z" transform="translate(-447.635 -562.74)" fill="#1a1818"/>
      </g>
      <path id="Path_846" data-name="Path 846" d="M256.411,332.168H230.837l3.1-3.1a1,1,0,0,0-1.418-1.418l-4.81,4.81a1,1,0,0,0,0,1.418l4.81,4.81a1,1,0,0,0,1.418-1.418l-3.1-3.1h25.573a1,1,0,0,0,0-2.006Z" transform="translate(-121.48 -174.37)" fill="#1a1818"/>
      <g id="Group_6139" data-name="Group 6139" transform="translate(264.639 234.856)">
        <g id="Group_6137" data-name="Group 6137" transform="translate(0 19.256)">
          <path id="Path_847" data-name="Path 847" d="M557.878,561.491a1,1,0,0,1-.852-.884l-.273-2.529a13.083,13.083,0,0,1-3.036-1.263l-1.982,1.6a1,1,0,0,1-1.229.022,16.365,16.365,0,0,1-3.346-3.352,1,1,0,0,1,.023-1.227l1.6-1.983a13.047,13.047,0,0,1-1.257-3.036L545,548.563a1,1,0,0,1-.885-.853,16.306,16.306,0,0,1,0-4.736,1,1,0,0,1,.884-.852l2.531-.273a13.062,13.062,0,0,1,1.26-3.03l-1.6-1.981a1,1,0,0,1-.023-1.229,16.4,16.4,0,0,1,3.353-3.348,1,1,0,0,1,1.227.024l1.984,1.6a13.075,13.075,0,0,1,3.03-1.254l.273-2.527a1,1,0,0,1,.852-.885,16.429,16.429,0,0,1,4.737,0,1,1,0,0,1,.852.885l.273,2.529a13.055,13.055,0,0,1,3.029,1.257l1.982-1.6a1,1,0,0,1,1.228-.023,16.378,16.378,0,0,1,3.35,3.351,1,1,0,0,1-.024,1.228l-1.6,1.983a13.049,13.049,0,0,1,1.257,3.031l2.527.272a1,1,0,0,1,.885.853,16.249,16.249,0,0,1,0,4.737,1,1,0,0,1-.884.852l-2.528.273a13.082,13.082,0,0,1-1.26,3.035l1.6,1.982a1,1,0,0,1,.023,1.228,16.388,16.388,0,0,1-3.35,3.349,1,1,0,0,1-1.228-.023l-1.983-1.6a13.073,13.073,0,0,1-3.038,1.259l-.272,2.526a1,1,0,0,1-.853.885,16.257,16.257,0,0,1-4.736,0Zm3.943-4.324a1,1,0,0,1,.787-.873,11.09,11.09,0,0,0,3.706-1.536,1,1,0,0,1,1.173.061l1.909,1.538a14.337,14.337,0,0,0,1.856-1.855l-1.537-1.908a1,1,0,0,1-.061-1.174,11.075,11.075,0,0,0,1.537-3.7,1,1,0,0,1,.873-.786l2.434-.262c.041-.44.061-.88.061-1.315s-.021-.871-.061-1.311l-2.433-.262a1,1,0,0,1-.873-.787,11.086,11.086,0,0,0-1.534-3.7,1,1,0,0,1,.062-1.173l1.537-1.909a14.376,14.376,0,0,0-1.856-1.857l-1.908,1.537a1,1,0,0,1-1.173.062,11.085,11.085,0,0,0-3.7-1.536,1,1,0,0,1-.786-.872l-.263-2.435a14.182,14.182,0,0,0-2.625,0l-.263,2.433a1,1,0,0,1-.787.873,11.083,11.083,0,0,0-3.7,1.531,1,1,0,0,1-1.173-.062l-1.909-1.538a14.363,14.363,0,0,0-1.858,1.855l1.536,1.907a1,1,0,0,1,.061,1.174,11.089,11.089,0,0,0-1.538,3.7,1,1,0,0,1-.872.786l-2.436.263c-.041.443-.062.885-.062,1.324s.02.864.06,1.3l2.432.263a1,1,0,0,1,.873.787,11.091,11.091,0,0,0,1.533,3.7,1,1,0,0,1-.062,1.173l-1.538,1.909a14.351,14.351,0,0,0,1.854,1.857l1.908-1.536a1,1,0,0,1,1.174-.061,11.1,11.1,0,0,0,3.7,1.54,1,1,0,0,1,.786.872l.263,2.436a14.24,14.24,0,0,0,2.623,0Z" transform="translate(-543.942 -529.044)" fill="#1a1818"/>
          <path id="Path_848" data-name="Path 848" d="M562.791,554.754a6.861,6.861,0,1,1,6.861,6.86A6.869,6.869,0,0,1,562.791,554.754Zm2.006,0a4.855,4.855,0,1,0,4.855-4.855A4.861,4.861,0,0,0,564.8,554.754Z" transform="translate(-553.34 -538.442)" fill="#1a1818"/>
        </g>
        <g id="Group_6138" data-name="Group 6138" transform="translate(26.048)">
          <path id="Path_849" data-name="Path 849" d="M605.512,516.238a13.157,13.157,0,0,1-3.537-1.456,1,1,0,0,1-.452-1.142l.525-1.81a10.621,10.621,0,0,1-1.691-1.687l-1.807.536a1,1,0,0,1-1.145-.447,13.226,13.226,0,0,1-1.471-3.532,1,1,0,0,1,.488-1.127l1.653-.909a10.568,10.568,0,0,1,0-2.386l-1.654-.9a1,1,0,0,1-.494-1.125,13.154,13.154,0,0,1,1.458-3.538,1,1,0,0,1,1.142-.451l1.811.525a10.591,10.591,0,0,1,1.683-1.687l-.535-1.807a1,1,0,0,1,.446-1.145,13.247,13.247,0,0,1,3.534-1.471,1,1,0,0,1,1.126.489l.909,1.653a10.566,10.566,0,0,1,2.381-.006l.9-1.655a1,1,0,0,1,1.126-.494,13.11,13.11,0,0,1,3.539,1.457,1,1,0,0,1,.451,1.142l-.526,1.81a10.582,10.582,0,0,1,1.687,1.681l1.807-.535a1,1,0,0,1,1.145.446,13.232,13.232,0,0,1,1.473,3.533,1,1,0,0,1-.488,1.127l-1.653.908a10.6,10.6,0,0,1,.007,2.383l1.655.9a1,1,0,0,1,.494,1.126,13.113,13.113,0,0,1-1.456,3.539,1,1,0,0,1-1.142.452l-1.809-.526A10.579,10.579,0,0,1,615.4,511.8l.535,1.807a1,1,0,0,1-.446,1.145,13.262,13.262,0,0,1-3.531,1.472,1,1,0,0,1-1.127-.488l-.909-1.653a10.629,10.629,0,0,1-2.389.006l-.9,1.654a1,1,0,0,1-1.126.494Zm1.655-4.228a8.581,8.581,0,0,0,3.117-.008,1,1,0,0,1,1.061.5l.858,1.56a11.236,11.236,0,0,0,1.583-.66l-.505-1.706a1,1,0,0,1,.39-1.109,8.625,8.625,0,0,0,2.2-2.207,1,1,0,0,1,1.106-.4l1.707.5q.195-.386.358-.782c.108-.262.206-.531.295-.805l-1.562-.848a1,1,0,0,1-.508-1.059,8.617,8.617,0,0,0-.009-3.113,1,1,0,0,1,.5-1.061l1.56-.858a11.209,11.209,0,0,0-.661-1.584l-1.706.505a1,1,0,0,1-1.109-.39,8.6,8.6,0,0,0-2.2-2.2,1,1,0,0,1-.395-1.106l.5-1.708q-.388-.2-.785-.359c-.261-.107-.529-.205-.8-.294l-.848,1.562a1,1,0,0,1-1.06.508,8.6,8.6,0,0,0-3.11.008,1,1,0,0,1-1.061-.5l-.858-1.561a11.3,11.3,0,0,0-1.584.659l.5,1.706a1,1,0,0,1-.39,1.109,8.615,8.615,0,0,0-2.2,2.2,1,1,0,0,1-1.106.395l-1.709-.5q-.2.39-.361.789c-.107.259-.2.526-.292.8l1.561.848a1,1,0,0,1,.508,1.06,8.6,8.6,0,0,0,.007,3.115,1,1,0,0,1-.5,1.061l-1.561.858a11.229,11.229,0,0,0,.659,1.583l1.705-.505a1,1,0,0,1,1.11.391,8.619,8.619,0,0,0,2.207,2.2,1,1,0,0,1,.395,1.106l-.5,1.708q.389.2.785.359c.261.107.528.205.8.293l.847-1.561a1,1,0,0,1,.882-.525A.991.991,0,0,1,607.167,512.011Z" transform="translate(-595.894 -490.638)" fill="#1a1818"/>
          <path id="Path_850" data-name="Path 850" d="M613.668,515.8a5.661,5.661,0,1,1,2.145.426A5.668,5.668,0,0,1,613.668,515.8Zm.745-8.611a3.633,3.633,0,0,0-1.974,1.983h0a3.664,3.664,0,1,0,1.974-1.984Z" transform="translate(-603.006 -497.749)" fill="#1a1818"/>
        </g>
      </g>
      <path id="Path_851" data-name="Path 851" d="M385.979,434.139a1,1,0,0,1-.746-.332,9.768,9.768,0,0,0-10.618-2.659,1,1,0,0,1-.687-1.884,11.769,11.769,0,0,1,11.6,2.047,9.922,9.922,0,0,1,12.606-5.384,11.779,11.779,0,0,1,21.932-2.372,1,1,0,1,1-1.79.9,9.774,9.774,0,0,0-18.411,3.04,1,1,0,0,1-1.469.745,7.912,7.912,0,0,0-11.441,5.126,1,1,0,0,1-.975.769Z" transform="translate(-194.204 -219.102)" fill="#1a1818"/>
      <path id="Path_852" data-name="Path 852" d="M356.367,54.074a1,1,0,0,1-.745-.332,12.957,12.957,0,0,0-14.087-3.527,1,1,0,0,1-.687-1.884A14.957,14.957,0,0,1,355.9,51.2a12.558,12.558,0,0,1,16.426-7.073,14.971,14.971,0,0,1,27.954-3.34,1,1,0,1,1-1.79.9,12.965,12.965,0,0,0-24.422,4.034,1,1,0,0,1-1.469.745A10.55,10.55,0,0,0,357.343,53.3a1,1,0,0,1-.729.739A1.015,1.015,0,0,1,356.367,54.074Z" transform="translate(-177.71 -27.376)" fill="#1a1818"/>
      <path id="Path_853" data-name="Path 853" d="M208,154.971a1,1,0,0,1-.776-.368,10.652,10.652,0,0,0-11.433-3.444,1,1,0,1,1-.6-1.915,12.656,12.656,0,0,1,12.44,2.864,10.652,10.652,0,0,1,13.929-5.2,12.67,12.67,0,0,1,17.336-7.919,1,1,0,0,1-.824,1.829,10.663,10.663,0,0,0-14.854,7.751,1,1,0,0,1-1.5.674,8.645,8.645,0,0,0-12.754,5.006,1,1,0,0,1-.762.7A1.016,1.016,0,0,1,208,154.971Z" transform="translate(-105.066 -79.892)" fill="#1a1818"/>
      <g id="Group_6140" data-name="Group 6140" transform="translate(227.343 2.245)">
        <path id="Path_854" data-name="Path 854" d="M486.835,61.265a17.276,17.276,0,1,1,17.276-17.276A17.3,17.3,0,0,1,486.835,61.265Zm0-32.547A15.271,15.271,0,1,0,502.1,43.989,15.288,15.288,0,0,0,486.835,28.718Z" transform="translate(-469.558 -26.712)" fill="#1a1818"/>
        <path id="Path_855" data-name="Path 855" d="M492.339,61.192a1,1,0,0,1-1-1V47.756a1,1,0,0,1,1.443-.9L505.5,53.071a1,1,0,0,1,0,1.8l-12.726,6.217A1,1,0,0,1,492.339,61.192Zm1-11.831v9.222l9.439-4.611Z" transform="translate(-480.417 -36.704)" fill="#1a1818"/>
      </g>
      <path id="Path_856" data-name="Path 856" d="M167.9,356.105a1,1,0,0,1-1-1v-5.037h-1.86a3.9,3.9,0,0,1-3.891-3.891V333.106a3.9,3.9,0,0,1,3.891-3.891h18.834a3.9,3.9,0,0,1,3.891,3.891v13.069a3.9,3.9,0,0,1-3.891,3.891H173.427l-4.757,5.68A1,1,0,0,1,167.9,356.105Zm-2.862-24.885a1.888,1.888,0,0,0-1.885,1.885v13.069a1.888,1.888,0,0,0,1.885,1.885H167.9a1,1,0,0,1,1,1v3.28l3.286-3.923a1,1,0,0,1,.769-.359h10.915a1.888,1.888,0,0,0,1.885-1.885V333.106a1.888,1.888,0,0,0-1.885-1.885Z" transform="translate(-88.44 -175.296)" fill="#1a1818"/>
      <path id="Path_857" data-name="Path 857" d="M354.3,269.719h-4.262a1,1,0,0,1-1-1v-9.777h-5.766a1,1,0,0,1-1-1V247.661l-5.181-3.851-5.181,3.851v12.894a1,1,0,0,1-1,1h-5.1a1,1,0,0,1-1-1V251.2h-8.273v7.186a1,1,0,0,1-1,1h-4.178a1,1,0,0,1-1-1v-14.15h-10.92V254.4a1,1,0,0,1-1,1h-5.031a1,1,0,0,1-1-1v-5.536h-2.62a1,1,0,0,1,0-2.006h3.623a1,1,0,0,1,1,1V253.4h3.025V243.229a1,1,0,0,1,1-1h12.926a1,1,0,0,1,1,1v14.15h2.173v-7.186a1,1,0,0,1,1-1H325.8a1,1,0,0,1,1,1v9.36H329.9v-12.4a1,1,0,0,1,.4-.8l6.184-4.6a1,1,0,0,1,1.2,0l6.184,4.6a1,1,0,0,1,.4.8v9.777h5.766a1,1,0,0,1,1,1v9.777H354.3a1,1,0,1,1,0,2.006Z" transform="translate(-152.071 -131.59)" fill="#1a1818"/>
      <path id="Path_858" data-name="Path 858" d="M196.038,571.839h-2.73V567.1a1,1,0,0,0-1-1h-8.195v-3.742h2.73a1,1,0,0,0,1-1v-7.467a1,1,0,0,0-1-1h-7.468a1,1,0,0,0-1,1v7.467a1,1,0,0,0,1,1H182.1V566.1h-8.2a1,1,0,0,0-1,1v4.737H170.17a1,1,0,0,0-1,1v7.468a1,1,0,0,0,1,1h7.468a1,1,0,0,0,1-1v-7.468a1,1,0,0,0-1-1H174.91V568.1H191.3v3.734H188.57a1,1,0,0,0-1,1v7.468a1,1,0,0,0,1,1h7.468a1,1,0,0,0,1-1v-7.468A1,1,0,0,0,196.038,571.839Zm-15.663-16.95h5.462v5.462h-5.462Zm-3.74,24.417h-5.462v-5.462h5.462Zm18.4,0h-5.462v-5.462h5.462Z" transform="translate(-92.438 -286.819)" fill="#1a1818"/>
      <g id="Group_6141" data-name="Group 6141" transform="translate(50.068 281.671)">
        <path id="Path_859" data-name="Path 859" d="M120.714,616.25a1,1,0,0,1-.97-1.256l3.043-11.682H117a1,1,0,0,1-.833-1.561l11.594-17.3a1,1,0,0,1,1.8.811l-3.044,11.687h5.789a1,1,0,0,1,.833,1.561l-11.591,17.292A1,1,0,0,1,120.714,616.25Zm-1.839-14.944h5.209a1,1,0,0,1,.971,1.256l-1.878,7.211,7.249-10.816h-5.207a1,1,0,0,1-.97-1.255l1.879-7.215Z" transform="translate(-115.993 -584.009)" fill="#1a1818"/>
      </g>
      <path id="Path_860" data-name="Path 860" d="M620.7,382.7l-26.151.5a1,1,0,0,1-1-1V364.1a1,1,0,0,1,1-1h15.225l1.711-2.318a1,1,0,0,1,.807-.408H620.7a1,1,0,0,1,1,1v20.817C621.707,382.747,621.258,382.7,620.7,382.7Zm-25.148-1.5H619.7V362.38h-6.9l-1.711,2.318a1,1,0,0,1-.807.408H595.556Z" transform="translate(-304.038 -190.832)" fill="#1a1818"/>
      <path id="Path_861" data-name="Path 861" d="M600.363,624.142H573.532a7.038,7.038,0,0,1,0-14.077h.084c-.007-.147-.011-.294-.011-.439a9.5,9.5,0,0,1,18.214-3.806,5.725,5.725,0,0,1,7.654,4.3,7.129,7.129,0,0,1,.889-.056,7.038,7.038,0,0,1,0,14.077Zm-26.831-12.071a5.033,5.033,0,0,0,0,10.065h26.831a5.033,5.033,0,1,0-1.5-9.836,1,1,0,0,1-1.3-.992l.005-.1a3.716,3.716,0,0,0-5.749-3.145,1,1,0,0,1-1.511-.555,7.5,7.5,0,0,0-14.559,3.5,1,1,0,0,1-1.188,1.166A5.055,5.055,0,0,0,573.532,612.071Z" transform="translate(-290.547 -310.371)" fill="#1a1818"/>
      <g id="Group_6142" data-name="Group 6142" transform="translate(0.745 62.608)">
        <path id="Path_862" data-name="Path 862" d="M55.567,170.115H49.961a1,1,0,0,1-1-1v-7.044h-4.2a1,1,0,0,1-1-1v-7.3l-5.931-4.408-5.931,4.408v15.349a1,1,0,0,1-1,1H24.247a1,1,0,0,1-1-1V158.973H18.625a1,1,0,1,1,0-2.006h5.622a1,1,0,0,1,1,1v10.139h4.636V153.258a1,1,0,0,1,.4-.8l6.934-5.154a1,1,0,0,1,1.2,0l6.934,5.154a1,1,0,0,1,.4.8v6.8h4.2a1,1,0,0,1,1,1v7.044h4.6a1,1,0,1,1,0,2.006Z" transform="translate(-17.622 -147.102)" fill="#1a1818"/>
      </g>
      <g id="Group_6143" data-name="Group 6143" transform="translate(172.288 288.691)">
        <path id="Path_863" data-name="Path 863" d="M398.721,623.106h-4.934a1,1,0,0,1-1-1v-19.08H389.8a1,1,0,0,1-1-1v-2.006h-6.862v17.8a1,1,0,0,1-1,1h-4.316a1,1,0,0,1-1-1v-6.2h-8.209v10.467a1,1,0,0,1-1,1h-5.649a1,1,0,0,1,0-2.006H365.4V610.614a1,1,0,0,1,1-1h10.214a1,1,0,0,1,1,1v6.2h2.31v-17.8a1,1,0,0,1,1-1H389.8a1,1,0,0,1,1,1v2.006h2.981a1,1,0,0,1,1,1V621.1h2.929v-7.193a1,1,0,0,1,1-1h4.452v-5.112a1,1,0,0,1,.335-.749l5.449-4.856a1,1,0,0,1,1.335,0l5.449,4.856a1,1,0,0,1,.335.749v9.036h3.906V606.307a1,1,0,0,1,1-1h10.788a1,1,0,0,1,1,1v14.758h3.9v-9.15a1,1,0,0,1,1-1h4.327V599.885a1,1,0,0,1,1-1h13.775a1,1,0,0,1,1,1v5.463h3.868a1,1,0,1,1,0,2.006h-4.871a1,1,0,0,1-1-1v-5.463H444.014v11.028a1,1,0,0,1-1,1h-4.327v9.15a1,1,0,0,1-1,1h-5.908a1,1,0,0,1-1-1V607.31h-8.782v10.521a1,1,0,0,1-1,1h-5.912a1,1,0,0,1-1-1v-9.589l-4.446-3.963-4.446,3.963v5.666a1,1,0,0,1-1,1h-4.452V622.1A1,1,0,0,1,398.721,623.106Z" transform="translate(-359.753 -598.009)" fill="#1a1818"/>
      </g>
      <g id="Group_6144" data-name="Group 6144" transform="translate(73.088 103.645)">
        <path id="Path_864" data-name="Path 864" d="M182.828,270.8a8.6,8.6,0,1,0,8.6,8.6A8.609,8.609,0,0,0,182.828,270.8Zm1,2.09a6.546,6.546,0,0,1,2.889,1.2l-2.889,2.889Zm-2.006,0v5.505h-5.506A6.6,6.6,0,0,1,181.826,272.887Zm-5.506,7.511h6.094l4.308,4.308a6.573,6.573,0,0,1-10.4-4.308Zm11.82,2.89-3.892-3.893,3.892-3.892a6.542,6.542,0,0,1,0,7.785Z" transform="translate(-168.05 -249.814)" fill="#1a1818"/>
        <path id="Path_865" data-name="Path 865" d="M219.3,228.947H162.909a1,1,0,0,0-1,1v40.075a1,1,0,0,0,1,1H219.3a1,1,0,0,0,1-1V229.95A1,1,0,0,0,219.3,228.947Zm-1,2.006V232H163.912v-1.05Zm-54.388,38.069V234.008H218.3v35.014Z" transform="translate(-161.906 -228.947)" fill="#1a1818"/>
        <path id="Path_866" data-name="Path 866" d="M219.682,244.521a1,1,0,0,0-1.074.156l-4.249,3.7-3.16-2.176a1,1,0,0,0-1.144,0l-1.247.873-3.151-2.576a1,1,0,0,0-.635-.227h-3.3a1,1,0,0,0-.76.349L199,246.906l-3.346-3.556a1,1,0,0,0-1.388-.07l-2.573,2.234-3.387-3.651a1,1,0,0,0-1.532.073l-2.418,3.16-1.066-.89a1,1,0,0,0-1.44.161l-2.949,3.863-2.833-1.243a1,1,0,0,0-1.406.918v4.735a1,1,0,0,0,1,1h43.6a1,1,0,0,0,1-1v-7.2A1,1,0,0,0,219.682,244.521Zm-1.418,7.114H176.671v-2.2l2.15.944a1,1,0,0,0,1.2-.31l2.791-3.657,1.065.889a1,1,0,0,0,1.44-.16l2.331-3.046,3.239,3.49a1,1,0,0,0,1.392.075l2.578-2.238,3.45,3.666a1,1,0,0,0,1.491-.034l2.383-2.773h2.484l3.462,2.83a1,1,0,0,0,1.209.045l1.3-.91,3.228,2.222a1,1,0,0,0,1.227-.07l3.174-2.766Z" transform="translate(-168.268 -235.227)" fill="#1a1818"/>
        <path id="Path_867" data-name="Path 867" d="M239.621,275.2H217.687v-1.172h14.229a1,1,0,0,0,0-2.006H217.687v-.154a1,1,0,1,0-2.006,0V286.9a1,1,0,1,0,2.006,0v-.154h16.9a1,1,0,1,0,0-2.006h-16.9v-1.173h9.633a1,1,0,1,0,0-2.005h-9.633v-1.173h17.028a1,1,0,1,0,0-2.006H217.687v-1.173h21.935a1,1,0,1,0,0-2.006Z" transform="translate(-188.718 -249.849)" fill="#1a1818"/>
      </g>
      <g id="Group_6145" data-name="Group 6145" transform="translate(105.814 244.839)">
        <path id="Path_868" data-name="Path 868" d="M276.8,522.639l1.914-2.734a1,1,0,0,0-.246-1.4l-2.671-1.871a1,1,0,0,0-1.4.246l-1.913,2.732a14.891,14.891,0,0,0-3.69-1.165v-2.331h.941a1,1,0,0,0,1-1v-3.564a1,1,0,0,0-1-1h-7.149a1,1,0,0,0-1,1v3.564a1,1,0,0,0,1,1h.941v2.331a15.061,15.061,0,0,0-10.188,6.965h-7.711a1,1,0,1,0,0,2.005h6.681a14.911,14.911,0,0,0-.808,2.541h-11.68a1,1,0,1,0,0,2.006H251.2c-.036.42-.058.843-.058,1.272s.022.85.058,1.269h-17.22a1,1,0,0,0,0,2.006h17.527a14.865,14.865,0,0,0,.808,2.541H228.178a1,1,0,1,0,0,2.006h25.165A15.019,15.019,0,1,0,276.8,522.639Zm-1.332-3.784,1.029.721-1.214,1.734q-.5-.381-1.028-.721Zm-11.876-6.3h5.143v1.558h-5.143Zm1.944,3.564h1.255v2.111c-.208-.009-.417-.016-.628-.016s-.419.008-.628.016Zm.628,30.138a13.019,13.019,0,1,1,13.019-13.019A13.034,13.034,0,0,1,266.166,546.258Z" transform="translate(-227.175 -510.55)" fill="#1a1818"/>
        <path id="Path_869" data-name="Path 869" d="M293.993,533.847A11.008,11.008,0,1,0,305,544.855,11.02,11.02,0,0,0,293.993,533.847Zm0,20.011a9,9,0,1,1,9-9A9.013,9.013,0,0,1,293.993,553.858Z" transform="translate(-255.002 -522.166)" fill="#1a1818"/>
        <path id="Path_870" data-name="Path 870" d="M303.943,540.807a1,1,0,0,0-1,1v6.513a1,1,0,1,0,2.006,0V541.81A1,1,0,0,0,303.943,540.807Z" transform="translate(-264.952 -525.636)" fill="#1a1818"/>
      </g>
      <g id="Group_6146" data-name="Group 6146" transform="translate(251.869 119.728)">
        <path id="Path_871" data-name="Path 871" d="M542.55,304.8a14.047,14.047,0,0,0,14.032-14.032c0-.205-.007-.409-.016-.611,4.27-3.924,6.775-7.9,5.262-10.519-1.394-2.413-5.565-2.657-11.762-.709a14.02,14.02,0,0,0-21.547,11.839c0,.2.007.395.015.591-.772.71-1.486,1.418-2.125,2.119-3.206,3.51-4.29,6.422-3.136,8.42.774,1.34,2.4,2.013,4.76,2.013a24.276,24.276,0,0,0,7-1.3A13.946,13.946,0,0,0,542.55,304.8Zm17.54-24.159c.677,1.173-.627,3.839-3.849,7.068a14.036,14.036,0,0,0-4.206-7.269C556.757,279.159,559.469,279.561,560.09,280.637Zm-17.54-1.9a12.041,12.041,0,0,1,11.939,10.607,56.587,56.587,0,0,1-8.838,6.255l.514-1.749a1,1,0,1,0-1.924-.566l-1.206,4.1a1,1,0,0,0,.679,1.245l4.1,1.206a1,1,0,1,0,.566-1.924l-1.8-.53a62.065,62.065,0,0,0,7.942-5.46,12.023,12.023,0,0,1-23.907.261,57.484,57.484,0,0,1,8.838-6.256l-.514,1.749a1,1,0,1,0,1.924.566l1.206-4.1a1,1,0,0,0-.679-1.245l-4.1-1.206a1,1,0,1,0-.566,1.924l1.8.53a61.918,61.918,0,0,0-7.94,5.438A12.042,12.042,0,0,1,542.55,278.739Zm-17.54,22.153c-.5-.862,0-2.909,2.879-6.065.305-.334.63-.67.969-1.008a14.033,14.033,0,0,0,4.206,7.274C528.343,302.37,525.631,301.968,525.01,300.892Z" transform="translate(-520.642 -268.857)" fill="#1a1818"/>
        <path id="Path_872" data-name="Path 872" d="M561.169,266.269a1,1,0,0,0,1-1v-3.239a1,1,0,0,0-2.005,0v3.239A1,1,0,0,0,561.169,266.269Z" transform="translate(-539.261 -261.024)" fill="#1a1818"/>
        <path id="Path_873" data-name="Path 873" d="M550.248,266.835a1,1,0,0,0,.968.744,1,1,0,0,0,.969-1.263l-.838-3.129a1,1,0,0,0-1.937.519Z" transform="translate(-533.88 -261.732)" fill="#1a1818"/>
        <path id="Path_874" data-name="Path 874" d="M541.073,270.919a1,1,0,0,0,1.737-1l-1.62-2.805a1,1,0,0,0-1.737,1Z" transform="translate(-528.866 -263.809)" fill="#1a1818"/>
        <path id="Path_875" data-name="Path 875" d="M533.268,277.238a1,1,0,0,0,1.418-1.418l-2.29-2.29a1,1,0,0,0-1.418,1.418Z" transform="translate(-524.561 -267.113)" fill="#1a1818"/>
        <path id="Path_876" data-name="Path 876" d="M524.559,283.742l2.805,1.619a1,1,0,1,0,1-1.737L525.562,282a1,1,0,0,0-1,1.737Z" transform="translate(-521.257 -271.418)" fill="#1a1818"/>
        <path id="Path_877" data-name="Path 877" d="M520.636,293.9l3.129.838a.991.991,0,0,0,.26.035,1,1,0,0,0,.259-1.971l-3.129-.838a1,1,0,1,0-.519,1.937Z" transform="translate(-519.18 -276.432)" fill="#1a1818"/>
        <path id="Path_878" data-name="Path 878" d="M523.717,303.721a1,1,0,0,0-1-1h-3.239a1,1,0,0,0,0,2.006h3.239A1,1,0,0,0,523.717,303.721Z" transform="translate(-518.472 -281.813)" fill="#1a1818"/>
        <path id="Path_879" data-name="Path 879" d="M542.442,333.366a1,1,0,0,0-1.37.367l-1.62,2.8a1,1,0,0,0,1.737,1l1.62-2.8A1,1,0,0,0,542.442,333.366Z" transform="translate(-528.866 -297.027)" fill="#1a1818"/>
        <path id="Path_880" data-name="Path 880" d="M551.476,336.784a1,1,0,0,0-1.228.709l-.838,3.129a1,1,0,1,0,1.937.519l.838-3.129A1,1,0,0,0,551.476,336.784Z" transform="translate(-533.88 -298.781)" fill="#1a1818"/>
        <path id="Path_881" data-name="Path 881" d="M561.169,337.952a1,1,0,0,0-1,1v3.239a1,1,0,1,0,2.005,0v-3.239A1,1,0,0,0,561.169,337.952Z" transform="translate(-539.261 -299.381)" fill="#1a1818"/>
        <path id="Path_882" data-name="Path 882" d="M571.257,337.493a1,1,0,1,0-1.937.519l.838,3.129a1,1,0,1,0,1.937-.519Z" transform="translate(-543.808 -298.781)" fill="#1a1818"/>
        <path id="Path_883" data-name="Path 883" d="M579.655,333.733a1,1,0,0,0-1.737,1l1.62,2.8a1,1,0,1,0,1.737-1Z" transform="translate(-548.045 -297.027)" fill="#1a1818"/>
        <path id="Path_884" data-name="Path 884" d="M586.792,327.926a1,1,0,0,0-1.418,1.418l2.29,2.29a1,1,0,0,0,1.418-1.418Z" transform="translate(-551.683 -294.235)" fill="#1a1818"/>
        <path id="Path_885" data-name="Path 885" d="M594.989,322.088l-2.8-1.62a1,1,0,1,0-1,1.737l2.8,1.62a1,1,0,0,0,1-1.737Z" transform="translate(-554.475 -290.596)" fill="#1a1818"/>
        <path id="Path_886" data-name="Path 886" d="M598.59,312.709l-3.129-.838a1,1,0,0,0-.519,1.937l3.129.838a1,1,0,0,0,.519-1.937Z" transform="translate(-556.23 -286.359)" fill="#1a1818"/>
        <path id="Path_887" data-name="Path 887" d="M599.642,302.718H596.4a1,1,0,1,0,0,2.006h3.239a1,1,0,0,0,0-2.006Z" transform="translate(-556.829 -281.813)" fill="#1a1818"/>
        <path id="Path_888" data-name="Path 888" d="M578.285,271.286a1,1,0,0,0,1.37-.367l1.619-2.805a1,1,0,1,0-1.737-1l-1.62,2.805A1,1,0,0,0,578.285,271.286Z" transform="translate(-548.045 -263.809)" fill="#1a1818"/>
        <path id="Path_889" data-name="Path 889" d="M570.029,267.544a1,1,0,0,0,1.228-.709l.838-3.129a1,1,0,1,0-1.937-.519l-.838,3.129A1,1,0,0,0,570.029,267.544Z" transform="translate(-543.808 -261.732)" fill="#1a1818"/>
      </g>
      <g id="Group_6147" data-name="Group 6147" transform="translate(141.995 133.754)">
        <path id="Path_890" data-name="Path 890" d="M331.576,296.583a3.793,3.793,0,1,1,3.793-3.793A3.8,3.8,0,0,1,331.576,296.583Zm0-5.581a1.787,1.787,0,1,0,1.787,1.787A1.789,1.789,0,0,0,331.576,291Z" transform="translate(-313.519 -288.997)" fill="#1a1818"/>
        <path id="Path_891" data-name="Path 891" d="M330.444,342.3h-6.18a1,1,0,0,1-1-.922l-1.339-16.41h-1.6a1,1,0,0,1-1-1V312.417a3.534,3.534,0,0,1,3.53-3.53h9.01a3.534,3.534,0,0,1,3.53,3.53v11.545a1,1,0,0,1-1,1h-1.6l-1.339,16.41A1,1,0,0,1,330.444,342.3Zm-5.255-2.006h4.331l1.339-16.41a1,1,0,0,1,1-.922h1.526V312.417a1.526,1.526,0,0,0-1.525-1.524h-9.01a1.526,1.526,0,0,0-1.524,1.524v10.542h1.526a1,1,0,0,1,1,.922Z" transform="translate(-309.3 -298.914)" fill="#1a1818"/>
        <path id="Path_892" data-name="Path 892" d="M310.591,296.583a3.793,3.793,0,1,1,3.793-3.793A3.8,3.8,0,0,1,310.591,296.583Zm0-5.581a1.787,1.787,0,1,0,1.787,1.787A1.789,1.789,0,0,0,310.591,291Z" transform="translate(-303.056 -288.997)" fill="#1a1818"/>
        <path id="Path_893" data-name="Path 893" d="M309.457,342.3H304.28a1,1,0,0,1-1-.922l-1.338-16.41h-1.6a1,1,0,0,1-1-1V312.417a3.534,3.534,0,0,1,3.53-3.53h3.495a1,1,0,1,1,0,2.006h-3.495a1.526,1.526,0,0,0-1.524,1.524v10.542h1.526a1,1,0,0,1,1,.922l1.339,16.41h4.253a1,1,0,0,1,0,2.006Z" transform="translate(-299.335 -298.914)" fill="#1a1818"/>
        <path id="Path_894" data-name="Path 894" d="M352.56,296.583a3.793,3.793,0,1,1,3.793-3.793A3.8,3.8,0,0,1,352.56,296.583Zm0-5.581a1.787,1.787,0,1,0,1.787,1.787A1.79,1.79,0,0,0,352.56,291Z" transform="translate(-323.982 -288.997)" fill="#1a1818"/>
        <path id="Path_895" data-name="Path 895" d="M355.351,342.3h-5.177a1,1,0,1,1,0-2.006h4.253l1.339-16.41a1,1,0,0,1,1-.922h1.526V312.417a1.526,1.526,0,0,0-1.524-1.524h-3.495a1,1,0,0,1,0-2.006h3.495a3.534,3.534,0,0,1,3.53,3.53v11.545a1,1,0,0,1-1,1h-1.6l-1.339,16.41A1,1,0,0,1,355.351,342.3Z" transform="translate(-324.183 -298.914)" fill="#1a1818"/>
      </g>
      <g id="Group_6148" data-name="Group 6148" transform="translate(302.801 132.669)">
        <path id="Path_896" data-name="Path 896" d="M624.775,319.074a1,1,0,0,1-.97-1.255l3.043-11.683h-5.791a1,1,0,0,1-.833-1.561l11.593-17.3a1,1,0,0,1,1.8.811l-3.044,11.687h5.789a1,1,0,0,1,.833,1.561L625.608,318.63A1,1,0,0,1,624.775,319.074Zm-1.839-14.944h5.209a1,1,0,0,1,.97,1.255l-1.878,7.212,7.25-10.816h-5.208a1,1,0,0,1-.97-1.255l1.879-7.215Z" transform="translate(-620.054 -286.834)" fill="#1a1818"/>
      </g>
      <path id="Path_897" data-name="Path 897" d="M428.568,474.8a10.586,10.586,0,0,0-.006-14.879c-.018-.021-.033-.044-.052-.064s-.044-.035-.065-.053a10.607,10.607,0,0,0-18.057,7.558h0a10.607,10.607,0,0,0,18.053,7.564c.023-.019.048-.035.07-.057S428.548,474.825,428.568,474.8Zm-.815-2.106-5.331-5.331,5.33-5.33a8.562,8.562,0,0,1,0,10.662Zm-5.746-13.877a8.559,8.559,0,0,1,4.328,1.8l-4.328,4.328Zm-2.005,0v7.543h-7.544A8.62,8.62,0,0,1,420,458.819Zm-7.544,9.549h8.132l5.746,5.747a8.593,8.593,0,0,1-13.878-5.747Z" transform="translate(-212.712 -238.886)" fill="#1a1818"/>
      <g id="Group_6149" data-name="Group 6149" transform="translate(85.932 220.809)">
        <path id="Path_898" data-name="Path 898" d="M219.074,470.662a.987.987,0,0,0-.039-.127c-.007-.02-.011-.04-.019-.06a1.029,1.029,0,0,0-.069-.13c-.009-.014-.014-.029-.023-.042a1,1,0,0,0-.125-.152l-7.232-7.233a1.05,1.05,0,0,0-.152-.125c-.013-.009-.028-.015-.042-.023a.982.982,0,0,0-.13-.07c-.019-.008-.04-.012-.06-.019a1.094,1.094,0,0,0-.127-.039,1.013,1.013,0,0,0-.2-.02H192.84a1,1,0,0,0-1,1v3.313h-3.313a1,1,0,0,0-1,1V500.62a1,1,0,0,0,1,1h25.251a1,1,0,0,0,1-1v-3.313h3.313a1,1,0,0,0,1-1V470.86A1.011,1.011,0,0,0,219.074,470.662Zm-7.213-4.614,3.81,3.81h-3.81Zm.912,33.569H189.528V468.946h2.31V496.3a1,1,0,0,0,1,1h19.932Zm-18.93-4.315V464.63h16.012v6.231a1,1,0,0,0,1,1h6.23V495.3Z" transform="translate(-187.522 -462.624)" fill="#1a1818"/>
        <path id="Path_899" data-name="Path 899" d="M205.67,479.057h8.338a1,1,0,0,0,0-2.006H205.67a1,1,0,0,0,0,2.006Z" transform="translate(-196.071 -469.817)" fill="#1a1818"/>
        <path id="Path_900" data-name="Path 900" d="M222.346,486.133H205.67a1,1,0,1,0,0,2.006h16.676a1,1,0,0,0,0-2.006Z" transform="translate(-196.071 -474.346)" fill="#1a1818"/>
        <path id="Path_901" data-name="Path 901" d="M222.346,495.215H205.67a1,1,0,0,0,0,2.006h16.676a1,1,0,0,0,0-2.006Z" transform="translate(-196.071 -478.874)" fill="#1a1818"/>
        <path id="Path_902" data-name="Path 902" d="M222.346,504.3H205.67a1,1,0,1,0,0,2.006h16.676a1,1,0,1,0,0-2.006Z" transform="translate(-196.071 -483.402)" fill="#1a1818"/>
        <path id="Path_903" data-name="Path 903" d="M222.346,513.379H205.67a1,1,0,1,0,0,2.006h16.676a1,1,0,1,0,0-2.006Z" transform="translate(-196.071 -487.931)" fill="#1a1818"/>
      </g>
      <g id="Group_6150" data-name="Group 6150" transform="translate(165.446 242.401)">
        <path id="Path_904" data-name="Path 904" d="M430.154,562.79a1,1,0,0,0-1.339.465q-.2.411-.422.81a1,1,0,0,0,1.751.978q.25-.449.476-.914A1,1,0,0,0,430.154,562.79Z" transform="translate(-387.072 -534.108)" fill="#1a1818"/>
        <path id="Path_905" data-name="Path 905" d="M432.9,554.461a1,1,0,0,0-1.178.791c-.059.3-.126.6-.2.892a1,1,0,0,0,1.943.5q.127-.5.227-1A1,1,0,0,0,432.9,554.461Z" transform="translate(-388.681 -529.996)" fill="#1a1818"/>
        <path id="Path_906" data-name="Path 906" d="M417.572,575.983q-.375.261-.765.5a1,1,0,0,0,.526,1.857.992.992,0,0,0,.524-.149q.438-.269.859-.562a1,1,0,0,0-1.145-1.646Z" transform="translate(-381.121 -540.647)" fill="#1a1818"/>
        <path id="Path_907" data-name="Path 907" d="M423.988,570.318q-.3.348-.614.679a1,1,0,1,0,1.449,1.385q.356-.371.689-.761a1,1,0,1,0-1.525-1.3Z" transform="translate(-384.495 -537.737)" fill="#1a1818"/>
        <path id="Path_908" data-name="Path 908" d="M409.983,579.88q-.426.156-.863.289a1,1,0,0,0,.289,1.963,1.022,1.022,0,0,0,.29-.043q.494-.149.976-.327a1,1,0,1,0-.691-1.882Z" transform="translate(-377.17 -542.649)" fill="#1a1818"/>
        <path id="Path_909" data-name="Path 909" d="M433.433,545.768a1,1,0,0,0-.94,1.061q.027.454.029.914a1,1,0,0,0,1,1h0a1,1,0,0,0,1-1.006q0-.518-.033-1.029A1,1,0,0,0,433.433,545.768Z" transform="translate(-389.179 -525.67)" fill="#1a1818"/>
        <path id="Path_910" data-name="Path 910" d="M374.9,569.217c-.156.015-.313.028-.47.037-.017,0-.032.007-.048.008V558.345a1,1,0,0,0-1-1h-15.52a1,1,0,0,0-1.921,0h-8.832a1,1,0,0,0-1,1v16.031a1,1,0,0,0,1,1h26.273a1,1,0,0,0,1-1v-3.129a1.017,1.017,0,0,0,.111.01h.065c.177-.012.354-.026.529-.042a1,1,0,1,0-.188-2Zm-2.523,4.156H348.114V559.348h24.267Z" transform="translate(-346.108 -531.081)" fill="#1a1818"/>
        <path id="Path_911" data-name="Path 911" d="M365.533,551c.021,0,.042,0,.062,0a1,1,0,0,0,.94-1.062c-.018-.3-.029-.6-.03-.911a1,1,0,0,0-1-1h0a1,1,0,0,0-1,1.007q0,.517.034,1.024A1,1,0,0,0,365.533,551Z" transform="translate(-355.278 -526.798)" fill="#1a1818"/>
        <path id="Path_912" data-name="Path 912" d="M368.428,534.146a1,1,0,0,0,1.339-.468q.2-.412.419-.809a1,1,0,1,0-1.754-.974q-.248.447-.471.911A1,1,0,0,0,368.428,534.146Z" transform="translate(-356.954 -518.498)" fill="#1a1818"/>
        <path id="Path_913" data-name="Path 913" d="M379.992,521.474a1,1,0,0,0,.575-.182q.371-.262.759-.5a1,1,0,0,0-1.057-1.705q-.435.271-.854.565a1,1,0,0,0,.578,1.823Z" transform="translate(-362.502 -512.293)" fill="#1a1818"/>
        <path id="Path_914" data-name="Path 914" d="M387.651,517.661a1,1,0,0,0,.35-.064q.424-.158.859-.292a1,1,0,0,0-.591-1.916c-.327.1-.651.211-.969.329a1,1,0,0,0,.351,1.943Z" transform="translate(-366.322 -510.502)" fill="#1a1818"/>
        <path id="Path_915" data-name="Path 915" d="M365.939,542.362a.989.989,0,0,0,.194.019,1,1,0,0,0,.983-.811q.088-.449.2-.89a1,1,0,1,0-1.944-.492c-.083.329-.159.662-.225,1A1,1,0,0,0,365.939,542.362Z" transform="translate(-355.592 -522.512)" fill="#1a1818"/>
        <path id="Path_916" data-name="Path 916" d="M373.591,527.125a1,1,0,0,0,.765-.353q.295-.347.609-.677a1,1,0,1,0-1.452-1.383q-.354.37-.685.761a1,1,0,0,0,.763,1.653Z" transform="translate(-359.312 -515.018)" fill="#1a1818"/>
        <path id="Path_917" data-name="Path 917" d="M424.091,505.687H397.817a1,1,0,0,0-1,1v3.15a.99.99,0,0,0-.268-.023c-.178.012-.354.028-.53.045a1,1,0,0,0,.1,2,.975.975,0,0,0,.1-.005c.156-.016.313-.029.47-.04a.988.988,0,0,0,.128-.022v10.926a1,1,0,0,0,1,1h15.544a1,1,0,0,0,1.911,0h8.819a1,1,0,0,0,1-1V506.69A1,1,0,0,0,424.091,505.687Zm-1,16.031H398.82V507.693h24.267Z" transform="translate(-370.543 -505.687)" fill="#1a1818"/>
        <path id="Path_918" data-name="Path 918" d="M410.081,523.44a1,1,0,0,0,1.34-1.492L408.5,519.33l2.918-2.618a1,1,0,0,0-1.34-1.492l-3.749,3.364a1,1,0,0,0,0,1.492Z" transform="translate(-375.97 -510.312)" fill="#1a1818"/>
        <path id="Path_919" data-name="Path 919" d="M421.5,523.571a1,1,0,0,0,1.363-.391l3.727-6.729a1,1,0,1,0-1.754-.972l-3.727,6.729A1,1,0,0,0,421.5,523.571Z" transform="translate(-383.443 -510.312)" fill="#1a1818"/>
        <path id="Path_920" data-name="Path 920" d="M436.19,523.365a1,1,0,0,0,1.416.076l3.749-3.364a1,1,0,0,0,0-1.492l-3.749-3.364a1,1,0,0,0-1.34,1.492l2.918,2.618-2.918,2.618A1,1,0,0,0,436.19,523.365Z" transform="translate(-390.895 -510.312)" fill="#1a1818"/>
        <path id="Path_921" data-name="Path 921" d="M357.683,575.817a1,1,0,1,0,1.339-1.492l-2.918-2.618,2.918-2.618a1,1,0,1,0-1.339-1.492l-3.75,3.364a1,1,0,0,0,0,1.492Z" transform="translate(-349.844 -536.427)" fill="#1a1818"/>
        <path id="Path_922" data-name="Path 922" d="M369.106,575.948a1,1,0,0,0,1.363-.391l3.728-6.729a1,1,0,0,0-1.754-.972l-3.728,6.729A1,1,0,0,0,369.106,575.948Z" transform="translate(-357.317 -536.427)" fill="#1a1818"/>
        <path id="Path_923" data-name="Path 923" d="M383.791,575.741a1,1,0,0,0,1.416.076l3.75-3.364a1,1,0,0,0,0-1.492l-3.75-3.364a1,1,0,1,0-1.339,1.492l2.918,2.618-2.918,2.618A1,1,0,0,0,383.791,575.741Z" transform="translate(-364.769 -536.427)" fill="#1a1818"/>
      </g>
      <g id="Group_6151" data-name="Group 6151" transform="translate(180.337 77.324)">
        <path id="Path_924" data-name="Path 924" d="M403.908,208.535a2.909,2.909,0,0,0,.385.233c.213.108,9.854,4.876,9.951,4.923a1,1,0,0,0,1.156-1.6c-.073-.074-7.671-7.738-7.818-7.883a2.945,2.945,0,0,0-.34-.287,2.852,2.852,0,0,0-3.969.633c-.008.01-.014.02-.021.03A2.852,2.852,0,0,0,403.908,208.535Zm.973-2.787.011-.015a.846.846,0,0,1,1.177-.19.9.9,0,0,1,.1.088l3.568,3.6c-2.276-1.126-4.43-2.191-4.54-2.246h0a.918.918,0,0,1-.118-.072A.845.845,0,0,1,404.882,205.748Z" transform="translate(-389.231 -189.878)" fill="#1a1818"/>
        <path id="Path_925" data-name="Path 925" d="M407.72,197.742a16.213,16.213,0,0,0-.018-9.977c0-.007,0-.013,0-.019s-.008-.015-.01-.023a16.409,16.409,0,0,0-5.861-8.091c-.023-.02-.042-.041-.066-.059s-.062-.036-.093-.054a16.291,16.291,0,0,0-19.029,0,.917.917,0,0,0-.093.054c-.024.018-.044.04-.066.059a16.409,16.409,0,0,0-5.861,8.091c0,.008-.008.015-.01.023s0,.013,0,.019a16.215,16.215,0,0,0-.018,9.977.97.97,0,0,0,.023.106.773.773,0,0,0,.038.073,16.407,16.407,0,0,0,5.9,8.1,1,1,0,0,0,1.4-.221l1.476-2.03a1,1,0,0,0-1.623-1.179l-.864,1.19a14.414,14.414,0,0,1-4.07-5.609l1.395-.453a1,1,0,0,0-.62-1.908l-1.393.453a14.171,14.171,0,0,1-.008-6.93l1.4.455a1,1,0,1,0,.62-1.907l-1.4-.455a14.4,14.4,0,0,1,4.077-5.6l.861,1.186a1,1,0,0,0,1.623-1.179l-.863-1.187a14.245,14.245,0,0,1,6.59-2.144v1.471a1,1,0,0,0,2.006,0V178.5a14.245,14.245,0,0,1,6.59,2.144l-.863,1.187a1,1,0,0,0,1.623,1.179l.861-1.186a14.4,14.4,0,0,1,4.077,5.6l-1.4.455a1,1,0,1,0,.62,1.907l1.4-.455a14.184,14.184,0,0,1-.008,6.93l-1.393-.453a1,1,0,0,0-.62,1.908l1.395.453a14.413,14.413,0,0,1-4.07,5.609l-.864-1.19a1,1,0,0,0-1.623,1.179l1.476,2.03a1,1,0,0,0,.655.4,1.026,1.026,0,0,0,.156.012,1,1,0,0,0,.59-.192,16.407,16.407,0,0,0,5.9-8.1c.011-.026.029-.046.038-.073A.981.981,0,0,0,407.72,197.742Z" transform="translate(-375.807 -176.452)" fill="#1a1818"/>
        <path id="Path_926" data-name="Path 926" d="M407.424,230.9h-5.563a1,1,0,1,0,0,2.006h5.563a1,1,0,0,0,0-2.006Z" transform="translate(-388.298 -203.6)" fill="#1a1818"/>
      </g>
      <path id="Path_927" data-name="Path 927" d="M45.938,390.042h-.414v-4.781a8.7,8.7,0,0,0-17.394,0v4.781h-.414a2.811,2.811,0,0,0-2.808,2.808v10.636a2.811,2.811,0,0,0,2.808,2.808H45.938a2.811,2.811,0,0,0,2.808-2.808V392.85A2.811,2.811,0,0,0,45.938,390.042Zm-15.8-4.781a6.691,6.691,0,0,1,13.383,0v4.781h-2.19v-4.781a4.5,4.5,0,0,0-9,0v4.781h-2.19Zm9.187,4.781H34.331v-4.781a2.5,2.5,0,0,1,4.992,0Zm7.417,13.443a.8.8,0,0,1-.8.8H27.717a.8.8,0,0,1-.8-.8V392.85a.8.8,0,0,1,.8-.8H45.938a.8.8,0,0,1,.8.8Z" transform="translate(-20.51 -198.905)" fill="#1a1818"/>
      <g id="Group_6152" data-name="Group 6152" transform="translate(93.932 168.415)">
        <path id="Path_928" data-name="Path 928" d="M252.54,390.908a16.35,16.35,0,0,1-11.118-4.348,1,1,0,1,1,1.361-1.473,14.555,14.555,0,0,0,1.855,1.452,14.385,14.385,0,1,0-5.974-15.828,1,1,0,0,1-1.934-.529,16.392,16.392,0,1,1,15.811,20.725Z" transform="translate(-220.039 -358.126)" fill="#1a1818"/>
        <path id="Path_929" data-name="Path 929" d="M257.085,390.884a12.052,12.052,0,0,1-9.611-4.781,1,1,0,0,1,1.6-1.211,10.107,10.107,0,0,0,1.7,1.755,9.931,9.931,0,0,0,6.313,2.232,10.045,10.045,0,1,0-9.342-13.744,1,1,0,1,1-1.864-.74,12.052,12.052,0,1,1,11.206,16.489Z" transform="translate(-224.584 -362.442)" fill="#1a1818"/>
        <path id="Path_930" data-name="Path 930" d="M261.992,390.859a7.667,7.667,0,0,1-6.13-3.028,1,1,0,1,1,1.591-1.22,5.713,5.713,0,1,0,0-6.935,1,1,0,1,1-1.594-1.217,7.719,7.719,0,1,1,6.137,12.4Z" transform="translate(-229.491 -366.75)" fill="#1a1818"/>
        <path id="Path_931" data-name="Path 931" d="M235.979,376.169a3.391,3.391,0,0,0-3.233,2.382h-7.5a1,1,0,0,0-.945.667l-2.73,7.665-6.407-17.988a1,1,0,0,0-1.889,0l-3.44,9.656h-5.355a1,1,0,0,0,0,2.006h6.063a1,1,0,0,0,.945-.666l2.732-7.67,6.407,17.988a1,1,0,0,0,1.89,0l3.437-9.651h6.791a3.386,3.386,0,1,0,3.233-4.388Zm0,4.765a1.38,1.38,0,1,1,1.38-1.38A1.382,1.382,0,0,1,235.979,380.934Z" transform="translate(-203.478 -363.163)" fill="#1a1818"/>
      </g>
      <path id="Path_932" data-name="Path 932" d="M441.795,314.526c.006-.12.008-.237.008-.353a9.966,9.966,0,0,0-19.061-4.073,6.772,6.772,0,0,0-8.589,2.591l-1.344-.571-.02-.009-13.079-5.557a1,1,0,0,0-.844.027l-13.008,6.557a1,1,0,0,0-.551.9v39.248a1,1,0,0,0,.72.962l13,3.822c.019.006.039,0,.058.008a.975.975,0,0,0,.159.023c.023,0,.044.01.067.01s.034-.005.051-.006a.99.99,0,0,0,.178-.022h.012l13.031-3.228a.934.934,0,0,0,.1-.025l21.457-5.316a1,1,0,0,0,.762-.974V328.991h5.419a7.307,7.307,0,0,0,1.476-14.465Zm-8.9,8.308v1.549l-7.5-2.5v-2.239Zm0,11.748-7.5-.6v-1.87l7.5,1.216Zm-9.508-.766-9.975-.8v-2.847l9.975,1.617Zm-11.981-.965-11.086-.892v-3.915l11.086,1.8Zm0,2.012v2.958H400.32v-3.85Zm2.006.161,9.975.8v1.993h-9.975Zm11.981.965,7.5.6v1.227h-7.5Zm7.5-4.7-7.5-1.216v-1.946l7.5,1.845Zm-9.508-1.541-9.975-1.617v-2.949l9.975,2.452Zm-11.981-1.942-11.086-1.8v-4.045l11.086,2.726ZM400.32,345.692l11.086-.893v3.012l-11.086,1.8Zm0-2.012v-3.854h11.086v2.961Zm13.092-3.854h9.975v2l-9.975.8Zm11.981,0h7.5v1.23l-7.5.6Zm7.5-11.918-7.5-1.844V324l7.5,2.5Zm-9.508-2.337-9.975-2.452v-3.11l9.975,3.321Zm-11.981-2.945L400.32,319.9v-4.251l11.086,3.691Zm-11.086-9.09v-4.543l11.086,4.71v3.524Zm0,38.1,11.086-1.8v3.231l-11.086,2.747Zm13.092-2.123,9.975-1.617v2.206l-9.975,2.471Zm0-2.032v-2.848l9.975-.8v2.034Zm11.981-3.813,7.5-.6v1.259l-7.5,1.216Zm-2.006-22.455-9.975-3.321v-3.34l9.975,4.238Zm-36.074-6.564,11-5.546v11.538a.109.109,0,0,1,0,.013V338.8c0,.007,0,.013,0,.02s0,.013,0,.02v11.885c0,.019,0,.038,0,.057v4.982l-11-3.235Zm38.08,34.957v-2.034l7.5-1.216v1.392Zm14.927-22.624H434.9V322.17a1,1,0,0,0-.611-.923l-9.5-4.036-.019-.008-8.729-3.709a4.743,4.743,0,0,1,6.641-1.118,1,1,0,0,0,1.542-.524,7.959,7.959,0,0,1,15.572,2.32,7.994,7.994,0,0,1-.083,1.083,1,1,0,0,0,.932,1.136,5.3,5.3,0,0,1-.327,10.593Z" transform="translate(-200.207 -162.828)" fill="#1a1818"/>
      <path id="Path_933" data-name="Path 933" d="M472.4,154.358l-6.841-8.237a12.623,12.623,0,1,0-4.722,3.925l6.84,8.235a3.051,3.051,0,0,0,2.078,1.1c.1.009.193.013.288.013a3.07,3.07,0,0,0,2.357-5.032Zm-27.669-15.71a10.638,10.638,0,1,1,10.638,10.638A10.65,10.65,0,0,1,444.727,138.648Zm25.987,18.49a1.064,1.064,0,0,1-1.5-.139l-6.63-7.982a12.741,12.741,0,0,0,1.638-1.36l6.63,7.981a1.065,1.065,0,0,1-.139,1.5Z" transform="translate(-228.833 -73.975)" fill="#1a1818"/>
      <path id="Path_934" data-name="Path 934" d="M161.146,636.322a.927.927,0,0,1-.928-.927,4.346,4.346,0,0,0-4.493-4.494.927.927,0,1,1,0-1.855,4.346,4.346,0,0,0,4.493-4.493.928.928,0,0,1,1.855,0,4.346,4.346,0,0,0,4.493,4.493.927.927,0,1,1,0,1.855,4.346,4.346,0,0,0-4.493,4.494A.928.928,0,0,1,161.146,636.322Zm-2.021-6.349a6.053,6.053,0,0,1,2.021,2.021,6.054,6.054,0,0,1,2.021-2.021,6.053,6.053,0,0,1-2.021-2.021A6.053,6.053,0,0,1,159.125,629.973Z" transform="translate(-85.273 -322.091)" fill="#1a1818"/>
      <path id="Path_935" data-name="Path 935" d="M538.727,636.322a.927.927,0,0,1-.927-.927,4.347,4.347,0,0,0-4.494-4.494.927.927,0,1,1,0-1.855,4.347,4.347,0,0,0,4.494-4.493.927.927,0,1,1,1.855,0,4.347,4.347,0,0,0,4.494,4.493.927.927,0,1,1,0,1.855,4.346,4.346,0,0,0-4.494,4.494A.927.927,0,0,1,538.727,636.322Zm-2.021-6.349a6.047,6.047,0,0,1,2.021,2.021,6.056,6.056,0,0,1,2.022-2.021,6.056,6.056,0,0,1-2.022-2.021A6.047,6.047,0,0,1,536.706,629.973Z" transform="translate(-273.537 -322.091)" fill="#1a1818"/>
      <path id="Path_936" data-name="Path 936" d="M326.7,601.886a.927.927,0,0,1-.928-.928,4.346,4.346,0,0,0-4.493-4.494.927.927,0,1,1,0-1.855,4.346,4.346,0,0,0,4.493-4.494.928.928,0,0,1,1.855,0,4.346,4.346,0,0,0,4.493,4.494.927.927,0,0,1,0,1.855,4.347,4.347,0,0,0-4.493,4.494A.927.927,0,0,1,326.7,601.886Zm-2.021-6.349a6.048,6.048,0,0,1,2.021,2.021,6.05,6.05,0,0,1,2.021-2.021,6.044,6.044,0,0,1-2.021-2.021A6.043,6.043,0,0,1,324.677,595.537Z" transform="translate(-167.818 -304.921)" fill="#1a1818"/>
      <path id="Path_937" data-name="Path 937" d="M625.433,585.047a.927.927,0,0,1-.927-.927,4.347,4.347,0,0,0-4.493-4.494.927.927,0,1,1,0-1.855,4.346,4.346,0,0,0,4.493-4.494.927.927,0,0,1,1.855,0,4.346,4.346,0,0,0,4.493,4.494.927.927,0,1,1,0,1.855,4.347,4.347,0,0,0-4.493,4.494A.927.927,0,0,1,625.433,585.047Zm-2.021-6.349a6.05,6.05,0,0,1,2.021,2.021,6.055,6.055,0,0,1,2.022-2.021,6.054,6.054,0,0,1-2.022-2.021A6.049,6.049,0,0,1,623.412,578.7Z" transform="translate(-316.769 -296.525)" fill="#1a1818"/>
      <path id="Path_938" data-name="Path 938" d="M262.757,443.784a.927.927,0,0,1-.928-.927,4.346,4.346,0,0,0-4.493-4.494.927.927,0,1,1,0-1.855,4.346,4.346,0,0,0,4.493-4.494.928.928,0,0,1,1.855,0,4.346,4.346,0,0,0,4.493,4.494.927.927,0,1,1,0,1.855,4.346,4.346,0,0,0-4.493,4.494A.927.927,0,0,1,262.757,443.784Zm-2.021-6.349a6.05,6.05,0,0,1,2.021,2.021,6.059,6.059,0,0,1,2.021-2.021,6.056,6.056,0,0,1-2.021-2.021A6.048,6.048,0,0,1,260.736,437.435Z" transform="translate(-135.937 -226.09)" fill="#1a1818"/>
      <path id="Path_939" data-name="Path 939" d="M128.108,278.716a.928.928,0,0,1-.928-.928,4.346,4.346,0,0,0-4.493-4.493.928.928,0,1,1,0-1.855,4.346,4.346,0,0,0,4.493-4.493.928.928,0,1,1,1.855,0,4.346,4.346,0,0,0,4.494,4.493.928.928,0,0,1,0,1.855,4.346,4.346,0,0,0-4.494,4.493A.928.928,0,0,1,128.108,278.716Zm-2.021-6.349a6.049,6.049,0,0,1,2.021,2.021,6.053,6.053,0,0,1,2.021-2.021,6.059,6.059,0,0,1-2.021-2.021A6.054,6.054,0,0,1,126.087,272.368Z" transform="translate(-68.8 -143.786)" fill="#1a1818"/>
      <path id="Path_940" data-name="Path 940" d="M470.716,107.777a.927.927,0,0,1-.928-.928,4.346,4.346,0,0,0-4.493-4.494.928.928,0,0,1,0-1.855,4.346,4.346,0,0,0,4.493-4.493.927.927,0,1,1,1.855,0,4.346,4.346,0,0,0,4.494,4.493.928.928,0,0,1,0,1.855,4.346,4.346,0,0,0-4.494,4.494A.927.927,0,0,1,470.716,107.777Zm-2.021-6.349a6.053,6.053,0,0,1,2.021,2.021,6.058,6.058,0,0,1,2.021-2.021,6.056,6.056,0,0,1-2.021-2.021A6.052,6.052,0,0,1,468.695,101.428Z" transform="translate(-239.627 -58.555)" fill="#1a1818"/>
      <path id="Path_941" data-name="Path 941" d="M361.406,39.679a.928.928,0,0,1-.927-.928,4.346,4.346,0,0,0-4.493-4.494.928.928,0,0,1,0-1.855,4.346,4.346,0,0,0,4.493-4.494.927.927,0,1,1,1.855,0,4.346,4.346,0,0,0,4.493,4.494.928.928,0,0,1,0,1.855,4.346,4.346,0,0,0-4.493,4.494A.928.928,0,0,1,361.406,39.679Zm-2.021-6.349a6.052,6.052,0,0,1,2.021,2.021,6.053,6.053,0,0,1,2.021-2.021,6.053,6.053,0,0,1-2.021-2.021A6.052,6.052,0,0,1,359.386,33.331Z" transform="translate(-185.124 -24.601)" fill="#1a1818"/>
      <path id="Path_942" data-name="Path 942" d="M438.812,286.323a.928.928,0,0,1-.927-.928,4.346,4.346,0,0,0-4.493-4.494.928.928,0,1,1,0-1.855,4.346,4.346,0,0,0,4.493-4.493.927.927,0,1,1,1.855,0,4.346,4.346,0,0,0,4.494,4.493.928.928,0,0,1,0,1.855,4.346,4.346,0,0,0-4.494,4.494A.928.928,0,0,1,438.812,286.323Zm-2.021-6.349A6.053,6.053,0,0,1,438.812,282a6.055,6.055,0,0,1,2.022-2.021,6.051,6.051,0,0,1-2.022-2.021A6.048,6.048,0,0,1,436.791,279.975Z" transform="translate(-223.719 -147.579)" fill="#1a1818"/>
      <path id="Path_943" data-name="Path 943" d="M546.213,179.748a.928.928,0,0,1-.928-.928,4.346,4.346,0,0,0-4.493-4.493.928.928,0,0,1,0-1.856,4.346,4.346,0,0,0,4.493-4.493.927.927,0,1,1,1.855,0,4.346,4.346,0,0,0,4.493,4.493.928.928,0,0,1,0,1.856,4.346,4.346,0,0,0-4.493,4.493A.928.928,0,0,1,546.213,179.748Zm-2.021-6.349a6.053,6.053,0,0,1,2.021,2.021,6.057,6.057,0,0,1,2.021-2.021,6.051,6.051,0,0,1-2.021-2.021A6.048,6.048,0,0,1,544.192,173.4Z" transform="translate(-277.27 -94.44)" fill="#1a1818"/>
      <path id="Path_944" data-name="Path 944" d="M620.471,272.17a.927.927,0,0,1-.928-.928,4.346,4.346,0,0,0-4.494-4.493.928.928,0,1,1,0-1.855,4.346,4.346,0,0,0,4.494-4.494.927.927,0,1,1,1.855,0,4.346,4.346,0,0,0,4.493,4.494.928.928,0,1,1,0,1.855,4.346,4.346,0,0,0-4.493,4.493A.927.927,0,0,1,620.471,272.17Zm-2.021-6.348a6.05,6.05,0,0,1,2.021,2.021,6.043,6.043,0,0,1,2.021-2.021,6.048,6.048,0,0,1-2.021-2.021A6.055,6.055,0,0,1,618.45,265.822Z" transform="translate(-314.295 -140.523)" fill="#1a1818"/>
      <g id="Group_6153" data-name="Group 6153" transform="translate(5.586 276.634)">
        <path id="Path_945" data-name="Path 945" d="M60.823,573.962H30.807a3.534,3.534,0,0,0-3.53,3.53v30.016a3.534,3.534,0,0,0,3.53,3.53H60.823a3.534,3.534,0,0,0,3.53-3.53V577.492A3.534,3.534,0,0,0,60.823,573.962Zm1.524,33.546a1.526,1.526,0,0,1-1.524,1.524H30.807a1.526,1.526,0,0,1-1.524-1.524V577.492a1.526,1.526,0,0,1,1.524-1.524H60.823a1.526,1.526,0,0,1,1.524,1.524Z" transform="translate(-27.277 -573.962)" fill="#1a1818"/>
        <path id="Path_946" data-name="Path 946" d="M54.359,591.1a9.946,9.946,0,1,0,9.946,9.946A9.957,9.957,0,0,0,54.359,591.1Zm4.74,16.3-.4-.7a.927.927,0,1,0-1.606.927l.408.707a7.855,7.855,0,0,1-2.211.591v-.815a.928.928,0,0,0-1.855,0v.815a7.858,7.858,0,0,1-2.211-.591l.409-.707a.928.928,0,1,0-1.607-.927l-.4.7A7.985,7.985,0,0,1,48,605.784l.7-.4a.928.928,0,0,0-.928-1.607l-.707.408a7.887,7.887,0,0,1-.591-2.211h.815a.927.927,0,1,0,0-1.855h-.815a7.894,7.894,0,0,1,.591-2.211l.707.408a.928.928,0,0,0,.928-1.607l-.7-.4a7.991,7.991,0,0,1,1.615-1.615l.4.7a.928.928,0,0,0,1.607-.927l-.409-.708a7.9,7.9,0,0,1,2.211-.591v.815a.928.928,0,0,0,1.855,0v-.815a7.892,7.892,0,0,1,2.211.591l-.408.708a.927.927,0,1,0,1.606.927l.4-.7a8,8,0,0,1,1.615,1.615l-.7.4a.928.928,0,1,0,.928,1.607l.707-.408a7.871,7.871,0,0,1,.59,2.211h-.815a.927.927,0,1,0,0,1.855h.815a7.872,7.872,0,0,1-.59,2.211l-.707-.409a.928.928,0,0,0-.928,1.607l.7.4A7.987,7.987,0,0,1,59.1,607.4Z" transform="translate(-35.821 -582.506)" fill="#1a1818"/>
        <path id="Path_947" data-name="Path 947" d="M60.366,603.146a3.905,3.905,0,1,0,3.905,3.905A3.91,3.91,0,0,0,60.366,603.146Zm0,5.805a1.9,1.9,0,1,1,1.9-1.9A1.9,1.9,0,0,1,60.366,608.951Z" transform="translate(-41.828 -588.513)" fill="#1a1818"/>
        <path id="Path_948" data-name="Path 948" d="M64.987,586.133h-.66v-2.006a1,1,0,0,0-1-1H37.443a1,1,0,0,0-1,1v25.882a1,1,0,0,0,1,1H63.324a1,1,0,0,0,1-1V608h.66a1,1,0,0,0,1-1v-5.732a1,1,0,0,0-1-1h-.66v-6.394h.66a1,1,0,0,0,1-1v-5.732A1,1,0,0,0,64.987,586.133Zm-1,2.006v3.727H62.664v-3.727ZM62.664,606v-3.727h1.321V606Zm-.342-5.733h-.66a1,1,0,0,0-1,1V607a1,1,0,0,0,1,1h.66v1H38.446V585.13H62.321v1h-.66a1,1,0,0,0-1,1v5.732a1,1,0,0,0,1,1h.66Z" transform="translate(-31.846 -578.531)" fill="#1a1818"/>
      </g>
      <path id="Path_949" data-name="Path 949" d="M610.578,97.712a2.664,2.664,0,0,0-2.464,1.661H593.691a1,1,0,0,0-1,1v4.253h-9.106a2.664,2.664,0,1,0,0,2.006h10.109a1,1,0,0,0,1-1v-4.253h13.42a2.662,2.662,0,1,0,2.464-3.667Zm-29.46,8.728a.809.809,0,1,1,.809-.809A.809.809,0,0,1,581.117,106.44Zm29.46-5.256a.808.808,0,1,1,.809-.809A.81.81,0,0,1,610.578,101.185Z" transform="translate(-296.511 -59.868)" fill="#1a1818"/>
      <path id="Path_950" data-name="Path 950" d="M464.438,123.543a2.667,2.667,0,0,0-2.663,2.664,2.636,2.636,0,0,0,.1.684l-8.411,6.371a2.633,2.633,0,0,0-1.352-.382c-.066,0-.127.015-.191.02l-8.279-16.7a2.661,2.661,0,1,0-3.929.058l-3.542,7.675c-.041,0-.079-.012-.12-.012a2.658,2.658,0,0,0-2.635,2.386l-12.382,3.6a2.639,2.639,0,0,0-3.571-.554l-12.043-8.027a2.664,2.664,0,1,0-5.274-.534,2.642,2.642,0,0,0,.5,1.541l-5.769,9.1a2.5,2.5,0,0,0-1.647.238l-4.35-3.844a2.625,2.625,0,0,0,.159-.875,2.663,2.663,0,0,0-5.327,0c0,.042.011.08.012.121l-9.544,4.412a2.656,2.656,0,1,0,.852,1.942c0-.042-.01-.08-.012-.121l9.544-4.412a2.606,2.606,0,0,0,2.987.436l4.35,3.844a2.629,2.629,0,0,0-.159.875,2.664,2.664,0,1,0,5.327,0,2.638,2.638,0,0,0-.5-1.541l5.769-9.1a2.579,2.579,0,0,0,1.966-.414l12.043,8.027a2.657,2.657,0,1,0,5.245.812l12.382-3.6a2.653,2.653,0,1,0,4.017-3.46l3.542-7.675c.041,0,.079.012.119.012.066,0,.127-.015.191-.02l8.278,16.7a2.672,2.672,0,1,0,4.552,1.07l8.41-6.371a2.639,2.639,0,0,0,1.352.381,2.664,2.664,0,0,0,0-5.327Zm-22.784-9.91a.809.809,0,1,1-.809.808A.809.809,0,0,1,441.654,113.633Zm-69.285,20.6a.808.808,0,1,1,.809-.808A.809.809,0,0,1,372.369,134.237Zm13.2-7.284a.809.809,0,1,1,.809.809A.81.81,0,0,1,385.567,126.954Zm8.839,7.906a.808.808,0,1,1,.809-.809A.81.81,0,0,1,394.406,134.859Zm8.4-13.259a.808.808,0,1,1,.809-.809A.809.809,0,0,1,402.81,121.6Zm16.148,10.763a.809.809,0,1,1,.809-.808A.809.809,0,0,1,418.958,132.363Zm17.094-4.974a.808.808,0,1,1,.809-.808A.809.809,0,0,1,436.051,127.389Zm16.061,8.964a.809.809,0,1,1,.809-.809A.81.81,0,0,1,452.112,136.353Zm12.326-9.338a.809.809,0,1,1,.809-.808A.809.809,0,0,1,464.438,127.015Z" transform="translate(-192.427 -66.881)" fill="#1a1818"/>
      <g id="Group_6156" data-name="Group 6156" transform="translate(5.853 113.44)">
        <g id="Group_6154" data-name="Group 6154" transform="translate(0 6.55)">
          <path id="Path_951" data-name="Path 951" d="M90.655,275.071a3.4,3.4,0,0,1-3.4-3.1l-.561-6.073a3.982,3.982,0,1,1,7.931,0l-.561,6.073A3.4,3.4,0,0,1,90.655,275.071Zm0-11.521a1.977,1.977,0,0,0-1.968,2.159l.561,6.073a1.413,1.413,0,0,0,2.815,0l.561-6.072a1.977,1.977,0,0,0-1.968-2.159Z" transform="translate(-57.158 -261.545)" fill="#1a1818"/>
          <path id="Path_952" data-name="Path 952" d="M71.033,287.821a3.4,3.4,0,0,1-3.4-3.1l-.561-6.073a3.983,3.983,0,1,1,7.932,0l-.561,6.073A3.4,3.4,0,0,1,71.033,287.821Zm0-11.521a1.976,1.976,0,0,0-1.968,2.158l.561,6.073a1.413,1.413,0,0,0,2.815,0L73,278.459a1.976,1.976,0,0,0-1.968-2.158Z" transform="translate(-47.375 -267.902)" fill="#1a1818"/>
          <path id="Path_953" data-name="Path 953" d="M50.412,280.132a3.4,3.4,0,0,1-3.4-3.1l-.561-6.073a3.983,3.983,0,1,1,7.932,0l-.562,6.073A3.4,3.4,0,0,1,50.412,280.132Zm0-11.521a1.976,1.976,0,0,0-1.968,2.159L49,276.843a1.413,1.413,0,0,0,2.815,0l.561-6.073a1.976,1.976,0,0,0-1.968-2.159Z" transform="translate(-37.093 -264.068)" fill="#1a1818"/>
          <path id="Path_954" data-name="Path 954" d="M31.791,298.508a3.4,3.4,0,0,1-3.4-3.1l-.561-6.072a3.982,3.982,0,1,1,7.931,0L35.2,295.4A3.4,3.4,0,0,1,31.791,298.508Zm0-11.52a1.976,1.976,0,0,0-1.968,2.158l.561,6.072a1.413,1.413,0,0,0,2.815,0l.561-6.072a1.977,1.977,0,0,0-1.968-2.158Z" transform="translate(-27.809 -273.231)" fill="#1a1818"/>
        </g>
        <g id="Group_6155" data-name="Group 6155" transform="translate(1.128)">
          <path id="Path_955" data-name="Path 955" d="M91.777,254.191a2.854,2.854,0,1,1,2.854-2.854A2.857,2.857,0,0,1,91.777,254.191Zm0-3.853a1,1,0,1,0,1,1A1,1,0,0,0,91.777,250.338Z" transform="translate(-59.408 -248.482)" fill="#1a1818"/>
          <path id="Path_956" data-name="Path 956" d="M72.155,266.941a2.854,2.854,0,1,1,2.854-2.854A2.858,2.858,0,0,1,72.155,266.941Zm0-3.853a1,1,0,1,0,1,1A1,1,0,0,0,72.155,263.088Z" transform="translate(-49.625 -254.839)" fill="#1a1818"/>
          <path id="Path_957" data-name="Path 957" d="M51.534,259.252a2.854,2.854,0,1,1,2.854-2.854A2.857,2.857,0,0,1,51.534,259.252Zm0-3.853a1,1,0,1,0,1,1A1,1,0,0,0,51.534,255.4Z" transform="translate(-39.343 -251.006)" fill="#1a1818"/>
          <path id="Path_958" data-name="Path 958" d="M32.912,277.627a2.854,2.854,0,1,1,2.854-2.854A2.857,2.857,0,0,1,32.912,277.627Zm0-3.853a1,1,0,1,0,1,1A1,1,0,0,0,32.912,273.774Z" transform="translate(-30.058 -260.168)" fill="#1a1818"/>
        </g>
      </g>
      <path id="Path_959" data-name="Path 959" d="M151.075,175.407A23.1,23.1,0,0,0,142,164.347a2.6,2.6,0,0,0,.033-.327,2.661,2.661,0,0,0-4.534-1.893,22.953,22.953,0,0,0-18.4,1.191,2.64,2.64,0,0,0-1.625-.568,2.667,2.667,0,0,0-2.664,2.664,2.635,2.635,0,0,0,.1.686,22.84,22.84,0,0,0-7.96,14.013,2.651,2.651,0,0,0-.241,5.023,22.8,22.8,0,0,0,6.868,15.027,2.635,2.635,0,0,0-.158.869,2.667,2.667,0,0,0,2.664,2.664,2.641,2.641,0,0,0,1.444-.432,22.763,22.763,0,0,0,7.354,2.964.989.989,0,0,0,.208.022,1,1,0,0,0,.206-1.985,20.771,20.771,0,0,1-6.618-2.647,2.575,2.575,0,0,0-.53-2.25,41.527,41.527,0,0,1,21.2-17.787,59.673,59.673,0,0,1,5.079,6.361,1,1,0,1,0,1.65-1.141,61.793,61.793,0,0,0-4.667-5.928,40.849,40.849,0,0,1,7.156-1.566,2.656,2.656,0,1,0,2.515-3.9Zm-1.906.632a2.679,2.679,0,0,0-.474.513,64.375,64.375,0,0,0-13.078-1.374q-1.906-1.641-3.953-3.128a2.4,2.4,0,0,0,.029-1.5,43.135,43.135,0,0,1,6.045-4.432,2.606,2.606,0,0,0,3.274-.016A21.088,21.088,0,0,1,149.169,176.039Zm-19.225-4.788a.808.808,0,1,1-.808-.808A.81.81,0,0,1,129.944,171.251Zm-1.572,2.539a2.5,2.5,0,0,0,2.005-.2q1.107.8,2.172,1.654-2.977.135-5.9.536Q127.48,174.761,128.372,173.79Zm10.993-10.578a.809.809,0,1,1-.809.808A.809.809,0,0,1,139.366,163.212Zm-2.659.762c0,.016,0,.031,0,.046a2.655,2.655,0,0,0,.036.354,45.114,45.114,0,0,0-6.271,4.583,2.6,2.6,0,0,0-3.038.267,61.278,61.278,0,0,0-7.3-3.794c0-.006,0-.011,0-.016a2.616,2.616,0,0,0-.036-.357,20.958,20.958,0,0,1,16.61-1.084Zm-19.237.632a.808.808,0,1,1-.809.809A.81.81,0,0,1,117.469,164.606ZM116.12,167.7a2.627,2.627,0,0,0,3.242-.416A59.3,59.3,0,0,1,126.5,171c-.008.083-.025.163-.025.248a2.628,2.628,0,0,0,.34,1.276,44.621,44.621,0,0,0-3.062,3.732,62.128,62.128,0,0,0-14.233,4.488,2.681,2.681,0,0,0-.577-.413A20.846,20.846,0,0,1,116.12,167.7Zm-8.444,14.156a.809.809,0,1,1-.809.808A.809.809,0,0,1,107.676,181.855Zm1.036,3.263a2.669,2.669,0,0,0,1.628-2.454c0-.029-.008-.055-.009-.083a60.165,60.165,0,0,1,11.8-3.947,44.948,44.948,0,0,0-6.863,19.876,2.653,2.653,0,0,0-.371.149A20.8,20.8,0,0,1,108.712,185.118Zm6.559,15.917a.809.809,0,1,1,.808.808A.81.81,0,0,1,115.271,201.035Zm2.256-4.472a43.03,43.03,0,0,1,7.385-18.474,61.874,61.874,0,0,1,9.946-.9c1.029.909,2.035,1.843,3,2.82A43.562,43.562,0,0,0,117.526,196.563Zm20.351-19.329a62.515,62.515,0,0,1,6.995.662,43.088,43.088,0,0,0-4.97,1.36Q138.914,178.222,137.877,177.233Zm13.016,1.628a.809.809,0,1,1,.809-.809A.81.81,0,0,1,150.893,178.861Z" transform="translate(-60.45 -91.297)" fill="#1a1818"/>
      <path id="Path_960" data-name="Path 960" d="M554.6,480.613a2.664,2.664,0,1,0-3.666,2.464v12.578H533.849a1,1,0,0,0-1,1v7.1a2.663,2.663,0,1,0,2.006,0v-6.1h17.086a1,1,0,0,0,1-1v-13.58A2.665,2.665,0,0,0,554.6,480.613Zm-20.753,26.419a.809.809,0,1,1,.809-.808A.809.809,0,0,1,533.849,507.032ZM551.939,479.8a.809.809,0,1,1-.809.809A.81.81,0,0,1,551.939,479.8Z" transform="translate(-272.943 -249.456)" fill="#1a1818"/>
      <path id="Path_961" data-name="Path 961" d="M272.732,608.138a2.664,2.664,0,0,0-2.464,1.66H250.111v-13.4a1,1,0,0,0-1-1H224.387a2.664,2.664,0,1,0,0,2.005h23.719v5.182H233.254a1,1,0,0,0-1,1V609.8H211.294a2.664,2.664,0,1,0,0,2.006h9.976v5.189h-23.4a2.663,2.663,0,1,0,0,2.006h24.4a1,1,0,0,0,1-1V611.8h9.979a1,1,0,0,0,1-1v-6.217h13.849V610.8a1,1,0,0,0,1,1h7.6v5.189H242.273a2.664,2.664,0,1,0,0,2.006h15.442a1,1,0,0,0,1-1V611.8h11.55a2.662,2.662,0,1,0,2.464-3.666ZM221.922,597.2a.809.809,0,1,1,.809-.809A.809.809,0,0,1,221.922,597.2Zm-26.514,21.6a.809.809,0,1,1,.808-.808A.809.809,0,0,1,195.408,618.8Zm13.422-7.194a.809.809,0,1,1,.809-.809A.81.81,0,0,1,208.83,611.61Zm30.979,7.194a.809.809,0,1,1,.808-.808A.809.809,0,0,1,239.809,618.8Zm32.923-7.194a.809.809,0,1,1,.808-.809A.81.81,0,0,1,272.732,611.61Z" transform="translate(-104.194 -307.185)" fill="#1a1818"/>
      <path id="Path_962" data-name="Path 962" d="M333.3,460.922a2.663,2.663,0,0,0-5.327,0,2.627,2.627,0,0,0,.288,1.179l-3.767,4.223a2.505,2.505,0,0,0-1.809.011l-2.391-2.606a2.629,2.629,0,0,0,.263-1.133,2.655,2.655,0,0,0-4.957-1.332l-3.532-.492a2.658,2.658,0,1,0-4.334,2.637l-1.546,4.392a2.64,2.64,0,0,0-1.009.253l-3.079-2.808a2.635,2.635,0,0,0,.172-.916,2.662,2.662,0,0,0-5.323-.043l-3.043,1.183a2.642,2.642,0,0,0-2.469-.782l-3.3-4.926a2.665,2.665,0,1,0-4.425-.025l-4.6,6.713a2.628,2.628,0,0,0-2.422.7l-4.5-1.96c0-.022.007-.043.007-.065a2.664,2.664,0,1,0-3.667,2.464v7.9a1,1,0,0,0,1,1h61.116a1,1,0,0,0,1-1V463.38A2.666,2.666,0,0,0,333.3,460.922Zm-2.664-.809a.809.809,0,1,1-.808.809A.81.81,0,0,1,330.636,460.113Zm-6.22,8.712a.809.809,0,1,1-.808-.809A.81.81,0,0,1,324.416,468.825Zm-6.524-7.037a.808.808,0,1,1-.809.809A.81.81,0,0,1,317.892,461.788Zm-8.4-1.17a.808.808,0,1,1-.809.808A.81.81,0,0,1,309.494,460.618Zm-3.175,9.025a.809.809,0,1,1-.809.808A.81.81,0,0,1,306.319,469.643Zm-6.71-6.122a.809.809,0,1,1-.809.809A.809.809,0,0,1,299.609,463.521Zm-6.824,3.775a.808.808,0,1,1-.809-.808A.809.809,0,0,1,292.785,467.3Zm-6.853-9.833a.808.808,0,1,1-.808.808A.809.809,0,0,1,285.932,457.463Zm-7.381,10.78a.809.809,0,1,1-.809.808A.809.809,0,0,1,278.551,468.243Zm-9.012-3.928a.809.809,0,1,1-.808.809A.809.809,0,0,1,269.539,464.315Zm1,10.173v-6.9a2.664,2.664,0,0,0,.855-.561l4.5,1.96c0,.022-.007.042-.007.064a2.664,2.664,0,1,0,4.884-1.467l4.6-6.713a2.63,2.63,0,0,0,.565.063,2.658,2.658,0,0,0,.54-.055l3.3,4.926a2.662,2.662,0,1,0,4.865,1.534l3.043-1.183a2.619,2.619,0,0,0,3.069.572l3.079,2.808a2.635,2.635,0,0,0-.172.916,2.663,2.663,0,1,0,4.424-1.983l1.546-4.392a2.65,2.65,0,0,0,2.163-1.319l3.532.492a2.629,2.629,0,0,0,3.5,1.836l2.391,2.606a2.636,2.636,0,0,0-.263,1.133,2.663,2.663,0,0,0,5.327,0,2.632,2.632,0,0,0-.28-1.166l3.662-4.106v10.935Z" transform="translate(-141.156 -238.316)" fill="#1a1818"/>
      <path id="Path_963" data-name="Path 963" d="M242.07,182.57H218.328a1,1,0,0,0-1,1v15.073a1,1,0,0,0,1,1H242.07a1,1,0,0,0,1-1V183.573A1,1,0,0,0,242.07,182.57Zm-22.739,3.151,5.589,5.022-5.589,5.589Zm14.2,4.278c-.02.017-.041.03-.059.048s-.01.013-.015.019l-3.258,2.927-9.368-8.418h18.735Zm-7.23,1.986,3.278,2.946a.927.927,0,0,0,1.239,0l3.278-2.946,5.658,5.658H220.642Zm9.177-1.242,5.589-5.022v10.611Z" transform="translate(-116.45 -102.178)" fill="#1a1818"/>
      <g id="Group_6157" data-name="Group 6157" transform="translate(227.28 216.551)">
        <path id="Path_964" data-name="Path 964" d="M487.739,454.132H474.914a5.489,5.489,0,0,0-5.483,5.482v34.328a5.489,5.489,0,0,0,5.483,5.483h12.825a5.489,5.489,0,0,0,5.482-5.483V459.614A5.489,5.489,0,0,0,487.739,454.132Zm-16.3,8.04h19.779v29.213H471.437Zm3.477-6.035h12.825a3.48,3.48,0,0,1,3.477,3.477v.552H471.437v-.552A3.481,3.481,0,0,1,474.914,456.138Zm12.825,41.282H474.914a3.481,3.481,0,0,1-3.477-3.477v-.552h19.779v.552A3.48,3.48,0,0,1,487.739,497.42Z" transform="translate(-469.431 -454.132)" fill="#1a1818"/>
        <path id="Path_965" data-name="Path 965" d="M492.84,489.342a12.582,12.582,0,0,0-16,0,1,1,0,1,0,1.277,1.546,10.575,10.575,0,0,1,13.449,0,1,1,0,0,0,1.277-1.547Z" transform="translate(-472.942 -470.256)" fill="#1a1818"/>
        <path id="Path_966" data-name="Path 966" d="M487.106,494.068a8.768,8.768,0,0,0-5.738,2.139,1,1,0,0,0,1.313,1.516,6.763,6.763,0,0,1,8.851,0,1,1,0,0,0,1.312-1.516A8.767,8.767,0,0,0,487.106,494.068Z" transform="translate(-475.21 -474.044)" fill="#1a1818"/>
        <path id="Path_967" data-name="Path 967" d="M489.373,501.652a4.932,4.932,0,0,0-3.511,1.454,1,1,0,0,0,1.419,1.418,2.958,2.958,0,0,1,4.185,0,1,1,0,0,0,1.419-1.418A4.935,4.935,0,0,0,489.373,501.652Z" transform="translate(-477.477 -477.826)" fill="#1a1818"/>
        <path id="Path_968" data-name="Path 968" d="M491.98,534.086a1.184,1.184,0,1,0,1.184,1.184A1.184,1.184,0,0,0,491.98,534.086Z" transform="translate(-480.084 -493.997)" fill="#1a1818"/>
      </g>
      <path id="Path_969" data-name="Path 969" d="M541.271,474.469a.907.907,0,0,0-.434-.549.916.916,0,0,0-1.23.337,1.508,1.508,0,0,1-1.454.808,6.133,6.133,0,0,1-1.772-.364,7.849,7.849,0,0,0-2.418-.459,4.193,4.193,0,0,0-1.589.3,4.937,4.937,0,0,0,1.147-3.072,5.507,5.507,0,0,0-.3-1.734h3.845a.752.752,0,0,0,0-1.5h-4.323c-.07-.17-.145-.345-.234-.55a7.506,7.506,0,0,1-.809-2.872c0-1.8,1.311-2.914,3.421-2.914a4.423,4.423,0,0,1,3.391,1.467,1.009,1.009,0,1,0,1.476-1.376,6.431,6.431,0,0,0-4.818-2.063c-3.3,0-5.515,1.964-5.515,4.886a8.766,8.766,0,0,0,.944,3.423h-1.175a.752.752,0,0,0,0,1.5h1.761a5.7,5.7,0,0,1,.455,2.121,4.05,4.05,0,0,1-2.02,3.345.822.822,0,0,0-.247,1.053l.049.091a.824.824,0,0,0,1.062.35,7.566,7.566,0,0,1,2.99-.7,8.579,8.579,0,0,1,2.482.506,8.144,8.144,0,0,0,2.362.487,3.165,3.165,0,0,0,2.868-1.819A.916.916,0,0,0,541.271,474.469Z" transform="translate(-271.691 -240.47)" fill="#1a1818"/>
      <path id="Path_970" data-name="Path 970" d="M545.906,108.068a1,1,0,0,0-1.335.156,4.986,4.986,0,0,1-3.908,1.715,5.263,5.263,0,0,1-5.255-4.229h6.407a.752.752,0,0,0,0-1.5h-6.648a8.221,8.221,0,0,1-.033-.837c0-.277.006-.561.034-.84h6.648a.752.752,0,0,0,0-1.5h-6.407a5.263,5.263,0,0,1,5.254-4.227,5.012,5.012,0,0,1,3.9,1.711,1,1,0,0,0,1.738-.574,1.01,1.01,0,0,0-.256-.772,7.062,7.062,0,0,0-5.381-2.314,7.38,7.38,0,0,0-7.412,6.175h-1.571a.752.752,0,0,0,0,1.5h1.345c-.026.279-.033.554-.033.84s.007.57.033.837h-1.344a.752.752,0,0,0,0,1.5h1.57a7.381,7.381,0,0,0,7.413,6.178,7.129,7.129,0,0,0,5.406-2.309,1.014,1.014,0,0,0-.162-1.511Z" transform="translate(-272.813 -58.441)" fill="#1a1818"/>
      <path id="Path_971" data-name="Path 971" d="M321.876,32.588a1.011,1.011,0,0,0-1.771.049l-3.761,7.3-3.824-7.3a1.036,1.036,0,1,0-1.823.983l3.446,6.214h-2.731a.752.752,0,1,0,0,1.5h3.532l.318.5v1.4h-3.85a.752.752,0,1,0,0,1.5h3.85v2.816a1.011,1.011,0,1,0,2.021,0V44.743H321.1a.752.752,0,0,0,0-1.5h-3.812v-1.4l.3-.494H321.1a.752.752,0,0,0,0-1.5h-2.672l3.464-6.248A1,1,0,0,0,321.876,32.588Z" transform="translate(-162.94 -27.148)" fill="#1a1818"/>
      <path id="Path_972" data-name="Path 972" d="M217.359,427.072c0-3.111-2.7-4.072-5.269-4.714v-5.513a5.477,5.477,0,0,1,2.979,1.485.941.941,0,1,0,1.318-1.342,7.4,7.4,0,0,0-4.3-2v-1.162a.752.752,0,1,0-1.5,0v1.154c-3.137.17-5.082,1.891-5.082,4.514,0,3.058,2.607,3.946,5.082,4.523v6.144a5.848,5.848,0,0,1-3.6-1.838,1.011,1.011,0,0,0-1.5,1.36,7.348,7.348,0,0,0,5.1,2.291V433.4a.752.752,0,1,0,1.5,0v-1.429C215.342,431.679,217.359,429.813,217.359,427.072Zm-2.021.073c0,1.715-1.212,2.835-3.248,3.021v-5.8C214.283,424.939,215.338,425.523,215.338,427.145ZM207.5,419.3c0-1.5,1.126-2.42,3.085-2.537v5.217C208.718,421.455,207.5,420.955,207.5,419.3Z" transform="translate(-110.417 -217.107)" fill="#1a1818"/>
      <g id="Group_6158" data-name="Group 6158" transform="translate(188.344 149.958)">
        <path id="Path_973" data-name="Path 973" d="M392.15,328.851a.5.5,0,0,0,.465.053l4.6-1.8a.5.5,0,0,0,.319-.467v-.634a.5.5,0,0,0-.687-.465l-1.319.527v-2.394l1.71-.766a.5.5,0,0,0,.3-.457v-.634a.5.5,0,0,0-.709-.456l-4.6,2.1a.5.5,0,0,0-.293.456v.594a.5.5,0,0,0,.706.458l1.437-.643v2.323l-1.828.729a.5.5,0,0,0-.315.466v.594A.5.5,0,0,0,392.15,328.851Z" transform="translate(-391.854 -321.316)" fill="#1a1818"/>
        <path id="Path_974" data-name="Path 974" d="M392.432,339.623a.484.484,0,0,0,.148-.023l4.6-1.419a.5.5,0,0,0,.353-.479v-.633a.5.5,0,0,0-.653-.478l-4.6,1.459a.5.5,0,0,0-.349.478v.594a.5.5,0,0,0,.5.5Z" transform="translate(-391.854 -328.92)" fill="#1a1818"/>
        <path id="Path_975" data-name="Path 975" d="M392.543,347.137l3.5-.793v1.475a.5.5,0,0,0,.5.5.493.493,0,0,0,.1-.01l.483-.1a.5.5,0,0,0,.4-.492v-4.868a.5.5,0,0,0-.629-.485l-.483.127a.5.5,0,0,0-.374.484v1.7l-3.73.876a.5.5,0,0,0-.387.488v.6a.5.5,0,0,0,.612.489Z" transform="translate(-391.854 -331.806)" fill="#1a1818"/>
        <path id="Path_976" data-name="Path 976" d="M392.171,360.884a.5.5,0,0,0,.489.02l4.6-2.34a.5.5,0,0,0,.274-.447v-.724a.5.5,0,0,0-.278-.449l-4.6-2.3a.5.5,0,0,0-.725.449v.628a.5.5,0,0,0,.279.449l1.041.517v2.121l-1.044.529a.5.5,0,0,0-.275.447v.67A.5.5,0,0,0,392.171,360.884Zm3.215-3.129-.685.337v-.679Z" transform="translate(-391.854 -337.909)" fill="#1a1818"/>
        <path id="Path_977" data-name="Path 977" d="M397.324,370.192a3.214,3.214,0,0,0-.627-1.077,2.768,2.768,0,0,0-.955-.7,2.847,2.847,0,0,0-1.163-.238,2.726,2.726,0,0,0-1.141.249,2.607,2.607,0,0,0-.9.684,3.039,3.039,0,0,0-.569,1.022,4.041,4.041,0,0,0-.195,1.272,4.382,4.382,0,0,0,.063.748,3.811,3.811,0,0,0,.183.679,3.286,3.286,0,0,0,.3.606,3.014,3.014,0,0,0,.409.515.5.5,0,0,0,.787-.1l.286-.481a.5.5,0,0,0-.09-.623,1.326,1.326,0,0,1-.2-.238,1.671,1.671,0,0,1-.159-.308,2.042,2.042,0,0,1-.1-.372,2.485,2.485,0,0,1-.037-.432,2.137,2.137,0,0,1,.1-.682,1.4,1.4,0,0,1,.269-.478,1.156,1.156,0,0,1,.41-.295,1.494,1.494,0,0,1,.584-.11h.006a1.529,1.529,0,0,1,.6.117,1.243,1.243,0,0,1,.444.318,1.524,1.524,0,0,1,.3.527,2.311,2.311,0,0,1,.114.747,2.4,2.4,0,0,1-.041.458,1.723,1.723,0,0,1-.111.365,1.384,1.384,0,0,1-.165.285,1.217,1.217,0,0,1-.21.215.5.5,0,0,0-.115.651l.309.51a.5.5,0,0,0,.351.235.519.519,0,0,0,.078.006.5.5,0,0,0,.328-.122,2.917,2.917,0,0,0,.445-.482,3,3,0,0,0,.339-.6,3.424,3.424,0,0,0,.214-.707,4.3,4.3,0,0,0,.073-.808A4.087,4.087,0,0,0,397.324,370.192Z" transform="translate(-391.777 -344.681)" fill="#1a1818"/>
        <path id="Path_978" data-name="Path 978" d="M397.09,382.736l-4.6-.539a.494.494,0,0,0-.392.123.5.5,0,0,0-.168.375v.594a.5.5,0,0,0,.439.5l1.7.214v2.4l-1.555-.271a.5.5,0,0,0-.588.494v.594a.5.5,0,0,0,.411.493l4.6.841a.457.457,0,0,0,.09.009.5.5,0,0,0,.5-.5v-.633a.5.5,0,0,0-.415-.494l-1.591-.277v-2.469l1.443.181a.5.5,0,0,0,.564-.5v-.633A.5.5,0,0,0,397.09,382.736Z" transform="translate(-391.854 -351.669)" fill="#1a1818"/>
        <path id="Path_979" data-name="Path 979" d="M397.149,397.333l-4.6-1.1a.5.5,0,0,0-.618.488v.593a.5.5,0,0,0,.381.487l4.6,1.143a.5.5,0,0,0,.622-.486v-.633A.5.5,0,0,0,397.149,397.333Z" transform="translate(-391.854 -358.661)" fill="#1a1818"/>
      </g>
      <g id="Group_6159" data-name="Group 6159" transform="translate(204.357 88.663)">
        <path id="Path_980" data-name="Path 980" d="M536.892,221.272l-29.825,4.049c2.691-3.587,6.5-7.514,10.051-9.433a13.486,13.486,0,0,1,7.979-1.8c1.875.114,8.915.643,11.855.866a1,1,0,0,0,.152-2c-2.945-.223-10-.754-11.886-.868a15.376,15.376,0,0,0-9.055,2.036c-4.786,2.589-9.5,8.053-12.084,11.946a1,1,0,0,0,.835,1.557,1.038,1.038,0,0,0,.135-.009l32.111-4.359a1,1,0,0,0-.27-1.988Z" transform="translate(-463.701 -205.538)" fill="#1a1818"/>
        <path id="Path_981" data-name="Path 981" d="M537.607,209.356c-20.98-3.34-56.984-9.069-62.377-9.913-8.917-1.393-21.1.813-28.546,11.195a41.636,41.636,0,0,0-2.357,3.67c-.006.009-.01.019-.016.028a26.024,26.024,0,0,0-3.19,7.967,1,1,0,0,0,.235.813,15.548,15.548,0,0,0,4.909,3.654l-21.739,4.158a1,1,0,0,0,.187,1.988,1.064,1.064,0,0,0,.19-.018l24.847-4.753a40.491,40.491,0,0,0,11.331,1.627l-13.834,3.707a1,1,0,0,0,.259,1.972,1.036,1.036,0,0,0,.26-.035l89.944-24.1a1,1,0,0,0-.1-1.959Zm-21.833,5.76v-7.2l8.842,1.407v3.428Zm-13.651,3.658v-2.615l9.646-1.311a1,1,0,0,0-.27-1.988l-9.376,1.274v-5.284l3.557.265.075,0a1,1,0,0,0,.074-2l-3.706-.277v-1.1l11.645,1.852v8.061Zm-53.808-6.967c8.925-12.447,23.728-10.833,26.606-10.382l2.118.333a25.855,25.855,0,0,0-11.559,5.9c-.558.493-1.122,1.013-1.7,1.546-3.745,3.457-7.995,7.374-14.337,6.789a4.844,4.844,0,0,1-3.046-1.254C446.946,213.817,447.577,212.836,448.315,211.807Zm25.726,14.485c-8.8,2.3-24.492,2.529-30.84-4.129a25.712,25.712,0,0,1,2.2-5.623A7.031,7.031,0,0,0,449.26,218c.494.046.977.067,1.449.067,6.436,0,10.843-4.067,14.433-7.38.566-.522,1.119-1.033,1.667-1.516a24.732,24.732,0,0,1,20.446-5.787h.019l12.825,2.038a.312.312,0,0,1,.02.084v2.164c0,.01,0,.018-.005.028a1.012,1.012,0,0,0,.005.188v7.3a1.008,1.008,0,0,0,0,.2v3.762a.393.393,0,0,1-.045.184l-25.921,6.946A1.054,1.054,0,0,0,474.041,226.293Zm52.581-14.083v-2.571l6.02.958Z" transform="translate(-423.712 -199.068)" fill="#1a1818"/>
        <path id="Path_982" data-name="Path 982" d="M484.509,241.307c-.974.22-1.64.941-1.489,1.61s1.063,1.033,2.036.814,1.64-.941,1.489-1.61S485.482,241.087,484.509,241.307Z" transform="translate(-453.273 -220.096)" fill="#1a1818"/>
      </g>
      <g id="Group_6162" data-name="Group 6162" transform="translate(40.632 185.483)">
        <g id="Group_6160" data-name="Group 6160" transform="translate(34.753 4.642)">
          <path id="Path_983" data-name="Path 983" d="M179.492,417.889a1,1,0,0,1-.773-1.641,10.364,10.364,0,0,0,0-13.182,1,1,0,1,1,1.547-1.277,12.37,12.37,0,0,1,0,15.735A1,1,0,0,1,179.492,417.889Z" transform="translate(-172.471 -401.426)" fill="#1a1818"/>
          <path id="Path_984" data-name="Path 984" d="M173.5,417.876a1,1,0,0,1-.758-1.66,6.622,6.622,0,0,0,0-8.665,1,1,0,0,1,1.516-1.313,8.629,8.629,0,0,1,0,11.292A1,1,0,0,1,173.5,417.876Z" transform="translate(-169.483 -403.653)" fill="#1a1818"/>
          <path id="Path_985" data-name="Path 985" d="M167.489,417.865a1,1,0,0,1-.709-1.712,2.888,2.888,0,0,0,0-4.084,1,1,0,1,1,1.418-1.418,4.893,4.893,0,0,1,0,6.921A1,1,0,0,1,167.489,417.865Z" transform="translate(-166.486 -405.879)" fill="#1a1818"/>
        </g>
        <g id="Group_6161" data-name="Group 6161" transform="translate(0 4.642)">
          <path id="Path_986" data-name="Path 986" d="M100.772,417.889a1,1,0,0,1-.774-.364,12.37,12.37,0,0,1,0-15.735,1,1,0,0,1,1.547,1.277,10.364,10.364,0,0,0,0,13.182,1,1,0,0,1-.773,1.641Z" transform="translate(-97.174 -401.426)" fill="#1a1818"/>
          <path id="Path_987" data-name="Path 987" d="M107.5,417.876a1,1,0,0,1-.759-.346,8.628,8.628,0,0,1,0-11.292,1,1,0,0,1,1.516,1.313,6.622,6.622,0,0,0,0,8.665,1,1,0,0,1-.757,1.66Z" transform="translate(-100.894 -403.653)" fill="#1a1818"/>
          <path id="Path_988" data-name="Path 988" d="M114.222,417.865a1,1,0,0,1-.709-.294,4.893,4.893,0,0,1,0-6.921,1,1,0,1,1,1.418,1.418,2.888,2.888,0,0,0,0,4.084,1,1,0,0,1-.709,1.712Z" transform="translate(-104.606 -405.879)" fill="#1a1818"/>
        </g>
        <path id="Path_989" data-name="Path 989" d="M141.518,479.146H133.7l-2.959-41.273a5.432,5.432,0,1,0-.754-10.524l-.227-3.163a5.432,5.432,0,1,0-.707-9.86l-.177-2.474h3.151a1,1,0,1,0,0-2.006h-3.295l-.3-4.237h3.6a1,1,0,0,0,1-1v-8.9a1,1,0,1,0-2.006,0v2.177h-3.15l-.343-4.787a1,1,0,0,0-1-.931h-4.067a1,1,0,0,0-1,.931l-.343,4.787h-3.15V395.71a1,1,0,1,0-2.006,0v8.9a1,1,0,0,0,1,1h3.6l-.3,4.237h-3.3a1,1,0,1,0,0,2.006h3.151l-4.824,67.294h-7.82a1,1,0,1,0,0,2.006h34.044a1,1,0,1,0,0-2.006Zm-15.1-58.616a5.424,5.424,0,0,0,1.231,2.228l.082,1.142H122.7Zm.41-3.919h-3.693l3.812-3.659.221,3.085A5.413,5.413,0,0,0,126.824,416.611Zm-5.18,2.006h4.118l-4.4,4Zm-.522,7.289h5.059l-5.39,4.62Zm-.56,7.813h5.792c.014.061.031.12.047.181l-6.213,5.037Zm-.6,8.336h7.151l-7.568,5.818Zm10.229,16.237h-9.5l9.024-6.6Zm-.673-9.383h-8.277l7.845-6.031Zm-10.191,2.006h8.307l-8.767,6.415Zm-.673,9.383h9.524l-10.026,6.994Zm11.732.722.514,7.179H120.1Zm-1.5-20.97h-7.124l5.443-4.413a5.48,5.48,0,0,0,1.467,1.425Zm6.2-7.528a3.43,3.43,0,1,1-3.43-3.429A3.433,3.433,0,0,1,135.081,432.52Zm-8.8-.807h-4.027l5.682-4.87.116,1.614A5.423,5.423,0,0,0,126.283,431.713Zm5.368-16.045a3.429,3.429,0,1,1-3.43,3.429A3.433,3.433,0,0,1,131.652,415.668Zm-.628-15.776V403.6h-2.74l-.266-3.712Zm-4.751,3.712h-3.552l.266-3.712h3.02Zm-2.876-9.431h2.2l.266,3.713H123.13ZM117.97,403.6v-3.712h3.006l-.266,3.712Zm4.607,2.006h3.84l.3,4.237h-4.447Zm2.833,6.242-3.523,3.382.242-3.382ZM117.946,470.2h13.1l.641,8.942H117.305Z" transform="translate(-101.81 -392.168)" fill="#1a1818"/>
      </g>
      <path id="Path_990" data-name="Path 990" d="M626.793,459.979a6,6,0,0,1-5.992-5.987,6.19,6.19,0,0,1,.536-2.479c.893-2.043,4.282-9.011,4.426-9.306.051-.109.1-.2.131-.272a1,1,0,0,1,1.8.017l.126.262c.14.288,3.53,7.257,4.422,9.3h0a6.176,6.176,0,0,1,.536,2.48A6,6,0,0,1,626.793,459.979Zm0-15.3c-1.088,2.248-2.99,6.2-3.617,7.634a4.193,4.193,0,0,0-.369,1.677,3.985,3.985,0,0,0,7.97,0,4.187,4.187,0,0,0-.369-1.678C629.781,450.881,627.877,446.924,626.792,444.681Z" transform="translate(-317.625 -231.221)" fill="#1a1818"/>
      <path id="Path_991" data-name="Path 991" d="M45.974,455.639A18.392,18.392,0,0,0,28.838,467.5l-1.791,4.761a1,1,0,0,0,.1.91l1.1,1.651-3.024,9.048a1,1,0,0,0,.814,1.312l3.319.456-.252,6.207a4.079,4.079,0,0,0,4.412,4.231,33.864,33.864,0,0,0,4.631-.71v4.5l-1.348.2a1,1,0,0,0-.856.992V504.6a1,1,0,0,0,1,1H60.024a1,1,0,0,0,1-1v-6.961a1,1,0,0,0-1.15-.992l-1.054.156v-8.2c1.141-2.087,2.588-4.733,3.273-5.993a18.308,18.308,0,0,0-16.122-26.974ZM62.2,472.47l-7.119-7.12v-4.917A16.308,16.308,0,0,1,62.2,472.47ZM59.022,503.6H37.953v-1.677L59.022,498.8Zm1.314-21.942c-.71,1.3-2.237,4.1-3.394,6.214a1.007,1.007,0,0,0-.123.481V497.1l-4.781.708V485.851l2.752-2.752a1,1,0,0,0,.294-.709v-8.862a1,1,0,0,0-.294-.709l-6.5-6.5a2.666,2.666,0,1,0-1.421,1.415l6.209,6.209v8.031l-2.752,2.752a1,1,0,0,0-.294.709V498.1l-3.19.472V484.59a1,1,0,0,0-.294-.709l-7.913-7.913a2.664,2.664,0,1,0-1.418,1.418l7.619,7.619v13.867l-4.679.693v-4.528a1.031,1.031,0,0,0-.02-.2c.638-.191,1.283-.4,1.931-.652a1,1,0,1,0-.722-1.871,29.386,29.386,0,0,1-7.991,1.757,2.073,2.073,0,0,1-2.244-2.151l.289-7.117a1,1,0,0,0-.865-1.034l-3.024-.416,2.8-8.366a1,1,0,0,0-.117-.874L29.1,472.484l1.611-4.28a16.206,16.206,0,0,1,4.468-6.444v3.5a1,1,0,0,0,.294.709l7.913,7.913a2.668,2.668,0,1,0,1.426-1.409l-7.628-7.628v-4.6a16.2,16.2,0,0,1,15.888-.969v6.49a1,1,0,0,0,.294.709l8.837,8.837A16.07,16.07,0,0,1,60.335,481.654Zm-14.5-15.568a.808.808,0,1,1,.808-.808A.81.81,0,0,1,45.837,466.087Zm-9.657,9.655a.809.809,0,1,1,.809-.809A.81.81,0,0,1,36.18,475.741Zm9.657-1.617a.809.809,0,1,1-.809.808A.809.809,0,0,1,45.837,474.124Z" transform="translate(-18.643 -238.332)" fill="#1a1818"/>
      <g id="Group_6163" data-name="Group 6163" transform="translate(75.951 3.321)">
        <path id="Path_992" data-name="Path 992" d="M172.746,80.4h26.705a5.136,5.136,0,0,0,5.13-5.129V33.987a5.136,5.136,0,0,0-5.13-5.13H172.746a5.136,5.136,0,0,0-5.13,5.13V75.271A5.136,5.136,0,0,0,172.746,80.4Zm29.829-7.565H169.622V36.422h32.954Zm-3.124,5.559H172.746a3.127,3.127,0,0,1-3.124-3.124v-.43h32.954v.43A3.127,3.127,0,0,1,199.451,78.394ZM172.746,30.863h26.705a3.128,3.128,0,0,1,3.124,3.124v.43H169.622v-.43A3.128,3.128,0,0,1,172.746,30.863Z" transform="translate(-167.616 -28.857)" fill="#1a1818"/>
        <path id="Path_993" data-name="Path 993" d="M180.727,66.325h22.817a1,1,0,0,0,.529-1.855l-11.409-7.077a1,1,0,0,0-1.057,0L180.2,64.47a1,1,0,0,0,.529,1.855Zm11.408-6.9,7.89,4.894h-15.78Z" transform="translate(-173.653 -43.01)" fill="#1a1818"/>
        <path id="Path_994" data-name="Path 994" d="M203.544,98.941H180.727a1,1,0,1,0,0,2.006h22.817a1,1,0,0,0,0-2.006Z" transform="translate(-173.653 -63.801)" fill="#1a1818"/>
        <path id="Path_995" data-name="Path 995" d="M221.658,86.17V78.7a1,1,0,0,0-2.006,0V86.17a1,1,0,1,0,2.006,0Z" transform="translate(-193.561 -53.208)" fill="#1a1818"/>
        <path id="Path_996" data-name="Path 996" d="M213.071,86.17V78.7a1,1,0,0,0-2.006,0V86.17a1,1,0,1,0,2.006,0Z" transform="translate(-189.28 -53.208)" fill="#1a1818"/>
        <path id="Path_997" data-name="Path 997" d="M204.485,86.17V78.7a1,1,0,0,0-2.006,0V86.17a1,1,0,1,0,2.006,0Z" transform="translate(-184.999 -53.208)" fill="#1a1818"/>
        <path id="Path_998" data-name="Path 998" d="M195.9,86.17V78.7a1,1,0,0,0-2.006,0V86.17a1,1,0,1,0,2.006,0Z" transform="translate(-180.718 -53.208)" fill="#1a1818"/>
        <path id="Path_999" data-name="Path 999" d="M187.314,86.17V78.7a1,1,0,0,0-2.006,0V86.17a1,1,0,1,0,2.006,0Z" transform="translate(-176.437 -53.208)" fill="#1a1818"/>
        <path id="Path_1000" data-name="Path 1000" d="M203.323,64.986a1.162,1.162,0,1,0,1.162,1.162A1.162,1.162,0,0,0,203.323,64.986Z" transform="translate(-184.84 -46.871)" fill="#1a1818"/>
      </g>
      <path id="Path_1001" data-name="Path 1001" d="M25.112,215.764a4.2,4.2,0,0,0,4.2,4.2H44.964a8.426,8.426,0,0,0,15.124-1.031,1,1,0,0,0-.929-1.379H52.366v-3.571h6.793a1,1,0,0,0,.929-1.379,8.426,8.426,0,0,0-15.124-1.032H29.309A4.2,4.2,0,0,0,25.112,215.764Zm27.16-6.43a6.4,6.4,0,0,1,5.193,2.639h-6.1a1,1,0,0,0-1,1v5.577a1,1,0,0,0,1,1h6.1a6.4,6.4,0,0,1-5.193,2.638,6.463,6.463,0,0,1-5.8-3.668,1,1,0,0,0-.905-.571H29.309a2.191,2.191,0,1,1,0-4.383h16.26a1,1,0,0,0,.905-.571A6.462,6.462,0,0,1,52.272,209.335Z" transform="translate(-20.611 -114.523)" fill="#1a1818"/>
      <path id="Path_1002" data-name="Path 1002" d="M270.333,64.328H263.94l3.331-12.788a1,1,0,0,0-1.8-.811L252.889,69.5a1,1,0,0,0,.833,1.561h6.394l-3.33,12.783a1,1,0,0,0,1.8.811L271.166,65.89a1,1,0,0,0-.833-1.561ZM260.218,78.62l2.165-8.312a1,1,0,0,0-.971-1.256H255.6l8.238-12.291-2.166,8.317a1,1,0,0,0,.97,1.255h5.81Z" transform="translate(-134.097 -36.22)" fill="#1a1818"/>
      <path id="Path_1003" data-name="Path 1003" d="M137.406,42.679a.928.928,0,0,1-.927-.928,4.346,4.346,0,0,0-4.494-4.493.928.928,0,1,1,0-1.855,4.346,4.346,0,0,0,4.494-4.494.927.927,0,1,1,1.855,0,4.346,4.346,0,0,0,4.494,4.494.928.928,0,0,1,0,1.855,4.346,4.346,0,0,0-4.494,4.493A.928.928,0,0,1,137.406,42.679Zm-2.021-6.349a6.052,6.052,0,0,1,2.021,2.021,6.052,6.052,0,0,1,2.021-2.021,6.053,6.053,0,0,1-2.021-2.021A6.052,6.052,0,0,1,135.386,36.331Z" transform="translate(-73.437 -26.097)" fill="#1a1818"/>
      <path id="Path_1004" data-name="Path 1004" d="M376.406,475.679a.928.928,0,0,1-.927-.928,4.346,4.346,0,0,0-4.493-4.494.928.928,0,0,1,0-1.855,4.346,4.346,0,0,0,4.493-4.494.927.927,0,1,1,1.855,0,4.346,4.346,0,0,0,4.493,4.494.928.928,0,0,1,0,1.855,4.346,4.346,0,0,0-4.493,4.494A.928.928,0,0,1,376.406,475.679Zm-2.021-6.349a6.053,6.053,0,0,1,2.021,2.021,6.052,6.052,0,0,1,2.021-2.021,6.053,6.053,0,0,1-2.021-2.021A6.054,6.054,0,0,1,374.386,469.331Z" transform="translate(-192.603 -241.993)" fill="#1a1818"/>
      <path id="Path_1005" data-name="Path 1005" d="M18.5,554.832a.928.928,0,0,1-.927-.928,4.346,4.346,0,0,0-4.493-4.493.928.928,0,0,1,0-1.855,4.346,4.346,0,0,0,4.493-4.494.927.927,0,1,1,1.855,0,4.346,4.346,0,0,0,4.493,4.494.928.928,0,0,1,0,1.855,4.346,4.346,0,0,0-4.493,4.493A.928.928,0,0,1,18.5,554.832Zm-2.021-6.349A6.053,6.053,0,0,1,18.5,550.5a6.05,6.05,0,0,1,2.021-2.021,6.049,6.049,0,0,1-2.021-2.021A6.052,6.052,0,0,1,16.475,548.484Z" transform="translate(-12.147 -281.459)" fill="#1a1818"/>
    </g>
  </g>
</svg>
