<?xml version="1.0" encoding="utf-8"?>
<!-- Generator: Adobe Illustrator 23.0.6, SVG Export Plug-In . SVG Version: 6.00 Build 0)  -->
<svg version="1.1" id="_x2014_ÎÓÈ_x5F_1" xmlns="http://www.w3.org/2000/svg" xmlns:xlink="http://www.w3.org/1999/xlink"
	 x="0px" y="0px" viewBox="0 0 847.3 548.9" style="enable-background:new 0 0 847.3 548.9;" xml:space="preserve">
<style type="text/css">
	.st0{opacity:0.2;clip-path:url(#SVGID_2_);}
	.st1{opacity:0.1;}
	.st2{fill:#AAAAAA;}
	.st3{fill:none;stroke:#AAAAAA;stroke-width:0.5824;stroke-miterlimit:10;}
	.st4{fill:#333333;}
	.st5{clip-path:url(#SVGID_2_);}
	.st6{fill:#CC0000;}

	.anim-1{
		animation: color_pulse 10s infinite ease-in;
		animation-delay: 0s;
	}
	.anim-2{
		animation: color_pulse 10s infinite ease-in;
		animation-delay: 1s;
	}
	.anim-3{
		animation: color_pulse 10s infinite ease-in;
		animation-delay: 2s;
	}
	.anim-4{
		animation: color_pulse 10s infinite ease-in;
		animation-delay: 3s;
	}
	.anim-5{
		animation: color_pulse 10s infinite ease-in;
		animation-delay: 4s;
	}

	.anim-6{
		animation: color_pulse 10s infinite ease-in;
		animation-delay: 5s;
	}

	.anim-7{
		animation: color_pulse 10s infinite ease-in;
		animation-delay: 6s;
	}

	.anim-8{
		animation: color_pulse 10s infinite ease-in;
		animation-delay: 7s;
	}

	.anim-9{
		animation: color_pulse 10s infinite ease-in;
		animation-delay: 8s;
	}

	.opacity-1 { 
	animation: color_opacity 10s infinite ease-in;
		animation-delay: 0s;
	}
	.opacity-3 { 
	animation: color_opacity 10s infinite ease-in;
		animation-delay: 2s;
	}
	.opacity-6 { 
	animation: color_opacity 10s infinite ease-in;
		animation-delay: 5s;
	}
	.opacity-9 { 
	animation: color_opacity 10s infinite ease-in;
		animation-delay: 8s;
	}
	/*
	@keyframes color_pulse {
		0% { fill: #CC0000; }
		15% { fill: #AAAAAA; }
		30%{ fill: #e0928d; }
		75% { fill: #AAAAAA; }
		100% { fill: #CC0000; }
	}
	*/
	@keyframes color_pulse {
		0% { fill: #AAAAAA; }
		15% { fill: #e0928d; }
		30%{ fill: #CC0000; }
	75% { fill: #e0928d; }
	100% { fill: #AAAAAA; }
	}

	@keyframes color_opacity {
		0% { opacity: 100%; }
		15% { opacity: 0; }
		30%,100% { opacity: 100%; }
	}
	
</style>
<g>
	<defs>
		<rect id="SVGID_1_" x="-122.6" y="-0.4" width="850.4" height="549.9"/>
	</defs>
	<clipPath id="SVGID_2_">
		<use xlink:href="#SVGID_1_"  style="overflow:visible;"/>
	</clipPath>
	<g class="st0">
		<g class="st1">
			<polygon class="st2 opacity-1" points="467,509.9 504.2,531 523.7,480.6 			"/>
			<polygon class="st2 opacity-3" points="637.2,506.6 607.4,420.4 686.4,488.6 			"/>
			<polygon class="st2 opacity-6" points="713.6,416.4 650.2,354 761.5,413.2 			"/>
			<polygon class="st2 opacity-9" points="661.6,239.1 709.6,220.9 690.4,152.5 			"/>
			<polygon class="st2 opacity-1" points="762.6,250.2 800.8,178.2 866.1,202.9 			"/>
			<polygon class="st2 opacity-3" points="480.5,317.2 532.1,391.5 581.4,396.4 			"/>
			<polygon class="st2 opacity-6" points="603.2,652.1 658.6,642.1 632,565.5 			"/>
			<polygon class="st2 opacity-9" points="492.8,626.4 572.7,597.3 584.3,491.7 			"/>
			<polygon class="st2 opacity-1" points="344.5,582.5 394.3,555.2 307.9,494.8 			"/>
			<polygon class="st2 opacity-3" points="328,376.2 387.4,470.1 368.6,488.3 			"/>
			<polygon class="st2 opacity-6" points="396.4,359.7 481.5,422.1 459.5,373.6 			"/>
			<polygon class="st2 opacity-9" points="145.2,419.9 244.5,417.6 238.5,355.4 			"/>
			<polygon class="st2 opacity-1" points="5.7,543.2 41.9,436.5 73.2,473.8 			"/>
			<polygon class="st2 opacity-3" points="152.1,578.7 152.7,491.1 188.3,609.2 			"/>
			<polygon class="st2 opacity-6" points="-8.3,690.3 52.7,655.1 87.8,684 			"/>
			<polygon class="st2 opacity-9" points="-97.8,669.6 -14.3,628.2 5.7,543.2 			"/>
			<polygon class="st2 opacity-1" points="-157.2,575.7 -174.9,457.8 -128.3,538.5 			"/>
			<polygon class="st2 opacity-3" points="-236.8,535.9 -217.3,616.6 -97.8,669.6 			"/>
			<polygon class="st2 opacity-6" points="612,199.3 661.6,239.1 593,308.8 			"/>
		</g>
		<g>
			<line class="st3" x1="407.4" y1="652.9" x2="452.6" y2="570.1"/>
			<polyline class="st3" points="307.9,494.8 344.5,582.5 394.3,555.2 			"/>
			<line class="st3" x1="277.6" y1="567.5" x2="344.5" y2="582.5"/>
			<polyline class="st3" points="612,199.3 593,308.8 661.6,239.1 690.7,313.4 593,308.8 607.4,420.4 686.4,488.6 584.3,491.7 
				632,565.5 686.4,488.6 681.6,605.4 			"/>
			<polyline class="st3" points="661.6,239.1 650.2,354 761.5,413.2 690.7,313.4 650.2,354 713.6,416.4 761.5,413.2 			"/>
			<polyline class="st3" points="690.4,152.5 635,162.5 726.8,93.9 800.8,178.2 690.4,152.5 632.3,86.3 635,162.5 612,199.3 
				661.6,239.1 635,162.5 551.4,166.5 593,308.8 466.9,235.4 612,199.3 			"/>
			<polyline class="st3" points="899.3,249.4 886.2,151.8 800.8,178.2 899.3,249.4 1016,237.2 886.2,151.8 690.4,152.5 661.6,239.1 
				709.6,220.9 			"/>
			<polyline class="st3" points="762.6,250.2 690.7,313.4 690.4,152.5 762.6,250.2 800.8,178.2 866.1,202.9 762.6,250.2 			"/>
			<polyline class="st3" points="584.3,491.7 532.1,391.5 607.4,420.4 650.2,354 593,308.8 532.1,391.5 581.4,396.4 584.3,491.7 
				572.7,597.3 632,565.5 			"/>
			<polyline class="st3" points="603.2,652.1 492.8,626.4 566.8,710.7 658.6,642.1 603.2,652.1 			"/>
			<polyline class="st3" points="607.4,420.4 637.2,506.6 686.4,488.6 745,534.9 681.6,605.4 737.4,655.4 658.6,642.1 632,565.5 
				681.6,605.4 658.6,642.1 			"/>
			<polyline class="st3" points="584.3,491.7 492.8,626.4 572.7,597.3 603.2,652.1 			"/>
			<line class="st3" x1="650.9" y1="424.6" x2="686.4" y2="488.6"/>
			<polyline class="st3" points="690.4,152.5 709.6,220.9 762.6,250.2 			"/>
			<polyline class="st3" points="238.5,355.4 145.2,419.9 244.5,417.6 211,490.2 145.2,419.9 74,508.6 80.2,611 5.7,543.2 
				-14.3,628.2 80.2,611 -8.3,690.3 			"/>
			<polyline class="st3" points="244.5,417.6 152.7,491.1 188.3,609.2 211,490.2 152.7,491.1 152.1,578.7 188.3,609.2 			"/>
			<polyline class="st3" points="328,376.2 281.6,345.2 396.4,359.7 387.4,470.1 328,376.2 335.2,289.5 281.6,345.2 238.5,355.4 
				244.5,417.6 281.6,345.2 219.5,290.7 145.2,419.9 109.5,281.5 238.5,355.4 			"/>
			<polyline class="st3" points="32.3,590 -14.3,628.2 -97.8,669.6 -236.8,535.9 -266.3,386.5 -174.9,457.8 -157.2,575.7 
				-236.8,535.9 -174.9,457.8 			"/>
			<polyline class="st3" points="-14.3,628.2 -79.4,609.9 5.7,543.2 73.2,473.8 41.9,436.5 145.2,419.9 152.7,491.1 74,508.6 
				41.9,436.5 5.7,543.2 -97.8,669.6 -166.2,686.1 -271.3,653.2 -236.8,535.9 -217.3,616.6 -166.2,686.1 			"/>
			<polyline class="st3" points="74,508.6 32.3,590 80.2,611 87.8,684 -8.3,690.3 -5.4,764 -51.4,700.6 -14.3,628.2 -8.3,690.3 
				-51.4,700.6 -105,756.3 -97.8,669.6 -157.2,575.7 -166.2,686.1 -51.4,700.6 -97.8,669.6 			"/>
			<polyline class="st3" points="73.2,473.8 152.7,491.1 80.2,611 152.1,578.7 101.7,541.4 152.7,491.1 			"/>
			<polyline class="st3" points="101.7,541.4 80.2,611 52.7,655.1 87.8,684 -5.4,764 -105,756.3 			"/>
			<polyline class="st3" points="328,376.2 291.8,437.7 307.9,494.8 394.3,555.2 407.4,652.9 492.8,626.4 394.3,555.2 277.6,567.5 
				407.4,652.9 603.2,652.1 632,565.5 637.2,506.6 			"/>
			<polyline class="st3" points="467,509.9 394.3,555.2 387.4,470.1 481.5,422.1 584.3,491.7 467,509.9 387.4,470.1 307.9,494.8 
				328,376.2 211,490.2 307.9,494.8 			"/>
			<polyline class="st3" points="481.5,422.1 523.7,480.6 584.3,491.7 			"/>
			<polyline class="st3" points="396.4,359.7 480.5,317.2 532.1,391.5 481.5,422.1 396.4,359.7 467,509.9 492.8,626.4 452.6,570.1 
				394.3,555.2 			"/>
			<polyline class="st3" points="481.5,422.1 480.5,317.2 581.4,396.4 650.2,354 686.4,488.6 713.6,416.4 650.9,424.6 650.2,354 			
				"/>
			<polyline class="st3" points="307.9,494.8 277.6,567.5 188.3,609.2 			"/>
			<line class="st3" x1="211" y1="490.2" x2="277.6" y2="567.5"/>
			<polyline class="st3" points="572.7,597.3 523.7,480.6 467,509.9 504.2,531 523.7,480.6 			"/>
			<line class="st3" x1="504.2" y1="531" x2="492.8" y2="626.4"/>
			<line class="st3" x1="886.2" y1="151.8" x2="866.1" y2="202.9"/>
			<line class="st3" x1="52.7" y1="655.1" x2="-8.3" y2="690.3"/>
			<polyline class="st3" points="-271.3,653.2 -217.3,616.6 -97.8,669.6 -79.4,609.9 -157.2,575.7 5.7,543.2 74,508.6 			"/>
			<polyline class="st3" points="-174.9,457.8 -128.3,538.5 -157.2,575.7 			"/>
			<line class="st3" x1="-128.3" y1="538.5" x2="5.7" y2="543.2"/>
			<polyline class="st3" points="328,376.2 368.6,488.3 387.4,470.1 			"/>
			<line class="st3" x1="368.6" y1="488.3" x2="467" y2="509.9"/>
			<polyline class="st3" points="396.4,359.7 459.5,373.6 481.5,422.1 			"/>
			<line class="st3" x1="459.5" y1="373.6" x2="480.5" y2="317.2"/>
			<line class="st3" x1="566.8" y1="710.7" x2="603.2" y2="652.1"/>
		</g>
		<g>
			<path class="st4" d="M633.7,87.9c0.9-0.7,1-2.1,0.2-2.9c-0.8-0.9-2.1-1-3-0.2c-0.9,0.7-1,2.1-0.2,2.9
				C631.4,88.6,632.8,88.7,633.7,87.9z"/>
			<path class="st4" d="M636.4,164.1c0.9-0.7,1-2.1,0.2-2.9c-0.8-0.9-2.1-1-3-0.2c-0.9,0.8-1,2.1-0.2,3
				C634.1,164.7,635.5,164.8,636.4,164.1z"/>
			<path class="st4" d="M663,240.7c0.9-0.8,1-2.1,0.2-2.9c-0.8-0.9-2.1-1-3-0.2c-0.9,0.7-1,2.1-0.2,2.9
				C660.7,241.3,662,241.4,663,240.7z"/>
			<path class="st4" d="M711,222.5c0.9-0.8,1-2.1,0.2-2.9c-0.8-0.9-2.1-1-3-0.2c-0.9,0.7-1,2.1-0.2,2.9
				C708.8,223.1,710.1,223.2,711,222.5z"/>
			<path class="st4" d="M692.6,315.5c1.2-1,1.3-2.7,0.3-3.8c-1-1.1-2.8-1.3-3.9-0.3c-1.2,1-1.3,2.7-0.3,3.8
				C689.6,316.3,691.4,316.4,692.6,315.5z"/>
			<path class="st4" d="M652,356.1c1.2-1,1.3-2.7,0.3-3.8c-1-1.1-2.8-1.3-3.9-0.3c-1.2,1-1.3,2.7-0.3,3.8
				C649.1,356.9,650.8,357,652,356.1z"/>
			<path class="st4" d="M715.3,418.3c1.1-0.9,1.2-2.5,0.3-3.6c-0.9-1.1-2.6-1.2-3.7-0.3c-1.1,0.9-1.2,2.5-0.3,3.6
				C712.6,419.1,714.2,419.2,715.3,418.3z"/>
			<path class="st4" d="M594.6,310.7c1.1-0.9,1.2-2.4,0.3-3.4c-0.9-1-2.5-1.2-3.6-0.3c-1.1,0.9-1.2,2.4-0.3,3.4
				C591.9,311.5,593.5,311.6,594.6,310.7z"/>
			<path class="st4" d="M553.1,168.4c1.1-0.9,1.2-2.4,0.3-3.4c-0.9-1-2.5-1.2-3.6-0.3c-1.1,0.9-1.2,2.4-0.3,3.4
				C550.4,169.1,552,169.3,553.1,168.4z"/>
			<path class="st4" d="M762.9,414.8c0.9-0.7,1-2.1,0.2-2.9c-0.8-0.9-2.1-1-3-0.2c-0.9,0.7-1,2.1-0.2,2.9
				C760.6,415.4,762,415.5,762.9,414.8z"/>
			<path class="st4" d="M728.2,95.5c0.9-0.7,1-2.1,0.2-2.9c-0.8-0.9-2.1-1-3-0.2c-0.9,0.7-1,2.1-0.2,2.9
				C725.9,96.2,727.3,96.3,728.2,95.5z"/>
			<path class="st4" d="M900.7,251c0.9-0.8,1-2.1,0.2-2.9c-0.8-0.9-2.1-1-3-0.2c-0.9,0.8-1,2.1-0.2,2.9
				C898.5,251.6,899.8,251.7,900.7,251z"/>
			<path class="st4" d="M867.5,204.5c0.9-0.7,1-2.1,0.2-2.9c-0.8-0.9-2.1-1-3-0.2c-0.9,0.7-1,2.1-0.2,2.9
				C865.3,205.1,866.6,205.2,867.5,204.5z"/>
			<path class="st4" d="M1017.4,238.7c0.9-0.7,1-2.1,0.2-2.9c-0.8-0.9-2.1-1-3-0.2c-0.9,0.7-1,2.1-0.2,2.9
				C1015.1,239.4,1016.5,239.5,1017.4,238.7z"/>
			<path class="st4" d="M692.5,154.8c1.3-1.1,1.5-3,0.4-4.3c-1.1-1.3-3.1-1.4-4.5-0.3c-1.3,1.1-1.5,3-0.4,4.3
				C689.1,155.8,691.1,155.9,692.5,154.8z"/>
			<path class="st4" d="M888.2,154.1c1.3-1.1,1.5-3,0.4-4.3c-1.1-1.3-3.1-1.4-4.5-0.3c-1.3,1.1-1.5,3-0.4,4.3
				C884.9,155,886.9,155.2,888.2,154.1z"/>
			<path class="st4" d="M802.7,180.4c1.3-1,1.4-2.9,0.3-4.1c-1.1-1.2-3-1.4-4.2-0.3c-1.3,1-1.4,2.9-0.3,4.1
				C799.6,181.3,801.5,181.5,802.7,180.4z"/>
			<path class="st4" d="M765.4,253.3c1.8-1.5,2-4.1,0.5-5.8c-1.5-1.7-4.2-1.9-6-0.5c-1.8,1.5-2,4.1-0.5,5.8
				C760.9,254.6,763.6,254.8,765.4,253.3z"/>
			<path class="st4" d="M740.1,658.6c1.8-1.5,2-4.1,0.5-5.8c-1.5-1.7-4.2-1.9-6-0.5c-1.8,1.5-2,4.1-0.5,5.8
				C735.7,659.8,738.3,660,740.1,658.6z"/>
			<path class="st4" d="M613.9,201.5c1.3-1,1.4-2.9,0.3-4.1c-1.1-1.2-3-1.4-4.2-0.3c-1.3,1-1.4,2.9-0.3,4.1
				C610.8,202.4,612.7,202.5,613.9,201.5z"/>
			<path class="st4" d="M468.6,237.3c1.1-0.9,1.2-2.5,0.3-3.6c-0.9-1.1-2.6-1.2-3.7-0.3c-1.1,0.9-1.2,2.5-0.3,3.6
				C465.8,238.1,467.5,238.3,468.6,237.3z"/>
			<path class="st4" d="M657.2,640.5c-0.9,0.7-1,2.1-0.2,2.9c0.8,0.9,2.1,1,3,0.2c0.9-0.7,1-2.1,0.2-2.9
				C659.5,639.9,658.1,639.8,657.2,640.5z"/>
			<path class="st4" d="M630.6,563.9c-0.9,0.7-1,2.1-0.2,2.9c0.8,0.9,2.1,1,3,0.2c0.9-0.7,1-2.1,0.2-2.9
				C632.9,563.3,631.6,563.2,630.6,563.9z"/>
			<path class="st4" d="M581.7,488.7c-1.7,1.4-1.9,3.8-0.4,5.5c1.4,1.6,3.9,1.8,5.6,0.4c1.7-1.4,1.9-3.8,0.4-5.5
				C585.9,487.5,583.4,487.4,581.7,488.7z"/>
			<path class="st4" d="M605.7,418.5c-1.1,0.9-1.2,2.5-0.3,3.6c0.9,1.1,2.6,1.2,3.7,0.3c1.1-0.9,1.2-2.5,0.3-3.6
				C608.4,417.7,606.8,417.6,605.7,418.5z"/>
			<path class="st4" d="M579.8,394.6c-1,0.9-1.2,2.4-0.3,3.3c0.9,1,2.4,1.1,3.5,0.3c1-0.9,1.2-2.4,0.3-3.3
				C582.4,393.8,580.8,393.7,579.8,394.6z"/>
			<path class="st4" d="M685,487c-0.9,0.8-1,2.1-0.2,2.9c0.8,0.9,2.1,1,3,0.2c0.9-0.7,1-2.1,0.2-2.9
				C687.2,486.4,685.9,486.3,685,487z"/>
			<path class="st4" d="M635.8,505c-0.9,0.7-1,2.1-0.2,2.9c0.8,0.9,2.1,1,3,0.2c0.9-0.7,1-2.1,0.2-2.9
				C638.1,504.3,636.7,504.2,635.8,505z"/>
			<path class="st4" d="M649.5,423c-0.9,0.7-1,2.1-0.2,2.9c0.8,0.9,2.1,1,3,0.2c0.9-0.8,1-2.1,0.2-2.9
				C651.7,422.4,650.4,422.2,649.5,423z"/>
			<path class="st4" d="M530.7,389.9c-0.9,0.7-1,2.1-0.2,2.9c0.8,0.9,2.1,1,3,0.2c0.9-0.7,1-2.1,0.2-2.9
				C533,389.2,531.6,389.1,530.7,389.9z"/>
			<path class="st4" d="M565.4,709.1c-0.9,0.7-1,2.1-0.2,2.9c0.8,0.9,2.1,1,3,0.2c0.9-0.7,1-2.1,0.2-2.9
				C567.7,708.4,566.3,708.3,565.4,709.1z"/>
			<path class="st4" d="M392.9,553.6c-0.9,0.7-1,2.1-0.2,2.9c0.8,0.9,2.1,1,3,0.2c0.9-0.8,1-2.1,0.2-2.9
				C395.1,553,393.8,552.9,392.9,553.6z"/>
			<path class="st4" d="M367.2,486.7c-0.9,0.8-1,2.1-0.2,2.9c0.8,0.9,2.1,1,3,0.2c0.9-0.7,1-2.1,0.2-2.9
				C369.5,486.1,368.1,486,367.2,486.7z"/>
			<path class="st4" d="M276.2,565.9c-0.9,0.7-1,2.1-0.2,2.9c0.8,0.9,2.1,1,3,0.2c0.9-0.7,1-2.1,0.2-2.9
				C278.5,565.2,277.1,565.1,276.2,565.9z"/>
			<path class="st4" d="M601.1,649.8c-1.3,1.1-1.5,3-0.4,4.3c1.1,1.3,3.1,1.4,4.5,0.3c1.3-1.1,1.5-3,0.4-4.3
				C604.5,648.8,602.5,648.7,601.1,649.8z"/>
			<path class="st4" d="M570.7,595c-1.3,1.1-1.5,3-0.4,4.3c1.1,1.3,3.1,1.4,4.5,0.3c1.3-1.1,1.5-3,0.4-4.3
				C574,594,572,593.9,570.7,595z"/>
			<path class="st4" d="M405.4,650.5c-1.3,1.1-1.5,3-0.4,4.3c1.1,1.3,3.1,1.4,4.5,0.3c1.3-1.1,1.5-3,0.4-4.3
				C408.7,649.6,406.7,649.4,405.4,650.5z"/>
			<path class="st4" d="M342.5,580.2c-1.3,1.1-1.5,3-0.4,4.3c1.1,1.3,3.1,1.4,4.5,0.3c1.3-1.1,1.5-3,0.4-4.3
				C345.8,579.2,343.8,579.1,342.5,580.2z"/>
			<path class="st4" d="M490.9,624.2c-1.3,1-1.4,2.9-0.3,4.1c1.1,1.2,3,1.4,4.2,0.3c1.3-1,1.4-2.9,0.3-4.1
				C494,623.3,492.1,623.2,490.9,624.2z"/>
			<path class="st4" d="M450,567.1c-1.7,1.4-1.9,3.9-0.5,5.6c1.5,1.7,4,1.9,5.7,0.4c1.7-1.4,1.9-3.9,0.5-5.6
				C454.2,565.9,451.7,565.7,450,567.1z"/>
			<path class="st4" d="M478.8,419.1c-1.7,1.4-1.9,3.9-0.5,5.6c1.5,1.7,4,1.9,5.7,0.4c1.7-1.4,1.9-3.9,0.5-5.6
				C483.1,417.9,480.5,417.7,478.8,419.1z"/>
			<path class="st4" d="M679.7,603.2c-1.3,1-1.4,2.9-0.3,4.1c1.1,1.2,3,1.4,4.2,0.3c1.3-1,1.4-2.9,0.3-4.1
				C682.8,602.3,680.9,602.1,679.7,603.2z"/>
			<path class="st4" d="M743,532.7c-1.3,1-1.4,2.9-0.3,4.1c1.1,1.2,3,1.4,4.2,0.3c1.3-1,1.4-2.9,0.3-4.1
				C746.2,531.8,744.3,531.7,743,532.7z"/>
			<path class="st4" d="M335,291.6c1.2,0.1,2.2-0.8,2.3-1.9c0.1-1.1-0.8-2.2-2-2.2c-1.2-0.1-2.2,0.8-2.3,1.9
				C332.9,290.5,333.8,291.5,335,291.6z"/>
			<path class="st4" d="M281.4,347.3c1.2,0.1,2.2-0.8,2.3-1.9c0.1-1.2-0.8-2.2-2-2.3c-1.2-0.1-2.2,0.8-2.3,1.9
				C279.3,346.2,280.2,347.2,281.4,347.3z"/>
			<path class="st4" d="M244.3,419.7c1.2,0.1,2.2-0.8,2.3-1.9c0.1-1.2-0.8-2.2-2-2.2c-1.2-0.1-2.2,0.8-2.3,1.9
				C242.3,418.6,243.2,419.6,244.3,419.7z"/>
			<path class="st4" d="M291.6,439.8c1.2,0.1,2.2-0.8,2.3-1.9c0.1-1.2-0.8-2.2-2-2.2c-1.2-0.1-2.2,0.8-2.3,1.9
				C289.6,438.7,290.4,439.7,291.6,439.8z"/>
			<path class="st4" d="M210.7,492.9c1.5,0.1,2.9-1,3-2.5c0.1-1.5-1-2.8-2.6-2.9c-1.5-0.1-2.9,1-3,2.5
				C208.1,491.4,209.2,492.7,210.7,492.9z"/>
			<path class="st4" d="M152.5,493.8c1.5,0.1,2.9-1,3-2.5c0.1-1.5-1-2.8-2.6-2.9c-1.5-0.1-2.9,1-3,2.5
				C149.8,492.4,150.9,493.7,152.5,493.8z"/>
			<path class="st4" d="M151.9,581.2c1.4,0.1,2.7-0.9,2.8-2.3c0.1-1.4-1-2.6-2.4-2.7c-1.4-0.1-2.7,0.9-2.8,2.3
				C149.4,579.9,150.4,581.1,151.9,581.2z"/>
			<path class="st4" d="M145,422.3c1.4,0.1,2.6-0.9,2.7-2.2c0.1-1.3-0.9-2.5-2.3-2.6c-1.4-0.1-2.6,0.9-2.7,2.2
				C142.5,421,143.6,422.2,145,422.3z"/>
			<path class="st4" d="M219.3,293.2c1.4,0.1,2.6-0.9,2.7-2.2c0.1-1.3-0.9-2.5-2.3-2.6c-1.4-0.1-2.6,0.9-2.7,2.2
				C216.9,291.9,217.9,293.1,219.3,293.2z"/>
			<path class="st4" d="M188.1,611.3c1.2,0.1,2.2-0.8,2.3-1.9c0.1-1.2-0.8-2.2-2-2.3c-1.2-0.1-2.2,0.8-2.3,1.9
				C186.1,610.2,186.9,611.2,188.1,611.3z"/>
			<path class="st4" d="M396.3,361.8c1.2,0.1,2.2-0.8,2.3-1.9c0.1-1.1-0.8-2.2-2-2.3c-1.2-0.1-2.2,0.8-2.3,1.9
				C394.2,360.7,395.1,361.7,396.3,361.8z"/>
			<path class="st4" d="M459.3,375.7c1.2,0.1,2.2-0.8,2.3-1.9c0.1-1.1-0.8-2.2-2-2.3c-1.2-0.1-2.2,0.8-2.3,1.9
				C457.2,374.6,458.1,375.6,459.3,375.7z"/>
			<path class="st4" d="M327.8,379.2c1.7,0.1,3.3-1.1,3.4-2.8c0.1-1.7-1.2-3.2-2.9-3.3c-1.7-0.1-3.3,1.1-3.4,2.8
				C324.7,377.6,326,379.1,327.8,379.2z"/>
			<path class="st4" d="M466.7,513c1.7,0.1,3.3-1.1,3.4-2.8c0.1-1.7-1.2-3.2-2.9-3.3c-1.7-0.1-3.3,1.1-3.4,2.8
				C463.7,511.3,465,512.8,466.7,513z"/>
			<path class="st4" d="M523.4,483.7c1.7,0.1,3.3-1.1,3.4-2.8c0.1-1.7-1.2-3.2-2.9-3.3c-1.7-0.1-3.3,1.1-3.4,2.8
				C520.4,482,521.7,483.5,523.4,483.7z"/>
			<path class="st4" d="M504,533.6c1.5,0.1,2.8-1,2.9-2.4c0.1-1.5-1-2.7-2.5-2.8c-1.5-0.1-2.8,1-2.9,2.4
				C501.4,532.2,502.5,533.5,504,533.6z"/>
			<path class="st4" d="M480.3,320.2c1.7,0.1,3.3-1.1,3.4-2.8c0.1-1.7-1.2-3.2-2.9-3.3c-1.7-0.1-3.3,1.1-3.4,2.8
				C477.2,318.6,478.5,320.1,480.3,320.2z"/>
			<path class="st4" d="M387.1,472.9c1.6,0.1,3.1-1.1,3.2-2.7c0.1-1.6-1.1-3-2.7-3.1c-1.6-0.1-3.1,1.1-3.2,2.7
				C384.2,471.4,385.5,472.8,387.1,472.9z"/>
			<path class="st4" d="M307.5,498.9c2.3,0.2,4.4-1.5,4.6-3.8c0.2-2.3-1.6-4.3-3.9-4.4c-2.3-0.2-4.4,1.5-4.6,3.8
				C303.5,496.7,305.2,498.7,307.5,498.9z"/>
			<path class="st4" d="M-5.7,768.1c2.3,0.2,4.4-1.5,4.6-3.8c0.2-2.3-1.6-4.3-3.9-4.4c-2.3-0.2-4.4,1.5-4.6,3.8
				C-9.8,765.9-8.1,767.9-5.7,768.1z"/>
			<path class="st4" d="M238.3,358.3c1.6,0.1,3.1-1.1,3.2-2.7c0.1-1.6-1.1-3-2.7-3.1c-1.6-0.1-3.1,1.1-3.2,2.7
				C235.4,356.8,236.6,358.2,238.3,358.3z"/>
			<path class="st4" d="M109.3,284c1.4,0.1,2.7-0.9,2.8-2.3c0.1-1.4-1-2.6-2.4-2.7c-1.4-0.1-2.7,0.9-2.8,2.3
				C106.8,282.7,107.9,283.9,109.3,284z"/>
			<path class="st4" d="M-104.8,754.2c-1.2-0.1-2.2,0.8-2.3,1.9c-0.1,1.2,0.8,2.2,2,2.2c1.2,0.1,2.2-0.8,2.3-1.9
				C-102.7,755.3-103.6,754.3-104.8,754.2z"/>
			<path class="st4" d="M-51.2,698.5c-1.2-0.1-2.2,0.8-2.3,1.9c-0.1,1.2,0.8,2.2,2,2.3c1.2,0.1,2.2-0.8,2.3-1.9
				C-49.1,699.6-50,698.6-51.2,698.5z"/>
			<path class="st4" d="M-14.2,626.1c-1.2-0.1-2.2,0.8-2.3,1.9c-0.1,1.1,0.8,2.2,2,2.3c1.2,0.1,2.2-0.8,2.3-1.9
				C-12.1,627.2-13,626.2-14.2,626.1z"/>
			<path class="st4" d="M5.9,540.5c-1.5-0.1-2.9,1-3,2.5c-0.1,1.5,1,2.8,2.6,2.9c1.5,0.1,2.9-1,3-2.5C8.6,541.9,7.5,540.6,5.9,540.5
				z"/>
			<path class="st4" d="M74.2,506.1c-1.4-0.1-2.7,0.9-2.8,2.3c-0.1,1.4,1,2.6,2.4,2.7c1.4,0.1,2.7-0.9,2.8-2.3
				C76.7,507.4,75.7,506.2,74.2,506.1z"/>
			<path class="st4" d="M73.4,471.4c-1.3-0.1-2.5,0.9-2.6,2.2c-0.1,1.3,0.9,2.5,2.2,2.6c1.3,0.1,2.5-0.9,2.6-2.2
				C75.7,472.7,74.7,471.5,73.4,471.4z"/>
			<path class="st4" d="M80.3,609c-1.2-0.1-2.2,0.8-2.3,1.9c-0.1,1.2,0.8,2.2,2,2.3c1.2,0.1,2.2-0.8,2.3-1.9
				C82.4,610.1,81.5,609.1,80.3,609z"/>
			<path class="st4" d="M32.5,588c-1.2-0.1-2.2,0.8-2.3,1.9c-0.1,1.2,0.8,2.2,2,2.3c1.2,0.1,2.2-0.8,2.3-1.9
				C34.6,589.1,33.7,588,32.5,588z"/>
			<path class="st4" d="M52.8,653.2c-1.1-0.1-2,0.7-2.1,1.7c-0.1,1,0.7,1.9,1.8,2c1.1,0.1,2-0.7,2.1-1.7
				C54.7,654.2,53.9,653.3,52.8,653.2z"/>
			<path class="st4" d="M101.9,539.3c-1.2-0.1-2.2,0.8-2.3,1.9c-0.1,1.2,0.8,2.2,2,2.3c1.2,0.1,2.2-0.8,2.3-1.9
				C104,540.4,103.1,539.4,101.9,539.3z"/>
			<path class="st4" d="M42.1,434.4c-1.2-0.1-2.2,0.8-2.3,1.9c-0.1,1.1,0.8,2.2,2,2.3c1.2,0.1,2.2-0.8,2.3-1.9
				C44.1,435.5,43.2,434.5,42.1,434.4z"/>
			<path class="st4" d="M-166.1,684c-1.2-0.1-2.2,0.8-2.3,1.9c-0.1,1.2,0.8,2.2,2,2.3c1.2,0.1,2.2-0.8,2.3-1.9
				C-164,685.1-164.9,684.1-166.1,684z"/>
			<path class="st4" d="M-217.1,614.5c-1.2-0.1-2.2,0.8-2.3,1.9c-0.1,1.2,0.8,2.2,2,2.3c1.2,0.1,2.2-0.8,2.3-1.9
				C-215.1,615.6-216,614.6-217.1,614.5z"/>
			<path class="st4" d="M-174.8,455.7c-1.2-0.1-2.2,0.8-2.3,1.9c-0.1,1.2,0.8,2.2,2,2.3c1.2,0.1,2.2-0.8,2.3-1.9
				C-172.7,456.8-173.6,455.8-174.8,455.7z"/>
			<path class="st4" d="M-266.2,384.4c-1.2-0.1-2.2,0.8-2.3,1.9c-0.1,1.1,0.8,2.2,2,2.3c1.2,0.1,2.2-0.8,2.3-1.9
				C-264.1,385.5-265,384.5-266.2,384.4z"/>
			<path class="st4" d="M-97.6,666.6c-1.7-0.1-3.3,1.1-3.4,2.8c-0.1,1.7,1.2,3.2,2.9,3.3c1.7,0.1,3.3-1.1,3.4-2.8
				C-94.6,668.2-95.9,666.7-97.6,666.6z"/>
			<path class="st4" d="M-79.2,606.9c-1.7-0.1-3.3,1.1-3.4,2.8c-0.1,1.7,1.2,3.2,2.9,3.3c1.7,0.1,3.3-1.1,3.4-2.8
				C-76.1,608.5-77.4,607-79.2,606.9z"/>
			<path class="st4" d="M-128.1,535.9c-1.5-0.1-2.8,1-2.9,2.4c-0.1,1.4,1,2.7,2.5,2.8c1.5,0.1,2.8-1,2.9-2.4
				C-125.5,537.3-126.6,536-128.1,535.9z"/>
			<path class="st4" d="M-236.6,532.8c-1.7-0.1-3.3,1.1-3.4,2.8c-0.1,1.7,1.2,3.2,2.9,3.3c1.7,0.1,3.3-1.1,3.4-2.8
				C-233.5,534.4-234.8,533-236.6,532.8z"/>
			<path class="st4" d="M-156.9,572.8c-1.6-0.1-3.1,1.1-3.2,2.7c-0.1,1.6,1.1,3,2.7,3.1c1.6,0.1,3.1-1.1,3.2-2.7
				C-154.1,574.4-155.3,573-156.9,572.8z"/>
			<path class="st4" d="M-270.9,649.3c-2.2-0.2-4.2,1.4-4.4,3.6c-0.2,2.2,1.5,4.1,3.7,4.2c2.2,0.2,4.2-1.4,4.4-3.6
				C-267,651.4-268.7,649.5-270.9,649.3z"/>
			<path class="st4" d="M-8.1,687.4c-1.6-0.1-3.1,1.1-3.2,2.7c-0.1,1.6,1.1,3,2.7,3.1c1.6,0.1,3.1-1.1,3.2-2.7
				C-5.2,689-6.4,687.6-8.1,687.4z"/>
			<path class="st4" d="M88.1,681.1c-1.6-0.1-3.1,1.1-3.2,2.7c-0.1,1.6,1.1,3,2.7,3.1c1.6,0.1,3.1-1.1,3.2-2.7
				C90.9,682.6,89.7,681.2,88.1,681.1z"/>
		</g>
	</g>
	<g class="st5">
		<g class="st1">
			<polygon class="st2 opacity-1" points="491.1,468.5 528.3,489.6 547.8,439.2 			"/>
			<polygon class="st2 opacity-3" points="661.3,465.2 631.5,379.1 710.5,447.3 			"/>
			<polygon class="st2 opacity-6" points="737.7,375.1 674.3,312.7 785.6,371.8 			"/>
			<polygon class="st2 opacity-9" points="685.7,197.7 733.7,179.5 714.5,111.1 			"/>
			<polygon class="st2 opacity-1" points="786.7,208.8 824.9,136.9 890.2,161.5 			"/>
			<polygon class="st2 opacity-3" points="504.6,275.8 556.2,350.1 605.5,355 			"/>
			<polygon class="st2 opacity-6" points="627.3,610.8 682.7,600.8 656.2,524.2 			"/>
			<polygon class="st2 opacity-9" points="516.9,585.1 596.8,555.9 608.4,450.3 			"/>
			<polygon class="st2 opacity-1" points="368.6,541.2 418.4,513.9 332,453.4 			"/>
			<polygon class="st2 opacity-3" points="352.1,334.8 411.5,428.7 392.7,446.9 			"/>
			<polygon class="st2 opacity-6" points="420.5,318.3 505.6,380.7 483.6,332.3 			"/>
			<polygon class="st2 opacity-9" points="169.3,378.5 268.6,376.2 262.6,314.1 			"/>
			<polygon class="st2 opacity-1" points="29.8,501.8 66,395.2 97.3,432.5 			"/>
			<polygon class="st2 opacity-3" points="176.2,537.4 176.8,449.7 212.4,567.9 			"/>
			<polygon class="st2 opacity-6" points="15.8,649 76.8,613.7 111.9,642.6 			"/>
			<polygon class="st2 opacity-9" points="-73.7,628.3 9.8,586.8 29.8,501.8 			"/>
			<polygon class="st2 opacity-1" points="-133.1,534.4 -150.8,416.4 -104.2,497.2 			"/>
			<polygon class="st2 opacity-3" points="-212.7,494.5 -193.2,575.2 -73.7,628.3 			"/>
			<polygon class="st2 opacity-6" points="636.1,157.9 685.7,197.7 617.1,267.5 			"/>
		</g>
		<g>
			<line class="st3" x1="431.6" y1="611.5" x2="476.7" y2="528.8"/>
			<polyline class="st3" points="332,453.4 368.6,541.2 418.4,513.9 			"/>
			<line class="st3" x1="301.7" y1="526.1" x2="368.6" y2="541.2"/>
			<polyline class="st3" points="636.1,157.9 617.1,267.5 685.7,197.7 714.9,272.1 617.1,267.5 631.5,379.1 710.5,447.3 
				608.4,450.3 656.2,524.2 710.5,447.3 705.7,564 			"/>
			<polyline class="st3" points="685.7,197.7 674.3,312.7 785.6,371.8 714.9,272.1 674.3,312.7 737.7,375.1 785.6,371.8 			"/>
			<polyline class="st3" points="714.5,111.1 659.1,121.1 750.9,52.6 824.9,136.9 714.5,111.1 656.4,45 659.1,121.1 636.1,157.9 
				685.7,197.7 659.1,121.1 575.5,125.2 617.1,267.5 491,194.1 636.1,157.9 			"/>
			<polyline class="st3" points="923.4,208.1 910.3,110.4 824.9,136.9 923.4,208.1 1040.1,195.8 910.3,110.4 714.5,111.1 
				685.7,197.7 733.7,179.5 			"/>
			<polyline class="st3" points="786.7,208.8 714.9,272.1 714.5,111.1 786.7,208.8 824.9,136.9 890.2,161.5 786.7,208.8 			"/>
			<polyline class="st3" points="608.4,450.3 556.2,350.1 631.5,379.1 674.3,312.7 617.1,267.5 556.2,350.1 605.5,355 608.4,450.3 
				596.8,555.9 656.2,524.2 			"/>
			<polyline class="st3" points="627.3,610.8 516.9,585.1 590.9,669.3 682.7,600.8 627.3,610.8 			"/>
			<polyline class="st3" points="631.5,379.1 661.3,465.2 710.5,447.3 769.1,493.6 705.7,564 761.5,614.1 682.7,600.8 656.2,524.2 
				705.7,564 682.7,600.8 			"/>
			<polyline class="st3" points="608.4,450.3 516.9,585.1 596.8,555.9 627.3,610.8 			"/>
			<line class="st3" x1="675" y1="383.2" x2="710.5" y2="447.3"/>
			<polyline class="st3" points="714.5,111.1 733.7,179.5 786.7,208.8 			"/>
			<polyline class="st3" points="262.6,314.1 169.3,378.5 268.6,376.2 235.1,448.8 169.3,378.5 98.1,467.3 104.3,569.7 29.8,501.8 
				9.8,586.8 104.3,569.7 15.8,649 			"/>
			<polyline class="st3" points="268.6,376.2 176.8,449.7 212.4,567.9 235.1,448.8 176.8,449.7 176.2,537.4 212.4,567.9 			"/>
			<polyline class="st3" points="352.1,334.8 305.7,303.8 420.5,318.3 411.5,428.7 352.1,334.8 359.3,248.2 305.7,303.8 
				262.6,314.1 268.6,376.2 305.7,303.8 243.6,249.4 169.3,378.5 133.6,240.1 262.6,314.1 			"/>
			<polyline class="st3" points="56.4,548.7 9.8,586.8 -73.7,628.3 -212.7,494.5 -242.2,345.1 -150.8,416.4 -133.1,534.4 
				-212.7,494.5 -150.8,416.4 			"/>
			<polyline class="st3" points="9.8,586.8 -55.3,568.6 29.8,501.8 97.3,432.5 66,395.2 169.3,378.5 176.8,449.7 98.1,467.3 
				66,395.2 29.8,501.8 -73.7,628.3 -142.1,644.7 -247.2,611.9 -212.7,494.5 -193.2,575.2 -142.1,644.7 			"/>
			<polyline class="st3" points="98.1,467.3 56.4,548.7 104.3,569.7 111.9,642.6 15.8,649 18.7,722.6 -27.3,659.2 9.8,586.8 
				15.8,649 -27.3,659.2 -80.9,714.9 -73.7,628.3 -133.1,534.4 -142.1,644.7 -27.3,659.2 -73.7,628.3 			"/>
			<polyline class="st3" points="97.3,432.5 176.8,449.7 104.3,569.7 176.2,537.4 125.8,500.1 176.8,449.7 			"/>
			<polyline class="st3" points="125.8,500.1 104.3,569.7 76.8,613.7 111.9,642.6 18.7,722.6 -80.9,714.9 			"/>
			<polyline class="st3" points="352.1,334.8 315.9,396.3 332,453.4 418.4,513.9 431.6,611.5 516.9,585.1 418.4,513.9 301.7,526.1 
				431.6,611.5 627.3,610.8 656.2,524.2 661.3,465.2 			"/>
			<polyline class="st3" points="491.1,468.5 418.4,513.9 411.5,428.7 505.6,380.7 608.4,450.3 491.1,468.5 411.5,428.7 332,453.4 
				352.1,334.8 235.1,448.8 332,453.4 			"/>
			<polyline class="st3" points="505.6,380.7 547.8,439.2 608.4,450.3 			"/>
			<polyline class="st3" points="420.5,318.3 504.6,275.8 556.2,350.1 505.6,380.7 420.5,318.3 491.1,468.5 516.9,585.1 
				476.7,528.8 418.4,513.9 			"/>
			<polyline class="st3" points="505.6,380.7 504.6,275.8 605.5,355 674.3,312.7 710.5,447.3 737.7,375.1 675,383.2 674.3,312.7 			
				"/>
			<polyline class="st3" points="332,453.4 301.7,526.1 212.4,567.9 			"/>
			<line class="st3" x1="235.1" y1="448.8" x2="301.7" y2="526.1"/>
			<polyline class="st3" points="596.8,555.9 547.8,439.2 491.1,468.5 528.3,489.6 547.8,439.2 			"/>
			<line class="st3" x1="528.3" y1="489.6" x2="516.9" y2="585.1"/>
			<line class="st3" x1="910.3" y1="110.4" x2="890.2" y2="161.5"/>
			<line class="st3" x1="76.8" y1="613.7" x2="15.8" y2="649"/>
			<polyline class="st3" points="-247.2,611.9 -193.2,575.2 -73.7,628.3 -55.3,568.6 -133.1,534.4 29.8,501.8 98.1,467.3 			"/>
			<polyline class="st3" points="-150.8,416.4 -104.2,497.2 -133.1,534.4 			"/>
			<line class="st3" x1="-104.2" y1="497.2" x2="29.8" y2="501.8"/>
			<polyline class="st3" points="352.1,334.8 392.7,446.9 411.5,428.7 			"/>
			<line class="st3" x1="392.7" y1="446.9" x2="491.1" y2="468.5"/>
			<polyline class="st3" points="420.5,318.3 483.6,332.3 505.6,380.7 			"/>
			<line class="st3" x1="483.6" y1="332.3" x2="504.6" y2="275.8"/>
			<line class="st3" x1="590.9" y1="669.3" x2="627.3" y2="610.8"/>
		</g>
		<g>
			<path class="st6 anim-1" d="M657.8,46.6c0.9-0.7,1-2.1,0.2-2.9c-0.8-0.9-2.1-1-3-0.2c-0.9,0.7-1,2.1-0.2,2.9
				C655.5,47.2,656.9,47.3,657.8,46.6z"/>
			<path class="st6 anim-2" d="M660.5,122.7c0.9-0.7,1-2.1,0.2-2.9c-0.8-0.9-2.1-1-3-0.2c-0.9,0.8-1,2.1-0.2,3
				C658.2,123.4,659.6,123.5,660.5,122.7z"/>
			<path class="st6 anim-3" d="M687.1,199.3c0.9-0.8,1-2.1,0.2-2.9c-0.8-0.9-2.1-1-3-0.2c-0.9,0.7-1,2.1-0.2,2.9
				C684.8,200,686.2,200.1,687.1,199.3z"/>
			<path class="st6 anim-4" d="M735.1,181.1c0.9-0.8,1-2.1,0.2-2.9c-0.8-0.9-2.1-1-3-0.2c-0.9,0.7-1,2.1-0.2,2.9
				C732.9,181.8,734.2,181.9,735.1,181.1z"/>
			<path class="st6 anim-5" d="M716.7,274.1c1.2-1,1.3-2.7,0.3-3.8c-1-1.1-2.8-1.3-3.9-0.3c-1.2,1-1.3,2.7-0.3,3.8
				C713.7,275,715.5,275.1,716.7,274.1z"/>
			<path class="st6 anim-6" d="M676.1,314.7c1.2-1,1.3-2.7,0.3-3.8c-1-1.1-2.8-1.3-3.9-0.3c-1.2,1-1.3,2.7-0.3,3.8
				C673.2,315.6,674.9,315.7,676.1,314.7z"/>
			<path class="st6 anim-7" d="M739.4,377c1.1-0.9,1.2-2.5,0.3-3.6c-0.9-1.1-2.6-1.2-3.7-0.3c-1.1,0.9-1.2,2.5-0.3,3.6
				C736.7,377.8,738.3,377.9,739.4,377z"/>
			<path class="st6 anim-8" d="M618.7,269.4c1.1-0.9,1.2-2.4,0.3-3.4c-0.9-1-2.5-1.2-3.6-0.3c-1.1,0.9-1.2,2.4-0.3,3.4
				C616,270.1,617.6,270.2,618.7,269.4z"/>
			<path class="st6 anim-9" d="M577.2,127c1.1-0.9,1.2-2.4,0.3-3.4c-0.9-1-2.5-1.2-3.6-0.3c-1.1,0.9-1.2,2.4-0.3,3.4
				C574.5,127.8,576.1,127.9,577.2,127z"/>
			<path class="st6 anim-1" d="M787,373.4c0.9-0.7,1-2.1,0.2-2.9c-0.8-0.9-2.1-1-3-0.2c-0.9,0.7-1,2.1-0.2,2.9
				C784.8,374.1,786.1,374.2,787,373.4z"/>
			<path class="st6 anim-2" d="M752.3,54.2c0.9-0.7,1-2.1,0.2-2.9c-0.8-0.9-2.1-1-3-0.2c-0.9,0.7-1,2.1-0.2,2.9
				C750,54.8,751.4,54.9,752.3,54.2z"/>
			<path class="st6 anim-3" d="M924.8,209.6c0.9-0.8,1-2.1,0.2-2.9c-0.8-0.9-2.1-1-3-0.2c-0.9,0.8-1,2.1-0.2,2.9
				C922.6,210.3,923.9,210.4,924.8,209.6z"/>
			<path class="st6 anim-4" d="M891.6,163.1c0.9-0.7,1-2.1,0.2-2.9c-0.8-0.9-2.1-1-3-0.2c-0.9,0.7-1,2.1-0.2,2.9
				C889.4,163.8,890.7,163.9,891.6,163.1z"/>
			<path class="st6 anim-5" d="M1041.5,197.4c0.9-0.7,1-2.1,0.2-2.9c-0.8-0.9-2.1-1-3-0.2c-0.9,0.7-1,2.1-0.2,2.9
				C1039.2,198,1040.6,198.2,1041.5,197.4z"/>
			<path class="st6 anim-6" d="M716.6,113.5c1.3-1.1,1.5-3,0.4-4.3c-1.1-1.3-3.1-1.4-4.5-0.3c-1.3,1.1-1.5,3-0.4,4.3
				C713.2,114.4,715.2,114.6,716.6,113.5z"/>
			<path class="st6 anim-7" d="M912.3,112.7c1.3-1.1,1.5-3,0.4-4.3c-1.1-1.3-3.1-1.4-4.5-0.3c-1.3,1.1-1.5,3-0.4,4.3
				C909,113.7,911,113.9,912.3,112.7z"/>
			<path class="st6 anim-8" d="M826.9,139.1c1.3-1,1.4-2.9,0.3-4.1c-1.1-1.2-3-1.4-4.2-0.3c-1.3,1-1.4,2.9-0.3,4.1
				C823.7,140,825.6,140.1,826.9,139.1z"/>
			<path class="st6 anim-9" d="M789.5,212c1.8-1.5,2-4.1,0.5-5.8c-1.5-1.7-4.2-1.9-6-0.5c-1.8,1.5-2,4.1-0.5,5.8
				C785,213.2,787.7,213.5,789.5,212z"/>
			<path class="st6 anim-1" d="M764.2,617.2c1.8-1.5,2-4.1,0.5-5.8c-1.5-1.7-4.2-1.9-6-0.5c-1.8,1.5-2,4.1-0.5,5.8
				C759.8,618.5,762.4,618.7,764.2,617.2z"/>
			<path class="st6 anim-2" d="M638,160.1c1.3-1,1.4-2.9,0.3-4.1c-1.1-1.2-3-1.4-4.2-0.3c-1.3,1-1.4,2.9-0.3,4.1
				C634.9,161,636.8,161.2,638,160.1z"/>
			<path class="st6 anim-3" d="M492.7,196c1.1-0.9,1.2-2.5,0.3-3.6c-0.9-1.1-2.6-1.2-3.7-0.3c-1.1,0.9-1.2,2.5-0.3,3.6
				C489.9,196.8,491.6,196.9,492.7,196z"/>
			<path class="st6 anim-4" d="M681.3,599.2c-0.9,0.7-1,2.1-0.2,2.9c0.8,0.9,2.1,1,3,0.2c0.9-0.7,1-2.1,0.2-2.9
				C683.6,598.6,682.2,598.4,681.3,599.2z"/>
			<path class="st6 anim-5" d="M654.8,522.6c-0.9,0.7-1,2.1-0.2,2.9c0.8,0.9,2.1,1,3,0.2c0.9-0.7,1-2.1,0.2-2.9
				C657,522,655.7,521.8,654.8,522.6z"/>
			<path class="st6 anim-6" d="M605.8,447.4c-1.7,1.4-1.9,3.8-0.4,5.5c1.4,1.6,3.9,1.8,5.6,0.4c1.7-1.4,1.9-3.8,0.4-5.5
				C610,446.2,607.5,446,605.8,447.4z"/>
			<path class="st6 anim-7" d="M629.8,377.1c-1.1,0.9-1.2,2.5-0.3,3.6c0.9,1.1,2.6,1.2,3.7,0.3c1.1-0.9,1.2-2.5,0.3-3.6
				C632.5,376.4,630.9,376.2,629.8,377.1z"/>
			<path class="st6 anim-8" d="M603.9,353.2c-1,0.9-1.2,2.4-0.3,3.3c0.9,1,2.4,1.1,3.5,0.3c1-0.9,1.2-2.4,0.3-3.3
				C606.5,352.5,604.9,352.4,603.9,353.2z"/>
			<path class="st6 anim-9" d="M709.1,445.7c-0.9,0.8-1,2.1-0.2,2.9c0.8,0.9,2.1,1,3,0.2c0.9-0.7,1-2.1,0.2-2.9
				C711.3,445,710,444.9,709.1,445.7z"/>
			<path class="st6 anim-1" d="M659.9,463.6c-0.9,0.7-1,2.1-0.2,2.9c0.8,0.9,2.1,1,3,0.2c0.9-0.7,1-2.1,0.2-2.9
				C662.2,463,660.8,462.9,659.9,463.6z"/>
			<path class="st6 anim-2" d="M673.6,381.7c-0.9,0.7-1,2.1-0.2,2.9c0.8,0.9,2.1,1,3,0.2c0.9-0.8,1-2.1,0.2-2.9
				C675.8,381,674.5,380.9,673.6,381.7z"/>
			<path class="st6 anim-3" d="M554.8,348.5c-0.9,0.7-1,2.1-0.2,2.9c0.8,0.9,2.1,1,3,0.2c0.9-0.7,1-2.1,0.2-2.9
				C557.1,347.9,555.7,347.8,554.8,348.5z"/>
			<path class="st6 anim-4" d="M589.5,667.7c-0.9,0.7-1,2.1-0.2,2.9c0.8,0.9,2.1,1,3,0.2c0.9-0.7,1-2.1,0.2-2.9
				C591.8,667.1,590.4,667,589.5,667.7z"/>
			<path class="st6 anim-5" d="M417,512.3c-0.9,0.7-1,2.1-0.2,2.9c0.8,0.9,2.1,1,3,0.2c0.9-0.8,1-2.1,0.2-2.9
				C419.2,511.6,417.9,511.5,417,512.3z"/>
			<path class="st6 anim-6" d="M391.3,445.4c-0.9,0.8-1,2.1-0.2,2.9c0.8,0.9,2.1,1,3,0.2c0.9-0.7,1-2.1,0.2-2.9
				C393.6,444.7,392.2,444.6,391.3,445.4z"/>
			<path class="st6 anim-7" d="M300.3,524.5c-0.9,0.7-1,2.1-0.2,2.9c0.8,0.9,2.1,1,3,0.2c0.9-0.7,1-2.1,0.2-2.9
				C302.6,523.9,301.3,523.8,300.3,524.5z"/>
			<path class="st6 anim-8" d="M625.2,608.4c-1.3,1.1-1.5,3-0.4,4.3c1.1,1.3,3.1,1.4,4.5,0.3c1.3-1.1,1.5-3,0.4-4.3
				C628.6,607.5,626.6,607.3,625.2,608.4z"/>
			<path class="st6 anim-9" d="M594.8,553.6c-1.3,1.1-1.5,3-0.4,4.3c1.1,1.3,3.1,1.4,4.5,0.3c1.3-1.1,1.5-3,0.4-4.3
				C598.1,552.7,596.1,552.5,594.8,553.6z"/>
			<path class="st6 anim-1" d="M429.5,609.2c-1.3,1.1-1.5,3-0.4,4.3c1.1,1.3,3.1,1.4,4.5,0.3c1.3-1.1,1.5-3,0.4-4.3
				C432.8,608.2,430.8,608.1,429.5,609.2z"/>
			<path class="st6 anim-2" d="M366.6,538.8c-1.3,1.1-1.5,3-0.4,4.3c1.1,1.3,3.1,1.4,4.5,0.3c1.3-1.1,1.5-3,0.4-4.3
				C369.9,537.9,367.9,537.7,366.6,538.8z"/>
			<path class="st6 anim-3" d="M515,582.9c-1.3,1-1.4,2.9-0.3,4.1c1.1,1.2,3,1.4,4.2,0.3c1.3-1,1.4-2.9,0.3-4.1
				C518.1,582,516.2,581.8,515,582.9z"/>
			<path class="st6 anim-4" d="M474.1,525.8c-1.7,1.4-1.9,3.9-0.5,5.6c1.5,1.7,4,1.9,5.7,0.4c1.7-1.4,1.9-3.9,0.5-5.6
				C478.3,524.5,475.8,524.3,474.1,525.8z"/>
			<path class="st6 anim-5" d="M502.9,377.7c-1.7,1.4-1.9,3.9-0.5,5.6c1.5,1.7,4,1.9,5.7,0.4c1.7-1.4,1.9-3.9,0.5-5.6
				C507.2,376.5,504.6,376.3,502.9,377.7z"/>
			<path class="st6 anim-6" d="M703.8,561.8c-1.3,1-1.4,2.9-0.3,4.1c1.1,1.2,3,1.4,4.2,0.3c1.3-1,1.4-2.9,0.3-4.1
				C706.9,560.9,705,560.8,703.8,561.8z"/>
			<path class="st6 anim-7" d="M359.1,250.2c1.2,0.1,2.2-0.8,2.3-1.9c0.1-1.1-0.8-2.2-2-2.2c-1.2-0.1-2.2,0.8-2.3,1.9
				C357,249.1,357.9,250.1,359.1,250.2z"/>
			<path class="st6 anim-8" d="M305.5,305.9c1.2,0.1,2.2-0.8,2.3-1.9c0.1-1.2-0.8-2.2-2-2.3c-1.2-0.1-2.2,0.8-2.3,1.9
				C303.4,304.8,304.3,305.8,305.5,305.9z"/>
			<path class="st6 anim-9" d="M268.4,378.3c1.2,0.1,2.2-0.8,2.3-1.9c0.1-1.2-0.8-2.2-2-2.2c-1.2-0.1-2.2,0.8-2.3,1.9
				C266.4,377.2,267.3,378.2,268.4,378.3z"/>
			<path class="st6 anim-1" d="M315.7,398.4c1.2,0.1,2.2-0.8,2.3-1.9c0.1-1.1-0.8-2.2-2-2.2c-1.2-0.1-2.2,0.8-2.3,1.9
				C313.7,397.3,314.5,398.3,315.7,398.4z"/>
			<path class="st6 anim-2" d="M234.9,451.5c1.5,0.1,2.9-1,3-2.5c0.1-1.5-1-2.8-2.6-2.9c-1.5-0.1-2.9,1-3,2.5
				C232.2,450.1,233.3,451.4,234.9,451.5z"/>
			<path class="st6 anim-3" d="M176.6,452.4c1.5,0.1,2.9-1,3-2.5c0.1-1.5-1-2.8-2.6-2.9c-1.5-0.1-2.9,1-3,2.5
				C173.9,451,175.1,452.3,176.6,452.4z"/>
			<path class="st6 anim-4" d="M176,539.9c1.4,0.1,2.7-0.9,2.8-2.3c0.1-1.4-1-2.6-2.4-2.7c-1.4-0.1-2.7,0.9-2.8,2.3
				C173.5,538.5,174.5,539.8,176,539.9z"/>
			<path class="st6 anim-5" d="M169.1,380.9c1.4,0.1,2.6-0.9,2.7-2.2c0.1-1.3-0.9-2.5-2.3-2.6c-1.4-0.1-2.6,0.9-2.7,2.2
				C166.6,379.7,167.7,380.8,169.1,380.9z"/>
			<path class="st6 anim-6" d="M243.4,251.8c1.4,0.1,2.6-0.9,2.7-2.2c0.1-1.3-0.9-2.5-2.3-2.6c-1.4-0.1-2.6,0.9-2.7,2.2
				C241,250.5,242,251.7,243.4,251.8z"/>
			<path class="st6 anim-7" d="M212.2,570c1.2,0.1,2.2-0.8,2.3-1.9c0.1-1.2-0.8-2.2-2-2.3c-1.2-0.1-2.2,0.8-2.3,1.9
				C210.2,568.9,211,569.9,212.2,570z"/>
			<path class="st6 anim-8" d="M420.4,320.4c1.2,0.1,2.2-0.8,2.3-1.9c0.1-1.2-0.8-2.2-2-2.3c-1.2-0.1-2.2,0.8-2.3,1.9
				C418.3,319.3,419.2,320.3,420.4,320.4z"/>
			<path class="st6 anim-9" d="M483.4,334.4c1.2,0.1,2.2-0.8,2.3-1.9c0.1-1.1-0.8-2.2-2-2.3c-1.2-0.1-2.2,0.8-2.3,1.9
				C481.3,333.3,482.2,334.3,483.4,334.4z"/>
			<path class="st6 anim-1" d="M351.9,337.9c1.7,0.1,3.3-1.1,3.4-2.8c0.1-1.7-1.2-3.2-2.9-3.3c-1.7-0.1-3.3,1.1-3.4,2.8
				C348.8,336.2,350.1,337.7,351.9,337.9z"/>
			<path class="st6 anim-2" d="M490.8,471.6c1.7,0.1,3.3-1.1,3.4-2.8c0.1-1.7-1.2-3.2-2.9-3.3c-1.7-0.1-3.3,1.1-3.4,2.8
				C487.8,470,489.1,471.5,490.8,471.6z"/>
			<path class="st6 anim-3" d="M547.5,442.3c1.7,0.1,3.3-1.1,3.4-2.8c0.1-1.7-1.2-3.2-2.9-3.3c-1.7-0.1-3.3,1.1-3.4,2.8
				C544.5,440.7,545.8,442.2,547.5,442.3z"/>
			<path class="st6 anim-4" d="M528.1,492.2c1.5,0.1,2.8-1,2.9-2.4c0.1-1.5-1-2.7-2.5-2.8c-1.5-0.1-2.8,1-2.9,2.4
				C525.5,490.9,526.6,492.1,528.1,492.2z"/>
			<path class="st6 anim-5" d="M504.4,278.9c1.7,0.1,3.3-1.1,3.4-2.8c0.1-1.7-1.2-3.2-2.9-3.3c-1.7-0.1-3.3,1.1-3.4,2.8
				C501.3,277.3,502.7,278.8,504.4,278.9z"/>
			<path class="st6 anim-6" d="M411.2,431.6c1.6,0.1,3.1-1.1,3.2-2.7c0.1-1.6-1.1-3-2.7-3.1c-1.6-0.1-3.1,1.1-3.2,2.7
				C408.4,430.1,409.6,431.5,411.2,431.6z"/>
			<path class="st6 anim-7" d="M331.6,457.5c2.3,0.2,4.4-1.5,4.6-3.8c0.2-2.3-1.6-4.3-3.9-4.4c-2.3-0.2-4.4,1.5-4.6,3.8
				C327.6,455.3,329.3,457.3,331.6,457.5z"/>
			<path class="st6 anim-8" d="M18.4,726.7c2.3,0.2,4.4-1.5,4.6-3.8c0.2-2.3-1.6-4.3-3.9-4.4c-2.3-0.2-4.4,1.5-4.6,3.8
				C14.3,724.6,16.1,726.6,18.4,726.7z"/>
			<path class="st6 anim-9" d="M262.4,317c1.6,0.1,3.1-1.1,3.2-2.7c0.1-1.6-1.1-3-2.7-3.1c-1.6-0.1-3.1,1.1-3.2,2.7
				C259.5,315.4,260.7,316.8,262.4,317z"/>
			<path class="st6 anim-1" d="M133.4,242.7c1.4,0.1,2.7-0.9,2.8-2.3c0.1-1.4-1-2.6-2.4-2.7c-1.4-0.1-2.7,0.9-2.8,2.3
				C130.9,241.3,132,242.5,133.4,242.7z"/>
			<path class="st6 anim-2" d="M-80.7,712.8c-1.2-0.1-2.2,0.8-2.3,1.9c-0.1,1.2,0.8,2.2,2,2.2c1.2,0.1,2.2-0.8,2.3-1.9
				C-78.6,713.9-79.5,712.9-80.7,712.8z"/>
			<path class="st6 anim-3" d="M-27.1,657.1c-1.2-0.1-2.2,0.8-2.3,1.9c-0.1,1.2,0.8,2.2,2,2.3c1.2,0.1,2.2-0.8,2.3-1.9
				C-25,658.2-25.9,657.2-27.1,657.1z"/>
			<path class="st6 anim-4" d="M9.9,584.7c-1.2-0.1-2.2,0.8-2.3,1.9c-0.1,1.1,0.8,2.2,2,2.3c1.2,0.1,2.2-0.8,2.3-1.9
				C12,585.8,11.1,584.8,9.9,584.7z"/>
			<path class="st6 anim-5" d="M30.1,499.2c-1.5-0.1-2.9,1-3,2.5c-0.1,1.5,1,2.8,2.6,2.9c1.5,0.1,2.9-1,3-2.5
				C32.7,500.6,31.6,499.3,30.1,499.2z"/>
			<path class="st6 anim-6" d="M98.3,464.8c-1.4-0.1-2.7,0.9-2.8,2.3c-0.1,1.4,1,2.6,2.4,2.7c1.4,0.1,2.7-0.9,2.8-2.3
				C100.8,466.1,99.8,464.9,98.3,464.8z"/>
			<path class="st6 anim-7" d="M97.5,430.1c-1.3-0.1-2.5,0.9-2.6,2.2c-0.1,1.3,0.9,2.5,2.2,2.6c1.3,0.1,2.5-0.9,2.6-2.2
				C99.8,431.3,98.8,430.2,97.5,430.1z"/>
			<path class="st6 anim-8" d="M104.4,567.6c-1.2-0.1-2.2,0.8-2.3,1.9c-0.1,1.2,0.8,2.2,2,2.3c1.2,0.1,2.2-0.8,2.3-1.9
				C106.5,568.7,105.6,567.7,104.4,567.6z"/>
			<path class="st6 anim-9" d="M56.6,546.6c-1.2-0.1-2.2,0.8-2.3,1.9c-0.1,1.2,0.8,2.2,2,2.3c1.2,0.1,2.2-0.8,2.3-1.9
				C58.7,547.7,57.8,546.7,56.6,546.6z"/>
			<path class="st6 anim-1" d="M76.9,611.9c-1.1-0.1-2,0.7-2.1,1.7c-0.1,1,0.7,1.9,1.8,2c1.1,0.1,2-0.7,2.1-1.7
				C78.8,612.9,78,612,76.9,611.9z"/>
			<path class="st6 anim-2" d="M126,498c-1.2-0.1-2.2,0.8-2.3,1.9c-0.1,1.2,0.8,2.2,2,2.3c1.2,0.1,2.2-0.8,2.3-1.9
				C128.1,499.1,127.2,498.1,126,498z"/>
			<path class="st6 anim-3" d="M66.2,393.1c-1.2-0.1-2.2,0.8-2.3,1.9c-0.1,1.2,0.8,2.2,2,2.3c1.2,0.1,2.2-0.8,2.3-1.9
				C68.2,394.2,67.3,393.2,66.2,393.1z"/>
			<path class="st6 anim-4" d="M-142,642.6c-1.2-0.1-2.2,0.8-2.3,1.9c-0.1,1.2,0.8,2.2,2,2.3c1.2,0.1,2.2-0.8,2.3-1.9
				C-139.9,643.7-140.8,642.7-142,642.6z"/>
			<path class="st6 anim-5" d="M-193,573.1c-1.2-0.1-2.2,0.8-2.3,1.9c-0.1,1.2,0.8,2.2,2,2.3c1.2,0.1,2.2-0.8,2.3-1.9
				C-191,574.2-191.8,573.2-193,573.1z"/>
			<path class="st6 anim-6" d="M-150.7,414.4c-1.2-0.1-2.2,0.8-2.3,1.9c-0.1,1.2,0.8,2.2,2,2.3c1.2,0.1,2.2-0.8,2.3-1.9
				C-148.6,415.5-149.5,414.5-150.7,414.4z"/>
			<path class="st6 anim-7" d="M-242.1,343c-1.2-0.1-2.2,0.8-2.3,1.9c-0.1,1.1,0.8,2.2,2,2.3c1.2,0.1,2.2-0.8,2.3-1.9
				C-240,344.1-240.9,343.1-242.1,343z"/>
			<path class="st6 anim-8" d="M-73.5,625.2c-1.7-0.1-3.3,1.1-3.4,2.8c-0.1,1.7,1.2,3.2,2.9,3.3c1.7,0.1,3.3-1.1,3.4-2.8
				C-70.4,626.8-71.7,625.3-73.5,625.2z"/>
			<path class="st6 anim-9" d="M-55.1,565.5c-1.7-0.1-3.3,1.1-3.4,2.8c-0.1,1.7,1.2,3.2,2.9,3.3c1.7,0.1,3.3-1.1,3.4-2.8
				C-52,567.2-53.3,565.7-55.1,565.5z"/>
			<path class="st6 anim-1" d="M-104,494.5c-1.5-0.1-2.8,1-2.9,2.4c-0.1,1.4,1,2.7,2.5,2.8c1.5,0.1,2.8-1,2.9-2.4
				C-101.4,495.9-102.5,494.7-104,494.5z"/>
			<path class="st6 anim-2" d="M-212.4,491.5c-1.7-0.1-3.3,1.1-3.4,2.8c-0.1,1.7,1.2,3.2,2.9,3.3c1.7,0.1,3.3-1.1,3.4-2.8
				C-209.4,493.1-210.7,491.6-212.4,491.5z"/>
			<path class="st6 anim-3" d="M-132.8,531.5c-1.6-0.1-3.1,1.1-3.2,2.7c-0.1,1.6,1.1,3,2.7,3.1c1.6,0.1,3.1-1.1,3.2-2.7
				C-130,533-131.2,531.6-132.8,531.5z"/>
			<path class="st6 anim-4" d="M-246.8,608c-2.2-0.2-4.2,1.4-4.4,3.6c-0.2,2.2,1.5,4.1,3.7,4.2c2.2,0.2,4.2-1.4,4.4-3.6
				C-242.9,610-244.6,608.1-246.8,608z"/>
			<path class="st6 anim-5" d="M16,646.1c-1.6-0.1-3.1,1.1-3.2,2.7c-0.1,1.6,1.1,3,2.7,3.1c1.6,0.1,3.1-1.1,3.2-2.7
				C18.9,647.6,17.7,646.2,16,646.1z"/>
			<path class="st6 anim-6" d="M112.2,639.8c-1.6-0.1-3.1,1.1-3.2,2.7c-0.1,1.6,1.1,3,2.7,3.1c1.6,0.1,3.1-1.1,3.2-2.7
				C115,641.3,113.8,639.9,112.2,639.8z"/>
		</g>
	</g>
</g>
</svg>
