<?xml version="1.0" encoding="utf-8"?>
<!-- Generator: Adobe Illustrator 23.0.6, SVG Export Plug-In . SVG Version: 6.00 Build 0)  -->
<svg version="1.1" id="aeb5f580-2f50-46b3-98d3-690bb64aa878"
	 xmlns="http://www.w3.org/2000/svg" xmlns:xlink="http://www.w3.org/1999/xlink" x="0px" y="0px" viewBox="0 0 1418.9 836"
	 style="enable-background:new 0 0 1418.9 836;" xml:space="preserve">
<style type="text/css">
	.st0{opacity:0.2;}
	.st1{opacity:0.1;}
	.st2 opacity-1{fill:#AAAAAA;}
	.st3{fill:none;stroke:#AAAAAA;stroke-width:0.58;stroke-miterlimit:10;}
	.st4{fill:#333333;}
	.st5{fill:#CC0000;}



.anim-1{
	animation: color_pulse 10s infinite ease-in;
	animation-delay: 0s;
}
.anim-2{
	animation: color_pulse 10s infinite ease-in;
	animation-delay: 1s;
}
.anim-3{
	animation: color_pulse 10s infinite ease-in;
	animation-delay: 2s;
}
.anim-4{
	animation: color_pulse 10s infinite ease-in;
	animation-delay: 3s;
}
.anim-5{
	animation: color_pulse 10s infinite ease-in;
	animation-delay: 4s;
}

.anim-6{
	animation: color_pulse 10s infinite ease-in;
	animation-delay: 5s;
}

.anim-7{
	animation: color_pulse 10s infinite ease-in;
	animation-delay: 6s;
}

.anim-8{
	animation: color_pulse 10s infinite ease-in;
	animation-delay: 7s;
}

.anim-9{
	animation: color_pulse 10s infinite ease-in;
	animation-delay: 8s;
}

.opacity-1 { 
  animation: color_opacity 10s infinite ease-in;
	animation-delay: 0s;
}
.opacity-3 { 
  animation: color_opacity 10s infinite ease-in;
	animation-delay: 2s;
}
.opacity-6 { 
  animation: color_opacity 10s infinite ease-in;
	animation-delay: 5s;
}
.opacity-9 { 
  animation: color_opacity 10s infinite ease-in;
	animation-delay: 8s;
}

@keyframes color_pulse {
	0% { fill: #AAAAAA; }
	15% { fill: #e0928d; }
	30%{ fill: #CC0000; }
  75% { fill: #e0928d; }
  100% { fill: #AAAAAA; }
}

@keyframes color_opacity {
	0% { opacity: 100%; }
	15% { opacity: 0; }
	30%,100% { opacity: 100%; }
}


</style>
<g>
	<g class="st0">
		<g class="st1">
			<polygon class="st2 opacity-1" points="805.5,526 842.7,547.8 862.2,495.8 			"/>
			<polygon class="st2 opacity-3" points="975.7,522.6 945.9,433.8 1024.9,504.1 			"/>
			<polygon class="st2 opacity-6" points="1052.2,429.7 988.7,365.4 1100,426.3 			"/>
			<polygon class="st2 opacity-9" points="1000.1,246.9 1048.2,228.1 1028.9,157.6 			"/>
			<polygon class="st2 opacity-1" points="1101.1,258.3 1139.3,184.1 1204.7,209.5 			"/>
			<polygon class="st2 opacity-3" points="819,327.4 870.6,403.9 919.9,409 			"/>
			<polygon class="st2 opacity-6" points="941.7,672.7 997.1,662.4 970.5,583.4 			"/>
			<polygon class="st2 opacity-9" points="831.3,646.2 911.2,616.1 922.8,507.3 			"/>
			<polygon class="st2 opacity-1" points="683,600.9 732.8,572.8 646.4,510.4 			"/>
			<polygon class="st2 opacity-3" points="666.5,388.2 725.9,485 707.1,503.8 			"/>
			<polygon class="st2 opacity-6" points="734.9,371.2 820,435.5 798,385.6 			"/>
			<polygon class="st2 opacity-9" points="483.7,433.2 583,430.9 577,366.8 			"/>
			<polygon class="st2 opacity-1" points="344.2,560.4 380.4,450.4 411.7,488.8 			"/>
			<polygon class="st2 opacity-3" points="490.6,597 491.2,506.6 526.8,628.5 			"/>
			<polygon class="st2 opacity-6" points="330.2,712.1 391.2,675.7 426.3,705.5 			"/>
			<polygon class="st2 opacity-9" points="240.7,690.7 324.2,648 344.2,560.4 			"/>
			<polygon class="st2 opacity-1" points="181.3,593.9 163.6,472.3 210.2,555.5 			"/>
			<polygon class="st2 opacity-3" points="101.7,552.8 121.2,636 240.7,690.7 			"/>
			<polygon class="st2 opacity-6" points="950.5,205.8 1000.1,246.9 931.5,318.8 			"/>
		</g>
		<g>
			<line class="st3" x1="746" y1="673.4" x2="791.1" y2="588.1"/>
			<polyline class="st3" points="646.4,510.4 683,600.9 732.8,572.8 			"/>
			<line class="st3" x1="616.2" y1="585.4" x2="683" y2="600.9"/>
			<polyline class="st3" points="950.5,205.8 931.5,318.8 1000.1,246.9 1029.3,323.5 931.5,318.8 945.9,433.8 1024.9,504.1 
				922.8,507.3 970.5,583.4 1024.9,504.1 1020.1,624.5 			"/>
			<polyline class="st3" points="1000.1,246.9 988.7,365.4 1100,426.3 1029.3,323.5 988.7,365.4 1052.2,429.7 1100,426.3 			"/>
			<polyline class="st3" points="1028.9,157.6 973.5,167.9 1065.3,97.2 1139.3,184.1 1028.9,157.6 970.8,89.4 973.5,167.9 
				950.5,205.8 1000.1,246.9 973.5,167.9 889.9,172.1 931.5,318.8 805.4,243.1 950.5,205.8 			"/>
			<polyline class="st3" points="1237.8,257.5 1224.7,156.8 1139.3,184.1 1237.8,257.5 1354.5,244.9 1224.7,156.8 1028.9,157.6 
				1000.1,246.9 1048.2,228.1 			"/>
			<polyline class="st3" points="1101.1,258.3 1029.3,323.5 1028.9,157.6 1101.1,258.3 1139.3,184.1 1204.7,209.5 1101.1,258.3 			
				"/>
			<polyline class="st3" points="922.8,507.3 870.6,403.9 945.9,433.8 988.7,365.4 931.5,318.8 870.6,403.9 919.9,409 922.8,507.3 
				911.2,616.1 970.5,583.4 			"/>
			<polyline class="st3" points="941.7,672.7 831.3,646.2 905.3,733 997.1,662.4 941.7,672.7 			"/>
			<polyline class="st3" points="945.9,433.8 975.7,522.6 1024.9,504.1 1083.5,551.8 1020.1,624.5 1075.9,676.1 997.1,662.4 
				970.5,583.4 1020.1,624.5 997.1,662.4 			"/>
			<polyline class="st3" points="922.8,507.3 831.3,646.2 911.2,616.1 941.7,672.7 			"/>
			<line class="st3" x1="989.4" y1="438.1" x2="1024.9" y2="504.1"/>
			<polyline class="st3" points="1028.9,157.6 1048.2,228.1 1101.1,258.3 			"/>
			<polyline class="st3" points="577,366.8 483.7,433.2 583,430.9 549.5,505.7 483.7,433.2 412.5,524.7 418.7,630.3 344.2,560.4 
				324.2,648 418.7,630.3 330.2,712.1 			"/>
			<polyline class="st3" points="583,430.9 491.2,506.6 526.8,628.5 549.5,505.7 491.2,506.6 490.6,597 526.8,628.5 			"/>
			<polyline class="st3" points="666.5,388.2 620.1,356.2 734.9,371.2 725.9,485 666.5,388.2 673.7,298.8 620.1,356.2 577,366.8 
				583,430.9 620.1,356.2 558,300.1 483.7,433.2 448,290.5 577,366.8 			"/>
			<polyline class="st3" points="370.8,608.7 324.2,648 240.7,690.7 101.7,552.8 72.2,398.8 163.6,472.3 181.3,593.9 101.7,552.8 
				163.6,472.3 			"/>
			<polyline class="st3" points="324.2,648 259.1,629.2 344.2,560.4 411.7,488.8 380.4,450.4 483.7,433.2 491.2,506.6 412.5,524.7 
				380.4,450.4 344.2,560.4 240.7,690.7 172.3,707.7 67.2,673.8 101.7,552.8 121.2,636 172.3,707.7 			"/>
			<polyline class="st3" points="412.5,524.7 370.8,608.7 418.7,630.3 426.3,705.5 330.2,712.1 333.1,788 287.1,722.6 324.2,648 
				330.2,712.1 287.1,722.6 233.5,780 240.7,690.7 181.3,593.9 172.3,707.7 287.1,722.6 240.7,690.7 			"/>
			<polyline class="st3" points="411.7,488.8 491.2,506.6 418.7,630.3 490.6,597 440.2,558.5 491.2,506.6 			"/>
			<polyline class="st3" points="440.2,558.5 418.7,630.3 391.2,675.7 426.3,705.5 333.1,788 233.5,780 			"/>
			<polyline class="st3" points="666.5,388.2 630.3,451.6 646.4,510.4 732.8,572.8 746,673.4 831.3,646.2 732.8,572.8 616.2,585.4 
				746,673.4 941.7,672.7 970.5,583.4 975.7,522.6 			"/>
			<polyline class="st3" points="805.5,526 732.8,572.8 725.9,485 820,435.5 922.8,507.3 805.5,526 725.9,485 646.4,510.4 
				666.5,388.2 549.5,505.7 646.4,510.4 			"/>
			<polyline class="st3" points="820,435.5 862.2,495.8 922.8,507.3 			"/>
			<polyline class="st3" points="734.9,371.2 819,327.4 870.6,403.9 820,435.5 734.9,371.2 805.5,526 831.3,646.2 791.1,588.1 
				732.8,572.8 			"/>
			<polyline class="st3" points="820,435.5 819,327.4 919.9,409 988.7,365.4 1024.9,504.1 1052.2,429.7 989.4,438.1 988.7,365.4 			
				"/>
			<polyline class="st3" points="646.4,510.4 616.2,585.4 526.8,628.5 			"/>
			<line class="st3" x1="549.5" y1="505.7" x2="616.2" y2="585.4"/>
			<polyline class="st3" points="911.2,616.1 862.2,495.8 805.5,526 842.7,547.8 862.2,495.8 			"/>
			<line class="st3" x1="842.7" y1="547.8" x2="831.3" y2="646.2"/>
			<line class="st3" x1="1224.7" y1="156.8" x2="1204.7" y2="209.5"/>
			<line class="st3" x1="391.2" y1="675.7" x2="330.2" y2="712.1"/>
			<polyline class="st3" points="67.2,673.8 121.2,636 240.7,690.7 259.1,629.2 181.3,593.9 344.2,560.4 412.5,524.7 			"/>
			<polyline class="st3" points="163.6,472.3 210.2,555.5 181.3,593.9 			"/>
			<line class="st3" x1="210.2" y1="555.5" x2="344.2" y2="560.4"/>
			<polyline class="st3" points="666.5,388.2 707.1,503.8 725.9,485 			"/>
			<line class="st3" x1="707.1" y1="503.8" x2="805.5" y2="526"/>
			<polyline class="st3" points="734.9,371.2 798,385.6 820,435.5 			"/>
			<line class="st3" x1="798" y1="385.6" x2="819" y2="327.4"/>
			<line class="st3" x1="905.3" y1="733" x2="941.7" y2="672.7"/>
		</g>
		<g>
			<path class="st4" d="M972.2,91c0.9-0.8,1-2.1,0.3-3s-2.1-1-3-0.3c-0.9,0.8-1,2.1-0.3,3c0,0,0,0,0,0C970,91.6,971.3,91.7,972.2,91
				z"/>
			<path class="st4" d="M974.9,169.5c0.9-0.8,1-2.1,0.3-3s-2.1-1-3-0.3c-0.9,0.8-1,2.1-0.3,3c0,0,0,0,0,0
				C972.7,170.2,974,170.3,974.9,169.5z"/>
			<path class="st4" d="M1001.5,248.5c0.9-0.8,1-2.1,0.2-3c-0.8-0.9-2.1-1-3-0.2l0,0c-0.9,0.8-1,2.1-0.2,3
				C999.2,249.2,1000.6,249.3,1001.5,248.5z"/>
			<path class="st4" d="M1049.5,229.7c0.9-0.8,1-2.1,0.3-3c-0.8-0.9-2.1-1-3-0.3c-0.9,0.8-1,2.1-0.3,3c0,0,0,0,0,0
				C1047.3,230.3,1048.6,230.5,1049.5,229.7z"/>
			<path class="st4" d="M1031.1,325.6c1.2-1,1.3-2.8,0.3-3.9c-1-1.2-2.8-1.3-3.9-0.3c-1.2,1-1.3,2.8-0.3,3.9
				C1028.1,326.5,1029.9,326.6,1031.1,325.6C1031.1,325.6,1031.1,325.6,1031.1,325.6z"/>
			<path class="st4" d="M990.5,367.5c1.2-1,1.3-2.7,0.3-3.9c-1-1.2-2.7-1.3-3.9-0.3c-1.2,1-1.3,2.7-0.3,3.9
				C987.6,368.3,989.3,368.5,990.5,367.5z"/>
			<path class="st4" d="M1053.8,431.6c1.1-0.9,1.2-2.6,0.3-3.7c-0.9-1.1-2.6-1.2-3.7-0.3c-1.1,0.9-1.2,2.6-0.3,3.7
				C1051.1,432.5,1052.7,432.6,1053.8,431.6C1053.8,431.7,1053.8,431.7,1053.8,431.6z"/>
			<path class="st4" d="M933.1,320.7c1.1-0.9,1.2-2.5,0.3-3.6c-0.9-1.1-2.5-1.2-3.6-0.3c-1.1,0.9-1.2,2.5-0.3,3.6c0,0,0,0,0,0
				C930.5,321.5,932,321.6,933.1,320.7z"/>
			<path class="st4" d="M891.6,174c1.1-0.9,1.2-2.5,0.3-3.6c-0.9-1.1-2.5-1.2-3.6-0.3c-1.1,0.9-1.2,2.5-0.3,3.6c0,0,0,0,0,0
				C888.9,174.8,890.5,174.9,891.6,174C891.6,174,891.6,174,891.6,174z"/>
			<path class="st4" d="M1101.4,428c0.9-0.8,1.1-2.1,0.3-3c-0.8-0.9-2.1-1.1-3-0.3c-0.9,0.8-1.1,2.1-0.3,3c0,0,0,0,0,0
				C1099.2,428.6,1100.5,428.7,1101.4,428z"/>
			<path class="st4" d="M1066.7,98.9c0.9-0.8,1-2.1,0.3-3c-0.8-0.9-2.1-1-3-0.3c-0.9,0.8-1,2.1-0.3,3c0,0,0,0,0,0
				C1064.5,99.5,1065.8,99.6,1066.7,98.9z"/>
			<path class="st4" d="M1239.2,259.1c0.9-0.8,1-2.1,0.3-3c-0.8-0.9-2.1-1-3-0.3c-0.9,0.8-1,2.1-0.3,3c0,0,0,0,0,0
				C1237,259.8,1238.3,259.9,1239.2,259.1z"/>
			<path class="st4" d="M1206,211.2c0.9-0.8,1-2.1,0.3-3c-0.8-0.9-2.1-1-3-0.3c-0.9,0.8-1,2.1-0.3,3c0,0,0,0,0,0
				C1203.8,211.8,1205.1,211.9,1206,211.2z"/>
			<path class="st4" d="M1355.9,246.5c0.9-0.8,1-2.1,0.3-3c-0.8-0.9-2.1-1-3-0.3c-0.9,0.8-1,2.1-0.3,3c0,0,0,0,0,0
				C1353.6,247.1,1355,247.3,1355.9,246.5z"/>
			<path class="st4" d="M1031,160c1.3-1.1,1.5-3.1,0.4-4.5c-1.1-1.3-3.1-1.5-4.5-0.4c-1.3,1.1-1.5,3.1-0.4,4.5c0,0,0,0,0,0
				C1027.7,161,1029.7,161.1,1031,160z"/>
			<path class="st4" d="M1226.7,159.2c1.3-1.1,1.5-3.1,0.4-4.5c-1.1-1.3-3.1-1.5-4.5-0.4c-1.3,1.1-1.5,3.1-0.4,4.5
				C1223.4,160.2,1225.4,160.4,1226.7,159.2C1226.7,159.2,1226.7,159.2,1226.7,159.2z"/>
			<path class="st4" d="M1141.2,186.4c1.3-1.1,1.4-3,0.3-4.2c-1.1-1.3-3-1.4-4.2-0.3c-1.3,1.1-1.4,2.9-0.4,4.2
				C1138.1,187.3,1139.9,187.4,1141.2,186.4C1141.2,186.4,1141.2,186.4,1141.2,186.4z"/>
			<path class="st4" d="M1103.9,261.5c1.8-1.5,2-4.2,0.5-6c-1.5-1.8-4.2-2-6-0.5c-1.8,1.5-2,4.2-0.5,6
				C1099.4,262.8,1102.1,263.1,1103.9,261.5C1103.9,261.6,1103.9,261.5,1103.9,261.5z"/>
			<path class="st4" d="M1078.6,679.3c1.8-1.5,2-4.2,0.5-6c-1.5-1.8-4.2-2-6-0.5c-1.8,1.5-2,4.2-0.5,6
				C1074.1,680.6,1076.8,680.8,1078.6,679.3C1078.6,679.3,1078.6,679.3,1078.6,679.3z"/>
			<path class="st4" d="M952.4,208.1c1.3-1.1,1.4-3,0.4-4.2c-1.1-1.3-3-1.4-4.2-0.4s-1.4,3-0.4,4.2c0,0,0,0,0,0
				C949.3,209,951.2,209.1,952.4,208.1z"/>
			<path class="st4" d="M807.1,245.1c1.1-0.9,1.2-2.6,0.3-3.7c-0.9-1.1-2.6-1.2-3.7-0.3c-1.1,0.9-1.2,2.6-0.3,3.7c0,0,0,0,0,0
				C804.3,245.9,806,246,807.1,245.1z"/>
			<path class="st4" d="M995.7,660.7c-0.9,0.8-1,2.1-0.3,3s2.1,1,3,0.3c0.9-0.8,1-2.1,0.3-3c0,0,0,0,0,0
				C998,660.1,996.6,660,995.7,660.7z"/>
			<path class="st4" d="M969.2,581.8c-0.9,0.8-1,2.1-0.3,3s2.1,1,3,0.3s1-2.1,0.3-3c0,0,0,0,0,0C971.4,581.1,970.1,581,969.2,581.8z
				"/>
			<path class="st4" d="M920.2,504.2c-1.7,1.4-1.9,4-0.5,5.6c1.4,1.7,4,1.9,5.6,0.5c1.7-1.4,1.9-4,0.5-5.6c0,0,0,0,0,0
				C924.4,503,921.9,502.8,920.2,504.2z"/>
			<path class="st4" d="M944.2,431.8c-1.1,0.9-1.2,2.6-0.3,3.7c0.9,1.1,2.6,1.2,3.7,0.3c1.1-0.9,1.2-2.6,0.3-3.7c0,0,0,0,0,0
				C946.9,431,945.3,430.9,944.2,431.8C944.2,431.8,944.2,431.8,944.2,431.8z"/>
			<path class="st4" d="M918.3,407.1c-1,0.9-1.2,2.4-0.3,3.5c0.9,1,2.4,1.2,3.5,0.3c1-0.9,1.2-2.4,0.3-3.5c0,0,0,0,0,0
				C920.9,406.4,919.3,406.3,918.3,407.1C918.3,407.1,918.3,407.1,918.3,407.1z"/>
			<path class="st4" d="M1023.5,502.5c-0.9,0.8-1,2.1-0.3,3c0.8,0.9,2.1,1,3,0.3c0.9-0.8,1-2.1,0.3-3c0,0,0,0,0,0
				C1025.7,501.8,1024.4,501.7,1023.5,502.5z"/>
			<path class="st4" d="M974.3,521c-0.9,0.8-1,2.1-0.3,3s2.1,1,3,0.3s1-2.1,0.3-3c0,0,0,0,0,0C976.6,520.4,975.2,520.3,974.3,521z"
				/>
			<path class="st4" d="M988,436.5c-0.9,0.8-0.9,2.2-0.1,3.1c0.8,0.8,2,0.9,2.9,0.2c1-0.7,1.1-2.1,0.4-3s-2.1-1.1-3-0.4
				C988.1,436.3,988.1,436.4,988,436.5z"/>
			<path class="st4" d="M869.2,402.3c-0.9,0.8-1,2.1-0.3,3c0.8,0.9,2.1,1,3,0.3s1-2.1,0.3-3c0,0,0,0,0,0
				C871.4,401.7,870.1,401.6,869.2,402.3z"/>
			<path class="st4" d="M903.9,731.4c-0.9,0.8-1,2.1-0.3,3s2.1,1,3,0.3c0.9-0.8,1-2.1,0.3-3c0,0,0,0,0,0
				C906.2,730.8,904.8,730.6,903.9,731.4z"/>
			<path class="st4" d="M731.4,571.1c-0.9,0.8-1,2.1-0.3,3s2.1,1,3,0.3s1-2.1,0.3-3c0,0,0,0,0,0
				C733.6,570.5,732.3,570.4,731.4,571.1z"/>
			<path class="st4" d="M705.7,502.1c-0.9,0.8-1.1,2.1-0.3,3c0.8,0.9,2.1,1.1,3,0.3c0.9-0.8,1.1-2.1,0.3-3c0,0,0,0,0,0
				C707.9,501.5,706.6,501.4,705.7,502.1z"/>
			<path class="st4" d="M614.8,583.8c-0.9,0.8-1,2.1-0.3,3s2.1,1,3,0.3s1-2.1,0.3-3c0,0,0,0,0,0C617,583.1,615.7,583,614.8,583.8z"
				/>
			<path class="st4" d="M939.7,670.3c-1.3,1.1-1.5,3.1-0.4,4.5c1.1,1.3,3.1,1.5,4.5,0.4c1.3-1.1,1.5-3.1,0.4-4.5c0,0,0,0,0,0
				C943,669.3,941,669.1,939.7,670.3z"/>
			<path class="st4" d="M909.2,613.7c-1.3,1.1-1.5,3.1-0.3,4.5c1.1,1.3,3.1,1.5,4.5,0.3c1.3-1.1,1.5-3.1,0.3-4.5
				C912.5,612.8,910.5,612.6,909.2,613.7z"/>
			<path class="st4" d="M743.9,671c-1.3,1.1-1.5,3.1-0.4,4.5c1.1,1.3,3.1,1.5,4.5,0.4c1.3-1.1,1.5-3.1,0.4-4.5c0,0,0,0,0,0
				C747.2,670,745.2,669.9,743.9,671C743.9,671,743.9,671,743.9,671z"/>
			<path class="st4" d="M681,598.5c-1.3,1.1-1.5,3.1-0.4,4.5c1.1,1.3,3.1,1.5,4.5,0.4c1.3-1.1,1.5-3.1,0.4-4.5
				C684.3,597.5,682.3,597.4,681,598.5C681,598.5,681,598.5,681,598.5z"/>
			<path class="st4" d="M829.4,643.9c-1.3,1.1-1.4,3-0.3,4.2c1.1,1.3,3,1.4,4.2,0.3c1.3-1.1,1.4-3,0.3-4.2c0,0,0,0,0,0
				C832.5,643,830.6,642.8,829.4,643.9z"/>
			<path class="st4" d="M788.5,585c-1.7,1.5-1.9,4-0.5,5.7c1.5,1.7,4,1.9,5.7,0.5c1.7-1.5,1.9-4,0.5-5.7c0,0,0,0,0,0
				C792.7,583.8,790.2,583.5,788.5,585z"/>
			<path class="st4" d="M817.3,432.4c-1.7,1.5-1.9,4-0.5,5.7c1.5,1.7,4,1.9,5.7,0.5c1.7-1.5,1.9-4,0.5-5.7c0,0,0,0,0,0
				C821.6,431.2,819.1,431,817.3,432.4z"/>
			<path class="st4" d="M1018.2,622.2c-1.3,1.1-1.4,3-0.4,4.2c1.1,1.3,3,1.4,4.2,0.4c1.3-1.1,1.4-3,0.4-4.2c0,0,0,0,0,0
				C1021.3,621.3,1019.4,621.1,1018.2,622.2z"/>
			<path class="st4" d="M1081.5,549.6c-1.3,1.1-1.4,3-0.4,4.2s3,1.4,4.2,0.4s1.4-3,0.4-4.2c0,0,0,0,0,0
				C1084.7,548.7,1082.8,548.5,1081.5,549.6z"/>
			<path class="st4" d="M673.5,301c1.2,0,2.2-0.9,2.2-2.1c0-1.1-0.8-2-1.9-2.2c-1.2-0.2-2.3,0.7-2.4,1.9s0.7,2.3,1.9,2.4
				C673.3,301,673.4,301,673.5,301z"/>
			<path class="st4" d="M619.9,358.4c1.2,0,2.2-0.9,2.2-2.1c0-1.1-0.8-2-1.9-2.2c-1.2-0.2-2.3,0.7-2.4,1.9s0.7,2.3,1.9,2.4
				C619.7,358.4,619.8,358.4,619.9,358.4z"/>
			<path class="st4" d="M582.8,433c1.2,0.1,2.2-0.8,2.3-2c0.1-1.2-0.8-2.2-2-2.3c-1.2-0.1-2.2,0.8-2.3,2
				C580.8,431.9,581.6,432.9,582.8,433C582.8,433,582.8,433,582.8,433z"/>
			<path class="st4" d="M630.1,453.7c1.2,0.1,2.2-0.8,2.3-2c0.1-1.2-0.8-2.2-2-2.3c-1.2-0.1-2.2,0.8-2.3,2
				C628,452.6,628.9,453.6,630.1,453.7C630.1,453.7,630.1,453.7,630.1,453.7z"/>
			<path class="st4" d="M549.3,508.5c1.5,0.1,2.9-1,3-2.6s-1-2.9-2.6-3c-1.5-0.1-2.9,1-3,2.5C546.6,507,547.7,508.4,549.3,508.5
				C549.2,508.5,549.3,508.5,549.3,508.5z"/>
			<path class="st4" d="M491,509.4c1.5,0.1,2.9-1,3-2.6s-1-2.9-2.6-3c-1.5-0.1-2.9,1-3,2.5C488.3,508,489.5,509.3,491,509.4z"/>
			<path class="st4" d="M490.4,599.6c1.4,0.1,2.7-1,2.8-2.4c0.1-1.4-1-2.7-2.4-2.8c-1.4-0.1-2.7,1-2.8,2.4
				C487.9,598.2,488.9,599.5,490.4,599.6z"/>
			<path class="st4" d="M483.5,435.7c1.4,0.1,2.6-0.9,2.7-2.3s-0.9-2.6-2.3-2.7c-1.4-0.1-2.6,0.9-2.7,2.3c0,0,0,0,0,0
				C481,434.4,482.1,435.6,483.5,435.7z"/>
			<path class="st4" d="M557.8,302.6c1.4,0.1,2.6-0.9,2.7-2.3c0.1-1.4-0.9-2.6-2.3-2.7c-1.4-0.1-2.6,0.9-2.7,2.3c0,0,0,0,0,0
				C555.4,301.3,556.4,302.5,557.8,302.6C557.8,302.6,557.8,302.6,557.8,302.6z"/>
			<path class="st4" d="M526.6,630.6c1.2,0.1,2.2-0.8,2.3-2c0.1-1.2-0.8-2.2-2-2.3c-1.2-0.1-2.2,0.8-2.3,2
				C524.6,629.5,525.4,630.5,526.6,630.6z"/>
			<path class="st4" d="M734.8,373.3c1.2,0.1,2.2-0.8,2.3-2c0.1-1.2-0.8-2.2-2-2.3c-1.2-0.1-2.2,0.8-2.3,2
				C732.7,372.2,733.6,373.2,734.8,373.3C734.7,373.3,734.8,373.3,734.8,373.3z"/>
			<path class="st4" d="M797.8,387.7c1.2,0.1,2.2-0.8,2.3-2c0.1-1.2-0.8-2.2-2-2.3c-1.2-0.1-2.2,0.8-2.3,2
				C795.7,386.6,796.6,387.6,797.8,387.7z"/>
			<path class="st4" d="M666.3,391.3c1.7,0.1,3.3-1.2,3.4-2.9s-1.2-3.3-2.9-3.4c-1.7-0.1-3.3,1.2-3.4,2.9c0,0,0,0,0,0
				C663.3,389.6,664.6,391.2,666.3,391.3z"/>
			<path class="st4" d="M805.2,529.2c1.7,0.1,3.3-1.2,3.4-2.9c0.1-1.7-1.2-3.3-2.9-3.4c-1.7-0.1-3.3,1.2-3.4,2.9c0,0,0,0,0,0
				C802.2,527.5,803.5,529,805.2,529.2C805.2,529.2,805.2,529.2,805.2,529.2z"/>
			<path class="st4" d="M861.9,499c1.7,0.1,3.3-1.2,3.4-2.9s-1.2-3.3-2.9-3.4c-1.7-0.1-3.3,1.2-3.4,2.9c0,0,0,0,0,0
				C858.9,497.3,860.2,498.9,861.9,499z"/>
			<path class="st4" d="M842.5,550.5c1.5,0.1,2.8-1,2.9-2.5c0.1-1.5-1-2.8-2.5-2.9c-1.5-0.1-2.8,1-2.9,2.5
				C839.9,549,841,550.3,842.5,550.5C842.5,550.5,842.5,550.5,842.5,550.5z"/>
			<path class="st4" d="M818.8,330.5c1.7,0.1,3.3-1.2,3.4-2.9c0.1-1.7-1.2-3.3-2.9-3.4c-1.7-0.1-3.3,1.2-3.4,2.9c0,0,0,0,0,0
				C815.7,328.8,817,330.4,818.8,330.5C818.8,330.5,818.8,330.5,818.8,330.5z"/>
			<path class="st4" d="M725.6,487.9c1.7,0.1,3.1-1.1,3.2-2.7c0.1-1.7-1.1-3.1-2.7-3.2c-1.7-0.1-3.1,1.1-3.2,2.7c0,0,0,0,0,0
				C722.8,486.4,724,487.8,725.6,487.9z"/>
			<path class="st4" d="M646,514.7c2.3,0.2,4.4-1.6,4.6-3.9s-1.6-4.4-3.9-4.6c-2.3-0.2-4.4,1.6-4.6,3.9
				C641.9,512.4,643.7,514.5,646,514.7z"/>
			<path class="st4" d="M332.8,792.2c2.3,0.2,4.4-1.6,4.6-3.9c0.2-2.3-1.6-4.4-3.9-4.6c-2.3-0.2-4.4,1.6-4.6,3.9
				C328.7,790,330.4,792,332.8,792.2C332.8,792.2,332.8,792.2,332.8,792.2z"/>
			<path class="st4" d="M576.8,369.8c1.7,0.1,3.1-1.1,3.2-2.7c0.1-1.7-1.1-3.1-2.7-3.2c-1.7-0.1-3.1,1.1-3.2,2.7c0,0,0,0,0,0
				C573.9,368.2,575.1,369.6,576.8,369.8z"/>
			<path class="st4" d="M447.8,293.2c1.4,0.1,2.7-1,2.8-2.4c0.1-1.4-1-2.7-2.4-2.8c-1.4-0.1-2.7,1-2.8,2.4c0,0,0,0,0,0
				C445.3,291.8,446.4,293.1,447.8,293.2z"/>
			<path class="st4" d="M233.7,777.9c-1.2-0.1-2.2,0.8-2.3,2c-0.1,1.2,0.8,2.2,2,2.3c1.2,0.1,2.2-0.8,2.3-2
				C235.8,779,234.9,778,233.7,777.9C233.7,777.9,233.7,777.9,233.7,777.9z"/>
			<path class="st4" d="M287.3,720.5c-1.2-0.1-2.2,0.8-2.3,2c-0.1,1.2,0.8,2.2,2,2.3c1.2,0.1,2.2-0.8,2.3-2
				C289.4,721.6,288.5,720.6,287.3,720.5C287.3,720.5,287.3,720.5,287.3,720.5z"/>
			<path class="st4" d="M324.4,645.8c-1.2-0.1-2.2,0.8-2.3,2c-0.1,1.2,0.8,2.2,2,2.3c1.2,0.1,2.2-0.8,2.3-2
				C326.5,647,325.6,645.9,324.4,645.8C324.4,645.8,324.4,645.8,324.4,645.8z"/>
			<path class="st4" d="M344.5,557.6c-1.5-0.1-2.9,1-3,2.6s1,2.9,2.6,3c1.5,0.1,2.9-1,3-2.5C347.1,559.1,346,557.7,344.5,557.6
				C344.5,557.6,344.5,557.6,344.5,557.6z"/>
			<path class="st4" d="M412.7,522.1c-1.4-0.1-2.7,1-2.8,2.4s1,2.7,2.4,2.8c1.4,0.1,2.7-1,2.8-2.4c0,0,0,0,0,0
				C415.2,523.5,414.2,522.2,412.7,522.1z"/>
			<path class="st4" d="M411.9,486.4c-1.3-0.1-2.5,0.9-2.6,2.3c-0.1,1.3,0.9,2.5,2.3,2.6c1.3,0.1,2.5-0.9,2.6-2.2
				C414.2,487.7,413.2,486.5,411.9,486.4C411.9,486.4,411.9,486.4,411.9,486.4z"/>
			<path class="st4" d="M418.9,628.2c-1.2-0.1-2.2,0.8-2.3,2c-0.1,1.2,0.8,2.2,2,2.3c1.2,0.1,2.2-0.8,2.3-2
				C420.9,629.3,420.1,628.3,418.9,628.2C418.9,628.2,418.9,628.2,418.9,628.2z"/>
			<path class="st4" d="M371,606.5c-1.2-0.1-2.2,0.8-2.3,2c-0.1,1.2,0.8,2.2,2,2.3c1.2,0.1,2.2-0.8,2.3-2
				C373.1,607.6,372.2,606.6,371,606.5z"/>
			<path class="st4" d="M391.3,673.8c-1.1-0.1-2,0.7-2.1,1.8c-0.1,1.1,0.7,2,1.8,2.1c1.1,0.1,2-0.7,2.1-1.8
				C393.2,674.8,392.4,673.9,391.3,673.8C391.3,673.8,391.3,673.8,391.3,673.8z"/>
			<path class="st4" d="M440.4,556.4c-1.2-0.1-2.2,0.8-2.3,2c-0.1,1.2,0.8,2.2,2,2.3c1.2,0.1,2.2-0.8,2.3-2
				C442.5,557.5,441.6,556.5,440.4,556.4C440.4,556.4,440.4,556.4,440.4,556.4z"/>
			<path class="st4" d="M380.6,448.3c-1.2-0.1-2.2,0.8-2.3,2c-0.1,1.2,0.8,2.2,2,2.3c1.2,0.1,2.2-0.8,2.3-2
				C382.7,449.4,381.8,448.4,380.6,448.3C380.6,448.3,380.6,448.3,380.6,448.3z"/>
			<path class="st4" d="M172.4,705.5c-1.2-0.1-2.2,0.8-2.3,2c-0.1,1.2,0.8,2.2,2,2.3c1.2,0.1,2.2-0.8,2.3-2
				C174.5,706.7,173.6,705.6,172.4,705.5C172.5,705.5,172.4,705.5,172.4,705.5z"/>
			<path class="st4" d="M121.4,633.9c-1.2-0.1-2.2,0.8-2.3,2c-0.1,1.2,0.8,2.2,2,2.3c1.2,0.1,2.2-0.8,2.3-2
				C123.5,635,122.6,634,121.4,633.9C121.4,633.9,121.4,633.9,121.4,633.9z"/>
			<path class="st4" d="M163.7,470.2c-1.2-0.1-2.2,0.8-2.3,2s0.8,2.2,2,2.3c1.2,0.1,2.2-0.8,2.3-2
				C165.8,471.3,165,470.3,163.7,470.2C163.8,470.2,163.8,470.2,163.7,470.2z"/>
			<path class="st4" d="M72.3,396.6c-1.2-0.1-2.2,0.8-2.3,2s0.8,2.2,2,2.3c1.2,0.1,2.2-0.8,2.3-2C74.4,397.8,73.5,396.7,72.3,396.6z
				"/>
			<path class="st4" d="M240.9,687.5c-1.7-0.1-3.3,1.2-3.4,2.9c-0.1,1.7,1.2,3.3,2.9,3.4c1.7,0.1,3.2-1.2,3.4-2.9
				C244,689.2,242.7,687.7,240.9,687.5z"/>
			<path class="st4" d="M259.3,626c-1.7-0.1-3.3,1.2-3.4,2.9c-0.1,1.7,1.2,3.3,2.9,3.4c1.7,0.1,3.3-1.2,3.4-2.9c0,0,0,0,0,0
				C262.4,627.7,261.1,626.1,259.3,626C259.3,626,259.3,626,259.3,626z"/>
			<path class="st4" d="M210.4,552.8c-1.5-0.1-2.8,1-2.9,2.5s1,2.8,2.5,2.9s2.8-1,2.9-2.5c0,0,0,0,0,0
				C213,554.3,211.9,553,210.4,552.8z"/>
			<path class="st4" d="M102,549.7c-1.7-0.1-3.3,1.2-3.4,2.9c-0.1,1.7,1.2,3.3,2.9,3.4c1.7,0.1,3.3-1.2,3.4-2.9c0,0,0,0,0,0
				C105,551.3,103.7,549.8,102,549.7C102,549.7,102,549.7,102,549.7z"/>
			<path class="st4" d="M181.6,590.9c-1.7-0.1-3.1,1.1-3.2,2.7c-0.1,1.7,1.1,3.1,2.7,3.2c1.7,0.1,3.1-1.1,3.2-2.7c0,0,0,0,0,0
				C184.4,592.5,183.2,591.1,181.6,590.9z"/>
			<path class="st4" d="M67.6,669.8c-2.2-0.2-4.2,1.5-4.4,3.7c-0.2,2.2,1.5,4.2,3.7,4.4c2.2,0.2,4.2-1.5,4.4-3.7c0,0,0,0,0,0
				C71.5,671.9,69.8,670,67.6,669.8z"/>
			<path class="st4" d="M330.4,709.1c-1.7-0.1-3.1,1.1-3.2,2.7c-0.1,1.7,1.1,3.1,2.7,3.2s3.1-1.1,3.2-2.7c0,0,0,0,0,0
				C333.3,710.7,332.1,709.2,330.4,709.1z"/>
			<path class="st4" d="M426.6,702.5c-1.7-0.1-3.1,1.1-3.2,2.7c-0.1,1.7,1.1,3.1,2.7,3.2s3.1-1.1,3.2-2.7c0,0,0,0,0,0
				C429.4,704.1,428.2,702.7,426.6,702.5z"/>
		</g>
	</g>
	<g>
		<g class="st1">
			<polygon class="st2 opacity-1" points="829.6,483.4 866.8,505.1 886.3,453.2 			"/>
			<polygon class="st2 opacity-3" points="999.8,480 970,391.1 1049,461.5 			"/>
			<polygon class="st2 opacity-6" points="1076.2,387 1012.8,322.7 1124.1,383.7 			"/>
			<polygon class="st2 opacity-9" points="1024.2,204.2 1072.2,185.4 1053,115 			"/>
			<polygon class="st2 opacity-1" points="1125.2,215.7 1163.4,141.5 1228.8,166.9 			"/>
			<polygon class="st2 opacity-3" points="843.2,284.7 894.7,361.3 944,366.4 			"/>
			<polygon class="st2 opacity-6" points="965.8,630 1021.2,619.7 994.7,540.8 			"/>
			<polygon class="st2 opacity-9" points="855.4,603.5 935.3,573.5 946.9,464.6 			"/>
			<polygon class="st2 opacity-1" points="707.1,558.3 756.9,530.1 670.5,467.8 			"/>
			<polygon class="st2 opacity-3" points="690.7,345.5 750,442.3 731.2,461.1 			"/>
			<polygon class="st2 opacity-6" points="759,328.6 844.1,392.9 822.1,342.9 			"/>
			<polygon class="st2 opacity-9" points="507.8,390.6 607.1,388.2 601.1,324.2 			"/>
			<polygon class="st2 opacity-1" points="368.3,517.8 404.5,407.8 435.8,446.2 			"/>
			<polygon class="st2 opacity-3" points="514.7,554.3 515.3,464 550.9,585.8 			"/>
			<polygon class="st2 opacity-6" points="354.3,669.4 415.3,633.1 450.4,662.9 			"/>
			<polygon class="st2 opacity-9" points="264.8,648.1 348.3,605.4 368.3,517.8 			"/>
			<polygon class="st2 opacity-1" points="205.4,551.3 187.7,429.7 234.3,512.9 			"/>
			<polygon class="st2 opacity-3" points="125.8,510.2 145.3,593.4 264.8,648.1 			"/>
			<polygon class="st2 opacity-6" points="974.6,163.2 1024.2,204.2 955.6,276.1 			"/>
		</g>
		<g>
			<line class="st3" x1="770.1" y1="630.8" x2="815.2" y2="545.5"/>
			<polyline class="st3" points="670.5,467.8 707.1,558.3 756.9,530.1 			"/>
			<line class="st3" x1="640.3" y1="542.8" x2="707.1" y2="558.3"/>
			<polyline class="st3" points="974.6,163.2 955.6,276.1 1024.2,204.2 1053.4,280.9 955.6,276.1 970,391.1 1049,461.5 946.9,464.6 
				994.7,540.8 1049,461.5 1044.2,581.8 			"/>
			<polyline class="st3" points="1024.2,204.2 1012.8,322.7 1124.1,383.7 1053.4,280.9 1012.8,322.7 1076.2,387 1124.1,383.7 			"/>
			<polyline class="st3" points="1053,115 997.6,125.3 1089.4,54.6 1163.4,141.5 1053,115 994.9,46.8 997.6,125.3 974.6,163.2 
				1024.2,204.2 997.6,125.3 914,129.4 955.6,276.1 829.5,200.4 974.6,163.2 			"/>
			<polyline class="st3" points="1261.9,214.9 1248.8,114.2 1163.4,141.5 1261.9,214.9 1378.6,202.2 1248.8,114.2 1053,115 
				1024.2,204.2 1072.2,185.4 			"/>
			<polyline class="st3" points="1125.2,215.7 1053.4,280.9 1053,115 1125.2,215.7 1163.4,141.5 1228.8,166.9 1125.2,215.7 			"/>
			<polyline class="st3" points="946.9,464.6 894.7,361.3 970,391.1 1012.8,322.7 955.6,276.1 894.7,361.3 944,366.4 946.9,464.6 
				935.3,573.5 994.7,540.8 			"/>
			<polyline class="st3" points="965.8,630 855.4,603.5 929.4,690.4 1021.2,619.7 965.8,630 			"/>
			<polyline class="st3" points="970,391.1 999.8,480 1049,461.5 1107.6,509.2 1044.2,581.8 1100,633.4 1021.2,619.7 994.7,540.8 
				1044.2,581.8 1021.2,619.7 			"/>
			<polyline class="st3" points="946.9,464.6 855.4,603.5 935.3,573.5 965.8,630 			"/>
			<line class="st3" x1="1013.5" y1="395.5" x2="1049" y2="461.5"/>
			<polyline class="st3" points="1053,115 1072.2,185.4 1125.2,215.7 			"/>
			<polyline class="st3" points="601.1,324.2 507.8,390.6 607.1,388.2 573.6,463.1 507.8,390.6 436.6,482.1 442.8,587.7 
				368.3,517.8 348.3,605.4 442.8,587.7 354.3,669.4 			"/>
			<polyline class="st3" points="607.1,388.2 515.3,464 550.9,585.8 573.6,463.1 515.3,464 514.7,554.3 550.9,585.8 			"/>
			<polyline class="st3" points="690.7,345.5 644.2,313.6 759,328.6 750,442.3 690.7,345.5 697.8,256.2 644.2,313.6 601.1,324.2 
				607.1,388.2 644.2,313.6 582.1,257.5 507.8,390.6 472.1,247.9 601.1,324.2 			"/>
			<polyline class="st3" points="395,566 348.3,605.4 264.8,648.1 125.8,510.2 96.3,356.2 187.7,429.7 205.4,551.3 125.8,510.2 
				187.7,429.7 			"/>
			<polyline class="st3" points="348.3,605.4 283.2,586.6 368.3,517.8 435.8,446.2 404.5,407.8 507.8,390.6 515.3,464 436.6,482.1 
				404.5,407.8 368.3,517.8 264.8,648.1 196.4,665 91.3,631.2 125.8,510.2 145.3,593.4 196.4,665 			"/>
			<polyline class="st3" points="436.6,482.1 395,566 442.8,587.7 450.4,662.9 354.3,669.4 357.2,745.4 311.2,680 348.3,605.4 
				354.3,669.4 311.2,680 257.6,737.4 264.8,648.1 205.4,551.3 196.4,665 311.2,680 264.8,648.1 			"/>
			<polyline class="st3" points="435.8,446.2 515.3,464 442.8,587.7 514.7,554.3 464.3,515.9 515.3,464 			"/>
			<polyline class="st3" points="464.3,515.9 442.8,587.7 415.3,633.1 450.4,662.9 357.2,745.4 257.6,737.4 			"/>
			<polyline class="st3" points="690.7,345.5 654.4,409 670.5,467.8 756.9,530.1 770.1,630.8 855.4,603.5 756.9,530.1 640.2,542.8 
				770.1,630.8 965.8,630 994.7,540.8 999.8,480 			"/>
			<polyline class="st3" points="829.6,483.4 756.9,530.1 750,442.3 844.1,392.9 946.9,464.6 829.6,483.4 750,442.3 670.5,467.8 
				690.7,345.5 573.6,463.1 670.5,467.8 			"/>
			<polyline class="st3" points="844.1,392.9 886.3,453.2 946.9,464.6 			"/>
			<polyline class="st3" points="759,328.6 843.2,284.7 894.7,361.3 844.1,392.9 759,328.6 829.6,483.4 855.4,603.5 815.2,545.5 
				756.9,530.1 			"/>
			<polyline class="st3" points="844.1,392.9 843.2,284.7 944,366.4 1012.8,322.7 1049,461.5 1076.2,387 1013.5,395.5 1012.8,322.7 
							"/>
			<polyline class="st3" points="670.5,467.8 640.2,542.8 550.9,585.8 			"/>
			<line class="st3" x1="573.6" y1="463.1" x2="640.3" y2="542.8"/>
			<polyline class="st3" points="935.3,573.5 886.3,453.2 829.6,483.4 866.8,505.1 886.3,453.2 			"/>
			<line class="st3" x1="866.8" y1="505.1" x2="855.4" y2="603.5"/>
			<line class="st3" x1="1248.8" y1="114.2" x2="1228.8" y2="166.9"/>
			<line class="st3" x1="415.3" y1="633.1" x2="354.3" y2="669.4"/>
			<polyline class="st3" points="91.3,631.2 145.3,593.4 264.8,648.1 283.2,586.6 205.4,551.3 368.3,517.8 436.6,482.1 			"/>
			<polyline class="st3" points="187.7,429.7 234.3,512.9 205.4,551.3 			"/>
			<line class="st3" x1="234.3" y1="512.9" x2="368.3" y2="517.8"/>
			<polyline class="st3" points="690.7,345.5 731.2,461.1 750,442.3 			"/>
			<line class="st3" x1="731.2" y1="461.1" x2="829.6" y2="483.4"/>
			<polyline class="st3" points="759,328.6 822.1,342.9 844.1,392.9 			"/>
			<line class="st3" x1="822.1" y1="342.9" x2="843.2" y2="284.7"/>
			<line class="st3" x1="929.4" y1="690.4" x2="965.8" y2="630"/>
		</g>
		<g>
			<path class="st5 anim-9" d="M996.3,48.4c0.9-0.8,1-2.1,0.3-3c-0.8-0.9-2.1-1-3-0.3c-0.9,0.8-1,2.1-0.3,3c0,0,0,0,0,0
				C994.1,49,995.4,49.1,996.3,48.4z"/>
			<path class="st5 anim-1" d="M999,126.9c0.9-0.8,1-2.1,0.3-3s-2.1-1-3-0.3c-0.9,0.8-1,2.1-0.3,3c0,0,0,0,0,0
				C996.8,127.5,998.1,127.6,999,126.9z"/>
			<path class="st5 anim-2" d="M1025.6,205.9c0.9-0.8,1-2.1,0.3-3c-0.8-0.9-2.1-1-3-0.3s-1,2.1-0.3,3c0,0,0,0,0,0
				C1023.3,206.5,1024.7,206.6,1025.6,205.9z"/>
			<path class="st5 anim-3" d="M1073.7,187.1c0.9-0.8,1.1-2.1,0.3-3c-0.8-0.9-2.1-1.1-3-0.3c-0.9,0.8-1.1,2.1-0.3,3c0,0,0,0,0,0
				C1071.4,187.7,1072.7,187.8,1073.7,187.1z"/>
			<path class="st5 anim-4" d="M1055.2,283c1.2-1,1.3-2.8,0.3-3.9c-1-1.2-2.8-1.3-3.9-0.3c-1.2,1-1.3,2.8-0.3,3.9c0,0,0,0,0,0
				C1052.2,283.9,1054,284,1055.2,283z"/>
			<path class="st5 anim-5" d="M1014.6,324.8c1.2-1,1.3-2.8,0.3-3.9c-1-1.2-2.8-1.3-3.9-0.3c-1.2,1-1.3,2.7-0.3,3.9
				C1011.7,325.7,1013.4,325.8,1014.6,324.8C1014.6,324.8,1014.6,324.8,1014.6,324.8z"/>
			<path class="st5 anim-6" d="M1077.9,389c1.1-0.9,1.2-2.6,0.3-3.7c-0.9-1.1-2.6-1.2-3.7-0.3c-1.1,0.9-1.2,2.6-0.3,3.7
				C1075.2,389.8,1076.8,389.9,1077.9,389C1077.9,389,1077.9,389,1077.9,389z"/>
			<path class="st5 anim-7" d="M957.2,278.1c1.1-0.9,1.2-2.5,0.3-3.6s-2.5-1.2-3.6-0.3c-1.1,0.9-1.2,2.5-0.3,3.5
				C954.6,278.8,956.1,279,957.2,278.1z"/>
			<path class="st5 anim-8" d="M915.7,131.4c1.1-0.9,1.2-2.5,0.3-3.6c-0.9-1.1-2.5-1.2-3.6-0.3c-1.1,0.9-1.2,2.5-0.3,3.6c0,0,0,0,0,0
				C913,132.1,914.6,132.2,915.7,131.4z"/>
			<path class="st5 anim-9" d="M1125.5,385.3c0.9-0.8,1-2.1,0.3-3c-0.8-0.9-2.1-1-3-0.3c-0.9,0.8-1,2.1-0.3,3c0,0,0,0,0,0
				C1123.3,386,1124.6,386.1,1125.5,385.3z"/>
			<path class="st5 anim-1" d="M1090.8,56.2c0.9-0.8,1-2.1,0.3-3c-0.8-0.9-2.1-1-3-0.3c-0.9,0.8-1,2.1-0.3,3c0,0,0,0,0,0
				C1088.6,56.9,1089.9,57,1090.8,56.2z"/>
			<path class="st5 anim-2" d="M1263.3,216.5c0.9-0.8,1.1-2.1,0.3-3c-0.8-0.9-2.1-1.1-3-0.3c-0.9,0.8-1.1,2.1-0.3,3c0,0,0,0,0,0
				C1261.1,217.1,1262.4,217.2,1263.3,216.5z"/>
			<path class="st5 anim-3" d="M1230.2,168.6c0.9-0.8,1-2.1,0.3-3c-0.8-0.9-2.1-1-3-0.3c-0.9,0.8-1,2.1-0.3,3c0,0,0,0,0,0
				C1227.9,169.2,1229.3,169.3,1230.2,168.6z"/>
			<path class="st5 anim-4" d="M1380,203.9c0.9-0.8,1-2.1,0.3-3c-0.8-0.9-2.1-1-3-0.3c-0.9,0.8-1,2.1-0.3,3c0,0,0,0,0,0
				C1377.8,204.5,1379.1,204.6,1380,203.9z"/>
			<path class="st5 anim-5" d="M1055.1,117.4c1.3-1.1,1.5-3.1,0.3-4.5c-1.1-1.3-3.1-1.5-4.5-0.3c-1.3,1.1-1.5,3.1-0.3,4.5
				C1051.7,118.4,1053.7,118.5,1055.1,117.4C1055.1,117.4,1055.1,117.4,1055.1,117.4z"/>
			<path class="st5 anim-6" d="M1250.8,116.6c1.3-1.1,1.5-3.1,0.4-4.5c-1.1-1.3-3.1-1.5-4.5-0.4c-1.3,1.1-1.5,3.1-0.4,4.4
				C1247.5,117.6,1249.5,117.7,1250.8,116.6z"/>
			<path class="st5 anim-7" d="M1165.4,143.7c1.3-1.1,1.4-3,0.4-4.2c-1.1-1.3-3-1.4-4.2-0.4s-1.4,3-0.4,4.2c0,0,0,0,0,0
				C1162.2,144.7,1164.1,144.8,1165.4,143.7z"/>
			<path class="st5 anim-8" d="M1128,218.9c1.8-1.5,2-4.2,0.4-6c-1.5-1.8-4.2-2-6-0.4c-1.8,1.5-2,4.2-0.5,6
				C1123.5,220.2,1126.2,220.4,1128,218.9C1128,218.9,1128,218.9,1128,218.9z"/>
			<path class="st5 anim-9" d="M1102.7,636.7c1.8-1.5,2-4.2,0.5-6c-1.5-1.8-4.2-2-6-0.5c-1.8,1.5-2,4.2-0.5,6
				C1098.2,638,1100.9,638.2,1102.7,636.7C1102.7,636.7,1102.7,636.7,1102.7,636.7z"/>
			<path class="st5 anim-1" d="M976.5,165.4c1.3-1.1,1.4-3,0.4-4.2c-1.1-1.3-3-1.4-4.2-0.4s-1.4,3-0.4,4.2c0,0,0,0,0,0
				C973.4,166.4,975.3,166.5,976.5,165.4z"/>
			<path class="st5 anim-2" d="M831.2,202.4c1.1-0.9,1.2-2.6,0.3-3.7c-0.9-1.1-2.6-1.2-3.7-0.3c-1.1,0.9-1.2,2.6-0.3,3.7c0,0,0,0,0,0
				C828.5,203.2,830.1,203.4,831.2,202.4z"/>
			<path class="st5 anim-3" d="M1019.8,618.1c-0.9,0.8-1.1,2.1-0.3,3c0.8,0.9,2.1,1.1,3,0.3c0.9-0.8,1.1-2.1,0.3-3c0,0,0,0,0,0
				C1022.1,617.5,1020.7,617.4,1019.8,618.1z"/>
			<path class="st5 anim-4" d="M993.3,539.1c-0.9,0.8-1.1,2.1-0.3,3c0.8,0.9,2.1,1.1,3,0.3c0.9-0.8,1.1-2.1,0.3-3c0,0,0,0,0,0
				C995.5,538.5,994.2,538.4,993.3,539.1z"/>
			<path class="st5 anim-5" d="M944.3,461.6c-1.7,1.4-1.9,4-0.5,5.6c1.4,1.7,4,1.9,5.6,0.5c1.7-1.4,1.9-4,0.5-5.6c0,0,0,0,0,0
				C948.5,460.4,946,460.2,944.3,461.6z"/>
			<path class="st5 anim-6" d="M968.3,389.2c-1.1,0.9-1.2,2.6-0.3,3.7c0.9,1.1,2.6,1.2,3.7,0.3c1.1-0.9,1.2-2.6,0.3-3.7
				C971,388.4,969.4,388.2,968.3,389.2C968.3,389.2,968.3,389.2,968.3,389.2z"/>
			<path class="st5 anim-7" d="M942.4,364.5c-1,0.9-1.2,2.4-0.3,3.5c0.9,1,2.4,1.2,3.5,0.3c1-0.9,1.2-2.4,0.3-3.5c0,0,0,0,0,0
				C945,363.8,943.4,363.6,942.4,364.5z"/>
			<path class="st5 anim-8" d="M1047.6,459.8c-0.9,0.8-1.1,2.1-0.3,3c0.8,0.9,2.1,1.1,3,0.3c0.9-0.8,1.1-2.1,0.3-3c0,0,0,0,0,0
				C1049.8,459.2,1048.5,459.1,1047.6,459.8z"/>
			<path class="st5 anim-9" d="M998.5,478.3c-0.9,0.8-1,2.1-0.3,3c0.8,0.9,2.1,1,3,0.3s1-2.1,0.3-3c0,0,0,0,0,0
				C1000.7,477.7,999.4,477.6,998.5,478.3z"/>
			<path class="st5 anim-1" d="M1012.1,393.8c-0.9,0.8-1,2.1-0.3,3c0.8,0.9,2.1,1,3,0.3c0.9-0.8,1-2.1,0.3-3c0,0,0,0,0,0
				C1014.3,393.2,1013,393.1,1012.1,393.8z"/>
			<path class="st5 anim-2" d="M893.3,359.7c-0.9,0.8-1.1,2.1-0.3,3c0.8,0.9,2.1,1.1,3,0.3c0.9-0.8,1.1-2.1,0.3-3c0,0,0,0,0,0
				C895.5,359,894.2,358.9,893.3,359.7z"/>
			<path class="st5 anim-3" d="M928,688.8c-0.9,0.8-1,2.1-0.3,3s2.1,1,3,0.3s1-2.1,0.3-3c0,0,0,0,0,0C930.2,688.1,928.9,688,928,688.8z"/>
			<path class="st5 anim-4" d="M755.5,528.5c-0.9,0.8-1,2.1-0.3,3s2.1,1,3,0.3s1-2.1,0.3-3c0,0,0,0,0,0
				C757.7,527.9,756.4,527.8,755.5,528.5z"/>
			<path class="st5 anim-5" d="M729.8,459.5c-0.9,0.8-1,2.1-0.3,3c0.8,0.9,2.1,1,3,0.3c0.9-0.8,1-2.1,0.3-3c0,0,0,0,0,0
				C732.1,458.9,730.7,458.8,729.8,459.5z"/>
			<path class="st5 anim-6" d="M638.9,541.1c-0.9,0.8-1,2.1-0.3,3s2.1,1,3,0.3c0.9-0.8,1-2.1,0.3-3c0,0,0,0,0,0
				C641.1,540.5,639.8,540.4,638.9,541.1z"/>
			<path class="st5 anim-7" d="M963.8,627.6c-1.3,1.1-1.5,3.1-0.4,4.5c1.1,1.3,3.1,1.5,4.5,0.4c1.3-1.1,1.5-3.1,0.4-4.4
				C967.1,626.7,965.1,626.5,963.8,627.6z"/>
			<path class="st5 anim-8" d="M933.3,571.1c-1.3,1.1-1.5,3.1-0.4,4.5c1.1,1.3,3.1,1.5,4.5,0.4c1.3-1.1,1.5-3.1,0.4-4.5
				C936.6,570.1,934.6,570,933.3,571.1C933.3,571.1,933.3,571.1,933.3,571.1z"/>
			<path class="st5 anim-9" d="M768,628.4c-1.3,1.1-1.5,3.1-0.4,4.5c1.1,1.3,3.1,1.5,4.5,0.4c1.3-1.1,1.5-3.1,0.4-4.4
				C771.3,627.4,769.3,627.3,768,628.4z"/>
			<path class="st5 anim-1" d="M705.1,555.9c-1.3,1.1-1.5,3.1-0.4,4.5c1.1,1.3,3.1,1.5,4.5,0.4c1.3-1.1,1.5-3.1,0.4-4.5c0,0,0,0,0,0
				C708.4,554.9,706.4,554.7,705.1,555.9z"/>
			<path class="st5 anim-2" d="M853.5,601.3c-1.3,1.1-1.4,3-0.4,4.2s3,1.4,4.2,0.4c1.3-1.1,1.4-3,0.4-4.2c0,0,0,0,0,0
				C856.6,600.4,854.7,600.2,853.5,601.3z"/>
			<path class="st5 anim-3" d="M812.6,542.4c-1.7,1.5-1.9,4-0.5,5.7c1.5,1.7,4,1.9,5.7,0.5c1.7-1.5,1.9-4,0.5-5.7
				C816.8,541.2,814.3,540.9,812.6,542.4C812.6,542.4,812.6,542.4,812.6,542.4z"/>
			<path class="st5 anim-4" d="M841.5,389.8c-1.7,1.5-1.9,4-0.5,5.7c1.5,1.7,4,1.9,5.7,0.5c1.7-1.5,1.9-4,0.5-5.7
				C845.7,388.5,843.2,388.3,841.5,389.8C841.5,389.8,841.5,389.8,841.5,389.8z"/>
			<path class="st5 anim-5" d="M1042.3,579.6c-1.3,1.1-1.4,3-0.4,4.2s3,1.4,4.2,0.4s1.4-3,0.4-4.2c0,0,0,0,0,0
				C1045.4,578.6,1043.5,578.5,1042.3,579.6z"/>
			<path class="st5 anim-6" d="M1105.6,507c-1.3,1.1-1.4,3-0.4,4.2s3,1.4,4.2,0.4c1.3-1.1,1.4-3,0.4-4.2c0,0,0,0,0,0
				C1108.8,506.1,1106.9,505.9,1105.6,507z"/>
			<path class="st5 anim-7" d="M697.6,258.4c1.2,0.1,2.2-0.8,2.3-2c0.1-1.2-0.8-2.2-2-2.3c-1.2-0.1-2.2,0.8-2.3,2
				C695.5,257.2,696.4,258.3,697.6,258.4C697.6,258.3,697.6,258.3,697.6,258.4z"/>
			<path class="st5 anim-8" d="M644,315.8c1.2,0.1,2.2-0.8,2.3-2c0.1-1.2-0.8-2.2-2-2.3c-1.2-0.1-2.2,0.8-2.3,2
				C641.9,314.6,642.8,315.7,644,315.8C644,315.8,644,315.8,644,315.8z"/>
			<path class="st5 anim-9" d="M607,390.4c1.2,0.1,2.2-0.8,2.3-2c0.1-1.2-0.8-2.2-2-2.3c-1.2-0.1-2.2,0.8-2.3,2
				C604.9,389.3,605.8,390.3,607,390.4C607,390.4,607,390.4,607,390.4z"/>
			<path class="st5 anim-1" d="M654.2,411.1c1.2,0.1,2.2-0.8,2.3-2s-0.8-2.2-2-2.3c-1.2-0.1-2.2,0.8-2.3,2C652.1,410,653,411,654.2,411.1
				C654.2,411.1,654.2,411.1,654.2,411.1z"/>
			<path class="st5 anim-2" d="M573.4,465.9c1.5,0.1,2.9-1,3-2.6s-1-2.9-2.6-3c-1.5-0.1-2.9,1-3,2.5C570.7,464.4,571.8,465.7,573.4,465.9
				C573.4,465.8,573.4,465.8,573.4,465.9z"/>
			<path class="st5 anim-3" d="M515.1,466.8c1.5,0.1,2.9-1,3-2.6s-1-2.9-2.6-3c-1.5-0.1-2.9,1-3,2.5C512.4,465.3,513.6,466.7,515.1,466.8
				C515.1,466.8,515.1,466.8,515.1,466.8z"/>
			<path class="st5 anim-4" d="M514.5,556.9c1.4,0.1,2.7-1,2.8-2.4s-1-2.7-2.4-2.8c-1.4-0.1-2.7,1-2.8,2.4C512,555.6,513,556.8,514.5,556.9
				z"/>
			<path class="st5 anim-5" d="M507.6,393.1c1.4,0.1,2.6-0.9,2.7-2.3c0.1-1.4-0.9-2.6-2.3-2.7c-1.4-0.1-2.6,0.9-2.7,2.3
				C505.1,391.8,506.2,393,507.6,393.1C507.6,393.1,507.6,393.1,507.6,393.1z"/>
			<path class="st5 anim-6" d="M581.9,260c1.4,0.1,2.6-0.9,2.7-2.3c0.1-1.4-0.9-2.6-2.3-2.7c-1.4-0.1-2.6,0.9-2.7,2.3c0,0,0,0,0,0
				C579.5,258.7,580.6,259.9,581.9,260z"/>
			<path class="st5 anim-7" d="M550.7,588c1.2,0.1,2.2-0.8,2.3-2c0.1-1.2-0.8-2.2-2-2.3c-1.2-0.1-2.2,0.8-2.3,2
				C548.6,586.9,549.5,587.9,550.7,588C550.7,588,550.7,588,550.7,588z"/>
			<path class="st5 anim-8" d="M758.9,330.7c1.2,0.1,2.2-0.8,2.3-2s-0.8-2.2-2-2.3c-1.2-0.1-2.2,0.8-2.3,2
				C756.8,329.6,757.7,330.6,758.9,330.7C758.9,330.7,758.9,330.7,758.9,330.7z"/>
			<path class="st5 anim-9" d="M821.9,345.1c1.2,0.1,2.2-0.8,2.3-2c0.1-1.2-0.8-2.2-2-2.3c-1.2-0.1-2.2,0.8-2.3,2
				C819.8,343.9,820.7,345,821.9,345.1C821.9,345.1,821.9,345.1,821.9,345.1z"/>
			<path class="st5 anim-1" d="M690.4,348.7c1.7,0.1,3.3-1.2,3.4-2.9s-1.2-3.3-2.9-3.4c-1.7-0.1-3.2,1.2-3.4,2.9
				C687.3,347,688.6,348.5,690.4,348.7C690.4,348.7,690.4,348.7,690.4,348.7z"/>
			<path class="st5 anim-2" d="M829.3,486.6c1.7,0.1,3.3-1.2,3.4-2.9s-1.2-3.3-2.9-3.4c-1.7-0.1-3.3,1.2-3.4,2.9
				C826.3,484.9,827.6,486.4,829.3,486.6z"/>
			<path class="st5 anim-3" d="M886,456.4c1.7,0.1,3.3-1.2,3.4-2.9c0.1-1.7-1.2-3.3-2.9-3.4c-1.7-0.1-3.3,1.2-3.4,2.9c0,0,0,0,0,0
				C883,454.7,884.3,456.2,886,456.4z"/>
			<path class="st5 anim-4" d="M866.6,507.8c1.5,0.1,2.8-1,2.9-2.5c0.1-1.5-1-2.8-2.5-2.9c-1.5-0.1-2.8,1-2.9,2.5c0,0,0,0,0,0
				C864,506.4,865.1,507.7,866.6,507.8C866.6,507.8,866.6,507.8,866.6,507.8z"/>
			<path class="st5 anim-5" d="M842.9,287.9c1.7,0.1,3.3-1.2,3.4-2.9s-1.2-3.3-2.9-3.4c-1.7-0.1-3.3,1.2-3.4,2.9c0,0,0,0,0,0
				C839.9,286.2,841.2,287.7,842.9,287.9C842.9,287.9,842.9,287.9,842.9,287.9z"/>
			<path class="st5 anim-6" d="M749.7,445.3c1.7,0.1,3.1-1.1,3.2-2.7c0.1-1.7-1.1-3.1-2.7-3.2c-1.7-0.1-3.1,1.1-3.2,2.7c0,0,0,0,0,0
				C746.9,443.7,748.1,445.2,749.7,445.3z"/>
			<path class="st5 anim-7" d="M670.2,472c2.3,0.2,4.4-1.6,4.6-3.9s-1.6-4.4-3.9-4.6c-2.3-0.2-4.4,1.6-4.6,3.9
				C666.1,469.8,667.8,471.8,670.2,472z"/>
			<path class="st5 anim-8" d="M356.9,749.6c2.3,0.2,4.4-1.6,4.6-3.9c0.2-2.3-1.6-4.4-3.9-4.6c-2.3-0.2-4.4,1.6-4.6,3.9
				C352.8,747.3,354.6,749.4,356.9,749.6z"/>
			<path class="st5 anim-9" d="M600.9,327.1c1.7,0.1,3.1-1.1,3.2-2.7c0.1-1.7-1.1-3.1-2.7-3.2c-1.7-0.1-3.1,1.1-3.2,2.7c0,0,0,0,0,0
				C598,325.6,599.2,327,600.9,327.1z"/>
			<path class="st5 anim-1" d="M472,250.5c1.4,0.1,2.7-1,2.8-2.4c0.1-1.4-1-2.7-2.4-2.8s-2.7,1-2.8,2.4c0,0,0,0,0,0
				C469.5,249.2,470.5,250.4,472,250.5C472,250.5,472,250.5,472,250.5z"/>
			<path class="st5 anim-2" d="M257.8,735.3c-1.2-0.1-2.2,0.8-2.3,2c-0.1,1.2,0.8,2.2,2,2.3c1.2,0.1,2.2-0.8,2.3-2
				C259.9,736.4,259,735.4,257.8,735.3C257.8,735.3,257.8,735.3,257.8,735.3z"/>
			<path class="st5 anim-3" d="M311.4,677.8c-1.2-0.1-2.2,0.8-2.3,2c-0.1,1.2,0.8,2.2,2,2.3c1.2,0.1,2.2-0.8,2.3-2
				C313.5,679,312.6,677.9,311.4,677.8C311.4,677.8,311.4,677.8,311.4,677.8z"/>
			<path class="st5 anim-4" d="M348.5,603.2c-1.2-0.1-2.2,0.8-2.3,2c-0.1,1.2,0.8,2.2,2,2.3c1.2,0.1,2.2-0.8,2.3-2
				C350.6,604.3,349.7,603.3,348.5,603.2C348.5,603.2,348.5,603.2,348.5,603.2z"/>
			<path class="st5 anim-5" d="M368.6,515c-1.5-0.1-2.9,1-3,2.6c-0.1,1.5,1,2.9,2.6,3c1.5,0.1,2.9-1,3-2.5
				C371.2,516.5,370.1,515.1,368.6,515C368.6,515,368.6,515,368.6,515z"/>
			<path class="st5 anim-6" d="M436.8,479.5c-1.4-0.1-2.7,1-2.8,2.4c-0.1,1.4,1,2.7,2.4,2.8c1.4,0.1,2.7-1,2.8-2.4
				C439.3,480.9,438.3,479.6,436.8,479.5C436.8,479.5,436.8,479.5,436.8,479.5z"/>
			<path class="st5 anim-7" d="M436,443.8c-1.3-0.1-2.5,0.9-2.6,2.3c-0.1,1.3,0.9,2.5,2.3,2.6c1.3,0.1,2.5-0.9,2.6-2.2
				C438.4,445.1,437.4,443.9,436,443.8C436,443.8,436,443.8,436,443.8z"/>
			<path class="st5 anim-8" d="M443,585.5c-1.2-0.1-2.2,0.8-2.3,2c-0.1,1.2,0.8,2.2,2,2.3c1.2,0.1,2.2-0.8,2.3-2
				C445.1,586.7,444.2,585.6,443,585.5z"/>
			<path class="st5 anim-9" d="M395.1,563.9c-1.2-0.1-2.2,0.8-2.3,2c-0.1,1.2,0.8,2.2,2,2.3c1.2,0.1,2.2-0.8,2.3-2
				C397.2,565,396.3,564,395.1,563.9C395.1,563.9,395.1,563.9,395.1,563.9z"/>
			<path class="st5 anim-1" d="M415.4,631.2c-1.1-0.1-2,0.7-2.1,1.8c-0.1,1.1,0.7,2,1.8,2.1c1.1,0.1,2-0.7,2.1-1.8
				C417.3,632.2,416.5,631.3,415.4,631.2z"/>
			<path class="st5 anim-2" d="M464.5,513.8c-1.2-0.1-2.2,0.8-2.3,2c-0.1,1.2,0.8,2.2,2,2.3c1.2,0.1,2.2-0.8,2.3-2
				C466.6,514.9,465.7,513.9,464.5,513.8C464.5,513.8,464.5,513.8,464.5,513.8z"/>
			<path class="st5 anim-3" d="M404.7,405.6c-1.2-0.1-2.2,0.8-2.3,2c-0.1,1.2,0.8,2.2,2,2.3c1.2,0.1,2.2-0.8,2.3-2
				C406.8,406.8,405.9,405.7,404.7,405.6C404.7,405.6,404.7,405.6,404.7,405.6z"/>
			<path class="st5 anim-4" d="M196.5,662.9c-1.2-0.1-2.2,0.8-2.3,2s0.8,2.2,2,2.3c1.2,0.1,2.2-0.8,2.3-2C198.6,664,197.7,663,196.5,662.9
				C196.5,662.9,196.5,662.9,196.5,662.9z"/>
			<path class="st5 anim-5" d="M145.5,591.2c-1.2-0.1-2.2,0.8-2.3,2c-0.1,1.2,0.8,2.2,2,2.3c1.2,0.1,2.2-0.8,2.3-2
				C147.6,592.4,146.7,591.3,145.5,591.2C145.5,591.2,145.5,591.2,145.5,591.2z"/>
			<path class="st5 anim-6" d="M187.8,427.5c-1.2-0.2-2.3,0.7-2.4,1.9c-0.2,1.2,0.7,2.3,1.9,2.4c0.1,0,0.2,0,0.2,0c1.2,0.2,2.3-0.7,2.4-1.9
				c0.2-1.2-0.7-2.3-1.9-2.4C188,427.6,187.9,427.6,187.8,427.5z"/>
			<path class="st5 anim-7" d="M96.4,354c-1.2-0.1-2.2,0.8-2.3,2s0.8,2.2,2,2.3c1.2,0.1,2.2-0.8,2.3-2C98.5,355.1,97.7,354.1,96.4,354
				C96.5,354,96.5,354,96.4,354z"/>
			<path class="st5 anim-8" d="M265,644.9c-1.7-0.1-3.3,1.2-3.4,2.9c-0.1,1.7,1.2,3.3,2.9,3.4c1.7,0.1,3.3-1.2,3.4-2.9c0,0,0,0,0,0
				C268,646.6,266.7,645.1,265,644.9z"/>
			<path class="st5 anim-9" d="M283.4,583.4c-1.7-0.1-3.3,1.2-3.4,2.9s1.2,3.3,2.9,3.4c1.7,0.1,3.2-1.2,3.4-2.9
				C286.5,585.1,285.2,583.5,283.4,583.4z"/>
			<path class="st5 anim-1" d="M234.5,510.2c-1.5-0.1-2.8,1-2.9,2.5c-0.1,1.5,1,2.8,2.5,2.9c1.5,0.1,2.8-1,2.9-2.5
				C237.1,511.6,236,510.3,234.5,510.2z"/>
			<path class="st5 anim-2" d="M126.1,507c-1.7-0.1-3.3,1.2-3.4,2.9c-0.1,1.7,1.2,3.3,2.9,3.4c1.7,0.1,3.3-1.2,3.4-2.9c0,0,0,0,0,0
				C129.1,508.7,127.8,507.1,126.1,507z"/>
			<path class="st5 anim-3" d="M205.7,548.3c-1.7-0.1-3.1,1.1-3.2,2.7c-0.1,1.7,1.1,3.1,2.7,3.2c1.7,0.1,3.1-1.1,3.2-2.7c0,0,0,0,0,0
				C208.5,549.9,207.3,548.4,205.7,548.3z"/>
			<path class="st5 anim-4" d="M91.7,627.1c-2.2-0.2-4.2,1.5-4.4,3.7c-0.2,2.2,1.5,4.2,3.7,4.4c2.2,0.2,4.2-1.5,4.4-3.7c0,0,0,0,0,0
				C95.6,629.3,93.9,627.3,91.7,627.1z"/>
			<path class="st5 anim-5" d="M354.5,666.5c-1.7-0.1-3.1,1.1-3.2,2.7c-0.1,1.7,1.1,3.1,2.7,3.2s3.1-1.1,3.2-2.7c0,0,0,0,0,0
				C357.4,668,356.2,666.6,354.5,666.5z"/>
			<path class="st5 anim-6" d="M450.7,659.9c-1.7-0.1-3.1,1.1-3.2,2.7c-0.1,1.7,1.1,3.1,2.7,3.2c1.7,0.1,3.1-1.1,3.2-2.7c0,0,0,0,0,0
				C453.5,661.5,452.3,660,450.7,659.9z"/>
		</g>
	</g>
</g>
</svg>
