<?xml version="1.0" encoding="utf-8"?>
<!-- Generator: Adobe Illustrator 23.0.6, SVG Export Plug-In . SVG Version: 6.00 Build 0)  -->
<svg version="1.1" id="Layer_1" xmlns="http://www.w3.org/2000/svg" xmlns:xlink="http://www.w3.org/1999/xlink" x="0px" y="0px"
	 viewBox="0 0 321 315" style="enable-background:new 0 0 321 315;" xml:space="preserve">
<style type="text/css">
	.st0{clip-path:url(#SVGID_2_);}
	.st1{fill:#FFFFFF;}
	.st2{opacity:0.1;}
	.st3{fill:#1A1818;}
</style>
<g>
	<defs>
		<rect id="SVGID_1_" width="321" height="315"/>
	</defs>
	<clipPath id="SVGID_2_">
		<use xlink:href="#SVGID_1_"  style="overflow:visible;"/>
	</clipPath>
	<g id="Artboard_1_1_" class="st0">
		<rect class="st1" width="321" height="315"/>
		<g id="Group_6483_1_" class="st2">
			<path id="Path_805_1_" class="st3" d="M51.9,154.1c-0.1,0-0.2,0-0.3,0c0-0.3,0-0.5,0-0.8c0-6.3-5.1-11.3-11.3-11.3
				c-4.6,0-8.7,2.8-10.5,7c-3.4-1.4-7.4,0.2-8.8,3.6c-0.2,0.5-0.3,1-0.4,1.5c-4.6-0.7-8.8,2.4-9.5,7c-0.7,4.6,2.4,8.8,7,9.5
				c0.4,0.1,0.8,0.1,1.3,0.1h7.2v10c0,0.6,0.4,1,1,1h19.6c0.6,0,1-0.4,1-1v-10h3.7c4.6,0,8.3-3.7,8.3-8.3
				C60.3,157.9,56.5,154.1,51.9,154.1C51.9,154.1,51.9,154.1,51.9,154.1L51.9,154.1z M28.6,179.8v-23.4h12v4.6c0,0.6,0.4,1,1,1h4.6
				v17.8L28.6,179.8z M44.8,160h-2.2v-2.2L44.8,160z M51.9,168.8h-3.7V161c0-0.1,0-0.1,0-0.2c0,0,0-0.1,0-0.1c0,0,0,0,0-0.1
				c0,0,0-0.1-0.1-0.1c0,0,0,0,0,0c0-0.1-0.1-0.1-0.1-0.2l-5.6-5.6c0,0-0.1-0.1-0.2-0.1c0,0,0,0,0,0c0,0-0.1,0-0.1-0.1
				c0,0,0,0-0.1,0c0,0-0.1,0-0.1,0c-0.1,0-0.1,0-0.2,0h-14c-0.6,0-1,0.4-1,1v13.4h-7.2c-3.5,0-6.3-2.8-6.3-6.3
				c0-3.5,2.8-6.3,6.3-6.3c0.6,0,1.3,0.1,1.9,0.3c0.5,0.2,1.1-0.1,1.3-0.7c0-0.1,0-0.2,0-0.3l0-0.2c0-2.6,2.1-4.7,4.7-4.7
				c0.9,0,1.8,0.3,2.6,0.8c0.5,0.3,1.1,0.2,1.4-0.3c0.1-0.1,0.1-0.2,0.1-0.3c1.5-4.9,6.6-7.8,11.6-6.3c4,1.2,6.7,4.8,6.7,8.9
				c0,0.6-0.1,1.2-0.2,1.7c-0.1,0.5,0.3,1.1,0.8,1.2c0.1,0,0.3,0,0.4,0c0.4-0.1,0.9-0.1,1.3-0.1c3.5,0,6.3,2.8,6.3,6.3
				S55.4,168.8,51.9,168.8L51.9,168.8L51.9,168.8z"/>
			<g id="Group_6128_1_" transform="translate(0.645)">
				<path id="Path_806_1_" class="st3" d="M37.5,67.5h7.8l-1.1-3.2c-0.6-1.7-1.2-3.5-2-5.8c-0.2-0.6,0.1-1.3,0.7-1.5
					s1.3,0.1,1.5,0.7c0.8,2.3,1.4,4.1,2,5.8c0.4,1.3,0.9,2.6,1.3,4h3.1c-0.5-1.6-1-2.9-1.4-4.2c-0.5-1.6-1-3.1-1.6-4.8
					c-0.2-0.6,0.2-1.3,0.8-1.5c0.6-0.2,1.2,0.1,1.4,0.7c0.6,1.8,1.1,3.3,1.6,4.8c0.6,1.7,1.2,3.5,2,5.8c0.2,0.6-0.1,1.3-0.7,1.5
					c-0.1,0-0.2,0.1-0.4,0.1H37.5c-0.6,0-1.2-0.5-1.2-1.2C36.3,68,36.8,67.5,37.5,67.5L37.5,67.5z"/>
				<path id="Path_807_1_" class="st3" d="M24.8,6c-0.6,0-1.2-0.5-1.2-1.2V1.2c0-0.6,0.5-1.2,1.2-1.2C25.5,0,26,0.5,26,1.2v3.7
					C26,5.5,25.5,6,24.8,6C24.8,6,24.8,6,24.8,6z"/>
				<path id="Path_808_1_" class="st3" d="M31.1,5.8c-0.1,0.6-0.8,1-1.4,0.9s-1-0.8-0.9-1.4c0,0,0,0,0-0.1l0.9-3.5
					c0.1-0.6,0.8-1,1.4-0.9s1,0.8,0.9,1.4c0,0,0,0,0,0.1L31.1,5.8z"/>
				<path id="Path_809_1_" class="st3" d="M35.8,8.1c-0.3,0.6-1.1,0.7-1.6,0.4c-0.5-0.3-0.7-1-0.4-1.6l1.8-3.2
					c0.3-0.6,1-0.8,1.6-0.4s0.8,1,0.4,1.6L35.8,8.1z"/>
				<path id="Path_810_1_" class="st3" d="M39.8,11.5c-0.4,0.5-1.2,0.5-1.7,0c-0.5-0.4-0.5-1.2,0-1.7c0,0,0,0,0,0l2.6-2.6
					c0.5-0.5,1.2-0.5,1.7,0c0.5,0.5,0.5,1.2,0,1.7l0,0L39.8,11.5z"/>
				<path id="Path_811_1_" class="st3" d="M45.9,14l-3.2,1.8c-0.6,0.3-1.3,0.2-1.6-0.4c-0.3-0.6-0.2-1.3,0.4-1.6c0,0,0,0,0,0
					l3.2-1.8c0.6-0.3,1.3-0.2,1.6,0.4C46.7,12.9,46.5,13.6,45.9,14C45.9,14,45.9,14,45.9,14z"/>
				<path id="Path_812_1_" class="st3" d="M48,19.8l-3.5,0.9C43.8,21,43.2,20.6,43,20c-0.2-0.6,0.2-1.3,0.8-1.5c0,0,0,0,0.1,0
					l3.5-0.9c0.6-0.2,1.3,0.2,1.5,0.8C49,19,48.7,19.6,48,19.8C48,19.8,48,19.8,48,19.8z"/>
				<path id="Path_813_1_" class="st3" d="M9.9,38.1c0.5-0.5,1.2-0.5,1.7,0c0.5,0.5,0.5,1.2,0,1.7l-2.6,2.6c-0.4,0.5-1.2,0.5-1.7,0
					c-0.5-0.4-0.5-1.2,0-1.7c0,0,0,0,0,0L9.9,38.1z"/>
				<path id="Path_814_1_" class="st3" d="M3.8,35.6l3.2-1.8c0.6-0.3,1.3-0.1,1.6,0.5c0.3,0.6,0.1,1.2-0.4,1.6l-3.2,1.8
					c-0.6,0.3-1.3,0.2-1.6-0.4S3.2,36,3.8,35.6C3.7,35.6,3.7,35.6,3.8,35.6L3.8,35.6z"/>
				<path id="Path_815_1_" class="st3" d="M1.7,29.8l3.5-0.9c0.6-0.2,1.3,0.2,1.4,0.8c0.2,0.6-0.2,1.3-0.8,1.4l-3.5,0.9
					c-0.6,0.2-1.3-0.2-1.5-0.8C0.6,30.7,1,30,1.7,29.8C1.6,29.8,1.7,29.8,1.7,29.8z"/>
				<path id="Path_816_1_" class="st3" d="M1.2,23.6h3.7c0.6,0,1.2,0.5,1.2,1.2C6,25.5,5.5,26,4.8,26H1.2C0.5,26,0,25.5,0,24.8
					C0,24.2,0.5,23.6,1.2,23.6z"/>
				<path id="Path_817_1_" class="st3" d="M6.7,20c-0.2,0.6-0.8,1-1.4,0.8c0,0,0,0,0,0l-3.5-0.9c-0.6-0.1-1-0.8-0.9-1.4
					s0.8-1,1.4-0.9c0,0,0,0,0.1,0l3.5,0.9C6.4,18.7,6.8,19.3,6.7,20z"/>
				<path id="Path_818_1_" class="st3" d="M8.5,15.4c-0.3,0.6-1,0.8-1.6,0.4L3.8,14c-0.6-0.3-0.8-1-0.5-1.6c0.3-0.6,1-0.8,1.6-0.5
					c0,0,0.1,0,0.1,0.1l3.2,1.8C8.7,14.1,8.9,14.9,8.5,15.4C8.5,15.4,8.5,15.4,8.5,15.4z"/>
				<path id="Path_819_1_" class="st3" d="M11.5,11.5c-0.5,0.5-1.2,0.5-1.7,0c0,0,0,0,0,0L7.3,8.9c-0.5-0.5-0.5-1.2,0-1.7
					c0.5-0.5,1.2-0.5,1.7,0l0,0l2.6,2.6C12,10.3,12,11,11.5,11.5C11.5,11.5,11.5,11.5,11.5,11.5z"/>
				<path id="Path_820_1_" class="st3" d="M15.4,8.5c-0.6,0.3-1.3,0.1-1.6-0.4L12,4.9c-0.3-0.6-0.2-1.3,0.4-1.6s1.3-0.2,1.6,0.4
					c0,0,0,0,0,0l1.8,3.2C16.2,7.5,16,8.2,15.4,8.5C15.4,8.5,15.4,8.5,15.4,8.5z"/>
				<path id="Path_821_1_" class="st3" d="M20,6.7c-0.6,0.2-1.3-0.2-1.4-0.8c0,0,0,0,0,0l-0.9-3.5c-0.2-0.6,0.2-1.3,0.8-1.4
					c0.6-0.2,1.3,0.2,1.4,0.8l0.9,3.5C20.9,5.8,20.6,6.5,20,6.7C20,6.7,20,6.7,20,6.7z"/>
				<path id="Path_822_1_" class="st3" d="M18.6,39.5l-4.9,14.4c-0.2,0.6,0.1,1.3,0.7,1.5c0.1,0,0.2,0.1,0.4,0.1h43.8
					c0.5,0,1-0.3,1.1-0.8l10-29.4c0.2-0.6-0.1-1.3-0.7-1.5c-0.1,0-0.2-0.1-0.4-0.1H40.7C40,14.9,32.4,8.3,23.6,9
					C14.9,9.6,8.3,17.2,9,26C9.4,31.9,13.1,37.1,18.6,39.5z M27.4,53.1l2.5-7.5h8.5l-2.5,7.5H27.4z M38.4,53.1l2.5-7.5h8.5l-2.5,7.5
					H38.4z M61.1,43.3h-8.5l2.5-7.5h8.5L61.1,43.3z M50.2,43.3h-8.5l2.5-7.5h8.5L50.2,43.3z M56,26l-2.5,7.5H45l2.5-7.5H56z
					 M30.8,43.3l2.5-7.5h8.5l-2.5,7.5H30.8z M28.3,43.3h-8.5l2.5-7.5h8.5L28.3,43.3z M23.1,33.5l2.5-7.5h8.5l-2.5,7.5H23.1z
					 M45.1,26l-2.5,7.5h-8.5l2.5-7.5H45.1z M67,26l-2.5,7.5H56l2.5-7.5H67z M57.8,53.1h-8.5l2.5-7.5h8.5L57.8,53.1z M16.5,53.1
					l2.5-7.5h8.5L25,53.1H16.5z M11.3,24.8c0-7.5,6.1-13.6,13.6-13.6c7,0,12.9,5.4,13.5,12.4H24.8c-0.5,0-1,0.3-1.1,0.8l-4.3,12.8
					C14.4,35.1,11.3,30.2,11.3,24.8z"/>
			</g>
			<path id="Path_823_1_" class="st3" d="M206.4,41.9c-1.2,0-2.4,0.5-3.2,1.4l-10.1-5.4c0.2-0.7,0.2-1.4,0-2.1l10.1-5.4
				c1.6,1.8,4.3,1.9,6.1,0.3c1.8-1.6,1.9-4.3,0.3-6.1s-4.3-1.9-6.1-0.3c-1.2,1.1-1.7,2.7-1.3,4.3L192.2,34c-1.6-1.8-4.3-1.9-6-0.3
				c-1.8,1.6-1.9,4.3-0.3,6c1.6,1.8,4.3,1.9,6,0.3c0.1-0.1,0.2-0.2,0.3-0.3l10.1,5.4c-0.6,2.3,0.8,4.6,3,5.2c2.3,0.6,4.6-0.8,5.2-3
				c0.6-2.3-0.8-4.6-3-5.2C207.1,41.9,206.7,41.9,206.4,41.9L206.4,41.9z M206.4,25.2c1.2,0,2.2,1,2.2,2.2s-1,2.2-2.2,2.2
				c-1.2,0-2.2-1-2.2-2.2C204.1,26.2,205.1,25.2,206.4,25.2L206.4,25.2z M189,39c-1.2,0-2.2-1-2.2-2.2s1-2.2,2.2-2.2
				c1.2,0,2.2,1,2.2,2.2C191.2,38,190.2,39,189,39z M206.4,48.4c-1.2,0-2.2-1-2.2-2.2s1-2.2,2.2-2.2c1.2,0,2.2,1,2.2,2.2
				C208.6,47.4,207.6,48.4,206.4,48.4z"/>
			<path id="Path_824_1_" class="st3" d="M272.6,32.9c-2.2,0-3.9-1.7-3.9-3.9c0,0,0,0,0,0V14.9c-3.7-2.1-4.9-6.9-2.8-10.6
				c0.9-1.5,2.2-2.6,3.8-3.3c0.5-0.2,1.1,0,1.3,0.5c0,0.1,0.1,0.3,0.1,0.4v6.1h3V2c0-0.6,0.4-1,1-1c0.1,0,0.3,0,0.4,0.1
				c4,1.6,5.9,6.1,4.3,10.1c-0.6,1.6-1.8,2.9-3.3,3.8V29C276.4,31.2,274.7,32.9,272.6,32.9z M269,3.7c-1.4,1.1-2.2,2.7-2.2,4.5
				c0,2.2,1.3,4.2,3.3,5.2c0.3,0.2,0.6,0.5,0.6,0.9V29c0,1,0.8,1.9,1.9,1.9s1.9-0.8,1.9-1.9l0,0V14.3c0-0.4,0.2-0.7,0.6-0.9
				c2.9-1.4,4.1-4.8,2.7-7.6c-0.4-0.8-0.9-1.5-1.6-2.1v5.3c0,0.6-0.4,1-1,1h-5c-0.6,0-1-0.4-1-1L269,3.7z"/>
			<g id="Group_6129_1_" transform="translate(279.221 54.037)">
				<path id="Path_825_1_" class="st3" d="M38.5,9c0,0,0-0.1,0-0.1c0,0,0,0,0-0.1c0,0,0-0.1-0.1-0.1c0,0,0,0,0,0
					c0-0.1-0.1-0.1-0.1-0.2L31,1.3c0,0-0.1-0.1-0.2-0.1c0,0,0,0,0,0c0,0-0.1-0.1-0.1-0.1c0,0,0,0-0.1,0C30.5,1,30.4,1,30.2,1H2
					C1.5,1,1,1.4,1,2v25.8c0,0.6,0.4,1,1,1h35.5c0.6,0,1-0.4,1-1V9.2C38.5,9.2,38.5,9.1,38.5,9z M31.2,4.4l3.8,3.8h-3.8V4.4z
					 M3,26.8V3h26.2v6.2c0,0.6,0.4,1,1,1h6.2v16.6L3,26.8z"/>
				<path id="Path_826_1_" class="st3" d="M23.6,10.7c-0.4-0.4-1-0.4-1.5,0c0,0,0,0,0,0l-7.4,8.4l-2.4-2.7c-0.2-0.2-0.5-0.3-0.8-0.3
					l0,0c-0.3,0-0.6,0.1-0.8,0.3l-5.6,6.4c-0.4,0.4-0.3,1,0.1,1.4c0.2,0.2,0.4,0.3,0.7,0.3h27.5c0.6,0,1-0.4,1-1
					c0-0.2-0.1-0.5-0.3-0.7L23.6,10.7z M8.2,22.4l3.4-3.9l2.4,2.7c0.4,0.4,1,0.5,1.4,0.1c0,0,0.1-0.1,0.1-0.1l7.4-8.4l8.4,9.6H8.2z"
					/>
				<path id="Path_827_1_" class="st3" d="M9.4,13.8c2.4,0,4.4-2,4.4-4.4S11.8,5,9.4,5S5,7,5,9.4C5,11.8,7,13.8,9.4,13.8z M9.4,7
					c1.3,0,2.4,1.1,2.4,2.4s-1.1,2.4-2.4,2.4C8.1,11.8,7,10.7,7,9.4C7,8.1,8.1,7,9.4,7L9.4,7z"/>
			</g>
			<g id="Group_6130_1_" transform="translate(148.157 183.015)">
				<path id="Path_828_1_" class="st3" d="M33.8,14.7L29,9.9c-0.4-0.4-1-0.4-1.4,0s-0.4,1,0,1.4l3.1,3.1H1c-0.6,0-1,0.4-1,1
					c0,0.6,0.4,1,1,1h29.7l-3.1,3.1c-0.4,0.4-0.4,1,0,1.4s1,0.4,1.4,0l0,0l4.8-4.8C34.2,15.8,34.2,15.1,33.8,14.7
					C33.8,14.7,33.8,14.7,33.8,14.7L33.8,14.7z"/>
				<path id="Path_829_1_" class="st3" d="M19.5,5.1l-4.8-4.8c-0.4-0.4-1-0.4-1.4,0s-0.4,1,0,1.4l3.1,3.1H1c-0.6,0-1,0.4-1,1
					c0,0.6,0.4,1,1,1h15.4l-3.1,3.1c-0.4,0.4-0.4,1,0,1.4s1,0.4,1.4,0l4.8-4.8C19.9,6.1,19.9,5.5,19.5,5.1
					C19.5,5.1,19.5,5.1,19.5,5.1z"/>
				<path id="Path_830_1_" class="st3" d="M19.5,24.3l-4.8-4.8c-0.4-0.4-1-0.4-1.4,0s-0.4,1,0,1.4l3.1,3.1H1c-0.6,0-1,0.4-1,1
					c0,0.6,0.4,1,1,1h15.4l-3.1,3.1c-0.4,0.4-0.4,1,0,1.4s1,0.4,1.4,0l4.8-4.8C19.9,25.4,19.9,24.7,19.5,24.3
					C19.5,24.3,19.5,24.3,19.5,24.3z"/>
			</g>
			<g id="Group_6132_1_" transform="translate(135.09 74.375)">
				<g id="Group_6131_1_">
					<path id="Path_831_1_" class="st3" d="M31.6,4.5h-9V1c0-0.6-0.4-1-1-1h-8.7c-0.6,0-1,0.4-1,1v3.5h-9C1.3,4.5,0,5.8,0,7.3v17.8
						c0,1.6,1.3,2.8,2.8,2.8h28.8c1.6,0,2.8-1.3,2.8-2.8V7.3C34.5,5.8,33.2,4.5,31.6,4.5z M13.9,2h6.7v2.5h-6.7V2z M32.5,25.1
						c0,0.4-0.4,0.8-0.8,0.8H2.8c-0.4,0-0.8-0.4-0.8-0.8V7.3c0-0.4,0.4-0.8,0.8-0.8h28.8c0.4,0,0.8,0.4,0.8,0.8L32.5,25.1z"/>
					<path id="Path_832_1_" class="st3" d="M4.2,3.6h2.8c0.6,0,1-0.4,1-1c0-0.6-0.4-1-1-1H4.2c-0.6,0-1,0.4-1,1
						C3.2,3.2,3.6,3.6,4.2,3.6z"/>
				</g>
				<path id="Path_833_1_" class="st3" d="M30.3,3.6h-2.8c-0.6,0-1-0.4-1-1c0-0.6,0.4-1,1-1h2.8c0.6,0,1,0.4,1,1
					C31.3,3.2,30.8,3.6,30.3,3.6L30.3,3.6z"/>
			</g>
			<g id="Group_6133_1_" transform="translate(231.098 166.139)">
				<path id="Path_834_1_" class="st3" d="M27.3,25.6c-0.6,0-1-0.4-1-1V19c-4.8-1.8-7.7-5.1-7.7-8.9C18.6,4.6,25.3,0,33.5,0
					s14.9,4.6,14.9,10.1s-6.7,10.1-14.9,10.1c-0.4,0-0.9,0-1.3,0L28,25.2C27.8,25.4,27.6,25.6,27.3,25.6z M33.5,2
					c-7.1,0-12.9,3.7-12.9,8.1c0,3,2.7,5.8,7,7.2c0.4,0.1,0.7,0.5,0.7,1v3.5l2.7-3.2c0.2-0.3,0.5-0.4,0.9-0.4c0.6,0,1.1,0.1,1.7,0.1
					c7.1,0,12.9-3.7,12.9-8.1S40.6,2,33.5,2L33.5,2z"/>
				<path id="Path_835_1_" class="st3" d="M14.6,29.9c-3.4,0-6.2-2.8-6.2-6.2c0-3.4,2.8-6.2,6.2-6.2c3.4,0,6.2,2.8,6.2,6.2
					c0,0,0,0,0,0C20.7,27.2,18,29.9,14.6,29.9z M14.6,19.6c-2.3,0-4.2,1.9-4.2,4.2c0,2.3,1.9,4.2,4.2,4.2c2.3,0,4.2-1.9,4.2-4.2
					C18.7,21.5,16.9,19.6,14.6,19.6z"/>
				<path id="Path_836_1_" class="st3" d="M28.1,44.5H1c-0.6,0-1-0.4-1-1c0-0.1,0-0.3,0.1-0.4l2.7-6c1.2-2.7,3.9-4.4,6.8-4.4h9.8
					c2.9,0,5.6,1.7,6.8,4.4l2.7,6c0.2,0.5,0,1.1-0.5,1.3C28.4,44.4,28.3,44.5,28.1,44.5L28.1,44.5z M2.6,42.4h24l-2.1-4.6
					c-0.9-2-2.8-3.2-5-3.2H9.6c-2.2,0-4.1,1.3-5,3.2L2.6,42.4z"/>
			</g>
			<g id="Group_6134_1_" transform="translate(285.384 2.057)">
				<path id="Path_837_1_" class="st3" d="M32.4,31.4H20.7c-0.6,0-1-0.4-1-1c0-0.3,0.1-0.5,0.3-0.7l2.7-2.7l-2.9-2.9
					c-0.4-0.4-0.4-1,0-1.4s1-0.4,1.4,0l0,0l3.6,3.6c0.4,0.4,0.4,1,0,1.4c0,0,0,0,0,0l-1.6,1.6h8.3v-8.3l-1.7,1.7
					c-0.2,0.2-0.4,0.3-0.7,0.3l0,0c-0.3,0-0.5-0.1-0.7-0.3l-3.6-3.6c-0.4-0.4-0.4-1,0-1.4c0.4-0.4,1-0.4,1.4,0l2.9,2.9l2.7-2.7
					c0.4-0.4,1-0.4,1.4,0c0.2,0.2,0.3,0.4,0.3,0.7v11.7C33.4,30.9,33,31.4,32.4,31.4C32.4,31.4,32.4,31.4,32.4,31.4z"/>
				<path id="Path_838_1_" class="st3" d="M14.7,31.4H3c-0.6,0-1-0.4-1-1V18.7c0-0.6,0.4-1,1-1c0.3,0,0.5,0.1,0.7,0.3l2.7,2.7
					l2.9-2.9c0.4-0.4,1-0.4,1.4,0c0.4,0.4,0.4,1,0,1.4l-3.6,3.6c-0.4,0.4-1,0.4-1.4,0c0,0,0,0,0,0L4,21.1v8.3h8.3l-1.7-1.7
					c-0.4-0.4-0.4-1,0-1.4c0,0,0,0,0,0l3.6-3.6c0.4-0.4,1-0.4,1.4,0c0.4,0.4,0.4,1,0,1.4L12.7,27l2.7,2.7c0.4,0.4,0.4,1,0,1.4
					C15.2,31.3,15,31.4,14.7,31.4z"/>
				<path id="Path_839_1_" class="st3" d="M25.4,14c-0.6,0-1-0.4-1-1c0-0.3,0.1-0.5,0.3-0.7l3.6-3.6c0.4-0.4,1-0.4,1.4,0
					c0,0,0,0,0,0l1.7,1.7V2h-8.3l1.7,1.6c0.4,0.4,0.4,1,0,1.4c0,0,0,0,0,0l-3.6,3.6c-0.4,0.4-1,0.4-1.4,0s-0.4-1,0-1.4l2.9-2.9
					L20,1.7c-0.4-0.4-0.4-1,0-1.4C20.2,0.1,20.4,0,20.7,0h11.7c0.6,0,1,0.4,1,1v11.7c0,0.6-0.4,1-1,1c-0.3,0-0.5-0.1-0.7-0.3
					L29,10.7l-2.9,2.9C25.9,13.9,25.7,14,25.4,14z"/>
				<path id="Path_840_1_" class="st3" d="M10,14c-0.3,0-0.5-0.1-0.7-0.3l-2.9-2.9l-2.7,2.7c-0.4,0.4-1,0.4-1.4,0
					C2.1,13.2,2,13,2,12.7V1c0-0.6,0.4-1,1-1h11.7c0.6,0,1,0.4,1,1c0,0.3-0.1,0.5-0.3,0.7l-2.6,2.6l2.9,2.9c0.4,0.4,0.4,1,0,1.4
					c-0.4,0.4-1,0.4-1.4,0l0,0l-3.6-3.6c-0.4-0.4-0.4-1,0-1.4c0,0,0,0,0,0L12.3,2H4v8.3l1.7-1.7c0.4-0.4,1-0.4,1.4,0c0,0,0,0,0,0
					l3.6,3.6c0.4,0.4,0.4,1,0,1.4C10.5,13.9,10.3,14,10,14L10,14z"/>
			</g>
			<g id="Group_6135_1_" transform="translate(264.796 188.079)">
				<path id="Path_841_1_" class="st3" d="M15.2,10.3c0-2.7-2.2-4.9-4.9-4.9c-2.7,0-4.9,2.2-4.9,4.9c0,2.7,2.2,4.9,4.9,4.9
					C13,15.2,15.2,13,15.2,10.3z M7.5,10.3c0-1.6,1.3-2.9,2.9-2.9c1.6,0,2.9,1.3,2.9,2.9c0,1.6-1.3,2.9-2.9,2.9c0,0,0,0,0,0
					C8.8,13.2,7.5,11.9,7.5,10.3L7.5,10.3z"/>
				<path id="Path_842_1_" class="st3" d="M53.9,13.9h-29c-1.4,0-2.4,1.1-2.4,2.4c0,0.7,0.3,1.3,0.7,1.7l8.8,8.8
					c0.2,0.2,0.2,0.5,0,0.6c-0.1,0.1-0.2,0.1-0.3,0.1H12.1l0.7-1.2c2.3-3.8,6.1-10.3,6.4-10.8c0.9-1.6,1.4-3.4,1.4-5.3
					C20.7,4.6,16.1,0,10.3,0C4.6,0,0,4.6,0,10.3c0,1.9,0.5,3.7,1.4,5.3c0.3,0.5,3.9,6.6,6.2,10.5l1.8,3.1c0,0,0,0,0,0
					c0,0.1,0.1,0.1,0.1,0.2c0,0,0,0,0,0c0,0,0.1,0.1,0.2,0.1c0,0,0,0,0.1,0c0.1,0,0.1,0,0.2,0.1c0,0,0,0,0.1,0c0.1,0,0.2,0,0.2,0
					h21.3c1.4,0,2.4-1.1,2.4-2.4c0-0.7-0.3-1.3-0.7-1.7l-8.8-8.8c-0.2-0.2-0.2-0.5,0-0.6c0.1-0.1,0.2-0.1,0.3-0.1h29
					c0.6,0,1-0.4,1-1C54.9,14.3,54.4,13.9,53.9,13.9L53.9,13.9z M3.2,14.6C2.4,13.3,2,11.8,2,10.3C2,5.7,5.6,2,10.2,1.9
					c4.6-0.1,8.4,3.6,8.4,8.2c0,0.1,0,0.1,0,0.2c0,1.5-0.4,2.9-1.2,4.2c-0.3,0.5-4.1,7-6.4,10.8l-0.8,1.3l-1-1.6
					C7.1,21.2,3.4,15.1,3.2,14.6L3.2,14.6z"/>
			</g>
			<path id="Path_843_1_" class="st3" d="M171.6,57.9L171.6,57.9c0.1-0.1,0.1-0.1,0.1-0.1c2.6-4.8,2.6-10.7,0-15.5c0,0,0-0.1,0-0.1
				l0,0c0,0,0,0,0-0.1c-0.2-0.5-0.5-0.9-0.8-1.3c2.2-4.9,1.9-8,0.4-9.4c-2-1.9-6-1-11.2,2.4c-6.9-1.2-13.9,2.1-17.3,8.3
				c0,0,0,0.1,0,0.1l0,0c0,0,0,0.1,0,0.1c-1.9,3.6-2.4,7.8-1.4,11.8c-3.2,5.7-3.8,9.9-1.7,11.8c0.8,0.7,1.8,1,2.8,1
				c2.3-0.2,4.6-1,6.6-2.2c0.1-0.1,0.2-0.1,0.3-0.2c8,4.4,18,1.6,22.4-6.4C171.5,58,171.5,58,171.6,57.9
				C171.5,57.9,171.5,57.9,171.6,57.9z M157.1,64.5c-1.2,0-2.4-1.2-3.4-3.3c1.1-0.9,2.2-1.8,3.4-2.9h4.4
				C160.5,61.8,158.9,64.5,157.1,64.5L157.1,64.5z M145.3,58.4h5.3c0.2,0.7,0.4,1.5,0.7,2.2c-0.7,0.5-1.5,1-2.2,1.5
				C147.6,61.1,146.3,59.8,145.3,58.4L145.3,58.4z M144.1,43.6h6.1c-0.3,1.8-0.5,3.6-0.5,5.4h-7C142.8,47.1,143.2,45.3,144.1,43.6
				L144.1,43.6z M157.1,35.5c1.8,0,3.4,2.7,4.4,6.1h-8.8C153.7,37.8,155.5,35.5,157.1,35.5L157.1,35.5z M171.5,49h-4.8
				c-0.1-0.3-0.3-0.6-0.4-0.9c1-1.4,2-2.9,2.9-4.4h0.9C170.9,45.3,171.4,47.1,171.5,49z M156.3,56.4h-4.1c-0.3-1.8-0.5-3.6-0.6-5.4
				h8.6c0.1,0.3,0.2,0.6,0.4,0.9c-0.3,0.3-0.5,0.6-0.8,0.9C158.7,54,157.5,55.2,156.3,56.4L156.3,56.4z M163.5,51.4
				c-0.8,0-1.4-0.6-1.4-1.4s0.6-1.4,1.4-1.4c0.8,0,1.4,0.6,1.4,1.4v0C164.9,50.8,164.2,51.4,163.5,51.4L163.5,51.4L163.5,51.4z
				 M164.7,46.8c-0.1,0-0.2-0.1-0.3-0.1c-0.1-1.1-0.2-2.1-0.4-3.1h2.8C166.2,44.6,165.5,45.7,164.7,46.8L164.7,46.8z M168,41.6h-4.4
				c-0.5-2-1.3-3.8-2.4-5.5c2.8,0.8,5.3,2.5,7.1,4.8C168.3,41.1,168.1,41.4,168,41.6L168,41.6z M162,43.6c0.2,1,0.4,2.1,0.5,3.1
				c-1.1,0.3-1.9,1.2-2.2,2.3h-8.6c0-1.8,0.2-3.6,0.6-5.4H162z M149.6,51c0,1.8,0.2,3.6,0.5,5.4h-6.1c-0.8-1.7-1.3-3.5-1.4-5.4
				H149.6z M152.7,58.4h1.4c-0.4,0.3-0.7,0.6-1.1,0.9C152.8,59,152.7,58.7,152.7,58.4L152.7,58.4z M159.2,56.4
				c0.7-0.7,1.4-1.5,2.1-2.2c0.3-0.3,0.6-0.6,0.9-1c0.1,0,0.1,0.1,0.2,0.1c-0.1,1-0.3,2.1-0.5,3.1H159.2z M164.4,53.3
				c1.1-0.3,2-1.2,2.3-2.3h4.8c-0.1,1.9-0.6,3.7-1.4,5.4H164C164.2,55.4,164.3,54.4,164.4,53.3z M169.8,32.8c0.9,0.8,0.8,3-0.5,6.1
				c-1.8-2-4.1-3.6-6.7-4.5C166.6,32.1,168.9,32.1,169.8,32.8L169.8,32.8z M152.9,36.1c-1.1,1.7-1.9,3.5-2.4,5.5h-5.3
				C147.1,39,149.8,37,152.9,36.1z M140.8,64.3c-0.9-0.8-1-3.3,1.2-7.7c0.2,0.4,0.3,0.8,0.5,1.1c0,0,0,0,0,0.1l0,0.1c0,0,0,0,0,0
				c1.1,2,2.7,3.8,4.5,5.2C144.2,64.8,141.7,65.2,140.8,64.3z M152.1,62.5c0.3,0.5,0.5,1,0.8,1.4c-0.6-0.2-1.3-0.4-1.9-0.7
				C151.4,62.9,151.7,62.7,152.1,62.5z M161.2,63.9c1.1-1.7,1.9-3.5,2.4-5.5h5.3C167,61,164.3,62.9,161.2,63.9L161.2,63.9z"/>
			<g id="Group_6136_1_" transform="translate(216.351 266.073)">
				<path id="Path_844_1_" class="st3" d="M1.1,6.8h36.5l-3.1,3.1c-0.4,0.4-0.4,1,0,1.4c0.4,0.4,1,0.4,1.4,0l4.8-4.8
					c0.4-0.4,0.4-1,0-1.4c0,0,0,0,0,0l-4.8-4.8c-0.4-0.4-1-0.4-1.4,0c-0.4,0.4-0.4,1,0,1.4l0,0l3.1,3.1H1.1c-0.6,0-1,0.4-1,1
					S0.6,6.8,1.1,6.8L1.1,6.8z"/>
				<path id="Path_845_1_" class="st3" d="M39.9,14.7H3.4l3.1-3.1c0.4-0.4,0.4-1,0-1.4c-0.4-0.4-1-0.4-1.4,0L0.3,15
					c-0.4,0.4-0.4,1,0,1.4c0,0,0,0,0,0l4.8,4.8c0.4,0.4,1,0.4,1.4,0c0.4-0.4,0.4-1,0-1.4l-3.1-3.1h36.5c0.6,0,1-0.4,1-1
					S40.5,14.7,39.9,14.7L39.9,14.7z"/>
			</g>
			<path id="Path_846_1_" class="st3" d="M134.9,157.8h-25.6l3.1-3.1c0.4-0.4,0.4-1,0-1.4s-1-0.4-1.4,0l-4.8,4.8
				c-0.4,0.4-0.4,1,0,1.4c0,0,0,0,0,0l4.8,4.8c0.4,0.4,1,0.4,1.4,0s0.4-1,0-1.4l-3.1-3.1h25.6c0.6,0,1-0.4,1-1
				C135.9,158.2,135.5,157.8,134.9,157.8L134.9,157.8z"/>
			<g id="Group_6139_1_" transform="translate(264.639 234.856)">
				<g id="Group_6137_1_" transform="translate(0 19.256)">
					<path id="Path_847_1_" class="st3" d="M15.9,32.4c-0.5-0.1-0.8-0.4-0.9-0.9L14.8,29c-1.1-0.3-2.1-0.7-3-1.3l-2,1.6
						c-0.4,0.3-0.9,0.3-1.2,0c-1.3-0.9-2.4-2.1-3.3-3.4c-0.3-0.4-0.3-0.9,0-1.2l1.6-2c-0.5-1-1-2-1.3-3l-2.5-0.3
						c-0.5,0-0.8-0.4-0.9-0.9c-0.2-1.6-0.2-3.2,0-4.7c0.1-0.5,0.4-0.8,0.9-0.9l2.5-0.3c0.3-1.1,0.7-2.1,1.3-3l-1.6-2
						C5,7.4,5,6.9,5.2,6.6c0.9-1.3,2.1-2.4,3.4-3.3c0.4-0.3,0.9-0.3,1.2,0l2,1.6c1-0.5,2-1,3-1.3l0.3-2.5c0-0.5,0.4-0.8,0.9-0.9
						c1.6-0.2,3.2-0.2,4.7,0c0.5,0.1,0.8,0.4,0.9,0.9l0.3,2.5c1.1,0.3,2.1,0.7,3,1.3l2-1.6c0.4-0.3,0.9-0.3,1.2,0
						c1.3,0.9,2.4,2.1,3.3,3.4c0.3,0.4,0.3,0.9,0,1.2l-1.6,2c0.5,1,1,2,1.3,3l2.5,0.3c0.5,0,0.8,0.4,0.9,0.9c0.2,1.6,0.2,3.2,0,4.7
						c-0.1,0.5-0.4,0.8-0.9,0.9L31,19.8c-0.3,1.1-0.7,2.1-1.3,3l1.6,2c0.3,0.4,0.3,0.9,0,1.2c-0.9,1.3-2.1,2.4-3.3,3.3
						c-0.4,0.3-0.9,0.3-1.2,0l-2-1.6c-1,0.5-2,1-3,1.3l-0.3,2.5c0,0.5-0.4,0.8-0.9,0.9C19.1,32.7,17.5,32.7,15.9,32.4L15.9,32.4z
						 M19.9,28.1c0-0.4,0.4-0.8,0.8-0.9c1.3-0.3,2.6-0.8,3.7-1.5c0.4-0.2,0.8-0.2,1.2,0.1l1.9,1.5c0.7-0.6,1.3-1.2,1.9-1.9l-1.5-1.9
						c-0.3-0.3-0.3-0.8-0.1-1.2c0.7-1.1,1.3-2.4,1.5-3.7c0.1-0.4,0.4-0.7,0.9-0.8l2.4-0.3c0-0.4,0.1-0.9,0.1-1.3
						c0-0.4,0-0.9-0.1-1.3l-2.4-0.3c-0.4,0-0.8-0.4-0.9-0.8c-0.3-1.3-0.8-2.6-1.5-3.7c-0.2-0.4-0.2-0.8,0.1-1.2l1.5-1.9
						c-0.6-0.7-1.2-1.3-1.9-1.9l-1.9,1.5c-0.3,0.3-0.8,0.3-1.2,0.1c-1.1-0.7-2.4-1.3-3.7-1.5c-0.4-0.1-0.7-0.4-0.8-0.9l-0.3-2.4
						C18.8,2,17.9,2,17,2.1l-0.3,2.4c0,0.4-0.4,0.8-0.8,0.9c-1.3,0.3-2.6,0.8-3.7,1.5c-0.4,0.2-0.8,0.2-1.2-0.1L9.2,5.3
						C8.5,5.9,7.9,6.5,7.3,7.2l1.5,1.9c0.3,0.3,0.3,0.8,0.1,1.2c-0.7,1.1-1.3,2.4-1.5,3.7c-0.1,0.4-0.4,0.7-0.9,0.8L4.1,15
						C4,15.4,4,15.9,4,16.3c0,0.4,0,0.9,0.1,1.3l2.4,0.3c0.4,0,0.8,0.4,0.9,0.8c0.3,1.3,0.8,2.6,1.5,3.7c0.2,0.4,0.2,0.8-0.1,1.2
						l-1.5,1.9c0.6,0.7,1.2,1.3,1.9,1.9l1.9-1.5c0.3-0.3,0.8-0.3,1.2-0.1c1.1,0.7,2.4,1.3,3.7,1.5c0.4,0.1,0.7,0.4,0.8,0.9l0.3,2.4
						c0.9,0.1,1.8,0.1,2.6,0L19.9,28.1z"/>
					<path id="Path_848_1_" class="st3" d="M11.5,16.3c0-3.8,3.1-6.9,6.9-6.9s6.9,3.1,6.9,6.9c0,3.8-3.1,6.9-6.9,6.9c0,0,0,0,0,0
						C14.5,23.2,11.5,20.1,11.5,16.3z M13.5,16.3c0,2.7,2.2,4.9,4.9,4.9c2.7,0,4.9-2.2,4.9-4.9c0-2.7-2.2-4.9-4.9-4.9c0,0,0,0,0,0
						C15.6,11.5,13.5,13.6,13.5,16.3L13.5,16.3z"/>
				</g>
				<g id="Group_6138_1_" transform="translate(26.048)">
					<path id="Path_849_1_" class="st3" d="M11.6,25.6c-1.2-0.3-2.4-0.8-3.5-1.5c-0.4-0.2-0.6-0.7-0.5-1.1l0.5-1.8
						c-0.6-0.5-1.2-1.1-1.7-1.7L4.7,20c-0.4,0.1-0.9-0.1-1.1-0.4c-0.7-1.1-1.2-2.3-1.5-3.5c-0.1-0.4,0.1-0.9,0.5-1.1L4.2,14
						c-0.1-0.8-0.1-1.6,0-2.4l-1.7-0.9C2.1,10.5,1.9,10.1,2,9.6c0.3-1.2,0.8-2.4,1.5-3.5c0.2-0.4,0.7-0.6,1.1-0.5l1.8,0.5
						C6.9,5.5,7.5,5,8.1,4.5L7.6,2.7C7.5,2.2,7.6,1.7,8,1.5c1.1-0.7,2.3-1.2,3.5-1.5c0.4-0.1,0.9,0.1,1.1,0.5l0.9,1.7
						c0.8-0.1,1.6-0.1,2.4,0l0.9-1.7C17.1,0.1,17.6-0.1,18,0c1.2,0.3,2.4,0.8,3.5,1.5c0.4,0.2,0.6,0.7,0.5,1.1l-0.5,1.8
						c0.6,0.5,1.2,1.1,1.7,1.7L25,5.6c0.4-0.1,0.9,0.1,1.1,0.4c0.7,1.1,1.2,2.3,1.5,3.5c0.1,0.4-0.1,0.9-0.5,1.1l-1.7,0.9
						c0.1,0.8,0.1,1.6,0,2.4l1.7,0.9c0.4,0.2,0.6,0.7,0.5,1.1c-0.3,1.2-0.8,2.4-1.5,3.5c-0.2,0.4-0.7,0.6-1.1,0.5l-1.8-0.5
						c-0.5,0.6-1.1,1.2-1.7,1.7L22,23c0.1,0.4-0.1,0.9-0.4,1.1c-1.1,0.7-2.3,1.2-3.5,1.5c-0.4,0.1-0.9-0.1-1.1-0.5L16,23.4
						c-0.8,0.1-1.6,0.1-2.4,0l-0.9,1.7C12.5,25.5,12.1,25.7,11.6,25.6L11.6,25.6z M13.3,21.4c1,0.2,2.1,0.2,3.1,0
						c0.4-0.1,0.9,0.1,1.1,0.5l0.9,1.6c0.5-0.2,1.1-0.4,1.6-0.7l-0.5-1.7c-0.1-0.4,0-0.9,0.4-1.1c0.9-0.6,1.6-1.3,2.2-2.2
						c0.2-0.4,0.7-0.5,1.1-0.4l1.7,0.5c0.1-0.3,0.2-0.5,0.4-0.8c0.1-0.3,0.2-0.5,0.3-0.8l-1.6-0.8c-0.4-0.2-0.6-0.6-0.5-1.1
						c0.2-1,0.2-2.1,0-3.1c-0.1-0.4,0.1-0.9,0.5-1.1l1.6-0.9c-0.2-0.5-0.4-1.1-0.7-1.6l-1.7,0.5c-0.4,0.1-0.9,0-1.1-0.4
						c-0.6-0.9-1.3-1.6-2.2-2.2c-0.4-0.2-0.5-0.7-0.4-1.1l0.5-1.7c-0.3-0.1-0.5-0.3-0.8-0.4c-0.3-0.1-0.5-0.2-0.8-0.3l-0.8,1.6
						c-0.2,0.4-0.6,0.6-1.1,0.5c-1-0.2-2.1-0.2-3.1,0c-0.4,0.1-0.9-0.1-1.1-0.5l-0.9-1.6c-0.5,0.2-1.1,0.4-1.6,0.7l0.5,1.7
						c0.1,0.4,0,0.9-0.4,1.1C9,6.3,8.3,7,7.7,7.9C7.4,8.2,7,8.4,6.6,8.3L4.8,7.8C4.7,8,4.6,8.3,4.5,8.6C4.4,8.8,4.3,9.1,4.2,9.4
						l1.6,0.8c0.4,0.2,0.6,0.6,0.5,1.1c-0.2,1-0.2,2.1,0,3.1c0.1,0.4-0.1,0.9-0.5,1.1l-1.6,0.9c0.2,0.5,0.4,1.1,0.7,1.6l1.7-0.5
						c0.4-0.1,0.9,0,1.1,0.4C8.3,18.6,9,19.4,9.9,20c0.4,0.2,0.5,0.7,0.4,1.1l-0.5,1.7c0.3,0.1,0.5,0.3,0.8,0.4
						c0.3,0.1,0.5,0.2,0.8,0.3l0.8-1.6c0.2-0.3,0.5-0.5,0.9-0.5C13.2,21.3,13.2,21.4,13.3,21.4L13.3,21.4z"/>
					<path id="Path_850_1_" class="st3" d="M12.7,18.1c-2.9-1.2-4.3-4.5-3.1-7.4c1.2-2.9,4.5-4.3,7.4-3.1c2.9,1.2,4.3,4.5,3.1,7.4
						c-0.9,2.1-2.9,3.5-5.2,3.5C14.1,18.5,13.3,18.3,12.7,18.1z M13.4,9.4c-0.9,0.4-1.6,1.1-2,2l0,0c-0.8,1.9,0.1,4,2,4.8
						c1.9,0.8,4-0.1,4.8-2s-0.1-4-2-4.8C15.3,9.1,14.3,9.1,13.4,9.4L13.4,9.4z"/>
				</g>
			</g>
			<path id="Path_851_1_" class="st3" d="M191.8,215c-0.3,0-0.6-0.1-0.7-0.3c-2.7-3-6.9-4-10.6-2.7c-0.5,0.2-1.1-0.1-1.3-0.6
				c-0.2-0.5,0.1-1.1,0.6-1.3c4-1.4,8.4-0.7,11.6,2c2.1-4.9,7.6-7.2,12.6-5.4c1.6-6.3,8-10.1,14.3-8.5c3.3,0.8,6.1,3.1,7.6,6.1
				c0.2,0.5,0,1.1-0.4,1.3s-1.1,0-1.3-0.4c-2.4-4.8-8.3-6.8-13.1-4.3c-2.9,1.4-4.8,4.2-5.3,7.4c-0.1,0.5-0.6,0.9-1.1,0.9
				c-0.1,0-0.2-0.1-0.3-0.1c-3.8-2.1-8.6-0.6-10.7,3.2c-0.3,0.6-0.6,1.2-0.7,1.9C192.6,214.7,192.2,215,191.8,215L191.8,215z"/>
			<path id="Path_852_1_" class="st3" d="M178.7,26.7c-0.3,0-0.6-0.1-0.7-0.3c-3.5-3.9-9.1-5.3-14.1-3.5c-0.5,0.2-1.1-0.1-1.3-0.6
				c-0.2-0.5,0.1-1.1,0.6-1.3l0,0c5.2-1.9,10.9-0.8,15.1,2.9c2.5-6.5,9.8-9.7,16.3-7.1c0.1,0,0.1,0,0.2,0.1
				c1.9-8.1,9.9-13.1,18-11.2c4.3,1,8,3.9,10,7.9c0.2,0.5,0,1.1-0.4,1.3s-1.1,0-1.3-0.4c-3.2-6.4-11-9-17.4-5.8
				c-3.8,1.9-6.4,5.6-7,9.8c-0.1,0.5-0.6,0.9-1.1,0.9c-0.1,0-0.2-0.1-0.3-0.1c-5.1-2.8-11.5-0.8-14.3,4.3c-0.4,0.8-0.8,1.7-1,2.5
				c-0.1,0.4-0.4,0.6-0.7,0.7C178.8,26.7,178.7,26.7,178.7,26.7z"/>
			<path id="Path_853_1_" class="st3" d="M102.9,75.1c-0.3,0-0.6-0.1-0.8-0.4c-2.7-3.4-7.3-4.7-11.4-3.4c-0.5,0.2-1.1-0.1-1.3-0.7
				c-0.2-0.5,0.1-1.1,0.7-1.3c4.4-1.4,9.1-0.3,12.4,2.9c2.5-5.2,8.6-7.5,13.9-5.2c2-6.7,9.1-10.5,15.8-8.5c0.5,0.2,1.1,0.4,1.6,0.6
				c0.5,0.2,0.7,0.8,0.5,1.3c-0.2,0.5-0.8,0.7-1.3,0.5c-5.4-2.4-11.7,0-14.1,5.3c-0.3,0.8-0.6,1.6-0.8,2.4c-0.1,0.5-0.6,0.9-1.2,0.8
				c-0.1,0-0.2-0.1-0.3-0.1c-4.1-2.5-9.4-1.1-11.9,3c-0.4,0.6-0.7,1.3-0.9,2c-0.1,0.4-0.4,0.6-0.8,0.7
				C103.1,75.1,103,75.1,102.9,75.1z"/>
			<g id="Group_6140_1_" transform="translate(227.343 2.245)">
				<path id="Path_854_1_" class="st3" d="M17.3,34.6C7.7,34.6,0,26.8,0,17.3S7.7,0,17.3,0s17.3,7.7,17.3,17.3
					C34.5,26.8,26.8,34.5,17.3,34.6z M17.3,2C8.8,2,2,8.8,2,17.3c0,8.4,6.8,15.3,15.3,15.3c8.4,0,15.3-6.8,15.3-15.3c0,0,0,0,0,0
					C32.5,8.8,25.7,2,17.3,2z"/>
				<path id="Path_855_1_" class="st3" d="M11.9,24.5c-0.6,0-1-0.4-1-1V11.1c0-0.6,0.4-1,1-1c0.2,0,0.3,0,0.4,0.1l12.7,6.2
					c0.5,0.2,0.7,0.8,0.5,1.3c-0.1,0.2-0.3,0.4-0.5,0.5l-12.7,6.2C12.2,24.5,12.1,24.5,11.9,24.5z M12.9,12.7v9.2l9.4-4.6L12.9,12.7
					z"/>
			</g>
			<path id="Path_856_1_" class="st3" d="M79.5,180.8c-0.6,0-1-0.4-1-1v-5h-1.9c-2.1,0-3.9-1.7-3.9-3.9v-13.1c0-2.1,1.7-3.9,3.9-3.9
				h18.8c2.1,0,3.9,1.7,3.9,3.9v13.1c0,2.1-1.7,3.9-3.9,3.9H85l-4.8,5.7C80,180.7,79.8,180.8,79.5,180.8z M76.6,155.9
				c-1,0-1.9,0.8-1.9,1.9v13.1c0,1,0.8,1.9,1.9,1.9h2.9c0.6,0,1,0.4,1,1v3.3l3.3-3.9c0.2-0.2,0.5-0.4,0.8-0.4h10.9
				c1,0,1.9-0.8,1.9-1.9v-13.1c0-1-0.8-1.9-1.9-1.9L76.6,155.9z"/>
			<path id="Path_857_1_" class="st3" d="M202.2,138.1H198c-0.6,0-1-0.4-1-1v-9.8h-5.8c-0.6,0-1-0.4-1-1v-10.3l-5.2-3.9l-5.2,3.9
				V129c0,0.6-0.4,1-1,1h-5.1c-0.6,0-1-0.4-1-1v-9.4h-8.3v7.2c0,0.6-0.4,1-1,1h-4.2c-0.6,0-1-0.4-1-1v-14.1h-10.9v10.2
				c0,0.6-0.4,1-1,1h-5c-0.6,0-1-0.4-1-1v-5.5h-2.6c-0.6,0-1-0.4-1-1c0-0.6,0.4-1,1-1h3.6c0.6,0,1,0.4,1,1v5.5h3v-10.2
				c0-0.6,0.4-1,1-1h12.9c0.6,0,1,0.4,1,1v14.1h2.2v-7.2c0-0.6,0.4-1,1-1h10.3c0.6,0,1,0.4,1,1v9.4h3.1v-12.4c0-0.3,0.1-0.6,0.4-0.8
				l6.2-4.6c0.4-0.3,0.8-0.3,1.2,0l6.2,4.6c0.3,0.2,0.4,0.5,0.4,0.8v9.8h5.8c0.6,0,1,0.4,1,1v9.8h3.3c0.6,0,1,0.4,1,1
				C203.2,137.7,202.8,138.1,202.2,138.1L202.2,138.1z"/>
			<path id="Path_858_1_" class="st3" d="M103.6,285h-2.7v-4.7c0-0.6-0.4-1-1-1h-8.2v-3.7h2.7c0.6,0,1-0.4,1-1v-7.5c0-0.6-0.4-1-1-1
				h-7.5c-0.6,0-1,0.4-1,1v7.5c0,0.6,0.4,1,1,1h2.7v3.7h-8.2c-0.6,0-1,0.4-1,1v4.7h-2.7c-0.6,0-1,0.4-1,1v7.5c0,0.6,0.4,1,1,1h7.5
				c0.6,0,1-0.4,1-1V286c0-0.6-0.4-1-1-1h-2.7v-3.7h16.4v3.7h-2.7c-0.6,0-1,0.4-1,1v7.5c0,0.6,0.4,1,1,1h7.5c0.6,0,1-0.4,1-1V286
				C104.6,285.5,104.2,285,103.6,285z M87.9,268.1h5.5v5.5h-5.5V268.1z M84.2,292.5h-5.5V287h5.5V292.5z M102.6,292.5h-5.5V287h5.5
				V292.5z"/>
			<g id="Group_6141_1_" transform="translate(50.068 281.671)">
				<path id="Path_859_1_" class="st3" d="M4.7,32.2c-0.6,0-1-0.4-1-1c0-0.1,0-0.2,0-0.3l3-11.7H1c-0.6,0-1-0.4-1-1
					c0-0.2,0.1-0.4,0.2-0.6L11.8,0.4c0.3-0.5,0.9-0.6,1.4-0.3c0.4,0.2,0.5,0.7,0.4,1.1l-3,11.7h5.8c0.6,0,1,0.4,1,1
					c0,0.2-0.1,0.4-0.2,0.6L5.6,31.8C5.4,32.1,5.1,32.2,4.7,32.2z M2.9,17.3h5.2c0.6,0,1,0.4,1,1c0,0.1,0,0.2,0,0.3l-1.9,7.2
					l7.2-10.8H9.2c-0.6,0-1-0.4-1-1c0-0.1,0-0.2,0-0.3l1.9-7.2L2.9,17.3z"/>
			</g>
			<path id="Path_860_1_" class="st3" d="M315.7,191.9l-26.2,0.5c-0.6,0-1-0.4-1-1v-18.1c0-0.6,0.4-1,1-1h15.2l1.7-2.3
				c0.2-0.3,0.5-0.4,0.8-0.4h8.4c0.6,0,1,0.4,1,1v20.8C316.7,191.9,316.2,191.9,315.7,191.9z M290.5,190.4h24.1v-18.8h-6.9l-1.7,2.3
				c-0.2,0.3-0.5,0.4-0.8,0.4h-14.7L290.5,190.4z"/>
			<path id="Path_861_1_" class="st3" d="M309.8,313.8H283c-3.9,0-7-3.2-7-7s3.2-7,7-7h0.1c0-0.1,0-0.3,0-0.4c0-5.2,4.2-9.5,9.5-9.5
				c3.8,0,7.2,2.2,8.7,5.7c3-1.1,6.3,0.4,7.4,3.3c0.1,0.3,0.2,0.6,0.3,1c0.3,0,0.6-0.1,0.9-0.1c3.9,0,7,3.2,7,7
				S313.7,313.8,309.8,313.8L309.8,313.8z M283,301.7c-2.8,0-5,2.3-5,5.1c0,2.7,2.2,4.9,5,5h26.8c2.8,0,5-2.2,5-5c0-2.8-2.2-5-5-5
				c-0.5,0-1,0.1-1.5,0.2c-0.5,0.2-1.1-0.1-1.3-0.7c0-0.1,0-0.2,0-0.3l0-0.1c0-2.1-1.6-3.7-3.7-3.8c-0.7,0-1.5,0.2-2.1,0.6
				c-0.5,0.3-1.1,0.2-1.4-0.3c-0.1-0.1-0.1-0.2-0.1-0.3c-1.2-4-5.4-6.2-9.4-5c-3.6,1.1-5.9,4.8-5.2,8.5c0.1,0.5-0.3,1.1-0.8,1.2
				c-0.1,0-0.3,0-0.4,0C283.7,301.7,283.3,301.7,283,301.7L283,301.7z"/>
			<g id="Group_6142_1_" transform="translate(0.745 62.608)">
				<path id="Path_862_1_" class="st3" d="M37.9,23h-5.6c-0.6,0-1-0.4-1-1v-7h-4.2c-0.6,0-1-0.4-1-1V6.7l-5.9-4.4l-5.9,4.4V22
					c0,0.6-0.4,1-1,1H6.6c-0.6,0-1-0.4-1-1V11.9H1c-0.6,0-1-0.4-1-1c0-0.6,0.4-1,1-1h5.6c0.6,0,1,0.4,1,1V21h4.6V6.2
					c0-0.3,0.1-0.6,0.4-0.8l6.9-5.2c0.4-0.3,0.8-0.3,1.2,0l6.9,5.2c0.3,0.2,0.4,0.5,0.4,0.8V13h4.2c0.6,0,1,0.4,1,1v7h4.6
					c0.6,0,1,0.4,1,1C38.9,22.6,38.5,23,37.9,23L37.9,23z"/>
			</g>
			<g id="Group_6143_1_" transform="translate(172.288 288.691)">
				<path id="Path_863_1_" class="st3" d="M39,25.1H34c-0.6,0-1-0.4-1-1V5h-3c-0.6,0-1-0.4-1-1V2h-6.9v17.8c0,0.6-0.4,1-1,1h-4.3
					c-0.6,0-1-0.4-1-1v-6.2H7.7v10.5c0,0.6-0.4,1-1,1H1c-0.6,0-1-0.4-1-1s0.4-1,1-1h4.6V12.6c0-0.6,0.4-1,1-1h10.2c0.6,0,1,0.4,1,1
					v6.2h2.3V1c0-0.6,0.4-1,1-1H30c0.6,0,1,0.4,1,1v2h3c0.6,0,1,0.4,1,1v19.1H38v-7.2c0-0.6,0.4-1,1-1h4.5V9.8
					c0-0.3,0.1-0.6,0.3-0.7l5.4-4.9c0.4-0.3,1-0.3,1.3,0L56,9c0.2,0.2,0.3,0.5,0.3,0.7v9h3.9V8.3c0-0.6,0.4-1,1-1H72
					c0.6,0,1,0.4,1,1v14.8h3.9v-9.2c0-0.6,0.4-1,1-1h4.3v-11c0-0.6,0.4-1,1-1H97c0.6,0,1,0.4,1,1v5.5h3.9c0.6,0,1,0.4,1,1
					s-0.4,1-1,1H97c-0.6,0-1-0.4-1-1V2.9H84.3v11c0,0.6-0.4,1-1,1h-4.3v9.2c0,0.6-0.4,1-1,1H72c-0.6,0-1-0.4-1-1V9.3h-8.8v10.5
					c0,0.6-0.4,1-1,1h-5.9c-0.6,0-1-0.4-1-1v-9.6l-4.4-4l-4.4,4v5.7c0,0.6-0.4,1-1,1H40v7.2C40,24.6,39.5,25.1,39,25.1
					C39,25.1,39,25.1,39,25.1z"/>
			</g>
			<g id="Group_6144_1_" transform="translate(73.088 103.645)">
				<path id="Path_864_1_" class="st3" d="M14.8,21c-4.7,0-8.6,3.9-8.6,8.6s3.9,8.6,8.6,8.6c4.7,0,8.6-3.9,8.6-8.6
					C23.4,24.8,19.5,21,14.8,21z M15.8,23.1c1,0.2,2,0.6,2.9,1.2l-2.9,2.9V23.1z M13.8,23.1v5.5H8.3C8.7,25.7,10.9,23.5,13.8,23.1
					L13.8,23.1z M8.3,30.6h6.1l4.3,4.3c-2.9,2.2-7,1.5-9.2-1.4C8.8,32.6,8.4,31.6,8.3,30.6L8.3,30.6z M20.1,33.5l-3.9-3.9l3.9-3.9
					C21.8,28,21.8,31.2,20.1,33.5z"/>
				<path id="Path_865_1_" class="st3" d="M57.4,0H1C0.5,0,0,0.4,0,1v40.1c0,0.6,0.4,1,1,1h56.4c0.6,0,1-0.4,1-1V1
					C58.4,0.5,57.9,0,57.4,0C57.4,0,57.4,0,57.4,0z M56.4,2v1H2V2L56.4,2z M2,40.1v-35h54.4v35H2z"/>
				<path id="Path_866_1_" class="st3" d="M51.4,9.3c-0.4-0.2-0.8-0.1-1.1,0.2l-4.2,3.7L42.9,11c-0.3-0.2-0.8-0.2-1.1,0l-1.2,0.9
					l-3.2-2.6C37.2,9.1,37,9,36.8,9h-3.3c-0.3,0-0.6,0.1-0.8,0.3l-2,2.3l-3.3-3.6c-0.4-0.4-1-0.4-1.4-0.1l-2.6,2.2L20,6.6
					c-0.4-0.4-1-0.4-1.4-0.1c0,0-0.1,0.1-0.1,0.1l-2.4,3.2L15,9c-0.4-0.4-1.1-0.3-1.4,0.1c0,0,0,0,0,0L10.6,13l-2.8-1.2
					c-0.5-0.2-1.1,0-1.3,0.5c-0.1,0.1-0.1,0.3-0.1,0.4v4.7c0,0.6,0.4,1,1,1H51c0.6,0,1-0.4,1-1v-7.2C52,9.8,51.8,9.5,51.4,9.3z
					 M50,16.4H8.4v-2.2l2.1,0.9c0.4,0.2,0.9,0.1,1.2-0.3l2.8-3.7l1.1,0.9c0.4,0.4,1.1,0.3,1.4-0.1c0,0,0,0,0,0l2.3-3l3.2,3.5
					c0.4,0.4,1,0.4,1.4,0.1l2.6-2.2l3.4,3.7c0.4,0.4,1,0.4,1.4,0c0,0,0.1-0.1,0.1-0.1l2.4-2.8h2.5l3.5,2.8c0.3,0.3,0.8,0.3,1.2,0
					l1.3-0.9l3.2,2.2c0.4,0.3,0.9,0.2,1.2-0.1l3.2-2.8L50,16.4z"/>
				<path id="Path_867_1_" class="st3" d="M50.9,25.4H29v-1.2h14.2c0.6,0,1-0.4,1-1c0-0.6-0.4-1-1-1H29V22c0-0.6-0.4-1-1-1
					c-0.6,0-1,0.4-1,1v15c0,0.6,0.4,1,1,1c0.6,0,1-0.4,1-1v-0.2h16.9c0.6,0,1-0.4,1-1c0-0.6-0.4-1-1-1H29v-1.2h9.6c0.6,0,1-0.4,1-1
					s-0.4-1-1-1H29v-1.2h17c0.6,0,1-0.4,1-1c0-0.6-0.4-1-1-1H29v-1.2h21.9c0.6,0,1-0.4,1-1C51.9,25.8,51.5,25.4,50.9,25.4L50.9,25.4
					z"/>
			</g>
			<g id="Group_6145_1_" transform="translate(105.814 244.839)">
				<path id="Path_868_1_" class="st3" d="M49.6,12.1l1.9-2.7c0.3-0.5,0.2-1.1-0.2-1.4c0,0,0,0,0,0l-2.7-1.9
					c-0.5-0.3-1.1-0.2-1.4,0.2c0,0,0,0,0,0l-1.9,2.7c-1.2-0.5-2.4-0.9-3.7-1.2V5.6h0.9c0.6,0,1-0.4,1-1V1c0-0.6-0.4-1-1-1h-7.1
					c-0.6,0-1,0.4-1,1v3.6c0,0.6,0.4,1,1,1h0.9v2.3c-4.2,0.8-7.9,3.3-10.2,7h-7.7c-0.6,0-1,0.4-1,1c0,0.6,0.4,1,1,1h6.7
					c-0.3,0.8-0.6,1.7-0.8,2.5H12.6c-0.6,0-1,0.4-1,1s0.4,1,1,1H24c0,0.4-0.1,0.8-0.1,1.3s0,0.8,0.1,1.3H6.8c-0.6,0-1,0.4-1,1
					s0.4,1,1,1h17.5c0.2,0.9,0.5,1.7,0.8,2.5H1c-0.6,0-1,0.4-1,1s0.4,1,1,1h25.2c4.3,7.1,13.5,9.3,20.6,5c7.1-4.3,9.3-13.5,5-20.6
					C51.2,13.9,50.5,12.9,49.6,12.1z M48.3,8.3l1,0.7l-1.2,1.7c-0.3-0.3-0.7-0.5-1-0.7L48.3,8.3z M36.4,2h5.1v1.6h-5.1V2z M38.4,5.6
					h1.3v2.1c-0.2,0-0.4,0-0.6,0s-0.4,0-0.6,0L38.4,5.6z M39,35.7c-7.2,0-13-5.8-13-13c0-7.2,5.8-13,13-13c7.2,0,13,5.8,13,13l0,0
					C52,29.9,46.2,35.7,39,35.7L39,35.7z"/>
				<path id="Path_869_1_" class="st3" d="M39,11.7c-6.1,0-11,4.9-11,11c0,6.1,4.9,11,11,11c6.1,0,11-4.9,11-11c0,0,0,0,0,0
					C50,16.6,45.1,11.7,39,11.7z M39,31.7c-5,0-9-4-9-9s4-9,9-9s9,4,9,9C48,27.7,44,31.7,39,31.7z"/>
				<path id="Path_870_1_" class="st3" d="M39,15.2c-0.6,0-1,0.4-1,1v6.5c0,0.6,0.4,1,1,1c0.6,0,1-0.4,1-1v-6.5
					C40,15.6,39.6,15.2,39,15.2C39,15.2,39,15.2,39,15.2z"/>
			</g>
			<g id="Group_6146_1_" transform="translate(251.869 119.728)">
				<path id="Path_871_1_" class="st3" d="M21.9,35.9c7.7,0,14-6.3,14-14c0-0.2,0-0.4,0-0.6c4.3-3.9,6.8-7.9,5.3-10.5
					c-1.4-2.4-5.6-2.7-11.8-0.7c-6.5-4.2-15.2-2.2-19.4,4.3c-1.4,2.3-2.2,4.9-2.2,7.5c0,0.2,0,0.4,0,0.6c-0.8,0.7-1.5,1.4-2.1,2.1
					C2.6,28.1,1.5,31,2.6,33c0.8,1.3,2.4,2,4.8,2c2.4-0.1,4.7-0.5,7-1.3C16.6,35.2,19.2,35.9,21.9,35.9z M39.4,11.8
					c0.7,1.2-0.6,3.8-3.8,7.1c-0.6-2.8-2.1-5.3-4.2-7.3C36.1,10.3,38.8,10.7,39.4,11.8L39.4,11.8z M21.9,9.9
					c6.1,0,11.2,4.6,11.9,10.6c-2.7,2.4-5.7,4.5-8.8,6.3l0.5-1.7c0.2-0.5-0.1-1.1-0.7-1.2c-0.5-0.2-1.1,0.1-1.2,0.7l0,0l-1.2,4.1
					c-0.2,0.5,0.1,1.1,0.7,1.2c0,0,0,0,0,0l4.1,1.2c0.5,0.2,1.1-0.1,1.2-0.7s-0.1-1.1-0.7-1.2l-1.8-0.5c2.8-1.6,5.4-3.4,7.9-5.5
					c-0.6,6.6-6.5,11.5-13.1,10.8c-5.6-0.5-10.1-4.9-10.8-10.6c2.7-2.4,5.7-4.5,8.8-6.3l-0.5,1.7c-0.2,0.5,0.1,1.1,0.7,1.2
					c0.5,0.2,1.1-0.1,1.2-0.7l1.2-4.1c0.2-0.5-0.1-1.1-0.7-1.2c0,0,0,0,0,0l-4.1-1.2c-0.5-0.2-1.1,0.1-1.2,0.7s0.1,1.1,0.7,1.2
					l1.8,0.5c-2.8,1.6-5.4,3.4-7.9,5.4C10.6,14.6,15.7,9.9,21.9,9.9L21.9,9.9z M4.4,32c-0.5-0.9,0-2.9,2.9-6.1c0.3-0.3,0.6-0.7,1-1
					c0.6,2.8,2.1,5.3,4.2,7.3C7.7,33.5,5,33.1,4.4,32L4.4,32z"/>
				<path id="Path_872_1_" class="st3" d="M21.9,5.2c0.6,0,1-0.4,1-1V1c0-0.6-0.4-1-1-1s-1,0.4-1,1v3.2C20.9,4.8,21.4,5.2,21.9,5.2
					C21.9,5.2,21.9,5.2,21.9,5.2z"/>
				<path id="Path_873_1_" class="st3" d="M16.4,5.1c0.1,0.4,0.5,0.7,1,0.7c0.6,0,1-0.4,1-1c0-0.1,0-0.2,0-0.3l-0.8-3.1
					c-0.1-0.5-0.7-0.9-1.2-0.7c-0.5,0.1-0.9,0.7-0.7,1.2L16.4,5.1z"/>
				<path id="Path_874_1_" class="st3" d="M12.2,7.1c0.3,0.5,0.9,0.6,1.4,0.4c0.5-0.3,0.6-0.9,0.4-1.4l0,0l-1.6-2.8
					C12,2.8,11.4,2.7,11,2.9c-0.5,0.3-0.6,0.9-0.4,1.4l0,0L12.2,7.1z"/>
				<path id="Path_875_1_" class="st3" d="M8.7,10.1c0.4,0.4,1,0.4,1.4,0c0.4-0.4,0.4-1,0-1.4l0,0L7.8,6.4C7.4,6,6.8,6,6.4,6.4
					C6,6.8,6,7.4,6.4,7.8l0,0L8.7,10.1z"/>
				<path id="Path_876_1_" class="st3" d="M3.3,12.3l2.8,1.6c0.5,0.3,1.1,0.1,1.4-0.4c0.3-0.5,0.1-1.1-0.4-1.4l-2.8-1.6
					c-0.5-0.3-1.1-0.1-1.4,0.4C2.7,11.4,2.8,12,3.3,12.3L3.3,12.3z"/>
				<path id="Path_877_1_" class="st3" d="M1.5,17.5l3.1,0.8c0.1,0,0.2,0,0.3,0c0.6,0,1-0.4,1-1c0-0.5-0.3-0.9-0.8-1L2,15.5
					c-0.5-0.1-1.1,0.2-1.2,0.7C0.6,16.8,0.9,17.3,1.5,17.5L1.5,17.5z"/>
				<path id="Path_878_1_" class="st3" d="M5.2,21.9c0-0.6-0.4-1-1-1H1c-0.6,0-1,0.4-1,1c0,0.6,0.4,1,1,1h3.2
					C4.8,22.9,5.2,22.5,5.2,21.9C5.2,21.9,5.2,21.9,5.2,21.9z"/>
				<path id="Path_879_1_" class="st3" d="M13.6,36.3c-0.5-0.3-1.1-0.1-1.4,0.4c0,0,0,0,0,0l-1.6,2.8c-0.3,0.5-0.1,1.1,0.4,1.4
					c0.5,0.3,1.1,0.1,1.4-0.4l1.6-2.8C14.2,37.2,14.1,36.6,13.6,36.3C13.6,36.3,13.6,36.3,13.6,36.3z"/>
				<path id="Path_880_1_" class="st3" d="M17.6,38c-0.5-0.1-1.1,0.2-1.2,0.7c0,0,0,0,0,0l-0.8,3.1c-0.1,0.5,0.2,1.1,0.7,1.2
					c0.5,0.1,1.1-0.2,1.2-0.7l0,0l0.8-3.1C18.4,38.7,18.1,38.1,17.6,38C17.6,38,17.6,38,17.6,38z"/>
				<path id="Path_881_1_" class="st3" d="M21.9,38.6c-0.6,0-1,0.4-1,1v3.2c0,0.6,0.4,1,1,1s1-0.4,1-1v-3.2
					C22.9,39,22.5,38.6,21.9,38.6C21.9,38.6,21.9,38.6,21.9,38.6z"/>
				<path id="Path_882_1_" class="st3" d="M27.4,38.7c-0.1-0.5-0.7-0.9-1.2-0.7c-0.5,0.1-0.9,0.7-0.7,1.2l0.8,3.1
					c0.1,0.5,0.7,0.9,1.2,0.7c0.5-0.1,0.9-0.7,0.7-1.2L27.4,38.7z"/>
				<path id="Path_883_1_" class="st3" d="M31.6,36.7c-0.3-0.5-0.9-0.6-1.4-0.4c-0.5,0.3-0.6,0.9-0.4,1.4l0,0l1.6,2.8
					c0.3,0.5,0.9,0.6,1.4,0.4c0.5-0.3,0.6-0.9,0.4-1.4l0,0L31.6,36.7z"/>
				<path id="Path_884_1_" class="st3" d="M35.1,33.7c-0.4-0.4-1-0.4-1.4,0c-0.4,0.4-0.4,1,0,1.4l2.3,2.3c0.4,0.4,1,0.4,1.4,0
					c0.4-0.4,0.4-1,0-1.4l0,0L35.1,33.7z"/>
				<path id="Path_885_1_" class="st3" d="M40.5,31.5l-2.8-1.6c-0.5-0.3-1.1-0.1-1.4,0.4c-0.3,0.5-0.1,1.1,0.4,1.4l2.8,1.6
					c0.5,0.3,1.1,0.1,1.4-0.4C41.2,32.4,41,31.8,40.5,31.5z"/>
				<path id="Path_886_1_" class="st3" d="M42.4,26.4l-3.1-0.8c-0.5-0.1-1.1,0.2-1.2,0.7c-0.1,0.5,0.2,1.1,0.7,1.2l0,0l3.1,0.8
					c0.5,0.1,1.1-0.2,1.2-0.7C43.2,27,42.9,26.5,42.4,26.4z"/>
				<path id="Path_887_1_" class="st3" d="M42.8,20.9h-3.2c-0.6,0-1,0.4-1,1c0,0.6,0.4,1,1,1h3.2c0.6,0,1-0.4,1-1
					C43.8,21.4,43.4,20.9,42.8,20.9L42.8,20.9z"/>
				<path id="Path_888_1_" class="st3" d="M30.2,7.5c0.5,0.3,1.1,0.1,1.4-0.4c0,0,0,0,0,0l1.6-2.8c0.3-0.5,0.1-1.1-0.4-1.4
					c-0.5-0.3-1.1-0.1-1.4,0.4l-1.6,2.8C29.6,6.6,29.8,7.2,30.2,7.5C30.2,7.5,30.2,7.5,30.2,7.5z"/>
				<path id="Path_889_1_" class="st3" d="M26.2,5.8c0.5,0.1,1.1-0.2,1.2-0.7c0,0,0,0,0,0L28.3,2c0.1-0.5-0.2-1.1-0.7-1.2
					c-0.5-0.1-1.1,0.2-1.2,0.7l-0.8,3.1C25.4,5.1,25.7,5.7,26.2,5.8C26.2,5.8,26.2,5.8,26.2,5.8z"/>
			</g>
			<g id="Group_6147_1_" transform="translate(141.995 133.754)">
				<path id="Path_890_1_" class="st3" d="M18.1,7.6c-2.1,0-3.8-1.7-3.8-3.8S16,0,18.1,0s3.8,1.7,3.8,3.8l0,0
					C21.8,5.9,20.2,7.6,18.1,7.6z M18.1,2c-1,0-1.8,0.8-1.8,1.8s0.8,1.8,1.8,1.8s1.8-0.8,1.8-1.8v0C19.8,2.8,19,2,18.1,2L18.1,2z"/>
				<path id="Path_891_1_" class="st3" d="M21.1,43.4H15c-0.5,0-1-0.4-1-0.9l-1.3-16.4H11c-0.6,0-1-0.4-1-1V13.5
					c0-1.9,1.6-3.5,3.5-3.5h9c1.9,0,3.5,1.6,3.5,3.5V25c0,0.6-0.4,1-1,1h-1.6l-1.3,16.4C22.1,43,21.7,43.4,21.1,43.4z M15.9,41.4
					h4.3L21.6,25c0-0.5,0.5-0.9,1-0.9h1.5V13.5c0-0.8-0.7-1.5-1.5-1.5h-9c-0.8,0-1.5,0.7-1.5,1.5V24h1.5c0.5,0,1,0.4,1,0.9
					L15.9,41.4z"/>
				<path id="Path_892_1_" class="st3" d="M7.5,7.6c-2.1,0-3.8-1.7-3.8-3.8S5.4,0,7.5,0s3.8,1.7,3.8,3.8l0,0
					C11.3,5.9,9.6,7.6,7.5,7.6z M7.5,2c-1,0-1.8,0.8-1.8,1.8s0.8,1.8,1.8,1.8s1.8-0.8,1.8-1.8v0C9.3,2.8,8.5,2,7.5,2L7.5,2z"/>
				<path id="Path_893_1_" class="st3" d="M10.1,43.4H4.9c-0.5,0-1-0.4-1-0.9L2.6,26.1H1c-0.6,0-1-0.4-1-1V13.5
					C0,11.6,1.6,10,3.5,10H7c0.6,0,1,0.4,1,1c0,0.6-0.4,1-1,1H3.5C2.7,12,2,12.7,2,13.5V24h1.5c0.5,0,1,0.4,1,0.9l1.3,16.4h4.3
					c0.6,0,1,0.4,1,1C11.1,42.9,10.7,43.4,10.1,43.4L10.1,43.4z"/>
				<path id="Path_894_1_" class="st3" d="M28.6,7.6c-2.1,0-3.8-1.7-3.8-3.8S26.5,0,28.6,0s3.8,1.7,3.8,3.8l0,0
					C32.4,5.9,30.7,7.6,28.6,7.6z M28.6,2c-1,0-1.8,0.8-1.8,1.8s0.8,1.8,1.8,1.8s1.8-0.8,1.8-1.8v0C30.4,2.8,29.6,2,28.6,2L28.6,2z"
					/>
				<path id="Path_895_1_" class="st3" d="M31.2,43.4H26c-0.6,0-1-0.4-1-1c0-0.6,0.4-1,1-1h4.3L31.6,25c0-0.5,0.5-0.9,1-0.9h1.5
					V13.5c0-0.8-0.7-1.5-1.5-1.5h-3.5c-0.6,0-1-0.4-1-1c0-0.6,0.4-1,1-1h3.5c1.9,0,3.5,1.6,3.5,3.5V25c0,0.6-0.4,1-1,1h-1.6
					l-1.3,16.4C32.1,43,31.7,43.4,31.2,43.4z"/>
			</g>
			<g id="Group_6148_1_" transform="translate(302.801 132.669)">
				<path id="Path_896_1_" class="st3" d="M3.7,32.2c-0.6,0-1-0.4-1-1c0-0.1,0-0.2,0-0.3l3-11.7H0c-0.6,0-1-0.4-1-1
					c0-0.2,0.1-0.4,0.2-0.6L10.8,0.4c0.3-0.5,0.9-0.6,1.4-0.3c0.4,0.2,0.5,0.7,0.4,1.1l-3,11.7h5.8c0.6,0,1,0.4,1,1
					c0,0.2-0.1,0.4-0.2,0.6L4.6,31.8C4.4,32.1,4.1,32.2,3.7,32.2z M1.9,17.3h5.2c0.6,0,1,0.4,1,1c0,0.1,0,0.2,0,0.3l-1.9,7.2
					l7.2-10.8H8.2c-0.6,0-1-0.4-1-1c0-0.1,0-0.2,0-0.3l1.9-7.2L1.9,17.3z"/>
			</g>
			<path id="Path_897_1_" class="st3" d="M215.9,235.9c4.1-4.1,4.1-10.8,0-14.9c0,0,0,0-0.1-0.1s0,0-0.1-0.1
				c-4.2-4.1-10.9-4.1-15,0.1c-2,2-3.1,4.7-3.1,7.5l0,0c0,5.9,4.7,10.6,10.6,10.6c2.8,0,5.5-1.1,7.5-3.1
				C215.8,236,215.8,236,215.9,235.9C215.8,236,215.8,235.9,215.9,235.9z M215,233.8l-5.3-5.3l5.3-5.3
				C217.5,226.3,217.5,230.7,215,233.8L215,233.8z M209.3,219.9c1.6,0.2,3.1,0.8,4.3,1.8l-4.3,4.3V219.9z M207.3,219.9v7.5h-7.5
				C200.2,223.5,203.3,220.4,207.3,219.9L207.3,219.9z M199.7,229.5h8.1l5.7,5.7c-3.7,3-9.1,2.3-12.1-1.4
				C200.6,232.6,199.9,231.1,199.7,229.5z"/>
			<g id="Group_6149_1_" transform="translate(85.932 220.809)">
				<path id="Path_898_1_" class="st3" d="M31.6,8c0,0,0-0.1,0-0.1c0,0,0,0,0-0.1c0,0,0-0.1-0.1-0.1c0,0,0,0,0,0
					c0-0.1-0.1-0.1-0.1-0.2L24,0.3c0,0-0.1-0.1-0.2-0.1c0,0,0,0,0,0c0,0-0.1,0-0.1-0.1c0,0,0,0-0.1,0c0,0-0.1,0-0.1,0
					c-0.1,0-0.1,0-0.2,0h-18c-0.6,0-1,0.4-1,1v3.3H1c-0.6,0-1,0.4-1,1V38c0,0.6,0.4,1,1,1h25.3c0.6,0,1-0.4,1-1v-3.3h3.3
					c0.6,0,1-0.4,1-1V8.2C31.6,8.2,31.6,8.1,31.6,8z M24.3,3.4l3.8,3.8h-3.8V3.4z M25.3,37H2V6.3h2.3v27.4c0,0.6,0.4,1,1,1h19.9
					L25.3,37z M6.3,32.7V2h16v6.2c0,0.6,0.4,1,1,1h6.2v23.4L6.3,32.7z"/>
				<path id="Path_899_1_" class="st3" d="M9.6,9.2h8.3c0.6,0,1-0.4,1-1c0-0.6-0.4-1-1-1H9.6c-0.6,0-1,0.4-1,1
					C8.6,8.8,9,9.2,9.6,9.2z"/>
				<path id="Path_900_1_" class="st3" d="M26.3,11.8H9.6c-0.6,0-1,0.4-1,1c0,0.6,0.4,1,1,1h16.7c0.6,0,1-0.4,1-1
					C27.3,12.2,26.8,11.8,26.3,11.8z"/>
				<path id="Path_901_1_" class="st3" d="M26.3,16.3H9.6c-0.6,0-1,0.4-1,1c0,0.6,0.4,1,1,1h16.7c0.6,0,1-0.4,1-1
					C27.3,16.8,26.8,16.3,26.3,16.3z"/>
				<path id="Path_902_1_" class="st3" d="M26.3,20.9H9.6c-0.6,0-1,0.4-1,1c0,0.6,0.4,1,1,1h16.7c0.6,0,1-0.4,1-1
					C27.3,21.3,26.8,20.9,26.3,20.9z"/>
				<path id="Path_903_1_" class="st3" d="M26.3,25.4H9.6c-0.6,0-1,0.4-1,1s0.4,1,1,1h16.7c0.6,0,1-0.4,1-1S26.8,25.4,26.3,25.4z"/>
			</g>
			<g id="Group_6150_1_" transform="translate(165.446 242.401)">
				<path id="Path_904_1_" class="st3" d="M43.1,28.7c-0.5-0.2-1.1,0-1.3,0.5c0,0,0,0,0,0c-0.1,0.3-0.3,0.5-0.4,0.8
					c-0.3,0.5-0.1,1.1,0.4,1.4c0.5,0.3,1.1,0.1,1.4-0.4c0.2-0.3,0.3-0.6,0.5-0.9C43.8,29.5,43.6,28.9,43.1,28.7
					C43.1,28.7,43.1,28.7,43.1,28.7z"/>
				<path id="Path_905_1_" class="st3" d="M44.2,24.5c-0.5-0.1-1.1,0.2-1.2,0.8c0,0,0,0,0,0c-0.1,0.3-0.1,0.6-0.2,0.9
					c-0.1,0.5,0.2,1.1,0.7,1.2s1.1-0.2,1.2-0.7c0.1-0.3,0.2-0.7,0.2-1C45.1,25.1,44.8,24.6,44.2,24.5C44.2,24.5,44.2,24.5,44.2,24.5
					z"/>
				<path id="Path_906_1_" class="st3" d="M36.5,35.3c-0.2,0.2-0.5,0.3-0.8,0.5c-0.5,0.3-0.6,0.9-0.3,1.4c0.2,0.3,0.5,0.5,0.9,0.5
					c0.2,0,0.4-0.1,0.5-0.1c0.3-0.2,0.6-0.4,0.9-0.6c0.5-0.3,0.6-0.9,0.3-1.4C37.5,35.1,36.9,35,36.5,35.3L36.5,35.3z"/>
				<path id="Path_907_1_" class="st3" d="M39.5,32.6c-0.2,0.2-0.4,0.5-0.6,0.7c-0.4,0.4-0.4,1,0,1.4c0.4,0.4,1,0.4,1.4,0
					c0.2-0.2,0.5-0.5,0.7-0.8c0.4-0.4,0.3-1.1-0.1-1.4C40.5,32.1,39.9,32.2,39.5,32.6L39.5,32.6z"/>
				<path id="Path_908_1_" class="st3" d="M32.8,37.2c-0.3,0.1-0.6,0.2-0.9,0.3c-0.5,0.1-0.8,0.7-0.7,1.2c0.1,0.4,0.5,0.7,1,0.7
					c0.1,0,0.2,0,0.3,0c0.3-0.1,0.7-0.2,1-0.3c0.5-0.2,0.8-0.8,0.6-1.3C33.9,37.3,33.3,37,32.8,37.2L32.8,37.2z"/>
				<path id="Path_909_1_" class="st3" d="M44.3,20.1c-0.6,0-1,0.5-0.9,1.1c0,0,0,0,0,0c0,0.3,0,0.6,0,0.9c0,0.6,0.4,1,1,1l0,0
					c0.6,0,1-0.4,1-1c0,0,0,0,0,0c0-0.3,0-0.7,0-1C45.3,20.5,44.8,20.1,44.3,20.1z"/>
				<path id="Path_910_1_" class="st3" d="M28.8,38.1c-0.2,0-0.3,0-0.5,0c0,0,0,0,0,0V27.3c0-0.6-0.4-1-1-1H11.8
					c-0.2-0.5-0.7-0.8-1.2-0.7c-0.3,0.1-0.6,0.4-0.7,0.7H1c-0.6,0-1,0.4-1,1v16c0,0.6,0.4,1,1,1h26.3c0.6,0,1-0.4,1-1v-3.1
					c0,0,0.1,0,0.1,0h0.1c0.2,0,0.4,0,0.5,0c0.6-0.1,1-0.5,0.9-1.1S29.3,38.1,28.8,38.1L28.8,38.1z M26.3,42.3H2v-14h24.3L26.3,42.3
					z"/>
				<path id="Path_911_1_" class="st3" d="M10.3,24.2C10.3,24.2,10.3,24.2,10.3,24.2c0.6,0,1-0.5,1-1.1c0,0,0,0,0,0
					c0-0.3,0-0.6,0-0.9c0-0.6-0.4-1-1-1l0,0c-0.6,0-1,0.4-1,1c0,0,0,0,0,0c0,0.3,0,0.7,0,1C9.3,23.8,9.7,24.2,10.3,24.2z"/>
				<path id="Path_912_1_" class="st3" d="M11.5,15.6c0.5,0.2,1.1,0,1.3-0.5c0,0,0,0,0,0c0.1-0.3,0.3-0.5,0.4-0.8
					c0.3-0.5,0.1-1.1-0.4-1.4c-0.5-0.3-1.1-0.1-1.4,0.4c-0.2,0.3-0.3,0.6-0.5,0.9C10.8,14.8,11,15.4,11.5,15.6
					C11.5,15.6,11.5,15.6,11.5,15.6z"/>
				<path id="Path_913_1_" class="st3" d="M17.5,9.2c0.2,0,0.4-0.1,0.6-0.2c0.2-0.2,0.5-0.3,0.8-0.5c0.5-0.3,0.6-0.9,0.3-1.4
					c-0.3-0.5-0.9-0.6-1.4-0.3l0,0c-0.3,0.2-0.6,0.4-0.9,0.6c-0.5,0.3-0.6,0.9-0.3,1.4C16.8,9,17.2,9.2,17.5,9.2L17.5,9.2z"/>
				<path id="Path_914_1_" class="st3" d="M21.3,7.2c0.1,0,0.2,0,0.4-0.1C22,7,22.2,6.9,22.5,6.8c0.5-0.2,0.8-0.7,0.7-1.3
					C23,5,22.5,4.7,21.9,4.9c-0.3,0.1-0.7,0.2-1,0.3c-0.5,0.2-0.8,0.8-0.6,1.3C20.5,6.9,20.9,7.2,21.3,7.2L21.3,7.2z"/>
				<path id="Path_915_1_" class="st3" d="M10.3,19.8c0.1,0,0.1,0,0.2,0c0.5,0,0.9-0.3,1-0.8c0.1-0.3,0.1-0.6,0.2-0.9
					c0.1-0.5-0.2-1.1-0.7-1.2c-0.5-0.1-1.1,0.2-1.2,0.7c-0.1,0.3-0.2,0.7-0.2,1C9.4,19.2,9.8,19.7,10.3,19.8
					C10.3,19.8,10.3,19.8,10.3,19.8z"/>
				<path id="Path_916_1_" class="st3" d="M14.3,12.1c0.3,0,0.6-0.1,0.8-0.4c0.2-0.2,0.4-0.5,0.6-0.7c0.4-0.4,0.4-1,0-1.4
					c-0.4-0.4-1-0.4-1.4,0l0,0c-0.2,0.2-0.5,0.5-0.7,0.8c-0.4,0.4-0.3,1,0.1,1.4C13.8,12,14,12.1,14.3,12.1L14.3,12.1z"/>
				<path id="Path_917_1_" class="st3" d="M53.5,0H27.3c-0.6,0-1,0.4-1,1v3.1c-0.1,0-0.2,0-0.3,0c-0.2,0-0.4,0-0.5,0
					c-0.6,0-1,0.5-1,1.1c0,0.6,0.5,1,1.1,0.9c0,0,0.1,0,0.1,0c0.2,0,0.3,0,0.5,0c0,0,0.1,0,0.1,0V17c0,0.6,0.4,1,1,1h15.5
					c0.2,0.5,0.7,0.8,1.3,0.7c0.3-0.1,0.6-0.3,0.7-0.7h8.8c0.6,0,1-0.4,1-1V1C54.5,0.5,54.1,0,53.5,0C53.5,0,53.5,0,53.5,0z
					 M52.5,16H28.3V2h24.3L52.5,16z"/>
				<path id="Path_918_1_" class="st3" d="M34.1,13.1c0.4,0.4,1,0.3,1.4-0.1c0.4-0.4,0.3-1-0.1-1.4L32.5,9l2.9-2.6
					c0.4-0.4,0.4-1,0.1-1.4c-0.4-0.4-1-0.4-1.4-0.1l-3.7,3.4c-0.4,0.4-0.4,1-0.1,1.4c0,0,0.1,0.1,0.1,0.1L34.1,13.1z"/>
				<path id="Path_919_1_" class="st3" d="M38.1,13.3c0.5,0.3,1.1,0.1,1.4-0.4c0,0,0,0,0,0l3.7-6.7c0.3-0.5,0.1-1.1-0.4-1.4
					c-0.5-0.3-1.1-0.1-1.4,0.4l0,0l-3.7,6.7C37.4,12.4,37.6,13,38.1,13.3C38.1,13.3,38.1,13.3,38.1,13.3z"/>
				<path id="Path_920_1_" class="st3" d="M45.3,13.1c0.4,0.4,1,0.4,1.4,0.1c0,0,0,0,0,0l3.7-3.4c0.4-0.4,0.4-1,0.1-1.4
					c0,0-0.1-0.1-0.1-0.1l-3.7-3.4c-0.4-0.4-1-0.3-1.4,0.1c-0.4,0.4-0.3,1,0.1,1.4L48.3,9l-2.9,2.6C45,12,44.9,12.6,45.3,13.1
					C45.3,13.1,45.3,13.1,45.3,13.1z"/>
				<path id="Path_921_1_" class="st3" d="M7.8,39.4c0.4,0.4,1,0.3,1.4-0.1c0.4-0.4,0.3-1-0.1-1.4l-2.9-2.6l2.9-2.6
					c0.4-0.4,0.4-1,0.1-1.4c-0.4-0.4-1-0.4-1.4-0.1l0,0l-3.8,3.4c-0.4,0.4-0.4,1-0.1,1.4C4,36,4.1,36,4.1,36L7.8,39.4z"/>
				<path id="Path_922_1_" class="st3" d="M11.8,39.5c0.5,0.3,1.1,0.1,1.4-0.4c0,0,0,0,0,0l3.7-6.7c0.3-0.5,0.1-1.1-0.4-1.4
					c-0.5-0.3-1.1-0.1-1.4,0.4l-3.7,6.7C11.1,38.6,11.3,39.2,11.8,39.5C11.8,39.5,11.8,39.5,11.8,39.5z"/>
				<path id="Path_923_1_" class="st3" d="M19,39.3c0.4,0.4,1,0.4,1.4,0.1c0,0,0,0,0,0l3.8-3.4c0.4-0.4,0.4-1,0.1-1.4
					c0,0-0.1-0.1-0.1-0.1l-3.8-3.4c-0.4-0.4-1-0.3-1.4,0.1c-0.4,0.4-0.3,1,0.1,1.4l0,0l2.9,2.6l-2.9,2.6
					C18.7,38.3,18.7,38.9,19,39.3C19,39.3,19,39.3,19,39.3z"/>
			</g>
			<g id="Group_6151_1_" transform="translate(180.337 77.324)">
				<path id="Path_924_1_" class="st3" d="M14.7,18.7c0.1,0.1,0.3,0.2,0.4,0.2c0.2,0.1,9.9,4.9,10,4.9c0.5,0.2,1.1,0,1.3-0.4
					c0.2-0.4,0.1-0.8-0.2-1.2c-0.1-0.1-7.7-7.7-7.8-7.9c-0.1-0.1-0.2-0.2-0.3-0.3c-1.3-0.9-3-0.6-4,0.6c0,0,0,0,0,0
					C13.1,16,13.4,17.7,14.7,18.7z M15.6,15.9L15.6,15.9c0.3-0.4,0.8-0.5,1.2-0.2c0,0,0.1,0.1,0.1,0.1l3.6,3.6
					c-2.3-1.1-4.4-2.2-4.5-2.2l0,0c0,0-0.1,0-0.1-0.1C15.5,16.8,15.4,16.2,15.6,15.9L15.6,15.9z"/>
				<path id="Path_925_1_" class="st3" d="M31.9,21.3c1-3.2,1-6.7,0-10c0,0,0,0,0,0s0,0,0,0C30.8,8,28.8,5.2,26,3.2c0,0,0,0-0.1-0.1
					s-0.1,0-0.1-0.1C20.2-1,12.5-1,6.8,3.1c0,0-0.1,0-0.1,0.1c0,0,0,0-0.1,0.1c-2.7,2-4.8,4.9-5.9,8.1c0,0,0,0,0,0s0,0,0,0
					c-1.1,3.2-1.1,6.7,0,10c0,0,0,0.1,0,0.1c0,0,0,0,0,0.1c1.1,3.2,3.1,6.1,5.9,8.1c0.4,0.3,1.1,0.2,1.4-0.2c0,0,0,0,0,0l1.5-2
					c0.3-0.4,0.2-1.1-0.2-1.4C9,25.6,8.3,25.7,8,26.1l0,0l-0.9,1.2c-1.8-1.5-3.2-3.4-4.1-5.6l1.4-0.5C5,21.1,5.3,20.5,5.1,20
					c-0.2-0.5-0.7-0.8-1.3-0.6l0,0l-1.4,0.5c-0.6-2.3-0.6-4.7,0-6.9l1.4,0.5c0.5,0.2,1.1-0.1,1.3-0.6c0.2-0.5-0.1-1.1-0.6-1.3
					L3.1,11c0.9-2.2,2.3-4.1,4.1-5.6L8,6.6C8.3,7,9,7.1,9.4,6.8c0.4-0.3,0.5-1,0.2-1.4l0,0L8.8,4.2c2-1.2,4.3-2,6.6-2.1v1.5
					c0,0.6,0.4,1,1,1c0.6,0,1-0.4,1-1V2c2.3,0.2,4.6,0.9,6.6,2.1l-0.9,1.2c-0.3,0.4-0.2,1.1,0.2,1.4c0.4,0.3,1.1,0.2,1.4-0.2
					l0.9-1.2c1.8,1.5,3.2,3.4,4.1,5.6l-1.4,0.5c-0.5,0.2-0.8,0.7-0.6,1.3c0.2,0.5,0.7,0.8,1.3,0.6l1.4-0.5c0.6,2.3,0.6,4.7,0,6.9
					l-1.4-0.5c-0.5-0.2-1.1,0.1-1.3,0.6c-0.2,0.5,0.1,1.1,0.6,1.3l1.4,0.5c-0.9,2.2-2.3,4.1-4.1,5.6l-0.9-1.2
					c-0.3-0.4-1-0.5-1.4-0.2c-0.4,0.3-0.5,1-0.2,1.4l1.5,2c0.2,0.2,0.4,0.4,0.7,0.4c0.1,0,0.1,0,0.2,0c0.2,0,0.4-0.1,0.6-0.2
					c2.8-2,4.8-4.9,5.9-8.1c0,0,0,0,0-0.1C31.9,21.4,31.9,21.3,31.9,21.3z"/>
				<path id="Path_926_1_" class="st3" d="M19.1,27.3h-5.6c-0.6,0-1,0.4-1,1c0,0.6,0.4,1,1,1h5.6c0.6,0,1-0.4,1-1
					C20.1,27.7,19.7,27.3,19.1,27.3z"/>
			</g>
			<path id="Path_927_1_" class="st3" d="M22.4,191.1H22v-4.8c-0.1-4.8-4.1-8.6-8.9-8.5c-4.6,0.1-8.3,3.8-8.5,8.5v4.8H4.2
				c-1.6,0-2.8,1.3-2.8,2.8v10.6c0,1.6,1.3,2.8,2.8,2.8h18.2c1.6,0,2.8-1.3,2.8-2.8v-10.6C25.2,192.4,24,191.1,22.4,191.1z
				 M6.6,186.4c0-3.7,3-6.7,6.7-6.7c3.7,0,6.7,3,6.7,6.7l0,0v4.8h-2.2v-4.8c0-2.5-2-4.5-4.5-4.5s-4.5,2-4.5,4.5v4.8H6.6L6.6,186.4z
				 M15.8,191.1h-5v-4.8c0.1-1.4,1.3-2.4,2.6-2.4c1.3,0.1,2.3,1.1,2.4,2.4L15.8,191.1z M23.2,204.6c0,0.4-0.4,0.8-0.8,0.8H4.2
				c-0.4,0-0.8-0.4-0.8-0.8v-10.6c0-0.4,0.4-0.8,0.8-0.8h18.2c0.4,0,0.8,0.4,0.8,0.8L23.2,204.6z"/>
			<g id="Group_6152_1_" transform="translate(93.932 168.415)">
				<path id="Path_928_1_" class="st3" d="M32.5,32.8c-4.1,0-8.1-1.5-11.1-4.3c-0.4-0.4-0.4-1-0.1-1.4s1-0.4,1.4-0.1
					c0.6,0.5,1.2,1,1.9,1.5c6.6,4.4,15.6,2.5,19.9-4.1S47,8.7,40.4,4.4C33.8,0,24.8,1.9,20.5,8.5c-0.8,1.3-1.5,2.6-1.8,4.1
					c-0.1,0.5-0.7,0.8-1.2,0.7c-0.5-0.1-0.8-0.7-0.7-1.2l0,0C19.1,3.3,28.1-1.8,36.8,0.6C45.6,3,50.7,12,48.3,20.7
					C46.4,27.8,39.9,32.8,32.5,32.8L32.5,32.8z"/>
				<path id="Path_929_1_" class="st3" d="M32.5,28.4c-3.8,0-7.3-1.8-9.6-4.8c-0.3-0.4-0.2-1.1,0.2-1.4c0.4-0.3,1.1-0.2,1.4,0.2l0,0
					c0.5,0.7,1.1,1.2,1.7,1.8c1.8,1.5,4,2.2,6.3,2.2c5.5,0,10-4.5,10-10s-4.5-10-10-10c-4.1,0-7.8,2.5-9.3,6.3
					c-0.2,0.5-0.8,0.8-1.3,0.6c-0.5-0.2-0.8-0.8-0.6-1.3c2.5-6.2,9.5-9.2,15.6-6.8c6.2,2.5,9.2,9.5,6.8,15.6
					C41.9,25.4,37.4,28.4,32.5,28.4L32.5,28.4z"/>
				<path id="Path_930_1_" class="st3" d="M32.5,24.1c-2.4,0-4.7-1.1-6.1-3c-0.3-0.4-0.3-1.1,0.2-1.4c0.4-0.3,1.1-0.3,1.4,0.2
					c1.9,2.5,5.5,3,8,1.1c2.5-1.9,3-5.5,1.1-8c-1.9-2.5-5.5-3-8-1.1c-0.4,0.3-0.8,0.7-1.1,1.1c-0.3,0.4-1,0.5-1.4,0.2
					c-0.4-0.3-0.5-1-0.2-1.4c2.6-3.4,7.4-4,10.8-1.5c3.4,2.6,4,7.4,1.5,10.8C37.2,23,34.9,24.1,32.5,24.1L32.5,24.1z"/>
				<path id="Path_931_1_" class="st3" d="M32.5,13c-1.5,0-2.8,1-3.2,2.4h-7.5c-0.4,0-0.8,0.3-0.9,0.7l-2.7,7.7l-6.4-18
					c-0.2-0.5-0.8-0.8-1.3-0.6c-0.3,0.1-0.5,0.3-0.6,0.6l-3.4,9.7H1c-0.6,0-1,0.4-1,1c0,0.6,0.4,1,1,1h6.1c0.4,0,0.8-0.3,0.9-0.7
					l2.7-7.7l6.4,18c0.2,0.5,0.8,0.8,1.3,0.6c0.3-0.1,0.5-0.3,0.6-0.6l3.4-9.7h6.8c0.6,1.8,2.5,2.8,4.2,2.2c1.8-0.6,2.8-2.5,2.2-4.2
					C35.3,14,34,13,32.5,13L32.5,13z M32.5,17.8c-0.8,0-1.4-0.6-1.4-1.4c0-0.8,0.6-1.4,1.4-1.4c0.8,0,1.4,0.6,1.4,1.4
					C33.9,17.2,33.3,17.8,32.5,17.8L32.5,17.8z"/>
			</g>
			<path id="Path_932_1_" class="st3" d="M241.6,151.7c0-0.1,0-0.2,0-0.4c0-5.5-4.5-10-10-10c-3.9,0-7.5,2.3-9.1,5.9
				c-3.1-1.4-6.8-0.3-8.6,2.6l-1.3-0.6l0,0l-13.1-5.6c-0.3-0.1-0.6-0.1-0.8,0l-13,6.6c-0.3,0.2-0.6,0.5-0.6,0.9v39.2
				c0,0.4,0.3,0.8,0.7,1l13,3.8c0,0,0,0,0.1,0c0.1,0,0.1,0,0.2,0c0,0,0,0,0.1,0s0,0,0.1,0c0.1,0,0.1,0,0.2,0h0l13-3.2
				c0,0,0.1,0,0.1,0l21.5-5.3c0.4-0.1,0.8-0.5,0.8-1v-19.5h5.4c4,0,7.3-3.3,7.3-7.3C247.4,155.4,245,152.4,241.6,151.7L241.6,151.7z
				 M232.7,160v1.5l-7.5-2.5v-2.2L232.7,160z M232.7,171.8l-7.5-0.6v-1.9l7.5,1.2V171.8z M223.2,171l-10-0.8v-2.8l10,1.6V171z
				 M211.2,170l-11.1-0.9v-3.9l11.1,1.8V170z M211.2,172v3h-11.1v-3.9L211.2,172z M213.2,172.2l10,0.8v2h-10V172.2z M225.2,173.2
				l7.5,0.6v1.2h-7.5V173.2z M232.7,168.5l-7.5-1.2v-1.9l7.5,1.8V168.5z M223.2,166.9l-10-1.6v-2.9l10,2.5V166.9z M211.2,165
				l-11.1-1.8v-4l11.1,2.7V165z M200.1,182.9l11.1-0.9v3l-11.1,1.8V182.9z M200.1,180.9V177h11.1v3L200.1,180.9z M213.2,177h10v2
				l-10,0.8V177z M225.2,177h7.5v1.2l-7.5,0.6V177z M232.7,165.1l-7.5-1.8v-2.1l7.5,2.5V165.1z M223.2,162.7l-10-2.5v-3.1l10,3.3
				V162.7z M211.2,159.8l-11.1-2.7v-4.3l11.1,3.7L211.2,159.8z M200.1,150.7v-4.5l11.1,4.7v3.5L200.1,150.7z M200.1,188.8l11.1-1.8
				v3.2l-11.1,2.7V188.8z M213.2,186.7l10-1.6v2.2l-10,2.5V186.7z M213.2,184.7v-2.8l10-0.8v2L213.2,184.7z M225.2,180.8l7.5-0.6
				v1.3l-7.5,1.2V180.8z M223.2,158.4l-10-3.3v-3.3l10,4.2V158.4z M187.1,151.8l11-5.5v11.5c0,0,0,0,0,0V176c0,0,0,0,0,0s0,0,0,0
				v11.9c0,0,0,0,0,0.1v5l-11-3.2V151.8z M225.2,186.8v-2l7.5-1.2v1.4L225.2,186.8z M240.1,164.2h-5.4v-4.8c0-0.4-0.2-0.8-0.6-0.9
				l-9.5-4l0,0l-8.7-3.7c1.5-2.1,4.5-2.7,6.6-1.1c0,0,0,0,0,0c0.4,0.3,1.1,0.2,1.4-0.2c0.1-0.1,0.1-0.2,0.1-0.3
				c1.3-4.2,5.7-6.6,9.9-5.3c3.3,1,5.6,4.1,5.6,7.6c0,0.4,0,0.7-0.1,1.1c-0.1,0.5,0.3,1.1,0.9,1.1c0,0,0.1,0,0.1,0
				c2.9,0.1,5.2,2.6,5,5.6C245.3,162,243,164.2,240.1,164.2L240.1,164.2z"/>
			<path id="Path_933_1_" class="st3" d="M243.6,80.4l-6.8-8.2c4.1-5.6,2.9-13.5-2.7-17.6c-5.6-4.1-13.5-2.9-17.6,2.7
				c-4.1,5.6-2.9,13.5,2.7,17.6c3.8,2.7,8.7,3.2,12.9,1.2l6.8,8.2c0.5,0.6,1.3,1,2.1,1.1c0.1,0,0.2,0,0.3,0c1.7,0,3.1-1.4,3.1-3.1
				C244.3,81.6,244,80.9,243.6,80.4L243.6,80.4z M215.9,64.7c0-5.9,4.8-10.6,10.6-10.6s10.6,4.8,10.6,10.6s-4.8,10.6-10.6,10.6
				C220.7,75.3,215.9,70.5,215.9,64.7L215.9,64.7z M241.9,83.2c-0.5,0.4-1.1,0.3-1.5-0.1c0,0,0,0,0,0l-6.6-8
				c0.6-0.4,1.1-0.9,1.6-1.4l6.6,8C242.4,82.1,242.3,82.8,241.9,83.2C241.9,83.2,241.9,83.2,241.9,83.2L241.9,83.2z"/>
			<path id="Path_934_1_" class="st3" d="M75.9,314.2c-0.5,0-0.9-0.4-0.9-0.9c0,0,0,0,0,0c0.1-2.4-1.8-4.4-4.2-4.5
				c-0.1,0-0.2,0-0.3,0c-0.5,0-0.9-0.4-0.9-0.9s0.4-0.9,0.9-0.9c2.4,0.1,4.4-1.8,4.5-4.2c0-0.1,0-0.2,0-0.3c0-0.5,0.4-0.9,1-0.9
				c0.5,0,0.9,0.4,0.9,0.9c-0.1,2.4,1.8,4.4,4.2,4.5c0.1,0,0.2,0,0.3,0c0.5,0,0.9,0.4,0.9,0.9s-0.4,0.9-0.9,0.9
				c-2.4-0.1-4.4,1.8-4.5,4.2c0,0.1,0,0.2,0,0.3C76.8,313.8,76.4,314.2,75.9,314.2z M73.9,307.9c0.8,0.5,1.5,1.2,2,2
				c0.5-0.8,1.2-1.5,2-2c-0.8-0.5-1.5-1.2-2-2C75.4,306.7,74.7,307.4,73.9,307.9z"/>
			<path id="Path_935_1_" class="st3" d="M265.2,314.2c-0.5,0-0.9-0.4-0.9-0.9l0,0c0.1-2.4-1.8-4.4-4.2-4.5c-0.1,0-0.2,0-0.3,0
				c-0.5,0-0.9-0.4-0.9-0.9s0.4-0.9,0.9-0.9c2.4,0.1,4.4-1.8,4.5-4.2c0-0.1,0-0.2,0-0.3c0-0.5,0.4-0.9,0.9-0.9s0.9,0.4,0.9,0.9
				c-0.1,2.4,1.8,4.4,4.2,4.5c0.1,0,0.2,0,0.3,0c0.5,0,0.9,0.4,0.9,0.9s-0.4,0.9-0.9,0.9c-2.4-0.1-4.4,1.8-4.5,4.2
				c0,0.1,0,0.2,0,0.3C266.1,313.8,265.7,314.2,265.2,314.2C265.2,314.2,265.2,314.2,265.2,314.2z M263.2,307.9c0.8,0.5,1.5,1.2,2,2
				c0.5-0.8,1.2-1.5,2-2c-0.8-0.5-1.5-1.2-2-2C264.7,306.7,264,307.4,263.2,307.9z"/>
			<path id="Path_936_1_" class="st3" d="M158.9,297c-0.5,0-0.9-0.4-0.9-0.9c0,0,0,0,0,0c0.1-2.4-1.8-4.4-4.2-4.5
				c-0.1,0-0.2,0-0.3,0c-0.5,0-0.9-0.4-0.9-0.9s0.4-0.9,0.9-0.9c2.4,0.1,4.4-1.8,4.5-4.2c0-0.1,0-0.2,0-0.3c0-0.5,0.4-0.9,1-0.9
				c0.5,0,0.9,0.4,0.9,0.9c-0.1,2.4,1.8,4.4,4.2,4.5c0.1,0,0.2,0,0.3,0c0.5,0,0.9,0.4,0.9,0.9s-0.4,0.9-0.9,0.9
				c-2.4-0.1-4.4,1.8-4.5,4.2c0,0.1,0,0.2,0,0.3C159.8,296.5,159.4,297,158.9,297C158.9,297,158.9,297,158.9,297z M156.9,290.6
				c0.8,0.5,1.5,1.2,2,2c0.5-0.8,1.2-1.5,2-2c-0.8-0.5-1.5-1.2-2-2C158.4,289.4,157.7,290.1,156.9,290.6L156.9,290.6z"/>
			<path id="Path_937_1_" class="st3" d="M308.7,288.5c-0.5,0-0.9-0.4-0.9-0.9l0,0c0.1-2.4-1.8-4.4-4.2-4.5c-0.1,0-0.2,0-0.3,0
				c-0.5,0-0.9-0.4-0.9-0.9s0.4-0.9,0.9-0.9c2.4,0.1,4.4-1.8,4.5-4.2c0-0.1,0-0.2,0-0.3c0-0.5,0.4-0.9,0.9-0.9s0.9,0.4,0.9,0.9
				c-0.1,2.4,1.8,4.4,4.2,4.5c0.1,0,0.2,0,0.3,0c0.5,0,0.9,0.4,0.9,0.9s-0.4,0.9-0.9,0.9c-2.4-0.1-4.4,1.8-4.5,4.2
				c0,0.1,0,0.2,0,0.3C309.6,288.1,309.2,288.5,308.7,288.5C308.7,288.5,308.7,288.5,308.7,288.5z M306.6,282.2c0.8,0.5,1.5,1.2,2,2
				c0.5-0.8,1.2-1.5,2-2c-0.8-0.5-1.5-1.2-2-2C308.2,281,307.5,281.7,306.6,282.2L306.6,282.2z"/>
			<path id="Path_938_1_" class="st3" d="M126.8,217.7c-0.5,0-0.9-0.4-0.9-0.9c0,0,0,0,0,0c0.1-2.4-1.8-4.4-4.2-4.5
				c-0.1,0-0.2,0-0.3,0c-0.5,0-0.9-0.4-0.9-0.9c0-0.5,0.4-0.9,0.9-0.9c2.4,0.1,4.4-1.8,4.5-4.2c0-0.1,0-0.2,0-0.3
				c0-0.5,0.4-0.9,1-0.9c0.5,0,0.9,0.4,0.9,0.9c-0.1,2.4,1.8,4.4,4.2,4.5c0.1,0,0.2,0,0.3,0c0.5,0,0.9,0.4,0.9,0.9
				c0,0.5-0.4,0.9-0.9,0.9c-2.4-0.1-4.4,1.8-4.5,4.2c0,0.1,0,0.2,0,0.3C127.7,217.3,127.3,217.7,126.8,217.7L126.8,217.7z
				 M124.8,211.3c0.8,0.5,1.5,1.2,2,2c0.5-0.8,1.2-1.5,2-2c-0.8-0.5-1.5-1.2-2-2C126.3,210.1,125.6,210.8,124.8,211.3z"/>
			<path id="Path_939_1_" class="st3" d="M59.3,134.9c-0.5,0-0.9-0.4-0.9-0.9l0,0c0.1-2.4-1.8-4.4-4.2-4.5c-0.1,0-0.2,0-0.3,0
				c-0.5,0-0.9-0.4-1-0.9c0-0.5,0.4-0.9,0.9-1c0,0,0,0,0.1,0c2.4,0.1,4.4-1.8,4.5-4.2c0-0.1,0-0.2,0-0.3c0-0.5,0.4-0.9,0.9-1
				c0.5,0,0.9,0.4,1,0.9c0,0,0,0,0,0.1c-0.1,2.4,1.8,4.4,4.2,4.5c0.1,0,0.2,0,0.3,0c0.5,0,0.9,0.4,0.9,1c0,0.5-0.4,0.9-0.9,0.9
				c-2.4-0.1-4.4,1.8-4.5,4.2c0,0.1,0,0.2,0,0.3C60.2,134.5,59.8,134.9,59.3,134.9z M57.3,128.6c0.8,0.5,1.5,1.2,2,2
				c0.5-0.8,1.2-1.5,2-2c-0.8-0.5-1.5-1.2-2-2C58.8,127.4,58.1,128.1,57.3,128.6L57.3,128.6z"/>
			<path id="Path_940_1_" class="st3" d="M231.1,49.2c-0.5,0-0.9-0.4-0.9-0.9c0,0,0,0,0,0c0.1-2.4-1.8-4.4-4.2-4.5
				c-0.1,0-0.2,0-0.3,0c-0.5,0-0.9-0.4-0.9-1c0-0.5,0.4-0.9,0.9-0.9c2.4,0.1,4.4-1.8,4.5-4.2c0-0.1,0-0.2,0-0.3
				c0-0.5,0.4-0.9,0.9-0.9c0.5,0,0.9,0.4,0.9,0.9c-0.1,2.4,1.8,4.4,4.2,4.5c0.1,0,0.2,0,0.3,0c0.5,0,0.9,0.4,0.9,1
				c0,0.5-0.4,0.9-0.9,0.9c-2.4-0.1-4.4,1.8-4.5,4.2c0,0.1,0,0.2,0,0.3C232,48.8,231.6,49.2,231.1,49.2
				C231.1,49.2,231.1,49.2,231.1,49.2z M229.1,42.9c0.8,0.5,1.5,1.2,2,2c0.5-0.8,1.2-1.5,2-2c-0.8-0.5-1.5-1.2-2-2
				C230.6,41.7,229.9,42.4,229.1,42.9z"/>
			<path id="Path_941_1_" class="st3" d="M176.3,15.1c-0.5,0-0.9-0.4-0.9-0.9c0.1-2.4-1.8-4.4-4.2-4.5c-0.1,0-0.2,0-0.3,0
				c-0.5,0-0.9-0.4-0.9-1c0-0.5,0.4-0.9,0.9-0.9c2.4,0.1,4.4-1.8,4.5-4.2c0-0.1,0-0.2,0-0.3c0-0.5,0.4-0.9,0.9-0.9
				c0.5,0,0.9,0.4,0.9,0.9c-0.1,2.4,1.8,4.4,4.2,4.5c0.1,0,0.2,0,0.3,0c0.5,0,0.9,0.4,0.9,1c0,0.5-0.4,0.9-0.9,0.9
				c-2.4-0.1-4.4,1.8-4.5,4.2c0,0.1,0,0.2,0,0.3C177.2,14.7,176.8,15.1,176.3,15.1L176.3,15.1z M174.3,8.7c0.8,0.5,1.5,1.2,2,2
				c0.5-0.8,1.2-1.5,2-2c-0.8-0.5-1.5-1.2-2-2C175.8,7.5,175.1,8.2,174.3,8.7L174.3,8.7z"/>
			<path id="Path_942_1_" class="st3" d="M215.1,138.7c-0.5,0-0.9-0.4-0.9-0.9c0.1-2.4-1.8-4.4-4.2-4.5c-0.1,0-0.2,0-0.3,0
				c-0.5,0-0.9-0.4-1-0.9s0.4-0.9,0.9-1c0,0,0,0,0.1,0c2.4,0.1,4.4-1.8,4.5-4.2c0-0.1,0-0.2,0-0.3c0-0.5,0.4-0.9,0.9-0.9
				c0.5,0,0.9,0.4,0.9,0.9c-0.1,2.4,1.8,4.4,4.2,4.5c0.1,0,0.2,0,0.3,0c0.5,0,0.9,0.4,0.9,1c0,0.5-0.4,0.9-0.9,0.9
				c-2.4-0.1-4.4,1.8-4.5,4.2c0,0.1,0,0.2,0,0.3C216,138.3,215.6,138.7,215.1,138.7C215.1,138.7,215.1,138.7,215.1,138.7z
				 M213.1,132.4c0.8,0.5,1.5,1.2,2,2c0.5-0.8,1.2-1.5,2-2c-0.8-0.5-1.5-1.2-2-2C214.6,131.2,213.9,131.9,213.1,132.4L213.1,132.4z"
				/>
			<path id="Path_943_1_" class="st3" d="M268.9,85.3c-0.5,0-0.9-0.4-0.9-0.9c0.1-2.4-1.8-4.4-4.2-4.5c-0.1,0-0.2,0-0.3,0
				c-0.5,0-0.9-0.4-0.9-0.9c0-0.5,0.4-0.9,0.9-0.9c2.4,0.1,4.4-1.8,4.5-4.2c0-0.1,0-0.2,0-0.3c0-0.5,0.4-0.9,0.9-0.9
				s0.9,0.4,0.9,0.9c-0.1,2.4,1.8,4.4,4.2,4.5c0.1,0,0.2,0,0.3,0c0.5,0,0.9,0.4,0.9,0.9c0,0.5-0.4,0.9-0.9,0.9
				c-2.4-0.1-4.4,1.8-4.5,4.2c0,0.1,0,0.2,0,0.3C269.9,84.9,269.5,85.3,268.9,85.3z M266.9,79c0.8,0.5,1.5,1.2,2,2
				c0.5-0.8,1.2-1.5,2-2c-0.8-0.5-1.5-1.2-2-2C268.4,77.8,267.7,78.5,266.9,79L266.9,79z"/>
			<path id="Path_944_1_" class="st3" d="M306.2,128.6c-0.5,0-0.9-0.4-0.9-0.9c0,0,0,0,0,0c0.1-2.4-1.8-4.4-4.2-4.5
				c-0.1,0-0.2,0-0.3,0c-0.5,0-0.9-0.4-1-0.9c0-0.5,0.4-0.9,0.9-1c0,0,0,0,0.1,0c2.4,0.1,4.4-1.8,4.5-4.2c0-0.1,0-0.2,0-0.3
				c0-0.5,0.4-0.9,0.9-0.9s0.9,0.4,0.9,0.9c-0.1,2.4,1.8,4.4,4.2,4.5c0.1,0,0.2,0,0.3,0c0.5,0,0.9,0.4,1,0.9c0,0.5-0.4,0.9-0.9,1
				c0,0,0,0-0.1,0c-2.4-0.1-4.4,1.8-4.5,4.2c0,0.1,0,0.2,0,0.3C307.1,128.2,306.7,128.6,306.2,128.6
				C306.2,128.6,306.2,128.6,306.2,128.6z M304.2,122.3c0.8,0.5,1.5,1.2,2,2c0.5-0.8,1.2-1.5,2-2c-0.8-0.5-1.5-1.2-2-2
				C305.7,121.1,305,121.8,304.2,122.3L304.2,122.3z"/>
			<g id="Group_6153_1_" transform="translate(5.586 276.634)">
				<path id="Path_945_1_" class="st3" d="M28.5,0h-30C-3.4,0-5,1.6-5,3.5v30c0,1.9,1.6,3.5,3.5,3.5h30c1.9,0,3.5-1.6,3.5-3.5v-30
					C32.1,1.6,30.5,0,28.5,0z M30.1,33.5c0,0.8-0.7,1.5-1.5,1.5h-30c-0.8,0-1.5-0.7-1.5-1.5v-30C-3,2.7-2.3,2-1.5,2h30
					c0.8,0,1.5,0.7,1.5,1.5V33.5z"/>
				<path id="Path_946_1_" class="st3" d="M13.5,8.6C8,8.6,3.6,13,3.6,18.5c0,5.5,4.5,9.9,9.9,9.9s9.9-4.5,9.9-9.9l0,0
					C23.5,13,19,8.6,13.5,8.6z M18.3,24.9l-0.4-0.7c-0.3-0.4-0.8-0.6-1.3-0.3c-0.4,0.3-0.6,0.8-0.3,1.3l0.4,0.7
					c-0.7,0.3-1.4,0.5-2.2,0.6v-0.8c0-0.5-0.4-0.9-1-0.9c-0.5,0-0.9,0.4-0.9,0.9v0.8c-0.8-0.1-1.5-0.3-2.2-0.6l0.4-0.7
					c0.3-0.4,0.1-1-0.3-1.3c-0.4-0.3-1-0.1-1.3,0.3c0,0,0,0,0,0l-0.4,0.7c-0.6-0.5-1.2-1-1.6-1.6l0.7-0.4c0.4-0.3,0.6-0.8,0.3-1.3
					C7.9,21.2,7.4,21,7,21.3l-0.7,0.4c-0.3-0.7-0.5-1.4-0.6-2.2h0.8c0.5,0,0.9-0.4,0.9-0.9S7,17.6,6.5,17.6H5.7
					c0.1-0.8,0.3-1.5,0.6-2.2L7,15.8c0.4,0.2,1,0.1,1.3-0.4c0.2-0.4,0.1-1-0.3-1.2l-0.7-0.4c0.5-0.6,1-1.2,1.6-1.6l0.4,0.7
					c0.3,0.4,0.8,0.6,1.3,0.3c0.4-0.3,0.6-0.8,0.3-1.2l-0.4-0.7c0.7-0.3,1.4-0.5,2.2-0.6v0.8c0,0.5,0.4,0.9,1,0.9
					c0.5,0,0.9-0.4,0.9-0.9v-0.8c0.8,0.1,1.5,0.3,2.2,0.6L16.3,12c-0.3,0.4-0.1,1,0.3,1.3c0.4,0.3,1,0.1,1.3-0.3l0,0l0.4-0.7
					c0.6,0.5,1.2,1,1.6,1.6l-0.7,0.4c-0.4,0.2-0.6,0.8-0.4,1.3c0.2,0.4,0.8,0.6,1.3,0.4c0,0,0,0,0,0l0.7-0.4
					c0.3,0.7,0.5,1.4,0.6,2.2h-0.8c-0.5,0-0.9,0.4-0.9,0.9s0.4,0.9,0.9,0.9l0,0h0.8c-0.1,0.8-0.3,1.5-0.6,2.2l-0.7-0.4
					c-0.4-0.2-1-0.1-1.3,0.4c-0.2,0.4-0.1,1,0.3,1.2l0.7,0.4C19.4,23.9,18.9,24.4,18.3,24.9L18.3,24.9z"/>
				<path id="Path_947_1_" class="st3" d="M13.5,14.6c-2.2,0-3.9,1.7-3.9,3.9c0,2.2,1.7,3.9,3.9,3.9c2.2,0,3.9-1.7,3.9-3.9
					C17.4,16.4,15.7,14.6,13.5,14.6z M13.5,20.4c-1,0-1.9-0.9-1.9-1.9c0-1,0.9-1.9,1.9-1.9c1,0,1.9,0.9,1.9,1.9S14.6,20.4,13.5,20.4
					C13.5,20.4,13.5,20.4,13.5,20.4z"/>
				<path id="Path_948_1_" class="st3" d="M28.1,7.6h-0.7v-2c0-0.6-0.4-1-1-1H0.6c-0.6,0-1,0.4-1,1v25.9c0,0.6,0.4,1,1,1h25.9
					c0.6,0,1-0.4,1-1l0,0v-2h0.7c0.6,0,1-0.4,1-1v-5.7c0-0.6-0.4-1-1-1h-0.7v-6.4h0.7c0.6,0,1-0.4,1-1V8.6
					C29.1,8.1,28.7,7.6,28.1,7.6C28.1,7.6,28.1,7.6,28.1,7.6z M27.1,9.6v3.7h-1.3V9.6H27.1z M25.8,27.5v-3.7h1.3v3.7H25.8z
					 M25.5,21.7h-0.7c-0.6,0-1,0.4-1,1v5.7c0,0.6,0.4,1,1,1h0.7v1H1.6V6.6h23.9v1h-0.7c-0.6,0-1,0.4-1,1v5.7c0,0.6,0.4,1,1,1h0.7
					L25.5,21.7z"/>
			</g>
			<path id="Path_949_1_" class="st3" d="M314.1,38.8c-1.1,0-2.1,0.7-2.5,1.7h-14.4c-0.6,0-1,0.4-1,1v4.3h-9.1
				c-0.6-1.4-2.1-2-3.5-1.5c-1.4,0.6-2,2.1-1.5,3.5c0.6,1.4,2.1,2,3.5,1.5c0.7-0.3,1.2-0.8,1.5-1.5h10.1c0.6,0,1-0.4,1-1v-4.3h13.4
				c0.6,1.4,2.1,2,3.5,1.5c1.4-0.6,2-2.1,1.5-3.5C316.1,39.5,315.1,38.8,314.1,38.8L314.1,38.8z M284.6,47.6c-0.4,0-0.8-0.4-0.8-0.8
				c0-0.4,0.4-0.8,0.8-0.8c0.4,0,0.8,0.4,0.8,0.8C285.4,47.2,285.1,47.6,284.6,47.6C284.6,47.6,284.6,47.6,284.6,47.6L284.6,47.6z
				 M314.1,42.3c-0.4,0-0.8-0.4-0.8-0.8c0-0.4,0.4-0.8,0.8-0.8c0.4,0,0.8,0.4,0.8,0.8C314.9,42,314.5,42.3,314.1,42.3L314.1,42.3z"
				/>
			<path id="Path_950_1_" class="st3" d="M272,56.7c-1.5,0-2.7,1.2-2.7,2.7c0,0.2,0,0.5,0.1,0.7l-8.4,6.4c-0.4-0.2-0.9-0.4-1.4-0.4
				c-0.1,0-0.1,0-0.2,0l-8.3-16.7c1-1.1,0.9-2.8-0.2-3.8c-1.1-1-2.8-0.9-3.8,0.2c-0.9,1-0.9,2.6,0.1,3.6l-3.5,7.7c0,0-0.1,0-0.1,0
				c-1.4,0-2.5,1-2.6,2.4L228.6,63c-0.9-1.1-2.4-1.3-3.6-0.6l-12-8c0.3-1.4-0.6-2.8-2.1-3.1c-1.4-0.3-2.8,0.6-3.1,2.1
				c0,0.2-0.1,0.4-0.1,0.5c0,0.6,0.2,1.1,0.5,1.5l-5.8,9.1c-0.6-0.1-1.1,0-1.6,0.2l-4.4-3.8c0.1-0.3,0.2-0.6,0.2-0.9
				c0-1.5-1.2-2.7-2.7-2.7c-1.5,0-2.7,1.2-2.7,2.7c0,0,0,0.1,0,0.1l-9.5,4.4c-1.1-1-2.8-0.9-3.8,0.1c-1,1.1-0.9,2.8,0.1,3.8
				s2.8,0.9,3.8-0.1c0.5-0.5,0.7-1.1,0.7-1.8c0,0,0-0.1,0-0.1l9.5-4.4c0.8,0.8,2,0.9,3,0.4l4.4,3.8c-0.1,0.3-0.2,0.6-0.2,0.9
				c0,1.5,1.1,2.7,2.6,2.7s2.7-1.1,2.7-2.6c0,0,0-0.1,0-0.1c0-0.6-0.2-1.1-0.5-1.5l5.8-9.1c0.7,0.1,1.4,0,2-0.4l12,8
				c-0.3,1.4,0.6,2.8,2.1,3.1c1.4,0.3,2.8-0.6,3.1-2.1c0-0.1,0-0.2,0-0.3l12.4-3.6c0.9,1.1,2.6,1.3,3.7,0.4c1.1-0.9,1.3-2.6,0.4-3.7
				c0-0.1-0.1-0.1-0.1-0.2l3.5-7.7c0,0,0.1,0,0.1,0c0.1,0,0.1,0,0.2,0l8.3,16.7c-1,1.1-0.9,2.8,0.2,3.8c1.1,1,2.8,0.9,3.8-0.2
				c0.6-0.7,0.8-1.6,0.6-2.5l8.4-6.4c0.4,0.2,0.9,0.4,1.4,0.4c1.5,0,2.6-1.2,2.6-2.7C274.6,57.8,273.4,56.7,272,56.7L272,56.7z
				 M249.2,46.8c0.4,0,0.8,0.4,0.8,0.8c0,0.4-0.4,0.8-0.8,0.8c-0.4,0-0.8-0.4-0.8-0.8c0,0,0,0,0,0C248.4,47.1,248.8,46.8,249.2,46.8
				z M179.9,67.4c-0.4,0-0.8-0.4-0.8-0.8s0.4-0.8,0.8-0.8c0.4,0,0.8,0.4,0.8,0.8C180.8,67,180.4,67.4,179.9,67.4
				C179.9,67.4,179.9,67.4,179.9,67.4L179.9,67.4z M193.1,60.1c0-0.4,0.4-0.8,0.8-0.8c0.4,0,0.8,0.4,0.8,0.8c0,0.4-0.4,0.8-0.8,0.8
				l0,0C193.5,60.9,193.1,60.5,193.1,60.1L193.1,60.1z M202,68c-0.4,0-0.8-0.4-0.8-0.8s0.4-0.8,0.8-0.8c0.4,0,0.8,0.4,0.8,0.8
				C202.8,67.6,202.4,68,202,68C202,68,202,68,202,68L202,68z M210.4,54.7c-0.4,0-0.8-0.4-0.8-0.8s0.4-0.8,0.8-0.8
				c0.4,0,0.8,0.4,0.8,0.8C211.2,54.4,210.8,54.7,210.4,54.7C210.4,54.7,210.4,54.7,210.4,54.7L210.4,54.7z M226.5,65.5
				c-0.4,0-0.8-0.4-0.8-0.8c0-0.4,0.4-0.8,0.8-0.8c0.4,0,0.8,0.4,0.8,0.8c0,0,0,0,0,0C227.3,65.1,227,65.5,226.5,65.5
				C226.5,65.5,226.5,65.5,226.5,65.5L226.5,65.5z M243.6,60.5c-0.4,0-0.8-0.4-0.8-0.8s0.4-0.8,0.8-0.8c0.4,0,0.8,0.4,0.8,0.8
				C244.4,60.1,244.1,60.5,243.6,60.5C243.6,60.5,243.6,60.5,243.6,60.5L243.6,60.5z M259.7,69.5c-0.4,0-0.8-0.4-0.8-0.8
				c0-0.4,0.4-0.8,0.8-0.8c0.4,0,0.8,0.4,0.8,0.8l0,0C260.5,69.1,260.1,69.5,259.7,69.5C259.7,69.5,259.7,69.5,259.7,69.5
				L259.7,69.5z M272,60.1c-0.4,0-0.8-0.4-0.8-0.8c0-0.4,0.4-0.8,0.8-0.8c0.4,0,0.8,0.4,0.8,0.8c0,0,0,0,0,0
				C272.8,59.8,272.5,60.1,272,60.1C272,60.1,272,60.1,272,60.1L272,60.1z"/>
			<g id="Group_6156_1_" transform="translate(5.853 113.44)">
				<g id="Group_6154_1_" transform="translate(0 6.55)">
					<path id="Path_951_1_" class="st3" d="M33.5,13.5c-1.8,0-3.2-1.3-3.4-3.1l-0.6-6.1c-0.2-2.2,1.4-4.1,3.6-4.3
						c2.2-0.2,4.1,1.4,4.3,3.6c0,0.2,0,0.5,0,0.7l-0.6,6.1C36.7,12.2,35.3,13.5,33.5,13.5z M33.5,2c-1.1,0-2,0.9-2,2
						c0,0.1,0,0.1,0,0.2l0.6,6.1c0.1,0.8,0.8,1.4,1.5,1.3c0.7-0.1,1.2-0.6,1.3-1.3l0.6-6.1c0.1-1.1-0.7-2.1-1.8-2.2
						C33.6,2,33.6,2,33.5,2L33.5,2z"/>
					<path id="Path_952_1_" class="st3" d="M23.7,19.9c-1.8,0-3.2-1.3-3.4-3.1l-0.6-6.1c-0.2-2.2,1.4-4.1,3.6-4.3
						c2.2-0.2,4.1,1.4,4.3,3.6c0,0.2,0,0.5,0,0.7l-0.6,6.1C26.9,18.6,25.4,19.9,23.7,19.9z M23.7,8.4c-1.1,0-2,0.9-2,2
						c0,0.1,0,0.1,0,0.2l0.6,6.1c0.1,0.8,0.8,1.4,1.5,1.3c0.7-0.1,1.2-0.6,1.3-1.3l0.6-6.1c0.1-1.1-0.7-2-1.8-2.1
						C23.8,8.4,23.7,8.4,23.7,8.4L23.7,8.4z"/>
					<path id="Path_953_1_" class="st3" d="M13.3,16.1c-1.8,0-3.2-1.3-3.4-3.1L9.4,6.9C9.2,4.7,10.8,2.8,13,2.6
						c2.2-0.2,4.1,1.4,4.3,3.6c0,0.2,0,0.5,0,0.7L16.7,13C16.6,14.7,15.1,16.1,13.3,16.1z M13.3,4.5c-1.1,0-2,0.9-2,2
						c0,0.1,0,0.1,0,0.2l0.6,6.1c0.1,0.8,0.8,1.4,1.5,1.3c0.7-0.1,1.2-0.6,1.3-1.3l0.6-6.1c0.1-1.1-0.7-2-1.8-2.2
						C13.4,4.5,13.4,4.5,13.3,4.5L13.3,4.5z"/>
					<path id="Path_954_1_" class="st3" d="M4,25.3c-1.8,0-3.2-1.3-3.4-3.1L0,16.1c-0.2-2.2,1.4-4.1,3.6-4.3
						c2.2-0.2,4.1,1.4,4.3,3.6c0,0.2,0,0.5,0,0.7l-0.6,6.1C7.2,23.9,5.8,25.3,4,25.3z M4,13.8c-1.1,0-2,0.9-2,2c0,0.1,0,0.1,0,0.2
						L2.6,22c0.1,0.8,0.8,1.4,1.5,1.3c0.7-0.1,1.2-0.6,1.3-1.3L6,15.9c0.1-1.1-0.7-2-1.8-2.1C4.1,13.8,4,13.8,4,13.8L4,13.8z"/>
				</g>
				<g id="Group_6155_1_" transform="translate(1.128)">
					<path id="Path_955_1_" class="st3" d="M32.4,5.7c-1.6,0-2.9-1.3-2.9-2.9c0-1.6,1.3-2.9,2.9-2.9c1.6,0,2.9,1.3,2.9,2.9
						C35.2,4.4,33.9,5.7,32.4,5.7z M32.4,1.9c-0.6,0-1,0.4-1,1s0.4,1,1,1s1-0.4,1-1S32.9,1.9,32.4,1.9z"/>
					<path id="Path_956_1_" class="st3" d="M22.5,12.1c-1.6,0-2.9-1.3-2.9-2.9s1.3-2.9,2.9-2.9s2.9,1.3,2.9,2.9
						C25.4,10.8,24.1,12.1,22.5,12.1z M22.5,8.2c-0.6,0-1,0.4-1,1s0.4,1,1,1s1-0.4,1-1S23.1,8.2,22.5,8.2z"/>
					<path id="Path_957_1_" class="st3" d="M12.2,8.2c-1.6,0-2.9-1.3-2.9-2.9c0-1.6,1.3-2.9,2.9-2.9c1.6,0,2.9,1.3,2.9,2.9
						C15,7,13.8,8.2,12.2,8.2z M12.2,4.4c-0.6,0-1,0.4-1,1c0,0.6,0.4,1,1,1s1-0.4,1-1C13.2,4.8,12.7,4.4,12.2,4.4L12.2,4.4z"/>
					<path id="Path_958_1_" class="st3" d="M2.9,17.5c-1.6,0-2.9-1.3-2.9-2.9c0-1.6,1.3-2.9,2.9-2.9c1.6,0,2.9,1.3,2.9,2.9
						C5.7,16.2,4.4,17.5,2.9,17.5z M2.9,13.6c-0.6,0-1,0.4-1,1s0.4,1,1,1s1-0.4,1-1C3.9,14.1,3.4,13.6,2.9,13.6
						C2.9,13.6,2.9,13.6,2.9,13.6L2.9,13.6z"/>
				</g>
			</g>
			<path id="Path_959_1_" class="st3" d="M90.6,84.1c-1.8-4.6-5-8.4-9.1-11.1c0-0.1,0-0.2,0-0.3c0-1.5-1.2-2.7-2.7-2.7
				c-0.7,0-1.4,0.3-1.9,0.8c-6-2.2-12.7-1.8-18.4,1.2c-0.5-0.4-1-0.6-1.6-0.6c-1.5,0-2.7,1.2-2.7,2.7c0,0.2,0,0.5,0.1,0.7
				c-4.3,3.5-7.1,8.5-8,14c-1.4,0.4-2.2,1.9-1.8,3.3c0.2,0.8,0.8,1.5,1.6,1.8c0.3,5.7,2.8,11.1,6.9,15c-0.1,0.3-0.2,0.6-0.2,0.9
				c0,1.5,1.2,2.7,2.7,2.7c0.5,0,1-0.2,1.4-0.4c2.3,1.4,4.7,2.4,7.4,3c0.1,0,0.1,0,0.2,0c0.6,0,1-0.4,1-1c0-0.5-0.3-0.9-0.8-1
				c-2.3-0.5-4.6-1.4-6.6-2.6c0.2-0.8,0-1.6-0.5-2.2c4.8-8.2,12.3-14.5,21.2-17.8c1.8,2,3.5,4.1,5.1,6.4c0.3,0.5,0.9,0.6,1.4,0.3
				c0.5-0.3,0.6-0.9,0.3-1.4l0,0c-1.4-2.1-3-4-4.7-5.9c2.3-0.7,4.7-1.3,7.2-1.6c0.7,1.3,2.3,1.8,3.6,1.1c1.3-0.7,1.8-2.3,1.1-3.6
				C92.4,84.7,91.5,84.2,90.6,84.1L90.6,84.1z M88.7,84.7c-0.2,0.1-0.3,0.3-0.5,0.5c-4.3-0.9-8.7-1.4-13.1-1.4
				c-1.3-1.1-2.6-2.1-4-3.1c0.2-0.5,0.2-1,0-1.5c1.9-1.6,3.9-3.1,6-4.4c1,0.8,2.3,0.8,3.3,0C84.2,77.2,87.1,80.7,88.7,84.7
				L88.7,84.7z M69.5,80c0,0.4-0.4,0.8-0.8,0.8s-0.8-0.4-0.8-0.8s0.4-0.8,0.8-0.8l0,0C69.1,79.1,69.5,79.5,69.5,80L69.5,80z
				 M67.9,82.5c0.7,0.2,1.4,0.1,2-0.2c0.7,0.5,1.5,1.1,2.2,1.7c-2,0.1-4,0.3-5.9,0.5C66.8,83.8,67.3,83.1,67.9,82.5L67.9,82.5z
				 M78.9,71.9c0.4,0,0.8,0.4,0.8,0.8s-0.4,0.8-0.8,0.8c-0.4,0-0.8-0.4-0.8-0.8c0,0,0,0,0,0C78.1,72.3,78.5,71.9,78.9,71.9
				C78.9,71.9,78.9,71.9,78.9,71.9L78.9,71.9z M76.3,72.7C76.3,72.7,76.3,72.7,76.3,72.7c0,0.2,0,0.3,0,0.4C74.1,74.4,72,76,70,77.7
				c-1-0.6-2.2-0.5-3,0.3c-2.3-1.4-4.8-2.7-7.3-3.8c0,0,0,0,0,0c0-0.1,0-0.2,0-0.4C64.8,71.1,70.8,70.7,76.3,72.7L76.3,72.7z
				 M57,73.3c0.4,0,0.8,0.4,0.8,0.8c0,0.4-0.4,0.8-0.8,0.8c-0.4,0-0.8-0.4-0.8-0.8C56.2,73.7,56.6,73.3,57,73.3L57,73.3z M55.7,76.4
				c1,0.6,2.4,0.5,3.2-0.4c2.5,1.1,4.8,2.3,7.1,3.7c0,0.1,0,0.2,0,0.2c0,0.4,0.1,0.9,0.3,1.3c-1.1,1.2-2.1,2.4-3.1,3.7
				c-4.9,0.9-9.7,2.4-14.2,4.5c-0.2-0.2-0.4-0.3-0.6-0.4C49.3,84.1,51.8,79.6,55.7,76.4z M47.2,90.6c0.4,0,0.8,0.4,0.8,0.8
				c0,0.4-0.4,0.8-0.8,0.8c-0.4,0-0.8-0.4-0.8-0.8c0,0,0,0,0,0C46.4,90.9,46.8,90.6,47.2,90.6L47.2,90.6L47.2,90.6z M48.3,93.8
				c1-0.4,1.6-1.4,1.6-2.5c0,0,0-0.1,0-0.1c3.8-1.7,7.7-3,11.8-3.9c-3.8,6-6.2,12.8-6.9,19.9c-0.1,0-0.3,0.1-0.4,0.1
				C50.8,103.8,48.6,98.9,48.3,93.8L48.3,93.8z M54.8,109.7c0-0.4,0.4-0.8,0.8-0.8s0.8,0.4,0.8,0.8c0,0.4-0.4,0.8-0.8,0.8
				c0,0,0,0,0,0C55.2,110.5,54.8,110.2,54.8,109.7L54.8,109.7z M57.1,105.3c1-6.7,3.5-13,7.4-18.5c3.3-0.6,6.6-0.9,9.9-0.9
				c1,0.9,2,1.8,3,2.8C69.1,92,62,97.8,57.1,105.3L57.1,105.3z M77.4,85.9c2.3,0.1,4.7,0.3,7,0.7c-1.7,0.4-3.3,0.8-5,1.4
				C78.8,87.3,78.1,86.6,77.4,85.9L77.4,85.9z M90.4,87.6c-0.4,0-0.8-0.4-0.8-0.8s0.4-0.8,0.8-0.8c0.4,0,0.8,0.4,0.8,0.8
				C91.3,87.2,90.9,87.6,90.4,87.6L90.4,87.6z"/>
			<path id="Path_960_1_" class="st3" d="M281.7,231.2c0-1.5-1.2-2.7-2.7-2.7c-1.5,0-2.7,1.2-2.7,2.7c0,1.1,0.7,2.1,1.7,2.5v12.6
				h-17.1c-0.6,0-1,0.4-1,1v7.1c-1.4,0.6-2,2.1-1.5,3.5c0.6,1.4,2.1,2,3.5,1.5c1.4-0.6,2-2.1,1.5-3.5c-0.3-0.7-0.8-1.2-1.5-1.5v-6.1
				H279c0.6,0,1-0.4,1-1v-13.6C281,233.2,281.7,232.2,281.7,231.2z M260.9,257.6c-0.4,0-0.8-0.4-0.8-0.8s0.4-0.8,0.8-0.8
				c0.4,0,0.8,0.4,0.8,0.8c0,0,0,0,0,0C261.7,257.2,261.4,257.6,260.9,257.6L260.9,257.6z M279,230.3c0.4,0,0.8,0.4,0.8,0.8
				c0,0.4-0.4,0.8-0.8,0.8c-0.4,0-0.8-0.4-0.8-0.8C278.2,230.7,278.5,230.3,279,230.3z"/>
			<path id="Path_961_1_" class="st3" d="M168.5,301c-1.1,0-2.1,0.7-2.5,1.7h-20.2v-13.4c0-0.6-0.4-1-1-1h-24.7
				c-0.6-1.4-2.1-2-3.5-1.5c-1.4,0.6-2,2.1-1.5,3.5c0.6,1.4,2.1,2,3.5,1.5c0.7-0.3,1.2-0.8,1.5-1.5h23.7v5.2h-14.9c-0.6,0-1,0.4-1,1
				v6.2h-21c-0.6-1.4-2.1-2-3.5-1.5c-1.4,0.6-2,2.1-1.5,3.5c0.6,1.4,2.1,2,3.5,1.5c0.7-0.3,1.2-0.8,1.5-1.5h10v5.2H93.7
				c-0.6-1.4-2.1-2-3.5-1.5c-1.4,0.6-2,2.1-1.5,3.5s2.1,2,3.5,1.5c0.7-0.3,1.2-0.8,1.5-1.5h24.4c0.6,0,1-0.4,1-1v-6.2h10
				c0.6,0,1-0.4,1-1v-6.2h13.8v6.2c0,0.6,0.4,1,1,1h7.6v5.2h-14.4c-0.6-1.4-2.1-2-3.5-1.5c-1.4,0.6-2,2.1-1.5,3.5
				c0.6,1.4,2.1,2,3.5,1.5c0.7-0.3,1.2-0.8,1.5-1.5h15.4c0.6,0,1-0.4,1-1v-6.2h11.5c0.6,1.4,2.1,2,3.5,1.5s2-2.1,1.5-3.5
				C170.6,301.6,169.6,300.9,168.5,301L168.5,301z M117.7,290c-0.4,0-0.8-0.4-0.8-0.8c0-0.4,0.4-0.8,0.8-0.8c0.4,0,0.8,0.4,0.8,0.8
				S118.2,290,117.7,290C117.7,290,117.7,290,117.7,290z M91.2,311.6c-0.4,0-0.8-0.4-0.8-0.8c0-0.4,0.4-0.8,0.8-0.8
				c0.4,0,0.8,0.4,0.8,0.8c0,0,0,0,0,0C92,311.3,91.7,311.6,91.2,311.6L91.2,311.6z M104.6,304.4c-0.4,0-0.8-0.4-0.8-0.8
				c0-0.4,0.4-0.8,0.8-0.8c0.4,0,0.8,0.4,0.8,0.8C105.4,304.1,105.1,304.4,104.6,304.4C104.6,304.4,104.6,304.4,104.6,304.4
				L104.6,304.4z M135.6,311.6c-0.4,0-0.8-0.4-0.8-0.8c0-0.4,0.4-0.8,0.8-0.8c0.4,0,0.8,0.4,0.8,0.8c0,0,0,0,0,0
				C136.4,311.3,136.1,311.6,135.6,311.6L135.6,311.6z M168.5,304.4c-0.4,0-0.8-0.4-0.8-0.8c0-0.4,0.4-0.8,0.8-0.8
				c0.4,0,0.8,0.4,0.8,0.8c0,0,0,0,0,0C169.3,304.1,169,304.4,168.5,304.4C168.5,304.4,168.5,304.4,168.5,304.4L168.5,304.4z"/>
			<path id="Path_962_1_" class="st3" d="M192.1,222.6c0-1.5-1.2-2.7-2.7-2.7c-1.5,0-2.7,1.2-2.7,2.7c0,0.4,0.1,0.8,0.3,1.2
				l-3.8,4.2c-0.6-0.2-1.2-0.2-1.8,0l-2.4-2.6c0.2-0.4,0.3-0.7,0.3-1.1c0-1.5-1.2-2.7-2.6-2.7c-1,0-1.8,0.5-2.3,1.3l-3.5-0.5
				c-0.4-1.4-1.8-2.3-3.2-1.9c-1.4,0.4-2.3,1.8-1.9,3.2c0.1,0.5,0.4,1,0.8,1.4l-1.5,4.4c-0.3,0-0.7,0.1-1,0.3l-3.1-2.8
				c0.1-0.3,0.2-0.6,0.2-0.9c0-1.5-1.2-2.7-2.7-2.6c-1.4,0-2.6,1.2-2.6,2.6l-3,1.2c-0.6-0.7-1.6-1-2.5-0.8l-3.3-4.9
				c0.8-1.2,0.5-2.9-0.7-3.7c-1.2-0.8-2.9-0.5-3.7,0.7c-0.6,0.9-0.6,2.1,0,3l-4.6,6.7c-0.9-0.2-1.8,0.1-2.4,0.7l-4.5-2
				c0,0,0,0,0-0.1c0-1.5-1.2-2.7-2.7-2.7c-1.5,0-2.7,1.2-2.7,2.7c0,1.1,0.7,2.1,1.7,2.5v7.9c0,0.6,0.4,1,1,1h61.1c0.6,0,1-0.4,1-1
				v-12.1C191.5,224.7,192.1,223.7,192.1,222.6z M189.5,221.8c0.4,0,0.8,0.4,0.8,0.8c0,0.4-0.4,0.8-0.8,0.8c-0.4,0-0.8-0.4-0.8-0.8
				c0,0,0,0,0,0C188.7,222.2,189,221.8,189.5,221.8z M183.3,230.5c0,0.4-0.4,0.8-0.8,0.8c-0.4,0-0.8-0.4-0.8-0.8
				c0-0.4,0.4-0.8,0.8-0.8c0,0,0,0,0,0C182.9,229.7,183.3,230.1,183.3,230.5z M176.7,223.5c0.4,0,0.8,0.4,0.8,0.8s-0.4,0.8-0.8,0.8
				c-0.4,0-0.8-0.4-0.8-0.8C175.9,223.8,176.3,223.5,176.7,223.5L176.7,223.5z M168.3,222.3c0.4,0,0.8,0.4,0.8,0.8s-0.4,0.8-0.8,0.8
				c-0.4,0-0.8-0.4-0.8-0.8C167.5,222.7,167.9,222.3,168.3,222.3L168.3,222.3z M165.2,231.3c0.4,0,0.8,0.4,0.8,0.8
				c0,0.4-0.4,0.8-0.8,0.8c-0.4,0-0.8-0.4-0.8-0.8c0,0,0,0,0,0C164.4,231.7,164.7,231.3,165.2,231.3L165.2,231.3z M158.5,225.2
				c0.4,0,0.8,0.4,0.8,0.8c0,0.4-0.4,0.8-0.8,0.8c-0.4,0-0.8-0.4-0.8-0.8c0,0,0,0,0,0C157.6,225.6,158,225.2,158.5,225.2
				C158.5,225.2,158.5,225.2,158.5,225.2L158.5,225.2z M151.6,229c0,0.4-0.4,0.8-0.8,0.8s-0.8-0.4-0.8-0.8c0-0.4,0.4-0.8,0.8-0.8
				C151.3,228.2,151.6,228.5,151.6,229C151.6,229,151.6,229,151.6,229L151.6,229z M144.8,219.1c0.4,0,0.8,0.4,0.8,0.8
				s-0.4,0.8-0.8,0.8c-0.4,0-0.8-0.4-0.8-0.8C144,219.5,144.3,219.1,144.8,219.1L144.8,219.1z M137.4,229.9c0.4,0,0.8,0.4,0.8,0.8
				c0,0.4-0.4,0.8-0.8,0.8c-0.4,0-0.8-0.4-0.8-0.8c0,0,0,0,0,0C136.6,230.3,136.9,229.9,137.4,229.9
				C137.4,229.9,137.4,229.9,137.4,229.9L137.4,229.9z M128.4,226c0.4,0,0.8,0.4,0.8,0.8c0,0.4-0.4,0.8-0.8,0.8
				c-0.4,0-0.8-0.4-0.8-0.8c0,0,0,0,0,0C127.6,226.4,127.9,226,128.4,226C128.4,226,128.4,226,128.4,226L128.4,226z M129.4,236.2
				v-6.9c0.3-0.1,0.6-0.3,0.9-0.6l4.5,2c0,0,0,0,0,0.1c0,1.5,1.2,2.7,2.7,2.7c1.5,0,2.7-1.2,2.7-2.7c0-0.5-0.2-1-0.4-1.5l4.6-6.7
				c0.2,0,0.4,0.1,0.6,0.1c0.2,0,0.4,0,0.5-0.1l3.3,4.9c-0.8,1.2-0.5,2.9,0.7,3.7c1.2,0.8,2.9,0.5,3.7-0.7c0.3-0.4,0.5-0.9,0.5-1.5
				l3-1.2c0.8,0.8,2,1.1,3.1,0.6l3.1,2.8c-0.1,0.3-0.2,0.6-0.2,0.9c0,1.5,1.2,2.7,2.6,2.7c1.5,0,2.7-1.2,2.7-2.6
				c0-0.8-0.3-1.5-0.9-2l1.5-4.4c0.9,0,1.7-0.5,2.2-1.3l3.5,0.5c0.3,1.4,1.8,2.3,3.2,1.9c0.1,0,0.2-0.1,0.3-0.1l2.4,2.6
				c-0.2,0.4-0.3,0.7-0.3,1.1c0,1.5,1.2,2.7,2.7,2.7c1.5,0,2.7-1.2,2.7-2.7c0-0.4-0.1-0.8-0.3-1.2l3.7-4.1v10.9L129.4,236.2z"/>
			<path id="Path_963_1_" class="st3" d="M125.6,80.4h-23.7c-0.6,0-1,0.4-1,1v15.1c0,0.6,0.4,1,1,1h23.7c0.6,0,1-0.4,1-1V81.4
				C126.6,80.8,126.2,80.4,125.6,80.4C125.6,80.4,125.6,80.4,125.6,80.4z M102.9,83.5l5.6,5l-5.6,5.6V83.5z M117.1,87.8
				C117.1,87.8,117,87.9,117.1,87.8C117,87.9,117,87.9,117.1,87.8l-3.3,3l-9.4-8.4h18.7L117.1,87.8z M109.9,89.8l3.3,2.9
				c0.4,0.3,0.9,0.3,1.2,0l3.3-2.9l5.7,5.7h-19.1L109.9,89.8z M119,88.6l5.6-5v10.6L119,88.6z"/>
			<g id="Group_6157_1_" transform="translate(227.28 216.551)">
				<path id="Path_964_1_" class="st3" d="M18.3,0H5.5C2.5,0,0,2.5,0,5.5v34.3c0,3,2.5,5.5,5.5,5.5h12.8c3,0,5.5-2.5,5.5-5.5V5.5
					C23.8,2.5,21.3,0,18.3,0z M2,8h19.8v29.2H2L2,8z M5.5,2h12.8c1.9,0,3.5,1.6,3.5,3.5V6H2V5.5C2,3.6,3.6,2,5.5,2L5.5,2z
					 M18.3,43.3H5.5c-1.9,0-3.5-1.6-3.5-3.5v-0.6h19.8v0.6C21.8,41.7,20.2,43.3,18.3,43.3L18.3,43.3z"/>
				<path id="Path_965_1_" class="st3" d="M19.9,19.1c-4.6-3.8-11.4-3.8-16,0c-0.4,0.4-0.5,1-0.1,1.4s1,0.5,1.4,0.1
					c3.9-3.2,9.5-3.2,13.4,0c0.4,0.4,1.1,0.3,1.4-0.1C20.4,20.1,20.3,19.4,19.9,19.1L19.9,19.1L19.9,19.1z"/>
				<path id="Path_966_1_" class="st3" d="M11.9,20c-2.1,0-4.1,0.8-5.7,2.1c-0.4,0.4-0.5,1-0.1,1.4s1,0.5,1.4,0.1
					c2.5-2.2,6.3-2.2,8.9,0c0.4,0.4,1.1,0.3,1.4-0.1s0.3-1.1-0.1-1.4l0,0C16,20.8,14,20,11.9,20z"/>
				<path id="Path_967_1_" class="st3" d="M11.9,23.8c-1.3,0-2.6,0.5-3.5,1.5c-0.4,0.4-0.4,1,0,1.4c0.4,0.4,1,0.4,1.4,0
					c1.2-1.2,3-1.2,4.2,0c0,0,0,0,0,0c0.4,0.4,1,0.4,1.4,0c0.4-0.4,0.4-1,0-1.4l0,0C14.5,24.3,13.2,23.8,11.9,23.8z"/>
				<path id="Path_968_1_" class="st3" d="M11.9,40.1c-0.7,0-1.2,0.5-1.2,1.2c0,0.7,0.5,1.2,1.2,1.2s1.2-0.5,1.2-1.2
					S12.5,40.1,11.9,40.1L11.9,40.1z"/>
			</g>
			<path id="Path_969_1_" class="st3" d="M269.6,234c-0.1-0.2-0.2-0.4-0.4-0.5c-0.4-0.2-1-0.1-1.2,0.3c-0.3,0.5-0.9,0.9-1.5,0.8
				c-0.6,0-1.2-0.2-1.8-0.4c-0.8-0.3-1.6-0.4-2.4-0.5c-0.5,0-1.1,0.1-1.6,0.3c0.7-0.9,1.1-1.9,1.1-3.1c0-0.6-0.1-1.2-0.3-1.7h3.8
				c0.4,0,0.7-0.4,0.7-0.8c0-0.4-0.3-0.7-0.7-0.7h-4.3c-0.1-0.2-0.1-0.3-0.2-0.5c-0.5-0.9-0.7-1.9-0.8-2.9c0-1.8,1.3-2.9,3.4-2.9
				c1.3,0,2.5,0.5,3.4,1.5c0.4,0.4,1,0.4,1.4,0.1c0.4-0.4,0.4-1,0.1-1.4c0,0,0,0,0,0c-1.2-1.3-3-2.1-4.8-2.1c-3.3,0-5.5,2-5.5,4.9
				c0.1,1.2,0.4,2.4,0.9,3.4h-1.2c-0.4,0-0.7,0.4-0.7,0.8c0,0.4,0.3,0.7,0.7,0.7h1.8c0.3,0.7,0.4,1.4,0.5,2.1
				c-0.1,1.4-0.8,2.7-2,3.3c-0.3,0.2-0.4,0.7-0.2,1.1l0,0.1c0.2,0.4,0.7,0.5,1.1,0.4c0.9-0.4,2-0.7,3-0.7c0.8,0,1.7,0.2,2.5,0.5
				c0.8,0.3,1.6,0.4,2.4,0.5c1.2,0,2.3-0.7,2.9-1.8C269.6,234.5,269.6,234.2,269.6,234z"/>
			<path id="Path_970_1_" class="st3" d="M273.1,49.6c-0.4-0.3-1-0.2-1.3,0.2c-1,1.1-2.4,1.8-3.9,1.7c-2.5,0-4.8-1.7-5.3-4.2h6.4
				c0.4,0,0.7-0.4,0.7-0.8c0-0.4-0.3-0.7-0.7-0.7h-6.6c0-0.3,0-0.6,0-0.8c0-0.3,0-0.6,0-0.8h6.6c0.4,0,0.7-0.4,0.7-0.8
				c0-0.4-0.3-0.7-0.7-0.7h-6.4c0.5-2.5,2.7-4.3,5.3-4.2c1.5,0,2.9,0.6,3.9,1.7c0.4,0.4,1,0.4,1.4,0.1c0.2-0.2,0.3-0.4,0.3-0.6
				c0-0.3-0.1-0.6-0.3-0.8c-1.4-1.5-3.3-2.4-5.4-2.3c-3.7-0.1-6.8,2.6-7.4,6.2h-1.6c-0.4,0-0.7,0.4-0.7,0.8c0,0.4,0.3,0.7,0.7,0.7
				h1.3c0,0.3,0,0.6,0,0.8s0,0.6,0,0.8h-1.3c-0.4,0-0.7,0.4-0.7,0.8c0,0.4,0.3,0.7,0.7,0.7h1.6c0.6,3.6,3.8,6.2,7.4,6.2
				c2.1,0,4-0.8,5.4-2.3c0.4-0.4,0.3-1.1-0.1-1.4C273.2,49.7,273.1,49.7,273.1,49.6L273.1,49.6z"/>
			<path id="Path_971_1_" class="st3" d="M158.9,5.4c-0.3-0.5-0.9-0.6-1.4-0.4c-0.2,0.1-0.3,0.2-0.4,0.4l-3.8,7.3l-3.8-7.3
				c-0.3-0.5-0.9-0.7-1.4-0.5c-0.5,0.3-0.7,0.9-0.5,1.4c0,0,0,0,0,0.1l3.4,6.2h-2.7c-0.4,0-0.8,0.3-0.8,0.7c0,0.4,0.3,0.8,0.7,0.8
				c0,0,0.1,0,0.1,0h3.5l0.3,0.5v1.4h-3.9c-0.4,0-0.8,0.3-0.8,0.7c0,0.4,0.3,0.8,0.7,0.8c0,0,0.1,0,0.1,0h3.9v2.8c0,0.6,0.4,1,1,1
				s1-0.4,1-1c0,0,0,0,0-0.1v-2.8h3.8c0.4,0,0.7-0.4,0.7-0.8c0-0.4-0.3-0.7-0.7-0.7h-3.8v-1.4l0.3-0.5h3.5c0.4,0,0.7-0.4,0.7-0.8
				c0-0.4-0.3-0.7-0.7-0.7h-2.7l3.5-6.2C159.1,6.1,159.1,5.7,158.9,5.4z"/>
			<path id="Path_972_1_" class="st3" d="M106.9,210c0-3.1-2.7-4.1-5.3-4.7v-5.5c1.1,0.2,2.2,0.7,3,1.5c0.4,0.4,1,0.4,1.3,0
				c0.4-0.4,0.4-1,0-1.3c0,0,0,0,0,0c-1.2-1.1-2.7-1.8-4.3-2v-1.2c0-0.4-0.3-0.8-0.7-0.8s-0.8,0.3-0.8,0.7c0,0,0,0.1,0,0.1v1.2
				c-3.1,0.2-5.1,1.9-5.1,4.5c0,3.1,2.6,3.9,5.1,4.5v6.1c-1.4-0.2-2.7-0.8-3.6-1.8c-0.4-0.4-1-0.4-1.4-0.1s-0.4,1-0.1,1.4
				c1.3,1.4,3.2,2.2,5.1,2.3v1.4c0,0.4,0.3,0.8,0.7,0.8s0.8-0.3,0.8-0.7c0,0,0-0.1,0-0.1v-1.4C104.9,214.6,106.9,212.7,106.9,210z
				 M104.9,210c0,1.7-1.2,2.8-3.2,3v-5.8C103.9,207.8,104.9,208.4,104.9,210z M97.1,202.2c0-1.5,1.1-2.4,3.1-2.5v5.2
				C98.3,204.3,97.1,203.8,97.1,202.2z"/>
			<g id="Group_6158_1_" transform="translate(188.344 149.958)">
				<path id="Path_973_1_" class="st3" d="M0.3,7.5c0.1,0.1,0.3,0.1,0.5,0.1l4.6-1.8c0.2-0.1,0.3-0.3,0.3-0.5V4.7
					c0-0.3-0.2-0.5-0.5-0.5c-0.1,0-0.1,0-0.2,0L3.7,4.7V2.4l1.7-0.8c0.2-0.1,0.3-0.3,0.3-0.5V0.5C5.7,0.2,5.5,0,5.2,0C5.1,0,5,0,5,0
					L0.4,2.1C0.2,2.2,0.1,2.4,0.1,2.6v0.6c0,0.3,0.2,0.5,0.5,0.5c0.1,0,0.1,0,0.2,0L2.2,3v2.3L0.4,6.1C0.2,6.1,0.1,6.3,0.1,6.5v0.6
					C0.1,7.3,0.2,7.4,0.3,7.5z"/>
				<path id="Path_974_1_" class="st3" d="M0.6,10.7c0.1,0,0.1,0,0.1,0l4.6-1.4C5.5,9.2,5.7,9,5.7,8.8V8.1c0-0.3-0.2-0.5-0.5-0.5
					c-0.1,0-0.1,0-0.2,0L0.4,9.1C0.2,9.2,0.1,9.4,0.1,9.6v0.6C0.1,10.5,0.3,10.7,0.6,10.7L0.6,10.7z"/>
				<path id="Path_975_1_" class="st3" d="M0.7,15.3l3.5-0.8V16c0,0.3,0.2,0.5,0.5,0.5c0,0,0.1,0,0.1,0l0.5-0.1
					c0.2,0,0.4-0.3,0.4-0.5V11c0-0.3-0.2-0.5-0.5-0.5c0,0-0.1,0-0.1,0l-0.5,0.1c-0.2,0.1-0.4,0.3-0.4,0.5v1.7l-3.7,0.9
					c-0.2,0.1-0.4,0.3-0.4,0.5v0.6c0,0.3,0.2,0.5,0.5,0.5C0.6,15.3,0.6,15.3,0.7,15.3L0.7,15.3z"/>
				<path id="Path_976_1_" class="st3" d="M0.3,23c0.1,0.1,0.3,0.1,0.5,0l4.6-2.3c0.2-0.1,0.3-0.3,0.3-0.4v-0.7
					c0-0.2-0.1-0.4-0.3-0.4l-4.6-2.3c-0.2-0.1-0.5,0-0.7,0.2c0,0.1-0.1,0.1-0.1,0.2v0.6c0,0.2,0.1,0.4,0.3,0.4l1,0.5v2.1l-1,0.5
					c-0.2,0.1-0.3,0.3-0.3,0.4v0.7C0.1,22.7,0.2,22.9,0.3,23z M3.5,19.8l-0.7,0.3v-0.7L3.5,19.8z"/>
				<path id="Path_977_1_" class="st3" d="M5.5,25.5c-0.1-0.4-0.3-0.8-0.6-1.1c-0.3-0.3-0.6-0.5-1-0.7c-0.4-0.2-0.8-0.2-1.2-0.2
					c-0.4,0-0.8,0.1-1.1,0.2c-0.3,0.2-0.7,0.4-0.9,0.7c-0.3,0.3-0.4,0.6-0.6,1C0.1,25.9,0,26.3,0,26.7c0,0.3,0,0.5,0.1,0.7
					c0,0.2,0.1,0.5,0.2,0.7c0.1,0.2,0.2,0.4,0.3,0.6c0.1,0.2,0.3,0.4,0.4,0.5c0.2,0.2,0.5,0.2,0.7,0c0,0,0.1-0.1,0.1-0.1L2,28.7
					c0.1-0.2,0.1-0.5-0.1-0.6c-0.1-0.1-0.1-0.2-0.2-0.2c-0.1-0.1-0.1-0.2-0.2-0.3c0-0.1-0.1-0.2-0.1-0.4c0-0.1,0-0.3,0-0.4
					c0-0.2,0-0.5,0.1-0.7c0.1-0.2,0.1-0.3,0.3-0.5c0.1-0.1,0.3-0.2,0.4-0.3c0.2-0.1,0.4-0.1,0.6-0.1h0c0.2,0,0.4,0,0.6,0.1
					c0.2,0.1,0.3,0.2,0.4,0.3c0.1,0.2,0.2,0.3,0.3,0.5c0.1,0.2,0.1,0.5,0.1,0.7c0,0.2,0,0.3,0,0.5c0,0.1-0.1,0.2-0.1,0.4
					c0,0.1-0.1,0.2-0.2,0.3c-0.1,0.1-0.1,0.2-0.2,0.2c-0.2,0.2-0.2,0.4-0.1,0.7l0.3,0.5c0.1,0.1,0.2,0.2,0.4,0.2c0,0,0.1,0,0.1,0
					c0.1,0,0.2,0,0.3-0.1C4.9,29.3,5,29.2,5.1,29c0.1-0.2,0.2-0.4,0.3-0.6c0.1-0.2,0.2-0.5,0.2-0.7c0-0.3,0.1-0.5,0.1-0.8
					C5.8,26.4,5.7,25.9,5.5,25.5z"/>
				<path id="Path_978_1_" class="st3" d="M5.2,31.1l-4.6-0.5c-0.1,0-0.3,0-0.4,0.1c-0.1,0.1-0.2,0.2-0.2,0.4v0.6
					c0,0.3,0.2,0.5,0.4,0.5l1.7,0.2v2.4l-1.6-0.3c-0.3,0-0.5,0.1-0.6,0.4c0,0,0,0.1,0,0.1v0.6c0,0.2,0.2,0.4,0.4,0.5l4.6,0.8
					c0,0,0.1,0,0.1,0c0.3,0,0.5-0.2,0.5-0.5v-0.6c0-0.2-0.2-0.5-0.4-0.5L3.7,35v-2.5l1.4,0.2c0.3,0,0.5-0.2,0.6-0.4c0,0,0,0,0-0.1
					v-0.6C5.7,31.3,5.5,31.1,5.2,31.1z"/>
				<path id="Path_979_1_" class="st3" d="M5.3,38.7l-4.6-1.1c-0.3-0.1-0.5,0.1-0.6,0.4c0,0,0,0.1,0,0.1v0.6c0,0.2,0.2,0.4,0.4,0.5
					l4.6,1.1c0.3,0.1,0.5-0.1,0.6-0.4c0,0,0-0.1,0-0.1v-0.6C5.7,38.9,5.5,38.7,5.3,38.7z"/>
			</g>
			<g id="Group_6159_1_" transform="translate(204.357 88.663)">
				<path id="Path_980_1_" class="st3" d="M73.2,15.7l-29.8,4c2.7-3.6,6.5-7.5,10.1-9.4c2.4-1.4,5.2-2,8-1.8
					c1.9,0.1,8.9,0.6,11.9,0.9c0.6,0,1-0.4,1.1-0.9s-0.4-1-0.9-1.1c-2.9-0.2-10-0.8-11.9-0.9c-3.2-0.3-6.3,0.4-9.1,2
					c-4.8,2.6-9.5,8.1-12.1,11.9c-0.3,0.5-0.2,1.1,0.3,1.4c0.2,0.1,0.4,0.2,0.6,0.2c0,0,0.1,0,0.1,0l32.1-4.4
					c0.5-0.1,0.9-0.6,0.9-1.1C74.2,16,73.7,15.7,73.2,15.7L73.2,15.7z"/>
				<path id="Path_981_1_" class="st3" d="M113.9,10.3c-21-3.3-57-9.1-62.4-9.9C42.6-1,30.4,1.2,23,11.6c-0.8,1.2-1.6,2.4-2.4,3.7
					c0,0,0,0,0,0c-1.5,2.5-2.6,5.2-3.2,8c0,0.3,0,0.6,0.2,0.8c1.4,1.5,3,2.8,4.9,3.7L0.8,31.9C0.3,31.9-0.1,32.5,0,33
					c0.1,0.5,0.5,0.9,1,0.8c0.1,0,0.1,0,0.2,0L26,29.1c3.7,1.1,7.5,1.6,11.3,1.6l-13.8,3.7c-0.5,0.1-0.9,0.7-0.7,1.2
					c0.1,0.5,0.5,0.8,1,0.8c0.1,0,0.2,0,0.3,0L114,12.2c0.5-0.1,0.9-0.7,0.7-1.2C114.6,10.6,114.3,10.3,113.9,10.3L113.9,10.3z
					 M92.1,16V8.8l8.8,1.4v3.4L92.1,16z M78.4,19.7v-2.6l9.6-1.3c0.5-0.1,0.9-0.6,0.9-1.1s-0.6-0.9-1.1-0.9l-9.4,1.3V9.8L82,10H82
					c0.6,0,1-0.4,1-1c0-0.6-0.4-1-1-1l-3.7-0.3V6.7l11.6,1.9v8.1L78.4,19.7z M24.6,12.7C33.5,0.3,48.3,1.9,51.2,2.4l2.1,0.3
					c-4.3,1-8.3,3-11.6,5.9c-0.6,0.5-1.1,1-1.7,1.5c-3.7,3.5-8,7.4-14.3,6.8c-1.1,0-2.2-0.5-3-1.3C23.2,14.7,23.9,13.8,24.6,12.7z
					 M50.3,27.2c-8.8,2.3-24.5,2.5-30.8-4.1c0.5-2,1.2-3.8,2.2-5.6c1.1,0.9,2.5,1.4,3.9,1.5c0.5,0,1,0.1,1.4,0.1
					c6.4,0,10.8-4.1,14.4-7.4c0.6-0.5,1.1-1,1.7-1.5c5.6-4.9,13.1-7,20.4-5.8h0l12.8,2c0,0,0,0.1,0,0.1v2.2c0,0,0,0,0,0
					c0,0.1,0,0.1,0,0.2v7.3c0,0.1,0,0.1,0,0.2v3.8c0,0.1,0,0.1,0,0.2l-25.9,6.9C50.4,27.2,50.4,27.2,50.3,27.2L50.3,27.2z
					 M102.9,13.1v-2.6l6,1L102.9,13.1z"/>
				<path id="Path_982_1_" class="st3" d="M31.2,21.2c-1,0.2-1.6,0.9-1.5,1.6s1.1,1,2,0.8s1.6-0.9,1.5-1.6S32.2,21,31.2,21.2z"/>
			</g>
			<g id="Group_6162_1_" transform="translate(40.632 185.483)">
				<g id="Group_6160_1_" transform="translate(34.753 4.642)">
					<path id="Path_983_1_" class="st3" d="M7,16.5c-0.6,0-1-0.4-1-1c0-0.2,0.1-0.5,0.2-0.6c3.2-3.8,3.2-9.4,0-13.2
						C5.9,1.2,6,0.6,6.4,0.2c0.4-0.4,1.1-0.3,1.4,0.1c3.8,4.6,3.8,11.2,0,15.7C7.6,16.3,7.3,16.5,7,16.5z"/>
					<path id="Path_984_1_" class="st3" d="M4,14.2c-0.6,0-1-0.4-1-1c0-0.2,0.1-0.5,0.2-0.7c2.2-2.5,2.2-6.2,0-8.7
						C2.9,3.5,2.9,2.8,3.4,2.5c0.4-0.4,1.1-0.3,1.4,0.1c2.8,3.2,2.8,8.1,0,11.3C4.6,14.1,4.3,14.2,4,14.2z"/>
					<path id="Path_985_1_" class="st3" d="M1,12c-0.6,0-1-0.4-1-1c0-0.3,0.1-0.5,0.3-0.7c1.1-1.1,1.1-3,0-4.1c-0.4-0.4-0.4-1,0-1.4
						s1-0.4,1.4,0l0,0c1.9,1.9,1.9,5,0,6.9c0,0,0,0,0,0C1.5,11.9,1.3,12,1,12z"/>
				</g>
				<g id="Group_6161_1_" transform="translate(0 4.642)">
					<path id="Path_986_1_" class="st3" d="M3.6,16.5c-0.3,0-0.6-0.1-0.8-0.4c-3.8-4.6-3.8-11.2,0-15.7c0.4-0.4,1-0.5,1.4-0.1
						c0.4,0.4,0.5,1,0.1,1.4c-3.2,3.8-3.2,9.4,0,13.2c0.4,0.4,0.3,1.1-0.1,1.4C4.1,16.4,3.8,16.5,3.6,16.5L3.6,16.5z"/>
					<path id="Path_987_1_" class="st3" d="M6.6,14.2c-0.3,0-0.6-0.1-0.8-0.3C3,10.6,3,5.8,5.8,2.6c0.4-0.4,1-0.5,1.4-0.1
						c0.4,0.4,0.5,1,0.1,1.4l0,0c-2.2,2.5-2.2,6.2,0,8.7c0.4,0.4,0.3,1-0.1,1.4C7.1,14.1,6.9,14.2,6.6,14.2z"/>
					<path id="Path_988_1_" class="st3" d="M9.6,12c-0.3,0-0.5-0.1-0.7-0.3C7,9.8,7,6.7,8.9,4.8c0,0,0,0,0,0c0.4-0.4,1-0.4,1.4,0
						s0.4,1,0,1.4c-1.1,1.1-1.1,3,0,4.1c0.4,0.4,0.4,1,0,1.4C10.1,11.9,9.9,12,9.6,12L9.6,12z"/>
				</g>
				<path id="Path_989_1_" class="st3" d="M39.7,87h-7.8l-3-41.3c3,0.5,5.8-1.5,6.3-4.4c0.5-3-1.5-5.8-4.4-6.3
					c-0.9-0.1-1.7-0.1-2.6,0.2L27.9,32c2.8,1,5.9-0.4,7-3.2c1-2.8-0.4-5.9-3.2-7c-1.5-0.5-3.1-0.4-4.5,0.3l-0.2-2.5h3.2
					c0.6,0,1-0.4,1-1c0-0.6-0.4-1-1-1h-3.3l-0.3-4.2h3.6c0.6,0,1-0.4,1-1V3.5c0-0.6-0.4-1-1-1c-0.6,0-1,0.4-1,1v2.2h-3.2l-0.3-4.8
					c0-0.5-0.5-0.9-1-0.9h-4.1c-0.5,0-1,0.4-1,0.9l-0.3,4.8h-3.2V3.5c0-0.6-0.4-1-1-1s-1,0.4-1,1v8.9c0,0.6,0.4,1,1,1h3.6l-0.3,4.2
					h-3.3c-0.6,0-1,0.4-1,1c0,0.6,0.4,1,1,1h3.2L13.5,87H5.7c-0.6,0-1,0.4-1,1c0,0.6,0.4,1,1,1h34c0.6,0,1-0.4,1-1
					C40.7,87.4,40.3,87,39.7,87L39.7,87z M24.6,28.4c0.2,0.8,0.6,1.6,1.2,2.2l0.1,1.1h-5L24.6,28.4z M25,24.4h-3.7l3.8-3.7l0.2,3.1
					C25.2,24.1,25.1,24.2,25,24.4L25,24.4z M19.8,26.4H24l-4.4,4L19.8,26.4z M19.3,33.7h5.1L19,38.4L19.3,33.7z M18.8,41.6h5.8
					c0,0.1,0,0.1,0,0.2l-6.2,5L18.8,41.6z M18.2,49.9h7.2l-7.6,5.8L18.2,49.9z M28.4,66.1h-9.5l9-6.6L28.4,66.1z M27.7,56.7h-8.3
					l7.8-6L27.7,56.7z M17.5,58.7h8.3l-8.8,6.4L17.5,58.7z M16.8,68.1h9.5l-10,7L16.8,68.1z M28.6,68.9l0.5,7.2H18.3L28.6,68.9z
					 M27.1,47.9H20l5.4-4.4c0.4,0.6,0.9,1,1.5,1.4L27.1,47.9z M33.3,40.4c0,1.9-1.5,3.4-3.4,3.4c-1.9,0-3.4-1.5-3.4-3.4
					c0-1.9,1.5-3.4,3.4-3.4c0,0,0,0,0,0C31.7,36.9,33.3,38.5,33.3,40.4L33.3,40.4z M24.5,39.5h-4l5.7-4.9l0.1,1.6
					C25.3,37.1,24.7,38.3,24.5,39.5L24.5,39.5z M29.8,23.5c1.9,0,3.4,1.5,3.4,3.4s-1.5,3.4-3.4,3.4c-1.9,0-3.4-1.5-3.4-3.4
					C26.4,25,28,23.5,29.8,23.5L29.8,23.5z M29.2,7.7v3.7h-2.7l-0.3-3.7L29.2,7.7z M24.5,11.4h-3.6l0.3-3.7h3L24.5,11.4z M21.6,2
					h2.2l0.3,3.7h-2.7L21.6,2z M16.2,11.4V7.7h3l-0.3,3.7H16.2z M20.8,13.4h3.8l0.3,4.2h-4.4L20.8,13.4z M23.6,19.7l-3.5,3.4
					l0.2-3.4H23.6z M16.1,78h13.1l0.6,8.9H15.5L16.1,78z"/>
			</g>
			<path id="Path_990_1_" class="st3" d="M309.2,228.8c-3.3,0-6-2.7-6-6c0-0.9,0.2-1.7,0.5-2.5c0.9-2,4.3-9,4.4-9.3
				c0.1-0.1,0.1-0.2,0.1-0.3c0.2-0.5,0.8-0.7,1.3-0.5c0.2,0.1,0.4,0.3,0.5,0.5l0.1,0.3c0.1,0.3,3.5,7.3,4.4,9.3l0,0
				c0.3,0.8,0.5,1.6,0.5,2.5C315.1,226.1,312.5,228.7,309.2,228.8z M309.2,213.5c-1.1,2.2-3,6.2-3.6,7.6c-0.2,0.5-0.4,1.1-0.4,1.7
				c0,2.2,1.8,4,4,4c2.2,0,4-1.8,4-4c0-0.6-0.1-1.2-0.4-1.7C312.2,219.7,310.3,215.7,309.2,213.5L309.2,213.5z"/>
			<path id="Path_991_1_" class="st3" d="M27.3,217.3c-7.6,0-14.4,4.7-17.1,11.9l-1.8,4.8c-0.1,0.3-0.1,0.6,0.1,0.9l1.1,1.7l-3,9
				c-0.2,0.5,0.1,1.1,0.6,1.3c0.1,0,0.1,0,0.2,0l3.3,0.5l-0.3,6.2c-0.1,2.3,1.7,4.1,3.9,4.2c0.2,0,0.3,0,0.5,0
				c1.6-0.1,3.1-0.4,4.6-0.7v4.5l-1.3,0.2c-0.5,0.1-0.9,0.5-0.9,1v3.5c0,0.6,0.4,1,1,1h23.1c0.6,0,1-0.4,1-1v-7c0-0.6-0.4-1-1-1
				c-0.1,0-0.1,0-0.2,0l-1.1,0.2v-8.2c1.1-2.1,2.6-4.7,3.3-6c4.8-8.9,1.4-20-7.5-24.8C33.3,218.1,30.4,217.3,27.3,217.3L27.3,217.3z
				 M43.6,234.1l-7.1-7.1v-4.9C40.5,224.8,43.1,229.3,43.6,234.1z M40.4,265.3H19.3v-1.7l21.1-3.1V265.3z M41.7,243.3
				c-0.7,1.3-2.2,4.1-3.4,6.2c-0.1,0.1-0.1,0.3-0.1,0.5v8.7l-4.8,0.7v-12l2.8-2.8c0.2-0.2,0.3-0.4,0.3-0.7v-8.9
				c0-0.3-0.1-0.5-0.3-0.7l-6.5-6.5c0.6-1.4-0.1-2.9-1.4-3.5c-1.4-0.6-2.9,0.1-3.5,1.4c-0.6,1.4,0.1,2.9,1.4,3.5
				c0.7,0.3,1.4,0.3,2.1,0l6.2,6.2v8l-2.8,2.8c-0.2,0.2-0.3,0.4-0.3,0.7v12.7l-3.2,0.5v-14c0-0.3-0.1-0.5-0.3-0.7l-7.9-7.9
				c0.6-1.4-0.1-2.9-1.4-3.5c-1.4-0.6-2.9,0.1-3.5,1.4c-0.6,1.4,0.1,2.9,1.4,3.5c0.7,0.3,1.4,0.3,2.1,0l7.6,7.6v13.9l-4.7,0.7v-4.5
				c0-0.1,0-0.1,0-0.2c0.6-0.2,1.3-0.4,1.9-0.7c0.5-0.2,0.8-0.8,0.6-1.3s-0.8-0.8-1.3-0.6c-2.6,1-5.3,1.5-8,1.8
				c-1.1,0.1-2.1-0.8-2.2-1.9c0-0.1,0-0.2,0-0.3l0.3-7.1c0-0.5-0.4-1-0.9-1l-3-0.4l2.8-8.4c0.1-0.3,0.1-0.6-0.1-0.9l-1.1-1.6
				l1.6-4.3c0.9-2.5,2.5-4.7,4.5-6.4v3.5c0,0.3,0.1,0.5,0.3,0.7l7.9,7.9c-0.6,1.4,0,2.9,1.4,3.5c1.4,0.6,2.9,0,3.5-1.4
				c0.6-1.4,0-2.9-1.4-3.5c-0.7-0.3-1.4-0.3-2.1,0l-7.6-7.6v-4.6c4.8-3.1,10.8-3.4,15.9-1v6.5c0,0.3,0.1,0.5,0.3,0.7l8.8,8.8
				C43.4,239.2,42.7,241.4,41.7,243.3L41.7,243.3z M27.2,227.8c-0.4,0-0.8-0.4-0.8-0.8c0-0.4,0.4-0.8,0.8-0.8s0.8,0.4,0.8,0.8
				C28,227.4,27.6,227.8,27.2,227.8L27.2,227.8z M17.5,237.4c-0.4,0-0.8-0.4-0.8-0.8c0-0.4,0.4-0.8,0.8-0.8s0.8,0.4,0.8,0.8l0,0
				C18.3,237,18,237.4,17.5,237.4L17.5,237.4z M27.2,235.8c0.4,0,0.8,0.4,0.8,0.8c0,0.4-0.4,0.8-0.8,0.8c-0.4,0-0.8-0.4-0.8-0.8
				c0,0,0,0,0,0C26.4,236.2,26.7,235.8,27.2,235.8C27.2,235.8,27.2,235.8,27.2,235.8L27.2,235.8z"/>
			<g id="Group_6163_1_" transform="translate(75.951 3.321)">
				<path id="Path_992_1_" class="st3" d="M5.1,51.5h26.7c2.8,0,5.1-2.3,5.1-5.1V5.1C37,2.3,34.7,0,31.8,0H5.1C2.3,0,0,2.3,0,5.1
					v41.3C0,49.2,2.3,51.5,5.1,51.5z M35,44H2V7.6h33L35,44z M31.8,49.5H5.1c-1.7,0-3.1-1.4-3.1-3.1V46h33v0.4
					C35,48.1,33.6,49.5,31.8,49.5z M5.1,2h26.7C33.6,2,35,3.4,35,5.1v0.4H2V5.1C2,3.4,3.4,2,5.1,2z"/>
				<path id="Path_993_1_" class="st3" d="M7.1,23.3h22.8c0.6,0,1-0.4,1-1c0-0.4-0.2-0.7-0.5-0.9L19,14.4c-0.3-0.2-0.7-0.2-1.1,0
					L6.5,21.5c-0.5,0.3-0.6,0.9-0.3,1.4C6.4,23.1,6.7,23.3,7.1,23.3L7.1,23.3z M18.5,16.4l7.9,4.9H10.6L18.5,16.4z"/>
				<path id="Path_994_1_" class="st3" d="M29.9,35.1H7.1c-0.6,0-1,0.4-1,1s0.4,1,1,1h22.8c0.6,0,1-0.4,1-1S30.4,35.1,29.9,35.1z"/>
				<path id="Path_995_1_" class="st3" d="M28.1,33v-7.5c0-0.6-0.4-1-1-1c-0.6,0-1,0.4-1,1V33c0,0.6,0.4,1,1,1
					C27.6,34,28.1,33.5,28.1,33z"/>
				<path id="Path_996_1_" class="st3" d="M23.8,33v-7.5c0-0.6-0.4-1-1-1c-0.6,0-1,0.4-1,1V33c0,0.6,0.4,1,1,1
					C23.3,34,23.8,33.5,23.8,33z"/>
				<path id="Path_997_1_" class="st3" d="M19.5,33v-7.5c0-0.6-0.4-1-1-1c-0.6,0-1,0.4-1,1V33c0,0.6,0.4,1,1,1
					C19,34,19.5,33.5,19.5,33z"/>
				<path id="Path_998_1_" class="st3" d="M15.2,33v-7.5c0-0.6-0.4-1-1-1c-0.6,0-1,0.4-1,1V33c0,0.6,0.4,1,1,1
					C14.7,34,15.2,33.5,15.2,33z"/>
				<path id="Path_999_1_" class="st3" d="M10.9,33v-7.5c0-0.6-0.4-1-1-1c-0.6,0-1,0.4-1,1V33c0,0.6,0.4,1,1,1
					C10.4,34,10.9,33.5,10.9,33z"/>
				<path id="Path_1000_1_" class="st3" d="M18.5,18.1c-0.6,0-1.2,0.5-1.2,1.2s0.5,1.2,1.2,1.2c0.6,0,1.2-0.5,1.2-1.2
					S19.1,18.1,18.5,18.1L18.5,18.1z"/>
			</g>
			<path id="Path_1001_1_" class="st3" d="M1.5,101.2c0,2.3,1.9,4.2,4.2,4.2h15.7c2.3,4,7.5,5.4,11.5,3.1c1.6-0.9,2.9-2.4,3.6-4.2
				c0.2-0.5,0-1.1-0.5-1.3c-0.1,0-0.3-0.1-0.4-0.1h-6.8v-3.6h6.8c0.6,0,1-0.4,1-1c0-0.1,0-0.3-0.1-0.4c-1.7-4.3-6.7-6.4-11-4.7
				c-1.8,0.7-3.2,2-4.2,3.6H5.7C3.4,97.1,1.5,98.9,1.5,101.2z M28.7,94.8c2.1,0,4,1,5.2,2.6h-6.1c-0.6,0-1,0.4-1,1v5.6
				c0,0.6,0.4,1,1,1h6.1c-1.2,1.7-3.1,2.6-5.2,2.6c-2.5,0-4.7-1.4-5.8-3.7c-0.2-0.3-0.5-0.6-0.9-0.6H5.7c-1.2,0-2.2-1-2.2-2.2
				s1-2.2,2.2-2.2l0,0H22c0.4,0,0.7-0.2,0.9-0.6C23.9,96.2,26.2,94.8,28.7,94.8L28.7,94.8z"/>
			<path id="Path_1002_1_" class="st3" d="M136.2,28.1h-6.4l3.3-12.8c0.1-0.5-0.2-1.1-0.7-1.2c-0.4-0.1-0.9,0.1-1.1,0.4l-12.6,18.8
				c-0.3,0.5-0.2,1.1,0.3,1.4c0.2,0.1,0.4,0.2,0.6,0.2h6.4l-3.3,12.8c-0.1,0.5,0.2,1.1,0.7,1.2c0.4,0.1,0.9-0.1,1.1-0.4l12.6-18.8
				c0.3-0.5,0.2-1.1-0.3-1.4C136.6,28.2,136.4,28.1,136.2,28.1L136.2,28.1z M126.1,42.4l2.2-8.3c0.1-0.5-0.2-1.1-0.7-1.2
				c-0.1,0-0.2,0-0.3,0h-5.8l8.2-12.3l-2.2,8.3c-0.1,0.5,0.2,1.1,0.7,1.2c0.1,0,0.2,0,0.3,0h5.8L126.1,42.4z"/>
			<path id="Path_1003_1_" class="st3" d="M64,16.6c-0.5,0-0.9-0.4-0.9-0.9c0.1-2.4-1.8-4.4-4.2-4.5c-0.1,0-0.2,0-0.3,0
				c-0.5,0-0.9-0.4-1-0.9c0-0.5,0.4-0.9,0.9-1c0,0,0,0,0.1,0C60.9,9.4,63,7.5,63,5.1c0-0.1,0-0.2,0-0.3c0-0.5,0.4-0.9,0.9-0.9
				c0.5,0,0.9,0.4,0.9,0.9c-0.1,2.4,1.8,4.4,4.2,4.5c0.1,0,0.2,0,0.3,0c0.5,0,0.9,0.4,0.9,1c0,0.5-0.4,0.9-0.9,0.9
				C67,11.1,65,13,64.9,15.4c0,0.1,0,0.2,0,0.3C64.9,16.2,64.5,16.6,64,16.6z M61.9,10.2c0.8,0.5,1.5,1.2,2,2c0.5-0.8,1.2-1.5,2-2
				c-0.8-0.5-1.5-1.2-2-2C63.5,9,62.8,9.7,61.9,10.2L61.9,10.2z"/>
			<path id="Path_1004_1_" class="st3" d="M183.8,233.7c-0.5,0-0.9-0.4-0.9-0.9c0.1-2.4-1.8-4.4-4.2-4.5c-0.1,0-0.2,0-0.3,0
				c-0.5,0-0.9-0.4-0.9-1c0-0.5,0.4-0.9,0.9-0.9c2.4,0.1,4.4-1.8,4.5-4.2c0-0.1,0-0.2,0-0.3c0-0.5,0.4-0.9,0.9-0.9
				c0.5,0,0.9,0.4,0.9,0.9c-0.1,2.4,1.8,4.4,4.2,4.5c0.1,0,0.2,0,0.3,0c0.5,0,0.9,0.4,0.9,1c0,0.5-0.4,0.9-0.9,0.9
				c-2.4-0.1-4.4,1.8-4.5,4.2c0,0.1,0,0.2,0,0.3C184.7,233.3,184.3,233.7,183.8,233.7C183.8,233.7,183.8,233.7,183.8,233.7z
				 M181.8,227.3c0.8,0.5,1.5,1.2,2,2c0.5-0.8,1.2-1.5,2-2c-0.8-0.5-1.5-1.2-2-2C183.3,226.1,182.6,226.8,181.8,227.3L181.8,227.3z"
				/>
			<path id="Path_1005_1_" class="st3" d="M6.4,273.4c-0.5,0-0.9-0.4-0.9-0.9c0.1-2.4-1.8-4.4-4.2-4.5c-0.1,0-0.2,0-0.3,0
				c-0.5,0-0.9-0.4-0.9-1c0-0.5,0.4-0.9,0.9-0.9c2.4,0.1,4.4-1.8,4.5-4.2c0-0.1,0-0.2,0-0.3c0-0.5,0.4-0.9,0.9-0.9s0.9,0.4,0.9,0.9
				c-0.1,2.4,1.8,4.4,4.2,4.5c0.1,0,0.2,0,0.3,0c0.5,0,0.9,0.4,0.9,1c0,0.5-0.4,0.9-0.9,0.9c-2.4-0.1-4.4,1.8-4.5,4.2
				c0,0.1,0,0.2,0,0.3C7.3,273,6.9,273.4,6.4,273.4z M4.3,267c0.8,0.5,1.5,1.2,2,2c0.5-0.8,1.2-1.5,2-2c-0.8-0.5-1.5-1.2-2-2
				C5.8,265.8,5.2,266.5,4.3,267L4.3,267z"/>
		</g>
	</g>
</g>
</svg>
