<?xml version="1.0" encoding="utf-8"?>
<!-- Generator: Adobe Illustrator 23.0.4, SVG Export Plug-In . SVG Version: 6.00 Build 0)  -->
<svg version="1.1" id="Layer_1" xmlns="http://www.w3.org/2000/svg" xmlns:xlink="http://www.w3.org/1999/xlink" x="0px" y="0px"
	 viewBox="0 0 16 16" style="enable-background:new 0 0 16 16;" xml:space="preserve">
<style type="text/css">
	.st0{fill:#FFFFFF;}
	.st1{fill:none;}
	.st2{fill:#146BD2;}
	.st3{fill:#4389DB;}
</style>
<path class="st0" d="M8,16L8,16c-4.4,0-8-3.6-8-8l0,0c0-4.4,3.6-8,8-8l0,0c4.4,0,8,3.6,8,8l0,0C16,12.4,12.4,16,8,16z"/>
<circle id="Ellipse_236" class="st1" cx="8" cy="8" r="8"/>
<path id="Path_3081" class="st2" d="M7,11.7L4.6,9.4l0.7-0.7L7,10.3l4.7-5.6l0.8,0.6L7,11.7z"/>
<path id="Path_3082" class="st1" d="M8,16L8,16c-4.4,0-8-3.6-8-8l0,0c0-4.4,3.6-8,8-8l0,0c4.4,0,8,3.6,8,8l0,0C16,12.4,12.4,16,8,16
	z"/>
<path id="Path_3083" class="st3" d="M8,15c3.9,0,7-3.1,7-7s-3.1-7-7-7S1,4.1,1,8c0,1.9,0.7,3.7,2.1,5C4.4,14.3,6.1,15,8,15 M8,16
	c-4.4,0-8-3.6-8-8s3.6-8,8-8s8,3.6,8,8S12.4,16,8,16z"/>
</svg>
