<svg xmlns="http://www.w3.org/2000/svg" viewBox="0 0 16 16"><path fill="#414141" d="M15.984375 16h-.996094v-2.996094h-1.996093v1h-1v-1H6.003906v1h-1v-1h-.996094v1h-1v-1H1.011719V16H.015625V.03125h.996094v1.996094h1.996093v-1h1v1h.996094v-1h1v1h5.988282v-1h1v1h1.996093V.03125h.996094Zm-3.992187-4.992188h1v1h1.996093V8.015625H8v.996094H7v-.996094h-.996094v.996094h-1v-.996094h-.996094v.996094h-1v-.996094H1.011719v3.992187h1.996093v-1h1v1h.996094v-1h1v1h5.988282ZM7 6.019531h1v.996094h6.988281V3.023438h-1.996093v1h-1v-1H6.003906v1h-1v-1h-.996094v1h-1v-1H1.011719v3.992187h1.996093v-.996094h1v.996094h.996094v-.996094h1v.996094H7Zm0 0"/></svg>