<svg xmlns="http://www.w3.org/2000/svg" viewBox="0 0 16 16"><path fill="#414141" d="M.0117188 7.988281C.015625 3.578125 3.589844.00390625 8 0c4.410156.00390625 7.984375 3.578125 7.988281 7.988281C15.984375 12.402344 12.410156 15.976562 8 15.980469 3.589844 15.976562.015625 12.402344.0117188 7.988281Zm.9960932 0C1.015625 11.847656 4.140625 14.976562 8 14.980469c3.859375-.003907 6.984375-3.132813 6.992188-6.992188C14.988281 4.128906 11.859375 1.003906 8 1c-3.859375.003906-6.988281 3.128906-6.992188 6.988281ZM7.5 10.984375V8.488281H5.003906v-.996093H7.5v-2.5h1v2.5h2.496094v.996093H8.5v2.496094Zm0 0"/></svg>