<svg xmlns="http://www.w3.org/2000/svg" viewBox="7 6 18 20"><path fill="#414141" stroke="rgba(0,0,0,0)" d="M23 19.01v-3.5a1.5 1.5 0 0 0-1.5-1.5 1.471 1.471 0 0 0-1 .392 1.477 1.477 0 0 0-2 0 1.455 1.455 0 0 0-1.5-.3V10.21a1.53 1.53 0 0 0-1.8-1.171A1.5 1.5 0 0 0 14 10.51v6.718l-1.621-.928c-.02-.014-.04-.027-.061-.039l-.133-.072-.044-.021c-.051-.025-.114-.055-.14-.065a1.5 1.5 0 0 0-1.938.86 1.477 1.477 0 0 0 .791 1.9l2.289 1.327A5 5 0 0 0 23 19.01ZM17.99 23a4 4 0 0 1-3.919-3.25.49.49 0 0 0-.235-.311l-.709-.408-1.773-1.021-.068-.039a.5.5 0 0 1 .18-.968.484.484 0 0 1 .168.03s.068.035.1.049l2.528 1.428a.5.5 0 0 0 .679-.2.508.508 0 0 0 .059-.242V10.51a.5.5 0 0 1 1 0v6.5h1v-1.5a.5.5 0 1 1 1 0v1.5h1v-1.5a.5.5 0 1 1 1 0v1.5h1v-1.5a.5.5 0 1 1 1 0v3.5A4 4 0 0 1 17.992 23Z"/><path fill="#414141" d="M11.0000991821 13h-.9998931884v-1.9997558594H8.000389099v-.9999389648h1.9998168946V7.999633789h.9998931884v2.0006713867h1.9998016358v.9999389648H11.000099182V13Z"/></svg>