<svg xmlns="http://www.w3.org/2000/svg" viewBox="7 6 18 20"><path fill="#414141" d="M23 19.01v-3.5a1.5 1.5 0 0 0-1.5-1.5 1.47 1.47 0 0 0-1 .4 1.48 1.48 0 0 0-2 0 1.46 1.46 0 0 0-1.5-.3v-3.9a1.53 1.53 0 0 0-1.8-1.17A1.5 1.5 0 0 0 14 10.5v6.72l-1.62-.93a.79.79 0 0 0-.06-.04l-.14-.07-.04-.02a2.53 2.53 0 0 0-.14-.07 1.5 1.5 0 0 0-1.94.86 1.48 1.48 0 0 0 .8 1.9l2.28 1.33A5 5 0 0 0 23 19.01ZM17.99 23a4 4 0 0 1-3.92-3.25.49.49 0 0 0-.23-.31l-.71-.4L11.35 18l-.06-.04a.5.5 0 0 1 .18-.97.48.48 0 0 1 .16.03s.07.04.1.05l2.53 1.43a.5.5 0 0 0 .68-.2.5.5 0 0 0 .06-.24V10.5a.5.5 0 0 1 1 0V17h1v-1.5a.5.5 0 1 1 1 0V17h1v-1.5a.5.5 0 1 1 1 0V17h1v-1.5a.5.5 0 1 1 1 0V19a4 4 0 0 1-4 4ZM11 13h-1v-2H8v-1h2V8h1v2h2v1h-2v2Z"/></svg>