<svg xmlns="http://www.w3.org/2000/svg" viewBox="0 0 16 16"><path fill="#414141" d="M13.99545 11.9943V8a5.884 5.884 0 00-4-5.666v-.2496A2.04829 2.04829 0 008.64737.10308 2.0067 2.0067 0 005.99545 2v.334a5.884 5.884 0 00-4 5.666v3.9943h-2v1h6v.92143A2.04816 2.04816 0 007.34369 15.897 2.0067 2.0067 0 009.99545 14v-1.0057h6v-1zm-7-9.9943a1 1 0 012 0v.086a5.85578 5.85578 0 00-2 0zm2 12a1 1 0 01-2 0v-1.0057h2zm4-2.0057h-10V8.18256A5.12136 5.12136 0 016.96152 3.098a5.00551 5.00551 0 016.03393 4.8963z"/></svg>