<svg xmlns="http://www.w3.org/2000/svg" viewBox="8 8 15 16"><path fill="#414141" d="M17.88 18.75a6 6 0 0 1-3.78 1.35 6 6 0 0 1-3.33-1.01 6 6 0 0 1-2.21-2.7 6 6 0 0 1-.34-3.46 6 6 0 0 1 1.64-3.07 6 6 0 0 1 3.07-1.64 6 6 0 0 1 3.47.34 6 6 0 0 1 2.69 2.2 6 6 0 0 1 1.01 3.34 6 6 0 0 1-1.5 3.95l4.57 4.57-.71.7Zm-1.86-.02a9 9 0 0 0 1.63-1.08 9 9 0 0 0 1.08-1.63 5 5 0 0 0 .37-1.92 5 5 0 0 0-.37-1.92 5 5 0 0 0-1.08-1.63 5 5 0 0 0-1.63-1.08 5 5 0 0 0-1.92-.37 5 5 0 0 0-1.92.37 5 5 0 0 0-1.63 1.08 5 5 0 0 0-1.08 1.63 5 5 0 0 0-.37 1.92 5 5 0 0 0 .37 1.92 5 5 0 0 0 1.08 1.63 5 5 0 0 0 1.63 1.08 5 5 0 0 0 1.92.37 5 5 0 0 0 1.92-.37"/><path fill="#414141" d="m15 17.12-2-4-.7 1.38H10v-1h1.7l1.3-2.62 2 4 .7-1.38H18v1h-1.7Z"/></svg>