<svg xmlns="http://www.w3.org/2000/svg" viewBox="0 0 16 16"><path fill="#414141" d="M11.55448 0a4.57241 4.57241 0 00-2.89664 1.31772 3.38307 3.38307 0 00-1.04092 2.66662 3.85175 3.85175 0 002.92-1.21635A3.59137 3.59137 0 0011.55448 0zm-.49902 4.02358c-1.3174 0-2.25846.71733-2.87325.71733-.62477 0-1.55756-.70954-2.63543-.70954a3.91784 3.91784 0 00-3.2904 2.03116c-1.39725 2.40926-.3611 5.97727.99024 7.9414C3.90931 14.974 4.70671 16 5.78459 16c.98805-.03593 1.32093-.60038 2.51458-.60038 1.20163 0 1.55756.60038 2.63544.60038s1.733-.9889 2.39372-1.961a8.568 8.568 0 001.07991-2.23A3.5184 3.5184 0 0112.303 8.6044a3.58657 3.58657 0 011.70367-3.0058 3.68038 3.68038 0 00-2.83036-1.575z"/></svg>