<svg xmlns="http://www.w3.org/2000/svg" viewBox="0 0 16 16"><path fill="#414141" d="M10.53389 2.768a3.853 3.853 0 0 1-2.92 1.216 3.383 3.383 0 0 1 1.041-2.667 4.572 4.572 0 0 1 2.9-1.317 3.589 3.589 0 0 1-1.021 2.768zm.522 1.251c-1.317 0-2.258.718-2.873.718s-1.557-.71-2.635-.71a3.917 3.917 0 0 0-3.291 2.031c-1.4 2.409-.361 5.977.991 7.942.662.97 1.46 2 2.538 2 .988-.036 1.321-.6 2.514-.6s1.558.6 2.636.6 1.733-.989 2.393-1.961a8.5542 8.5542 0 0 0 1.08-2.23 3.52 3.52 0 0 1-2.1-3.205 3.587 3.587 0 0 1 1.7-3.006 3.681 3.681 0 0 0-2.831-1.575z"/></svg>