<svg xmlns="http://www.w3.org/2000/svg" viewBox="0 0 16 16"><path fill="#414141" d="M16 3H8L6 1H0v14h.89a5.43 5.43 0 0 0-.29 1h10.8a5.43 5.43 0 0 0-.3-1H16zM2 15a4.46 4.46 0 0 1 8 0zm4-4a2 2 0 1 1 2-2 2 2 0 0 1-2 2zm4.58 3a5.55 5.55 0 0 0-2.6-2.12A3.98 3.98 0 0 1 14.95 14zM9 8.98a2.5 2.5 0 0 0 .77.68 4.96 4.96 0 0 0-.95.35A2.96 2.96 0 0 0 9 9zm.5-1.48A1.5 1.5 0 1 1 11 9a1.5 1.5 0 0 1-1.5-1.5zm5.5 4.03a5.03 5.03 0 0 0-2.76-1.87A2.5 2.5 0 1 0 8.5 7.37a3 3 0 1 0-3.85 4.3A5.52 5.52 0 0 0 1.42 14H1V2h4.59l1.7 1.7.3.3H15z"/></svg>