<svg xmlns="http://www.w3.org/2000/svg" viewBox="0 0 16 16"><path fill="#414141" d="M16 3H8L6 1H0v14h.888A5.42744 5.42744 0 00.6 16h10.8a5.42727 5.42727 0 00-.292-1H16zM1.995 15A4.458 4.458 0 0110 15zm7-6.017a2.493 2.493 0 00.765.676 4.95884 4.95884 0 00-.951.354A2.96593 2.96593 0 009 9zM11 9a1.5 1.5 0 111.5-1.5A1.5 1.5 0 0111 9zm-5 2a2 2 0 112-2 2 2 0 01-2 2zm4.584 3a5.549 5.549 0 00-2.6-2.122A3.985 3.985 0 0114.949 14zM15 11.531a5.026 5.026 0 00-2.764-1.871 2.493 2.493 0 10-3.723-2.288 2.994 2.994 0 10-3.852 4.3A5.522 5.522 0 001.416 14H1V2h4.586l1.707 1.707.293.293H15z"/></svg>