<svg xmlns="http://www.w3.org/2000/svg" viewBox="0 0 16 16"><path fill="#414141" d="M16 3H8L6 1H0v14h.888A5.42736 5.42736 0 0 0 .6 16h10.8a5.427 5.427 0 0 0-.292-1H16zM1.995 15A4.458 4.458 0 0 1 10 15zM6 11a2 2 0 1 1 2-2 2.00006 2.00006 0 0 1-2 2zm4.584 3a5.54966 5.54966 0 0 0-2.6-2.12207A3.985 3.985 0 0 1 14.949 14zM8.995 8.98291a2.49239 2.49239 0 0 0 .765.676 4.96276 4.96276 0 0 0-.951.354A2.96468 2.96468 0 0 0 9 9zM9.5 7.5A1.5 1.5 0 1 1 11 9a1.5 1.5 0 0 1-1.5-1.5zm5.5 4.031a5.02581 5.02581 0 0 0-2.764-1.8711 2.493 2.493 0 1 0-3.723-2.28783A2.994 2.994 0 1 0 4.661 11.672 5.522 5.522 0 0 0 1.416 14H1V2h4.586l1.707 1.707.293.293H15z"/></svg>