<svg xmlns="http://www.w3.org/2000/svg" viewBox="8 8 16 16"><path fill="#414141" d="M15.46 19.98v-.6a6.65 6.65 0 0 1-1.38-.5l.42-.91a3.96 3.96 0 0 0 1.64.48 1.08 1.08 0 0 0 .5-.11.85.85 0 0 0 .34-1.01 1.57 1.57 0 0 0-.75-.72c-.15-.08-.3-.16-.47-.23a3.4 3.4 0 0 1-1.43-1 1.81 1.81 0 0 1-.15-1.91 1.89 1.89 0 0 1 1.3-.9V12h1v.57a5.89 5.89 0 0 1 1.48.57l-.44.9a4.19 4.19 0 0 0-1.44-.5 1.08 1.08 0 0 0-1.02.42.82.82 0 0 0 .08.83 2.62 2.62 0 0 0 1.04.69c.18.08.35.16.53.26a2.51 2.51 0 0 1 1.2 1.22 1.85 1.85 0 0 1-.79 2.26 1.93 1.93 0 0 1-.65.22v.55Z"/><path fill="#414141" d="M15.37 23.98h-.06l-.35-.04-.52-.09q-.26-.05-.51-.12a7.98 7.98 0 0 1-1.93-.8 7.93 7.93 0 0 1-.87-.58 8.12 8.12 0 0 1-1.48-1.48 8 8 0 0 1-.58-.87 7.93 7.93 0 0 1-.8-1.92l-.12-.51q-.05-.25-.08-.52A8.37 8.37 0 0 1 8 16a8.4 8.4 0 0 1 .07-1.05 8 8 0 0 1 .2-1.02 7.94 7.94 0 0 1 .8-1.93 8.04 8.04 0 0 1 .58-.87l.2-.24.03-.04.03-.04.07-.08.01-.01a7.99 7.99 0 0 1 1.57-1.37q.21-.15.44-.28a8.05 8.05 0 0 1 1.93-.8 8 8 0 0 1 1.03-.2 8 8 0 0 1 .96-.07H16a8 8 0 0 1 1.05.07l-.13 1A6.95 6.95 0 0 0 16 9h-.8l-.11.02a7 7 0 0 0-2.98 1.12 7.6 7.6 0 0 0-.37.27 7.09 7.09 0 0 0-1.3 1.3 7.01 7.01 0 0 0-.9 1.57 7 7 0 0 0-.53 2.3v.71a7 7 0 0 0 .13 1.04 6.99 6.99 0 0 0 1.91 3.58 7 7 0 0 0 3.59 1.92 6.98 6.98 0 0 0 .91.12h.72a7 7 0 0 0 2.41-.52 7 7 0 0 0 1.8-1.08l.04-.04.02-.01a7.08 7.08 0 0 0 1.02-1.07q.14-.18.26-.38A7 7 0 0 0 23 16.03v-.06a7 7 0 0 0-.06-.92l1-.13A8.4 8.4 0 0 1 24 16v.33l-.02.28-.04.44a8.03 8.03 0 0 1-.2 1.02 7.93 7.93 0 0 1-.8 1.93q-.13.23-.28.45t-.3.42l-.02.03-.05.06-.01.02a8 8 0 0 1-.99 1.04l-.09.07-.04.04-.02.02-.25.2a8 8 0 0 1-.87.58 7.94 7.94 0 0 1-1.93.8 8 8 0 0 1-1.03.2q-.22.03-.45.04-.3.03-.6.03-.33 0-.64-.02Zm6.7-11.48.86-.5a7.94 7.94 0 0 1 .8 1.93l-.96.26a6.98 6.98 0 0 0-.7-1.69Zm-1.8-2.05.6-.8a8.04 8.04 0 0 1 1.49 1.48l-.8.61a7.07 7.07 0 0 0-1.3-1.3Zm-2.45-1.21.26-.97a8.01 8.01 0 0 1 1.93.8l-.5.87a6.93 6.93 0 0 0-1.7-.7Z"/></svg>