<svg xmlns="http://www.w3.org/2000/svg" viewBox="0 0 15 16"><path fill="#414141" d="M4.554688 15.988281c-1.140626-.015625-2.226563-.488281-3.015626-1.3125-.871093-.855469-1.355468-2.03125-1.339843-3.253906.015625-1.222656.535156-2.386719 1.429687-3.21875l6.945313-7.058594C9.234375.421875 10.171875.015625 11.152344.0195312 12 .0546875 12.800781.414062 13.390625 1.027344c.652344.652344 1.007813 1.546875.984375 2.46875-.023438.925781-.421875 1.800781-1.101562 2.421875l-6.988282 7.097656c-.34375.414063-.847656.664063-1.386718.691406-.535157.023438-1.058594-.179687-1.441407-.5625-.355469-.355469-.550781-.839843-.550781-1.339843.011719-.582032.253906-1.132813.675781-1.53125L8.617188 5.15625l.707031.71875-5.035157 5.113281c-.230468.210938-.367187.503907-.382812.816407 0 .234374.089844.457031.257812.621093.195313.191407.464844.285157.738282.261719.269531-.027344.515625-.167969.675781-.386719l6.988281-7.101562c.519532-.480469.816406-1.160157.816406-1.871094-.023437-.597656-.273437-1.164063-.699218-1.585937-.449219-.46875-1.078125-.726563-1.730469-.703126-.648437.023438-1.257813.320313-1.675781.820313L2.332031 8.917969c-.710937.640625-1.121093 1.546875-1.136719 2.5-.019531.957031.363282 1.875 1.046876 2.539062.578124.609375 1.367187.972657 2.207031 1.011719.992187.003906 1.941406-.421875 2.59375-1.171875.933593-.949219 2.421875-2.445313 3.839843-3.871094 1.285157-1.289062 2.515626-2.523437 3.226563-3.246093l.703125.714843c-.710938.722657-1.941406 1.960938-3.226562 3.253907-1.417969 1.425781-2.902344 2.917968-3.835938 3.867187-.820312.910156-1.972656 1.441406-3.195312 1.472656Zm0 0"/></svg>