<svg xmlns="http://www.w3.org/2000/svg" viewBox="0 0 15 16"><path fill="#414141" d="M4.55 15.99a4.3 4.3 0 0 1-3.01-1.31 4.5 4.5 0 0 1 .09-6.48l6.94-7.06A3.5 3.5 0 0 1 11.15.02a3.37 3.37 0 0 1 2.12 5.9l-6.98 7.1a1.9 1.9 0 0 1-2.83.13 2 2 0 0 1-.55-1.35c0-.58.25-1.13.67-1.53l5.04-5.11.7.71L4.3 11c-.23.2-.37.5-.38.81q0 .37.25.63a.94.94 0 0 0 1.42-.13l6.99-7.1c.52-.48.81-1.16.81-1.87a2.4 2.4 0 0 0-.7-1.59 2.3 2.3 0 0 0-3.4.12L2.33 8.92a3.44 3.44 0 0 0-.09 5.04c.58.6 1.37.97 2.2 1 1 .01 1.95-.41 2.6-1.16l3.84-3.87 3.23-3.25.7.71c-.7.73-1.94 1.97-3.22 3.26l-3.84 3.87a4.5 4.5 0 0 1-3.2 1.47m0 0"/></svg>