<svg xmlns="http://www.w3.org/2000/svg" viewBox="0 0 15 15"><path fill="#414141" d="M10.475 1.817c-1.802.025-3.458.124-4.166.247a9.845 9.845 0 0 0-1.684.498c-.973.413-1.652.988-2.006 1.701-.426.858-.738 2.473-.922 4.774a58.074 58.074 0 0 0-.04 2.057L1.645 12.8h.805l.004-.481c.003-.265.007-.971.009-1.569.002-.598.017-1.279.033-1.512.132-1.885.412-3.561.731-4.377.37-.948 1.234-1.55 2.786-1.943a5.62 5.62 0 0 1 1.037-.179c.893-.094 2.041-.137 4.141-.156l1.729-.016.018-.356c.01-.196.01-.369.001-.384-.016-.025-1.079-.03-2.464-.01M.325 8.075v6.175h13.05v-.775H1.15V1.9H.325v6.175"/></svg>