<svg xmlns="http://www.w3.org/2000/svg" viewBox="0 0 16 16"><g fill="#414141"><path d="M13.984375 9.058594V6.710938c-.011719-2.316407-1.707031-4.277344-3.996094-4.625v-.070313c0-1.101563-.894531-1.9960938-2-1.9960938-1.101562 0-1.996093.8945308-1.996093 1.9960938v.0625C3.710938 2.375 2.003906 4.3125 1.996094 6.613281v2.445313C.835938 9.296875 0 10.320312 0 11.503906v2c0 1.183594.835938 2.207032 1.996094 2.445313V16h11.988281v-.050781c1.160156-.238281 1.996094-1.261719 1.996094-2.445313v-2c0-1.183594-.835938-2.207031-1.996094-2.445312ZM7.988281 1.019531c.554688 0 1 .445313 1 .996094H6.992188c0-.550781.445312-.996094.996093-.996094ZM1 13.503906v-2c0-.632812.398438-1.199218.996094-1.410156v4.820312C1.398438 14.703125 1 14.136719 1 13.503906ZM12.984375 15H2.996094V6.613281c0-1.988281 1.609375-3.597656 3.59375-3.597656h2.699218c2.039063.003906 3.691407 1.65625 3.695313 3.695313Zm1.996094-1.496094c0 .632813-.398438 1.199219-.996094 1.410156V10.09375c.597656.210938.996094.777344.996094 1.410156Zm0 0"/><path d="M7.492188 7.011719h.996093c.828125 0 1.5-.671875 1.5-1.5 0-.824219-.671875-1.496094-1.5-1.496094h-.996093c-.828126 0-1.5.671875-1.5 1.496094 0 .828125.671874 1.5 1.5 1.5Zm0-1.996094h.996093c.277344 0 .5.222656.5.496094 0 .277343-.222656.5-.5.5h-.996093c-.277344 0-.5-.222657-.5-.5 0-.273438.222656-.496094.5-.496094Zm-3.496094 5.992187c0 1.652344 1.339844 2.996094 2.996094 2.996094h1.996093c1.65625 0 2.996094-1.34375 2.996094-2.996094V8.011719H3.996094Zm.996094-2h3.996093v1.5h1v-1.5h.996094v2c0 1.101563-.890625 1.996094-1.996094 1.996094H6.992188c-1.105469 0-2-.894531-2-1.996094Zm0 0"/></g></svg>