<svg xmlns="http://www.w3.org/2000/svg" viewBox="0 0 21 16"><path fill="#414141" d="M17.0625 8c-.441406.003906-.878906.085938-1.296875.242188L11.28125 0H7.875v1.332031H10.5l2.933594 5.394531H8.378906l-1.429687-2.625H3.9375v1.332032h2.230469l2.839843 5.210937H7.613281c-.71875-1.921875-2.761719-2.964843-4.710937-2.410156-1.945313.558594-3.148438 2.539063-2.773438 4.554687.378906 2.019532 2.214844 3.410157 4.226563 3.207032C6.367188 15.789062 7.890625 14.054688 7.867188 12v-.019531h2.980468l3.007813-4.492188.765625 1.398438c-1.484375 1.222656-1.882813 3.351562-.949219 5.039062.9375 1.691407 2.9375 2.449219 4.734375 1.796875 1.796875-.652344 2.867188-2.527344 2.535156-4.4375C20.609375 9.375 18.972656 7.988281 17.0625 8M6.554688 12c.011718 1.351562-.960938 2.503906-2.277344 2.695312-1.316406.191407-2.570313-.636718-2.929688-1.9375-.359375-1.300781.28125-2.671874 1.503906-3.207031 1.222657-.53125 2.644532-.066406 3.328126 1.09375H3.9375v1.335938h2.613281V12m3.796875-1.648438L9.101562 8.058594h2.78125Zm6.714844 4.316407c-1.074219.003906-2.042969-.664063-2.441406-1.675781-.394532-1.015626-.144532-2.171876.640625-2.921876l1.226562 2.253907 1.148438-.648438-1.230469-2.25c.988281-.269531 2.042969.066407 2.699219.867188.65625.796875.792969 1.910156.355469 2.847656-.4375.941406-1.375 1.535156-2.398438 1.527344"/></svg>