<svg xmlns="http://www.w3.org/2000/svg" viewBox="0 0 21 16"><path fill="#414141" d="M17.06 8q-.66 0-1.3.24L11.29 0h-3.4v1.33h2.62l2.93 5.4H8.38L6.95 4.1H3.94v1.33h2.23L9 10.64H7.6A3.9 3.9 0 0 0 .13 12.8 3.9 3.9 0 0 0 4.36 16a3.95 3.95 0 0 0 3.5-4v-.02h2.99l3-4.5.77 1.4a4 4 0 0 0-.95 5.05 3.9 3.9 0 0 0 4.74 1.8A3.98 3.98 0 0 0 17.06 8m-10.5 4a2.7 2.7 0 0 1-2.28 2.7 2.65 2.65 0 0 1-2.93-1.94 2.7 2.7 0 0 1 1.5-3.2 2.64 2.64 0 0 1 3.33 1.08H3.94v1.34h2.61zm3.8-1.65L9.1 8.05h2.78Zm6.71 4.32a2.6 2.6 0 0 1-2.44-1.68 2.7 2.7 0 0 1 .64-2.92l1.23 2.25 1.15-.64-1.23-2.25a2.6 2.6 0 0 1 2.7.86c.65.8.79 1.91.35 2.85a2.6 2.6 0 0 1-2.4 1.53"/></svg>