<svg xmlns="http://www.w3.org/2000/svg" viewBox="0 0 16 16"><path fill="none" stroke="#414141" stroke-miterlimit="10" stroke-width="3" d="M-7.5-6.5h29v29h-29z"/><path fill="#414141" d="M13 8a2.97986 2.97986 0 0 0-.7511.10645L12 7.67529 11.61011 7l-.21405-.37085-.5517-.95557L9.30072 3l-.57733-1H6v1h2.146l2.06549 3.57764L10.45538 7H6.61017L6 5.94312 5.45544 5H3v1h1.87811L6 7.94312 6.03278 8l1.15472 2H5.81628A2.97118 2.97118 0 1 0 6 11h2.33557l.22772-.3252.09235-.13183L9 10.051 10.43622 8l.327-.467.2696.467.29443.51A2.99961 2.99961 0 1 0 13 8zM3 13a2 2 0 1 1 1.7226-3H3v1h2a2.00006 2.00006 0 0 1-2 2zm5.10394-3.4126L7.1875 8h2.02789zM13 13a1.9958 1.9958 0 0 1-1.16864-3.6167l.99225 1.71851.866-.5-.91187-1.57935A1.96286 1.96286 0 0 1 13 9a2 2 0 0 1 0 4z"/></svg>