<svg xmlns="http://www.w3.org/2000/svg" viewBox="0 0 16 16"><path fill="#414141" d="M15.8135 10.47511l-1.8-7a2.50955 2.50955 0 00-5.01806.1v3.4196h-2V3.57515a2.50955 2.50955 0 00-5.01807-.1l-1.8 7a3.477 3.477 0 006.64612 2.04627 5.09526 5.09526 0 00.17194-1.52667h2a5.09554 5.09554 0 00.17193 1.52667 3.477 3.477 0 006.64612-2.04627zM3.61184 13.97273q-.05814.00266-.11639.00238a2.476 2.476 0 01-2.5-2.45172c-.00019-.01611-.00019-.03216 0-.04828v-.4l.1-.4a2.46 2.46 0 014.8.8 2.393 2.393 0 01-2.28361 2.49762zm2.38361-4.89758a3.25 3.25 0 00-2.5-1.1 3.45338 3.45338 0 00-1.8.5l1.3-4.9v-.1a1.5 1.5 0 013 0zm3 .91956h-2v-2h2zm1-6.5196a1.5 1.5 0 113 0v.1l1.3 4.9a3.45337 3.45337 0 00-1.8-.5 3.25 3.25 0 00-2.5 1.1zm5 8c.00018.01612.00018.03217 0 .04828a2.476 2.476 0 01-2.5 2.45172q-.05823.00028-.1164-.00238a2.393 2.393 0 01-2.28357-2.49762 2.46 2.46 0 014.8-.8l.1.4z"/></svg>