<svg xmlns="http://www.w3.org/2000/svg" viewBox="0 0 16 16"><path fill="#414141" d="M15.85815 10.56665h.01368l-1.91626-7.00757A2.49715 2.49715 0 0 0 9 4v3H7V4a2.49715 2.49715 0 0 0-4.95557-.44092L.12817 10.56665h.01368A3.46431 3.46431 0 0 0 0 11.5a3.5 3.5 0 0 0 7 0V10h2v1.5a3.5 3.5 0 0 0 7 0 3.46431 3.46431 0 0 0-.14185-.93335zM3.5 14A2.5 2.5 0 1 1 6 11.5 2.50008 2.50008 0 0 1 3.5 14zM6 5.98877v3.06689a3.46 3.46 0 0 0-4.303-.5415l.83-2.99516.50281-1.81445.0119-.043A1.49832 1.49832 0 0 1 6 4zM9 9H7V8h2zm1-3.01123V4a1.49832 1.49832 0 0 1 2.95831-.33838l.0119.043L13.473 5.519l.83 2.99512A3.46 3.46 0 0 0 10 9.05566zM12.5 14a2.5 2.5 0 1 1 2.5-2.5 2.5 2.5 0 0 1-2.5 2.5z"/></svg>