<svg xmlns="http://www.w3.org/2000/svg" viewBox="0 0 16 16"><path fill="#414141" d="m15.86 10.57-1.91-7.01A2.5 2.5 0 0 0 9 4v3H7V4a2.5 2.5 0 0 0-4.96-.44l-1.91 7h.01a4 4 0 0 0-.14.94 3.5 3.5 0 0 0 7 0V10h2v1.5a3.5 3.5 0 0 0 7 0 4 4 0 0 0-.14-.93M3.5 14A2.5 2.5 0 1 1 6 11.5 2.5 2.5 0 0 1 3.5 14M6 5.99v3.07a3.46 3.46 0 0 0-4.3-.55l.83-3 .5-1.8.01-.05A1.5 1.5 0 0 1 6 4zM9 9H7V8h2zm1-3.01V4a1.5 1.5 0 0 1 2.96-.34l.01.04.5 1.82.83 3a3.46 3.46 0 0 0-4.3.54zM12.5 14a2.5 2.5 0 1 1 2.5-2.5 2.5 2.5 0 0 1-2.5 2.5"/></svg>