<svg xmlns="http://www.w3.org/2000/svg" viewBox="0 0 16 16"><path fill="#414141" d="M16 6.86026h-1V0L8.98978 6.12793 4.70664 1.76045H1.99955V8.0679a3.06871 3.06871 0 0 0-1.82873 3.89353A2.99728 2.99728 0 0 0 2.99958 14h5.50018a2.52571 2.52571 0 0 0 2.49259-2.55751 2.55221 2.55221 0 0 0-1.49256-2.32607V7.051l4.50015-4.58983v4.39909h-1v5.09981h1V14h1v-2.03993h1zM2.99958 2.78042h1.29305l4.20713 4.291v1.8288l-5.50018-1.02zm7.00023 8.66967a1.51522 1.51522 0 0 1-1.5 1.52994H2.99958a2.04071 2.04071 0 0 1-.08-4.07984l5.40017 1.0016.09.01836h.09a1.51522 1.51522 0 0 1 1.50006 1.52994zM15 10.94011h-1V7.88022h1zM2.5 10.5h1v1h-1zM8 11h1v1H8z"/></svg>