<svg xmlns="http://www.w3.org/2000/svg" viewBox="0 0 16 16"><path fill="#414141" d="M4 2.0053h3.56a6.81 6.81 0 0 1 3.58.72 2.523 2.523 0 0 1 1.1 2.28 2.816 2.816 0 0 1-.54 1.75 2.428 2.428 0 0 1-1.56.88v.08a3.088 3.088 0 0 1 1.86.94 2.842 2.842 0 0 1 .6 1.9 3.053 3.053 0 0 1-1.13 2.53 4.9 4.9 0 0 1-3.14.92H4zm1.96 4.95h1.89a3.217 3.217 0 0 0 1.8-.39 1.52 1.52 0 0 0 .57-1.33 1.322 1.322 0 0 0-.61-1.22 3.92494 3.92494 0 0 0-1.94-.38h-1.7zm0 1.59v3.8h2.09a3.053 3.053 0 0 0 1.86-.47 1.736 1.736 0 0 0 .63-1.49 1.577 1.577 0 0 0-.64-1.39 3.4 3.4 0 0 0-1.94-.45z"/></svg>