<svg xmlns="http://www.w3.org/2000/svg" viewBox="0 0 16 16"><path fill="#414141" d="M4 2h3.56a6.81 6.81 0 0 1 3.58.73A2.52 2.52 0 0 1 12.24 5a2.82 2.82 0 0 1-.54 1.75 2.43 2.43 0 0 1-1.56.88v.08a3.09 3.09 0 0 1 1.86.94 2.84 2.84 0 0 1 .6 1.9 3.05 3.05 0 0 1-1.13 2.53 4.9 4.9 0 0 1-3.14.92H4zm1.96 4.96h1.89a3.22 3.22 0 0 0 1.8-.4 1.52 1.52 0 0 0 .57-1.32 1.32 1.32 0 0 0-.61-1.22 3.92 3.92 0 0 0-1.94-.38h-1.7zm0 1.59v3.8h2.09a3.05 3.05 0 0 0 1.86-.47 1.74 1.74 0 0 0 .63-1.5A1.58 1.58 0 0 0 9.9 9a3.4 3.4 0 0 0-1.94-.45z"/></svg>