<svg xmlns="http://www.w3.org/2000/svg" viewBox="0 0 16 16"><path fill="#414141" d="M16 15v1H0V0h1v15zM5 12.5A1.5 1.5 0 1 0 3.5 14 1.5 1.5 0 0 0 5 12.5m-1 0a.5.5 0 1 1-.5-.5.5.5 0 0 1 .5.5m6-9A1.5 1.5 0 1 0 8.5 5 1.5 1.5 0 0 0 10 3.5m-1 0a.5.5 0 1 1-.5-.5.5.5 0 0 1 .5.5M16 2a2 2 0 1 0-2 2 2 2 0 0 0 2-2m-1 0a1 1 0 1 1-1-1 1 1 0 0 1 1 1m-1 5a2 2 0 1 0-2 2 2 2 0 0 0 2-2m-1 0a1 1 0 1 1-1-1 1 1 0 0 1 1 1m-2 4.5A1.5 1.5 0 1 0 9.5 13a1.5 1.5 0 0 0 1.5-1.5m-1 0a.5.5 0 1 1-.5-.5.5.5 0 0 1 .5.5M8 8a2 2 0 1 0-2 2 2 2 0 0 0 2-2M7 8a1 1 0 1 1-1-1 1 1 0 0 1 1 1"/></svg>