<svg xmlns="http://www.w3.org/2000/svg" viewBox="0 0 16 16"><path fill="#414141" d="M16 15v1H0V0h1v15zM5 12.5A1.5 1.5 0 103.5 14 1.5 1.5 0 005 12.5zm-1 0a.5.5 0 11-.5-.5.5.5 0 01.5.5zm6-9A1.5 1.5 0 108.5 5 1.5 1.5 0 0010 3.5zm-1 0a.5.5 0 11-.5-.5.5.5 0 01.5.5zM16 2a2 2 0 10-2 2 2 2 0 002-2zm-1 0a1 1 0 11-1-1 1 1 0 011 1zm-1 5a2 2 0 10-2 2 2 2 0 002-2zm-1 0a1 1 0 11-1-1 1 1 0 011 1zm-2 4.5A1.5 1.5 0 109.5 13a1.5 1.5 0 001.5-1.5zm-1 0a.5.5 0 11-.5-.5.5.5 0 01.5.5zM8 8a2 2 0 10-2 2 2 2 0 002-2zM7 8a1 1 0 11-1-1 1 1 0 011 1z"/></svg>