<svg xmlns="http://www.w3.org/2000/svg" viewBox="0 0 21 16"><path fill="#414141" d="M20.992188 6.496094 17.441406 0H.0546875v13.992188H2.71875C3.007812 15.171875 4.050781 16 5.246094 16c1.195312.003906 2.242187-.820312 2.535156-2h5.4375c.296875 1.175781 1.335938 2 2.53125 2s2.238281-.824219 2.53125-2h2.710938Zm-4.324219-5.164063 2.914062 5.335938H14.4375V1.332031Zm-8.792969 0h5.25v5.335938h-5.25ZM6.5625 6.667969H1.367188V1.332031H6.5625Zm-1.3125 8c-.726562 0-1.3125-.597657-1.3125-1.335938C3.9375 12.597656 4.523438 12 5.25 12s1.3125.597656 1.3125 1.332031c0 .738281-.585938 1.335938-1.3125 1.335938m10.5 0c-.726562 0-1.3125-.597657-1.3125-1.335938C14.4375 12.597656 15.023438 12 15.75 12s1.3125.597656 1.3125 1.332031c0 .738281-.585938 1.335938-1.3125 1.335938m2.53125-2c-.292969-1.179688-1.335938-2.003907-2.53125-2.003907s-2.238281.824219-2.53125 2.003907h-5.4375c-.292969-1.175781-1.332031-2-2.527344-2-1.191406-.003907-2.234375.816406-2.53125 1.992187H1.367188V8h18.3125v4.667969Zm0 0"/></svg>