<svg xmlns="http://www.w3.org/2000/svg" viewBox="0 0 16 16"><path fill="none" stroke="#414141" stroke-miterlimit="10" stroke-width="3" d="M-7.5-6.5h29v29h-29z"/><path fill="#414141" d="M15.99878 7 13.5246 2H0v11h2.07074a1.99068 1.99068 0 0 0 3.85852 0h4.14148a1.99068 1.99068 0 0 0 3.85852 0H16V7zM11 3h1.90375l1.97931 4H11zM6 3h4v4H6zM1 3h4v4H1zm3 10.5a1 1 0 1 1 1-1 1 1 0 0 1-1 1zm8 0a1 1 0 1 1 1-1 1 1 0 0 1-1 1zm3-1.5h-1.07074a1.99068 1.99068 0 0 0-3.85852 0H5.92926a1.99068 1.99068 0 0 0-3.85852 0H1V8h14z"/></svg>