<svg xmlns="http://www.w3.org/2000/svg" viewBox="0 0 21 16"><path fill="#414141" d="M21 6.5 17.43 0H.05v14h2.67a2.6 2.6 0 0 0 5.06 0h5.44a2.6 2.6 0 0 0 5.06 0H21Zm-4.33-5.17 2.91 5.34h-5.14V1.33Zm-8.8 0h5.25v5.34H7.88Zm-1.3 5.34h-5.2V1.33h5.2Zm-1.32 8c-.73 0-1.31-.6-1.31-1.34 0-.73.58-1.33 1.31-1.33s1.31.6 1.31 1.33-.58 1.34-1.31 1.34m10.5 0c-.73 0-1.31-.6-1.31-1.34 0-.73.58-1.33 1.31-1.33s1.31.6 1.31 1.33-.58 1.34-1.31 1.34m2.53-2a2.6 2.6 0 0 0-5.06 0H7.78a2.6 2.6 0 0 0-5.06-.01H1.37V8h18.31v4.67Zm0 0"/></svg>