<svg xmlns="http://www.w3.org/2000/svg" viewBox="0 0 21 16"><path fill="#414141" d="M20.9 6.63h-3.48L14.8.01H6.04L3.4 6.63H.07V14h2.57c.3 1.18 1.34 2 2.53 2a2.6 2.6 0 0 0 2.53-2h5.44c.3 1.18 1.34 2 2.53 2a2.6 2.6 0 0 0 2.53-2h2.7ZM6.94 1.34h6.98l2.1 5.3H4.83ZM5.17 14.67c-.72 0-1.31-.6-1.31-1.34 0-.73.59-1.33 1.31-1.33.72 0 1.31.6 1.31 1.33 0 .74-.59 1.34-1.3 1.34m10.5 0c-.73 0-1.32-.6-1.32-1.34 0-.73.59-1.33 1.31-1.33.72 0 1.31.6 1.31 1.33 0 .74-.59 1.34-1.3 1.34m3.91-2H18.2c-.3-1.18-1.34-2-2.53-2a2.6 2.6 0 0 0-2.53 2H7.7c-.3-1.18-1.34-2-2.53-2a2.6 2.6 0 0 0-2.53 2H1.4v-4.7h18.2Zm0 0"/></svg>