<svg xmlns="http://www.w3.org/2000/svg" viewBox="0 0 21 16"><path fill="#414141" d="M20.90625 6.632812h-3.484375l-2.625-6.6249995H6.039062l-2.625 6.6249995H.0742188V14H2.640625c.292969 1.175781 1.335937 2 2.53125 2 1.191406 0 2.234375-.824219 2.53125-2h5.4375c.292969 1.175781 1.335937 2 2.53125 2 1.191406 0 2.234375-.824219 2.53125-2h2.703125ZM6.925781 1.34375h6.988281l2.09375 5.289062H4.832031ZM5.171875 14.667969c-.726563 0-1.3125-.597657-1.3125-1.335938 0-.734375.585937-1.332031 1.3125-1.332031.722656 0 1.3125.597656 1.3125 1.332031 0 .738281-.589844 1.335938-1.3125 1.335938m10.5 0c-.726563 0-1.3125-.597657-1.3125-1.335938 0-.734375.585937-1.332031 1.3125-1.332031.722656 0 1.3125.597656 1.3125 1.332031 0 .738281-.589844 1.335938-1.3125 1.335938m3.921875-2h-1.390625c-.296875-1.175781-1.339844-2-2.53125-2-1.195313 0-2.238281.824219-2.53125 2h-5.4375c-.296875-1.175781-1.339844-2-2.53125-2-1.195313 0-2.238281.824219-2.53125 2H1.386719V7.964844H19.59375Zm0 0"/></svg>