<svg xmlns="http://www.w3.org/2000/svg" viewBox="0 0 16 16"><path fill="none" stroke="#414141" stroke-miterlimit="10" stroke-width="3" d="M-7.5-6.5h29v29h-29z"/><path fill="#414141" d="m13.47351 7-1.81988-5h-7.3039L4 2.96094 2.52985 7H0v6h2.07074a1.99068 1.99068 0 0 0 3.85852 0h4.14148a1.99068 1.99068 0 0 0 3.85852 0H16V7zM5.04993 3h5.9035l1.45587 4H3.59406zM4 13.5a1 1 0 1 1 1-1 1 1 0 0 1-1 1zm8 0a1 1 0 1 1 1-1 1 1 0 0 1-1 1zm3-1.5h-1.07074a1.99068 1.99068 0 0 0-3.85852 0H5.92926a1.99068 1.99068 0 0 0-3.85852 0H1V8h14z"/></svg>