<svg xmlns="http://www.w3.org/2000/svg" viewBox="4 4 8 8"><path fill="#414141" d="M9.5 11.25c0-.414062.335938-.75.75-.75s.75.335938.75.75-.335938.75-.75.75-.75-.335938-.75-.75Zm.5 0c0 .136719.109375.25.25.25.136719 0 .25-.113281.25-.25 0-.136719-.113281-.25-.25-.25-.140625 0-.25.113281-.25.25Zm-4 0c0-.414062.335938-.75.75-.75s.75.335938.75.75-.335938.75-.75.75-.75-.335938-.75-.75Zm.5 0c0 .136719.109375.25.25.25.136719 0 .25-.113281.25-.25 0-.136719-.113281-.25-.25-.25-.140625 0-.25.113281-.25.25ZM5.074219 4.511719H4v-.5h1.5l.238281 1.460937h5.734375l-.5 4.5-5 .011719Zm1.324219 4.964843h4.128906l.386718-3.5H5.828125Zm0 0"/></svg>