<svg xmlns="http://www.w3.org/2000/svg" viewBox="0 0 16 16"><path fill="#414141" fill-rule="evenodd" d="M.982 1.011c-.222.045-.324.185-.325.445 0 .193.061.316.197.396.088.052.148.055 1.148.068l1.056.013.106.074c.122.084.21.225.237.38.08.452 1.86 8.393 1.898 8.466.026.05.088.119.138.153l.091.061h7.664l.091-.061c.05-.033.111-.102.136-.153.045-.092 1.867-6.457 1.901-6.642.038-.207-.128-.402-.386-.451-.092-.017-1.931-.027-5.225-.027H4.626l-.075-.34c-.041-.187-.127-.584-.192-.882-.142-.651-.212-.814-.465-1.07-.194-.196-.348-.292-.611-.38-.168-.056-.223-.059-1.19-.064C1.536.994 1.036 1 .982 1.011M14.24 4.687c.001.011-.349 1.247-.776 2.746l-.777 2.727H6.059l-.015-.06c-.008-.033-.28-1.254-.604-2.713-.323-1.46-.594-2.669-.6-2.687-.009-.027.941-.033 4.694-.033 2.588 0 4.706.009 4.706.02m-8.08 6.915c-.654.169-1.169.696-1.323 1.352-.058.248-.039.753.039.993.112.35.382.708.702.933.306.215.651.32 1.043.32.512-.002.908-.166 1.274-.531.257-.255.385-.462.483-.776.051-.163.062-.258.061-.52-.001-.549-.15-.903-.544-1.296-.373-.37-.766-.531-1.295-.528-.149 0-.316.02-.44.053m5.547-.014c-.096.021-.276.087-.4.149-.184.09-.273.157-.47.354-.197.197-.263.285-.354.469-.44.9-.089 1.972.799 2.439.762.401 1.739.191 2.273-.489.25-.318.362-.623.383-1.043.017-.342-.03-.593-.165-.876-.367-.774-1.216-1.185-2.066-1.003m-4.713.953c.17.077.364.258.442.411.12.234.125.599.012.82-.124.242-.364.434-.618.494-.566.135-1.123-.308-1.123-.893 0-.4.283-.777.665-.885.18-.051.445-.029.622.053m5.368-.051c.487.13.772.633.64 1.129-.047.179-.119.293-.271.433-.151.14-.306.21-.512.232-.402.042-.758-.167-.935-.547-.098-.213-.099-.514-.001-.725.2-.429.635-.64 1.079-.522"/></svg>