<svg xmlns="http://www.w3.org/2000/svg" viewBox="0 0 16 16"><g fill="none" stroke="#414141" stroke-width=".92"><path d="M7.995828506 13.3757337421c0 .757808681-.617183728 1.374992409-1.374992409 1.374992409-.7617137581 0-1.3749914921-.617183728-1.3749914921-1.374992409 0-.7617137581.613277734-1.3788974861 1.3749914921-1.3788974861.757808681 0 1.374992409.617183728 1.374992409 1.3788974861Zm5.5005668853 0c0 .757808681-.613277734 1.374992409-1.3749914921 1.374992409-.7578077641 0-1.374992409-.617183728-1.374992409-1.374992409 0-.7617137581.6171846449-1.3788974861 1.374992409-1.3788974861.7617137581 0 1.3749914921.617183728 1.3749914921 1.3788974861Zm0 0"/><path stroke-linecap="round" stroke-linejoin="round" d="M1.1058632177 1.4530294566h1.8359262911c.4882785908.0429686847.8749949193.4296850132.917963604.917963604.0898424465.4335910072 1.8320202971 8.2499507864 1.8320202971 8.2499507864h7.3358940933l1.8320202971-6.4179304893H4.4261552512"/></g></svg>