<svg xmlns="http://www.w3.org/2000/svg" viewBox="0 0 16 16"><path fill="#414141" d="m7.664 8.582-.363-.139V6.7a5.15006 5.15006 0 0 1 1.492.354l.349-.875a5.269 5.269 0 0 0-1.841-.392V5h-.636v.8a2.549 2.549 0 0 0-1.389.52 1.346 1.346 0 0 0-.511 1.082 1.528 1.528 0 0 0 .36 1.035 2.83407 2.83407 0 0 0 1.145.72l.4.148V11.1a4.312 4.312 0 0 1-.985-.141 4.80742 4.80742 0 0 1-.961-.337v1a4.94488 4.94488 0 0 0 1.941.368V13H7.3v-1.037a2.582 2.582 0 0 0 1.463-.555 1.462 1.462 0 0 0 .511-1.143 1.363 1.363 0 0 0-.354-.947 3.325 3.325 0 0 0-1.256-.736zm-.994-.373a1.73683 1.73683 0 0 1-.614-.359.64.64 0 0 1-.17-.454.56.56 0 0 1 .2-.439 1.121 1.121 0 0 1 .583-.234zm.635 2.849V9.533a2.01 2.01 0 0 1 .648.347.6.6 0 0 1 .194.457q.001.592-.842.721zM16 1v12h-1V2H2V1h14zM0 15h14V3H0zM1 4h12v10H1z"/></svg>