<svg xmlns="http://www.w3.org/2000/svg" viewBox="0 0 16 16"><path fill="#414141" d="m7.66 8.58-.36-.14V6.7a5.15 5.15 0 0 1 1.5.35l.34-.87a5.27 5.27 0 0 0-1.84-.4V5h-.64v.8a2.55 2.55 0 0 0-1.38.52 1.35 1.35 0 0 0-.52 1.08 1.53 1.53 0 0 0 .36 1.04 2.83 2.83 0 0 0 1.15.72l.4.14v1.8a4.31 4.31 0 0 1-.98-.14 4.8 4.8 0 0 1-.97-.34v1a4.94 4.94 0 0 0 1.94.37V13h.64v-1.04a2.58 2.58 0 0 0 1.46-.55 1.46 1.46 0 0 0 .51-1.14 1.36 1.36 0 0 0-.35-.95 3.33 3.33 0 0 0-1.26-.74zm-.99-.37a1.74 1.74 0 0 1-.61-.36.64.64 0 0 1-.17-.45.56.56 0 0 1 .2-.44 1.12 1.12 0 0 1 .58-.24zm.64 2.85V9.53a2.01 2.01 0 0 1 .64.35.6.6 0 0 1 .2.46q0 .59-.85.72zM16 1v12h-1V2H2V1h14zM0 15h14V3H0zM1 4h12v10H1z"/></svg>