<svg xmlns="http://www.w3.org/2000/svg" viewBox="0 0 16 16"><path fill="#414141" d="m7.66 8.58-.36-.14V6.7a5 5 0 0 1 1.5.35l.34-.87a5 5 0 0 0-1.84-.4V5h-.64v.8a2.6 2.6 0 0 0-1.38.52 1.4 1.4 0 0 0-.52 1.08 1.5 1.5 0 0 0 .36 1.04 3 3 0 0 0 1.15.72l.4.14v1.8a4 4 0 0 1-.98-.14 5 5 0 0 1-.97-.34v1a5 5 0 0 0 1.94.37V13h.64v-1.04a2.6 2.6 0 0 0 1.46-.55 1.5 1.5 0 0 0 .51-1.14 1.4 1.4 0 0 0-.35-.95 3 3 0 0 0-1.26-.74m-.99-.37a2 2 0 0 1-.61-.36.6.6 0 0 1-.17-.45.6.6 0 0 1 .2-.44 1 1 0 0 1 .58-.24zm.64 2.85V9.53a2 2 0 0 1 .64.35.6.6 0 0 1 .2.46q0 .59-.85.72zM16 1v12h-1V2H2V1zM0 15h14V3H0zM1 4h12v10H1z"/></svg>