<svg xmlns="http://www.w3.org/2000/svg" viewBox="0 0 16 16"><path fill="#414141" d="M15 2.52h-2.5l-.5-1H4s-.4 1-.4 1.1H1a5 5 0 0 0-1 2 3 3 0 0 0 2.9 3H3a3 3 0 0 0 .9-.1 5.7 5.7 0 0 0 3.6 2v4.5H4v1h8v-1H8.5v-4.5a5 5 0 0 0 3.6-2.1 3 3 0 0 0 .9.1 3 3 0 0 0 3-2.9v-.1a4 4 0 0 0-1-2m-12 4a2 2 0 0 1-2-2 3 3 0 0 1 .5-1h1.7a4 4 0 0 0-.2 1 4 4 0 0 0 .4 1.9.6.6 0 0 1-.4.1m5.2 2A4 4 0 0 1 4 4.82v-.3a7 7 0 0 1 .6-2h6.8a7 7 0 0 1 .6 2 4.04 4.04 0 0 1-3.8 4m4.8-2a.6.6 0 0 1-.4-.1 4 4 0 0 0 .4-1.9 4 4 0 0 0-.2-1h1.7a1.4 1.4 0 0 1 .5 1 2 2 0 0 1-2 2"/></svg>