<svg xmlns="http://www.w3.org/2000/svg" viewBox="0 0 16 16"><path fill="#414141" d="M15 2.52077h-2.5l-.5-1H4s-.4 1-.4 1.1H1a5.382 5.382 0 0 0-1 2 2.989 2.989 0 0 0 2.9 3H3a2.76864 2.76864 0 0 0 .9-.1 5.684 5.684 0 0 0 3.6 2v4.5H4v1h8v-1H8.5v-4.5a5.04 5.04 0 0 0 3.6-2.1 2.76785 2.76785 0 0 0 .9.1 2.989 2.989 0 0 0 3-2.9v-.1a4.21322 4.21322 0 0 0-1-2zm-12 4a2.006 2.006 0 0 1-2-2 3.12629 3.12629 0 0 1 .5-1h1.7a3.5547 3.5547 0 0 0-.2 1 4.058 4.058 0 0 0 .4 1.9.6.6 0 0 1-.4.1zm5.2 2a4 4 0 0 1-4.2-3.7v-.3a6.63672 6.63672 0 0 1 .6-2h6.8a6.63672 6.63672 0 0 1 .6 2 4.043 4.043 0 0 1-3.8 4zm4.8-2a.6.6 0 0 1-.4-.1 4.058 4.058 0 0 0 .4-1.9 3.55247 3.55247 0 0 0-.2-1h1.7a1.38907 1.38907 0 0 1 .5 1 2.006 2.006 0 0 1-2 2z"/></svg>