<svg xmlns="http://www.w3.org/2000/svg" viewBox="0 0 16 16"><path fill="#414141" d="M15.0025 2.43756h-2.5l-.5-1h-8.005l-.5 1h-2.5a4.21308 4.21308 0 00-1 2v.1a2.989 2.989 0 003 2.9 2.76807 2.76807 0 00.9-.1 5.04007 5.04007 0 003.6 2.1L7.50208 14h-3.5v1h7.99584v-1h-3.5l.00458-4.56244a5.04007 5.04007 0 003.6-2.1 2.76807 2.76807 0 00.9.1 2.989 2.989 0 003-2.9v-.1a4.21308 4.21308 0 00-1-2zm-12.005 4a2.006 2.006 0 01-2-2 1.38909 1.38909 0 01.5-1h1.7a3.55288 3.55288 0 00-.2 1 4.05821 4.05821 0 00.4 1.9.59982.59982 0 01-.4.1zm5.205 2c-.069.0036-.13433.01129-.20251.01166-.06818-.00037-.13354-.00806-.20251-.01166a4.04289 4.04289 0 01-3.79993-4 6.637 6.637 0 01.6-2h6.80494a6.637 6.637 0 01.6 2 4.04289 4.04289 0 01-3.79998 4zm4.8-2a.59982.59982 0 01-.4-.1 4.05821 4.05821 0 00.4-1.9 3.55288 3.55288 0 00-.2-1h1.7a1.38909 1.38909 0 01.5 1 2.006 2.006 0 01-2 2z"/></svg>