<svg xmlns="http://www.w3.org/2000/svg" viewBox="0 0 16 16"><path fill="#414141" d="M11 13h1.39a2.58 2.58 0 0 0 2.46-1.62 2.5 2.5 0 0 0-1.3-3.15l-.64-.3.08-.7a2 2 0 0 0-2.46-2.17l-.7.16-.3-.48a3.6 3.6 0 0 0-3.71-1.67A3.51 3.51 0 0 0 3 6.5v.61l-.4.23a3.1 3.1 0 0 0-1.56 3.18A3 3 0 0 0 4 13h7m1.4 1H4.16a4.12 4.12 0 0 1-3.92-2.62A4.01 4.01 0 0 1 2 6.53V6.5a4.42 4.42 0 0 1 2.08-3.83 4.54 4.54 0 0 1 6.22 1.41A3 3 0 0 1 14 7a2.97 2.97 0 0 1-.02.33 3.5 3.5 0 0 1 1.16 5.48A3.56 3.56 0 0 1 12.4 14z"/></svg>