<svg xmlns="http://www.w3.org/2000/svg" viewBox="0 0 16 16"><path fill="#414141" d="M11 13h1.38637a2.58224 2.58224 0 0 0 2.4602-1.62089A2.50726 2.50726 0 0 0 13.558 8.234l-.648-.3.077-.711a2 2 0 0 0-2.458-2.164l-.693.166-.31327-.48949A3.60171 3.60171 0 0 0 5.81788 3.0661 3.50969 3.50969 0 0 0 2.999 6.5v.612l-.39427.22789a3.09074 3.09074 0 0 0-1.566 3.17777A3.00739 3.00739 0 0 0 3.999 13H11m1.39934 1H4.1634a4.1193 4.1193 0 0 1-3.92714-2.6247A4.00989 4.00989 0 0 1 1.999 6.535V6.5a4.41528 4.41528 0 0 1 2.07868-3.82744A4.53923 4.53923 0 0 1 10.299 4.083 3 3 0 0 1 13.999 7a2.96564 2.96564 0 0 1-.018.328 3.508 3.508 0 0 1 1.15822 5.48284A3.56173 3.56173 0 0 1 12.39934 14z"/></svg>