<svg xmlns="http://www.w3.org/2000/svg" viewBox="0 0 16 16"><path fill="#414141" d="M10.999 13.00331h1.38735a2.58221 2.58221 0 002.4602-1.62088A2.50725 2.50725 0 0013.558 8.23731l-.648-.3.077-.711a2 2 0 00-2.458-2.164l-.693.166-.31327-.4895a3.60172 3.60172 0 00-3.70487-1.6694A3.50969 3.50969 0 002.999 6.50331v.612l-.39427.22789A3.09075 3.09075 0 001.0388 10.521a3.0074 3.0074 0 002.9602 2.48231h7m1.5 1h-8.5a4 4 0 01-2-7.465v-.035a4.5 4.5 0 018.3-2.417 3 3 0 013.7 2.917 2.96564 2.96564 0 01-.018.328 3.5 3.5 0 01-1.482 6.672z"/></svg>