<svg xmlns="http://www.w3.org/2000/svg" viewBox="0 0 17 16"><path fill="#414141" d="m12.46 15.97-.01.01-.02-.02L8.5 14.2l-3.92 1.75-.01.02h-.04l-.01-.02-4.5-2V8.6h.03l3.93-1.75V2.02h.03l4.51-2L12.98 2h-.01.06v4.84l3.9 1.73v.02h.05v5.4h-.07l-4.41 1.97-.02.02Zm-3.39-2.66 2.84 1.26v-3.72L9.07 9.6Zm-7.92 0 2.84 1.26v-3.72L1.15 9.6Zm11.9-2.44v3.7l2.81-1.25v-3.7Zm-7.92 0v3.7l2.81-1.25v-3.7Zm4.86-2.03 2.51 1.12 2.5-1.1-2.52-1.12Zm-7.92 0 2.51 1.12 2.5-1.1-2.52-1.12Zm3.04-2.1 2.85 1.25V4.27L5.1 3.01ZM9.1 4.3v3.68l2.82-1.24V3.05ZM6.04 2.27l2.5 1.11 2.5-1.1-2.51-1.12Zm0 0"/></svg>