<svg xmlns="http://www.w3.org/2000/svg" viewBox="0 0 16 16"><path fill="#414141" d="M15.38 12.55957a1.994 1.994 0 0 0-1.38049-.54957v-.00195a1.982 1.982 0 0 0-.588.09985l-2.97413-4.95678a3.99422 3.99422 0 1 0-4.76789.08814L4.05249 10.2A2.99453 2.99453 0 1 0 6 13a2.98024 2.98024 0 0 0-1.08557-2.292l1.633-2.99A3.9317 3.9317 0 0 0 9.584 7.671l2.97553 4.959a1.995 1.995 0 1 0 2.82047-.07043zM3 15a2 2 0 1 1 2-2 2.00006 2.00006 0 0 1-2 2zM5 4a3 3 0 1 1 3 3 3 3 0 0 1-3-3zm8.99951 11.00806a1 1 0 1 1 1-1 1.00006 1.00006 0 0 1-1 1z"/></svg>