<svg xmlns="http://www.w3.org/2000/svg" viewBox="0 0 17 16"><path fill="#414141" d="m12.460938 15.972656-.011719.007813-.015625-.023438-3.929688-1.746093-3.921875 1.746093-.015625.023438-.023437-.007813-.015625.007813-.011719-.023438-4.4960938-1.996093V8.597656H.046875l3.933594-1.746094V2.023438h.027343L8.523438.015625l4.453124 1.980469-.007812.011718h.0625v4.828126l3.902344 1.738281-.007813.011719h.058594v5.410156h-.074219l-4.414062 1.964844-.011719.023437ZM9.070312 13.3125l2.839844 1.261719v-3.722657L9.070312 9.589844Zm-7.921874 0 2.84375 1.261719v-3.722657l-2.84375-1.261718Zm11.898437-2.4375v3.6875l2.816406-1.246094v-3.6875Zm-7.917969 0v3.6875l2.8125-1.246094v-3.6875Zm4.863282-2.03125 2.511718 1.117188 2.488282-1.105469-2.507813-1.117188Zm-7.917969 0 2.507812 1.117188 2.492188-1.105469L4.5625 7.738281Zm3.039062-2.109375 2.84375 1.257813v-3.71875l-2.84375-1.261719Zm3.980469-2.4375v3.6875l2.8125-1.246094v-3.6875Zm-3.054688-2.03125 2.507813 1.117187 2.492187-1.105468-2.511718-1.117188Zm0 0"/></svg>