<svg xmlns="http://www.w3.org/2000/svg" viewBox="2 2 12 12"><path fill="#414141" d="M14 7.976562c0 3.3125-2.6875 6-6 6s-6-2.6875-6-6c0-3.316406 2.6875-6 6-6s6 2.683594 6 6Zm0 0"/><path fill="#f0f0f0" d="M4 7.976562c0-2.210937 1.789062-4 4-4s4 1.789063 4 4c0 2.207032-1.789062 4-4 4s-4-1.792968-4-4Zm1 0c.003906 1.65625 1.34375 2.996094 3 3 1.65625-.003906 3-1.34375 3-3 0-.605468-.179688-1.191406-.519531-1.691406L7.820312 9.457031l-.769531-.640625-.65625-.550781L7.039062 7.5l.65625.550781L9.78125 5.566406C9.265625 5.183594 8.640625 4.976562 8 4.976562c-1.65625.003907-2.996094 1.34375-3 3Zm0 0"/></svg>