<svg xmlns="http://www.w3.org/2000/svg" viewBox="4 4 8 8"><g fill="#414141"><path d="M10.976562 5c.03125.164062.03125.335938 0 .5H12V5ZM8.523438 5c-.03125.164062-.03125.335938 0 .5H4V5Zm0 0"/><path d="M9.75 6.5c-.691406 0-1.25-.558594-1.25-1.25S9.058594 4 9.75 4 11 4.558594 11 5.25 10.441406 6.5 9.75 6.5Zm0-2c-.414062 0-.75.335938-.75.75s.335938.75.75.75.75-.335938.75-.75-.335938-.75-.75-.75ZM5.023438 7.75c-.03125.164062-.03125.335938 0 .5H4v-.5Zm2.453124 0c.03125.164062.03125.335938 0 .5H12v-.5Zm0 0"/><path d="M6.25 6.75c.691406 0 1.25.558594 1.25 1.25s-.558594 1.25-1.25 1.25S5 8.691406 5 8s.558594-1.25 1.25-1.25Zm0 2c.414062 0 .75-.335938.75-.75s-.335938-.75-.75-.75-.75.335938-.75.75.335938.75.75.75Zm4.726562 1.75c.03125.164062.03125.335938 0 .5H12v-.5Zm-2.453124 0c-.03125.164062-.03125.335938 0 .5H4v-.5Zm0 0"/><path d="M9.75 12c-.691406 0-1.25-.558594-1.25-1.25S9.058594 9.5 9.75 9.5s1.25.558594 1.25 1.25S10.441406 12 9.75 12Zm0-2c-.414062 0-.75.335938-.75.75s.335938.75.75.75.75-.335938.75-.75-.335938-.75-.75-.75Zm0 0"/></g></svg>