<svg xmlns="http://www.w3.org/2000/svg" viewBox="4 4 8 8"><path fill="#414141" d="M10.98 5q.04.25 0 .5H12V5ZM8.52 5a1 1 0 0 0 0 .5H4V5Zm1.23 1.5a1.25 1.25 0 1 1 0-2.5 1.25 1.25 0 0 1 0 2.5m0-2a.75.75 0 1 0 0 1.5.75.75 0 0 0 0-1.5M5.02 7.75a1 1 0 0 0 0 .5H4v-.5Zm2.46 0q.05.25 0 .5H12v-.5Zm-1.23-1a1.25 1.25 0 1 1 0 2.5 1.25 1.25 0 0 1 0-2.5m0 2a.75.75 0 1 0 0-1.5.75.75 0 0 0 0 1.5m4.73 1.75q.04.25 0 .5H12v-.5Zm-2.46 0a1 1 0 0 0 0 .5H4v-.5ZM9.75 12a1.25 1.25 0 1 1 0-2.5 1.25 1.25 0 0 1 0 2.5m0-2a.75.75 0 1 0 0 1.5.75.75 0 0 0 0-1.5m0 0"/></svg>