<svg xmlns="http://www.w3.org/2000/svg" viewBox="4 4 8 8"><g fill="#414141"><path d="M6.5 6h3v.5h-3Zm0 1h3v.5h-3Zm0 1h3v.5h-3Zm0 1h3v.5h-3Zm0 0"/><path d="M12 4.75c0-.414062-.335938-.75-.75-.75h-5.5c-.386719.003906-.707031.296875-.742188.679688H5V10.5H4v.75c0 .414062.335938.75.75.75h5.5c.414062 0 .75-.335938.75-.75V5.5h1Zm-.75-.25c.136719 0 .25.113281.25.25V5H11v-.25c0-.136719.113281-.25.25-.25M9.5 11.25c0 .085938.015625.171875.046875.25H4.75c-.136719 0-.25-.113281-.25-.25V11h5Zm1 0c0 .136719-.113281.25-.25.25-.136719 0-.25-.113281-.25-.25v-.75H5.5V4.75c0-.136719.113281-.25.25-.25h4.796875c-.03125.078125-.046875.164062-.046875.25Zm0 0"/></g></svg>