<svg xmlns="http://www.w3.org/2000/svg" viewBox="0 0 16 16"><g fill="#414141"><path d="M15.949219 1.445312C15.84375.578125 15.054688-.046875 14.183594.0507812H4.101562C3.640625 0 3.179688.148438 2.839844.460938c-.34375.308593-.535156.753906-.523438 1.21875v11.457031h1.035156V1.671875c0-.15625 0-.628906.726563-.628906h8.714844c-.105469.277343-.160157.574219-.164063.871093v12.5c-.042968.269532-.25.480469-.519531.53125-.339844.0625-.664063-.15625-.734375-.496093v-.417969c0-.515625-.253906-.621094-.667969-.621094H.542969c-.140625-.003906-.277344.050782-.375.148438-.1015628.097656-.1562502.234375-.152344.375v.457031c0 .03125 0 .0625.0078125.097656.0664063.816407.7382815 1.453125 1.5585935 1.46875.046875 0 .101563 0 .144531-.003906h10.230469c.15625-.007813.308594-.023437.464844-.050781.738281-.144532 1.265625-.796875 1.25-1.546875V2.582031h1.714844c.152343.023438.304687-.027343.417969-.132812.113281-.105469.167968-.253907.160156-.40625v-.371094c-.003906-.074219-.007813-.152344-.015625-.226563m-1.011719.136719h-1.277344c.019532-.195312.132813-.367187.308594-.457031.207031-.121094.464844-.117188.671875.007812.171875.085938.28125.257813.296875.449219m-4.488281 13.375H8.300781c-2.144531 0-4.292969 0-6.4375.007813h-.011719c-.25.019531-.496093-.070313-.675781-.246094-.070312-.085938-.109375-.195312-.117187-.304688h9.269531c.011719.1875.050781.371094.121094.542969"/><path d="M4.765625 6.011719h5.953125v.992187H4.765625Zm0-1.988281h5.953125v.992187H4.765625Zm0 5.957031h5.953125v.992187H4.765625Zm0-1.984375h5.953125v.992187H4.765625Zm0 0"/></g></svg>