<svg xmlns="http://www.w3.org/2000/svg" viewBox="0 0 16 16"><path fill="#414141" d="M1.90625 13.648438V2.351562h12.1875v11.296876Zm.757812-.945313h10.671876v-9.40625H2.664062Zm8.03125-1.375C11.40625 10.445312 11.8125 9.25 11.808594 8c.003906-1.25-.402344-2.445312-1.113282-3.328125l.539063-.664063C12.089844 5.066406 12.570312 6.5 12.570312 8s-.480468 2.933594-1.335937 3.992188ZM9.617188 9.996094C10.046875 9.46875 10.289062 8.75 10.285156 8c.003906-.75-.238281-1.46875-.667968-1.996094l.539062-.667968C10.726562 6.042969 11.046875 7 11.046875 8v.03125c-.003906.988281-.324219 1.933594-.890625 2.628906ZM8.539062 8.664062C8.679688 8.492188 8.765625 8.25 8.761719 8c0-.25-.082031-.492188-.222657-.664062l.539063-.664063C9.363281 7.023438 9.523438 7.5 9.523438 8v.039062c-.007813.484376-.164063.945313-.445313 1.289063Zm0 0"/></svg>