<svg xmlns="http://www.w3.org/2000/svg" viewBox="4 4 8 8"><path fill="#414141" d="M10.98 5c.03.16.03.34 0 .5H12V5ZM8.52 5a1.4 1.4 0 0 0 0 .5H4V5Zm1.23 1.5a1.25 1.25 0 1 1 0-2.5 1.25 1.25 0 0 1 0 2.5Zm0-2a.75.75 0 1 0 0 1.5.75.75 0 0 0 0-1.5ZM5.02 7.75a1.4 1.4 0 0 0 0 .5H4v-.5Zm2.46 0c.03.16.03.34 0 .5H12v-.5Zm-1.23-1a1.25 1.25 0 1 1 0 2.5 1.25 1.25 0 0 1 0-2.5Zm0 2a.75.75 0 1 0 0-1.5.75.75 0 0 0 0 1.5Zm4.73 1.75c.03.16.03.34 0 .5H12v-.5Zm-2.46 0a1.4 1.4 0 0 0 0 .5H4v-.5ZM9.75 12a1.25 1.25 0 1 1 0-2.5 1.25 1.25 0 0 1 0 2.5Zm0-2a.75.75 0 1 0 0 1.5.75.75 0 0 0 0-1.5Zm0 0"/></svg>