<svg xmlns="http://www.w3.org/2000/svg" viewBox="8 8 16 16"><g fill="#414141"><path d="M14.97 15.72q.36-.48 1.2-.48.75 0 1.13.51.36.51.36 1.56 0 1.02-.36 1.57-.37.54-1.11.54-.84 0-1.21-.48-.38-.5-.38-1.62t.37-1.6"/><path fill-rule="evenodd" d="M19 8h-6v16h6zm-1.08 7.28a2 2 0 0 0-1.64-.72q-1.11 0-1.68.8h-.04q.04-.5.04-1.11V12.4h-.8V20h.57l.17-.69h.06q.3.4.73.6t.95.19q1.05 0 1.63-.73.6-.73.6-2.05t-.6-2.04" clip-rule="evenodd"/><path d="m11.87 20-.16-.76h-.04q-.4.5-.8.68t-1 .18a1.8 1.8 0 0 1-1.24-.41q-.45-.41-.45-1.17 0-1.62 2.59-1.7l.9-.03v-.33q0-.63-.27-.93t-.86-.3q-.67 0-1.51.41l-.25-.62a4 4 0 0 1 1.8-.46q.97 0 1.42.43.47.42.47 1.36V20zm-1.83-.57q.76 0 1.18-.42.45-.4.44-1.16v-.48l-.81.03q-.97.05-1.4.3-.42.27-.42.83 0 .45.26.67.27.23.75.23m12.08.67a2.3 2.3 0 0 1-1.8-.72 3 3 0 0 1-.64-2.02q0-1.35.64-2.08a2.3 2.3 0 0 1 1.85-.73 4 4 0 0 1 1.38.28l-.25.69a4 4 0 0 0-1.15-.25q-1.63 0-1.63 2.08 0 .99.4 1.51.39.53 1.18.53.66 0 1.37-.29v.72q-.54.27-1.35.28"/></g></svg>