<svg xmlns="http://www.w3.org/2000/svg" viewBox="4 4 8 8"><path fill="#414141" d="M11 7v-.09A1.5 1.5 0 0 1 9.09 5H9a1.5 1.5 0 0 1-1.4-.98 4 4 0 1 0 4.38 4.39A1.5 1.5 0 0 1 11 7m-.64 3.59a3.51 3.51 0 0 1-5.82-3.1A3.5 3.5 0 0 1 7.3 4.57c.27.43.7.74 1.19.87v.06c0 1.1.9 2 2 2h.06c.13.5.44.92.87 1.2a3.47 3.47 0 0 1-1.07 1.89M7 6.75a.75.75 0 1 0-1.5 0 .75.75 0 0 0 1.5 0m-1 0c0-.14.11-.25.25-.25s.25.11.25.25-.11.25-.25.25A.25.25 0 0 1 6 6.75M9.25 8a.75.75 0 1 0 0 1.5.75.75 0 0 0 0-1.5m0 1A.25.25 0 0 1 9 8.75c0-.14.11-.25.25-.25s.25.11.25.25-.11.25-.25.25m-2.5 0a.75.75 0 1 0 0 1.5.75.75 0 0 0 0-1.5m0 1a.25.25 0 0 1-.25-.25c0-.14.11-.25.25-.25s.25.11.25.25-.11.25-.25.25"/></svg>