<svg xmlns="http://www.w3.org/2000/svg" viewBox="4 4 8 8"><g fill="#414141"><path d="M11 7v-.085938c-.542969.191407-1.152344.054688-1.558594-.355468C9.03125 6.152344 8.894531 5.542969 9.085938 5H9c-.628906 0-1.1875-.390625-1.40625-.980469C5.5 4.234375 3.929688 6.03125 4.003906 8.136719c.070313 2.101562 1.757813 3.789062 3.859375 3.859375 2.101563.074218 3.902344-1.496094 4.117188-3.589844C11.390625 8.1875 11 7.628906 11 7m-.644531 3.589844c-1.09375.992187-2.695313 1.191406-4 .5-1.304688-.695313-2.03125-2.136719-1.816407-3.597656C4.75 6.03125 5.859375 4.859375 7.308594 4.566406c.273437.429688.699218.742188 1.191406.871094V5.5c0 1.105469.894531 2 2 2h.0625c.128906.492188.441406.917969.867188 1.191406-.144532.730469-.523438 1.398438-1.074219 1.898438"/><path d="M7 6.75C7 6.335938 6.664062 6 6.25 6s-.75.335938-.75.75.335938.75.75.75.75-.335938.75-.75m-1 0c0-.136719.113281-.25.25-.25.136719 0 .25.113281.25.25 0 .136719-.113281.25-.25.25C6.113281 7 6 6.886719 6 6.75M9.25 8c-.414062 0-.75.335938-.75.75s.335938.75.75.75.75-.335938.75-.75S9.664062 8 9.25 8m0 1C9.113281 9 9 8.886719 9 8.75c0-.136719.113281-.25.25-.25.136719 0 .25.113281.25.25 0 .136719-.113281.25-.25.25m-2.5 0c-.414062 0-.75.335938-.75.75s.335938.75.75.75.75-.335938.75-.75S7.164062 9 6.75 9m0 1c-.136719 0-.25-.113281-.25-.25 0-.136719.113281-.25.25-.25.136719 0 .25.113281.25.25 0 .136719-.113281.25-.25.25"/></g></svg>