<svg xmlns="http://www.w3.org/2000/svg" viewBox="0 0 17 16"><path fill="#414141" d="M8.222656 15.8125.121094 11.144531V4.855469L8.5.0273438 8.777344.1875l8.101562 4.667969v6.289062L8.5 15.972656Zm.835938-1.464844 6.136718-3.53125-3.761718-2.167968-2.375 1.367187Zm-1.117188 0v-4.332031l-2.375-1.367187-3.761718 2.167968ZM1.234375 9.839844 4.441406 8 1.238281 6.15625Zm14.527344 0V6.15625L12.558594 8ZM8.5 9.035156 10.308594 8 8.5 6.953125 6.691406 8Zm-2.933594-1.6875 2.375-1.367187V1.644531L1.800781 5.183594Zm5.867188 0 3.761718-2.164062-6.136718-3.542969v4.332031Zm0 0"/></svg>