<svg width="16" height="16" viewBox="0 0 16 16" fill="none" xmlns="http://www.w3.org/2000/svg">
<path d="M0 15V1H16V15H0ZM1 14H15V2H1V14ZM2 10.917V6.57593L5.495 5.05493L5.68701 5.13794L9.00098 6.57495V10.918L5.49597 12.5549L2 10.917ZM2.97705 10.282L5.01099 11.2361V8.73608L2.97705 7.76709V10.282ZM5.98706 8.74902V11.2329L8.02197 10.283V7.84204L5.98706 8.74902ZM3.58704 6.96606L5.50903 7.87988L7.48804 6.99707L5.49695 6.13403L3.58704 6.96606ZM10.4969 10.5549L9.271 9.98096V8.88794L10.014 9.23608V8.62793L10.514 8.82788L10.994 8.62793V9.22803L11.512 8.98511V10.0769L10.5 10.55L10.4969 10.5549ZM12.511 9.61499V8.52295L13.028 8.28198V7.77588L14.004 7.36597V8.91797L12.514 9.61792L12.511 9.61499ZM10.504 7.74805L10.014 7.5481V6.73804H10.0081V6.70093L9.27197 6.36304V6.13501L10.145 5.70801L10.51 5.88208L10.901 5.70703L11.511 5.9729V6.51807L10.993 6.74902V7.54395L10.506 7.7439L10.504 7.74805ZM13.027 6.69092V5.84204L12.51 6.07104V5.31812L12.136 5.15503L12.489 4.99805L12.014 4.79199L13.183 4.21997L14.0031 4.57495V6.28198L13.028 6.68994L13.027 6.69092ZM8.271 5.9021L7.00305 5.32007V4.5769L7.65698 4.29199L8.89502 4.83203L8.58704 4.96606L8.98706 5.15796L8.26794 5.51001V5.90308L8.271 5.9021ZM10.147 4.28711L8.90906 3.74707L10.498 3.05493L10.6899 3.13892L11.9771 3.69702L10.808 4.26904L10.498 4.13501L10.149 4.28711H10.147Z" fill="#414141"/>
</svg>
