<svg xmlns="http://www.w3.org/2000/svg" viewBox="0 0 14 16"><g fill="#414141"><path d="M8.398438 15.019531c-.4375.023438-.90625.039063-1.398438.039063-3.699219 0-5.925781-.777344-6.066406-1.179688v-2.636718C2.878906 11.941406 4.9375 12.261719 7 12.1875h.019531C7.015625 12.125 7 12.066406 7 12c.003906-.246094.027344-.492188.074219-.730469H7c-3.699219 0-5.925781-.761719-6.066406-1.148437v-2.6875C2.878906 8.128906 4.9375 8.449219 7 8.378906c.902344.027344 1.800781-.019531 2.695312-.144531C10.113281 8.085938 10.554688 8.003906 11 8h.023438c.691406-.144531 1.375-.332031 2.042968-.566406v1.15625c.347656.214844.664063.480468.933594.789062V2.074219C13.917969.441406 9.582031 0 7 0 4.417969 0 0 .445312 0 2.117188v11.761718C0 15.550781 4.398438 16 7 16c.96875 0 1.9375-.058594 2.898438-.171875-.550782-.15625-1.0625-.433594-1.5-.808594m4.667968-8.828125V6.3125C12.898438 6.714844 10.699219 7.460938 7 7.460938S1.074219 6.699219.933594 6.308594v-2.6875C2.878906 4.320312 4.9375 4.640625 7 4.566406c2.0625.074219 4.121094-.246094 6.066406-.941406v2.066406c.007813.292969.007813.390625.007813.5ZM.933594 2.136719C1.074219 1.742188 3.265625.957031 7 .957031c3.625 0 5.816406.738281 6.066406 1.136719.058594.128906.058594.277344 0 .40625v.003906C12.898438 2.90625 10.699219 3.648438 7 3.648438c-1.992188.117187-3.988281-.203126-5.84375-.941407-.085938-.058593-.160156-.132812-.222656-.214843-.046875-.113282-.046875-.242188 0-.355469"/><path d="M11 15c-1.65625 0-3-1.34375-3-3s1.34375-3 3-3 3 1.34375 3 3-1.34375 3-3 3Zm-1-2.761719-.265625.265625.902344.898438 2.007812-2.410156-.289062-.242188-1.746094 2.101562-.605469-.605468Zm0 0"/></g></svg>