<svg xmlns="http://www.w3.org/2000/svg" viewBox="0 0 16 16"><path fill="#414141" d="M5.06 16a8.6 8.6 0 0 1-3.49-.8 4.37 4.37 0 0 1-.8-.56A1.91 1.91 0 0 1 0 13.2V6c.03-.57.3-1.1.76-1.44.26-.22.55-.41.86-.56a8.21 8.21 0 0 1 3.72-.8v-.4c.02-.57.3-1.1.75-1.44.26-.22.55-.41.86-.56a9.05 9.05 0 0 1 7.44 0c.3.15.6.34.85.57.46.34.73.86.76 1.43V10c-.03.57-.3 1.09-.76 1.43a4.1 4.1 0 0 1-.82.56 8.26 8.26 0 0 1-3.48.8l-.28.01v.4a1.9 1.9 0 0 1-.76 1.43c-.24.22-.52.4-.81.56a8.27 8.27 0 0 1-3.48.8h-.55m-4.3-2.8c0 .43.42.9 1.14 1.27.9.42 1.87.67 2.85.72h1.16c.99-.06 1.95-.3 2.85-.72.72-.37 1.14-.85 1.14-1.26v-.98l-.04.05c-.1.09-.2.16-.32.23a8.72 8.72 0 0 1-8.43 0 2.3 2.3 0 0 1-.33-.25l-.02-.02Zm8-1.14c.09-.04.17-.09.24-.14h.02a3.8 3.8 0 0 0 .53-.41c.2-.18.32-.43.35-.7v-.97c-.11.1-.23.2-.35.28a8.75 8.75 0 0 1-8.45 0 2.14 2.14 0 0 1-.35-.27v.96c.03.27.15.52.35.7l.14.14c.12.1.26.18.39.27h.01l.25.14c2.18.99 4.68.99 6.87 0Zm2.48-.06a7.6 7.6 0 0 0 2.85-.73c.71-.36 1.15-.84 1.15-1.26v-.97c-.11.11-.23.2-.36.28a7.7 7.7 0 0 1-4.21 1.09V12ZM8.76 9.66l.12-.06c.25-.13.48-.3.67-.5.2-.18.34-.43.36-.7v-.96l-.05.03c-.09.1-.2.17-.3.24a7.77 7.77 0 0 1-4.22 1.1A7.74 7.74 0 0 1 1.1 7.7C1 7.63.89 7.55.8 7.46l-.05-.03v.96c.02.27.15.52.35.7.2.2.43.37.68.5l.12.06c2.18.98 4.67.98 6.85 0Zm2.06-.06c1.14 0 2.26-.25 3.28-.74l.25-.14a4.03 4.03 0 0 0 .54-.42c.2-.18.32-.43.35-.7v-.97c-.1.1-.22.2-.35.28A7.72 7.72 0 0 1 10.67 8v1.6ZM8.76 7.26l.12-.06c.25-.13.48-.3.67-.5.21-.18.34-.43.36-.7 0-.42-.43-.9-1.15-1.26A7.79 7.79 0 0 0 5.48 4h-.3a7.7 7.7 0 0 0-3.27.73C1.19 5.11.77 5.58.77 6c.02.27.14.52.35.7.2.2.42.37.68.5l.11.06A7.6 7.6 0 0 0 5.34 8a7.68 7.68 0 0 0 3.42-.73Zm2.06-.06a7.6 7.6 0 0 0 3.28-.74l.06-.03.07-.03h.01c.24-.14.46-.3.65-.5.2-.18.33-.43.35-.7v-.96c-.1.1-.22.2-.35.27a7.72 7.72 0 0 1-4.22 1.1h-.06c.04.12.06.25.06.39v1.2Zm0-2.4a7.7 7.7 0 0 0 3.28-.73l.06-.04h.02l.03-.02c.26-.13.49-.3.68-.5.2-.18.33-.43.35-.7 0-.42-.42-.88-1.14-1.26a7.75 7.75 0 0 0-3.28-.74h-.3a7.9 7.9 0 0 0-3.27.74c-.72.38-1.15.85-1.15 1.26 0 .15.06.3.15.44.97.07 1.93.33 2.8.76a3.37 3.37 0 0 1 1.1.8h.53Zm0 0"/></svg>