<svg xmlns="http://www.w3.org/2000/svg" viewBox="0 0 16 16"><path fill="#414141" d="M5.06 16a9 9 0 0 1-3.49-.8 4 4 0 0 1-.8-.56A2 2 0 0 1 0 13.2V6c.03-.57.3-1.1.76-1.44q.4-.33.86-.56a8 8 0 0 1 3.72-.8v-.4c.02-.57.3-1.1.75-1.44q.4-.33.86-.56a9 9 0 0 1 7.44 0q.46.23.85.57c.46.34.73.86.76 1.43V10c-.03.57-.3 1.09-.76 1.43a4 4 0 0 1-.82.56 8 8 0 0 1-3.48.8l-.28.01v.4a2 2 0 0 1-.76 1.43q-.37.33-.81.56a8 8 0 0 1-3.48.8zm-4.3-2.8c0 .43.42.9 1.14 1.27q1.37.64 2.85.72h1.16q1.5-.09 2.85-.72c.72-.37 1.14-.85 1.14-1.26v-.98l-.04.05q-.14.13-.32.23a8.7 8.7 0 0 1-8.43 0l-.33-.25-.02-.02Zm8-1.14q.13-.06.24-.14h.02a4 4 0 0 0 .53-.41q.3-.28.35-.7v-.97q-.17.15-.35.28a8.8 8.8 0 0 1-8.45 0 2 2 0 0 1-.35-.27v.96q.05.42.35.7l.14.14.39.27h.01l.25.14c2.18.99 4.68.99 6.87 0m2.48-.06a8 8 0 0 0 2.85-.73c.71-.36 1.15-.84 1.15-1.26v-.97q-.17.16-.36.28a7.7 7.7 0 0 1-4.21 1.09V12ZM8.76 9.66l.12-.06q.38-.2.67-.5.31-.28.36-.7v-.96l-.05.03q-.14.14-.3.24a8 8 0 0 1-4.22 1.1A7.7 7.7 0 0 1 1.1 7.7q-.16-.1-.3-.24l-.05-.03v.96q.04.42.35.7.3.3.68.5l.12.06c2.18.98 4.67.98 6.85 0Zm2.06-.06q1.73 0 3.28-.74l.25-.14a4 4 0 0 0 .54-.42q.3-.28.35-.7v-.97q-.15.16-.35.28A7.7 7.7 0 0 1 10.67 8v1.6ZM8.76 7.26l.12-.06q.38-.2.67-.5.32-.28.36-.7c0-.42-.43-.9-1.15-1.26A8 8 0 0 0 5.48 4h-.3a8 8 0 0 0-3.27.73C1.19 5.11.77 5.58.77 6q.03.42.35.7.3.3.68.5l.11.06A7.6 7.6 0 0 0 5.34 8a8 8 0 0 0 3.42-.73Zm2.06-.06a8 8 0 0 0 3.28-.74l.06-.03.07-.03h.01q.36-.2.65-.5.31-.28.35-.7v-.96q-.15.16-.35.27a7.7 7.7 0 0 1-4.22 1.1h-.06q.06.18.06.39v1.2Zm0-2.4a8 8 0 0 0 3.28-.73l.06-.04h.02l.03-.02q.4-.2.68-.5.31-.28.35-.7c0-.42-.42-.88-1.14-1.26a8 8 0 0 0-3.28-.74h-.3a8 8 0 0 0-3.27.74c-.72.38-1.15.85-1.15 1.26q0 .23.15.44c.97.07 1.93.33 2.8.76a3 3 0 0 1 1.1.8h.53Zm0 0"/></svg>