<svg xmlns="http://www.w3.org/2000/svg" viewBox="4 4 8 8"><path fill="#414141" d="M8.05 11.53H8c-1.85 0-2.96-.4-3.04-.6v-1.3a8.5 8.5 0 0 0 2.55.46l-.01-.12c0-.11.02-.23.04-.35-1.57-.05-2.5-.38-2.58-.56V7.71c.98.36 2 .52 3.04.48h.26c.21-.21.46-.38.74-.5-.3.02-.63.04-1 .04-1.85 0-2.96-.38-3.04-.58V5.81c.98.35 2 .51 3.04.48a8.16 8.16 0 0 0 3.03-.48v1.35c-.03.09-.3.22-.75.33.44.05.86.22 1.22.5V5.04C11.46 4.22 9.29 4 8 4s-3.5.22-3.5 1.06v5.88C4.5 11.77 6.7 12 8 12l.53-.01a2.42 2.42 0 0 1-.48-.46M4.97 5.07c.07-.2 1.16-.59 3.03-.59 1.81 0 2.9.37 3.03.57.03.06.03.13 0 .2-.08.2-1.18.57-3.03.57-1 .06-2-.1-2.92-.46a.42.42 0 0 1-.11-.11.2.2 0 0 1 0-.18M10 7.98a2 2 0 1 0 0 4 2 2 0 0 0 0-4m-.33 2.68-.62-.64.24-.23.38.37 1.03-1.2.27.23Zm0 0"/></svg>