<svg xmlns="http://www.w3.org/2000/svg" viewBox="0 0 16 16"><path fill="#414141" d="M5.058594 15.992188c-1.207032-.007813-2.394532-.28125-3.484375-.800782-.289063-.152344-.5625-.335937-.8125-.550781C.304688 14.296875.0273438 13.769531 0 13.199219V6c.0273438-.570312.304688-1.097656.761719-1.4375.257812-.226562.546875-.414062.855469-.5625 1.160156-.554688 2.433593-.828125 3.71875-.800781v-.398438c.023437-.570312.300781-1.097656.757812-1.441406.257812-.222656.546875-.410156.855469-.558594 2.363281-1.066406 5.070312-1.066406 7.4375 0 .308593.148438.597656.339844.851562.566407.457031.34375.734375.867187.761719 1.433593V10c-.027344.566406-.308594 1.089844-.761719 1.433594-.246093.21875-.523437.40625-.816406.558594-1.085937.519531-2.277344.789062-3.484375.800781-.085938.007812-.179688.007812-.273438.007812v.398438c-.027343.566406-.308593 1.089843-.761718 1.429687-.246094.21875-.519532.410156-.8125.5625-1.089844.515625-2.277344.789063-3.484375.796875-.089844.007813-.183594.007813-.273438.007813-.09375 0-.183593 0-.273437-.007813M.757812 13.195312c0 .421876.425782.902344 1.144532 1.261719.894531.425781 1.863281.671875 2.851562.726563h1.15625c.988282-.058594 1.953125-.304688 2.851563-.726563.714843-.367187 1.140625-.84375 1.140625-1.261719v-.972656l-.039063.042969c-.097656.089844-.207031.167969-.320312.238281-2.621094 1.449219-5.804688 1.449219-8.429688 0-.117187-.074218-.230469-.15625-.335937-.253906l-.019532-.019531Zm8-1.140624c.089844-.046876.171876-.09375.246094-.140626l.015625-.007812c.132813-.082031.265625-.171875.386719-.269531.050781-.042969.097656-.089844.140625-.136719.199219-.179688.328125-.429688.351563-.699219v-.96875c-.109376.105469-.226563.199219-.351563.28125-2.628906 1.449219-5.816406 1.449219-8.445313 0-.125-.078125-.242187-.171875-.347656-.273437v.960937c.023438.269531.148438.519531.347656.699219.042969.046875.089844.09375.136719.136719.125.097656.257813.1875.390625.269531l.015625.007812c.074219.046876.15625.09375.246094.140626 2.183594.980468 4.683594.980468 6.867187 0Zm2.484376-.0625c.988281-.058594 1.957031-.308594 2.851562-.730469.707031-.359375 1.144531-.84375 1.144531-1.257813V9.03125c-.109375.109375-.230469.203125-.359375.28125-1.269531.757812-2.730468 1.136719-4.210937 1.085938V12ZM8.761719 9.660156c.039062-.023437.078125-.039062.117187-.0625.25-.128906.480469-.296875.675782-.5.203124-.179687.332031-.429687.351562-.703125V7.4375l-.042969.035156c-.09375.089844-.199219.167969-.308593.238282-1.273438.757812-2.738282 1.136718-4.21875 1.089843-1.484376.046875-2.949219-.328125-4.222657-1.089843-.109375-.070313-.214843-.148438-.308593-.238282L.761719 7.4375v.960938c.019531.273437.144531.523437.351562.703124.195313.203126.425781.371094.675781.5.039063.023438.078126.039063.117188.0625 2.179688.980469 4.675781.980469 6.855469 0Zm2.0625-.058594c1.132812 0 2.253906-.253906 3.277343-.738281.089844-.050781.171876-.101562.25-.144531.136719-.085938.273438-.175781.398438-.277344.050781-.042968.097656-.089844.140625-.140625.199219-.179687.324219-.429687.347656-.699219v-.96875c-.105469.105469-.222656.199219-.347656.277344C13.617188 7.671875 12.148438 8.050781 10.667969 8v1.601562Zm-2.0625-2.339843c.039062-.023438.078125-.042969.117187-.0625.25-.128907.480469-.296875.675782-.5.207031-.179688.332031-.429688.351562-.703125 0-.417969-.425781-.886719-1.144531-1.257813C7.738281 4.257812 6.617188 4.003906 5.484375 4H5.1875c-1.132812.003906-2.253906.253906-3.277344.734375-.71875.375-1.144531.847656-1.144531 1.261719.019531.269531.144531.519531.351563.699218.195312.203126.425781.371094.679687.5.035156.023438.074219.039063.113281.0625C2.980469 7.769531 4.152344 8.023438 5.339844 8c1.179687.023438 2.351562-.230469 3.421875-.734375Zm2.0625-.0625c1.132812 0 2.25-.25 3.277343-.734375l.058594-.035156h.007813l.0625-.03125.011719-.007813c.242187-.128906.460937-.292969.652343-.488281.203125-.179688.328125-.433594.347657-.703125v-.957031c-.105469.097656-.222657.191406-.347657.269531-1.273437.761719-2.742187 1.140625-4.226562 1.089843h-.054688c.035157.128907.054688.261719.054688.398438v1.199219Zm0-2.398438c1.132812 0 2.253906-.25 3.277343-.734375.019532-.011718.039063-.023437.0625-.035156h.011719l.039063-.023438c.253906-.128906.480468-.296874.679687-.5.203125-.179687.328125-.425781.347657-.695312 0-.417969-.425782-.886719-1.140626-1.257812-1.027343-.484376-2.144531-.738282-3.28125-.742188h-.296874c-1.132813.007812-2.253907.257812-3.277344.734375-.714844.378906-1.144532.851563-1.144532 1.261719.007813.15625.054688.308594.144532.4375.976562.074218 1.933594.332031 2.8125.761718.3125.144532.597656.335938.851562.566407.085938.070312.164063.144531.238282.226562.125.003907.25.007813.371093.007813h.15625Zm0 0"/></svg>