<svg xmlns="http://www.w3.org/2000/svg" viewBox="4 4 8 8"><path fill="#414141" d="M8.05 11.53H8c-1.85 0-2.96-.4-3.04-.6v-1.3a9 9 0 0 0 2.55.46l-.01-.12q0-.17.04-.35c-1.57-.05-2.5-.38-2.58-.56V7.71q1.47.54 3.04.48h.26q.32-.32.74-.5-.45.03-1 .04c-1.85 0-2.96-.38-3.04-.58V5.81q1.47.52 3.04.48a8 8 0 0 0 3.03-.48v1.35q-.06.15-.75.33.67.08 1.22.5V5.04C11.46 4.22 9.29 4 8 4s-3.5.22-3.5 1.06v5.88C4.5 11.77 6.7 12 8 12l.53-.01a2 2 0 0 1-.48-.46M4.97 5.07c.07-.2 1.16-.59 3.03-.59 1.81 0 2.9.37 3.03.57q.04.1 0 .2c-.08.2-1.18.57-3.03.57-1 .06-2-.1-2.92-.46l-.11-.11a.2.2 0 0 1 0-.18M10 7.98a2 2 0 1 0 0 4 2 2 0 0 0 0-4m-.33 2.68-.62-.64.24-.23.38.37 1.03-1.2.27.23Zm0 0"/></svg>