<svg xmlns="http://www.w3.org/2000/svg" viewBox="4 4 8 8"><g fill="#414141"><path d="M8.054688 11.527344H8c-1.851562 0-2.964844-.390625-3.035156-.589844V9.621094c.816406.289062 1.675781.449218 2.542968.46875 0-.039063-.007812-.078125-.007812-.117188.003906-.117187.015625-.234375.035156-.347656-1.566406-.058594-2.503906-.386719-2.570312-.5625V7.714844C5.9375 8.066406 6.96875 8.226562 8 8.1875c.085938.003906.171875-.003906.257812 0 .214844-.210938.464844-.378906.742188-.5-.304688.023438-.632812.039062-1 .039062-1.851562 0-2.964844-.378906-3.035156-.574218V5.8125C5.9375 6.160156 6.96875 6.320312 8 6.285156c1.03125.035156 2.0625-.125 3.03125-.472656v1.03125c.003906.148438.003906.195312.003906.25h-.003906v.0625c-.035156.09375-.300781.222656-.75.335938.441406.050781.863281.222656 1.21875.496093V5.039062C11.457031 4.21875 9.289062 4 8 4s-3.5.222656-3.5 1.058594v5.882812C4.5 11.773438 6.699219 12 8 12c.164062 0 .34375-.003906.53125-.011719-.179688-.132812-.339844-.285156-.476562-.460937M4.96875 5.066406C5.035156 4.871094 6.132812 4.480469 8 4.480469c1.8125 0 2.90625.367187 3.03125.566406.03125.066406.03125.136719 0 .203125v.003906c-.082031.199219-1.179688.570313-3.03125.570313-.996094.058593-1.996094-.101563-2.921875-.46875-.042969-.03125-.082031-.066407-.109375-.109375-.027344-.058594-.027344-.121094 0-.179688"/><path d="M10 7.976562c-1.105469 0-2 .894532-2 2 0 1.101563.894531 2 2 2s2-.898437 2-2c0-1.105468-.894531-2-2-2m-.332031 2.683594-.617188-.636718.234375-.230469.382813.363281 1.03125-1.199219.269531.234375Zm0 0"/></g></svg>