<svg xmlns="http://www.w3.org/2000/svg" viewBox="0 0 16 16"><path fill="#414141" d="M12.836 11.5a6.68394 6.68394 0 00-.013-3h.868l.862 1.724.894-.448L14.309 7.5h-1.783a6.24585 6.24585 0 00-.742-1.422l2.716-1.81V1h-1v2.732l-2.385 1.591a4.95209 4.95209 0 00-.985-.753A3.433 3.433 0 0010.5 3 2.784 2.784 0 008 0a2.784 2.784 0 00-2.5 3 3.445 3.445 0 00.369 1.57 4.97919 4.97919 0 00-.984.752L2.5 3.732V1h-1v3.268l2.716 1.81A6.24329 6.24329 0 003.454 7.5H1.691L.553 9.776l.894.448.862-1.724h.859a6.85991 6.85991 0 000 3H1.691L.553 13.776l.894.448.862-1.724h1.15A5.038 5.038 0 008 16a5.04 5.04 0 004.541-3.5h1.15l.862 1.724.894-.448-1.138-2.276zM8 15c-2.206 0-4-2.243-4-5a5.209 5.209 0 012.362-4.56l.835-.472-.438-.854A2.442 2.442 0 016.5 3c0-1.084.687-2 1.5-2s1.5.916 1.5 2a2.45794 2.45794 0 01-.259 1.114l-.438.854.835.473A5.2 5.2 0 0112 10c0 2.757-1.794 5-4 5z"/></svg>