<svg xmlns="http://www.w3.org/2000/svg" viewBox="0 0 16 16"><path fill="#414141" d="M12.84 11.5a7 7 0 0 0-.02-3h.87l.86 1.72.9-.44L14.3 7.5h-1.78a6 6 0 0 0-.75-1.42l2.72-1.81V1h-1v2.73l-2.38 1.6a5 5 0 0 0-.99-.76A3.4 3.4 0 0 0 10.5 3 2.8 2.8 0 0 0 8 0a2.8 2.8 0 0 0-2.5 3 3.5 3.5 0 0 0 .37 1.57 5 5 0 0 0-.99.75L2.5 3.73V1h-1v3.27l2.72 1.8a6 6 0 0 0-.77 1.43H1.7L.55 9.78l.9.44.86-1.72h.86a7 7 0 0 0 0 3H1.69L.55 13.78l.9.44.86-1.72h1.15A5 5 0 0 0 8 16a5 5 0 0 0 4.54-3.5h1.15l.86 1.72.9-.44-1.14-2.28zM8 15c-2.2 0-4-2.24-4-5a5.2 5.2 0 0 1 2.36-4.56l.84-.47-.44-.86A2.4 2.4 0 0 1 6.5 3c0-1.08.69-2 1.5-2s1.5.92 1.5 2a2.5 2.5 0 0 1-.26 1.11l-.44.86.84.47A5.2 5.2 0 0 1 12 10c0 2.76-1.8 5-4 5"/></svg>