<svg xmlns="http://www.w3.org/2000/svg" viewBox="0 0 16 16"><path fill="#414141" d="M12.836 11.5a6.68379 6.68379 0 0 0-.013-3h.868l.862 1.724.894-.448L14.309 7.5h-1.783a6.2438 6.2438 0 0 0-.742-1.422L14.5 4.26807V1h-1v2.73193L11.115 5.323a4.9512 4.9512 0 0 0-.985-.75293A3.43331 3.43331 0 0 0 10.5 3 2.78392 2.78392 0 0 0 8 0a2.784 2.784 0 0 0-2.5 3 3.446 3.446 0 0 0 .369 1.57007 4.97775 4.97775 0 0 0-.984.75195L2.5 3.73193V1h-1v3.26807L4.216 6.078A6.24415 6.24415 0 0 0 3.454 7.5H1.691L.553 9.776l.894.448.862-1.724h.859a6.859 6.859 0 0 0 0 3H1.691L.553 13.776l.894.448.862-1.724h1.15A5.03807 5.03807 0 0 0 8 16a5.0402 5.0402 0 0 0 4.541-3.5h1.15l.862 1.724.894-.448-1.138-2.276zM8 15c-2.206 0-4-2.243-4-5a5.209 5.209 0 0 1 2.362-4.56006l.835-.47194-.438-.854A2.44278 2.44278 0 0 1 6.5 3c0-1.084.687-2 1.5-2s1.5.916 1.5 2a2.45923 2.45923 0 0 1-.259 1.114l-.438.854.835.4729A5.20012 5.20012 0 0 1 12 10c0 2.757-1.794 5-4 5z"/></svg>