<svg xmlns="http://www.w3.org/2000/svg" viewBox="0 0 16 16"><path fill="#414141" d="m.141 15.152 4.24264-4.24264.70711.70711-4.24264 4.24264zm1.06011-3.18189 2.12132-2.12132-.70711-.70711L.494 11.263zm3.536 3.536 2.12132-2.12132-.70711-.70711L4.03 14.799zM16 7l-1.731 1.749 1.075 3.222-2.829 2.829-2.128-2.13-1.407 1.422L1.909 7.02l1.42-1.407L1.2 3.485 4.03.656l3.222 1.075L9 0h7zM2.616 3.486 4.03 4.9l2.391-2.393L4.3 1.8zM14.2 11.7l-.709-2.121L11.1 11.97l1.415 1.413zM15 1H9.412L3.326 7.024l5.65 5.65L15 6.588z"/></svg>