<svg xmlns="http://www.w3.org/2000/svg" viewBox="0 0 16 16"><path fill="#414141" d="M16 0H9L7.252 1.731 4.03.656 1.2 3.48505 3.329 5.613 1.909 7.02l7.071 7.072 1.407-1.422 2.128 2.13 2.829-2.829-1.075-3.222L16 7zM2.616 3.486L4.3 1.80005l2.121.707L4.03 4.9zm9.899 9.897L11.1 11.97l2.391-2.391.709 2.121zM15 6.588l-6.024 6.086-5.65-5.65L9.412 1H15zM.1409047648 15.1461059185l4.2426406872-4.242640687.7071067811.7071067811-4.242640687 4.2426406871zm.3572355764-3.8814595254l2.121350703-2.1212899836.7070966613.707116901-2.121350703 2.1212899836zm3.527541533 3.5360040454l2.1213203436-2.1213203436.7071067811.7071067812-2.1213203435 2.1213203435z"/></svg>