<svg xmlns="http://www.w3.org/2000/svg" viewBox="0 0 16 16"><path fill="#414141" d="M8 0a8 8 0 1 0 8 8 8 8 0 0 0-8-8zm7 8a8.24 8.24 0 0 1-.7 3.1l-3.5-2a3.55 3.55 0 0 0 .2-1 2.93 2.93 0 0 0-4-2.8L5 1.8a6.43 6.43 0 0 1 3.1-.7A6.79 6.79 0 0 1 15 7.77V8zm-5 0a2 2 0 1 1-2-2 2 2 0 0 1 2 2zM4.1 2.2l2 3.5-.4.4-3.5-2a5.75 5.75 0 0 1 1.9-1.9zM1 8a8.24 8.24 0 0 1 .7-3.1l3.5 2a3.55 3.55 0 0 0-.2 1 2.93 2.93 0 0 0 4 2.8l2 3.5a6.43 6.43 0 0 1-3.1.7A6.79 6.79 0 0 1 1 8.23V8zm10.9 5.8-2-3.5.4-.4 3.5 2a5.75 5.75 0 0 1-1.9 1.9z"/></svg>