<svg xmlns="http://www.w3.org/2000/svg" viewBox="0 0 16 16"><path fill="#414141" d="M8 0a8 8 0 1 0 8 8 8 8 0 0 0-8-8zm7 8a8.24376 8.24376 0 0 1-.7 3.1l-3.5-2a3.55358 3.55358 0 0 0 .2-1 2.934 2.934 0 0 0-4-2.8L5 1.8a6.4278 6.4278 0 0 1 3.1-.7A6.788 6.788 0 0 1 15 7.77414q.00188.11293 0 .22586zm-5 0a2 2 0 1 1-2-2 2 2 0 0 1 2 2zM4.1 2.2l2 3.5-.4.4-3.5-2a5.7523 5.7523 0 0 1 1.9-1.9zM1 8a8.24376 8.24376 0 0 1 .7-3.1l3.5 2a3.55358 3.55358 0 0 0-.2 1 2.934 2.934 0 0 0 4 2.8l2 3.5a6.4278 6.4278 0 0 1-3.1.7A6.788 6.788 0 0 1 1 8.22586Q.99813 8.11293 1 8zm10.9 5.8-2-3.5.4-.4 3.5 2a5.7523 5.7523 0 0 1-1.9 1.9z"/></svg>