<svg xmlns="http://www.w3.org/2000/svg" viewBox="0 0 16 16"><path fill="#414141" d="m.00057 8.435.973-6.215s.258-2.227 3.254-2.227h5.8a5.481 5.481 0 0 1 1.973.373v-.373h4v10h-4v-.667a3.128 3.128 0 0 0-2 2.912v3.755s-.15.014-.391.014c-1 0-3.591-.234-3.591-2.642l-.049-2.372h-3.663a2.49 2.49 0 0 1-2.306-2.558zm13 .558h2v-8h-2zm-12-.486a1.355 1.355 0 0 0 .616 1.216 1.96111 1.96111 0 0 0 .744.27h4.587l.02.979.05 2.373v.02a1.3 1.3 0 0 0 .841 1.317 3.70009 3.70009 0 0 0 1.142.292v-2.736a3.963 3.963 0 0 1 1.968-3.491 5.54112 5.54112 0 0 1 1.032-.504v-6.55a.268.268 0 0 0-.1-.227 1.56 1.56 0 0 0-.573-.285 4.9742 4.9742 0 0 0-1.303-.188h-5.8a2.43 2.43 0 0 0-1.916.674 1.549 1.549 0 0 0-.345.676v.031z"/></svg>