<svg xmlns="http://www.w3.org/2000/svg" viewBox="0 0 16 16"><path fill="#414141" d="m0 8.44.97-6.22S1.23-.01 4.23-.01h5.8A5.48 5.48 0 0 1 12 .37v-.38h4v10h-4v-.66a3.13 3.13 0 0 0-2 2.9V16l-.39.02c-1 0-3.6-.24-3.6-2.65L5.98 11H2.31A2.49 2.49 0 0 1 0 8.43zm13 .55h2V1h-2zM1 8.51a1.35 1.35 0 0 0 .62 1.21 1.96 1.96 0 0 0 .74.27h4.59l.02.98.05 2.37v.02a1.3 1.3 0 0 0 .84 1.32 3.7 3.7 0 0 0 1.14.3v-2.74a3.96 3.96 0 0 1 1.97-3.5 5.54 5.54 0 0 1 1.03-.5V1.7a.27.27 0 0 0-.1-.22 1.56 1.56 0 0 0-.57-.29 4.97 4.97 0 0 0-1.3-.19h-5.8a2.43 2.43 0 0 0-1.92.68 1.55 1.55 0 0 0-.35.67v.03z"/></svg>