<svg xmlns="http://www.w3.org/2000/svg" viewBox="0 0 16 16"><path fill="#414141" d="M0 8.442l.973-6.215S1.231 0 4.227 0h5.8A5.481 5.481 0 0112 .373V0h4v10h-4v-.667a3.128 3.128 0 00-2 2.912V16s-.15.014-.391.014c-1 0-3.591-.234-3.591-2.642L5.969 11H2.306A2.49 2.49 0 010 8.442zM13 9h2V1h-2zM1.04055 8.514a1.35656 1.35656 0 00.61373 1.216 1.94929 1.94929 0 00.74126.27H6.9294l.02017.979L7 13.352v.02a1.29954 1.29954 0 00.84821 1.317A3.75756 3.75756 0 009 14.981v-2.7303a3.963 3.963 0 011.968-3.491A5.54112 5.54112 0 0112 8.2557V1.7a.26842.26842 0 00-.09963-.227 1.552 1.552 0 00-.57089-.285A4.93889 4.93889 0 0010.03128 1H4.25267a2.41571 2.41571 0 00-1.90894.674A1.55106 1.55106 0 002 2.35v.031z"/></svg>