<svg xmlns="http://www.w3.org/2000/svg" viewBox="0 0 16 16"><path fill="#414141" d="m0 8.44.97-6.22S1.23-.01 4.23-.01h5.8A6 6 0 0 1 12 .37v-.38h4v10h-4v-.66a3.1 3.1 0 0 0-2 2.9V16l-.39.02c-1 0-3.6-.24-3.6-2.65L5.98 11H2.31A2.5 2.5 0 0 1 0 8.43zm13 .55h2V1h-2zM1 8.51a1.4 1.4 0 0 0 .62 1.21 2 2 0 0 0 .74.27h4.59l.02.98.05 2.37v.02a1.3 1.3 0 0 0 .84 1.32 4 4 0 0 0 1.14.3v-2.74a4 4 0 0 1 1.97-3.5 6 6 0 0 1 1.03-.5V1.7a.3.3 0 0 0-.1-.22 2 2 0 0 0-.57-.29 5 5 0 0 0-1.3-.19h-5.8a2.4 2.4 0 0 0-1.92.68 2 2 0 0 0-.35.67v.03z"/></svg>