<svg xmlns="http://www.w3.org/2000/svg" viewBox="0 0 16 16"><g fill="#414141"><path d="M9 0H2v16h12V5zm0 1.4L12.6 5H9zM13 15H3V1h5v5h5z"/><path d="M6.373 9.179a3.015 3.015 0 00-.273 1.329 2.719 2.719 0 00.559 1.848 2.042 2.042 0 001.62.644 3.459 3.459 0 001.337-.25v-.865a3.851 3.851 0 01-1.237.256q-1.221 0-1.219-1.627A2.034 2.034 0 017.479 9.3a1.05 1.05 0 01.9-.437 1.64 1.64 0 01.542.095 5.459 5.459 0 01.549.226l.33-.843A3.276 3.276 0 008.379 8a2.35 2.35 0 00-1.213.3 2 2 0 00-.793.879z"/></g></svg>