<svg xmlns="http://www.w3.org/2000/svg" viewBox="0 0 16 16"><g fill="#414141"><path d="M9 0H2v16h12V5zm0 1.4L12.6 5H9zM13 15H3V1h5v5h5z"/><path d="M6.373 9.179a3.015 3.015 0 0 0-.273 1.329 2.719 2.719 0 0 0 .559 1.848 2.042 2.042 0 0 0 1.62.644 3.459 3.459 0 0 0 1.337-.25v-.865a3.851 3.851 0 0 1-1.237.256q-1.221 0-1.219-1.627A2.034 2.034 0 0 1 7.479 9.3a1.05 1.05 0 0 1 .9-.437 1.64 1.64 0 0 1 .542.095 5.459 5.459 0 0 1 .549.226l.33-.843A3.276 3.276 0 0 0 8.379 8a2.35 2.35 0 0 0-1.213.3 2 2 0 0 0-.793.879z"/></g></svg>