<svg xmlns="http://www.w3.org/2000/svg" viewBox="0 0 16 16"><path fill="#414141" d="M9 0H2v16h12V5zm3.6 5H9V1.4zm.4 10H3V1h5v5h5z"/><path fill="#414141" d="M10.30213 13H8.70451l-.47879-2.17852q-.03372-.13705-.10749-.54378-.07323-.4067-.10846-.68057-.02638.222-.08794.55257-.06156.32978-.12214.6068-.06011.277-.49736 2.2435H5.70569l-1.239-5h1.3035l.54328 2.50684q.18468.831.25406 1.32353.044-.34884.1583-.94733.11432-.59874.214-.9918L7.3805 8h1.25268l.427 1.89124q.10994.4551.22181 1.04994.11433.59507.15048.88919.04544-.37962.24331-1.31669L10.22982 8h1.3035z"/></svg>