<svg xmlns="http://www.w3.org/2000/svg" viewBox="0 0 15 15"><path fill="#414141" d="M5.21875 11.828125v-1.675781l4.058594-3.910156 1.738281 1.675781-4.058594 3.910156Zm.578125-1.445313v.886719h.921875l3.476562-3.351562-.917968-.886719ZM3.1875 9.59375C3.191406 8.328125 4 7.191406 5.226562 6.734375c-.546874-.363281-.878906-.964844-.878906-1.605469 0-1.082031.910156-1.957031 2.03125-1.957031s2.027344.875 2.027344 1.957031c0 .640625-.328125 1.242188-.875 1.605469.09375.035156.183594.082031.277344.125l-.429688.414063c-.316406-.125-.65625-.191407-1-.191407-1.441406 0-2.609375 1.125-2.609375 2.511719Zm1.742188-4.464844c0 .769532.648437 1.394532 1.449218 1.394532.800782 0 1.449219-.625 1.449219-1.394532 0-.773437-.648437-1.398437-1.449219-1.398437-.800781 0-1.449218.625-1.449218 1.398437Zm4.722656.753906.410156-.394531 1.738281 1.675781-.410156.394532Zm0 0"/></svg>