<svg xmlns="http://www.w3.org/2000/svg" viewBox="4 4 8 8"><path fill="#414141" d="M6 12v-1.5L9.5 7 11 8.5 7.5 12Zm.5-1.292969V11.5h.792969l3-3L9.5 7.707031ZM4.25 10c0-1.136719.699219-2.152344 1.757812-2.5625C5.535156 7.113281 5.25 6.574219 5.25 6c0-.964844.785156-1.75 1.75-1.75S8.75 5.035156 8.75 6c0 .574219-.285156 1.113281-.757812 1.4375.082031.035156.160156.074219.238281.117188l-.367188.367187C7.589844 7.808594 7.296875 7.75 7 7.75c-1.242188 0-2.25 1.007812-2.25 2.25Zm1.5-4c0 .691406.558594 1.25 1.25 1.25S8.25 6.691406 8.25 6 7.691406 4.75 7 4.75 5.75 5.308594 5.75 6Zm4.074219.675781.351562-.351562 1.5 1.5-.351562.351562Zm0 0"/></svg>