<svg xmlns="http://www.w3.org/2000/svg" viewBox="4 5 8 6"><path fill="#414141" d="M8.98 10.25H6.9a1 1 0 0 1-1.93 0H4V7.48h1.27l1-2.48h3.34l1 2.48h1.33v2.77H10.9a1 1 0 0 1-.97.75 1 1 0 0 1-.96-.75Zm.46-.25c0 .27.22.5.5.5a.5.5 0 0 0 .5-.5.5.5 0 0 0-.85-.36.5.5 0 0 0-.15.36Zm-4 0c0 .27.22.5.5.5a.5.5 0 0 0 .5-.5.5.5 0 0 0-.5-.5.5.5 0 0 0-.5.5Zm5.47-.25h.53V7.98h-1.17L9.3 5.56l-.03-.06H6.61l-.01.04-.01-.02-.98 2.46H4.5v1.77h.48a1 1 0 0 1 1.93 0h2.07a1 1 0 0 1 1.93 0ZM7.79 7.8l-.63-.36 1.73-1.42-.67 1.14.6.34-1.73 1.52Zm0 0"/></svg>