<svg xmlns="http://www.w3.org/2000/svg" viewBox="4 5 8 6"><path fill="#414141" d="M8.976562 10.246094H6.90625c-.117188.441406-.511719.746094-.964844.75-.457031 0-.851562-.308594-.964844-.75H4V7.484375h1.273438l1-2.484375h3.335937l1 2.484375H11.9375v2.761719h-1.03125c-.113281.441406-.511719.75-.96875.75-.453125-.003906-.847656-.3125-.960938-.75Zm.464844-.25c0 .277344.222656.5.5.5.277344 0 .5-.222656.5-.5 0-.277344-.222656-.5-.5-.5-.132812 0-.261718.050781-.355468.148437-.09375.09375-.144532.21875-.144532.351563Zm-4 0c0 .277344.222656.5.5.5.277344 0 .5-.222656.5-.5v-.003906c-.003906-.273438-.226562-.496094-.5-.496094-.277344 0-.5.222656-.5.5Zm5.464844-.25h.53125V7.984375h-1.164062l-.972657-2.425781h-.003906l-.023437-.0625H6.609375l-.011719.039062-.007812-.011718-.980469 2.460937H4.5v1.761719h.476562c.113282-.441406.511719-.75.964844-.75s.851563.308594.964844.75h2.070312c.113282-.441406.511719-.75.964844-.75s.851563.308594.964844.75ZM7.785156 7.796875l-.625-.359375 1.726563-1.421875-.664063 1.148437.589844.339844-1.726562 1.511719Zm0 0"/></svg>