<svg xmlns="http://www.w3.org/2000/svg" viewBox="0 0 16 16"><path fill="#414141" d="m7.96825 12.24129 4.375 2.625-.875-5.25 3.5-3.5-4.624-.639-2.376-4.611-2.37 4.611-4.63.639 3.5 3.5-.87 5.25z"/><path fill="#414141" d="m2.96825 15.86629.998-6.03421-3.998-4.0102 5.32639-.73736L7.96925-.13371l2.67857 5.21823 5.32043.73836-3.997 4.0092 1.003 6.03321-5.005-3.01213zm5.001-4.1734 3.67063 2.21211-.73313-4.4152 2.94742-2.9564L10 6 7.96925 2.04155 5.94147 6l-3.86012.53436 2.94643 2.95541-.72917 4.41423z"/></svg>