<svg xmlns="http://www.w3.org/2000/svg" viewBox="0 0 16 16"><path fill="#414141" d="M14.73 7.92a6.28 6.28 0 0 0-.78-1.62 4.56 4.56 0 0 1-.42-.75 4.17 4.17 0 0 1-.21-.62 3.06 3.06 0 0 1-.08-.49 2.32 2.32 0 0 1 0-.3 1.03 1.03 0 0 0 0-.13.41.41 0 0 0-.02-.28.54.54 0 0 0-.18-.22.52.52 0 0 0-.26-.1.54.54 0 0 0-.06 0 .5.5 0 0 0-.22.05.84.84 0 0 0-.13.07 2.79 2.79 0 0 0-1.2 1.22 2.9 2.9 0 0 0-.11.28 3.12 3.12 0 0 0-.12.3 5.55 5.55 0 0 0-.22 1.05 6.23 6.23 0 0 1-.42-.7 6.71 6.71 0 0 1-.5-1.43l-.02-.08a8.85 8.85 0 0 1-.2-1.2V2.9a9.09 9.09 0 0 1 0-1.18A8.96 8.96 0 0 1 9.67.6a.44.44 0 0 0-.14-.46.56.56 0 0 0-.25-.12.66.66 0 0 0-.12-.01.72.72 0 0 0-.15.02 3 3 0 0 0-.43.14 5.69 5.69 0 0 0-.88.47 6.75 6.75 0 0 0-1.13.86l-.02.02a4.58 4.58 0 0 0-.52.6 5.86 5.86 0 0 0-.5.77l-.1.21a6.66 6.66 0 0 0-.63 1.77 7.96 7.96 0 0 0-.07 2.79.71.71 0 0 0 .02.11c.04.27.1.54.16.81a3.22 3.22 0 0 1-.5-.42l-.1-.1A3.23 3.23 0 0 1 4 7.62a6.33 6.33 0 0 1-.78-1.8.44.44 0 0 0-.16-.25.53.53 0 0 0-.3-.12.73.73 0 0 0-.09 0 .47.47 0 0 0-.25.06.46.46 0 0 0-.18.2 3.18 3.18 0 0 0-.17.27 19.6 19.6 0 0 0-.69 1.55A5.25 5.25 0 0 0 1 9.4a5.27 5.27 0 0 0 .32 1.87 6.97 6.97 0 0 0 .48 1.08l.02.05c.05.09.12.16.17.24a6.9 6.9 0 0 0 .46.68l.27.3a7.2 7.2 0 0 0 .51.54l.13.13.22.16a6.86 6.86 0 0 0 .57.4 7.17 7.17 0 0 0 1.02.55l.29.14.25.08.14.05a7.12 7.12 0 0 0 .94.22l.14.02a6.84 6.84 0 0 0 3.54-.4 7.28 7.28 0 0 0 3.22-2.54 5.92 5.92 0 0 0 1.04-5.05zm-7.75 7a5.38 5.38 0 0 1-.26-.06 5.9 5.9 0 0 1-.75-.2l-.18-.06a5.91 5.91 0 0 1-.87-.41l-.14-.1a6.05 6.05 0 0 1-.68-.49l-.16-.13a6.06 6.06 0 0 1-.5-.5l-.1-.1a5.95 5.95 0 0 1-.5-.7 5.15 5.15 0 0 1-.8-2.41A4.45 4.45 0 0 1 2.3 7.9l.3-.72a5.78 5.78 0 0 0 .55 1.03 4.23 4.23 0 0 0 .57.7 3.62 3.62 0 0 0 .67.54l2.1 1.3-.6-2.39a7.87 7.87 0 0 1-.24-1.66 7.25 7.25 0 0 1 .1-1.39c0-.07.01-.15.03-.22A5.66 5.66 0 0 1 6.4 3.4a7 7 0 0 1 .42-.66l.26-.31.17-.2a5.88 5.88 0 0 1 .97-.73l.37-.22-.03.39a10.41 10.41 0 0 0 .01 1.3l.05.4.04.32c.04.27.09.53.15.79a7.62 7.62 0 0 0 .57 1.63l.02.04.02.04.18.3.27.44 1.5 2.28.33-2.72v-.02a4.45 4.45 0 0 1 .17-.81v-.02a2.51 2.51 0 0 1 .17-.43 2.09 2.09 0 0 1 .15-.24l.07-.1.06.3.01.02a4.98 4.98 0 0 0 .26.74v.02a5.35 5.35 0 0 0 .26.47c.09.15.15.3.25.44a7.1 7.1 0 0 1 .39.7 5.24 5.24 0 0 1 .21.53l.05.12a3.87 3.87 0 0 1 .17.99 5.85 5.85 0 0 1-3.76 5.34 5.84 5.84 0 0 1-2.23.45 6.02 6.02 0 0 1-.96-.09z"/></svg>