<svg xmlns="http://www.w3.org/2000/svg" viewBox="0 0 16 16"><path fill="#414141" d="M14.77331 7.92146a6.27779 6.27779 0 00-.782-1.617 4.55946 4.55946 0 01-.413-.75 4.16774 4.16774 0 01-.218-.625 3.05981 3.05981 0 01-.076-.485 2.32275 2.32275 0 01-.008-.312 1.03445 1.03445 0 00.008-.125.41392.41392 0 00-.025-.273.538.538 0 00-.176-.219.523.523 0 00-.261-.1.54169.54169 0 00-.057 0 .509.509 0 00-.22.05.83813.83813 0 00-.136.063 2.79 2.79 0 00-1.2 1.224 2.89492 2.89492 0 00-.109.277 3.12079 3.12079 0 00-.118.3 5.54674 5.54674 0 00-.219 1.047c-.089-.136-.168-.264-.234-.383s-.13-.227-.187-.321a6.71173 6.71173 0 01-.5-1.421c-.006-.028-.009-.05-.015-.078a8.84744 8.84744 0 01-.195-1.2c0-.022-.006-.047-.008-.068a9.08737 9.08737 0 01-.009-1.18c.023-.4.045-.666.068-.8s.039-.237.05-.32a.439.439 0 00-.151-.468.56.56 0 00-.252-.118.65934.65934 0 00-.117-.01.725.725 0 00-.153.017c-.112.032-.255.079-.429.142a5.68563 5.68563 0 00-.875.468 6.75436 6.75436 0 00-1.135.868l-.018.021a4.57377 4.57377 0 00-.52.6 5.86259 5.86259 0 00-.5.768c-.038.068-.061.142-.1.21a6.6628 6.6628 0 00-.632 1.765 7.962 7.962 0 00-.068 2.792.714.714 0 00.022.11c.043.269.092.539.161.811a3.221 3.221 0 01-.511-.419c-.03-.032-.059-.076-.089-.11a3.22987 3.22987 0 01-.336-.419 6.33189 6.33189 0 01-.774-1.812.437.437 0 00-.159-.242.53.53 0 00-.3-.117.7273.7273 0 00-.093-.007.469.469 0 00-.25.066.463.463 0 00-.178.191 3.17955 3.17955 0 00-.169.273c-.067.119-.173.332-.312.64s-.266.614-.378.914a5.25228 5.25228 0 00-.371 1.861 5.2672 5.2672 0 00.316 1.874 6.97285 6.97285 0 00.481 1.074c.01.017.015.036.024.053.048.086.114.16.166.243a6.89543 6.89543 0 00.456.672c.085.108.181.2.272.308a7.20048 7.20048 0 00.516.532c.045.041.081.09.127.13.069.06.151.1.222.161a6.8531 6.8531 0 00.565.407c.135.088.271.171.412.25.2.109.4.2.609.294.1.042.189.1.29.14.082.031.166.053.249.081.048.017.1.032.145.048a7.11682 7.11682 0 00.933.224c.047.008.1.012.142.019a6.839 6.839 0 003.543-.393 7.277 7.277 0 003.222-2.549 5.916 5.916 0 001.037-5.047zm-7.754 6.993c-.085-.014-.169-.032-.253-.05a5.90157 5.90157 0 01-.753-.206c-.059-.021-.121-.037-.18-.06a5.913 5.913 0 01-.865-.413c-.049-.029-.1-.063-.144-.093a6.05536 6.05536 0 01-.678-.488c-.053-.044-.107-.087-.159-.133a6.06123 6.06123 0 01-.5-.5c-.031-.034-.064-.066-.094-.1a5.95428 5.95428 0 01-.516-.7 5.15318 5.15318 0 01-.8-2.414 4.44709 4.44709 0 01.279-1.857c.085-.23.185-.474.3-.725a5.78153 5.78153 0 00.545 1.034 4.2294 4.2294 0 00.57.694 3.62156 3.62156 0 00.675.55l2.1 1.3-.606-2.393a7.87414 7.87414 0 01-.241-1.659 7.25028 7.25028 0 01.1-1.387c.012-.075.017-.151.032-.225a5.655 5.655 0 01.62-1.683 7.00191 7.00191 0 01.421-.655c.082-.109.174-.209.265-.311.056-.061.113-.141.167-.192a5.87777 5.87777 0 01.97-.742c.151-.092.27-.161.365-.214-.008.106-.017.233-.026.387a10.41319 10.41319 0 00.011 1.31c.011.134.032.266.049.4.013.105.02.2.038.314.041.264.091.526.153.786a7.622 7.622 0 00.573 1.634l.018.038.022.037c.055.09.117.2.175.3.078.14.169.288.269.44l1.509 2.286.32-2.72v-.022a4.447 4.447 0 01.169-.816l.005-.019a2.51469 2.51469 0 01.166-.424 2.08818 2.08818 0 01.155-.24c.025-.036.045-.079.072-.112.016.1.037.206.061.306l.007.02a4.98555 4.98555 0 00.257.743l.008.024a5.35033 5.35033 0 00.258.469c.081.147.145.3.241.441a7.0971 7.0971 0 01.394.692 5.23138 5.23138 0 01.215.532c.013.038.037.083.047.119a3.8696 3.8696 0 01.171.99 5.85 5.85 0 01-3.761 5.346 5.84414 5.84414 0 01-2.236.447 6.022 6.022 0 01-.96-.086z"/></svg>