<svg xmlns="http://www.w3.org/2000/svg" viewBox="0 0 16 16"><path fill="#414141" d="M14.73 7.92a6 6 0 0 0-.78-1.62 5 5 0 0 1-.42-.75 4 4 0 0 1-.21-.62 3 3 0 0 1-.08-.49v-.43a.4.4 0 0 0-.02-.28 1 1 0 0 0-.18-.22l-.26-.1h-.06l-.22.05-.13.07a3 3 0 0 0-1.2 1.22l-.11.28-.12.3a6 6 0 0 0-.22 1.05 6 6 0 0 1-.42-.7 7 7 0 0 1-.5-1.43l-.02-.08a9 9 0 0 1-.2-1.2V2.9a9 9 0 0 1 0-1.18A9 9 0 0 1 9.67.6a.4.4 0 0 0-.14-.46L9.28.02 9.16.01l-.15.02-.43.14a6 6 0 0 0-.88.47 7 7 0 0 0-1.13.86l-.02.02a5 5 0 0 0-.52.6 6 6 0 0 0-.5.77l-.1.21a7 7 0 0 0-.63 1.77 8 8 0 0 0-.07 2.79l.02.11q.06.4.16.81a3 3 0 0 1-.5-.42l-.1-.1A3 3 0 0 1 4 7.62a6 6 0 0 1-.78-1.8.4.4 0 0 0-.16-.25.5.5 0 0 0-.3-.12h-.09l-.25.06-.18.2-.17.27a20 20 0 0 0-.69 1.55A5 5 0 0 0 1 9.4a5 5 0 0 0 .32 1.87 7 7 0 0 0 .48 1.08l.02.05.17.24a7 7 0 0 0 .46.68l.27.3.51.54.13.13.22.16.57.4a7 7 0 0 0 1.02.55l.29.14.25.08.14.05a7 7 0 0 0 .94.22l.14.02a7 7 0 0 0 3.54-.4 7.3 7.3 0 0 0 3.22-2.54 6 6 0 0 0 1.04-5.05m-7.75 7-.26-.06a6 6 0 0 1-.75-.2l-.18-.06a6 6 0 0 1-.87-.41l-.14-.1a6 6 0 0 1-.68-.49l-.16-.13a6 6 0 0 1-.5-.5l-.1-.1a6 6 0 0 1-.5-.7 5 5 0 0 1-.8-2.41A4.5 4.5 0 0 1 2.3 7.9l.3-.72a6 6 0 0 0 .55 1.03 4 4 0 0 0 .57.7 4 4 0 0 0 .67.54l2.1 1.3-.6-2.39a8 8 0 0 1-.24-1.66 7 7 0 0 1 .1-1.39q0-.11.03-.22A6 6 0 0 1 6.4 3.4a7 7 0 0 1 .42-.66l.26-.31.17-.2a6 6 0 0 1 .97-.73l.37-.22-.03.39a10 10 0 0 0 .01 1.3l.05.4.04.32q.06.4.15.79a8 8 0 0 0 .57 1.63l.02.04.02.04.18.3.27.44 1.5 2.28.33-2.72v-.02a5 5 0 0 1 .17-.81v-.02l.17-.43.15-.24.07-.1.06.3.01.02a5 5 0 0 0 .26.74v.02l.26.47.25.44a7 7 0 0 1 .39.7l.21.53.05.12a4 4 0 0 1 .17.99 5.85 5.85 0 0 1-3.76 5.34 6 6 0 0 1-2.23.45 6 6 0 0 1-.96-.09z"/></svg>