<svg xmlns="http://www.w3.org/2000/svg" viewBox="0 0 16 16"><path fill="#414141" d="M7.5 0h1v3h-1zM13 7.5h3v1h-3zm-13 0h3v1H0zm1.99-4.8.7-.71 2.12 2.12-.7.7zm9.2 1.4 2.11-2.12.71.71-2.12 2.12zm-2.76 7.88C6.27 11 3.83 9.88 0 11.54l.37.92c3.44-1.48 5.6-.5 7.67.45a9.2 9.2 0 0 0 3.82 1.1A6.8 6.8 0 0 0 16 12.4l-.57-.82c-2.97 2.24-4.75 1.43-7 .4zm0 2c-2.16-.98-4.6-2.1-8.43-.45l.37.92c3.44-1.48 5.6-.5 7.67.45a9.2 9.2 0 0 0 3.82 1.1A6.8 6.8 0 0 0 16 14.4l-.57-.82c-2.97 2.24-4.75 1.43-7 .4zm2.31-3.11A3.96 3.96 0 0 0 12 8a4 4 0 1 0-8 0 3.67 3.67 0 0 0 .08.7A9.12 9.12 0 0 0 0 9.53l.37.92c3.44-1.48 5.6-.5 7.67.45a9.21 9.21 0 0 0 3.82 1.1A6.8 6.8 0 0 0 16 10.4l-.57-.82c-1.9 1.44-3.32 1.62-4.69 1.29zm-1.12-.37c-.39-.15-.78-.33-1.19-.52a13.9 13.9 0 0 0-3.3-1.16A2.88 2.88 0 0 1 5 8a3 3 0 1 1 4.62 2.5z"/></svg>