<svg xmlns="http://www.w3.org/2000/svg" viewBox="0 0 16 16"><path fill="#414141" d="M8.43 11.93c-2.16-1-4.6-2.12-8.43-.46l.37.94c3.44-1.5 5.6-.51 7.67.45a9.11 9.11 0 0 0 3.82 1.11A6.75 6.75 0 0 0 16 12.34l-.57-.81c-2.97 2.26-4.75 1.44-7 .4zm0 2.03c-2.16-1-4.6-2.12-8.43-.47l.37.94c3.44-1.5 5.6-.5 7.67.46A9.11 9.11 0 0 0 11.86 16 6.75 6.75 0 0 0 16 14.37l-.57-.82c-2.97 2.27-4.75 1.45-7 .4zm7-4.46c-2.92 2.23-4.7 1.47-6.9.45A7.13 7.13 0 0 1 6.03.27L6.19 0A8.08 8.08 0 0 0 0 7.9a7.85 7.85 0 0 0 .16 1.48L0 9.44l.37.94c3.44-1.5 5.6-.5 7.67.45a9.11 9.11 0 0 0 3.82 1.12A6.75 6.75 0 0 0 16 10.32zM2.54 3.46a7.04 7.04 0 0 1 1.77-1.59A8.12 8.12 0 0 0 5.83 8.9a8.05 8.05 0 0 0-4.73.14A6.97 6.97 0 0 1 1 7.9a7.16 7.16 0 0 1 1.54-4.44z"/></svg>