<svg xmlns="http://www.w3.org/2000/svg" viewBox="0 0 16 16"><g fill="#414141"><path d="M7.5 0h1v3h-1zM13 7.5h3v1h-3zm-13 0h3v1H0zm1.9850014357-4.8026399184.7069957004-.7072178445 2.1216535336 2.1209871011-.7069957003.7072178446zm9.1972910969 1.4090187586L13.3035388268 1.98498445l.7071314634.7070820981-2.1212462942 2.1213943903zM8.432 11.985C6.27 11 3.821 9.889 0 11.527l.373.924c3.436-1.476 5.588-.5 7.669.449a9.2 9.2 0 0 0 3.82 1.1A6.8 6.8 0 0 0 16 12.391l-.573-.806c-2.964 2.233-4.743 1.424-6.995.4z"/><path d="M8.432 13.985C6.27 13 3.821 11.889 0 13.527l.373.924c3.436-1.476 5.588-.5 7.669.449a9.2 9.2 0 0 0 3.82 1.1A6.8 6.8 0 0 0 16 14.391l-.573-.806c-2.964 2.233-4.743 1.424-6.995.4zm2.31-3.116A3.956 3.956 0 0 0 12 8a4 4 0 1 0-8 0 3.672 3.672 0 0 0 .08.7A9.122 9.122 0 0 0 0 9.527l.373.924c3.436-1.476 5.588-.5 7.669.449a9.213 9.213 0 0 0 3.82 1.1A6.8 6.8 0 0 0 16 10.391l-.573-.806c-1.905 1.435-3.319 1.615-4.685 1.284zM9.619 10.5c-.387-.155-.779-.333-1.187-.518a13.9 13.9 0 0 0-3.3-1.159A2.878 2.878 0 0 1 5 8a3 3 0 1 1 4.619 2.5z"/></g></svg>