<svg xmlns="http://www.w3.org/2000/svg" viewBox="0 0 16 16"><g fill="#414141"><path d="M8.432 11.933c-2.161-1-4.61-2.123-8.431-.463l.373.935c3.436-1.495 5.588-.506 7.668.455a9.113 9.113 0 0 0 3.82 1.114A6.754 6.754 0 0 0 16 12.345l-.573-.817c-2.964 2.262-4.743 1.443-6.995.405z"/><path d="M8.432 13.959c-2.161-1-4.61-2.123-8.431-.464l.373.936c3.436-1.495 5.588-.506 7.668.455A9.113 9.113 0 0 0 11.862 16 6.749 6.749 0 0 0 16 14.37l-.573-.816c-2.964 2.262-4.743 1.446-6.995.405zM15.426 9.5c-2.919 2.229-4.689 1.466-6.894.451A7.128 7.128 0 0 1 6.026.267c.052-.09.107-.179.163-.267A8.081 8.081 0 0 0 0 7.9a7.85 7.85 0 0 0 .159 1.48c-.054.023-.1.041-.159.064l.373.936c3.436-1.5 5.588-.507 7.668.454a9.114 9.114 0 0 0 3.82 1.115A6.754 6.754 0 0 0 16 10.319zM2.544 3.457a7.04 7.04 0 0 1 1.768-1.583 8.123 8.123 0 0 0 1.521 7.015 8.055 8.055 0 0 0-4.733.144A6.969 6.969 0 0 1 1 7.9a7.16 7.16 0 0 1 1.544-4.443z"/></g></svg>