<svg xmlns="http://www.w3.org/2000/svg" viewBox="0 0 16 16"><path fill="#414141" d="M15.5 4.5v-1h-1v1h-1.57a1.97 1.97 0 0 0-.21-.51l1.46-1.47-.7-.7L12 3.28a1.96 1.96 0 0 0-.51-.2V1.5h1v-1h-1V0h-1v.5h-1v1h1v1.57a2 2 0 0 0-.5.21L8.52 1.82l-.71.7L9.28 4a1.93 1.93 0 0 0-.2.51H6v1h3.07a1.97 1.97 0 0 0 .21.51L6.01 9.28a1.93 1.93 0 0 0-.51-.2V6h-1v3.07l-.5.21-1.47-1.46-.71.7L3.28 10a1.93 1.93 0 0 0-.2.51H1.5v-1h-1v1H0v1h.5v1h1v-1h1.57a1.93 1.93 0 0 0 .21.51l-1.46 1.46.7.71L4 12.72a1.96 1.96 0 0 0 .51.2v1.58h-1v1h1v.5h1v-.5h1v-1h-1v-1.57a1.93 1.93 0 0 0 .51-.21l1.47 1.46.7-.7L6.72 12a2 2 0 0 0 .2-.51H10v-1H6.93a1.96 1.96 0 0 0-.21-.5l3.27-3.28a1.96 1.96 0 0 0 .51.2V10h1V6.93a1.93 1.93 0 0 0 .51-.21l1.47 1.46.7-.7L12.72 6a2 2 0 0 0 .2-.51h1.58v1h1v-1h.5v-1zM5 12a1 1 0 1 1 1-1 1 1 0 0 1-1 1zm6-6a1 1 0 1 1 1-1 1 1 0 0 1-1 1z"/></svg>