<svg xmlns="http://www.w3.org/2000/svg" viewBox="0 0 16 16"><path fill="#414141" d="M15.5 4.5v-1h-1v1h-1.571a1.965 1.965 0 0 0-.212-.51l1.465-1.465-.707-.707-1.466 1.465a1.959 1.959 0 0 0-.509-.212V1.5h1v-1h-1V0h-1v.5h-1v1h1v1.571a1.994 1.994 0 0 0-.509.212L8.526 1.818l-.707.707L9.284 3.99a1.934 1.934 0 0 0-.213.51H6v1h3.07a1.965 1.965 0 0 0 .212.51L6.01 9.284a1.934 1.934 0 0 0-.51-.213V6h-1v3.071l-.509.212-1.465-1.465-.707.707L3.284 9.99a1.934 1.934 0 0 0-.213.51H1.5v-1h-1v1H0v1h.5v1h1v-1h1.571a1.934 1.934 0 0 0 .213.51L1.82 13.474l.707.707 1.464-1.464a1.959 1.959 0 0 0 .509.212V14.5h-1v1h1v.5h1v-.5h1v-1h-1v-1.571a1.934 1.934 0 0 0 .51-.213l1.466 1.466.707-.707-1.466-1.466a1.994 1.994 0 0 0 .212-.509H10v-1H6.929a1.959 1.959 0 0 0-.212-.509l3.274-3.274a1.959 1.959 0 0 0 .509.212V10h1V6.929a1.934 1.934 0 0 0 .51-.213l1.467 1.466.707-.707-1.467-1.466a1.994 1.994 0 0 0 .212-.509H14.5v1h1v-1h.5v-1zM5 12a1 1 0 1 1 1-1 1 1 0 0 1-1 1zm6-6a1 1 0 1 1 1-1 1 1 0 0 1-1 1z"/></svg>