<svg xmlns="http://www.w3.org/2000/svg" viewBox="0 0 16 16"><path fill="#414141" d="M16 .0022v4.49829l-1.00006-.00012-.00006-2.79309-4.6463 4.64624-.7071-.707L14.293 1h-2.7934V0h4.49817v.00208zM4.50049 1l-.00006-1H.00226l.00006.00208L0 .0022V.707l.00006 3.79349 1-.00012.00006-2.79309 4.64636 4.64624.7071-.707L1.707 1zm10.49939 13.29272-4.6463-4.64624-.7071.707L14.293 15h-2.7934v1h4.49817v-.0022H16v-4.49829h-1.00006zm-9.3534-4.64624-4.64636 4.64624-.00006-2.79321h-1L0 15.293v.70483h.00232L.00226 16h4.49817l.00006-1H1.707l4.64655-4.64648z"/></svg>