<svg xmlns="http://www.w3.org/2000/svg" viewBox="0 0 16 16"><path fill="#414141" d="m11.247 7.841 2.147-3.151h-1.535l-1.466 2.253L8.938 4.69H7l.1-.5a1.722 1.722 0 0 1 .367-.821.839.839 0 0 1 .633-.251 2.188 2.188 0 0 1 .785.164l.351-1.026A2.94 2.94 0 0 0 8.017 2a2.094 2.094 0 0 0-1.481.487 3.122 3.122 0 0 0-.776 1.64l-.121.536-1.12.443-.12.617h1.034L4.18 11.681q-.248 1.2-1.022 1.194a2.232 2.232 0 0 1-.658-.117v1.106a2.351 2.351 0 0 0 .86.136 1.874 1.874 0 0 0 1.375-.518 3.137 3.137 0 0 0 .755-1.619l1.288-6.136H8.1l1.432 2.115-2.246 3.291h1.536l1.571-2.412 1.572 2.411H13.5z"/></svg>