<svg xmlns="http://www.w3.org/2000/svg" viewBox="0 0 16 16"><path fill="#414141" d="m11.25 7.84 2.14-3.15h-1.53l-1.47 2.25L8.94 4.7H7l.1-.5a1.72 1.72 0 0 1 .37-.82.84.84 0 0 1 .63-.25 2.19 2.19 0 0 1 .79.16l.35-1.02A2.94 2.94 0 0 0 8.02 2a2.1 2.1 0 0 0-1.48.49 3.12 3.12 0 0 0-.78 1.64l-.12.53-1.12.45-.12.61h1.03l-1.25 5.96q-.25 1.2-1.02 1.2a2.23 2.23 0 0 1-.66-.12v1.1a2.35 2.35 0 0 0 .86.14 1.87 1.87 0 0 0 1.37-.52 3.14 3.14 0 0 0 .76-1.62l1.29-6.13H8.1l1.43 2.11-2.24 3.3h1.53l1.57-2.42 1.57 2.41h1.54z"/></svg>