<svg xmlns="http://www.w3.org/2000/svg" viewBox="0 0 16 16"><path fill="#414141" d="M12.89941 15a2.00606 2.00606 0 002-2V1h-14v12a2.00607 2.00607 0 002 2 2.05109 2.05109 0 001.89991-1.3l.20019-.7h5.7002l.20019.7a2.29981 2.29981 0 002 1.30005m0 1a2.91285 2.91285 0 01-2.7998-2H5.80029a2.91285 2.91285 0 01-2.7998 2 2.946 2.946 0 01-3-2.89111C0 13.07275 0 13.03638.00049 13V0h16v13a3.1 3.1 0 01-3.10108 3z"/><path fill="#414141" d="M8.89941 6.5h-2.5V4h-1v2.5h-2.5v1h2.5V10h1V7.5h2.5zM11 3.99h2v2h-2zm0 4h2v2h-2z"/></svg>