<svg xmlns="http://www.w3.org/2000/svg" viewBox="0 0 16 16"><path fill="#414141" d="M0 2v12h16V2zm1 1h4.5v2.07a1.98 1.98 0 0 0-2.42 1.4l-.01.03H1zm4.5 10H1V7.5h2.07a2.01 2.01 0 0 0 .98 1.26L2.6 10.7l.8.6 1.74-2.32a2.05 2.05 0 0 0 .36-.05zM6 7.58l-.13.07-.37.22A.98.98 0 0 1 5 8a.92.92 0 0 1-.33-.07 1.02 1.02 0 0 1-.52-.43.89.89 0 0 1 0-1 .98.98 0 0 1 1.33-.38l.02.01.5.3.5-.3A.97.97 0 0 1 7 6a.98.98 0 0 1 .85.5.89.89 0 0 1 0 1 1.02 1.02 0 0 1-.52.43A.93.93 0 0 1 7 8a.98.98 0 0 1-.5-.13l-.37-.22zM15 13H6.5V8.93a2.05 2.05 0 0 0 .36.05L8.6 11.3l.8-.6-1.46-1.94a2.01 2.01 0 0 0 .99-1.26H15zm0-6.5H8.93a1.98 1.98 0 0 0-2.4-1.44H6.5V3H15z"/></svg>