<svg xmlns="http://www.w3.org/2000/svg" viewBox="0 0 16 16"><path fill="#414141" d="M14.48987 10.021V6.793L9.704 2H7.50028v4.713L1.94954 9.956A2 2 0 1 0 3.91861 12.5h1.39093l-.16575.5H4.00548v1h1.85724l.83276-2.5H3.94956a2.00929 2.00929 0 0 0-.72691-1.131l4.27763-2.5v2.822a1.986 1.986 0 1 0 3.4239 1.809h1.15528a1.99725 1.99725 0 1 0 2.41041-2.479zm-12.48141 2.93a1 1 0 1 1 .99851-1 .99926.99926 0 0 1-.99851 1zM8.998 13a1 1 0 1 1 .99851-1 .99926.99926 0 0 1-.99851 1zm3.05046-1.5h-1.12428a1.95693 1.95693 0 0 0-2.36154-1.44557q-.03207.00774-.06385.01657V3h.79182l4.20075 4.207v2.814a1.99862 1.99862 0 0 0-1.44285 1.479zm1.94211 1.451a1 1 0 1 1 .99851-1 .99926.99926 0 0 1-.99846 1z"/></svg>