<svg xmlns="http://www.w3.org/2000/svg" viewBox="0 0 16 16"><path fill="#414141" d="m14 2.72 1.35-1.37-.7-.7L13.28 2A7.99 7.99 0 0 0 2.01 13.28L.65 14.65l.7.7L2.72 14A7.99 7.99 0 0 0 13.99 2.72zM8 15a7 7 0 1 1 7-7 7 7 0 0 1-7 7m2.7-9.7C10.22 3.31 9.22 2 8 2S5.78 3.31 5.3 5.3C3.31 5.78 2 6.78 2 8s1.31 2.22 3.3 2.7C5.78 12.69 6.78 14 8 14s2.22-1.31 2.7-3.3C12.69 10.22 14 9.22 14 8s-1.31-2.22-3.3-2.7M5.1 9.6C3.81 9.2 3 8.58 3 8s.81-1.2 2.1-1.6A13 13 0 0 0 5 8a13 13 0 0 0 .1 1.6M8 3c.58 0 1.2.81 1.6 2.1A13 13 0 0 0 8 5a13 13 0 0 0-1.6.1C6.8 3.81 7.42 3 8 3m0 10c-.58 0-1.2-.81-1.6-2.1a13 13 0 0 0 3.19 0C9.2 12.19 8.59 13 8 13m1.84-3.16a11 11 0 0 1-3.68 0 11 11 0 0 1 0-3.68 11 11 0 0 1 3.68 0 11 11 0 0 1 0 3.68m1.06-.24A13 13 0 0 0 11 8a13 13 0 0 0-.1-1.6C12.19 6.8 13 7.42 13 8s-.81 1.2-2.1 1.6"/></svg>