<svg xmlns="http://www.w3.org/2000/svg" viewBox="0 0 16 16"><path fill="#414141" d="M12.02852 1.00363a3.39816 3.39816 0 0 0-2.07834.59177c-.4539.34085-1.42259 1.26078-1.93543 1.76065-.51382-.49694-1.48154-1.4198-1.93635-1.76065A3.39845 3.39845 0 0 0 4 1.00363a4.02483 4.02483 0 0 0-2.959 6.70724L8.01475 15l6.98587-7.29816a4.025 4.025 0 0 0-2.9721-6.69821zM14.3018 7.083l-6.28705 6.5703L1.73971 7.096A3.128 3.128 0 0 1 .958 5.02151 3.075 3.075 0 0 1 4 1.92234v.002a2.48726 2.48726 0 0 1 1.50558.39992c.57178.429 2.50917 2.3324 2.50917 2.3324s1.93641-1.90348 2.50825-2.3344a2.48089 2.48089 0 0 1 1.50552-.39992 3.07416 3.07416 0 0 1 3.04209 3.09917A3.11859 3.11859 0 0 1 14.3018 7.083z" style="isolation:isolate"/></svg>