<svg xmlns="http://www.w3.org/2000/svg" viewBox="0 0 16 16"><path fill="#414141" d="M9.5 0h1v2.01h-1zM14 5.53h2v1h-2zM7.528 2.832L6.114 1.41l-.707.711 1.414 1.422.707-.711zm7.069-.71l-.707-.711-1.414 1.422.707.711 1.414-1.422zM6.303 15.805l.982.195 1.199-4.82-.969-.243-1.212 4.868z"/><path fill="#414141" d="M13 9.1v-.05a2.5 2.5 0 00-.455-1.439A2.993 2.993 0 107.135 5.2a3.974 3.974 0 00-4.958 2.675c-.031.1-.057.2-.079.307A3.018 3.018 0 003 14.075h1.518l-.21.844.969.244.99-3.983-.97-.243-.529 2.132H3a2.012 2.012 0 01-.6-3.927l.551-.176.128-.566A3.022 3.022 0 016 6.032a3.175 3.175 0 012.5 1.349l.5.756.383-.2.416-.22a1.473 1.473 0 011.334-.028 1.5 1.5 0 01.71.7 1.476 1.476 0 01.157.659v.021l-.025.847.825.167a1.509 1.509 0 01-.3 2.986h-2.482l.469-1.889-.97-.243-.99 3.982.97.244.271-1.088H12.5A2.515 2.515 0 0013 9.1zm-1.207-2.194a2.458 2.458 0 00-2.457-.082A4.04 4.04 0 008.053 5.6a2 2 0 113.74 1.3z"/></svg>