<svg xmlns="http://www.w3.org/2000/svg" viewBox="0 0 16 16"><path fill="#414141" d="m6.3 15.8.99.2 1.2-4.83-.98-.24zm7.32-6.49A5 5 0 0 0 16 5.5 4 4 0 0 1 10.55 4a4 4 0 0 1 0-3.99 5 5 0 0 0-4.52 5.01H6a4 4 0 0 0-3.9 3.16 3.02 3.02 0 0 0 .9 5.9h1.52l-.21.85.97.24.99-3.99-.97-.24-.53 2.14H3a2.02 2.02 0 0 1-.6-3.94l.55-.17.12-.57A3 3 0 0 1 6 6.02l.13.01A3 3 0 0 1 8.5 7.37l.5.76.8-.43a1.5 1.5 0 0 1 2.02.63 2 2 0 0 1 .17.57l.01.14v.02l-.03.85.1.01.73.16a1.51 1.51 0 0 1-.3 2.99h-2.48l.47-1.9-.97-.24-1 3.99.98.24.27-1.09h2.73a2.51 2.51 0 0 0 1.11-4.76zm-.67-.78a2.5 2.5 0 0 0-2.45-2 2.5 2.5 0 0 0-1.16.29 4 4 0 0 0-2.3-1.67l-.02-.13a4 4 0 0 1 2.02-3.5L9.02 2a5 5 0 0 0 5 5.03l.48-.02a4 4 0 0 1-1.55 1.52"/></svg>