<svg xmlns="http://www.w3.org/2000/svg" viewBox="0 0 16 16"><path fill="#414141" d="m6.3 15.8.99.2 1.2-4.83-.98-.24-1.2 4.88z"/><path fill="#414141" d="M13.62 9.31A5.01 5.01 0 0 0 16 5.5 3.98 3.98 0 0 1 10.55 4a4.05 4.05 0 0 1 0-3.99 5.02 5.02 0 0 0-4.52 5.01H6a4 4 0 0 0-3.9 3.16 3.02 3.02 0 0 0 .9 5.9h1.52l-.21.85.97.24.99-3.99-.97-.24-.53 2.14H3a2.02 2.02 0 0 1-.6-3.94l.55-.17.12-.57A3.02 3.02 0 0 1 6 6.02l.13.01A3.06 3.06 0 0 1 8.5 7.37l.5.76.8-.43a1.49 1.49 0 0 1 2.02.63 1.51 1.51 0 0 1 .17.57l.01.14v.02l-.03.85.1.01.73.16a1.51 1.51 0 0 1-.3 2.99h-2.48l.47-1.9-.97-.24-1 3.99.98.24.27-1.09h2.73a2.51 2.51 0 0 0 1.11-4.76zm-.67-.78a2.5 2.5 0 0 0-2.45-2 2.48 2.48 0 0 0-1.16.29 4 4 0 0 0-2.3-1.67l-.02-.13a4.03 4.03 0 0 1 2.02-3.5L9.02 2a5.02 5.02 0 0 0 5 5.03c.16 0 .32 0 .48-.02a3.83 3.83 0 0 1-1.55 1.52z"/></svg>