<svg xmlns="http://www.w3.org/2000/svg" viewBox="0 0 16 16"><path fill="#414141" d="M14 3.56a1.5 1.5 0 0 0-.93-1.45 1.6 1.6 0 0 0-1.13 0l-.05-.16a1.5 1.5 0 0 0-1.94-.84 1.5 1.5 0 0 0-2.9 0A1.5 1.5 0 0 0 5 2.5v6.72L3.38 8.3l-.06-.04-.13-.07-.05-.02L3 8.11a1.5 1.5 0 0 0-1.94.86 1.5 1.5 0 0 0 .8 1.9l2.29 1.32A5 5 0 0 0 14 11.01zM13 11a4 4 0 0 1-7.93.74.5.5 0 0 0-.23-.31l-.71-.41L2.35 10l-.06-.04A.5.5 0 0 1 2.47 9l.16.03.1.05 2.53 1.43a.5.5 0 0 0 .74-.44V2.6a.5.5 0 0 1 .68-.47l.19.13.13.28V8.1h1V1.54l.02-.06a.5.5 0 0 1 .96 0l.02.06V8.1h1V2.27l.32-.12a.5.5 0 0 1 .38 0 .5.5 0 0 1 .28.32l.02.07V8.1h1V3.27l.32-.12.18-.04a.5.5 0 0 1 .5.5z"/></svg>