<svg xmlns="http://www.w3.org/2000/svg" viewBox="0 0 16 16"><path fill="#414141" d="M13.99546 3.56505a1.52508 1.52508 0 00-.94522-1.46286 1.63853 1.63853 0 00-1.11079.006 1.47683 1.47683 0 00-.052-.159 1.5 1.5 0 00-1.944-.842 1.5 1.5 0 00-2.894 0 1.5 1.5 0 00-2.054 1.401v6.719l-1.619-.925a.53.53 0 00-.061-.039l-.133-.072-.044-.021c-.051-.025-.114-.055-.14-.065a1.5 1.5 0 00-1.938.86 1.477 1.477 0 00.791 1.9l2.289 1.327a5 5 0 009.855-1.184zm-1 7.44312a4 4 0 01-7.929.74.493.493 0 00-.235-.311l-.709-.408-1.773-1.021-.068-.039a.5.5 0 01.18-.968.46608.46608 0 01.168.03s.068.035.1.049l2.526 1.428a.5.5 0 00.74-.441V2.4943a.514.514 0 01.684-.465 1.14048 1.14048 0 01.186.128 1.50037 1.50037 0 01.13.28v5.557h1v-6.567l.018-.065a.5.5 0 01.966 0l.016.061v6.571h1v-5.84l.315-.122a.494.494 0 01.383 0 .524.524 0 01.284.328l.018.064v5.57h1v-4.836l.316-.127a.51589.51589 0 01.184-.037.5.5 0 01.5.5z"/></svg>