<svg xmlns="http://www.w3.org/2000/svg" viewBox="0 0 16 16"><path fill="#414141" d="M8.00009 9.9995a2 2 0 1 1 2-2 2 2 0 0 1-2 2zm0-3a1 1 0 1 0 1 1 1 1 0 0 0-1-1z"/><g fill="#414141"><path d="M12.00009 7.9995a4 4 0 0 1-2.36 3.64l.733.733a4.953 4.953 0 0 0 0-8.746l-.734.734a4 4 0 0 1 2.361 3.639zm-8 0a4 4 0 0 1 2.361-3.639l-.734-.734a4.953 4.953 0 0 0 0 8.746l.733-.733a4 4 0 0 1-2.36-3.64z"/><path d="M16.00009 7.9995a7.991 7.991 0 0 0-3.438-6.562l-.718.718a6.989 6.989 0 0 1 0 11.688l.719.719a7.994 7.994 0 0 0 3.437-6.563zm-15 0a7 7 0 0 1 3.156-5.844l-.718-.718a7.983 7.983 0 0 0 0 13.125l.719-.719a7 7 0 0 1-3.157-5.844z"/></g></svg>