<svg xmlns="http://www.w3.org/2000/svg" viewBox="0 0 12 16"><g fill="#414141"><path d="M0 16h12V0H0Zm11-1H1V1h10Zm0 0"/><path d="M4 2h4v1H4ZM2.984375 13.460938c-.015625-1.089844.558594-2.101563 1.5-2.648438s2.105469-.542969 3.042969.011719c.9375.554687 1.503906 1.570312 1.480468 2.660156v.527344H10V13.5c-.007812-1.746094-1.144531-3.28125-2.808594-3.800781 1.015625-.53125 1.539063-1.6875 1.269532-2.804688C8.1875 5.777344 7.191406 4.992188 6.042969 4.984375c-1.148438-.003906-2.152344.773437-2.433594 1.886719-.285156 1.113281.226563 2.273437 1.238281 2.816406C3.164062 10.191406 2.007812 11.742188 2 13.5v.511719h.996094ZM4.53125 7.5c0-.828125.671875-1.5 1.5-1.5s1.5.671875 1.5 1.5-.671875 1.5-1.5 1.5-1.5-.671875-1.5-1.5"/></g></svg>