<svg xmlns="http://www.w3.org/2000/svg" viewBox="0 0 16 16"><path fill="#414141" d="M16 12.042V12l-.012-11H0v12h2.882a5.474 5.474 0 0 0-.382 2h11a5.474 5.474 0 0 0-.382-2H16zM3.622 14a4.488 4.488 0 0 1 8.756 0zM6 7a2 2 0 1 1 2 2 2 2 0 0 1-2-2m6.61 5a5.52256 5.52256 0 0 0-3.2698-2.329 3.00811 3.00811 0 0 0 .792-4.81142 2.91724 2.91724 0 0 0-2.54689-.8534A3.00434 3.00434 0 0 0 6.66385 9.671 5.51655 5.51655 0 0 0 3.40206 12H1V2h14l.012 10z"/><path fill="none" stroke="#414141" stroke-miterlimit="10" stroke-width="3" d="M-6-6h29v29H-6z"/></svg>