<svg xmlns="http://www.w3.org/2000/svg" viewBox="0 0 18 16"><path fill="#414141" d="M17.992188 12.613281v-.046875L17.980469.0117188H.015625V13.707031h3.238281c-.285156.726563-.429687 1.5-.429687 2.28125h12.359375c0-.78125-.148438-1.554687-.429688-2.28125h3.238282Zm-13.90625 2.234375c.515624-2.335937 2.558593-3.996094 4.917968-3.996094 2.355469 0 4.398438 1.660157 4.917969 3.996094Zm2.671874-7.988281c0-1.261719 1.003907-2.285156 2.246094-2.285156 1.242188 0 2.246094 1.023437 2.246094 2.285156 0 1.261719-1.003906 2.28125-2.246094 2.28125-1.242187 0-2.246094-1.019531-2.246094-2.28125m7.414063 5.707031C13.320312 11.242188 12.007812 10.292969 10.5 9.90625c1.402344-.707031 2.136719-2.300781 1.78125-3.847656C11.921875 4.511719 10.5625 3.417969 9 3.417969c-1.566406 0-2.925781 1.09375-3.28125 2.640625-.359375 1.546875.378906 3.140625 1.777344 3.847656-1.503906.390625-2.8125 1.339844-3.660156 2.660156H1.136719V1.152344h15.71875l.011719 11.414062Zm0 0"/></svg>