<svg xmlns="http://www.w3.org/2000/svg" viewBox="0 0 16 16"><path fill="#414141" d="m13.17286 6.59519 2.8 1.4zm-7 4.5-.9-.4 2.7 1.3 1.9-1-.1.1-1.8.9zm9.8-3.1-3-1.5zm-13-1.5-3 1.5zm2.6 4.3 2.4 1.2 1.7-.8-1.7.8zm7.4-4.3-1.1.5 1.9 1-5.8 2.9-5.8-2.9 1.9-1-1.1-.5-3 1.5 5.6 2.8 2.4 1.2 1.7-.8 6.3-3.2zm-10 0 1.1.5zm10 0-1.1.5zm3 5.5-3-1.5zm-13-1.5-3 1.5zm2.6 4.3 2.4 1.2 1.7-.8-1.7.8zm7.4-4.3-1.1.5 1.9.9-5.8 3-5.8-2.9 1.9-1-1.1-.5-3 1.5 5.6 2.8 2.4 1.2 1.7-.8 6.3-3.2zm-10 0 1.1.5zm10 0-1.1.5zm.79149-6.46L8.0368 6.93432 2.30917 4.03511 8.03671 1.136l5.72764 2.8992M8.0368.00481.04646 4.03529 8.0368 8.06576l7.99034-4.03047z"/></svg>