<svg xmlns="http://www.w3.org/2000/svg" viewBox="0 0 12 15"><path fill="#414141" d="M3.75 11.1875C1.089844 10.148438-.4375 7.429688.113281 4.703125.660156 1.976562 3.125.0078125 5.996094.0078125s5.339844 1.9687495 5.886718 4.6953125c.546876 2.726563-.980468 5.445313-3.640624 6.484375l-2.246094 3.800781Zm0 0"/><path fill="#F5F5F5" d="M6.542969 7.742188v.964843h-.996094v-.964843ZM5.496094 2.90625h1v3.867188h-1Zm3.046875 4.835938v.964843h-1v-.964843ZM7.492188 2.90625h1v3.867188h-1ZM4.546875 7.742188v.964843h-1v-.964843ZM3.496094 2.90625h1v3.867188h-1Zm0 0"/></svg>