<svg xmlns="http://www.w3.org/2000/svg" viewBox="0 0 14 16"><path fill="#414141" d="M4.683594 11.9375c-.226563.039062-.453125.054688-.679688.054688C1.992188 11.996094.292969 10.5.0390625 8.503906-.214844 6.507812 1.054688 4.632812 3.003906 4.132812v-.125c0-2.207031 1.789063-3.992187 3.992188-3.992187 2.207031 0 3.996094 1.785156 3.996094 3.992187v.125c1.949218.5 3.21875 2.375 2.964843 4.371094-.253906 1.996094-1.953125 3.492188-3.964843 3.488282-.226563 0-.457032-.019532-.679688-.058594l-2.316406 4.050781Zm0 0"/><path fill="#F5F5F5" d="M6.527344 9h.996094v.996094h-.996094ZM6.5 4.007812h.996094V8H6.5ZM8.523438 9h.996093v.996094h-.996093Zm-.027344-4.992188h.996094V8h-.996094ZM4.53125 9h.996094v.996094H4.53125Zm-.027344-4.992188H5.5V8h-.996094Zm0 0"/></svg>