<svg xmlns="http://www.w3.org/2000/svg" viewBox="0 0 14 16"><path fill="#414141" d="M4.726562 11.914062c-2.121093.40625-4.179687-.957031-4.632812-3.066406-.453125-2.113281.859375-4.199218 2.960938-4.703125v-.125c0-2.195312 1.78125-3.972656 3.976562-3.972656s3.972656 1.777344 3.972656 3.972656v.125c1.941406.5 3.207032 2.363281 2.957032 4.351563-.253907 1.988281-1.945313 3.476562-3.949219 3.472656-.226563 0-.453125-.019531-.679688-.054688l-2.300781 4.03125Zm0 0"/><path fill="#F5F5F5" d="M6.5625 8.988281h.992188v.996094H6.5625Zm-.03125-4.96875h.996094v3.976563H6.53125Zm0 0"/></svg>