<svg xmlns="http://www.w3.org/2000/svg" viewBox="0 0 14 16"><path fill="#414141" d="M4.683594 11.941406c-.222656.035156-.449219.054688-.679688.054688-2.011718 0-3.710937-1.496094-3.9648435-3.492188-.2539065-2 1.0156255-3.871094 2.9687495-4.375v-.125c0-2.207031 1.789063-3.9960935 3.996094-3.9960935C9.210938.0078125 11 1.796875 11 4.003906v.125c1.949219.503906 3.222656 2.375 2.96875 4.375C13.714844 10.5 12.011719 11.996094 10 11.996094c-.230469 0-.457031-.019532-.683594-.058594l-2.3125 4.054688Zm0 0"/><path fill="#F5F5F5" d="M5.53125 9h1v.996094h-1Zm-.027344-4.996094h1V8h-1ZM7.53125 9h.996094v.996094H7.53125Zm-.027344-4.996094H8.5V8h-.996094Zm0 0"/></svg>