<svg xmlns="http://www.w3.org/2000/svg" viewBox="0 0 14 16"><path fill="#414141" d="M4.679688 11.9375c-.226563.039062-.453126.058594-.683594.058594C1.789062 11.996094 0 10.207031 0 8c0-1.824219 1.234375-3.414062 2.996094-3.871094v-.125c0-2.207031 1.792968-3.9960935 4-3.9960935 2.207031 0 3.996094 1.7890625 3.996094 3.9960935v.125c1.765624.457032 3 2.046875 2.996093 3.871094 0 2.207031-1.789062 3.996094-3.996093 3.996094-.226563 0-.457032-.019532-.679688-.054688l-2.316406 4.054688Zm0 0"/><path fill="#F5F5F5" d="m6.019531 9.980469-1.875-1.878907.707031-.703124 1.121094 1.121093 3.144532-3.597656.753906.65625Zm0 0"/></svg>