<svg xmlns="http://www.w3.org/2000/svg" viewBox="0 0 16 16"><path fill="#414141" d="m6.8 13.86.96.24.24-.97-.97-.25zm.48-1.95.97.24.24-.98-.97-.24zm-.97 3.9.98.19.23-.92-.97-.24zm4.18-4.64-.97-.24-.25.98.97.24zm-5.43.74.97.24.24-.98-.97-.24zm8.56-2.6A5 5 0 0 0 16 5.5 4 4 0 0 1 10.55 4a4 4 0 0 1 0-3.99 5 5 0 0 0-4.52 5.01H6a4 4 0 0 0-3.9 3.16 3.02 3.02 0 0 0 .9 5.9h1.52l-.07.28.97.24.24-.97-.66-.17v-.38H3a2.02 2.02 0 0 1-.6-3.94l.55-.17.12-.57A3 3 0 0 1 6 6.02l.13.01A3 3 0 0 1 8.5 7.37l.5.76.8-.43a1.5 1.5 0 0 1 2.02.63 2 2 0 0 1 .17.57l.01.14v.02l-.03.85.1.01.73.15a1.51 1.51 0 0 1-.3 3H9.77l-.16.48-.7-.18-.24.98.97.24.13-.52h2.73a2.51 2.51 0 0 0 1.11-4.76zm-.67-.78A2.5 2.5 0 0 0 9.34 6.8a4 4 0 0 0-2.3-1.66L7.02 5a4 4 0 0 1 2.02-3.5l-.02.5a5 5 0 0 0 5 5.04L14.5 7a4 4 0 0 1-1.55 1.53"/></svg>