<svg xmlns="http://www.w3.org/2000/svg" viewBox="0 0 16 16"><path fill="#414141" d="M9.5 0h1v2.01h-1zM14 5.53h2v1h-2zM7.528 2.832 6.114 1.41l-.707.711 1.414 1.422.707-.711zm7.069-.71-.707-.711-1.414 1.422.707.711 1.414-1.422zm-7.321 9.79.97.244.241-.976-.969-.243-.242.975zm-.973 3.893.982.195.233-.92-.97-.243-.245.968zm.488-1.942.97.243.242-.975-.97-.244-.242.976zm1.878.487.97.244.242-.976-.97-.243-.242.975zm1.818-3.17-.97-.243-.242.975.97.244.242-.976zM4.45 14.35l.969.244.242-.976-.969-.243-.242.975zm.606-2.438.969.244.242-.976-.97-.243-.241.975z"/><path fill="#414141" d="M13 9.1v-.05a2.5 2.5 0 0 0-.455-1.439A2.993 2.993 0 1 0 7.135 5.2a3.974 3.974 0 0 0-4.958 2.675c-.031.1-.057.2-.079.307A3.018 3.018 0 0 0 3 14.075h2v-1.006H3a2.012 2.012 0 0 1-.6-3.927l.551-.176.128-.566A3.021 3.021 0 0 1 6 6.032a3.175 3.175 0 0 1 2.5 1.349l.5.756.383-.2.416-.22a1.473 1.473 0 0 1 1.334-.028 1.5 1.5 0 0 1 .71.7 1.476 1.476 0 0 1 .157.659v.021l-.025.847.825.167a1.509 1.509 0 0 1-.3 2.986H9.822l-.4 1.006H12.5A2.515 2.515 0 0 0 13 9.1zm-1.206-2.194a2.462 2.462 0 0 0-2.458-.082A4.04 4.04 0 0 0 8.053 5.6a2 2 0 1 1 3.741 1.3z"/></svg>