<svg xmlns="http://www.w3.org/2000/svg" viewBox="0 0 16 16"><path fill="#414141" d="M9.5 0h1v2.01h-1zM14 5.53h2v1h-2zm-6.47-2.7L6.1 1.41l-.7.71 1.41 1.42.7-.7zm7.07-.7-.71-.72-1.41 1.42.7.71zM7.28 11.9l.97.25.24-.98-.97-.24zm-.98 3.9.99.19.23-.92-.97-.24-.25.96zm.5-1.95.96.25.24-.98-.97-.24zm1.87.49.97.24.24-.97-.97-.25zm1.82-3.17-.97-.24-.25.97.97.25zm-6.04 3.17.97.24.24-.97-.97-.25zm.6-2.44.98.25.24-.98-.97-.24-.24.97zM13 9.1v-.05a2.5 2.5 0 0 0-.46-1.44 3 3 0 1 0-5.4-2.41 3.97 3.97 0 0 0-4.96 2.67l-.08.31a3.02 3.02 0 0 0 .9 5.9h2v-1.01H3a2.01 2.01 0 0 1-.6-3.93l.55-.17.13-.57A3 3 0 0 1 6 6.03a3.2 3.2 0 0 1 2.5 1.35l.5.76.38-.2.42-.22a1.5 1.5 0 0 1 1.33-.03 1.5 1.5 0 0 1 .71.7 2 2 0 0 1 .16.66v.02l-.03.85.83.16a1.5 1.5 0 0 1-.3 2.99H9.82l-.4 1h3.08A2.52 2.52 0 0 0 13 9.1m-1.2-2.2a2.5 2.5 0 0 0-2.46-.08A4 4 0 0 0 8.05 5.6a2 2 0 1 1 3.74 1.3z"/></svg>