<svg xmlns="http://www.w3.org/2000/svg" viewBox="0 0 16 16"><path fill="#414141" d="m7.29 10.89.24-.97.97.24-.24.97zm-.49 1.95.24-.97.97.24-.24.97zm-.45 1.82.21-.85.97.24-.21.85zm1.42-5.7.25-.98.97.25-.25.97zm7.69-1.34a3 3 0 0 0-1.97-2.35v-.16A2.5 2.5 0 0 0 9.84 2.9a4 4 0 0 0-7.32 2.2v.18a3 3 0 0 0 1 5.83h.83l.06-.19.86.22.24-.97-.96-.24-.05.18h-.98a2 2 0 0 1-.67-3.9l.7-.24-.03-.74v-.12A3 3 0 0 1 9 3.45l.5.75.8-.42a1.48 1.48 0 0 1 .7-.17 1.5 1.5 0 0 1 1.5 1.5v.1l-.05.75.72.25a2 2 0 0 1-.34 3.86l-.17.04h-1.23l-.01.04-.9-.22-.23.97.97.24v-.03h1.23l.5-.04a3 3 0 0 0 2.47-3.45zM9.8 12.83l.24-.97.97.25-.24.97zm.97-3.88.24-.97.97.24-.24.97zM3.8 12.84l.25-.97.97.24-.25.97zm.97-3.88.25-.97.97.24-.25.97z"/></svg>