<svg xmlns="http://www.w3.org/2000/svg" viewBox="0 0 16 16"><path fill="#414141" d="M15.99545 7.558l-.973 6.215s-.258 2.227-3.254 2.227h-5.8a5.481 5.481 0 01-1.973-.373V16h-4V6h4v.667a3.128 3.128 0 002-2.912V0s.15-.014.391-.014c1 0 3.591.234 3.591 2.642l.049 2.372h3.663a2.49 2.49 0 012.306 2.558zm-13-.558h-2v8h2zm11.95945.486a1.35656 1.35656 0 00-.61373-1.216 1.94935 1.94935 0 00-.74126-.27H9.06605l-.02018-.979-.05042-2.373v-.02a1.29954 1.29954 0 00-.84821-1.317 3.75756 3.75756 0 00-1.15179-.292v2.7303a3.963 3.963 0 01-1.968 3.491 5.54173 5.54173 0 01-1.032.504V14.3a.26842.26842 0 00.09963.227 1.55193 1.55193 0 00.57089.285A4.93881 4.93881 0 005.96416 15h5.77862a2.41573 2.41573 0 001.90894-.674 1.55117 1.55117 0 00.34373-.676v-.031z"/></svg>