<svg xmlns="http://www.w3.org/2000/svg" viewBox="0 0 16 16"><path fill="#414141" d="M13.7 5h-3.67l-.05-2.37C9.98.23 7.4 0 6.4 0c-.24 0-.4.02-.4.02v3.75a3.1 3.1 0 0 1-2 2.91v-.66H0v10h4v-.38a6 6 0 0 0 1.99.38h5.8c3 0 3.25-2.23 3.25-2.23L16 7.56a2.5 2.5 0 0 0-2.3-2.55zM3 15H1V7h2zm11.04-1.37v.03a2 2 0 0 1-.35.67 2.4 2.4 0 0 1-1.92.68h-5.8a5 5 0 0 1-1.3-.19 2 2 0 0 1-.57-.28.3.3 0 0 1-.1-.23V7.76a6 6 0 0 0 1.03-.5A4 4 0 0 0 7 3.76V1.03a4 4 0 0 1 1.14.29 1.3 1.3 0 0 1 .84 1.31v.02l.05 2.38.02.98h4.59a2 2 0 0 1 .74.27A1.4 1.4 0 0 1 15 7.49z"/></svg>