<svg xmlns="http://www.w3.org/2000/svg" viewBox="0 0 16 16"><path fill="#414141" d="M13.7 5h-3.67l-.05-2.37C9.98.23 7.4 0 6.4 0c-.24 0-.4.02-.4.02v3.75a3.13 3.13 0 0 1-2 2.91v-.66H0v10h4v-.38a5.48 5.48 0 0 0 1.99.38h5.8c3 0 3.25-2.23 3.25-2.23L16 7.56a2.49 2.49 0 0 0-2.3-2.55zM3 15H1V7h2zm11.04-1.37v.03a1.55 1.55 0 0 1-.35.67 2.43 2.43 0 0 1-1.92.68h-5.8a4.97 4.97 0 0 1-1.3-.19 1.56 1.56 0 0 1-.57-.28.27.27 0 0 1-.1-.23V7.76a5.54 5.54 0 0 0 1.03-.5A3.96 3.96 0 0 0 7 3.76V1.03a3.7 3.7 0 0 1 1.14.29 1.3 1.3 0 0 1 .84 1.31v.02l.05 2.38.02.98h4.59a1.96 1.96 0 0 1 .74.27A1.36 1.36 0 0 1 15 7.49z"/></svg>