<svg xmlns="http://www.w3.org/2000/svg" viewBox="0 0 16 16"><path fill="#414141" d="M0 15h16v1H0zm10.14-3.4a1.5 1.5 0 0 0 1.35-2.14l2.26-2.26A1.5 1.5 0 1 0 13 5.9a1.48 1.48 0 0 0 .1.53l-2.31 2.31a1.55 1.55 0 0 0-1.3 0L7.27 6.53a1.5 1.5 0 1 0-2.71.04L2.3 8.82A1.5 1.5 0 0 0 0 10.1a1.5 1.5 0 1 0 2.92-.47l2.35-2.35a1.53 1.53 0 0 0 1.32-.02l2.2 2.2a1.5 1.5 0 0 0 1.35 2.14zm.5-1.5a.5.5 0 1 1-.5-.5.5.5 0 0 1 .5.5zM1.5 9.6a.5.5 0 0 1 .4.2h.01a.5.5 0 0 1-.12.7.5.5 0 0 1-.37.09.5.5 0 0 1-.42-.5.5.5 0 0 1 .5-.5zm4.05-3.33a.5.5 0 1 1 .71-.01.52.52 0 0 1-.7 0zM15 5.9a.5.5 0 1 1-.5-.5.5.5 0 0 1 .5.5z"/></svg>