<svg xmlns="http://www.w3.org/2000/svg" viewBox="0 0 16 16"><path fill="#414141" d="M0 15h16v1H0zm10.139-3.405a1.5004 1.5004 0 01-1.354-2.146l-2.2-2.2a1.534 1.534 0 01-1.312.022L2.924 9.618A1.50042 1.50042 0 110 10.095a1.5 1.5 0 012.3-1.27l2.258-2.257a1.5 1.5 0 112.716-.042l2.217 2.216a1.555 1.555 0 011.294 0L13.1 6.428A1.47505 1.47505 0 0113 5.9a1.5 1.5 0 11.748 1.3l-2.256 2.256a1.5 1.5 0 01-1.353 2.147zm0-2a.5.5 0 10.5.5.5.5 0 00-.5-.5zm-8.64 0a.5.5 0 00-.5.5H1a.5.5 0 00.416.492.493.493 0 00.373-.085.5.5 0 00.12141-.6966L1.908 9.802a.5.5 0 00-.408-.208zm4.057-3.327a.515.515 0 00.707-.009.5.5 0 10-.708.008zM14.5 5.4a.5.5 0 10.5.5.5.5 0 00-.5-.5z"/></svg>