<svg xmlns="http://www.w3.org/2000/svg" viewBox="0 0 16 16"><path fill="#414141" d="M0 15h16v1H0zm10.139-3.397a1.5 1.5 0 0 0 1.353-2.147L13.748 7.2A1.5 1.5 0 1 0 13 5.9a1.47505 1.47505 0 0 0 .1.528l-2.315 2.314a1.555 1.555 0 0 0-1.294 0L7.274 6.526a1.5 1.5 0 1 0-2.716.042L2.3 8.825a1.5 1.5 0 0 0-2.3 1.27 1.50075 1.50075 0 1 0 2.924-.477l2.349-2.347a1.534 1.534 0 0 0 1.312-.022l2.2 2.2a1.5004 1.5004 0 0 0 1.354 2.146zm.5-1.508a.5.5 0 1 1-.5-.5.5.5 0 0 1 .5.5zM1.5 9.594a.5.5 0 0 1 .408.208l.00241.0034a.5.5 0 0 1-.12141.6966.493.493 0 0 1-.373.085.5.5 0 0 1-.416-.492H.999a.5.5 0 0 1 .5-.5zm4.055-3.327a.5.5 0 1 1 .708-.008.515.515 0 0 1-.707.009zM15 5.9a.5.5 0 1 1-.5-.5.5.5 0 0 1 .5.5z"/></svg>