<svg xmlns="http://www.w3.org/2000/svg" viewBox="0 0 16 16"><path fill="#414141" d="M15.08 2.32a3.07 3.07 0 0 0-4.24 0L8.58 4.58a3.1 3.1 0 0 0-3.4.57L.94 9.39a3 3 0 0 0 4.2 4.28l.04-.04 2.25-2.25a3 3 0 0 0 3.4-.57l4.25-4.25a3 3 0 0 0 0-4.24M8.72 8.68 7.3 10.1a2 2 0 0 1 0-2.83l1.42-1.41a2 2 0 0 1 0 2.82m-4.25 4.25a2.05 2.05 0 0 1-2.83 0 2 2 0 0 1 0-2.83L5.9 5.86a2 2 0 0 1 1.92-.52L6.6 6.56a3 3 0 0 0 0 4.25zm9.9-7.07-4.24 4.24a2 2 0 0 1-1.91.5l1.2-1.2a3 3 0 0 0 0-4.25l2.12-2.12a2.05 2.05 0 0 1 2.83 0 2 2 0 0 1 0 2.83"/></svg>