<svg xmlns="http://www.w3.org/2000/svg" viewBox="0 0 16 16"><path fill="#414141" d="M15.0797 2.32061a3.07 3.07 0 0 0-4.242 0l-2.26 2.26a3.076 3.076 0 0 0-3.4.568l-4.24 4.243a3 3 0 0 0 4.20849 4.27652l.03451-.03452 2.25-2.25a2.962 2.962 0 0 0 3.407-.578l4.242-4.243a3 3 0 0 0 0-4.242zm-6.364 6.364-1.414 1.414a2 2 0 0 1-.00058-2.82842l.00058-.00058 1.415-1.413a2 2 0 0 1-.001 2.828zm-4.242 4.242a2.048 2.048 0 0 1-2.829 0 2 2 0 0 1 0-2.828l4.243-4.243a1.943 1.943 0 0 1 1.926-.511l-1.219 1.218a3 3 0 0 0-.00036 4.24264l.00036.00036zm9.9-7.071-4.242 4.243a2.033 2.033 0 0 1-1.914.5l1.206-1.206a3 3 0 0 0 0-4.242l2.121-2.122a2.047 2.047 0 0 1 2.828 0 2 2 0 0 1 0 2.828z"/></svg>