<svg xmlns="http://www.w3.org/2000/svg" viewBox="0 0 19 16"><path fill="#414141" d="M14.2 8a4.9 4.9 0 0 1-2.77 4.44l.86.9A6.1 6.1 0 0 0 15.38 8a6.1 6.1 0 0 0-3.1-5.33l-.85.89A4.9 4.9 0 0 1 14.2 8M4.8 8a4.9 4.9 0 0 1 2.77-4.43l-.86-.9a6.1 6.1 0 0 0-3.09 5.34 6.1 6.1 0 0 0 3.1 5.33l.85-.9A4.9 4.9 0 0 1 4.8 8.01Zm14.1 0c0-3.18-1.5-6.17-4.04-8l-.84.88a8.6 8.6 0 0 1 3.71 7.13 8.6 8.6 0 0 1-3.71 7.12l.84.87a9.9 9.9 0 0 0 4.05-8ZM1.28 8c0-2.86 1.4-5.54 3.71-7.12L4.14.01A9.9 9.9 0 0 0 .09 8a9.9 9.9 0 0 0 4.05 8l.84-.88A8.6 8.6 0 0 1 1.27 8Zm11.17 0-4.7 2.44V5.57Zm0 0"/></svg>