<svg xmlns="http://www.w3.org/2000/svg" viewBox="0 0 19 16"><g fill="#414141"><path d="M14.203125 8.007812c-.003906 1.914063-1.089844 3.648438-2.773437 4.433594l.859374.894532c1.902344-1.050782 3.089844-3.097657 3.089844-5.328126 0-2.234374-1.1875-4.28125-3.089844-5.332031l-.863281.894531c1.6875.785157 2.773438 2.519532 2.777344 4.4375Zm-9.40625 0c.003906-1.917968 1.089844-3.652343 2.777344-4.4375l-.863281-.894531C4.808594 3.726562 3.621094 5.773438 3.621094 8.007812c0 2.230469 1.1875 4.277344 3.089844 5.328126l.859374-.894532c-1.683593-.785156-2.769531-2.519531-2.773437-4.433594Zm0 0"/><path d="M18.90625 8.007812c-.003906-3.191406-1.511719-6.179687-4.042969-7.9999995l-.84375.8749995c2.316407 1.574219 3.710938 4.253907 3.710938 7.125 0 2.867188-1.394531 5.546876-3.710938 7.121094l.84375.875c2.53125-1.820312 4.039063-4.808594 4.042969-7.996094Zm-17.636719 0c.003907-2.871093 1.398438-5.546874 3.710938-7.125l-.84375-.8749995C1.605469 1.828125.09375 4.816406.09375 8.007812c0 3.191407 1.511719 6.179688 4.042969 7.996094l.84375-.875c-2.3125-1.578125-3.707031-4.253906-3.710938-7.121094Zm11.167969 0-4.699219 2.433594V5.570312Zm0 0"/></g></svg>