<svg width="16" height="16" viewBox="0 0 16 16" fill="none" xmlns="http://www.w3.org/2000/svg">
<g clip-path="url(#clip0_16_23)">
<path d="M8.20001 15.143L8.78497 14.331C9.44071 14.7685 10.2117 15.0014 11 15C12.0609 15 13.0783 14.5786 13.8284 13.8284C14.5786 13.0783 15 12.0609 15 11C15 9.93913 14.5786 8.92172 13.8284 8.17157C13.0783 7.42142 12.0609 7 11 7C10.0404 7.00071 9.11299 7.3464 8.38702 7.974C7.81725 8.46601 7.39757 9.10854 7.17603 9.828L8.29401 9.12801L8.82397 9.976L7.12402 11.035L6.276 11.565L5.74597 10.717L4.68701 9.017L5.53497 8.487L6.20599 9.561C6.47667 8.65833 6.99659 7.85035 7.70599 7.23C8.61829 6.43376 9.7891 5.99658 11 6C12.3256 6.00159 13.5964 6.52888 14.5338 7.46622C15.4711 8.40355 15.9984 9.6744 16 11C15.9984 12.3256 15.4711 13.5964 14.5338 14.5338C13.5964 15.4711 12.3256 15.9984 11 16C10.0018 16.002 9.0261 15.7034 8.20001 15.143V15.143ZM2 7V6H4V7H2ZM0 7V6H1V7H0ZM2 5V4H6V5H2ZM0 5V4H1V5H0ZM2 3V2H12V3H2ZM0 3V2H1V3H0ZM2 1V0H12V1H2ZM0 1V0H1V1H0Z" fill="#414141"/>
</g>
<defs>
<clipPath id="clip0_16_23">
<rect width="16" height="16" fill="white"/>
</clipPath>
</defs>
</svg>
