<svg xmlns="http://www.w3.org/2000/svg" viewBox="0 0 16 16"><path fill="#414141" d="M13.394 15a1.482 1.482 0 0 0-.82544-1.92651q-.034-.01356-.0686-.02552V9.364a1.491 1.491 0 0 0 0-2.816V3.93951a2 2 0 1 0-2.429-2.42895H5.408A1.5 1.5 0 1 0 3.5 3.41852V5.225L0 6.956v6.059l4-3.059 4 3.059V6.956L4.5 5.187V3.41852a1.49993 1.49993 0 0 0 .908-.908h4.663a2 2 0 0 0 1.429 1.429V6.548a1.491 1.491 0 0 0 0 2.816v3.684a1.482 1.482 0 0 0-.91949 1.88343q.01189.03461.02551.0686H8v1h8V15zM7 7.571v3.42L4.607 9.162 4 8.697l-.608.465L1 10.991V7.577l3.035-1.5zM4 2.51056a.5.5 0 1 1 .5-.5.5.5 0 0 1-.5.5zm7-.5a1 1 0 1 1 1 1 1 1 0 0 1-1-1zM12 7.456a.5.5 0 1 1-.5.5.5.5 0 0 1 .5-.5zm0 7.5a.5.5 0 1 1 .5-.5.5.5 0 0 1-.5.5z"/></svg>