<svg xmlns="http://www.w3.org/2000/svg" viewBox="0 0 16 16"><path fill="#414141" d="M13.4 15a1.48 1.48 0 0 0-.83-1.93l-.07-.02V9.36a1.5 1.5 0 0 0 0-2.81V3.94a2 2 0 1 0-2.43-2.43H5.41a1.5 1.5 0 1 0-1.91 1.9v1.6a4.04 4.04 0 0 0-.26 7.95V10.6l.8-.8.8.8v2.35A4.04 4.04 0 0 0 4.5 5V3.42a1.5 1.5 0 0 0 .9-.9h4.67a2 2 0 0 0 1.43 1.42v2.6a1.5 1.5 0 0 0 0 2.82v3.69a1.48 1.48 0 0 0-.92 1.88l.03.07H8v1h8v-1zM7.03 9a3.07 3.07 0 0 1-1.2 2.43V10.2l-.29-.3-.8-.8-.71-.72-.71.72-.8.8-.29.3v1.23A3.06 3.06 0 0 1 1.04 9a3 3 0 0 1 6 0zM4 2.5a.5.5 0 1 1 .5-.5.5.5 0 0 1-.5.5zm7-.5a1 1 0 1 1 1 1 1 1 0 0 1-1-1zm1 5.45a.5.5 0 1 1-.5.5.5.5 0 0 1 .5-.5zm0 7.5a.5.5 0 1 1 .5-.5.5.5 0 0 1-.5.5z"/></svg>