<svg xmlns="http://www.w3.org/2000/svg" viewBox="0 0 16 16"><path fill="#414141" d="M13.09 8.53a1.5 1.5 0 1 0 0-1H11V4.5h1.2l1.65-1.65a1.5 1.5 0 1 0-.7-.7L11.78 3.5H11a3.5 3.5 0 0 0-6.7-1.42A3 3 0 0 0 2.1 5.7a4.48 4.48 0 0 0 1.38 8.16A4 4 0 0 0 11 12v-.21l2.14 2.07c-.1.2-.14.41-.15.63a1.5 1.5 0 1 0 1.5-1.5c-.22 0-.45.06-.65.16L11 10.39V8.53Zm1.4-1a.5.5 0 0 1 0 1 .5.5 0 0 1 0-1m0-6.51a.5.5 0 1 1 0 1 .5.5 0 1 1 0-1m.5 13.47a.5.5 0 0 1-.5.5.5.5 0 0 1-.5-.5c0-.27.23-.5.5-.5.28 0 .5.23.5.5M10 12a3 3 0 0 1-5.64 1.42l-.21-.4-.45-.11a3.5 3.5 0 0 1-2.64-3.97 3.5 3.5 0 0 1 1.57-2.38l.6-.38-.17-.7a2 2 0 0 1 1.48-2.4l.48-.12.2-.45a2.5 2.5 0 0 1 4.78 1Zm0 0"/></svg>