<svg xmlns="http://www.w3.org/2000/svg" viewBox="0 0 16 16"><path fill="#414141" d="M13.4 15a1.5 1.5 0 0 0-.83-1.93l-.07-.02V9.36a1.5 1.5 0 0 0 0-2.81V3.94a2 2 0 1 0-2.43-2.43H5.41a1.5 1.5 0 1 0-1.91 1.9v1.81L0 6.96v6.06l4-3.06L8 13V6.97L4.5 5.19V3.42a1.5 1.5 0 0 0 .9-.9h4.67a2 2 0 0 0 1.43 1.42v2.6a1.5 1.5 0 0 0 0 2.82v3.69a1.5 1.5 0 0 0-.92 1.88l.03.07H8v1h8v-1zM7 7.57V11L4.6 9.16 4 8.7l-.6.46L1 11V7.58l3.04-1.5zM4 2.51a.5.5 0 1 1 .5-.5.5.5 0 0 1-.5.5m7-.5a1 1 0 1 1 1 1 1 1 0 0 1-1-1m1 5.45a.5.5 0 1 1-.5.5.5.5 0 0 1 .5-.5m0 7.5a.5.5 0 1 1 .5-.5.5.5 0 0 1-.5.5"/></svg>