<svg xmlns="http://www.w3.org/2000/svg" viewBox="0 0 16 16"><path fill="#414141" d="M13.394 15a1.482 1.482 0 00-.82544-1.92652q-.034-.01354-.0686-.02551V9.364a1.491 1.491 0 000-2.816V3.93952a2 2 0 10-2.429-2.429H5.408a1.5 1.5 0 10-1.908 1.908V5.011a4.037 4.037 0 00-.26 7.945v-2.344l.8-.808.8.808v2.344a4.035 4.035 0 00-.341-7.953V3.41852a1.5 1.5 0 00.908-.908h4.663a2 2 0 001.43 1.429V6.548a1.491 1.491 0 000 2.816v3.684a1.482 1.482 0 00-.91949 1.88342q.01189.03461.02551.06861H8v1h8V15zM7.04 8.996V9a3.06515 3.06515 0 01-1.2 2.432v-1.23l-.289-.293-.8-.809-.711-.718-.711.718-.8.809-.289.292v1.227a3.06182 3.06182 0 01-1.2-2.432 3 3 0 016 0zM4 2.51056a.5.5 0 11.5-.5.5.5 0 01-.5.5zm7-.5a1 1 0 111 1 1 1 0 01-1-1zM12 7.456a.5.5 0 11-.5.5.5.5 0 01.5-.5zm0 7.5a.5.5 0 11.5-.5.5.5 0 01-.5.5z"/></svg>