<svg xmlns="http://www.w3.org/2000/svg" viewBox="0 0 16 16"><path fill="#414141" d="M13.085938 8.527344c.242187.6875.945312 1.097656 1.664062.976562.71875-.121094 1.246094-.746094 1.246094-1.476562 0-.730469-.527344-1.355469-1.246094-1.476563-.71875-.121093-1.421875.289063-1.664062.976563H11V4.507812h1.203125l1.648437-1.648437c.199219.101563.417969.148437.640626.148437.828124 0 1.5-.667968 1.5-1.496093 0-.824219-.671876-1.496094-1.5-1.496094-.828126 0-1.5.671875-1.5 1.496094.003906.222656.054687.441406.152343.644531l-1.355469 1.351562H11C11 1.859375 9.84375.429688 8.226562.0898438 6.609375-.25 4.976562.585938 4.308594 2.09375c-1.609375.390625-2.597656 2.007812-2.214844 3.617188C.570312 6.679688-.226562 8.46875.078125 10.25c.300781 1.78125 1.640625 3.210938 3.402344 3.625.863281 1.617188 2.714843 2.441406 4.492187 1.996094C9.75 15.429688 11 13.828125 11 11.996094v-.210938l2.140625 2.074219c-.09375.195313-.144531.414063-.148437.632813 0 .828124.671874 1.5 1.5 1.5.828124 0 1.5-.671876 1.5-1.5 0-.828126-.671876-1.5-1.5-1.5-.226563.003906-.449219.054687-.648438.15625L11 10.394531V8.527344Zm1.40625-1c.273437 0 .5.222656.5.5 0 .277344-.226563.5-.5.5-.273438 0-.5-.222656-.5-.5 0-.277344.226562-.5.5-.5m0-6.511719c.273437 0 .5.21875.5.496094 0 .277343-.226563.5-.5.5-.273438 0-.5-.222657-.5-.5 0-.277344.226562-.496094.5-.496094m.5 13.476563c0 .273437-.226563.5-.5.5-.273438 0-.5-.226563-.5-.5 0-.273438.226562-.5.5-.5.273437 0 .5.226562.5.5M10 11.996094c0 1.378906-.9375 2.574218-2.273438 2.910156-1.332031.335938-2.722656-.289062-3.367187-1.5l-.210937-.402344-.445313-.105468c-.757813-.179688-1.433594-.605469-1.921875-1.210938-.621094-.777344-.882812-1.78125-.722656-2.757812.160156-.980469.730468-1.84375 1.570312-2.378907l.597656-.382812-.164062-.691407c-.257812-1.074218.402344-2.152343 1.476562-2.414062l.476563-.113281L5.21875 2.5C5.691406 1.414062 6.859375.8125 8.019531 1.054688 9.179688 1.300781 10.003906 2.328125 10 3.507812Zm0 0"/></svg>