<svg xmlns="http://www.w3.org/2000/svg" viewBox="0 0 16 16"><path fill="#414141" d="M13.15753 5.677l-5.677 5.677a2.00673 2.00673 0 01-2.83795-2.838l5.67694-5.677L7.48053 0l-5.673 5.677a6.022 6.022 0 008.42993 8.602q.04349-.04257.086-.08606l5.676-5.67694zm-5.677-4.257l1.419 1.419-1.419 1.419-1.419-1.419zm2.128 12.062a5.02177 5.02177 0 01-7.095 0v.004a5.02391 5.02391 0 010-7.096l2.839-2.842 1.419 1.424-2.838 2.834a3.0105 3.0105 0 104.16333 4.3496q.04734-.04523.09265-.09259l2.839-2.838 1.419 1.419zm2.13-4.967l1.419-1.419 1.414 1.42-1.419 1.419z"/></svg>