<svg xmlns="http://www.w3.org/2000/svg" viewBox="0 0 16 16"><path fill="#414141" d="m13.19413 5.693-5.693 5.693a2.01242 2.01242 0 0 1-2.846-2.846l5.693-5.693L7.50113 0l-5.689 5.693a6.039 6.039 0 0 0 8.45374 8.62627q.04356-.0427.08626-.08627l5.692-5.693zm1.418 2.847-1.423 1.423-1.418-1.424 1.423-1.423zm-7.111-7.116 1.423 1.423-1.423 1.423-1.423-1.423zm-4.981 12.1a5.038 5.038 0 0 1 0-7.116l2.847-2.85 1.423 1.428-2.846 2.842a3.019 3.019 0 0 0 4.17508 4.3619q.04747-.04543.09292-.0929l2.847-2.846 1.423 1.423-2.847 2.846a5.036 5.036 0 0 1-7.115 0z"/></svg>