<svg xmlns="http://www.w3.org/2000/svg" viewBox="0 0 16 16"><g fill="#414141"><path d="M9.449219 7.324219C10.589844 5.132812 9.964844 2.4375 7.972656.972656c-1.992187-1.460937-4.753906-1.25-6.503906.496094-1.746094 1.75-1.957031 4.511719-.496094 6.503906C2.4375 9.964844 5.132812 10.589844 7.324219 9.449219L13.878906 16 16 13.878906Zm-7.253907.535156c-1.5625-1.566406-1.5625-4.101563 0-5.664063 1.5625-1.566406 4.101563-1.566406 5.664063 0 1.5625 1.5625 1.5625 4.097657 0 5.664063-1.566406 1.5625-4.101563 1.5625-5.664063 0m6.726563 1.769531-.746094-.742187c.136719-.101563.265625-.207031.390625-.320313.121094-.121094.210938-.257812.320313-.390625l.742187.746094Zm.707031.707032.707032-.707032 4.25 4.25-.707032.707032Zm0 0"/><path d="M2.902344 2.902344c-1.171875 1.175781-1.171875 3.078125 0 4.25l.710937-.707032c-.785156-.785156-.785156-2.050781 0-2.832031Zm0 0"/></g></svg>