<svg xmlns="http://www.w3.org/2000/svg" viewBox="0 0 10 16"><path fill="#414141" d="M9.976562 10.488281C10.082031 8.625 9.324219 6.8125 7.925781 5.574219c.707031-.382813 1.222657-1.039063 1.429688-1.816407.203125-.777343.078125-1.605468-.347657-2.285156C8.066406.046875 6.175781-.40625 4.691406.445312 3.984375.828125 3.46875 1.484375 3.265625 2.261719c-.207031.777343-.082031 1.605469.347656 2.285156.269531.425781.640625.78125 1.078125 1.027344C3.292969 6.8125 2.539062 8.625 2.640625 10.488281c0 .167969 0 .335938.015625.5l-2.6367188.015625v2.992188l5.2382808-.019532 1.019532-2.578124.582031 1.65625-1.074219 2.917968h3.144532l1.03125-3.042968-.679688-1.941407h.683594c.007812-.164062.015625-.332031.015625-.5M4.214844 3.011719C4.171875 2.15625 4.652344 1.355469 5.433594 1c.78125-.359375 1.703125-.207031 2.324218.386719.621094.59375.820313 1.503906.5 2.300781-.320312.796875-1.09375 1.320312-1.949218 1.320312-1.128906.023438-2.066406-.867187-2.09375-1.996093m1.5 6.980469-.253906.644531-.925782 2.34375-3.464844.015625V12l2.617188-.015625v-1.605469C3.683594 9.238281 4 8.121094 4.597656 7.148438c.335938-.652344.980469-1.085938 1.710938-1.144532.730468.058594 1.378906.492188 1.710937 1.144532.535157.855468.84375 1.832031.894531 2.839843Zm3.144531 2.941406-.691406 2.042968h-.902344l.582031-1.597656.121094-.320312-.113281-.320313-.617188-1.75h.9375Zm0 0"/></svg>