<svg xmlns="http://www.w3.org/2000/svg" viewBox="0 0 9 16"><path fill="#414141" d="m8.992188 15.996094-1.664063-4.992188h.648437c.011719-.164062.015626-.328125.015626-.496094.105468-1.851562-.609376-3.652343-1.953126-4.925781 1.152344-.691406 1.703126-2.066406 1.34375-3.367187C7.023438.917969 5.84375.0195312 4.5.0195312c-1.347656 0-2.527344.8984378-2.886719 2.1953128-.359375 1.300781.191407 2.675781 1.34375 3.367187C1.613281 6.855469.902344 8.65625 1.007812 10.507812c0 .167969 0 .332032.011719.496094h.652344L.0078125 15.996094H3.003906L4.5 11.503906l1.496094 4.492188Zm-1.386719-1h-.890625l-1.328125-3.992188h.890625ZM2.503906 3.019531c0-1.101562.894532-1.996093 1.996094-1.996093s1.996094.894531 1.996094 1.996093c0 1.101563-.894532 1.996094-1.996094 1.996094s-1.996094-.894531-1.996094-1.996094m1.441406 6.988281-.226562.683594-1.4375 4.304688h-.890625l1.226563-3.675782.433593-1.3125h-1.03125c.046875-1.003906.339844-1.980468.851563-2.847656C3.5 6.164062 4.167969 6.015625 4.5 6.015625c.332031 0 1 .148437 1.628906 1.144531.511719.867188.800782 1.84375.847656 2.847656Zm0 0"/></svg>