<svg xmlns="http://www.w3.org/2000/svg" viewBox="0 0 16 16"><path fill="#fff" d="M8.0058 14.992l-1.885-3.3-.174-.3-.345.06a3.57845 3.57845 0 01-.6.05 3.50482 3.50482 0 01-3.41816-4.28943 3.611 3.611 0 012.67457-2.6347L4.5118 4.512l-.009-.4v-.13179A3.40541 3.40541 0 016.487.81745 3.52424 3.52424 0 0111.5028 3.998v.114l-.01.4.2563.06657a3.58866 3.58866 0 012.751 3.24726A3.50767 3.50767 0 0111.0058 11.5a3.57845 3.57845 0 01-.6-.05l-.345-.06-.174.3z"/><path fill="#414141" d="M12.00208 4.126V4a4 4 0 00-8 0v.126a4 4 0 001.681 7.816L8.00208 16l2.321-4.058a4 4 0 001.679-7.816zm1.976 4.41431A2.99992 2.99992 0 0110.491 10.957l-.691-.119-.347.608-1.451 2.539-1.451-2.533-.347-.608-.691.119A3 3 0 014.25208 5.1l.76992-.2-.01995-.8V4a3 3 0 016 0v.1l-.021.794.77.2a3 3 0 012.22704 3.44629z"/></svg>