<svg xmlns="http://www.w3.org/2000/svg" viewBox="0 0 16 16"><path fill="#f0f0f0" d="M7.99 15 6.1 11.7l-.17-.3-.35.05a3.58 3.58 0 0 1-.6.05 3.5 3.5 0 0 1-.87-6.89l.38-.1V4a3.5 3.5 0 1 1 7 0v.11l-.02.4.39.1a3.5 3.5 0 0 1-.87 6.89 3.58 3.58 0 0 1-.6-.05l-.35-.06-.17.3z"/><path fill="#414141" d="m7.99 13.98 1.45-2.53.34-.61.7.12a3 3 0 0 0 1.26-5.87l-.77-.2.02-.79V4a3 3 0 1 0-6 0v.1l.02.8-.77.2a3 3 0 0 0 1.26 5.86l.69-.12.35.61L7.99 14m0 2.01-2.32-4.06a4 4 0 0 1-1.68-7.81V4a4 4 0 0 1 8 0v.13a4 4 0 0 1-1.68 7.81z"/></svg>