<svg xmlns="http://www.w3.org/2000/svg" viewBox="0 0 16 16"><path fill="#f0f0f0" d="m7.98608 14.992-1.885-3.3-.174-.3-.345.06a3.57845 3.57845 0 0 1-.6.05 3.5 3.5 0 0 1-.875-6.89l.385-.1-.009-.4v-.114a3.5 3.5 0 1 1 7 0v.114l-.01.4.385.1a3.5 3.5 0 0 1-.872 6.888 3.57845 3.57845 0 0 1-.6-.05l-.345-.06-.174.3z"/><path fill="#414141" d="m7.98608 13.985 1.451-2.539.347-.608.691.119a3 3 0 0 0 1.26-5.863l-.77-.2.021-.794V4a3 3 0 1 0-6 0v.1l.02.8-.77.2a3 3 0 0 0 1.261 5.863l.691-.119.347.608 1.451 2.533m0 2.015-2.319-4.058a4 4 0 0 1-1.681-7.816V4a4 4 0 0 1 8 0v.126a4 4 0 0 1-1.679 7.816z"/></svg>