<svg width="16" height="16" viewBox="0 0 16 16" fill="none" xmlns="http://www.w3.org/2000/svg">
<g clip-path="url(#clip0_16_26)">
<path d="M11.294 14.889H0V9.08901C0.308759 9.07934 0.601064 8.94755 0.812739 8.72256C1.02441 8.49757 1.13816 8.19778 1.129 7.88901C1.13162 7.5747 1.01391 7.27131 0.8 7.04101C0.697782 6.93078 0.574056 6.84268 0.436461 6.78214C0.298866 6.7216 0.150322 6.6899 0 6.68901L0 5.88901C0.0759086 5.88918 0.151729 5.89419 0.227 5.90401C0.151795 5.89354 0.0759295 5.88852 0 5.88901L0 2.88901H16V5.88901H15.994C15.9271 5.88903 15.8603 5.89337 15.794 5.90201C15.8624 5.89371 15.9311 5.88937 16 5.88901V6.68901C15.6817 6.68901 15.3765 6.81544 15.1515 7.04048C14.9264 7.26552 14.8 7.57075 14.8 7.88901C14.8 8.20727 14.9264 8.51249 15.1515 8.73754C15.3765 8.96258 15.6817 9.08901 16 9.08901V14.889H11.294ZM15 13.889V9.58301C14.7279 9.39229 14.5057 9.1388 14.3523 8.84401C14.199 8.54922 14.1189 8.22181 14.1189 7.88951C14.1189 7.5572 14.199 7.22979 14.3523 6.935C14.5057 6.64021 14.7279 6.38673 15 6.19601V3.88901H1V6.19701C1.27429 6.38528 1.49817 6.63803 1.65195 6.93304C1.80574 7.22806 1.88473 7.55633 1.882 7.88901C1.88506 8.22203 1.80622 8.55069 1.65242 8.84609C1.49862 9.14148 1.27458 9.39454 1 9.58301V13.889H1.882V12.889H2.823V13.889H3.764V12.889H4.705V13.889H5.646V12.889H6.587V13.889H7.528V12.889H8.469V13.889H9.41V12.889H10.351V13.889H11.292V12.889H12.233V13.889H15ZM13.176 10.889H10.353V4.88901H13.177V10.889H13.176ZM11.294 9.88901H12.235V5.88901H11.294V9.88901ZM9.412 10.889H6.588V4.88901H9.412V10.889ZM7.529 9.88901H8.47V5.88901H7.529V9.88901ZM5.647 10.889H2.824V4.88901H5.647V10.889ZM3.765 9.88901H4.706V5.88901H3.765V9.88901ZM0 1.88901V0.889008H16V1.88901H0Z" fill="#414141"/>
</g>
<defs>
<clipPath id="clip0_16_26">
<rect width="16" height="16" fill="white"/>
</clipPath>
</defs>
</svg>
