<svg xmlns="http://www.w3.org/2000/svg" viewBox="0 0 16 16"><path fill="#414141" d="M11.3 14.89H0v-5.8a1.17 1.17 0 0 0 1.13-1.2q0-.5-.33-.85A1 1 0 0 0 0 6.7v-.8l.23.01L0 5.9v-3h16v3.8a1.2 1.2 0 1 0 0 2.4v5.8zm3.7-1v-4.3a2.07 2.07 0 0 1 0-3.4V3.9H1v2.3a2 2 0 0 1 .88 1.7A2 2 0 0 1 1 9.59v4.3h.88v-1h.94v1h.94v-1h.94v1h.95v-1h.94v1h.94v-1h.94v1h.94v-1h.94v1h.94v-1h.94v1zm-1.82-3h-2.83v-6h2.83zm-1.89-1h.95v-4h-.95zm-1.88 1H6.6v-6h2.8v6zm-1.88-1h.94v-4h-.94zm-1.88 1H2.82v-6h2.83zm-1.88-1h.94v-4h-.94zM0 1.89v-1h16v1z"/></svg>