<svg xmlns="http://www.w3.org/2000/svg" viewBox="0 0 16 16"><path fill="#414141" d="M11.3 14.89H0v-5.8a1.17 1.17 0 0 0 1.13-1.2c0-.32-.12-.62-.33-.85A1.1 1.1 0 0 0 0 6.7v-.8a1.79 1.79 0 0 1 .23.01A1.57 1.57 0 0 0 0 5.9v-3h16v3.8a1.2 1.2 0 1 0 0 2.4v5.8h-4.7zm3.7-1v-4.3a2.07 2.07 0 0 1 0-3.4V3.9H1v2.3a2.03 2.03 0 0 1 .88 1.7A2.03 2.03 0 0 1 1 9.59v4.3h.88v-1h.94v1h.94v-1h.94v1h.95v-1h.94v1h.94v-1h.94v1h.94v-1h.94v1h.94v-1h.94v1H15zm-1.82-3h-2.83v-6h2.83v6zm-1.89-1h.95v-4h-.95v4zm-1.88 1H6.6v-6h2.8v6zm-1.88-1h.94v-4h-.94v4zm-1.88 1H2.82v-6h2.83v6zm-1.88-1h.94v-4h-.94v4zM0 1.89v-1h16v1H0z"/></svg>