<svg xmlns="http://www.w3.org/2000/svg" fill="none" viewBox="11 8 10 16"><path fill="#414141" fill-rule="evenodd" d="M10.88 15.52a.5.5 0 0 1 .6.36 4.91 4.91 0 0 0 1.68 2.61 4.54 4.54 0 0 0 5.68 0 4.91 4.91 0 0 0 1.68-2.61.5.5 0 0 1 .96.24 5.91 5.91 0 0 1-2.02 3.16 5.54 5.54 0 0 1-6.92 0c-1-.8-1.7-1.9-2.02-3.16a.5.5 0 0 1 .36-.6Z" clip-rule="evenodd"/><path fill="#414141" fill-rule="evenodd" d="M19 15v-3a3 3 0 1 0-6 0v3a3 3 0 1 0 6 0Zm-3-7a4 4 0 0 0-4 4v3a4 4 0 0 0 8 0v-3a4 4 0 0 0-4-4Z" clip-rule="evenodd"/><path fill="#414141" d="M15.5 20h1v3h-1v-3ZM13 24v-1h6v1h-6Z"/></svg>