<svg xmlns="http://www.w3.org/2000/svg" viewBox="0 0 16 16"><path fill="#414141" d="M3.0475 3.05a6.952 6.952 0 013.743-1.938l.286-1.049a7.957 7.957 0 00-7.017 7.016l1.05-.286a6.952 6.952 0 011.938-3.743zm12.893 5.869l-1.052.287a6.971 6.971 0 01-5.684 5.681l-.286 1.05a7.973 7.973 0 007.022-7.018zm-10.065 6.86l-5.656-5.658 9.9-9.9 5.657 5.657zm-4.242-5.658l4.242 4.243 8.486-8.485-4.243-4.243z"/><path fill="#414141" d="M3.7573612974 10.8228344743l.7073535649-.7068599113 1.4137198226 1.4147071299-.707353565.7068599112z"/></svg>