<svg xmlns="http://www.w3.org/2000/svg" viewBox="0 0 16 16"><path fill="#414141" d="M9.5 0h1v2h-1zM14 5.5h2v1h-2zM5.4064155413 2.1069571335l.707242523-.7069710134L7.527600091 2.8144711659l-.7072425229.7069710134zm7.0762690044.7120732276 1.4145097236-1.4139173391.7069586696.7072548618-1.4145097236 1.4139173391zM12.943 11.039A2.572 2.572 0 0 0 13 10.5a2.441 2.441 0 0 0-.249-1.041L13.89 10.6l.707-.707-1.414-1.415-.631.631a2.512 2.512 0 0 0-.742-.728A2.994 2.994 0 1 0 7.005 6c0 .047.012.09.014.136A3.951 3.951 0 0 0 6.005 6v-.5h-2v1h.1a3.985 3.985 0 0 0-2.1 3.5v.169a3 3 0 0 0 1 5.831h9.5a2.5 2.5 0 0 0 .441-4.961zM10 4a2 2 0 0 1 0 4 1.961 1.961 0 0 1-.6-.1 4.009 4.009 0 0 0-1.3-1.3A1.976 1.976 0 0 1 8 6a2 2 0 0 1 2-2zm3.979 9.761A1.5 1.5 0 0 1 12.5 15H3a2 2 0 0 1-.664-3.888l.7-.246L3 10.125V10a3 3 0 0 1 5.67-1.364l.029.057.387.758.848-.343a1.5 1.5 0 0 1 2.025 1.717l-.222 1.016 1.024.182a1.5 1.5 0 0 1 1.221 1.738z"/></svg>