<svg xmlns="http://www.w3.org/2000/svg" viewBox="0 0 16 16"><path fill="#414141" d="M9.5 0h1v2h-1zM14 5.5h2v1h-2zM5.4064155413 2.1069571335l.707242523-.7069710134L7.527600091 2.8144711659l-.7072425229.7069710134zm7.0762690044.7120732276l1.4145097236-1.4139173391.7069586696.7072548618-1.4145097236 1.4139173391zM12.943 11.039A2.572 2.572 0 0013 10.5a2.441 2.441 0 00-.249-1.041L13.89 10.6l.707-.707-1.414-1.415-.631.631a2.512 2.512 0 00-.742-.728A2.994 2.994 0 107.005 6c0 .047.012.09.014.136A3.951 3.951 0 006.005 6v-.5h-2v1h.1a3.985 3.985 0 00-2.1 3.5v.169a3 3 0 001 5.831h9.5a2.5 2.5 0 00.441-4.961zM10 4a2 2 0 010 4 1.961 1.961 0 01-.6-.1 4.009 4.009 0 00-1.3-1.3A1.976 1.976 0 018 6a2 2 0 012-2zm3.979 9.761A1.5 1.5 0 0112.5 15H3a2 2 0 01-.664-3.888l.7-.246L3 10.125V10a3 3 0 015.67-1.364l.029.057.387.758.848-.343a1.5 1.5 0 012.025 1.717l-.222 1.016 1.024.182a1.5 1.5 0 011.221 1.738z"/></svg>