<svg xmlns="http://www.w3.org/2000/svg" viewBox="0 0 16 16"><path fill="#414141" d="M9.5 0h1v2h-1zM14 5.5h2v1h-2zM5.4 2.1l.71-.7 1.42 1.41-.71.71zm7.08.72L13.9 1.4l.7.7-1.41 1.42zm.46 8.22a3 3 0 0 0 .06-.54 2.4 2.4 0 0 0-.25-1.04l1.14 1.14.7-.7-1.4-1.42-.64.63a3 3 0 0 0-.74-.73A3 3 0 1 0 7.01 6v.14a4 4 0 0 0-1-.14v-.5H4v1h.1A4 4 0 0 0 2 10v.17A3 3 0 0 0 3 16h9.5a2.5 2.5 0 0 0 .44-4.96M10 4a2 2 0 0 1 0 4 2 2 0 0 1-.6-.1 4 4 0 0 0-1.3-1.3A2 2 0 0 1 8 6a2 2 0 0 1 2-2m3.98 9.76A1.5 1.5 0 0 1 12.5 15H3a2 2 0 0 1-.66-3.89l.7-.24-.04-.74V10a3 3 0 0 1 5.67-1.36l.03.05.39.76.84-.34a1.5 1.5 0 0 1 2.03 1.72l-.22 1.01 1.02.18a1.5 1.5 0 0 1 1.22 1.74"/></svg>