<svg xmlns="http://www.w3.org/2000/svg" viewBox="0 0 16 16"><path fill="#414141" d="M15.99847 7.99988 16 8.00159l-3.18073 3.18066-.70709-.70715L14.08722 8.5H8.5v5.58716l1.9751-1.975.70715.70716L8.00159 16l-.00171-.00146L7.99841 16l-3.18066-3.18066.707-.70716L7.5 14.0874V8.5H1.91278l1.975 1.9751-.70709.70715L0 8.00159l.00153-.00171L0 7.99841l3.18073-3.18066.70709.707L1.91254 7.5H7.5V1.9126L5.52478 3.88782l-.707-.70716L7.99841 0l.00147.00146L8.00159 0l3.18066 3.18066-.70715.70716L8.5 1.91284V7.5h5.58746l-1.97528-1.97522.70709-.707L16 7.99841z"/></svg>