<svg xmlns="http://www.w3.org/2000/svg" viewBox="0 0 18 16"><g fill="#414141"><path d="M16.839844 14.851562V3.453125H8.539062l-2.246093-2.28125H1.128906v13.675781h15.703125m1.125 1.140625H.015625V.03125h6.730469L8.992188 2.3125h8.972656Zm0 0"/><path d="m12.769531 9.046875-.832031.464844 1.433594.921875-4.378906 2.683594-4.378907-2.683594 1.433594-.921875-.828125-.464844-2.265625 1.386719 4.230469 2.589844 1.8125 1.109374 1.289062-.738281 4.757813-2.960937Zm0 0"/><path d="M13.3125 7.789062 9.007812 5.367188 4.699219 7.789062l4.308593 2.417969L13.3125 7.789062m1.703125 0L9.007812 11.15625 3 7.792969l6.007812-3.367188Zm0 0"/></g></svg>