<svg xmlns="http://www.w3.org/2000/svg" viewBox="0 0 16 16"><path fill="#414141" d="M15 15v-2h1v2h-1zm-3 0v-1h2v1h-2zm-4 0v-1h2v1H8zm-4 0v-1h2v1H4zm-4 0v-1h2v1H0zm0-2v-2h1v2H0zm8.67-2.24V9.67c.6.3 1.26.46 1.93.48.78 0 1.16-.23 1.16-.7a.55.55 0 0 0-.13-.37 1.5 1.5 0 0 0-.42-.31 7.17 7.17 0 0 0-.82-.36 3.77 3.77 0 0 1-1.37-.8 1.46 1.46 0 0 1-.36-1.02 1.35 1.35 0 0 1 .6-1.17A2.9 2.9 0 0 1 10.94 5c.68 0 1.35.14 1.97.42l-.4.94a4.4 4.4 0 0 0-1.62-.4c-.66 0-.99.2-.99.57a.57.57 0 0 0 .26.47c.36.22.73.4 1.13.53.37.13.73.3 1.06.52.2.14.37.32.5.54.1.23.16.48.15.73a1.54 1.54 0 0 1-.63 1.33c-.54.34-1.17.5-1.8.46-.65.03-1.3-.1-1.9-.35zM6.93 11V7.38a1.6 1.6 0 0 0-.27-1.02 1.06 1.06 0 0 0-.87-.34 1.39 1.39 0 0 0-1.17.47 2.6 2.6 0 0 0-.37 1.58V11H3V5.1h.98l.18.77h.06c.19-.29.45-.51.76-.65a2.4 2.4 0 0 1 1.09-.23 1.9 1.9 0 0 1 2.12 2.16V11H6.93zM15 11V9h1v2h-1zM0 9V7h1v2H0zm15-2V5h1v2h-1zM0 5V3h1v2H0zm15-2V1h1v2h-1zm-3-1V1h2v1h-2zM8 2V1h2v1H8zM4 2V1h2v1H4zM0 2V1h2v1H0z"/></svg>