<svg xmlns="http://www.w3.org/2000/svg" viewBox="0 0 16 16"><path fill="#414141" d="M15 15v-2h1v2zm-3 0v-1h2v1zm-4 0v-1h2v1zm-4 0v-1h2v1zm-4 0v-1h2v1zm0-2v-2h1v2zm8.67-2.24V9.67q.91.45 1.93.48 1.17 0 1.16-.7a.6.6 0 0 0-.13-.37 2 2 0 0 0-.42-.31 7 7 0 0 0-.82-.36 4 4 0 0 1-1.37-.8 1.5 1.5 0 0 1-.36-1.02 1.4 1.4 0 0 1 .6-1.17A3 3 0 0 1 10.94 5q1.03 0 1.97.42l-.4.94a4 4 0 0 0-1.62-.4q-.99 0-.99.57a.6.6 0 0 0 .26.47q.54.33 1.13.53.56.2 1.06.52.3.21.5.54.16.35.15.73a1.5 1.5 0 0 1-.63 1.33c-.54.34-1.17.5-1.8.46q-.99.03-1.9-.35M6.93 11V7.38a1.6 1.6 0 0 0-.27-1.02 1 1 0 0 0-.87-.34 1.4 1.4 0 0 0-1.17.47 2.6 2.6 0 0 0-.37 1.58V11H3V5.1h.98l.18.77h.06q.29-.44.76-.65a2.4 2.4 0 0 1 1.09-.23 1.9 1.9 0 0 1 2.12 2.16V11zM15 11V9h1v2zM0 9V7h1v2zm15-2V5h1v2zM0 5V3h1v2zm15-2V1h1v2zm-3-1V1h2v1zM8 2V1h2v1zM4 2V1h2v1zM0 2V1h2v1z"/></svg>