<svg xmlns="http://www.w3.org/2000/svg" viewBox="0 0 16 16"><path fill="#414141" d="M11.52 12h1v1h-1zm3.32241-6.98477A2.92694 2.92694 0 0012.90989 3.134 3.00842 3.00842 0 008.9995 6h1a2.00257 2.00257 0 113.897.65184A2.04823 2.04823 0 0111.91516 8h-.39566v3h1V8.948a3.00893 3.00893 0 002.32291-3.93277zM3.52 12h1v1h-1zm3.3237-6.98407a2.92684 2.92684 0 00-1.93237-1.88185A3.00844 3.00844 0 001.0005 6h1a2.00257 2.00257 0 113.897.65184A2.04823 2.04823 0 013.91616 8H3.5195v3h1V8.948a3.00891 3.00891 0 002.3242-3.93207z"/></svg>