<svg width="16" height="16" viewBox="0 0 16 16" fill="none" xmlns="http://www.w3.org/2000/svg">
<path d="M0 15V1H16V15H0ZM1 14H15V2H1V14ZM8 10.1709L5.21899 11.4709L1.98401 9.95508V5.93799L5.21899 4.53101L5.396 4.60889L7.99597 5.73706L10.767 4.53101L10.944 4.60889L14.01 5.93799V9.95605L10.766 11.4719L8 10.1709ZM10.324 10.25V7.93994L8.46301 7.05298V9.37695L10.324 10.25ZM2.88904 9.36694L4.771 10.25V7.93994L2.88904 7.04004V9.36694ZM11.228 7.94897V10.249L13.111 9.37012V7.11206L11.228 7.94897ZM5.67505 7.94897V10.249L7.53699 9.37891V7.12012L5.67505 7.94897ZM9.00305 6.29907L10.781 7.146L12.6121 6.3291L10.77 5.52905L9.00305 6.29907ZM3.44995 6.29907L5.22803 7.146L7.06006 6.3291L5.21802 5.52905L3.44995 6.29907Z" fill="#414141"/>
</svg>
