<svg xmlns="http://www.w3.org/2000/svg" fill="none" viewBox="0 0 16 16"><path fill="#414141" d="M0 15V1h16v14H0zm1-1h14V2H1v12zm7-3.8291l-2.78101 1.3-3.23498-1.51582V5.93799l3.23498-1.40698.17701.07788 2.59997 1.12817L10.767 4.53101l.177.07788 3.066 1.3291v4.01806l-3.244 1.51585L8 10.1709zm2.324.0791V7.93994l-1.86099-.88696v2.32397L10.324 10.25zm-7.43496-.88306L4.771 10.25V7.93994l-1.88196-.8999v2.3269zM11.228 7.94897V10.249l1.883-.87888V7.11206l-1.883.83691zm-5.55295 0V10.249l1.86194-.87009V7.12012l-1.86194.82885zm3.328-1.6499L10.781 7.146l1.8311-.8169-1.8421-.80005-1.76695.77002zm-5.5531 0l1.77808.84693 1.83203-.8169-1.84204-.80005-1.76807.77002z"/></svg>