<svg xmlns="http://www.w3.org/2000/svg" viewBox="0 0 16 16"><path fill="#414141" d="M11 13h-.5A7.51133 7.51133 0 003 5.5v-1A8.39285 8.39285 0 019 7a8.39285 8.39285 0 012.5 6z"/><path fill="#414141" d="M15 13h-.5a11.1 11.1 0 00-3.4-8.1A11.43916 11.43916 0 003 1.5v-1a12.17092 12.17092 0 018.8 3.7 12.34013 12.34013 0 013.7 8.8zM3 16a2.946 2.946 0 01-3-2.891q-.001-.05448 0-.109a2.946 2.946 0 012.891-3q.05449-.001.109 0a2.946 2.946 0 013 2.891q.001.05449 0 .109a2.946 2.946 0 01-2.891 3q-.05448.001-.109 0zm0-5a2 2 0 102 2 2 2 0 00-2-2z"/></svg>