<svg xmlns="http://www.w3.org/2000/svg" viewBox="0 0 16 16"><path fill="#414141" d="M9.8803390397 11.5145662416l3.9974617788-.997346142.2420743063.9702577133-3.9974617788.997346142z"/><path fill="#414141" d="M8 2L0 0v14l8 2 8-2V0zm-7-.719l6.5 1.625v11.938L1 13.219zm14 11.938l-6.5 1.625V2.906L15 1.281z"/><path fill="#414141" d="M1.8835251893 11.4894750268l.2425315026-.9701435307 3.9969913467.9992297907-.2425315026.9701435307zM1.882471093 8.4891637383l.2430062524-.970024722 3.9965018547 1.0011857598-.2430062524.970024722zm.0010529118-2.999687727l.2425315026-.9701435307 3.9969913467.9992297906-.2425315026.9701435308zM9.880313773 8.5144162919l3.9974715265-.9973070714.2420648232.9702600793-3.9974715266.9973070714zm-.0002444695-2.9999702378l3.9974715266-.9973070713.2420648231.9702600792-3.9974715265.9973070714z"/></svg>