<svg xmlns="http://www.w3.org/2000/svg" viewBox="0 0 16 16"><path fill="#414141" d="M16 5.5v-1h-1.3a4 4 0 0 0-.73-1.76l.92-.92-.7-.71-.93.92a4 4 0 0 0-1.76-.73V0h-1v1.3a4 4 0 0 0-1.76.73l-.92-.92-.7.7.91.92A4 4 0 0 0 7.3 4.5H6v1h1.3a4 4 0 0 0 .73 1.76l-.92.92.7.7.93-.9a4 4 0 0 0 1.76.72V10h1V8.7a4 4 0 0 0 1.76-.73l.92.92.71-.7-.92-.93a4 4 0 0 0 .74-1.76zm-5 2.25A2.75 2.75 0 1 1 13.75 5 2.75 2.75 0 0 1 11 7.75m-3.58 2.4-.97.39a3 3 0 0 0-.94-.96l.41-.96-.92-.4-.4.97a3 3 0 0 0-1.34 0l-.4-.98-.92.37.4.98a3 3 0 0 0-.96.93l-.97-.41L0 11l.97.4a3 3 0 0 0 0 1.34l-.98.4.38.93.97-.4a3 3 0 0 0 .93.95l-.4.97.91.4.42-.98a3 3 0 0 0 1.33.02l.4.97.92-.38-.4-.97a3 3 0 0 0 .96-.93l.97.4.39-.91-.97-.41a3 3 0 0 0 .02-1.34l.97-.39zm-1.68 2.74a2 2 0 1 1 .01-1.53 2 2 0 0 1-.01 1.53"/></svg>