<svg xmlns="http://www.w3.org/2000/svg" viewBox="0 0 16 16"><path fill="#414141" d="M16 5.5v-1h-1.29315A3.70514 3.70514 0 0 0 13.97 2.73706l.92-.92017-.707-.70689-.92.92A3.71089 3.71089 0 0 0 11.5 1.3V0h-1v1.30005a3.69892 3.69892 0 0 0-1.763.7279l-.919-.91906-.707.707.919.91911A3.71476 3.71476 0 0 0 7.3 4.5H6v1h1.3a3.71424 3.71424 0 0 0 .729 1.76392l-.918.918.707.707.918-.918A3.69978 3.69978 0 0 0 10.5 8.7V10h1V8.7a3.71168 3.71168 0 0 0 1.763-.729l.92.91894.707-.70694-.92-.91906A3.7051 3.7051 0 0 0 14.707 5.5zm-5 2.25A2.75 2.75 0 1 1 13.75 5 2.75 2.75 0 0 1 11 7.75zm-3.576 2.394-.974.393a2.95094 2.95094 0 0 0-.936-.954l.411-.96509-.92-.39087-.411.96696a2.98007 2.98007 0 0 0-1.335-.012l-.393-.974-.928.374.393.975a2.97924 2.97924 0 0 0-.951.93591L.409 10.078l-.39.91907.966.41089a2.95884 2.95884 0 0 0-.012 1.337L0 13.13794l.375.928.973-.39392a2.95526 2.95526 0 0 0 .936.952l-.41095.967.921.39087.411-.968a2.70129 2.70129 0 0 0 1.336.01416L4.934 16l.927-.375-.393-.973a2.9466 2.9466 0 0 0 .952-.93592l.966.40992.391-.91993-.966-.41a2.95523 2.95523 0 0 0 .014-1.332l.973-.392zM5.74 12.8879a2 2 0 1 1 .014-1.532 2 2 0 0 1-.01395 1.53204z"/></svg>