<svg xmlns="http://www.w3.org/2000/svg" viewBox="0 0 16 16"><path fill="#414141" d="M16 5.5v-1h-1.29315A3.70584 3.70584 0 0013.97 2.737l.92-.92-.707-.707-.92.92A3.71268 3.71268 0 0011.5 1.3V0h-1v1.3a3.69989 3.69989 0 00-1.763.728l-.919-.919-.707.707.919.919A3.7153 3.7153 0 007.3 4.5H6v1h1.3a3.71575 3.71575 0 00.729 1.764l-.918.918.707.707.918-.918A3.70052 3.70052 0 0010.5 8.7V10h1V8.7a3.71263 3.71263 0 001.763-.729l.92.919.707-.707-.92-.919a3.70655 3.70655 0 00.737-1.764zm-5 2.25A2.75 2.75 0 1113.75 5 2.75 2.75 0 0111 7.75zm-4.1 3.714l.973-.392-.374-.928-.974.393a2.952 2.952 0 00-.936-.954L6 8.618l-.92-.391-.411.967a2.981 2.981 0 00-1.335-.012l-.393-.974-.928.374.393.975a2.98018 2.98018 0 00-.951.936l-.971-.415-.39.919.966.411a2.959 2.959 0 00-.012 1.337l-.973.393.375.928.973-.394a2.956 2.956 0 00.936.952l-.411.967.921.391.411-.968a2.7 2.7 0 001.336.014l.393.972.927-.375-.393-.973a2.94608 2.94608 0 00.952-.936l.966.41.391-.92-.966-.41a2.95511 2.95511 0 00.014-1.332zm-1.085 1.424a2 2 0 11.014-1.532 2 2 0 01-.014 1.532z"/></svg>