<svg xmlns="http://www.w3.org/2000/svg" viewBox="0 0 16 16"><path fill="#414141" d="M4.02 9a1 1 0 1 1 0 2 1 1 0 0 1 0-2m0-3.98a1 1 0 1 1 0 1.99 1 1 0 0 1 0-2M7 2.03a1 1 0 1 1 0 2 1 1 0 0 1 0-2m3.49 1a1 1 0 1 1 0 2 1 1 0 0 1 0-2M12.7 10h-1.22a2.1 2.1 0 0 0-1.92 3.02c.28.55.31 1.19.09 1.76a1.9 1.9 0 0 1-1.9 1.2 6.7 6.7 0 0 1-4.19-1.34A8 8 0 0 1 .1 8.94a7.97 7.97 0 1 1 15.89-1 2 2 0 0 1-2 2.05H12.7Zm-.16-.97h1.35A1.08 1.08 0 0 0 15 7.8l-.08-.7A7 7 0 0 0 6.4 1.2c-3.66.83-6 4.41-5.28 8.09a7.1 7.1 0 0 0 3.7 5 5 5 0 0 0 3.15.7q.42-.05.68-.4c.26-.35.2-.5.14-.77q-.06-.22-.16-.43a3.06 3.06 0 0 1 1.97-4.23q.97-.16 1.96-.14"/></svg>