<svg xmlns="http://www.w3.org/2000/svg" viewBox="0 0 16 16"><g fill="#414141"><path d="M4.015625 9c.550781 0 1 .449219 1 1s-.449219.996094-1 .996094c-.546875 0-.996094-.445313-.996094-.996094s.449219-1 .996094-1m0-3.984375c.550781 0 1 .445313 1 .996094s-.449219.996093-1 .996093c-.546875 0-.996094-.445312-.996094-.996093s.449219-.996094.996094-.996094m2.992187-2.992187c.550782 0 .996094.445312.996094.996093s-.445312.996094-.996094.996094c-.550781 0-.996093-.445313-.996093-.996094s.445312-.996093.996093-.996093m3.488282.996093c.550781 0 .996094.449219.996094.996094 0 .550781-.445313 1-.996094 1-.550782 0-.996094-.449219-.996094-1 0-.546875.445312-.996094.996094-.996094"/><path d="M12.691406 9.992188c-.40625 0-.8125-.003907-1.214844 0-.730468-.007813-1.414062.367187-1.804687.984374-.390625.617188-.433594 1.390626-.113281 2.046876.277344.546874.3125 1.183593.089844 1.753906-.300782.773437-1.070313 1.261718-1.898438 1.203125-1.507812.035156-2.984375-.4375-4.1875-1.34375C1.628906 13.335938.359375 11.25.09375 8.933594-.359375 5.585938 1.394531 2.328125 4.4375.859375 6.566406-.199219 9.054688-.253906 11.226562.710938c2.171876.960937 3.800782 2.84375 4.441407 5.128906.183593.6875.289062 1.390625.3125 2.097656.015625.539062-.1875 1.0625-.5625 1.449219-.378907.386719-.894531.601562-1.433594.601562-.429687.011719-.863281 0-1.292969 0Zm-.148437-.964844h1.347656c.316406.007812.617187-.125.828125-.359375.210938-.234375.304688-.550781.265625-.863281-.023437-.230469-.046875-.464844-.078125-.695313-.257812-1.957031-1.332031-3.714844-2.953125-4.839844-1.625-1.121093-3.644531-1.507812-5.566406-1.0625-3.660157.820313-5.996094 4.40625-5.273438 8.082031.398438 2.144532 1.757813 3.988282 3.691407 4.996094.945312.570313 2.054687.816406 3.15625.699219.269531-.027344.519531-.167969.675781-.390625s.207031-.503906.140625-.769531c-.039063-.148438-.089844-.292969-.15625-.429688-.378906-.816406-.375-1.757812.003906-2.574219.378906-.8125 1.101562-1.417968 1.96875-1.65625.644531-.113281 1.296875-.160156 1.953125-.140624"/></g></svg>