<svg xmlns="http://www.w3.org/2000/svg" viewBox="4 4 8 8"><g fill="#414141"><path d="M10 5H4.5v4H10Zm-.5 3.5H5v-3h4.5Zm0 0"/><path d="M10.5 4v5.5H4v.5h7V4.5h1V4Zm-1.25 7c-.136719 0-.25.113281-.25.25 0 .136719.113281.25.25.25.136719 0 .25-.113281.25-.25 0-.136719-.113281-.25-.25-.25m0-.5c.414062 0 .75.335938.75.75s-.335938.75-.75.75-.75-.335938-.75-.75.335938-.75.75-.75Zm-3.5.5c-.136719 0-.25.113281-.25.25 0 .136719.113281.25.25.25.136719 0 .25-.113281.25-.25 0-.136719-.113281-.25-.25-.25m0-.5c.414062 0 .75.335938.75.75s-.335938.75-.75.75-.75-.335938-.75-.75.335938-.75.75-.75Zm0 0"/></g></svg>