<svg xmlns="http://www.w3.org/2000/svg" viewBox="0 0 16 16"><path fill="#414141" d="M13 10.16c0-.055.006-.111.006-.167a2.685 2.685 0 0 0-.041-.4A4.955 4.955 0 0 0 16 5.464 4 4 0 0 1 10.548 0a5.007 5.007 0 0 0-4.417 5.994c-.043 0-.083-.008-.126-.008a4 4 0 0 0-4 4.006v.169a3 3 0 0 0 1 5.839h9.482v-.039A3.006 3.006 0 0 0 13 10.16zM8.075 2.281A4 4 0 0 1 9.05 1.5c-.015.158-.023.318-.023.479a5.007 5.007 0 0 0 5 5.007c.161 0 .321-.008.479-.023a3.922 3.922 0 0 1-1.9 1.688 2.491 2.491 0 0 0-3.271-.875 4 4 0 0 0-2.1-1.591 3.952 3.952 0 0 1-.2-1.2 4 4 0 0 1 1.04-2.704zM13.9 13.655a2 2 0 0 1-1.565 1.316l-.168.029h-9.16a2 2 0 0 1-.664-3.9l.7-.246-.032-.742v-.121a3 3 0 0 1 3-3 2.865 2.865 0 0 1 .479.06A2.972 2.972 0 0 1 8.5 8.332l.5.754.66-.35.14-.073a1.493 1.493 0 0 1 2.189 1.229c0 .033.01.064.01.1v.1l-.047.756.714.251a2 2 0 0 1 1.234 2.556z"/></svg>