<svg xmlns="http://www.w3.org/2000/svg" viewBox="0 0 16 16"><path fill="#414141" d="M13 10.16v-.17a2.69 2.69 0 0 0-.03-.4A4.96 4.96 0 0 0 16 5.46 4 4 0 0 1 10.55 0a5 5 0 0 0-4.42 6l-.12-.01a4 4 0 0 0-4 4v.17A3 3 0 0 0 3 16h9.48v-.04a3 3 0 0 0 .51-5.8zM8.07 2.28a4 4 0 0 1 .98-.78l-.02.48a5 5 0 0 0 5 5c.16 0 .32 0 .48-.02a3.92 3.92 0 0 1-1.9 1.7 2.5 2.5 0 0 0-3.27-.88 4 4 0 0 0-2.1-1.6 3.95 3.95 0 0 1-.2-1.2 4 4 0 0 1 1.04-2.7zm5.83 11.38a2 2 0 0 1-1.56 1.31l-.17.03H3a2 2 0 0 1-.67-3.9l.7-.25-.03-.74V10a3 3 0 0 1 3-3 2.87 2.87 0 0 1 .48.06A2.97 2.97 0 0 1 8.5 8.33l.5.76.66-.35.14-.08a1.5 1.5 0 0 1 2.19 1.23v.2l-.04.76.72.25a2 2 0 0 1 1.23 2.55z"/></svg>