<svg xmlns="http://www.w3.org/2000/svg" viewBox="0 0 16 16"><path fill="#414141" d="M12 6.9A3.50953 3.50953 0 106.5 4a1.26809 1.26809 0 00.1.6 1.18194 1.18194 0 00-.6-.1A3.543 3.543 0 002.5 8 3.64594 3.64594 0 004 10.9 5.426 5.426 0 00.5 16h1a4.5 4.5 0 019 0h1A5.574 5.574 0 008 10.9 3.5 3.5 0 009.5 8a2.66762 2.66762 0 000-.4c.454-.138.3-.1.5-.1a4.481 4.481 0 014.5 4.46191q.00009.01905 0 .03809h1A5.574 5.574 0 0012 6.9zM7.567 4.6A2.72 2.72 0 017.5 4 2.5 2.5 0 1110 6.5a2.91984 2.91984 0 01-.9-.2 3.15914 3.15914 0 00-1.4-1.4zM6 10.5a2.476 2.476 0 11.04825 0q-.02412.00023-.04825 0z"/></svg>