<svg xmlns="http://www.w3.org/2000/svg" viewBox="0 0 16 16"><path fill="#414141" d="M12 6.9A3.51 3.51 0 1 0 6.5 4a1.27 1.27 0 0 0 .1.6 1.18 1.18 0 0 0-.6-.1A3.54 3.54 0 0 0 2.5 8 3.65 3.65 0 0 0 4 10.9 5.43 5.43 0 0 0 .5 16h1a4.5 4.5 0 0 1 9 0h1A5.57 5.57 0 0 0 8 10.9 3.5 3.5 0 0 0 9.5 8a2.67 2.67 0 0 0 0-.4c.45-.14.3-.1.5-.1a4.48 4.48 0 0 1 4.5 4.46V12h1A5.57 5.57 0 0 0 12 6.9zM7.57 4.6A2.72 2.72 0 0 1 7.5 4 2.5 2.5 0 1 1 10 6.5a2.92 2.92 0 0 1-.9-.2 3.16 3.16 0 0 0-1.4-1.4zM6 10.5a2.48 2.48 0 1 1 .05 0H6z"/></svg>