<svg xmlns="http://www.w3.org/2000/svg" viewBox="0 0 16 16"><path fill="#414141" fill-rule="evenodd" d="M4.813.243a2.687 2.687 0 0 0-.969.265 2.908 2.908 0 0 0-1.562 3.429c.46 1.588 2.15 2.485 3.706 1.967a2.918 2.918 0 0 0 1.86-1.864c.116-.361.138-.511.135-.933-.002-.339-.013-.44-.07-.656-.183-.69-.539-1.23-1.08-1.636-.588-.441-1.254-.63-2.02-.572m2.84 7.424L.52 14.8l.34.34.34.34 7.14-7.14 7.14-7.14-.333-.333A5.825 5.825 0 0 0 14.8.533c-.007 0-3.223 3.21-7.147 7.134m-1.995-6.38c.323.104.542.241.796.497.189.19.249.273.352.483.068.139.142.339.165.445.053.239.054.603.002.848a2.334 2.334 0 0 1-.405.821 1.939 1.939 0 0 1-2.986-.011 2.365 2.365 0 0 1-.395-.81 2.302 2.302 0 0 1 .002-.848c.023-.106.097-.306.165-.445.103-.213.16-.29.352-.48.317-.315.638-.49 1.024-.56.243-.043.698-.014.928.06M10.333 10a2.925 2.925 0 0 0-2.246 2.126c-.064.236-.071.305-.07.727 0 .418.008.494.07.726.137.512.392.953.767 1.327.374.374.814.629 1.327.768.232.062.308.07.726.071.429.001.488-.005.733-.073a3.664 3.664 0 0 0 1.029-.496 2.937 2.937 0 0 0 1.139-2.577 2.91 2.91 0 0 0-2.391-2.613 3.457 3.457 0 0 0-1.084.014m1.067.977a1.975 1.975 0 0 1 1.377 1.356c.084.299.084.741 0 1.04a1.968 1.968 0 0 1-1.337 1.349c-.26.081-.748.088-1.013.016-.703-.192-1.267-.78-1.416-1.478a2.622 2.622 0 0 1 .001-.82 1.979 1.979 0 0 1 1.142-1.372c.157-.067.25-.091.566-.146.114-.019.512.012.68.055"/></svg>