<svg xmlns="http://www.w3.org/2000/svg" viewBox="0 0 16 16"><path fill="#414141" d="M5.082031 1.195312c1.070313 0 1.941407.871094 1.941407 1.941407 0 1.074219-.871094 1.945312-1.941407 1.945312-1.074219 0-1.945312-.871093-1.945312-1.945312 0-1.070313.871093-1.941407 1.945312-1.941407m0-.972656c-1.609375 0-2.914062 1.304688-2.914062 2.914063s1.304687 2.914062 2.914062 2.914062 2.914063-1.304687 2.914063-2.914062S6.691406.222656 5.082031.222656Zm5.828125 10.6875c1.074219 0 1.941406.871094 1.941406 1.941406 0 1.074219-.867187 1.945313-1.941406 1.945313-1.074218 0-1.945312-.871094-1.945312-1.945313 0-1.070312.871094-1.941406 1.945312-1.941406m0-.972656c-1.609375 0-2.914062 1.304688-2.914062 2.914062 0 1.609376 1.304687 2.914063 2.914062 2.914063s2.914063-1.304687 2.914063-2.914063c0-1.609374-1.304688-2.914062-2.914063-2.914062Zm0 0"/><path fill="none" stroke="#414141" stroke-linecap="square" stroke-width=".97" d="M14.7969292482 1.195412681 1.195412681 14.7969292483"/></svg>