<svg xmlns="http://www.w3.org/2000/svg" viewBox="0 0 16 16"><path fill="#414141" fill-rule="evenodd" d="M4.81.24a3 3 0 0 0-.97.27 2.9 2.9 0 0 0-1.56 3.43 2.9 2.9 0 0 0 3.7 1.96 3 3 0 0 0 1.87-1.86c.11-.36.14-.51.13-.93A2.9 2.9 0 0 0 4.81.25m2.84 7.42L.52 14.8l.34.34.34.34 7.14-7.14 7.14-7.14-.33-.33-.35-.34zm-2-6.38c.33.1.55.24.8.5.2.18.25.27.36.48.06.14.14.34.16.44.05.24.06.6 0 .85a2 2 0 0 1-.4.82 1.94 1.94 0 0 1-2.99-.01 2 2 0 0 1-.4-.81 2 2 0 0 1 0-.85c.03-.1.1-.3.17-.44.1-.22.16-.3.36-.48q.45-.48 1.02-.56c.24-.05.7-.02.93.06M10.33 10a2.9 2.9 0 0 0-2.24 2.13c-.07.23-.07.3-.07.72s0 .5.07.73a2.9 2.9 0 0 0 2.1 2.1c.22.06.3.06.72.07.43 0 .48-.01.73-.08a4 4 0 0 0 1.03-.5 3 3 0 0 0 1.14-2.57 2.9 2.9 0 0 0-2.4-2.61 4 4 0 0 0-1.08.01m1.07.98a2 2 0 0 1 1.38 1.35c.08.3.08.74 0 1.04a2 2 0 0 1-1.34 1.35 2 2 0 0 1-1.01.02A2 2 0 0 1 9 13.26a3 3 0 0 1 0-.82 2 2 0 0 1 1.14-1.37 2 2 0 0 1 1.25-.09"/></svg>