<svg xmlns="http://www.w3.org/2000/svg" viewBox="0 0 16 16"><g fill="#414141"><path d="M9.828125 15.015625c1.839844-.707031 3.324219-2.121094 4.117187-3.929687 1.5625-3.527344.199219-7.671876-3.160156-9.578126C7.429688-.402344 3.171875.546875.9375 3.695312V1.449219H.00390625v4.210937H4.308594v-.933594H1.5C3.15625 1.804688 6.765625.628906 9.828125 2.011719c3.265625 1.484375 4.761719 5.300781 3.367187 8.609375-.714843 1.585937-2.023437 2.832031-3.648437 3.460937-1.632813.625-3.445313.589844-5.054687-.09375C2.988281 13.324219 1.789062 12.125 1.125 10.621094l-.839844.375c.765625 1.703125 2.128906 3.066406 3.835938 3.835937 1.804687.808594 3.851562.875 5.707031.183594Zm0 0"/><path d="M8.761719 8 6.175781 6.707031v2.585938L8.761719 8m2.09375 0-5.617188 2.808594V5.191406Zm0 0"/></g></svg>