<svg xmlns="http://www.w3.org/2000/svg" viewBox="2 2 12 13"><path fill="#414141" d="M14.222656 10.40625V7.609375c0-.664063-.597656-1.203125-1.332031-1.203125-.332031 0-.648437.113281-.890625.316406-.503906-.417968-1.273438-.417968-1.777344 0-.359375-.300781-.875-.394531-1.332031-.242187V3.367188c-.160156-.652344-.875-1.070313-1.601563-.9375-.621093.117187-1.066406.609374-1.066406 1.179687v5.371094L4.78125 8.238281c-.019531-.007812-.035156-.019531-.054688-.03125l-.117187-.054687-.039063-.019532c-.046874-.019531-.101562-.042968-.125-.050781-.6875-.238281-1.457031.070313-1.722656.6875-.261718.59375.050782 1.269531.703125 1.519531l2.035157 1.0625c.535156 1.964844 2.613281 3.261719 4.84375 3.023438 2.234374-.242188 3.914062-1.945312 3.917968-3.96875Zm-4.453125 3.195312C8.066406 13.597656 6.605469 12.503906 6.285156 11c-.027344-.105469-.105468-.195312-.207031-.25l-.632813-.324219-1.574218-.816406-.0625-.03125c-.199219-.070313-.320313-.257813-.28125-.449219.042968-.191406.226562-.328125.441406-.328125.050781 0 .101562.007813.148438.027344 0 0 .0625.027344.089843.039063l2.25 1.140624c.101563.050782.222657.0625.335938.03125.113281-.027343.210937-.097656.265625-.191406.035156-.058594.054687-.125.050781-.191406V3.609375c0-.222656.199219-.402344.445313-.402344.246093 0 .445312.179688.445312.402344v5.199219h.890625V7.609375c0-.222656.195313-.402344.441406-.402344.246094 0 .445313.179688.445313.402344v1.199219h.890625V7.609375c0-.222656.199219-.402344.441406-.402344.246094 0 .445313.179688.445313.402344v1.199219h.890624V7.609375c0-.222656.199219-.402344.445313-.402344.242187 0 .441406.179688.441406.402344v2.796875c-.003906 1.769531-1.597656 3.199219-3.5625 3.195312Zm0 0"/></svg>