<svg xmlns="http://www.w3.org/2000/svg" viewBox="2 2 12 13"><path fill="#414141" d="M14.22 10.4V7.6c0-.65-.6-1.2-1.33-1.2q-.51.01-.89.32a1.4 1.4 0 0 0-1.78 0 1.4 1.4 0 0 0-1.33-.24V3.37c-.16-.66-.87-1.07-1.6-.94-.62.12-1.07.6-1.07 1.18v5.37l-1.44-.74-.05-.03-.12-.06-.04-.02-.12-.05c-.7-.24-1.46.07-1.73.69-.26.6.05 1.27.7 1.52l2.04 1.06c.54 1.97 2.61 3.26 4.84 3.03 2.24-.25 3.92-1.95 3.92-3.97Zm-4.45 3.2c-1.7 0-3.16-1.1-3.48-2.6a.4.4 0 0 0-.21-.25l-.63-.32-1.58-.82-.06-.03c-.2-.07-.32-.26-.28-.45.04-.2.22-.33.44-.33q.08 0 .15.03l.09.04L6.46 10q.16.07.33.03t.27-.2a.3.3 0 0 0 .05-.18V3.6c0-.22.2-.4.44-.4.25 0 .45.18.45.4v5.2h.9V7.6c0-.22.19-.4.43-.4.25 0 .45.18.45.4v1.2h.89V7.6c0-.22.2-.4.44-.4.25 0 .44.18.44.4v1.2h.9V7.6c0-.22.2-.4.44-.4s.44.18.44.4v2.8c0 1.77-1.6 3.2-3.56 3.2m0 0"/></svg>