<svg xmlns="http://www.w3.org/2000/svg" viewBox="0 0 18 16"><path fill="#414141" d="M15.1875 10.285156h-.015625c.375-.492187.578125-1.09375.578125-1.714844 0-1.578124-1.257812-2.855468-2.8125-2.855468H11.5c.5625-.625.871094-1.441406.875-2.285156V0H9C7.164062.0625 5.6875 1.5625 5.625 3.429688c.003906.84375.3125 1.660156.875 2.285156H5.0625c-1.554688 0-2.8125 1.277344-2.8125 2.855468 0 .621094.203125 1.222657.578125 1.714844H2.8125c-1.554688 0-2.8125 1.28125-2.8125 2.859375S1.257812 16 2.8125 16h12.375C16.742188 16 18 14.722656 18 13.144531c0-1.578125-1.257812-2.859375-2.8125-2.859375M6.75 3.429688C6.8125 2.191406 7.785156 1.207031 9 1.144531h2.25v2.285157c0 1.261718-1.007812 2.285156-2.25 2.285156S6.75 4.691406 6.75 3.429688M3.375 8.570312c0-.945312.753906-1.714843 1.6875-1.714843h7.875c.933594 0 1.6875.769531 1.6875 1.714843 0 .949219-.753906 1.714844-1.6875 1.714844h-7.875c-.933594 0-1.6875-.765625-1.6875-1.714844m11.8125 6.285157H2.8125c-.933594 0-1.6875-.765625-1.6875-1.710938 0-.949219.753906-1.714843 1.6875-1.714843h12.375c.933594 0 1.6875.765624 1.6875 1.714843 0 .945313-.753906 1.710938-1.6875 1.710938"/></svg>