<svg xmlns="http://www.w3.org/2000/svg" viewBox="0 0 16 16"><path fill="none" stroke="#414141" stroke-miterlimit="10" stroke-width="3" d="M-7.5-6.5h29v29h-29z"/><path fill="#414141" d="M13.5 10.01855h-.013a2.471 2.471 0 0 0 .513-1.5 2.49989 2.49989 0 0 0-2.5-2.5h-1.278a2.98236 2.98236 0 0 0 .778-2v-3H8a3.10578 3.10578 0 0 0-3 3 2.98267 2.98267 0 0 0 .778 2H4.5a2.49993 2.49993 0 0 0-2.5 2.5 2.47138 2.47138 0 0 0 .513 1.5H2.5a2.5 2.5 0 0 0 0 5h11a2.5 2.5 0 0 0 0-5zm-5.5-8h2v2a2 2 0 1 1-4 0 2.10883 2.10883 0 0 1 2-2zm-3.5 5h7a1.5 1.5 0 1 1 0 3h-7a1.5 1.5 0 0 1 0-3zm9 7h-11a1.5 1.5 0 0 1 0-3h11a1.5 1.5 0 0 1 0 3z"/></svg>