<svg xmlns="http://www.w3.org/2000/svg" viewBox="0 0 18 16"><path fill="#414141" d="M15.19 10.29h-.02q.58-.77.58-1.72a2.83 2.83 0 0 0-2.81-2.86H11.5c.56-.62.87-1.44.88-2.28V0H9a3.5 3.5 0 0 0-3.38 3.43c0 .84.32 1.66.88 2.28H5.06a2.83 2.83 0 0 0-2.23 4.58H2.8c-1.54 0-2.8 1.28-2.8 2.85S1.26 16 2.81 16H15.2a2.83 2.83 0 0 0 2.8-2.86 2.84 2.84 0 0 0-2.81-2.85M6.75 3.43A2.4 2.4 0 0 1 9 1.14h2.25v2.29a2.25 2.25 0 1 1-4.5 0M3.37 8.57c0-.95.76-1.71 1.7-1.71h7.87c.93 0 1.69.76 1.69 1.71a1.7 1.7 0 0 1-1.7 1.72H5.07a1.7 1.7 0 0 1-1.68-1.72m11.8 6.29H2.82a1.7 1.7 0 0 1-1.69-1.72c0-.94.76-1.71 1.7-1.71H15.2c.93 0 1.69.77 1.69 1.71a1.7 1.7 0 0 1-1.7 1.72"/></svg>