<svg xmlns="http://www.w3.org/2000/svg" viewBox="4 4 8 8"><g fill="#414141"><path d="m8.5 4.554688 2 .964843V10.5h.5V5.203125L8.5 4 6 5.203125V7h.5V5.519531Zm0 0"/><path d="M4.5 8.5h5V12h-5ZM9 9H5v2.5h4Zm0 0"/><path d="M5 7c.550781 0 1 .449219 1 1s-.449219 1-1 1-1-.449219-1-1 .449219-1 1-1Zm0 1.5c.277344 0 .5-.222656.5-.5 0-.277344-.222656-.5-.5-.5-.277344 0-.5.222656-.5.5 0 .277344.222656.5.5.5Zm1.5 1V11H6V9.5Zm-.25 1.25ZM8 9.5V11h-.5V9.5Zm-.25 1.25ZM9.5 8h-2V6h2ZM8 7.5h1v-1H8ZM11.5 6h.5v4.5h-.5Zm0 0"/></g></svg>