<svg xmlns="http://www.w3.org/2000/svg" viewBox="0 0 16 16"><path fill="#414141" d="M8 5a3 3 0 1 0 3 3 3 3 0 0 0-3-3zm0 5a2 2 0 1 1 2-2 2 2 0 0 1-2 2zm0-8C4 2 0 8 0 8s3.582 6 8 6 8-6 8-6-4-6-8-6zm4.91 8.333C11.73 11.55 9.921 13 8 13s-3.751-1.465-4.937-2.694a18.07015 18.07015 0 0 1-1.852-2.279A21.6202 21.6202 0 0 1 3.23 5.684C4.992 3.928 6.642 3 8 3s3.022.936 4.793 2.707a21.85215 21.85215 0 0 1 2 2.319 17.98455 17.98455 0 0 1-1.883 2.307z"/><path fill="#414141" d="M.643735348 14.9982411166 14.6444496157.997526849l.7071067811.7071067812L1.3508421292 15.7053478978z"/></svg>