<svg xmlns="http://www.w3.org/2000/svg" viewBox="0 0 16 16"><g fill="#414141"><path d="M8 4.99945a3 3 0 103 3 3 3 0 00-3-3zm0 5a2 2 0 112-2 2 2 0 01-2 2z"/><path d="M8 1.99945c-4 0-8 6-8 6s3.582 6 8 6 8-6 8-6-4-6-8-6zm4.91 8.333c-1.18 1.217-2.989 2.667-4.91 2.667s-3.751-1.465-4.937-2.694a18.07015 18.07015 0 01-1.852-2.279 21.6202 21.6202 0 012.019-2.343c1.762-1.756 3.412-2.684 4.77-2.684s3.022.936 4.793 2.707a21.85215 21.85215 0 012 2.319 17.98455 17.98455 0 01-1.883 2.307z"/></g><path fill="#414141" d="M.6462479746 14.6471937432L14.6469622421.6464794757l.7071067812.7071067811L1.3533547558 15.3543005243z"/></svg>