<svg xmlns="http://www.w3.org/2000/svg" viewBox="0 0 16 16"><path fill="#414141" d="M5.1 4.41H3.03v7.14H4.2V8.88h.74q1.35 0 2.09-.6c.74-.6.73-.96.73-1.71q0-1.07-.67-1.61-.66-.55-2-.55zM6.13 7.6q-.42.3-1.32.3H4.2V5.4h.81q.8 0 1.17.3c.37.3.38.5.38.92q0 .66-.42.98zm6.82 1.91q0 1.03-.72 1.59c-.72.56-1.18.56-2.07.56q-1.2 0-2-.39v-1.02a4 4 0 0 0 1.94.47q.82 0 1.23-.3c.41-.3.41-.53.41-.96q0-.57-.45-.84c-.45-.27-.78-.27-1.43-.27h-.62v-.93h.63q1.71 0 1.71-1.18 0-.45-.3-.71c-.3-.26-.49-.25-.87-.25q-.4 0-.79.12c-.39.12-.54.22-.88.44l-.57-.8a3.7 3.7 0 0 1 2.28-.72q1.09 0 1.69.46c.6.46.6.74.6 1.28q0 .68-.4 1.13c-.4.45-.63.5-1.1.61v.04q.86.1 1.29.53c.43.43.42.67.42 1.14M8 0a8 8 0 1 0 0 16A8 8 0 0 0 8 0m0 15A7 7 0 1 1 8 1a7 7 0 0 1 0 14"/></svg>