<svg xmlns="http://www.w3.org/2000/svg" viewBox="0 0 16 16"><path fill="#414141" d="M4.93 4.41H2.88v7.14h1.17V8.88h.74c.9 0 1.6-.2 2.08-.6s.74-.96.74-1.71c0-.71-.23-1.25-.67-1.61-.44-.37-1.11-.55-2-.55zM5.98 7.6c-.28.2-.72.3-1.31.3h-.62V5.4h.8c.54 0 .93.1 1.18.3s.37.5.37.92c0 .44-.14.77-.42.98zm6.18 1.45V4.4h-1.12L7.78 9.11v.88h3.26v1.56h1.12V9.99h.96v-.95h-.96zm-1.12-1.8v1.8h-2.2l1.78-2.58c.2-.3.34-.56.43-.78h.04c-.03.4-.05.93-.05 1.57zM8 0a8 8 0 1 0 0 16A8 8 0 0 0 8 0zm0 15A7 7 0 1 1 8 1a7 7 0 0 1 0 14z"/></svg>