<svg xmlns="http://www.w3.org/2000/svg" viewBox="0 0 16 16"><path fill="#414141" d="M5.06 4.41H3.01v7.14h1.16V8.88h.75c.9 0 1.6-.2 2.08-.6s.73-.96.73-1.71c0-.71-.22-1.25-.66-1.61-.45-.37-1.12-.55-2-.55zM6.11 7.6c-.28.2-.72.3-1.32.3h-.62V5.4h.81c.53 0 .92.1 1.18.3s.37.5.37.92c0 .44-.14.77-.42.98zM13 10.54v1.01H8.16v-.87L10 8.83c.54-.56.9-.95 1.08-1.18.17-.24.3-.46.39-.66s.12-.43.12-.66a1 1 0 0 0-.3-.76c-.19-.19-.45-.28-.8-.28-.27 0-.53.05-.79.15-.25.1-.55.29-.89.55l-.62-.76a3.37 3.37 0 0 1 2.35-.92c.67 0 1.2.17 1.6.52s.6.81.6 1.4c0 .32-.05.63-.17.92-.11.29-.3.58-.53.9-.24.3-.64.72-1.2 1.24l-1.23 1.2v.05h3.38zM8 0a8 8 0 1 0 0 16A8 8 0 0 0 8 0zm0 15A7 7 0 1 1 8 1a7 7 0 0 1 0 14z"/></svg>