<svg xmlns="http://www.w3.org/2000/svg" viewBox="0 0 16 16"><path fill="#414141" d="M5.1 4.41H3.04v7.14h1.17V8.88h.74c.9 0 1.6-.2 2.09-.6s.73-.96.73-1.71c0-.71-.22-1.25-.67-1.61-.44-.37-1.1-.55-2-.55zM6.15 7.6c-.28.2-.72.3-1.32.3h-.62V5.4h.81c.53 0 .92.1 1.17.3s.38.5.38.92c0 .44-.14.77-.42.98zm6.8 1.63c0 .76-.23 1.36-.71 1.79a3 3 0 0 1-2.03.64c-.8 0-1.43-.13-1.88-.39v-1.04a4.2 4.2 0 0 0 1.86.47c.51 0 .9-.11 1.18-.35s.4-.57.4-1.01c0-.85-.54-1.28-1.63-1.28-.15 0-.34.01-.56.05l-.6.1-.5-.3.27-3.49h3.7v1.02h-2.7L9.6 7.2l.41-.07c.17-.02.37-.04.6-.04.73 0 1.3.2 1.72.57s.63.9.63 1.56zM8 0a8 8 0 1 0 0 16A8 8 0 0 0 8 0zm0 15A7 7 0 1 1 8 1a7 7 0 0 1 0 14z"/></svg>