<svg xmlns="http://www.w3.org/2000/svg" viewBox="0 0 16 16"><path fill="#414141" d="M5.1 4.41H3.04v7.14h1.17V8.88h.74q1.35 0 2.09-.6c.74-.6.73-.96.73-1.71q0-1.07-.67-1.61-.66-.55-2-.55M6.15 7.6q-.42.3-1.32.3h-.62V5.4h.81q.8 0 1.17.3c.37.3.38.5.38.92q0 .66-.42.98m6.8 1.63q0 1.14-.71 1.79a3 3 0 0 1-2.03.64q-1.2 0-1.88-.39v-1.04a4 4 0 0 0 1.86.47q.76 0 1.18-.35c.42-.35.4-.57.4-1.01q0-1.28-1.63-1.28-.23 0-.56.05l-.6.1-.5-.3.27-3.49h3.7v1.02h-2.7L9.6 7.2l.41-.07q.26-.03.6-.04 1.1 0 1.72.57c.62.57.63.9.63 1.56zM8 0a8 8 0 1 0 0 16A8 8 0 0 0 8 0m0 15A7 7 0 1 1 8 1a7 7 0 0 1 0 14"/></svg>