<svg xmlns="http://www.w3.org/2000/svg" viewBox="0 0 16 16"><path fill="#414141" d="M5.1 4.41H3.03v7.14H4.2V8.88h.74c.9 0 1.6-.2 2.09-.6s.73-.96.73-1.71c0-.71-.22-1.25-.67-1.61-.44-.37-1.1-.55-2-.55zM6.13 7.6c-.28.2-.72.3-1.32.3H4.2V5.4h.81c.53 0 .92.1 1.17.3s.38.5.38.92c0 .44-.14.77-.42.98zm6.82 1.91c0 .69-.24 1.22-.72 1.59s-1.18.56-2.07.56c-.8 0-1.46-.13-2-.39v-1.02a4.26 4.26 0 0 0 1.94.47c.55 0 .96-.1 1.23-.3s.41-.53.41-.96c0-.38-.15-.66-.45-.84s-.78-.27-1.43-.27h-.62v-.93h.63c1.14 0 1.71-.4 1.71-1.18 0-.3-.1-.54-.3-.71s-.49-.25-.87-.25c-.27 0-.53.04-.79.12s-.54.22-.88.44l-.57-.8a3.74 3.74 0 0 1 2.28-.72c.72 0 1.29.15 1.69.46s.6.74.6 1.28c0 .45-.13.83-.4 1.13s-.63.5-1.1.61v.04c.57.07 1 .25 1.29.53s.42.67.42 1.14zM8 0a8 8 0 1 0 0 16A8 8 0 0 0 8 0zm0 15A7 7 0 1 1 8 1a7 7 0 0 1 0 14z"/></svg>