<svg xmlns="http://www.w3.org/2000/svg" viewBox="0 0 16 16"><path fill="#414141" d="M5.06 4.41H3.01v7.14h1.16V8.88h.75q1.36 0 2.08-.6c.72-.6.73-.96.73-1.71q0-1.07-.66-1.61-.68-.55-2-.55zM6.11 7.6q-.42.3-1.32.3h-.62V5.4h.81q.8 0 1.18.3c.38.3.37.5.37.92q0 .66-.42.98M13 10.54v1.01H8.16v-.87L10 8.83q.81-.84 1.08-1.18.26-.36.39-.66c.13-.3.12-.43.12-.66a1 1 0 0 0-.3-.76q-.28-.28-.8-.28-.4 0-.79.15-.38.16-.89.55l-.62-.76a3.4 3.4 0 0 1 2.35-.92q1 0 1.6.52c.6.52.6.81.6 1.4q0 .48-.17.92-.18.43-.53.9-.36.46-1.2 1.24l-1.23 1.2v.05h3.38zM8 0a8 8 0 1 0 0 16A8 8 0 0 0 8 0m0 15A7 7 0 1 1 8 1a7 7 0 0 1 0 14"/></svg>