<svg xmlns="http://www.w3.org/2000/svg" viewBox="0 0 12 16"><path fill="#414141" fill-rule="evenodd" d="M0 8v8h12V5.01L9.495 2.505 6.99 0H0v8m6-4.5V6h5v9H1V1h5v2.5m2.81-.3 1.8 1.8H7V3.2c0-.99.002-1.8.005-1.8s.815.81 1.805 1.8M5.707 7.728c-.32.061-.581.193-.81.408-.244.23-.373.439-.47.758-.068.225-.077.593-.019.816.051.202.211.519.339.673l.111.134-.139.082c-.205.122-.425.307-.59.496-.433.495-.622.987-.659 1.71l-.013.255h.897l.012-.285c.013-.323.055-.519.155-.718.317-.633.981-1.001 1.658-.918.419.051.735.21 1.023.516.308.325.438.679.438 1.188v.217h.9v-.125c-.002-.719-.178-1.26-.569-1.748-.208-.26-.454-.467-.782-.659-.034-.019-.03-.029.052-.124.267-.31.388-.646.386-1.074-.001-.221-.009-.286-.055-.436-.095-.318-.225-.528-.467-.755-.187-.176-.442-.319-.678-.38-.203-.053-.531-.067-.72-.031m.594.935c.142.065.299.222.372.371.051.103.057.138.057.306 0 .168-.006.203-.057.306-.073.148-.219.294-.367.367-.103.051-.138.057-.306.057-.168 0-.203-.006-.306-.057-.148-.073-.294-.219-.367-.367-.051-.103-.057-.138-.057-.306 0-.163.007-.206.052-.301.056-.12.22-.298.324-.352.197-.103.462-.112.655-.024"/></svg>