<svg xmlns="http://www.w3.org/2000/svg" viewBox="0 0 12 16"><g fill="#414141"><path stroke="#414141" stroke-width=".6" d="M6.476562 10.589844c.519532-.195313.863282-.695313.863282-1.25 0-.355469-.140625-.699219-.390625-.949219C6.695312 8.140625 6.355469 8 6 8c-.355469 0-.695313.140625-.949219.390625-.25.25-.390625.59375-.390625.949219.007813.554687.347656 1.046875.863281 1.25-1.011718.238281-1.730468 1.132812-1.753906 2.171875h.296875c0-.515625.203125-1.007813.566406-1.371094.363282-.359375.855469-.566406 1.371094-.5625.511719-.003906 1.003906.203125 1.367188.5625.363281.363281.566406.855469.566406 1.371094h.296875C8.230469 11.714844 7.5 10.808594 6.476562 10.589844Zm-1.519531-1.25C4.964844 8.765625 5.425781 8.304688 6 8.296875c.574219.007813 1.035156.46875 1.042969 1.042969C7.035156 9.910156 6.574219 10.375 6 10.382812c-.574219-.007812-1.035156-.472656-1.042969-1.042968Zm0 0"/><path d="M7 0H0v16h12V5Zm3.601562 5H7V1.398438ZM11 15H1V1h5v5h5Zm0 0"/></g></svg>