<svg xmlns="http://www.w3.org/2000/svg" viewBox="0 0 12 16"><path fill="#414141" fill-rule="evenodd" d="M0 8v8h12V5.01l-2.5-2.5L6.98 0H0zm6-4.5V6h5v9H1V1h5zm2.81-.3 1.8 1.8H7V1.4zm-3.1 4.53q-.47.1-.81.4c-.25.24-.38.44-.47.76-.07.23-.08.6-.02.82.05.2.2.52.34.67l.1.14-.13.08a2.6 2.6 0 0 0-1.25 2.2l-.01.26h.9v-.28a1.62 1.62 0 0 1 1.82-1.64c.42.05.73.2 1.02.52.31.32.44.67.44 1.18v.22h.9v-.12a2.6 2.6 0 0 0-1.35-2.41c-.04-.02-.03-.03.05-.13q.4-.44.39-1.07a1.6 1.6 0 0 0-.53-1.19 2 2 0 0 0-.67-.38c-.2-.05-.53-.07-.72-.03m.6.93c.13.07.29.23.36.37.05.1.06.14.06.31s0 .2-.06.3a1 1 0 0 1-.36.37c-.1.05-.14.06-.31.06s-.2 0-.3-.06a1 1 0 0 1-.37-.36c-.05-.1-.06-.14-.06-.31s0-.2.05-.3c.06-.12.22-.3.33-.35.2-.1.46-.11.65-.03"/></svg>