<svg xmlns="http://www.w3.org/2000/svg" viewBox="0 0 16 16"><path fill="#414141" d="M15.5 6.23859a1.749 1.749 0 0 0-1.747-1.751h-.002a1.79951 1.79951 0 0 0-.362.038A6.991 6.991 0 0 0 8.5 2.0156V.9876h-1v1.023a6.97 6.97 0 0 0-4.02 1.641 1.74494 1.74494 0 0 0-1.994 2.791 7 7 0 1 0 13.372 1.139 1.737 1.737 0 0 0 .642-1.34301zm-7 2.749v-2.949a3 3 0 0 1-.5 5.949 3.04007 3.04007 0 0 1-.637-.071 1.75 1.75 0 0 0-2.292-2.292A3.03955 3.03955 0 0 1 5 8.98758a3 3 0 0 1 2.5-2.949v2.949zm-2 2.25a.72409.72409 0 0 1-.064.3.749.749 0 1 1-.984-.985.74.74 0 0 1 .3-.063.751.751 0 0 1 .748.74798zm-4.5-6a.741.741 0 0 1 .622-.725.68592.68592 0 0 1 .129-.026.744.744 0 0 1 .069 1.486c-.024 0-.045.014-.069.014a.741.741 0 0 1-.726-.628.70079.70079 0 0 1-.025-.12zm6 9.75a5.982 5.982 0 0 1-5.633-8.045 1.74157 1.74157 0 0 0 1.868-2.62 5.961 5.961 0 0 1 3.265-1.291v2.007A3.992 3.992 0 0 0 4 8.98758a3.94383 3.94383 0 0 0 .253 1.357 1.74 1.74 0 0 0 2.39 2.39 3.94412 3.94412 0 0 0 1.357.253 3.99 3.99 0 0 0 .5-7.949v-2.023a5.982 5.982 0 0 1 3.993 2.009 1.747 1.747 0 0 0 1.258 2.963c.053 0 .1-.011.156-.016A5.966 5.966 0 0 1 8 14.98756zm6.478-8.642a.741.741 0 0 1-.727.642.65712.65712 0 0 1-.109-.022.742.742 0 0 1-.642-.727.7241.7241 0 0 1 .114-.373.74.74 0 0 1 .637-.378.71888.71888 0 0 1 .37.113.741.741 0 0 1 .379.638.65581.65581 0 0 1-.022.10699z"/></svg>