<svg xmlns="http://www.w3.org/2000/svg" viewBox="0 0 16 16"><path fill="#414141" d="M15.5 6.24a1.75 1.75 0 0 0-1.75-1.75 1.8 1.8 0 0 0-.36.04A7 7 0 0 0 8.5 2.02V.99h-1V2a6.97 6.97 0 0 0-4.02 1.64 1.74 1.74 0 0 0-2 2.8 7 7 0 1 0 13.38 1.13 1.74 1.74 0 0 0 .64-1.34zm-7 2.75V6.04a3 3 0 0 1-.5 5.95 3.04 3.04 0 0 1-.64-.07 1.75 1.75 0 0 0-2.29-2.3A3.04 3.04 0 0 1 5 9a3 3 0 0 1 2.5-2.95V9zm-2 2.25a.72.72 0 0 1-.06.3.75.75 0 1 1-.99-.99.74.74 0 0 1 .3-.06.75.75 0 0 1 .75.75zm-4.5-6a.74.74 0 0 1 .62-.73.69.69 0 0 1 .13-.02.74.74 0 0 1 .07 1.48L2.75 6a.74.74 0 0 1-.73-.63.7.7 0 0 1-.02-.12zm6 9.75a5.98 5.98 0 0 1-5.63-8.05 1.74 1.74 0 0 0 1.86-2.62A5.96 5.96 0 0 1 7.5 3.03v2A4 4 0 0 0 4 9a3.94 3.94 0 0 0 .25 1.35 1.74 1.74 0 0 0 2.4 2.4A3.94 3.94 0 0 0 8 13a3.99 3.99 0 0 0 .5-7.95V3.02a5.98 5.98 0 0 1 4 2A1.75 1.75 0 0 0 13.74 8l.16-.02A5.97 5.97 0 0 1 8 15zm6.48-8.64a.74.74 0 0 1-.73.64.66.66 0 0 1-.1-.02.74.74 0 0 1-.65-.73.72.72 0 0 1 .11-.37.74.74 0 0 1 .64-.38.72.72 0 0 1 .37.11.74.74 0 0 1 .38.64.66.66 0 0 1-.02.1z"/></svg>