<svg xmlns="http://www.w3.org/2000/svg" viewBox="0 0 16 16"><path fill="#414141" d="m5.87 15.76.97.24 1.67-6.75L7.54 9l-1.67 6.75z"/><path fill="#414141" d="M13.98 5.33A3 3 0 0 0 10.3 2.1 4.54 4.54 0 0 0 4.08.68 4.42 4.42 0 0 0 2.01 4.5v.03A4.01 4.01 0 0 0 .24 9.38a4.07 4.07 0 0 0 3.55 2.6l-.49 1.96.98.25 1.21-4.95L4.52 9l-.5 2h-.01a3 3 0 0 1-2.96-2.48A3.1 3.1 0 0 1 2.6 5.35l.4-.23V4.5a3.5 3.5 0 0 1 2.81-3.44 3.6 3.6 0 0 1 3.7 1.67l.32.5.69-.17a1.98 1.98 0 0 1 .69-.05 2 2 0 0 1 1.77 2.21l-.08.71.65.3a2.5 2.5 0 0 1 1.29 3.15A2.58 2.58 0 0 1 12.39 11h-1.27l.44-1.77-.98-.24-1.21 4.94.97.24.54-2.17h1.52a3.56 3.56 0 0 0 2.74-1.2 3.5 3.5 0 0 0-1.16-5.48z"/></svg>