<svg xmlns="http://www.w3.org/2000/svg" viewBox="0 0 16 16"><path fill="#414141" d="m5.869 15.755.973.245 1.667-6.755L7.537 9l-1.668 6.755z"/><path fill="#414141" d="M13.984 5.334A3 3 0 0 0 10.3 2.09 4.536 4.536 0 0 0 4.084.679a4.418 4.418 0 0 0-2.078 3.828v.035a4.01 4.01 0 0 0-1.762 4.84 4.07 4.07 0 0 0 3.543 2.6l-.482 1.96.972.245 1.217-4.942L4.522 9l-.5 2.007h-.017a3.007 3.007 0 0 1-2.959-2.483 3.092 3.092 0 0 1 1.566-3.178l.394-.227v-.612a3.507 3.507 0 0 1 2.818-3.434 3.6 3.6 0 0 1 3.7 1.669l.314.489.692-.165a1.979 1.979 0 0 1 .69-.044 2 2 0 0 1 1.771 2.208l-.077.711.647.3a2.507 2.507 0 0 1 1.288 3.145 2.58 2.58 0 0 1-2.459 1.621h-1.268l.434-1.762L10.584 9l-1.217 4.939.972.245.537-2.177H12.4a3.558 3.558 0 0 0 2.739-1.19 3.508 3.508 0 0 0-1.155-5.483z"/></svg>