<svg xmlns="http://www.w3.org/2000/svg" viewBox="0 0 16 16"><path fill="#414141" d="m8 15-2 1-2-1-2 1V1H0V0h16v1h-2v15l-2-1-2 1Zm2-.117188 2-1 1 .5V1H3v13.382812l1-.5 2 1 2-1Zm0 0"/><path fill="#414141" d="M7.464844 11.984375v-.59375c-.480469-.117187-.941406-.289063-1.378906-.507813L6.5 9.976562c.507812.277344 1.0625.441407 1.640625.480469.171875.003907.34375-.035156.5-.117187.335937-.214844.476563-.636719.335937-1.011719-.160156-.316406-.421874-.570313-.75-.71875-.148437-.078125-.296874-.148437-.46875-.226563-.554687-.207031-1.046874-.554687-1.429687-1.007812-.40625-.554688-.460937-1.296875-.148437-1.90625.28125-.476562.757812-.804688 1.304687-.898438V4h1v.574219C9 4.695312 9.5 4.890625 9.964844 5.144531l-.441406.902344c-.445313-.257813-.9375-.433594-1.445313-.515625-.390625-.054688-.78125.109375-1.015625.429688-.128906.273437-.097656.59375.082031.835937.285157.304687.640625.539063 1.035157.679687.175781.082032.351562.164063.527343.257813.53125.257813.957031.6875 1.199219 1.222656.328125.847657 0 1.800781-.78125 2.261719-.203125.109375-.425781.1875-.65625.21875v.550781Zm0 0"/></svg>