<svg xmlns="http://www.w3.org/2000/svg" viewBox="0 0 16 16"><path fill="#414141" d="m8 15-2 1-2-1-2 1V1H0V0h16v1h-2v15l-2-1-2 1Zm2-.12 2-1 1 .5V1H3v13.38l1-.5 2 1 2-1Zm-2.54-2.9v-.59a7 7 0 0 1-1.37-.5l.41-.91q.76.41 1.64.48.26 0 .5-.12c.34-.22.48-.64.34-1.01a1.6 1.6 0 0 0-.75-.72l-.47-.23a3.5 3.5 0 0 1-1.43-1c-.4-.56-.46-1.3-.15-1.91.28-.48.76-.8 1.3-.9V4h1v.57a6 6 0 0 1 1.48.57l-.44.9a4 4 0 0 0-1.44-.5c-.4-.06-.78.1-1.02.42-.13.27-.1.6.08.84q.45.46 1.04.68l.53.25c.53.26.95.7 1.2 1.23.32.84 0 1.8-.79 2.26q-.3.16-.65.22v.55Zm0 0"/></svg>