<svg xmlns="http://www.w3.org/2000/svg" viewBox="0 0 16 16"><path fill="#414141" d="M16 6.8 11.206 2H9v9.5h-.5V2H0v10h.006a2 2 0 1 0 2-2A1.964 1.964 0 0 0 1 10.278V3h6.5v7.676a2 2 0 1 0 .435 1.824h2.142a1.99 1.99 0 0 0 3.856.006H16zM2.006 11a1 1 0 1 1-1 1 1 1 0 0 1 1-1zm4 2a1 1 0 1 1 1-1 1 1 0 0 1-1 1zm6 0a1 1 0 1 1 1-1 1 1 0 0 1-1 1zM15 11.5h-1.063a1.99 1.99 0 0 0-3.86-.006H10V3h.793L15 7.21zM2.356 9.351l2-2-.707-.707-.6.6A.97.97 0 0 1 3 7a1 1 0 0 1 1-1h1v1a1 1 0 0 1-1 1v1a2 2 0 0 0 2-2V5H4a2 2 0 0 0-2 2 1.966 1.966 0 0 0 .283 1.01l-.637.637z"/></svg>