<svg xmlns="http://www.w3.org/2000/svg" viewBox="0 0 16 16"><path fill="#414141" d="M16 6.8L11.206 2H9v9.5h-.5V2H0v10h.006a2 2 0 102-2A1.964 1.964 0 001 10.278V3h6.5v7.676a2 2 0 10.435 1.824h2.142a1.99 1.99 0 003.856.006H16zM2.006 11a1 1 0 11-1 1 1 1 0 011-1zm4 2a1 1 0 111-1 1 1 0 01-1 1zm6 0a1 1 0 111-1 1 1 0 01-1 1zM15 11.5h-1.063a1.99 1.99 0 00-3.86-.006H10V3h.793L15 7.21zM2.356 9.351l2-2-.707-.707-.6.6A.97.97 0 013 7a1 1 0 011-1h1v1a1 1 0 01-1 1v1a2 2 0 002-2V5H4a2 2 0 00-2 2 1.966 1.966 0 00.283 1.01l-.637.637z"/></svg>