<svg xmlns="http://www.w3.org/2000/svg" viewBox="0 0 16 16"><path fill="#414141" d="M12 0v1h3v3h1V0Zm3 12v3h-3v1h4v-4ZM0 0v4h1V1h3V0Zm0 12v4h4v-1H1v-3Zm9.019531-4.992188h3.945313v-4h-1V4.96875c-1.359375-1.777344-3.734375-2.429688-5.8125-1.605469-2.078125.828125-3.355469 2.933594-3.125 5.160157.226562 2.222656 1.90625 4.027343 4.109375 4.414062 2.203125.382812 4.394531-.738281 5.367187-2.753906l-.902344-.4375c-.792968 1.664062-2.621093 2.570312-4.425781 2.199218-1.804687-.375-3.125-1.929687-3.195312-3.769531-.074219-1.84375 1.117187-3.496093 2.886719-4.011719 1.769531-.511718 3.664062.246094 4.585937 1.84375H9.019531Zm0 0"/></svg>