<svg xmlns="http://www.w3.org/2000/svg" viewBox="0 0 12 12"><path fill="#414141" fill-rule="evenodd" d="M5.501.023A6.013 6.013 0 0 0 .61 3.37 6.221 6.221 0 0 0 .037 5.3a9.346 9.346 0 0 0 0 1.4c.099.718.282 1.333.573 1.93a6.01 6.01 0 0 0 4.248 3.258c.461.089.608.102 1.162.1.434-.001.579-.008.8-.043 1.081-.167 2.024-.562 2.83-1.185 1.257-.97 2.043-2.319 2.295-3.94.062-.392.062-1.248 0-1.64-.168-1.081-.564-2.026-1.185-2.83A6.018 6.018 0 0 0 5.501.023m.58 2.293c.673.141 1.09.435 1.22.863.032.106.044.219.055.543l.014.408.67.01c.648.01.674.012.79.058.336.134.604.411.716.739.081.239.074.327-.134 1.657-.144.927-.203 1.253-.239 1.344-.115.28-.327.508-.598.641-.343.168-.491.181-2.065.181-1.086 0-1.574-.015-1.723-.053-.046-.011-.047-.009-.047.131v.142H2.26v-4.6h2.48v.07c0 .039.009.07.02.07.029 0 .148-.192.193-.31.034-.091.037-.179.043-1.009.004-.684.012-.914.03-.926.013-.01.213-.013.444-.008.311.007.469.02.611.049M5.88 3.515c0 .435-.027.74-.082.917-.15.485-.458.84-.953 1.098l-.105.054v1.097c0 1.03.002 1.099.035 1.117.02.01.105.033.19.05.132.028.355.032 1.583.032 1.405 0 1.433-.001 1.543-.042.136-.051.239-.137.267-.224.012-.035.102-.581.201-1.212.194-1.244.192-1.214.085-1.309-.098-.088-.144-.091-1.166-.092L6.506 5l-.018-.82-.018-.819-.064-.064c-.055-.055-.09-.069-.26-.1a3.29 3.29 0 0 0-.231-.036c-.032-.001-.035.029-.035.354M3.12 6.69v1.43h.76V5.26h-.76v1.43"/></svg>