<svg xmlns="http://www.w3.org/2000/svg" viewBox="0 0 12 12"><path fill="#414141" fill-rule="evenodd" d="M5.5.02A6.01 6.01 0 0 0 .61 3.37 6.22 6.22 0 0 0 .04 5.3a9.35 9.35 0 0 0 0 1.4c.1.72.28 1.33.57 1.93a6.01 6.01 0 0 0 4.25 3.26c.46.09.6.1 1.16.1a6.05 6.05 0 0 0 5.92-5.17 6.07 6.07 0 0 0-1.19-4.47A6.02 6.02 0 0 0 5.51.02m.58 2.3c.67.14 1.1.43 1.22.86.03.1.05.22.06.54l.01.41.67.01c.65.01.67.01.79.06.34.13.6.4.72.74.08.24.07.32-.14 1.65-.14.93-.2 1.26-.24 1.35-.11.28-.32.5-.6.64-.34.17-.49.18-2.06.18a12.4 12.4 0 0 1-1.72-.05c-.05-.01-.05-.01-.05.13v.14H2.26v-4.6h2.48v.07c0 .04 0 .07.02.07.03 0 .15-.2.2-.31.03-.1.03-.18.04-1 0-.7 0-.92.03-.93a3 3 0 0 1 .44-.01c.31 0 .47.02.61.05m-.2 1.2c0 .43-.03.74-.08.91a1.8 1.8 0 0 1-.95 1.1l-.11.05v1.1c0 1.03 0 1.1.03 1.12l.2.05c.13.03.35.03 1.58.03 1.4 0 1.43 0 1.54-.04.14-.05.24-.14.27-.23l.2-1.2c.2-1.25.2-1.22.08-1.32C8.54 5.01 8.5 5 7.48 5H6.5l-.02-.82-.02-.82-.06-.06c-.06-.06-.1-.07-.26-.1a3.29 3.29 0 0 0-.23-.04c-.04 0-.04.03-.04.35M3.12 6.7v1.43h.76V5.26h-.76v1.43"/></svg>