<svg xmlns="http://www.w3.org/2000/svg" viewBox="4 4 24 24"><circle cx="12" cy="12" r="12" fill="#414141" transform="translate(4 4)"/><path fill="#f0f0f0" d="M13.976 12.509a3.941 3.941 0 0 1 .936-.391v-2.06a5.963 5.963 0 0 0-2.392.995Zm7.986 3.45a6 6 0 0 0-5.05-5.917v2.043a3.966 3.966 0 0 1 2.05 6.492v-1.618h-2v5h5v-2h-1.54a5.969 5.969 0 0 0 1.54-4Zm-11.894-1.1h2.067a3.98 3.98 0 0 1 .412-.95l-1.448-1.45a5.955 5.955 0 0 0-1.031 2.4Zm-.031 2a5.958 5.958 0 0 0 .976 2.485l1.463-1.463a3.924 3.924 0 0 1-.4-1.022Z"/></svg>