<svg xmlns="http://www.w3.org/2000/svg" viewBox="0 0 16 16"><path fill="#414141" d="M13 2v-.5H9.929a1.99 1.99 0 0 0-3.858 0H3V2S0 6.344 0 8a3 3 0 0 0 6 0c0-1.314-1.885-4.314-2.665-5.5h2.736A2 2 0 0 0 7.5 3.93V15H5v1h6v-1H8.5V3.93A2 2 0 0 0 9.929 2.5h2.736C11.885 3.686 10 6.686 10 8a3 3 0 0 0 6 0c0-1.656-3-6-3-6zM3 10a2 2 0 0 1-1.929-1.5h3.858A2 2 0 0 1 3 10zm.636-5.108A13.6 13.6 0 0 1 4.9 7.5H1.1a13.556 13.556 0 0 1 1.26-2.62c.218-.374.44-.732.64-1.05.2.321.417.683.636 1.062zM8 3a1 1 0 1 1 1-1 1 1 0 0 1-1 1zm4.36 1.88c.223-.375.44-.733.64-1.051.2.321.422.683.641 1.062A13.518 13.518 0 0 1 14.9 7.5h-3.8a13.556 13.556 0 0 1 1.26-2.619zM13 10a2 2 0 0 1-1.929-1.5h3.858A2 2 0 0 1 13 10z"/></svg>