<svg xmlns="http://www.w3.org/2000/svg" viewBox="0 0 16 16"><path fill="#414141" d="M13 2v-.5H9.93a1.99 1.99 0 0 0-3.86 0H3V2S0 6.34 0 8a3 3 0 0 0 6 0c0-1.31-1.89-4.31-2.67-5.5h2.74A2 2 0 0 0 7.5 3.93V15H5v1h6v-1H8.5V3.93A2 2 0 0 0 9.93 2.5h2.74C11.88 3.69 10 6.69 10 8a3 3 0 0 0 6 0c0-1.66-3-6-3-6zM3 10a2 2 0 0 1-1.93-1.5h3.86A2 2 0 0 1 3 10zm.64-5.1A13.6 13.6 0 0 1 4.9 7.5H1.1a13.56 13.56 0 0 1 1.26-2.62L3 3.83l.64 1.06zM8 3a1 1 0 1 1 1-1 1 1 0 0 1-1 1zm4.36 1.88L13 3.83l.64 1.06A13.52 13.52 0 0 1 14.9 7.5h-3.8a13.56 13.56 0 0 1 1.26-2.62zM13 10a2 2 0 0 1-1.93-1.5h3.86A2 2 0 0 1 13 10z"/></svg>