<svg xmlns="http://www.w3.org/2000/svg" viewBox="0 0 16 16"><path fill="#414141" d="M13 2v-.5H9.93a1.99 1.99 0 0 0-3.86 0H3V2S0 6.34 0 8a3 3 0 0 0 6 0c0-1.31-1.89-4.31-2.67-5.5h2.74A2 2 0 0 0 7.5 3.93V15H5v1h6v-1H8.5V3.93A2 2 0 0 0 9.93 2.5h2.74C11.88 3.69 10 6.69 10 8a3 3 0 0 0 6 0c0-1.66-3-6-3-6M3 10a2 2 0 0 1-1.93-1.5h3.86A2 2 0 0 1 3 10m.64-5.1A14 14 0 0 1 4.9 7.5H1.1a14 14 0 0 1 1.26-2.62L3 3.83zM8 3a1 1 0 1 1 1-1 1 1 0 0 1-1 1m4.36 1.88L13 3.83l.64 1.06A14 14 0 0 1 14.9 7.5h-3.8a14 14 0 0 1 1.26-2.62M13 10a2 2 0 0 1-1.93-1.5h3.86A2 2 0 0 1 13 10"/></svg>