<svg xmlns="http://www.w3.org/2000/svg" viewBox="0 0 14 16"><path fill="#414141" d="m10.984375 12.984375 2.996094-8.835937V.992188c0-.546876-.445313-.98828175-.988281-.992188h-2.015626c-.546874.00390625-.992187.445312-.992187.992188v3.003906l-.332031 1h-6.15625c-.828125 0-1.5.667968-1.5 1.496094 0 .828124.671875 1.496093 1.5 1.496093H8.65625l-.335938 1H.988281C.441406 8.988281 0 9.429688 0 9.976562v2.015626c0 .546874.441406.992187.988281.992187h2.007813v2.996094h5.992187v-2.996094Zm-2.996094 1.996094H3.996094v-1.996094h3.992187ZM3.496094 6.992188c-.277344 0-.5-.222657-.5-.5 0-.277344.222656-.5.5-.5L9.316406 6l-.328125.992188Zm-2.496094 5L.988281 9.988281h8l1.996094-5.992187L10.976562 1l2.003907-.007812v3.003906l-2.664063 7.988281Zm0 0"/></svg>