<svg xmlns="http://www.w3.org/2000/svg" viewBox="0 0 16 16"><g fill="#414141"><path d="M15.335938 8c0 4.042969-3.277344 7.320312-7.324219 7.320312C3.96875 15.320312.691406 12.042969.691406 8S3.96875.679688 8.011719.679688C12.054688.683594 15.328125 3.957031 15.335938 8Zm0 0"/><path d="M14.667969 8c0-3.675781-2.980469-6.65625-6.65625-6.65625S1.359375 4.324219 1.359375 8s2.976563 6.65625 6.652344 6.65625C11.6875 14.652344 14.664062 11.675781 14.667969 8M16 8c0 4.410156-3.574219 7.988281-7.988281 7.988281C3.601562 15.988281.0273438 12.410156.0273438 8S3.601562.0117188 8.011719.0117188C12.417969.0273438 15.988281 3.59375 16 8Zm0 0"/></g></svg>