<svg xmlns="http://www.w3.org/2000/svg" viewBox="8 8 16 16"><path fill="#414141" fill-rule="evenodd" d="M16 18a2 2 0 1 0 0-4 2 2 0 0 0 0 4m3-2a3 3 0 1 1-6 0 3 3 0 0 1 6 0"/><path fill="#414141" fill-rule="evenodd" d="M17.37 9.62 17.22 8h-2.44l-.15 1.62q-1.17.23-2.2.88L11.2 9.48 9.48 11.2l1 1.2a6 6 0 0 0-.94 2.24L8 14.78v2.44l1.54.14q.25 1.19.94 2.23l-1 1.2 1.72 1.73 1.23-1.02q1.03.65 2.2.88l.15 1.62h2.44l.15-1.62a6 6 0 0 0 2.2-.88l1.23 1.02 1.72-1.72-1-1.2q.69-1.05.94-2.24l1.54-.14v-2.44l-1.54-.14a6 6 0 0 0-.94-2.23l1-1.2-1.72-1.73-1.23 1.02a6 6 0 0 0-2.2-.88m3.36 1.21-1.08.9-.61-.39a5 5 0 0 0-1.87-.74l-.73-.14L16.3 9h-.6l-.14 1.46-.73.14q-1 .2-1.87.74l-.6.4-1.1-.9-.42.43.89 1.07-.42.62a5 5 0 0 0-.79 1.89l-.15.72L9 15.7v.6l1.37.13.15.72q.2 1 .8 1.89l.41.62-.9 1.07.44.44 1.08-.9.61.39q.88.54 1.87.74l.73.14.14 1.46h.6l.14-1.46.73-.14a5 5 0 0 0 1.87-.74l.6-.4 1.1.9.42-.43-.89-1.07.42-.62a6 6 0 0 0 .79-1.89l.15-.72L23 16.3v-.6l-1.37-.13-.15-.72q-.2-1-.8-1.89l-.41-.62.9-1.07z"/></svg>