<svg xmlns="http://www.w3.org/2000/svg" viewBox="0 0 16 16"><path fill="#414141" d="M16 8.5v-1h-2a6.06 6.06 0 0 0-1.4-3.4L14 2.7l-.7-.7-1.4 1.4A5.78 5.78 0 0 0 8.5 2V0h-1v2a6.06 6.06 0 0 0-3.4 1.4L2.6 1.9l-.7.7 1.5 1.5A5.78 5.78 0 0 0 2 7.5H0v1h2a6.06 6.06 0 0 0 1.4 3.4L2 13.3l.7.7 1.4-1.4A5.78 5.78 0 0 0 7.5 14v2h1v-2a6.06 6.06 0 0 0 3.4-1.4l1.4 1.4.7-.7-1.4-1.4A5.78 5.78 0 0 0 14 8.5zM8 3a5.13 5.13 0 0 1 3.4 1.3l.3.3A5.13 5.13 0 0 1 13 8a4.69 4.69 0 0 1-1.3 3.3l-.4.4a4.96 4.96 0 0 1-6.8-.1l-.2-.2a5.27 5.27 0 0 1-1.4-3.5A5.08 5.08 0 0 1 8 3z"/></svg>