<svg xmlns="http://www.w3.org/2000/svg" viewBox="0 0 16 16"><path fill="#414141" d="M8.24 8.77a2 2 0 0 1 .17.84c0 .64-.23 1.13-.69 1.5s-1.09.54-1.9.54-1.46-.13-1.98-.38v-1.1a5.41 5.41 0 0 0 2.06.5c.46 0 .8-.1 1.02-.27a.86.86 0 0 0 .33-.71c0-.27-.1-.5-.3-.68s-.62-.4-1.25-.66c-.65-.26-1.1-.56-1.38-.9s-.4-.75-.4-1.22c0-.6.22-1.07.64-1.4s.99-.52 1.7-.52a5 5 0 0 1 2.04.45l-.37.95c-.63-.27-1.2-.4-1.7-.4-.37 0-.66.08-.86.25s-.29.38-.29.65c0 .18.04.34.12.47s.2.26.38.38.5.27.97.46c.53.22.9.42 1.15.61s.43.4.54.64zm.86-2.7.58.72a68.89 68.89 0 0 0 1.37-1.16c-.03.32-.04.76-.04 1.31v4.61h1.15V4.41h-.96L9.1 6.06zM16 8A8 8 0 1 1 0 8a8 8 0 0 1 16 0zm-1 0A7 7 0 1 0 1 8a7 7 0 0 0 14 0z"/></svg>