<svg xmlns="http://www.w3.org/2000/svg" viewBox="0 0 16 16"><path fill="#414141" d="M7.6 8.8c.11.23.17.51.17.83 0 .64-.23 1.14-.7 1.5s-1.08.54-1.89.54-1.47-.13-1.98-.38v-1.1a5.41 5.41 0 0 0 2.06.5c.46 0 .8-.1 1.02-.27a.86.86 0 0 0 .33-.7c0-.28-.1-.5-.3-.69s-.62-.4-1.25-.66c-.65-.26-1.11-.56-1.38-.9s-.4-.75-.4-1.22c0-.6.21-1.06.64-1.4s.99-.52 1.7-.52a5 5 0 0 1 2.04.45l-.37.95c-.64-.27-1.2-.4-1.7-.4-.38 0-.66.08-.86.25s-.3.38-.3.65c0 .19.05.34.12.48s.21.25.39.37.5.27.97.46c.52.22.9.42 1.15.61s.42.4.54.64zm3.6-.95v-.04c.49-.1.86-.3 1.12-.6s.4-.68.4-1.14c0-.54-.2-.97-.6-1.28s-.97-.46-1.7-.46c-.86 0-1.62.24-2.27.72l.56.8a2.89 2.89 0 0 1 1.67-.56c.39 0 .68.09.88.25s.3.4.3.71c0 .79-.57 1.18-1.71 1.18h-.63v.93h.62c.64 0 1.12.1 1.42.27s.46.46.46.84c0 .43-.14.75-.41.95s-.7.31-1.24.31a4.17 4.17 0 0 1-1.94-.47v1.02c.54.26 1.2.39 2 .39.9 0 1.58-.19 2.07-.56s.73-.9.73-1.59c0-.47-.15-.85-.43-1.13s-.72-.47-1.3-.54zM16 8A8 8 0 1 1 0 8a8 8 0 0 1 16 0zm-1 0A7 7 0 1 0 1 8a7 7 0 0 0 14 0z"/></svg>