<svg xmlns="http://www.w3.org/2000/svg" viewBox="0 0 16 16"><path fill="#414141" d="M7.5 8.8c.11.23.17.51.17.83 0 .64-.23 1.14-.69 1.5s-1.09.54-1.9.54-1.46-.13-1.98-.38v-1.1a5.41 5.41 0 0 0 2.06.5c.46 0 .8-.1 1.02-.27a.86.86 0 0 0 .33-.7c0-.28-.1-.5-.3-.69s-.62-.4-1.25-.66c-.65-.26-1.1-.56-1.38-.9s-.4-.75-.4-1.22c0-.6.22-1.06.64-1.4s.99-.52 1.7-.52a5 5 0 0 1 2.04.45l-.37.95c-.63-.27-1.2-.4-1.7-.4-.37 0-.66.08-.86.25s-.29.38-.29.65c0 .19.04.34.12.48s.2.25.38.37.5.27.97.46c.52.22.9.42 1.15.61s.43.4.54.64zm2 1.71 1.24-1.2c.56-.52.95-.94 1.2-1.25.23-.3.41-.6.53-.9.11-.28.17-.59.17-.91 0-.59-.2-1.05-.6-1.4s-.93-.52-1.6-.52a3.38 3.38 0 0 0-2.35.92l.62.76c.33-.26.63-.45.88-.55.26-.1.53-.15.8-.15.34 0 .6.1.8.28a1 1 0 0 1 .3.76c0 .24-.05.46-.13.66s-.21.43-.39.66c-.18.23-.54.63-1.08 1.18L8.05 10.7v.87h4.84v-1H9.5v-.06zM16 8A8 8 0 1 1 0 8a8 8 0 0 1 16 0zm-1 0A7 7 0 1 0 1 8a7 7 0 0 0 14 0z"/></svg>