<svg xmlns="http://www.w3.org/2000/svg" viewBox="0 0 16 16"><path fill="#414141" d="M7.6 8.8c.11.23.17.51.17.83 0 .64-.23 1.14-.7 1.5s-1.08.54-1.89.54-1.47-.13-1.98-.38v-1.1a5.41 5.41 0 0 0 2.06.5c.46 0 .8-.1 1.02-.27a.86.86 0 0 0 .33-.7c0-.28-.1-.5-.3-.69s-.62-.4-1.25-.66c-.65-.26-1.11-.56-1.38-.9s-.4-.75-.4-1.22c0-.6.21-1.06.64-1.4s.99-.52 1.7-.52a5 5 0 0 1 2.04.45l-.37.95c-.64-.27-1.2-.4-1.7-.4-.38 0-.66.08-.86.25s-.3.38-.3.65c0 .19.05.34.12.48s.21.25.39.37.5.27.97.46c.52.22.9.42 1.15.61s.42.4.54.64zm2.97-1.69a3.97 3.97 0 0 0-1.02.11l.16-1.77h2.7V4.43H8.7l-.28 3.49.52.3a6.68 6.68 0 0 1 1.15-.15c1.1 0 1.64.43 1.64 1.28 0 .45-.14.78-.41 1.02s-.66.34-1.18.34a4.12 4.12 0 0 1-1.86-.47v1.04c.45.26 1.08.39 1.88.39.88 0 1.55-.21 2.03-.64.48-.43.72-1.03.72-1.79 0-.66-.21-1.17-.63-1.55s-1-.58-1.71-.58zM16 8A8 8 0 1 1 0 8a8 8 0 0 1 16 0zm-1 0A7 7 0 1 0 1 8a7 7 0 0 0 14 0z"/></svg>