<svg xmlns="http://www.w3.org/2000/svg" viewBox="0 0 16 16"><path fill="#414141" d="M7.4 8.8q.18.35.17.83 0 .96-.68 1.5c-.68.54-1.1.54-1.9.54s-1.47-.13-1.99-.38v-1.1a5 5 0 0 0 2.06.5q.7 0 1.03-.27a1 1 0 0 0 .33-.7q0-.41-.3-.69c-.3-.28-.62-.4-1.26-.66q-.97-.39-1.37-.9c-.4-.51-.4-.75-.4-1.22q0-.9.63-1.4c.63-.5 1-.52 1.7-.52a5 5 0 0 1 2.05.45l-.37.95q-.95-.4-1.7-.4-.57 0-.86.25c-.29.25-.3.38-.3.65q0 .28.12.48c.12.2.2.25.39.37s.5.27.96.46q.79.33 1.16.61c.37.28.42.4.53.64zm5.95.26v.95h-.97v1.56h-1.11v-1.56H8v-.88l3.27-4.72h1.11v4.65zM11.3 5.7h-.03q-.15.33-.43.78L9.07 9.06h2.2V7.27q0-.96.04-1.57zM16 8A8 8 0 1 1 0 8a8 8 0 0 1 16 0m-1 0A7 7 0 1 0 1 8a7 7 0 0 0 14 0"/></svg>