<svg xmlns="http://www.w3.org/2000/svg" viewBox="0 0 16 16"><path fill="#414141" d="M7.6 8.8q.17.35.17.83 0 .96-.7 1.5c-.7.54-1.08.54-1.89.54s-1.47-.13-1.98-.38v-1.1a5 5 0 0 0 2.06.5q.69 0 1.02-.27a1 1 0 0 0 .33-.7q0-.41-.3-.69c-.3-.28-.62-.4-1.25-.66q-.98-.39-1.38-.9c-.4-.51-.4-.75-.4-1.22q0-.9.64-1.4c.64-.5.99-.52 1.7-.52a5 5 0 0 1 2.04.45l-.37.95q-.95-.4-1.7-.4-.57 0-.86.25c-.29.25-.3.38-.3.65q0 .28.12.48c.12.2.21.25.39.37s.5.27.97.46q.78.33 1.15.61c.37.28.42.4.54.64zm3.6-.95v-.04q.73-.15 1.12-.6c.39-.45.4-.68.4-1.14q0-.81-.6-1.28c-.6-.47-.97-.46-1.7-.46q-1.3 0-2.27.72l.56.8a3 3 0 0 1 1.67-.56q.58 0 .88.25c.3.25.3.4.3.71q0 1.18-1.71 1.18h-.63v.93h.62q.96 0 1.42.27c.46.27.46.46.46.84q0 .65-.41.95c-.41.3-.7.31-1.24.31a4 4 0 0 1-1.94-.47v1.02q.8.39 2 .39 1.34 0 2.07-.56c.73-.56.73-.9.73-1.59q0-.7-.43-1.13c-.43-.43-.72-.47-1.3-.54M16 8A8 8 0 1 1 0 8a8 8 0 0 1 16 0m-1 0A7 7 0 1 0 1 8a7 7 0 0 0 14 0"/></svg>