<svg xmlns="http://www.w3.org/2000/svg" viewBox="0 0 16 16"><path fill="#414141" d="M7.6 8.8q.17.35.17.83 0 .96-.7 1.5c-.7.54-1.08.54-1.89.54s-1.47-.13-1.98-.38v-1.1a5 5 0 0 0 2.06.5q.69 0 1.02-.27a1 1 0 0 0 .33-.7q0-.41-.3-.69c-.3-.28-.62-.4-1.25-.66q-.98-.39-1.38-.9c-.4-.51-.4-.75-.4-1.22q0-.9.64-1.4c.64-.5.99-.52 1.7-.52a5 5 0 0 1 2.04.45l-.37.95q-.95-.4-1.7-.4-.57 0-.86.25c-.29.25-.3.38-.3.65q0 .28.12.48c.12.2.21.25.39.37s.5.27.97.46q.78.33 1.15.61c.37.28.42.4.54.64zm2.97-1.69a4 4 0 0 0-1.02.11l.16-1.77h2.7V4.43H8.7l-.28 3.49.52.3a7 7 0 0 1 1.15-.15q1.64 0 1.64 1.28 0 .67-.41 1.02c-.41.35-.66.34-1.18.34a4 4 0 0 1-1.86-.47v1.04q.68.39 1.88.39 1.32 0 2.03-.64.72-.65.72-1.79 0-.98-.63-1.55c-.63-.57-1-.58-1.71-.58M16 8A8 8 0 1 1 0 8a8 8 0 0 1 16 0m-1 0A7 7 0 1 0 1 8a7 7 0 0 0 14 0"/></svg>