<svg xmlns="http://www.w3.org/2000/svg" viewBox="0 0 16 16"><path fill="#414141" d="M7.5 8.79346c.11426.23779.1709.51758.1709.83984 0 .63477-.22949 1.13281-.68848 1.49414s-1.0918.54199-1.89941.54199-1.46777-.12549-1.98242-.37598v-1.10352c.3252.15283.67188.27344 1.03711.36133.36719.08789.70801.13184 1.02344.13184.46191 0 .80273-.08789 1.02344-.26367.21875-.17578.3291-.41162.3291-.70801 0-.26709-.10059-.49316-.30273-.67871s-.61816-.40527-1.25-.65918c-.65138-.26367-1.11036-.56494-1.37697-.90332s-.40039-.74561-.40039-1.2207c0-.5957.21191-1.06445.63477-1.40625s.99121-.5127 1.7041-.5127c.68359 0 1.36426.1499 2.04102.44922l-.3711.95215c-.63476-.26709-1.20117-.40039-1.69922-.40039-.37793 0-.66406.08203-.85938.24658s-.29296.38184-.29296.65186c0 .18555.03906.34424.11719.47607s.20703.25635.38574.37354.50098.27197.9668.46387c.52441.21826.9082.42139 1.15234.61035s.42285.40185.53711.63965zm2 1.71875l1.24023-1.20117c.55664-.52393.9541-.93994 1.19434-1.24756.23828-.30762.41602-.60645.53125-.896.11621-.28955.17383-.5957.17383-.91797 0-.58594-.2002-1.05225-.60059-1.39893s-.93262-.52002-1.59668-.52002c-.42285 0-.82227.06982-1.19629.20996s-.75976.37745-1.15722.7129l.62012.75684c.33496-.26367.63086-.4458.88574-.54688.25586-.10107.52051-.15137.79395-.15137.3418 0 .60938.09277.80371.27832.19336.18555.29004.43945.29004.76172 0 .23438-.04102.4541-.12207.65918s-.21094.42383-.38867.65674c-.17676.23291-.53711.62744-1.08105 1.18408L8.0498 10.70264v.86914h4.83887v-1.01074H9.5v-.04883zM16 8c0 4.41827-3.58179 8-8 8s-8-3.58173-8-8 3.58179-8 8-8 8 3.58173 8 8zm-1 0c0-3.86603-3.13403-7-7-7S1 4.13397 1 8c0 3.86597 3.13403 7 7 7s7-3.13403 7-7z"/></svg>