<svg xmlns="http://www.w3.org/2000/svg" viewBox="0 0 16 16"><path fill="#414141" d="M8.24 8.77a2 2 0 0 1 .17.84q0 .95-.69 1.5c-.69.55-1.09.54-1.9.54s-1.46-.13-1.98-.38v-1.1a5 5 0 0 0 2.06.5q.69 0 1.02-.27a1 1 0 0 0 .33-.71q0-.4-.3-.68c-.3-.28-.62-.4-1.25-.66q-.97-.39-1.38-.9c-.41-.51-.4-.75-.4-1.22q0-.9.64-1.4c.64-.5.99-.52 1.7-.52a5 5 0 0 1 2.04.45l-.37.95q-.95-.4-1.7-.4-.56 0-.86.25c-.3.25-.29.38-.29.65q0 .27.12.47c.12.2.2.26.38.38s.5.27.97.46q.79.33 1.15.61c.36.28.43.4.54.64m.86-2.7.58.72 1.37-1.16q-.04.48-.04 1.31v4.61h1.15V4.41h-.96L9.1 6.06zM16 8A8 8 0 1 1 0 8a8 8 0 0 1 16 0m-1 0A7 7 0 1 0 1 8a7 7 0 0 0 14 0"/></svg>