<svg xmlns="http://www.w3.org/2000/svg" viewBox="0 0 16 16"><path fill="#414141" d="M7.5 8.8q.17.35.17.83 0 .96-.69 1.5c-.69.54-1.09.54-1.9.54s-1.46-.13-1.98-.38v-1.1a5 5 0 0 0 2.06.5q.69 0 1.02-.27a1 1 0 0 0 .33-.7q0-.41-.3-.69c-.3-.28-.62-.4-1.25-.66q-.97-.39-1.38-.9c-.41-.51-.4-.75-.4-1.22q0-.9.64-1.4c.64-.5.99-.52 1.7-.52a5 5 0 0 1 2.04.45l-.37.95q-.95-.4-1.7-.4-.56 0-.86.25c-.3.25-.29.38-.29.65q0 .28.12.48c.12.2.2.25.38.37s.5.27.97.46q.78.33 1.15.61c.37.28.43.4.54.64zm2 1.71 1.24-1.2q.83-.78 1.2-1.25.35-.45.53-.9.17-.42.17-.91 0-.88-.6-1.4c-.6-.52-.93-.52-1.6-.52a3.4 3.4 0 0 0-2.35.92l.62.76q.5-.4.88-.55.4-.15.8-.15.5 0 .8.28a1 1 0 0 1 .3.76q0 .36-.13.66c-.13.3-.21.43-.39.66q-.27.35-1.08 1.18L8.05 10.7v.87h4.84v-1H9.5zM16 8A8 8 0 1 1 0 8a8 8 0 0 1 16 0m-1 0A7 7 0 1 0 1 8a7 7 0 0 0 14 0"/></svg>