<svg xmlns="http://www.w3.org/2000/svg" viewBox="0 0 16 16"><path fill="#414141" d="M13 10a2.98994 2.98994 0 00-2.41315 1.23431l-4.7304-2.36517A2.95841 2.95841 0 006 8a2.9577 2.9577 0 00-.14362-.86938l4.73029-2.36512A2.98752 2.98752 0 1010 3a2.95874 2.95874 0 00.14349.8689L5.413 6.23419a3 3 0 10.00013 3.5315l4.7304 2.36517A2.95841 2.95841 0 0010 13a3 3 0 103-3zm0-9a2 2 0 11-2 2 2.00229 2.00229 0 012-2zM3 10a2 2 0 112-2 2.00229 2.00229 0 01-2 2zm10 5a2 2 0 112-2 2.00229 2.00229 0 01-2 2z"/></svg>