<svg xmlns="http://www.w3.org/2000/svg" viewBox="0 0 16 16"><path fill="#414141" d="m6.788 13.86.97.243.242-.976-.97-.244-.242.977zM6.3 15.804l.982.196.233-.921-.97-.244-.245.969zm-1.248-3.898.97.244.242-.976-.97-.244-.242.976zm-.607 2.442.971.244.242-.977-.971-.244-.242.977zm-2.363 1.453.484.123.5.071.226-.916-.97-.244-.24.966zm.968-3.895.97.244.243-.976-.971-.244-.242.976zm5.617 2.442.97.244.242-.977-.97-.244-.242.977z"/><path fill="#414141" d="M13.615 9.312A5.012 5.012 0 0 0 16 5.493a3.986 3.986 0 0 1-5.456-1.507 4.05 4.05 0 0 1 0-3.986 5.02 5.02 0 0 0-4.521 5.011H6a4.008 4.008 0 0 0-3.908 3.161A3.019 3.019 0 0 0 .14 11.956a2.973 2.973 0 0 0 2.392 2.056l.039-.151.964.242.242-.976-.97-.244-.036.146a2 2 0 0 1-.377-3.9l.551-.176.124-.568A3.022 3.022 0 0 1 6 6.018c.044 0 .085.014.128.016A3.059 3.059 0 0 1 8.5 7.369l.5.757.8-.426a1.49 1.49 0 0 1 2.019.627 1.513 1.513 0 0 1 .168.577c0 .044.014.087.014.132v.024l-.025.847.089.018.736.15a1.511 1.511 0 0 1-.3 2.99h-.264l-.02.077-.958-.241-.242.977.97.243.013-.049h.5a2.514 2.514 0 0 0 1.115-4.76zm-.671-.785a2.5 2.5 0 0 0-2.444-2 2.475 2.475 0 0 0-1.167.29 4 4 0 0 0-2.3-1.662c0-.047-.014-.091-.014-.139a4.03 4.03 0 0 1 2.023-3.5c-.015.159-.023.32-.023.481a5.022 5.022 0 0 0 5 5.034c.161 0 .321-.008.479-.023a3.834 3.834 0 0 1-1.554 1.519z"/><path fill="#414141" d="m12.696 11.174-.97-.244-.242.976.97.244.242-.976zm-3.423.732.97.244.242-.976-.97-.244-.242.976zm1.242 3.898.981.196.23-.919-.971-.244-.24.967zm-3.242-3.898.97.244.242-.976-.97-.244-.242.976z"/></svg>