<svg xmlns="http://www.w3.org/2000/svg" viewBox="0 0 16 16"><path fill="#414141" d="M9.5 0h1v2.01h-1zM14 5.53h2v1h-2zm-6.47-2.7L6.1 1.41l-.7.71 1.41 1.42.7-.7zm7.07-.7-.71-.72-1.41 1.42.7.71 1.42-1.42zM7.27 11.9l.97.25.25-.98-.97-.24-.25.97zm-.48 1.95.97.25.24-.98-.97-.24-.24.97zm-.48 1.95.98.19.23-.92-.97-.24-.24.97zm2.96-3.9.97.25.25-.98-.97-.24-.25.97zm-.6 2.44.97.24.24-.97-.97-.24-.24.97zm-4.22 0 .97.24.24-.97-.97-.24-.24.97zm.6-2.44.97.25.25-.98-.97-.24-.24.97zm5.47 3.9.98.19.23-.92-.97-.24-.24.97zm2.18-4.63-.97-.24-.25.97.97.25.25-.98zM2.09 15.8l.48.12.5.08.23-.92-.97-.24-.24.96zm.96-3.89.97.25.25-.98-.97-.24-.25.97zM13 9.1v-.05a2.5 2.5 0 0 0-.46-1.44 3 3 0 1 0-5.4-2.41 3.97 3.97 0 0 0-4.96 2.67l-.08.31a3.02 3.02 0 0 0 .9 5.9l.02-.1.52.12.24-.97-.97-.24-.04.16a2 2 0 0 1-.37-3.91l.55-.18.12-.56A3.02 3.02 0 0 1 6 6.03a3.17 3.17 0 0 1 2.5 1.35l.5.76.38-.2.42-.22a1.47 1.47 0 0 1 1.33-.03 1.5 1.5 0 0 1 .71.7 1.48 1.48 0 0 1 .16.66v.02l-.03.85.83.16a1.5 1.5 0 0 1-.3 2.99h-.54l-.72-.18-.24.97.58.15.4.07h.52A2.52 2.52 0 0 0 13 9.1zm-1.2-2.2a2.46 2.46 0 0 0-2.46-.08A4.04 4.04 0 0 0 8.05 5.6a2 2 0 1 1 3.74 1.3z"/></svg>