<svg xmlns="http://www.w3.org/2000/svg" viewBox="0 0 16 16"><path fill="#414141" d="m6.79 13.86.97.24.24-.97-.97-.25zM6.3 15.8l.98.2.23-.92-.97-.24zm-1.25-3.9.97.25.24-.98-.97-.24zm-.6 2.45.97.24.24-.97-.97-.25zM2.07 15.8l.49.12.5.07.22-.91-.97-.25zm.97-3.9.97.25.24-.98-.97-.24zm5.62 2.45.97.24.24-.97-.97-.25zm4.96-5.04A5 5 0 0 0 16 5.5 4 4 0 0 1 10.54 4a4 4 0 0 1 0-3.99 5 5 0 0 0-4.52 5.01H6a4 4 0 0 0-3.9 3.16 3 3 0 0 0-1.96 3.79A3 3 0 0 0 2.54 14l.03-.15.97.24.24-.97-.97-.25-.04.15a2 2 0 0 1-.38-3.9l.56-.18.12-.56A3 3 0 0 1 6 6.02l.13.01A3 3 0 0 1 8.5 7.37l.5.76.8-.43a1.5 1.5 0 0 1 2.02.63 2 2 0 0 1 .17.57l.01.14v.02l-.02.85.08.01.74.15a1.51 1.51 0 0 1-.3 3h-.26l-.02.07-.96-.24-.24.98.97.24.01-.05h.5a2.51 2.51 0 0 0 1.11-4.76zm-.68-.78a2.5 2.5 0 0 0-2.44-2 2.5 2.5 0 0 0-1.17.29 4 4 0 0 0-2.3-1.67l-.01-.13a4 4 0 0 1 2.02-3.5L9.02 2a5 5 0 0 0 5 5.03l.48-.02a4 4 0 0 1-1.56 1.52m-.24 2.64-.97-.24-.25.98.97.24zm-3.43.74.97.24.25-.98-.98-.24zm1.25 3.9.98.19.23-.92-.97-.24zm-3.25-3.9.97.24.25-.98-.98-.24z"/></svg>