<svg xmlns="http://www.w3.org/2000/svg" viewBox="0 0 16 16"><path fill="#414141" d="M14.5 7.5V6h-1v1.5h-2.55a2.97 2.97 0 0 0-.51-1.23l3.57-3.57-.71-.71-3.57 3.57a2.97 2.97 0 0 0-1.23-.5V2.5H10v-1H8.5V0h-1v1.5H6v1h1.5v2.55a2.97 2.97 0 0 0-1.23.51L2.7 1.99 2 2.7l3.56 3.57a2.97 2.97 0 0 0-.5 1.23H2.5V6h-1v1.5H0v1h1.5V10h1V8.5h2.55a2.97 2.97 0 0 0 .51 1.23L1.99 13.3l.7.7 3.58-3.56a2.97 2.97 0 0 0 1.23.5v2.56H6v1h1.5V16h1v-1.5H10v-1H8.5v-2.55a2.97 2.97 0 0 0 1.23-.51l3.57 3.57.71-.7-3.57-3.58a2.97 2.97 0 0 0 .5-1.23h2.56V10h1V8.5H16v-1zm-4.57 1a1.91 1.91 0 0 1-.21.5 1.98 1.98 0 0 1-.71.72 1.93 1.93 0 0 1-.51.2 1.99 1.99 0 0 1-1.51-.2 2 2 0 0 1-.7-.71 1.9 1.9 0 0 1-.22-1.51 1.97 1.97 0 0 1 .21-.51 2.01 2.01 0 0 1 .71-.7 2 2 0 0 1 2.73.7 1.93 1.93 0 0 1 .2.5 1.8 1.8 0 0 1 0 1.01z"/></svg>