<svg xmlns="http://www.w3.org/2000/svg" viewBox="4 4 8 8"><path fill="#414141" d="M6.074219 12V5.101562L4.5 6.671875l-.355469-.351563 2.179688-2.179687L8.5 6.320312l-.355469.351563-1.570312-1.570313V12ZM9.25 12v-.40625l1.632812-2.074219H9.304688V9h2.394531v.410156l-1.632813 2.066406H11.75V12Zm2.148438-5-.375-.878906H9.964844L9.597656 7H9l1.285156-3h.4375L12 7Zm-.925782-2.09375-.289062.695312h.636718l-.285156-.691406c-.011718-.027344-.019531-.054687-.03125-.085937-.011718.027343-.023437.054687-.03125.082031Zm0 0"/></svg>