<svg xmlns="http://www.w3.org/2000/svg" viewBox="4 4 8 8"><path fill="#414141" d="M10.722656 4h-.4375L9 7h.597656l.367188-.878906h1.058594l.375.878906H12Zm-.539062 1.601562.289062-.695312c.011719-.027344.019532-.054688.03125-.082031.011719.03125.019532.058593.03125.085937l.285156.691406Zm-.113282 5.875 1.628907-2.070312V9H9.304688v.519531h1.578124L9.25 11.59375V12h2.5v-.523438ZM8.144531 9.472656 8.5 9.824219 6.324219 12 4.144531 9.824219 4.5 9.472656l1.574219 1.570313V4.148438h.5v6.898437Zm0 0"/></svg>