<svg xmlns="http://www.w3.org/2000/svg" viewBox="0 0 16 16"><g fill="#414141"><path d="M13.5 2.3A7.865 7.865 0 007.9 0a7.914 7.914 0 00-3.3 15.1l.4-.9a6.73487 6.73487 0 01-3.9-5.8H3v-1H1a7.11579 7.11579 0 011.7-4.1l1.4 1.4.7-.7-1.4-1.4A6.85382 6.85382 0 017.5.9v2h1v-2a7.116 7.116 0 014.1 1.7L11.2 4l.7.7 1.4-1.4A6.85418 6.85418 0 0115 7.4h-2v1h1.9a7.129 7.129 0 01-3.9 5.8l.4.9A7.934 7.934 0 0016 7.9a8.517 8.517 0 00-2.5-5.6z"/><path d="M6.894484941 8.3382901611L9.7238992006 5.510850516l.7068599113.7073535649L7.6013448522 9.045643726z"/></g></svg>