<svg xmlns="http://www.w3.org/2000/svg" viewBox="0 0 16 16"><path fill="#414141" d="M16 .47H0v15.06h16V.47z" opacity=".01"/><path fill="#414141" d="M1 13.53V2.46C1 .9 5.42.47 8 .47s6.92.42 7 1.95v11.11c0 1.58-4.4 2-7 2-2.6 0-7-.42-7-2zm.93 0c.14.38 2.37 1.11 6.07 1.11s5.9-.71 6.07-1.1v-2.48c-1.95.65-4 .95-6.07.88a17.2 17.2 0 0 1-6.07-.89v2.48zm0-3.64v.1c.14.37 2.37 1.09 6.07 1.09s5.9-.7 6.07-1.08V7.47c-1.95.65-4 .95-6.07.89a17.2 17.2 0 0 1-6.07-.9V9.9zm0-3.6v.12C2.07 6.77 4.3 7.49 8 7.49s5.9-.7 6.07-1.08V3.88c-1.95.66-4 .96-6.07.89a17.2 17.2 0 0 1-6.07-.89V6.3zM8 3.92c3.7 0 5.9-.7 6.07-1.08a.44.44 0 0 0 0-.39C13.8 2.06 11.63 1.37 8 1.37c-3.73 0-5.93.74-6.07 1.11a.4.4 0 0 0 0 .34c.07.08.14.14.23.2C4 3.72 6 4.02 8 3.91z"/></svg>