<svg width="16" height="16" viewBox="0 0 16 16" fill="none" xmlns="http://www.w3.org/2000/svg">
<path opacity="0.01" d="M16 0.470581H0V15.5294H16V0.470581Z" fill="#414141"/>
<path d="M1 13.5341V2.46211C1 0.889404 5.419 0.470581 8 0.470581C10.581 0.470581 14.917 0.88564 15 2.42164V13.5341C15 15.1106 10.6 15.5294 8 15.5294C5.4 15.5294 1 15.1059 1 13.5341ZM1.93298 13.5341C2.07298 13.9106 4.30302 14.6428 7.99902 14.6428C11.695 14.6428 13.899 13.9266 14.066 13.5398V11.055C12.1222 11.7104 10.0635 12.0116 8 11.9426C5.93602 12.0111 3.87703 11.7093 1.93298 11.0532V13.5341ZM1.93298 9.88517V9.99623C2.07398 10.3614 4.3 11.0776 8 11.0776C11.7 11.0776 13.9 10.3793 14.066 9.99999V7.46823C12.1222 8.1236 10.0635 8.4248 8 8.35576C5.93603 8.42427 3.87704 8.12243 1.93298 7.46634V9.88235V9.88517ZM1.93298 6.29834V6.4094C2.07398 6.77458 4.3 7.49082 8 7.49082C11.7 7.49082 13.9 6.79152 14.066 6.41223V6.2974H14.074C14.074 6.19387 14.074 6.10164 14.066 5.82682V3.8814C12.1222 4.53678 10.0635 4.83798 8 4.76893C5.93608 4.83786 3.87708 4.53634 1.93298 3.88046V6.29834ZM8 3.90587C11.7 3.90587 13.9 3.20752 14.066 2.82823V2.82352C14.0951 2.76353 14.11 2.69838 14.11 2.63246C14.11 2.56655 14.0951 2.5014 14.066 2.4414C13.815 2.06493 11.626 1.37223 8 1.37223C4.267 1.37223 2.07396 2.11199 1.93396 2.48093C1.90955 2.53396 1.89697 2.59114 1.89697 2.64893C1.89697 2.70673 1.90955 2.7639 1.93396 2.81693C1.9956 2.89539 2.07028 2.96403 2.15503 3.02023C4.01132 3.7135 6.00628 4.01611 8 3.90682V3.90587Z" fill="#414141"/>
</svg>
