<svg xmlns="http://www.w3.org/2000/svg" viewBox="0 0 16 16"><path fill="#414141" d="M14 8.49183h-3.72c.12.1.25.19.36.29a2.783 2.783 0 0 1 .69 1.95 2.883 2.883 0 0 1-1.12 2.4 4.79994 4.79994 0 0 1-3.03.86 7.39984 7.39984 0 0 1-3.19-.53v-1.31a8.62418 8.62418 0 0 0 1.57.48 7.92659 7.92659 0 0 0 1.68.18 3.42994 3.42994 0 0 0 2.04-.52 1.7 1.7 0 0 0 .69-1.43 1.819 1.819 0 0 0-.24-.99 2.15809 2.15809 0 0 0-.81-.72 11.84363 11.84363 0 0 0-1.51-.65H2v-1h3.4a4.78308 4.78308 0 0 1-.54-.47 3.07 3.07 0 0 1-.7-2.08 2.576 2.576 0 0 1 1.01-2.15 4.2 4.2 0 0 1 2.68-.8 7.98912 7.98912 0 0 1 3.2.64l-.42 1.18a7.17024 7.17024 0 0 0-2.81-.61 2.664 2.664 0 0 0-1.68.46 1.532 1.532 0 0 0-.61 1.29 1.915 1.915 0 0 0 .22.99 1.96885 1.96885 0 0 0 .75.71 9.3997 9.3997 0 0 0 1.62.72 3.40218 3.40218 0 0 1 .34.12H14z"/></svg>