<svg xmlns="http://www.w3.org/2000/svg" viewBox="0 0 16 16"><path fill="#414141" d="M14 8.5h-3.72c.12.1.25.18.36.28a2.78 2.78 0 0 1 .69 1.95 2.88 2.88 0 0 1-1.12 2.4 4.8 4.8 0 0 1-3.03.86 7.4 7.4 0 0 1-3.19-.53v-1.3a8.62 8.62 0 0 0 1.57.47 7.93 7.93 0 0 0 1.68.18 3.43 3.43 0 0 0 2.04-.52 1.7 1.7 0 0 0 .69-1.43 1.82 1.82 0 0 0-.24-.99 2.16 2.16 0 0 0-.81-.72 11.84 11.84 0 0 0-1.51-.65H2v-1h3.4a4.78 4.78 0 0 1-.54-.47 3.07 3.07 0 0 1-.7-2.08A2.58 2.58 0 0 1 5.17 2.8 4.2 4.2 0 0 1 7.85 2a7.99 7.99 0 0 1 3.2.64l-.42 1.18a7.17 7.17 0 0 0-2.81-.6 2.66 2.66 0 0 0-1.68.45 1.53 1.53 0 0 0-.61 1.3 1.92 1.92 0 0 0 .22.98 1.97 1.97 0 0 0 .75.71 9.4 9.4 0 0 0 1.62.72 3.4 3.4 0 0 1 .34.12H14z"/></svg>