<svg xmlns="http://www.w3.org/2000/svg" viewBox="0 0 16 16"><path fill="#414141" d="M14 8.5h-3.72l.36.28a2.8 2.8 0 0 1 .69 1.95 2.9 2.9 0 0 1-1.12 2.4 4.8 4.8 0 0 1-3.03.86 7.4 7.4 0 0 1-3.19-.53v-1.3a9 9 0 0 0 1.57.47 8 8 0 0 0 1.68.18 3.4 3.4 0 0 0 2.04-.52 1.7 1.7 0 0 0 .69-1.43 2 2 0 0 0-.24-.99 2 2 0 0 0-.81-.72 12 12 0 0 0-1.51-.65H2v-1h3.4a5 5 0 0 1-.54-.47 3 3 0 0 1-.7-2.08A2.6 2.6 0 0 1 5.17 2.8 4.2 4.2 0 0 1 7.85 2a8 8 0 0 1 3.2.64l-.42 1.18a7 7 0 0 0-2.81-.6 2.7 2.7 0 0 0-1.68.45 1.5 1.5 0 0 0-.61 1.3 2 2 0 0 0 .22.98 2 2 0 0 0 .75.71 9 9 0 0 0 1.62.72l.34.12H14z"/></svg>