<svg xmlns="http://www.w3.org/2000/svg" viewBox="0 0 16 16"><path fill="#414141" d="M7.5 0h1v3h-1zm0 13h1v3h-1zM13 7.5h3v1h-3zm-13 0h3v1H0zm1.985026135-4.803521445.7070203865-.7071931653 2.1215794959 2.1210611596-.7070203865.7071931653zm9.201814142 9.1935557074.7070697562-.7071438042 2.1214314127 2.1212092686-.7070697562.7071438042zm-.0045477444-7.7836554222L13.3035388268 1.98498445l.7071314634.7070820981-2.1212462942 2.1213943903zM1.989746694 13.3081436061l2.1212462942-2.1213943903.7071314634.7070820981-2.1212462942 2.1213943903zM8 4a4 4 0 1 0 4 4 4 4 0 0 0-4-4zm0 7a3 3 0 1 1 3-3 3 3 0 0 1-3 3z"/></svg>