<svg xmlns="http://www.w3.org/2000/svg" viewBox="0 0 16 16"><path fill="#414141" d="M8.015625 2.074219c-.566406 0-1.023437-.457031-1.023437-1.019531 0-.566407.457031-1.023438 1.023437-1.023438.5625 0 1.023437.457031 1.023437 1.023438 0 .5625-.460937 1.019531-1.023437 1.019531m0 13.925781c-.566406 0-1.023437-.457031-1.023437-1.023438 0-.566406.457031-1.023437 1.023437-1.023437.5625 0 1.023437.457031 1.023437 1.023437C9.039062 15.542969 8.578125 16 8.015625 16m6.96875-6.96875c-.558594 0-1.015625-.457031-1.015625-1.015625 0-.5625.457031-1.015625 1.015625-1.015625C15.546875 7 16 7.453125 16 8.015625c0 .558594-.453125 1.015625-1.015625 1.015625M1.0625 9.046875c-.570312 0-1.0351562-.460937-1.0351562-1.03125 0-.570313.4648442-1.035156 1.0351562-1.035156.570312 0 1.03125.464843 1.03125 1.035156s-.460938 1.03125-1.03125 1.03125m11.96875 4.933594c-.46875-.003907-.875-.335938-.96875-.796875-.089844-.464844.15625-.925782.59375-1.105469.4375-.179687.9375-.027344 1.199219.363281.261719.394532.210937.914063-.125 1.25-.183594.183594-.4375.289063-.699219.289063M3.042969 4.015625c-.261719 0-.511719-.105469-.699219-.292969-.335938-.335937-.386719-.859375-.121094-1.253906.265625-.394531.769532-.546875 1.207032-.363281.4375.183593.683593.648437.589843 1.113281-.09375.464844-.503906.796875-.976562.796875m9.976562.015625c-.476562 0-.886719-.335938-.980469-.804688-.09375-.464843.15625-.933593.597657-1.117187.4375-.179687.945312-.027344 1.210937.367187.265625.398438.210938.925782-.125 1.261719-.1875.1875-.441406.292969-.703125.292969m-9.972656 9.972656c-.476563 0-.882813-.335937-.976563-.804687-.09375-.46875.15625-.933594.597657-1.117188.441406-.179687.945312-.027343 1.210937.371094.265625.394531.210938.921875-.125 1.257813-.1875.1875-.441406.292968-.707031.292968m5.964844-3.992187V8.738281l1.996093.796875V6.496094l-1.996093.796875V6.019531H5.019531v3.992188h3.992188m2.996093 1-1.996093-.800781v.800781H4.023438V5.019531h5.988281v.800781l1.996093-.800781Zm0 0"/></svg>