<svg xmlns="http://www.w3.org/2000/svg" viewBox="0 0 16 16"><path fill="#414141" d="M14.05 10.95v-3.5a1.5 1.5 0 0 0-1.5-1.5 1.5 1.5 0 0 0-1 .4 1.5 1.5 0 0 0-2 0 1.5 1.5 0 0 0-1.5-.3v-3.9A1.53 1.53 0 0 0 6.25.98a1.5 1.5 0 0 0-1.2 1.47v6.72l-1.62-.93-.06-.04-.14-.07-.04-.02-.14-.07a1.5 1.5 0 0 0-1.94.87 1.5 1.5 0 0 0 .8 1.9l2.28 1.32a5 5 0 0 0 9.86-1.18m-5.01 4a4 4 0 0 1-3.92-3.26.5.5 0 0 0-.24-.3l-.7-.42L2.4 9.95l-.07-.04a.5.5 0 0 1 .18-.96l.17.03.1.04 2.53 1.43a.5.5 0 0 0 .68-.2l.06-.24V2.45a.5.5 0 1 1 1 0v6.5h1v-1.5a.5.5 0 0 1 1 0v1.5h1v-1.5a.5.5 0 0 1 1 0v1.5h1v-1.5a.5.5 0 0 1 1 0v3.5a4 4 0 0 1-4.01 4M16 2.6l-2.12 2.12-.7-.7.9-.92H10v-1h4.08l-.9-.91.7-.71z"/></svg>