<svg xmlns="http://www.w3.org/2000/svg" viewBox="0 0 16 16"><path fill="#414141" d="M14.047 10.952v-3.5a1.5 1.5 0 0 0-1.5-1.5 1.471 1.471 0 0 0-1 .392 1.477 1.477 0 0 0-2 0 1.455 1.455 0 0 0-1.5-.3V2.152a1.53 1.53 0 0 0-1.8-1.171 1.5 1.5 0 0 0-1.2 1.471V9.17l-1.621-.928c-.02-.014-.04-.027-.061-.039l-.133-.072-.044-.021c-.051-.025-.114-.055-.14-.065a1.5 1.5 0 0 0-1.938.86 1.477 1.477 0 0 0 .791 1.9l2.289 1.327a5 5 0 0 0 9.857-1.18zm-5.01 3.99a4 4 0 0 1-3.919-3.25.49.49 0 0 0-.235-.311l-.709-.408-1.773-1.021-.068-.039a.5.5 0 0 1 .18-.968.484.484 0 0 1 .168.03s.068.035.1.049l2.528 1.428a.5.5 0 0 0 .6785-.19909l.0005-.00091a.50808.50808 0 0 0 .059-.242V2.452a.5.5 0 1 1 1 0v6.5h1v-1.5a.5.5 0 0 1 1 0v1.5h1v-1.5a.5.5 0 0 1 1 0v1.5h1v-1.5a.5.5 0 0 1 1 0v3.5a4 4 0 0 1-4.008 3.99zm6.965-12.3314-2.122 2.118-.707-.707.914-.913H10v-1h4.084l-.913-.913.707-.707L16 2.6076z"/></svg>