<svg xmlns="http://www.w3.org/2000/svg" viewBox="0 0 18 16"><path fill="#414141" d="m7.746094 13.945312-1.050782 1.066407L.242188 8.46875 8.527344.0234375H15V.976562h2.765625v6.566407l-8.304687 8.429687Zm1.757812.40625 7.167969-7.277343V2.089844H15v4.492187L8.523438 13.15625ZM1.789062 8.464844l4.90625 4.972656 7.210938-7.316406V1.136719H8.984375Zm7.667969-4.671875c0-1.035157.824219-1.871094 1.84375-1.871094 1.015625 0 1.839844.835937 1.839844 1.871094.003906 1.035156-.824219 1.875-1.839844 1.875-1.019531-.003907-1.84375-.84375-1.84375-1.878907Zm1.09375 0c0 .421875.335938.761719.75.761719.414063-.003907.75-.34375.75-.761719 0-.421875-.335937-.761719-.75-.761719-.410156 0-.746093.339844-.746093.757812Zm0 0"/></svg>