<svg xmlns="http://www.w3.org/2000/svg" viewBox="0 0 16 16"><path fill="#414141" d="M3.65 4.2v2.05a1.14 1.14 0 0 1-.39.96A2.1 2.1 0 0 1 2 7.53v.94a2.12 2.12 0 0 1 1.23.3 1.14 1.14 0 0 1 .42 1v2.04a1.95 1.95 0 0 0 .7 1.6 3.1 3.1 0 0 0 1.98.59v-.94a1.9 1.9 0 0 1-1.15-.32 1.19 1.19 0 0 1-.4-1V9.72a1.6 1.6 0 0 0-1.5-1.68v-.08h.04a1.59 1.59 0 0 0 1.46-1.7V4.27q0-1.3 1.55-1.33V2a3.04 3.04 0 0 0-1.95.58 1.95 1.95 0 0 0-.73 1.62zm9.09 3a1.14 1.14 0 0 1-.4-.95V4.2a1.95 1.95 0 0 0-.72-1.62A3.04 3.04 0 0 0 9.67 2v.93q1.55.04 1.55 1.34v1.98a1.59 1.59 0 0 0 1.46 1.7h.04v.08a1.6 1.6 0 0 0-1.5 1.68v2.02a1.19 1.19 0 0 1-.4 1 1.9 1.9 0 0 1-1.15.32v.94a3.1 3.1 0 0 0 1.98-.59 1.95 1.95 0 0 0 .7-1.6V9.77a1.13 1.13 0 0 1 .42-1 2.12 2.12 0 0 1 1.23-.3v-.94a2.1 2.1 0 0 1-1.26-.33z"/></svg>