<svg xmlns="http://www.w3.org/2000/svg" viewBox="0 0 16 16"><path fill="#414141" d="M3.653 4.2v2.051a1.143 1.143 0 01-.39.954A2.1 2.1 0 012 7.528v.946a2.117 2.117 0 011.23.3 1.135 1.135 0 01.423 1v2.034a1.95 1.95 0 00.7 1.6A3.094 3.094 0 006.328 14v-.94a1.9 1.9 0 01-1.152-.323 1.186 1.186 0 01-.393-.993V9.717a1.591 1.591 0 00-1.5-1.674V7.96h.032a1.59 1.59 0 001.468-1.7V4.274q0-1.3 1.548-1.336V2a3.044 3.044 0 00-1.948.578 1.953 1.953 0 00-.73 1.622zm9.084 3.005a1.143 1.143 0 01-.39-.954V4.2a1.953 1.953 0 00-.726-1.618A3.045 3.045 0 009.672 2v.934q1.545.039 1.545 1.336v1.981a1.59 1.59 0 001.468 1.7h.032v.081a1.591 1.591 0 00-1.5 1.674v2.024a1.186 1.186 0 01-.393.993 1.9 1.9 0 01-1.152.323v.94a3.094 3.094 0 001.975-.585 1.95 1.95 0 00.7-1.6V9.773a1.132 1.132 0 01.423-1 2.117 2.117 0 011.23-.3v-.945a2.1 2.1 0 01-1.263-.323z"/></svg>