<svg xmlns="http://www.w3.org/2000/svg" viewBox="0 0 16 16"><path fill="#414141" d="M14.54605 12.57416c.0268-.03821.05713-.07361.08325-.11225.11-.16284.20838-.33239.30585-.50244.03162-.05511.06751-.1073.09784-.1632.086-.15876.16034-.32288.23535-.48688.03363-.07349.07208-.14417.10352-.21881.06787-.16126.1239-.327.18109-.49244.02826-.08166.06164-.16082.08728-.24365.055-.17767.09753-.359.14013-.54046.01746-.07416.04023-.14618.05555-.2212.04229-.2066.07123-.41632.09716-.62652.0066-.05365.01819-.10577.02375-.15973.02374-.231.03369-.46423.03717-.69818.00061-.0365.00567-.07178.0058-.1084l-.00025-.00525.00067-.01422A7.98991 7.98991 0 008.00076 0v.00006L7.99979 0a8 8 0 000 16l.001-.00006V16a7.94323 7.94323 0 005.64905-2.35c.13953-.139.26727-.28723.39533-.43512.03924-.04541.08276-.08691.121-.13317.13519-.1635.25867-.33471.37988-.50755zM7.99979 15a6.95293 6.95293 0 01-4.943-2.057A7.02151 7.02151 0 018.00076.95618v14.04376z"/></svg>