<svg xmlns="http://www.w3.org/2000/svg" viewBox="0 0 16 16"><path fill="#414141" d="m4.79431 14.03412 4.59619-4.5962.49494.07061a3.97211 3.97211 0 0 0 3.39415-1.13127 4.01469 4.01469 0 0 0 1.03528-3.86371L12.987 5.84145l-.41363.00069h-2.41551V3.42665l.00069-.41363 1.3279-1.32789a4.01606 4.01606 0 0 0-3.86371 1.03528 3.97211 3.97211 0 0 0-1.13127 3.39415l.07061.49494-4.5962 4.59619 2.82843 2.82843m0 1.41421L.55167 11.20569l4.94975-4.94975a5.00069 5.00069 0 0 1 7.70739-4.879l-2.05054 2.05058v1.41421h1.41421L14.623 2.79119a5.01258 5.01258 0 0 1-.63632 6.29318 4.96269 4.96269 0 0 1-4.24264 1.41421z"/></svg>