<svg xmlns="http://www.w3.org/2000/svg" viewBox="0 0 17 16"><path fill="#414141" d="m6.29 15.48-4.26-4.26L4.7 8.55l.71.72-1.95 1.95 2.84 2.84.85-.85.7.71ZM14 10.14l-.78-.78a4.03 4.03 0 0 0 2.63-4.86L14.8 5.54l-.3.3h-2.83V3l.29-.3L13 1.66a4 4 0 0 0-4.98 3.13l-.83-.83a5.03 5.03 0 0 1 7.54-2.6L12.68 3.4v1.42h1.42l2.06-2.06A5.03 5.03 0 0 1 14 10.14M10.89 6.7 9.82 7.76 5.76 3.7l-.74-2.23-3.1-1.4-1.9 1.91L1.4 5.1l2.22.74L7.7 9.9l-1.06 1.06 2.13 2.13.7-.7 3.56 3.54 2.84-2.84-3.55-3.55.7-.7ZM1.2 2.2l.93-.93 2.07.93.68 2.04L9.1 8.46l-.7.7-4.22-4.21-2.04-.68Zm13.23 10.88-1.42 1.42-2.84-2.84 1.42-1.42ZM11.6 8.82l-2.84 2.84-.71-.7 2.84-2.85Zm0 0"/></svg>