<svg xmlns="http://www.w3.org/2000/svg" viewBox="0 0 16 16"><path fill="#414141" d="m5.035156 6.683594 1.074219 1.074218 4.085937-4.089843.75-2.242188L14.066406.0195312l1.921875 1.9218748-1.402343 3.125-2.242188.746094-4.089844 4.089844 1.070313 1.070312-2.144531 2.144532-.714844-.714844-3.574219 3.578125L.03125 13.117188l3.574219-3.574219-.714844-.714844Zm9.746094-4.519532-.9375-.941406-2.082031.9375-.679688 2.050782-4.25 4.246093.714844.714844 4.25-4.246094 2.046875-.683593ZM1.460938 13.117188l1.429687 1.429687L5.75 11.6875l-1.429688-1.429688Zm2.859374-4.289063L7.179688 11.6875l.714843-.714844-2.859375-2.859375Zm0 0"/></svg>