<svg xmlns="http://www.w3.org/2000/svg" viewBox="0 0 16 16"><path fill="#414141" d="M4.4956 14.37381l4.59619-4.5962.49494.07061A3.97212 3.97212 0 0012.98088 8.717a4.01474 4.01474 0 001.03528-3.86371l-1.3279 1.3279-.41363.00069H9.85915V3.76634l.00069-.41363 1.32789-1.32789A4.01606 4.01606 0 007.324 3.0601a3.97213 3.97213 0 00-1.13124 3.39415l.0706.49494-4.59619 4.59619 2.82843 2.82843m0 1.41421L.253 11.54538l4.9497-4.94975a5.0007 5.0007 0 017.7074-4.879l-2.05054 2.05058v1.41421h1.41421l2.05054-2.05054a5.01258 5.01258 0 01-.63631 6.29318 4.96264 4.96264 0 01-4.24264 1.41421z"/></svg>