<svg xmlns="http://www.w3.org/2000/svg" viewBox="0 0 17 16"><g fill="#414141"><path d="M6.289062 15.484375 2.03125 11.21875l2.660156-2.664062.710938.710937-1.953125 1.953125 2.839843 2.839844.847657-.847656.710937.710937ZM14 10.140625l-.777344-.777344c.601563-.195312 1.144532-.53125 1.585938-.980469 1.011718-1.015624 1.40625-2.492187 1.039062-3.878906L14.8125 5.542969l-.296875.292969h-2.839844V2.996094l.292969-.292969 1.039062-1.042969c-.335937-.085937-.683593-.132812-1.03125-.132812-1.070312-.003906-2.09375.417968-2.847656 1.171875-.570312.570312-.953125 1.296875-1.105468 2.085937l-.820313-.824218c.246094-.742188.664063-1.417969 1.21875-1.972657.941406-.941406 2.222656-1.46875 3.554687-1.464843.984376-.003907 1.945313.285156 2.761719.828124l-2.058593 2.058594v1.417969h1.421874l2.058594-2.058594c1.3125 1.992188 1.046875 4.632813-.636718 6.320313-.4375.4375-.953126.792968-1.519532 1.046875Zm0 0"/><path d="M10.886719 6.695312 9.816406 7.761719 5.757812 3.703125l-.738281-2.230469L1.917969.078125.0117188 1.984375 1.40625 5.089844l2.226562.742187 4.058594 4.058594-1.0625 1.0625 2.128906 2.128906.710938-.710937 3.546875 3.550781 2.839844-2.839844-3.546875-3.550781.707031-.707031ZM1.210938 2.207031l.929687-.933593 2.066406.929687.679688 2.035156 4.214843 4.21875-.710937.707031-4.214844-4.214843-2.035156-.679688Zm13.226562 10.875L13.015625 14.5l-2.839844-2.839844 1.421875-1.417968Zm-2.839844-4.257812-2.839844 2.835937-.710937-.707031 2.839844-2.839844Zm0 0"/></g></svg>