<svg xmlns="http://www.w3.org/2000/svg" viewBox="9 8 13 16"><path fill="#414141" d="M21.998 19.01v-3.5a1.5 1.5 0 0 0-1.5-1.5 1.471 1.471 0 0 0-1 .392 1.471 1.471 0 0 0-1.492-.3v-3.946a4.439 4.439 0 0 0-.056-1.051 1.34 1.34 0 0 0-.133-.342 1.515 1.515 0 0 0-.92-.719 1.5 1.5 0 0 0-1.838 1.057v.013a1.524 1.524 0 0 0-.86-.075 1.5 1.5 0 0 0-1.2 1.471v6.718l-1.62-.925c-.02-.014-.04-.027-.061-.039l-.133-.072-.044-.021c-.051-.025-.114-.055-.14-.065a1.5 1.5 0 0 0-1.942.86 1.477 1.477 0 0 0 .791 1.9l2.293 1.326A5 5 0 0 0 22 19.009Zm-5-2h1v-1.5a.5.5 0 1 1 1 0v1.5h1v-1.5a.5.5 0 0 1 1 0v3.5a4 4 0 0 1-4.01 3.99 4 4 0 0 1-3.919-3.25.49.49 0 0 0-.235-.311l-.709-.408-1.771-1.021-.068-.039a.5.5 0 0 1 .18-.968.484.484 0 0 1 .168.03s.068.035.1.049l2.525 1.428a.5.5 0 0 0 .678-.2.511.511 0 0 0 .061-.242V10.51a.5.5 0 1 1 1 0v6.5h1l.026-7.648a.5.5 0 0 1 .233-.3.494.494 0 0 1 .38-.049.5.5 0 0 1 .353.354Z"/></svg>