<svg xmlns="http://www.w3.org/2000/svg" viewBox="9 8 13 16"><path fill="#414141" d="M22 19.01v-3.5a1.5 1.5 0 0 0-1.5-1.5 1.47 1.47 0 0 0-1 .4 1.47 1.47 0 0 0-1.5-.3v-3.95a4.44 4.44 0 0 0-.05-1.05 1.34 1.34 0 0 0-.13-.35 1.51 1.51 0 0 0-.92-.72 1.5 1.5 0 0 0-1.84 1.06v.01a1.52 1.52 0 0 0-.86-.07A1.5 1.5 0 0 0 13 10.5v6.72l-1.62-.93a.79.79 0 0 0-.06-.04l-.14-.07-.04-.02a2.53 2.53 0 0 0-.14-.06 1.5 1.5 0 0 0-1.94.86 1.48 1.48 0 0 0 .79 1.9l2.3 1.32A5 5 0 0 0 22 19.01Zm-5-2h1v-1.5a.5.5 0 1 1 1 0v1.5h1v-1.5a.5.5 0 0 1 1 0v3.5A4 4 0 0 1 16.99 23a4 4 0 0 1-3.92-3.25.49.49 0 0 0-.24-.31l-.7-.4L10.35 18l-.06-.04a.5.5 0 0 1 .18-.97.48.48 0 0 1 .16.03s.07.04.1.05l2.53 1.43a.5.5 0 0 0 .68-.2.51.51 0 0 0 .06-.24V10.5a.5.5 0 1 1 1 0V17h1l.02-7.65a.5.5 0 0 1 .24-.3.5.5 0 0 1 .38-.05.5.5 0 0 1 .35.36Z"/></svg>