<svg xmlns="http://www.w3.org/2000/svg" viewBox="9 8 13 16"><path fill="#414141" d="M22 19.01v-3.5a1.5 1.5 0 0 0-1.5-1.5 1.5 1.5 0 0 0-1 .4 1.5 1.5 0 0 0-1.5-.3v-3.95a4 4 0 0 0-.05-1.05 1 1 0 0 0-.13-.35 1.5 1.5 0 0 0-.92-.72 1.5 1.5 0 0 0-1.84 1.06v.01a1.5 1.5 0 0 0-.86-.07A1.5 1.5 0 0 0 13 10.5v6.72l-1.62-.93-.06-.04-.14-.07-.04-.02-.14-.06a1.5 1.5 0 0 0-1.94.86 1.5 1.5 0 0 0 .79 1.9l2.3 1.32A5 5 0 0 0 22 19.01m-5-2h1v-1.5a.5.5 0 1 1 1 0v1.5h1v-1.5a.5.5 0 0 1 1 0v3.5A4 4 0 0 1 16.99 23a4 4 0 0 1-3.92-3.25.5.5 0 0 0-.24-.31l-.7-.4L10.35 18l-.06-.04a.5.5 0 0 1 .18-.97l.16.03.1.05 2.53 1.43a.5.5 0 0 0 .68-.2l.06-.24V10.5a.5.5 0 1 1 1 0V17h1l.02-7.65a.5.5 0 0 1 .24-.3.5.5 0 0 1 .38-.05.5.5 0 0 1 .35.36Z"/></svg>