<svg xmlns="http://www.w3.org/2000/svg" viewBox="0 0 16 16"><path fill="#414141" d="M12 1.94H0v10.5h2.07a1.99 1.99 0 0 0 3.86 0h.14a1.99 1.99 0 0 0 3.86 0h.14a1.99 1.99 0 0 0 3.86 0H16v-6.5a4 4 0 0 0-4-4zm-7.15 10.5a.97.97 0 0 1-1.7 0 .89.89 0 0 1 0-1 .97.97 0 0 1 1.7 0 .89.89 0 0 1 0 1zm4 0a.97.97 0 0 1-1.7 0 .89.89 0 0 1 0-1 .97.97 0 0 1 1.7 0 .89.89 0 0 1 0 1zm4 0a.97.97 0 0 1-1.7 0 .89.89 0 0 1 0-1 .97.97 0 0 1 1.7 0 .89.89 0 0 1 0 1zm2.15-1h-1.07a1.99 1.99 0 0 0-3.86 0h-.14a1.99 1.99 0 0 0-3.86 0h-.14a1.99 1.99 0 0 0-3.86 0H1v-8.5h4V8h10zM15 7H6V2.94h6a3 3 0 0 1 3 3z"/></svg>