<svg xmlns="http://www.w3.org/2000/svg" viewBox="4 4 8 8"><g fill="#414141"><path d="M6.5 9.5H7v-2h-.5Zm1.5-2h.5v2H8Zm1.5 2h.5v-2h-.5Zm0 0"/><path fill-rule="evenodd" d="M6.25 6c.414062-.550781.300781-1.335938-.25-1.75-.550781-.414062-1.335938-.300781-1.75.25-.414062.550781-.300781 1.335938.25 1.75V11H12V6ZM6 5.25c0 .414062-.335938.75-.75.75s-.75-.335938-.75-.75.335938-.75.75-.75.75.335938.75.75ZM5 6.5v4h6.5v-4Zm0 0"/><path d="M7.5 4H8v1.5h-.5ZM5 11.5v.5h6.5v-.5ZM9.5 4H9v1.5h.5Zm1 0h.5v1.5h-.5Zm0 0"/></g></svg>