<svg xmlns="http://www.w3.org/2000/svg" viewBox="4 4 8 8"><path fill="#414141" d="M4 4h.5v5.976562l.046875-.246093C4.746094 8.617188 5 7.511719 5.308594 6.425781c.136718-.46875.308594-.929687.519531-1.371093.082031-.171876.183594-.332032.300781-.480469.101563-.132813.238282-.234375.394532-.292969.167968-.058594.351562-.03125.5.066406.160156.113282.289062.257813.378906.429688.292968.585937.5 1.207031.621094 1.847656.144531.671875.328124 1.332031.558593 1.980469.082031.273437.222657.527343.417969.742187.039062.03125.058594.03125.0625.03125.027344-.003906.050781-.015625.070312-.03125.136719-.121094.25-.265625.339844-.429687.0625-.101563.128906-.214844.195313-.332031l.007812-.007813c.0625-.113281.128907-.230469.199219-.339844.125-.222656.285156-.425781.476562-.597656.097657-.085937.214844-.140625.339844-.164063.140625-.019531.285156.007813.40625.082032.289063.214844.511719.511718.632813.851562l-.453125.210938c-.085938-.246094-.234375-.464844-.429688-.632813-.023437-.011719-.050781-.019531-.074218-.015625-.042969.007813-.078126.027344-.109376.054688-.144531.136718-.265624.296875-.363281.472656-.0625.101562-.128906.214844-.191406.328125l-.007813.007813c-.066406.117187-.132812.234374-.203124.34375-.121094.21875-.28125.414062-.472657.574218-.101562.078125-.226562.121094-.355469.125-.140624 0-.277343-.050781-.386718-.144531-.261719-.265625-.457032-.589844-.5625-.949219-.242188-.667968-.433594-1.351562-.582032-2.046875-.109374-.59375-.296874-1.167969-.566406-1.707031-.046875-.101562-.121094-.191406-.210937-.261719-.019531-.015625-.050781-.023437-.074219-.011719-.070312.03125-.125.078126-.171875.140626-.09375.117187-.171875.246093-.238281.382812-.199219.417969-.359375.847656-.484375 1.289062-.304688 1.070313-.554688 2.15625-.75 3.25-.09375.496094-.164063.925782-.214844 1.230469-.023437.152344-.042969.273438-.054687.359375L4.753906 11.5H12v.5H4Zm0 0"/></svg>