<svg xmlns="http://www.w3.org/2000/svg" viewBox="4 4 8 8"><path fill="#414141" d="M4 4h.5v5.98l.05-.25c.2-1.11.45-2.22.76-3.3.14-.47.3-.93.52-1.38.08-.17.18-.33.3-.48a.9.9 0 0 1 .4-.29.57.57 0 0 1 .5.07c.15.11.28.26.37.43.3.58.5 1.2.62 1.84.15.68.33 1.34.56 1.99.08.27.22.52.42.74l.06.03c.03 0 .05-.02.07-.03.14-.12.25-.27.34-.43l.2-.33v-.01l.2-.34c.13-.22.29-.43.48-.6a.62.62 0 0 1 .75-.08c.29.21.5.51.63.85l-.45.21a1.48 1.48 0 0 0-.43-.63.13.13 0 0 0-.08-.02.22.22 0 0 0-.1.06c-.15.13-.27.3-.37.47l-.2.33-.2.35a2 2 0 0 1-.47.57.61.61 0 0 1-.36.13.6.6 0 0 1-.39-.15 2.26 2.26 0 0 1-.56-.94c-.24-.67-.43-1.36-.58-2.05a6.4 6.4 0 0 0-.57-1.7.72.72 0 0 0-.2-.27c-.03-.02-.06-.02-.08-.01a.43.43 0 0 0-.17.14c-.1.12-.18.24-.24.38-.2.42-.36.85-.49 1.29a36.4 36.4 0 0 0-.75 3.25c-.1.5-.16.93-.21 1.23l-.06.36-.02.09H12v.5H4Zm0 0"/></svg>