<svg xmlns="http://www.w3.org/2000/svg" viewBox="4 4 8 8"><path fill="#414141" d="M4 4h.5v5.98l.05-.25q.3-1.67.76-3.3.2-.7.52-1.38.12-.25.3-.48a1 1 0 0 1 .4-.29.6.6 0 0 1 .5.07q.23.17.37.43.45.88.62 1.84.22 1.02.56 1.99.12.4.42.74l.06.03q.04 0 .07-.03.2-.18.34-.43l.2-.33v-.01l.2-.34q.2-.34.48-.6a.6.6 0 0 1 .75-.08q.43.33.63.85l-.45.21a1.5 1.5 0 0 0-.43-.63l-.08-.02-.1.06q-.22.2-.37.47l-.2.33-.2.35a2 2 0 0 1-.47.57.6.6 0 0 1-.36.13.6.6 0 0 1-.39-.15 2 2 0 0 1-.56-.94q-.36-1.01-.58-2.05a6 6 0 0 0-.57-1.7 1 1 0 0 0-.2-.27q-.05-.03-.08-.01a.4.4 0 0 0-.17.14q-.15.17-.24.38-.3.63-.49 1.29a36 36 0 0 0-.75 3.25l-.21 1.23-.06.36-.02.09H12v.5H4Zm0 0"/></svg>