<svg xmlns="http://www.w3.org/2000/svg" viewBox="2 2 12 12"><path fill="#414141" d="M13.898438 8.050781c0 3.3125-2.683594 6-6 6-3.3125 0-6-2.6875-6-6 0-3.316406 2.6875-6 6-6 3.316406 0 6 2.683594 6 6Zm0 0"/><path fill="#f0f0f0" d="M4.050781 7.976562c0-.511718.09375-1.015624.285157-1.484374l.820312.6875c-.070312.257812-.105469.527343-.105469.796874 0 1.65625 1.34375 2.996094 3 3 1.65625-.003906 3-1.34375 3-3 0-.605468-.183593-1.191406-.523437-1.6875L7.867188 9.457031l-.765626-.640625-.65625-.554687.644532-.765625.65625.550781 2.355468-2.804687h.003907l.375-.449219c.992187.753906 1.574219 1.933593 1.570312 3.179687-.003906 2.207032-1.792969 3.996094-4 4-2.207031-.003906-3.996093-1.789062-4-3.996094Zm1.550781-1.730468-.769531-.644532c.378907-.515624.875-.929687 1.449219-1.214843l.347656.949219c-.410156.222656-.757812.535156-1.027344.910156Zm3.121094-1.195313C8.5 5 8.277344 4.976562 8.050781 4.976562c-.160156 0-.320312.011719-.480469.035157l-.34375-.953125c.269532-.054688.546876-.082032.824219-.085938.46875 0 .933594.082032 1.371094.242188Zm0 0"/></svg>