<svg xmlns="http://www.w3.org/2000/svg" viewBox="0 0 18 16"><path fill="#414141" d="M0 16V.0117188h6.746094l2.25 2.2851562h8.992187V16Zm1.125-1.140625h15.738281V3.4375H8.53125l-2.25-2.285156H1.125Zm11.078125-1.300781H6.242188c-1.554688 0-2.8125-1.277344-2.8125-2.855469 0-1.027344.546874-1.976563 1.425781-2.484375-.011719-.121094-.019531-.246094-.019531-.371094 0-1.773437 1.414062-3.210937 3.160156-3.210937 1.082031 0 2.089844.558593 2.667968 1.484375.164063-.039063.328126-.058594.496094-.054688 1.164063 0 2.105469.957032 2.105469 2.140625 0 .1875-.023437.378907-.070313.5625.898438.394531 1.476563 1.296875 1.476563 2.292969 0 1.378906-1.101563 2.496094-2.457031 2.496094ZM5.960938 7.847656c0 .082032.003906.160156.011718.242188l.085938.75-.648438.371094c-.527344.304687-.855468.875-.855468 1.492187 0 .945313.753906 1.710937 1.6875 1.710937h5.972656c.734375 0 1.332031-.605468 1.332031-1.355468 0-.539063-.3125-1.027344-.800781-1.242188l-.894532-.394531.257813-.957031c.019531-.082032.03125-.171875.03125-.261719 0-.550781-.4375-.996094-.980469-.996094-.078125 0-.15625.007813-.234375.027344l-.777343.191406-.433594-.6875c-.371094-.597656-1.019532-.960937-1.71875-.957031-1.125 0-2.035156.925781-2.035156 2.066406Zm0 0"/></svg>