<svg xmlns="http://www.w3.org/2000/svg" viewBox="0 0 18 16"><path fill="#414141" d="M0 16V.01h6.75L9 2.3h8.99V16Zm1.13-1.14h15.73V3.44H8.53L6.28 1.15H1.12Zm11.07-1.3H6.24a2.87 2.87 0 0 1-1.39-5.34A3.2 3.2 0 0 1 8 4.64c1.09 0 2.1.56 2.67 1.48a2.12 2.12 0 0 1 2.53 2.65 2.5 2.5 0 0 1-.98 4.79ZM5.96 7.85l.01.24.09.75-.65.37c-.53.3-.86.88-.86 1.5 0 .94.76 1.7 1.7 1.7h5.96a1.36 1.36 0 0 0 .54-2.59l-.9-.4.26-.96q.03-.12.03-.26a1 1 0 0 0-1.21-.97l-.78.2-.44-.7A2 2 0 0 0 8 5.79c-1.13 0-2.04.93-2.04 2.07Zm0 0"/></svg>