<svg xmlns="http://www.w3.org/2000/svg" viewBox="0 0 16 16"><path fill="#414141" fill-rule="evenodd" d="m3.37 1.58-1 1 1 .99.99.99 1-1 .99-.99-1-.99-.99-1-1 1M6.03 6.1a717.3 717.3 0 0 0-5.31 5.33l1.98 2 1.98 1.98 5.31-5.31 5.32-5.31-2-2L11.32.8l-5.3 5.3M4.7 2.23l.31.34c0 .04-.61.66-.65.66-.02 0-.17-.15-.35-.32l-.32-.32.34-.34a6.61 6.61 0 0 1 .34-.33l.33.31m7.97 1.23L14 4.79l-1 1-1 1-1.33-1.34-1.34-1.33 1-1 1-.99 1.34 1.33M1.48 5.12l-.99.99 1 .99.99 1 1-1 .99-1-.99-.98a51.6 51.6 0 0 0-1-.99l-1 .99m6.54 5.65-3.33 3.32-1.33-1.33-1.33-1.33L5.35 8.1l3.33-3.33 1.33 1.34 1.34 1.33-3.33 3.33m-5.2-4.32-.34.34-.33-.34-.34-.33.34-.34.34-.34.34.33.33.34-.34.34m9.72 4.3-1 1 1 .99 1 1 .99-1 .99-1-1-.99-.99-.99-.99 1m1.33.65c.18.17.32.32.32.34 0 .03-.62.65-.66.65a3.1 3.1 0 0 1-.34-.32l-.32-.32.33-.33c.18-.19.34-.34.35-.34l.32.32"/></svg>