<svg xmlns="http://www.w3.org/2000/svg" viewBox="0 0 16 16"><path fill="#414141" fill-rule="evenodd" d="m3.367 1.58-.994.994.994.993.993.993.993-.993.994-.994-.994-.993L4.36.587l-.993.993M6.02 6.1C3.105 9.015.72 11.412.72 11.427c0 .014.891.917 1.98 2.006l1.98 1.98L9.993 10.1l5.314-5.313-1.994-1.994L11.32.8l-5.3 5.3M4.7 2.234c.173.172.313.325.313.339 0 .035-.618.654-.653.654-.015 0-.171-.144-.347-.32l-.319-.32.333-.334a6.61 6.61 0 0 1 .346-.333c.008 0 .155.141.327.314m7.973 1.226L14 4.787l-1 1-1 .999-1.333-1.333L9.333 4.12l.994-.993c.546-.547.999-.994 1.006-.994.008 0 .611.597 1.34 1.327M1.48 5.12l-.986.987.993.993.993.993.993-.993.993-.993-.986-.987a51.594 51.594 0 0 0-1-.987c-.007 0-.458.444-1 .987m6.54 5.647-3.327 3.326L3.36 12.76l-1.333-1.333L5.353 8.1 8.68 4.773l1.333 1.334 1.334 1.333-3.327 3.327m-5.2-4.321-.34.34-.333-.333-.334-.332.34-.341.34-.34.333.333.334.334-.34.339m9.72 4.307-.993.994.993.993.994.993.993-.993.993-.994-.993-.993-.994-.993-.993.993m1.334.654c.172.173.313.325.313.34 0 .035-.619.653-.654.653-.015 0-.171-.144-.346-.32l-.32-.32.333-.333c.183-.184.339-.334.347-.334.007 0 .155.142.327.314"/></svg>