<svg xmlns="http://www.w3.org/2000/svg" viewBox="0 0 16 16"><path fill="#414141" fill-rule="evenodd" d="m3.37 1.58-1 1 1 .99.99.99 1-1 .99-.99-1-.99-.99-1zM6.03 6.1.72 11.43l1.98 2 1.98 1.98 5.31-5.31 5.32-5.31-2-2L11.32.8zM4.7 2.23l.31.34c0 .04-.61.66-.65.66-.02 0-.17-.15-.35-.32l-.32-.32.34-.34.34-.33zm7.97 1.23L14 4.79l-1 1-1 1-1.33-1.34-1.34-1.33 1-1 1-.99zM1.48 5.12l-.99.99 1 .99.99 1 1-1 .99-1-.99-.98-1-.99zm6.54 5.65-3.33 3.32-1.33-1.33-1.33-1.33L5.35 8.1l3.33-3.33 1.33 1.34 1.34 1.33zm-5.2-4.32-.34.34-.33-.34-.34-.33.34-.34.34-.34.34.33.33.34zm9.72 4.3-1 1 1 .99 1 1 .99-1 .99-1-1-.99-.99-.99zm1.33.65c.18.17.32.32.32.34s-.62.65-.66.65l-.34-.32-.32-.32.33-.33c.18-.19.34-.34.35-.34z"/></svg>