<svg xmlns="http://www.w3.org/2000/svg" viewBox="0 0 12 16"><g fill="#414141"><path d="M6 1.535156c-.5625.671875-1.378906 1.679688-2.1875 2.804688C1.363281 7.742188 1 9.347656 1 10c0 2.761719 2.238281 5 5 5s5-2.238281 5-5c0-1.519531-1.757812-4.1875-2.800781-5.644531C7.390625 3.226562 6.570312 2.210938 6 1.535156M6 0s6 6.6875 6 10-2.6875 6-6 6-6-2.6875-6-6S6 0 6 0"/><path d="M5.175781 11.921875c.757813.34375 1.652344.179687 2.238281-.40625.589844-.589844.75-1.480469.410157-2.238281l.738281-.738282c.027344.039063.050781.082032.074219.125.632812 1.167969.425781 2.613282-.511719 3.554688-.941406.941406-2.386719 1.152344-3.554688.519531-.046874-.023437-.089843-.050781-.132812-.078125Zm0 0"/></g></svg>