<svg xmlns="http://www.w3.org/2000/svg" viewBox="0 0 16 16"><path fill="none" stroke="#414141" stroke-miterlimit="10" stroke-width="3" d="M-6.5-6.5h29v29h-29z"/><g fill="#414141"><path d="M8 0S2 6.687 2 10a6 6 0 0 0 12 0C14 6.687 8 0 8 0zm0 15a5 5 0 0 1-5-5c0-.65308.365-2.25708 2.812-5.65894C6.622 3.21484 7.436 2.208 8 1.53394c.569.677 1.389 1.69213 2.2 2.821C11.244 5.812 13 8.481 13 10a5 5 0 0 1-5 5z"/><path d="m10.562 8.53809-.739.73877a2 2 0 0 1-2.646 2.646l-.739.73926q.064.03882.132.07495a3.00008 3.00008 0 0 0 4.065-4.072c-.023-.043-.047-.08499-.073-.12698z"/></g></svg>