<svg xmlns="http://www.w3.org/2000/svg" viewBox="0 0 16 16"><path fill="#414141" d="M6.254 7.50163c0-1.106-2-3-2-3s-2 1.894-2 3a2 2 0 0 0 4 0zm-2 1a1 1 0 0 1-1-1s.026-.374.793-1.3c.07-.085.14-.167.207-.244.072.083.146.169.219.259.755.922.781 1.291.781 1.291a1 1 0 0 1-1 .994zM16 6.79563l-4.794-4.793H9v9.493h-.5v-9.493H0v9.993h.006a2 2 0 1 0 2-2 1.974 1.974 0 0 0-1.007.282v-7.275h6.5v7.676a2 2 0 1 0 .436 1.818h2.142a1.99 1.99 0 0 0 3.856.006H16zm-13.994 4.2a1 1 0 1 1-1 1 1 1 0 0 1 1-1zm4 2a1 1 0 1 1 1-1 1 1 0 0 1-1 1zm6 0a1 1 0 1 1 1-1 1 1 0 0 1-1 1zm2.994-1.493h-1.063a1.99 1.99 0 0 0-3.86-.006H10v-8.494h.793L15 7.20963z"/></svg>