<svg xmlns="http://www.w3.org/2000/svg" viewBox="0 0 16 16"><path fill="#414141" d="M8 0a8 8 0 1 0 8 8 8 8 0 0 0-8-8m6 4.5h-1.5a9 9 0 0 0-1.3-2.7A6 6 0 0 1 14 4.5m-5.5 1h3.2a10.6 10.6 0 0 1 0 5H8.5zm-1 5H4.3a10.6 10.6 0 0 1 0-5h3.2zm3.9-6H8.5V1.1c1.2.2 2.3 1.6 2.9 3.4M7.5 1.1v3.4H4.6c.6-1.8 1.7-3.2 2.9-3.4m-2.7.7a8 8 0 0 0-1.3 2.7H2a6 6 0 0 1 2.8-2.7M1 8a7 7 0 0 1 .5-2.5h1.8A10 10 0 0 0 3.1 8a20 20 0 0 0 .2 2.5H1.5A7 7 0 0 1 1 8m1 3.5h1.5a9 9 0 0 0 1.3 2.7A6 6 0 0 1 2 11.5m2.6 0h2.9v3.4c-1.2-.2-2.3-1.6-2.9-3.4m3.9 3.4v-3.4h2.9c-.6 1.8-1.7 3.2-2.9 3.4m2.7-.7a8 8 0 0 0 1.3-2.7H14a6 6 0 0 1-2.8 2.7m1.6-3.7A10 10 0 0 0 13 8a20 20 0 0 0-.2-2.5h1.8a6.5 6.5 0 0 1 0 5z"/></svg>