<svg xmlns="http://www.w3.org/2000/svg" viewBox="4 4 8 8"><path fill="#414141" d="M8 4a4 4 0 1 1 0 8 4 4 0 0 1 0-8Zm0 7.5a3.5 3.5 0 1 0 0-7 3.5 3.5 0 0 0 0 7Zm1.1-1.25a.25.25 0 0 1-.25-.2 9.73 9.73 0 0 0-.55-2.16 1.5 1.5 0 0 0-.42-.28C7.51 7.4 7 7.12 7 6.5c0-.59.55-1.1.96-1.5.1-.09.2-.18.29-.29a.86.86 0 0 0-.18-.29l.36-.34c.18.18.3.42.32.67 0 .2-.16.34-.45.62-.32.3-.8.76-.8 1.13 0 .3.23.46.62.67.22.1.43.25.58.44.26.57.44 1.17.54 1.79.5-.64.92-1.32 1.28-2.05.1-.36.31-.67.61-.89.06-.04.13-.08.2-.16l.33.38-.23.2c-.18.12-.25.17-.45.66-.47.93-1.04 1.8-1.7 2.61a.25.25 0 0 1-.19.1Zm-4.03 0-.14-.5c.58-.22.9-.83.8-1.43-.07-.43-.77-1.1-1.2-1.07l-.05-.5c.42 0 .82.18 1.11.48.32.26.53.62.62 1.01.16.86-.32 1.7-1.14 2Zm0 0"/></svg>