<svg xmlns="http://www.w3.org/2000/svg" viewBox="0 0 16 16"><path fill="#414141" d="M8 0a8 8 0 1 0 8 8 8 8 0 0 0-8-8zm6 4.5h-1.5a8.4909 8.4909 0 0 0-1.3-2.7A6.10022 6.10022 0 0 1 14 4.5zm-5.5 1h3.2a10.56744 10.56744 0 0 1 0 5H8.5zm-1 5H4.3a10.56744 10.56744 0 0 1 0-5h3.2zm3.9-6H8.5V1.1c1.2.2 2.3 1.6 2.9 3.4zM7.5 1.1v3.4H4.6c.6-1.8 1.7-3.2 2.9-3.4zm-2.7.7a7.54041 7.54041 0 0 0-1.3 2.7H2a6.10022 6.10022 0 0 1 2.8-2.7zM1 8a6.9641 6.9641 0 0 1 .5-2.5h1.8A10.14574 10.14574 0 0 0 3.1 8a19.47457 19.47457 0 0 0 .2 2.5H1.5A6.9641 6.9641 0 0 1 1 8zm1 3.5h1.5a8.4909 8.4909 0 0 0 1.3 2.7A6.10022 6.10022 0 0 1 2 11.5zm2.6 0h2.9v3.4c-1.2-.2-2.3-1.6-2.9-3.4zm3.9 3.4v-3.4h2.9c-.6 1.8-1.7 3.2-2.9 3.4zm2.7-.7a7.54041 7.54041 0 0 0 1.3-2.7H14a6.10022 6.10022 0 0 1-2.8 2.7zm1.6-3.7A10.14574 10.14574 0 0 0 13 8a19.47637 19.47637 0 0 0-.2-2.5h1.8a6.49988 6.49988 0 0 1 0 5z"/></svg>