<svg xmlns="http://www.w3.org/2000/svg" viewBox="4 4 8 8"><path fill="#414141" d="M8 4a4 4 0 1 1 0 8 4 4 0 0 1 0-8m0 7.5a3.5 3.5 0 1 0 0-7 3.5 3.5 0 0 0 0 7m1.1-1.25a.25.25 0 0 1-.25-.2 10 10 0 0 0-.55-2.16 2 2 0 0 0-.42-.28C7.51 7.4 7 7.12 7 6.5c0-.59.55-1.1.96-1.5q.15-.13.29-.29a1 1 0 0 0-.18-.29l.36-.34q.28.28.32.67c0 .2-.16.34-.45.62-.32.3-.8.76-.8 1.13 0 .3.23.46.62.67q.34.15.58.44.39.86.54 1.79.74-.96 1.28-2.05.16-.55.61-.89.1-.05.2-.16l.33.38-.23.2c-.18.12-.25.17-.45.66q-.7 1.4-1.7 2.61a.3.3 0 0 1-.19.1Zm-4.03 0-.14-.5c.58-.22.9-.83.8-1.43-.07-.43-.77-1.1-1.2-1.07l-.05-.5c.42 0 .82.18 1.11.48q.48.4.62 1.01c.16.86-.32 1.7-1.14 2Zm0 0"/></svg>