<svg xmlns="http://www.w3.org/2000/svg" viewBox="4 4 8 8"><g fill="#414141"><path d="M8 4c2.210938 0 4 1.789062 4 4s-1.789062 4-4 4-4-1.789062-4-4c.003906-2.207031 1.792969-3.996094 4-4Zm0 7.5c1.933594 0 3.5-1.566406 3.5-3.5S9.933594 4.5 8 4.5 4.5 6.066406 4.5 8c.003906 1.933594 1.566406 3.496094 3.5 3.5Zm0 0"/><path d="M9.09375 10.25c-.121094 0-.226562-.085938-.246094-.207031-.101562-.738281-.285156-1.457031-.550781-2.152344-.121094-.117187-.261719-.214844-.414063-.285156C7.507812 7.402344 7 7.125 7 6.5c0-.585938.554688-1.109375.957031-1.492188.101563-.09375.199219-.191406.289063-.292968-.039063-.109375-.097656-.207032-.175782-.292969l.359376-.34375c.179687.179687.292968.417969.320312.671875 0 .195312-.160156.34375-.449219.621094C7.980469 5.667969 7.5 6.128906 7.5 6.5c0 .308594.234375.457031.621094.667969.222656.101562.425781.25.582031.441406.261719.566406.441406 1.171875.535156 1.789063.496094-.636719.925781-1.320313 1.28125-2.046876.09375-.359374.3125-.671874.613281-.886718.058594-.042969.125-.089844.203126-.160156l.328124.378906c-.09375.082031-.171874.140625-.234374.1875-.179688.128906-.246094.175781-.453126.667968-.46875.929688-1.035156 1.804688-1.691406 2.613282-.046875.058594-.117187.097656-.191406.097656Zm-4.027344-.007812-.132812-.484376c.574218-.230468.902344-.835937.789062-1.441406-.058594-.421875-.761718-1.105468-1.199218-1.0625l-.046876-.5c.421876 0 .824219.171875 1.113282.476563.316406.257812.535156.617187.625 1.011719.15625.859374-.328125 1.703124-1.148438 2Zm0 0"/></g></svg>