<svg xmlns="http://www.w3.org/2000/svg" viewBox="0 0 16 16"><path fill="#414141" d="M3 5.5h6v1H3z"/><path fill="#414141" d="M6.1 12.1001a6 6 0 116-6 6 6 0 01-6 6zm0-11a4.951 4.951 0 00-5 4.90151q-.00049.04924 0 .09849a4.951 4.951 0 004.90151 5q.04924.00048.09849 0a4.951 4.951 0 005-4.90151q.00048-.04925 0-.09849a4.951 4.951 0 00-4.90152-5q-.04925-.00049-.09848 0z"/><path fill="#414141" d="M9.5837681337 10.4417510127l.7071067812-.7071067812 4.8790367901 4.8790367902-.7071067811.7071067812z"/></svg>