<svg xmlns="http://www.w3.org/2000/svg" width="48" height="48" viewBox="0 0 48 48">
  <g id="Ghost-32" transform="translate(-417 -1661)">
    <rect id="Rectangle_724" data-name="Rectangle 724" width="48" height="48" transform="translate(417 1661)" fill="none"/>
    <g id="Group_4020" data-name="Group 4020">
      <g id="Path_1217" transform="translate(429 1669)">
        <path id="Path_2092" data-name="Path 2092" d="M12,0A12.035,12.035,0,0,1,24,12V32l-4-4-4,4-4-4L8,32,4,28,0,32V12A12.035,12.035,0,0,1,12,0Z" fill="none"/>
        <path id="Path_2093" data-name="Path 2093" d="M12,2A10.029,10.029,0,0,0,2,12V27.2l.6-.6L4,25.2l1.4,1.4L8,29.2l2.6-2.6L12,25.2l1.4,1.4L16,29.2l2.6-2.6L20,25.2l1.4,1.4.6.6V12A10.029,10.029,0,0,0,12,2m0-2A12.035,12.035,0,0,1,24,12V32l-4-4-4,4-4-4L8,32,4,28,0,32V12A12.035,12.035,0,0,1,12,0Z" fill="#414141"/>
      </g>
      <rect id="Rectangle_1965" data-name="Rectangle 1965" width="4" height="4" transform="translate(435 1681)" fill="#414141"/>
      <rect id="Rectangle_1966" data-name="Rectangle 1966" width="4" height="4" transform="translate(443 1681)" fill="#414141"/>
    </g>
  </g>
</svg>
