<svg xmlns="http://www.w3.org/2000/svg" width="48" height="48" viewBox="0 0 48 48">
  <g id="Level0-success-32-color" transform="translate(-3005 616)">
    <rect id="Rectangle_974" data-name="Rectangle 974" width="48" height="48" transform="translate(3005 -616)" fill="none"/>
    <g id="Ellipse_271" data-name="Ellipse 271" transform="translate(3005 -616)">
      <circle id="Ellipse_258" data-name="Ellipse 258" cx="20" cy="20" r="20" transform="translate(4 4)" fill="none"/>
      <path id="Path_2680" data-name="Path 2680" d="M24,44A20,20,0,1,1,44,24,20.023,20.023,0,0,1,24,44ZM24,6A18,18,0,1,0,42,24,18.021,18.021,0,0,0,24,6Z" fill="#63a621"/>
    </g>
    <path id="Path_3051" data-name="Path 3051" d="M19.05,32.878l-6.464-6.464,2.828-2.828,3.536,3.536L31.538,13.635l2.924,2.729Z" transform="translate(3005 -616)" fill="#63a621"/>
  </g>
</svg>
