<svg xmlns="http://www.w3.org/2000/svg" width="48" height="48" viewBox="0 0 48 48">
  <g id="Level5-unsuccess-32" transform="translate(-638 -1350)">
    <rect id="Rectangle_1007" data-name="Rectangle 1007" width="48" height="48" transform="translate(638 1350)" fill="none"/>
    <rect id="Rectangle_2120" data-name="Rectangle 2120" width="48" height="48" transform="translate(638 1350)" fill="none"/>
    <g id="Group_4700" transform="translate(-239 -373)">
      <rect id="Rectangle_2060" data-name="Rectangle 2060" width="4" height="4" transform="translate(899 1755)" fill="#414141"/>
      <rect id="Rectangle_2061" data-name="Rectangle 2061" width="4" height="16" transform="translate(899 1735)" fill="#414141"/>
      <rect id="Rectangle_2062" data-name="Rectangle 2062" width="4" height="4" transform="translate(907 1755)" fill="#414141"/>
      <rect id="Rectangle_2063" data-name="Rectangle 2063" width="4" height="16" transform="translate(907 1735)" fill="#414141"/>
      <rect id="Rectangle_2064" data-name="Rectangle 2064" width="4" height="4" transform="translate(891 1755)" fill="#414141"/>
      <rect id="Rectangle_2065" data-name="Rectangle 2065" width="4" height="16" transform="translate(891 1735)" fill="#414141"/>
    </g>
    <g id="Ellipse_271" data-name="Ellipse 271" transform="translate(638 1350)">
      <circle id="Ellipse_258" data-name="Ellipse 258" cx="20" cy="20" r="20" transform="translate(4 4)" fill="none"/>
      <path id="Path_2680" data-name="Path 2680" d="M24,44A20,20,0,1,1,44,24,20.023,20.023,0,0,1,24,44ZM24,6A18,18,0,1,0,42,24,18.021,18.021,0,0,0,24,6Z" fill="#414141"/>
    </g>
  </g>
</svg>
