<svg xmlns="http://www.w3.org/2000/svg" width="48" height="48" viewBox="0 0 48 48">
  <g id="LocationPin-32" transform="translate(-778 -1408)">
    <rect id="Rectangle_1005" data-name="Rectangle 1005" width="48" height="48" transform="translate(778 1408)" fill="none"/>
    <g id="Group_2330" data-name="Group 2330" transform="translate(778 1408)">
      <path id="Path_2344" data-name="Path 2344" d="M23.977,40.057l-.763-.872a88.037,88.037,0,0,1-5.563-7.057,50.577,50.577,0,0,1-3.9-6.347A13.851,13.851,0,0,1,12,20.142a12.122,12.122,0,0,1,3.514-8.611,11.975,11.975,0,0,1,16.912-.056A12.133,12.133,0,0,1,36,20.061c0,2.741-1.979,6.885-5.883,12.316-2.111,2.944-5.256,6.642-5.389,6.8Zm.005-30.045a9.9,9.9,0,0,0-7.048,2.93A10.079,10.079,0,0,0,14,20.054a11.861,11.861,0,0,0,1.51,4.772,48.907,48.907,0,0,0,3.768,6.139c1.466,2.07,3.035,4.089,4.678,6.018,1.076-1.292,3.086-3.75,4.537-5.773C33.284,24.544,34,21.361,34,20.057A10.009,10.009,0,0,0,23.982,10.012ZM24,26a6,6,0,0,1,0-12h0a6,6,0,0,1,0,12Zm0-10a4,4,0,1,0,4,4A4,4,0,0,0,24,16Z" fill="#414141"/>
    </g>
  </g>
</svg>
