<svg xmlns="http://www.w3.org/2000/svg" width="48" height="48" viewBox="0 0 48 48">
  <g id="Plane-32" transform="translate(-568 -1719)">
    <rect id="Rectangle_724" data-name="Rectangle 724" width="48" height="48" transform="translate(568 1719)" fill="none"/>
    <g id="Group_2570">
      <path id="Path_2096" data-name="Path 2096" d="M608,1743a6.018,6.018,0,0,1-6,6h-4l-8,6H580l5.9-6-9.9-2v-12h4l2.1,2h3.8l-5.9-6h10l8,6h4A6.018,6.018,0,0,1,608,1743Z" fill="none"/>
      <path id="Path_2097" data-name="Path 2097" d="M602,1737h-4l-8-6H580l5.9,6h-3.8l-2.1-2h-4v12l9.9,2-5.9,6h10l8-6h4a6,6,0,1,0,0-12Zm-17.3-4h4.6l5.4,4h-6.1l-1.4-1.4Zm4.7,20h-4.6l2.5-2.6,1.4-1.4h6.1Zm12.6-6H586l-8-1.6V1737h1.2l2,2H602a4,4,0,0,1,0,8Z" fill="#414141"/>
    </g>
  </g>
</svg>
