<svg xmlns="http://www.w3.org/2000/svg" width="32" height="32" viewBox="0 0 32 32">
  <g id="BookOpen-16" transform="translate(-891 -3227)">
    <rect id="Rectangle_724" data-name="Rectangle 724" width="32" height="32" transform="translate(891 3227)" fill="none"/>
    <g id="Group_5604" data-name="Group 5604" transform="translate(891 3227)">
      <rect id="Rectangle_2094" data-name="Rectangle 2094" width="4.123" height="1" transform="translate(17.883 19.514) rotate(-14.009)" fill="#414141"/>
      <g id="Path_2413" data-name="Path 2413">
        <path id="Path_2439" data-name="Path 2439" d="M8,8l8,2,8-2V22l-8,2L8,22Z" fill="none"/>
        <path id="Path_2440" data-name="Path 2440" d="M16,10,8,8V22l8,2,8-2V8ZM9,9.281l6.5,1.625V22.844L9,21.219ZM23,21.219l-6.5,1.625V10.906L23,9.281Z" fill="#414141"/>
      </g>
      <rect id="Rectangle_2095" data-name="Rectangle 2095" width="1" height="4.123" transform="translate(9.883 19.485) rotate(-75.964)" fill="#414141"/>
      <rect id="Rectangle_2096" data-name="Rectangle 2096" width="1" height="4.123" transform="matrix(0.243, -0.97, 0.97, 0.243, 9.883, 16.485)" fill="#414141"/>
      <rect id="Rectangle_2097" data-name="Rectangle 2097" width="1" height="4.123" transform="translate(9.883 13.485) rotate(-75.964)" fill="#414141"/>
      <rect id="Rectangle_2098" data-name="Rectangle 2098" width="4.123" height="1" transform="matrix(0.97, -0.242, 0.242, 0.97, 17.883, 16.514)" fill="#414141"/>
      <rect id="Rectangle_2099" data-name="Rectangle 2099" width="4.123" height="1" transform="matrix(0.97, -0.242, 0.242, 0.97, 17.883, 13.515)" fill="#414141"/>
    </g>
  </g>
</svg>
