<svg xmlns="http://www.w3.org/2000/svg" width="32" height="32" viewBox="0 0 32 32">
  <g id="Eye-16" transform="translate(-979.5 -516.5)">
    <rect id="Rectangle_1000" data-name="Rectangle 1000" width="32" height="32" transform="translate(979.5 516.5)" fill="none"/>
    <g id="Path_2421" data-name="Path 2421" transform="translate(979.5 516.5)">
      <path id="Path_2448" data-name="Path 2448" d="M16,10c4,0,8,6,8,6s-3.582,6-8,6-8-6-8-6S12,10,16,10Z" fill="none"/>
      <g id="Group_5606" data-name="Group 5606">
        <path id="Path_2449" data-name="Path 2449" d="M16,13a3,3,0,1,0,3,3A3,3,0,0,0,16,13Zm0,5a2,2,0,1,1,2-2A2,2,0,0,1,16,18Z" fill="#414141"/>
        <path id="Path_2450" data-name="Path 2450" d="M16,10c-4,0-8,6-8,6s3.582,6,8,6,8-6,8-6S20,10,16,10Zm4.91,8.333C19.73,19.55,17.921,21,16,21s-3.751-1.465-4.937-2.694a18.07,18.07,0,0,1-1.852-2.279,21.62,21.62,0,0,1,2.019-2.343C12.992,11.928,14.642,11,16,11s3.022.936,4.793,2.707a21.852,21.852,0,0,1,2,2.319A17.984,17.984,0,0,1,20.91,18.333Z" fill="#414141"/>
      </g>
    </g>
  </g>
</svg>
