<svg xmlns="http://www.w3.org/2000/svg" width="32" height="32" viewBox="0 0 32 32">
  <g id="Globe-16" transform="translate(-921 -525)">
    <rect id="Rectangle_724" data-name="Rectangle 724" width="32" height="32" transform="translate(921 525)" fill="none"/>
    <path id="Path_2328" data-name="Path 2328" d="M937,533a8,8,0,1,0,8,8A8.023,8.023,0,0,0,937,533Zm6,4.5h-1.5a8.49,8.49,0,0,0-1.3-2.7A6.1,6.1,0,0,1,943,537.5Zm-5.5,1h3.2a10.567,10.567,0,0,1,0,5h-3.2Zm-1,5h-3.2a10.567,10.567,0,0,1,0-5h3.2Zm3.9-6h-2.9v-3.4C938.7,534.3,939.8,535.7,940.4,537.5Zm-3.9-3.4v3.4h-2.9C934.2,535.7,935.3,534.3,936.5,534.1Zm-2.7.7a7.541,7.541,0,0,0-1.3,2.7H931A6.1,6.1,0,0,1,933.8,534.8ZM930,541a6.963,6.963,0,0,1,.5-2.5h1.8a10.144,10.144,0,0,0-.2,2.5,19.474,19.474,0,0,0,.2,2.5h-1.8A6.963,6.963,0,0,1,930,541Zm1,3.5h1.5a8.49,8.49,0,0,0,1.3,2.7A6.1,6.1,0,0,1,931,544.5Zm2.6,0h2.9v3.4C935.3,547.7,934.2,546.3,933.6,544.5Zm3.9,3.4v-3.4h2.9C939.8,546.3,938.7,547.7,937.5,547.9Zm2.7-.7a7.541,7.541,0,0,0,1.3-2.7H943A6.1,6.1,0,0,1,940.2,547.2Zm1.6-3.7a10.144,10.144,0,0,0,.2-2.5,19.474,19.474,0,0,0-.2-2.5h1.8a6.5,6.5,0,0,1,0,5Z" fill="#414141"/>
  </g>
</svg>
