<svg xmlns="http://www.w3.org/2000/svg" width="32" height="32" viewBox="0 0 32 32">
  <g id="Info-16" transform="translate(-607.5 -897.5)">
    <rect id="Rectangle_1005" data-name="Rectangle 1005" width="32" height="32" transform="translate(607.5 897.5)" fill="none"/>
    <g id="Group_3983" data-name="Group 3983">
      <g id="Ellipse_14" transform="translate(615.5 905.5)">
        <circle id="Ellipse_210" data-name="Ellipse 210" cx="8" cy="8" r="8" fill="none"/>
        <path id="Path_1894" data-name="Path 1894" d="M8,16a8,8,0,1,1,8-8A8.024,8.024,0,0,1,8,16ZM8,1A6.957,6.957,0,0,0,1,8a6.957,6.957,0,0,0,7,7,6.957,6.957,0,0,0,7-7A6.957,6.957,0,0,0,8,1Z" fill="#414141"/>
      </g>
      <rect id="Rectangle_1858" data-name="Rectangle 1858" width="1" height="6" transform="translate(623 911.5)" fill="#414141"/>
      <rect id="Rectangle_1859" data-name="Rectangle 1859" width="1" height="1" transform="translate(623 909.5)" fill="#414141"/>
    </g>
  </g>
</svg>
