<svg xmlns="http://www.w3.org/2000/svg" width="32" height="32" viewBox="0 0 32 32">
  <g id="Level5-unsucess-MarkerD-16" transform="translate(-576 -3404)">
    <rect id="Rectangle_999" data-name="Rectangle 999" width="32" height="32" transform="translate(576 3404)" fill="none"/>
    <g id="Union_115" data-name="Union 115" transform="translate(576 3404)">
      <path id="Path_2978" data-name="Path 2978" d="M16,30.992l-4.137-7.24-.144-.252H9.287L2.579,12,9.287.5H22.713L29.421,12,22.713,23.5H20.281l-.144.252Z" fill="#fff"/>
      <path id="Path_2979" data-name="Path 2979" d="M16,29.984l3.7-6.48.287-.5h2.436l6.416-11L22.426,1H9.574L3.158,12,9.574,23h2.435l.288.5,3.7,6.48M16,32l-4.571-8H9L2,12,9,0H23l7,12L23,24H20.571Z" fill="#414141"/>
    </g>
    <g id="Group_5725" data-name="Group 5725" transform="translate(576 3402)">
      <g id="Group_4688" data-name="Group 4688">
        <g id="Group_4666" data-name="Group 4666">
          <rect id="Rectangle_2186" data-name="Rectangle 2186" width="2" height="2" transform="translate(15.056 18)" fill="#414141"/>
        </g>
        <rect id="Rectangle_2187" data-name="Rectangle 2187" width="2" height="8" transform="translate(15 8)" fill="#414141"/>
      </g>
      <g id="Group_4689" data-name="Group 4689">
        <g id="Group_4666-2" data-name="Group 4666-2">
          <rect id="Rectangle_2188" data-name="Rectangle 2188" width="2" height="2" transform="translate(19.056 18)" fill="#414141"/>
        </g>
        <rect id="Rectangle_2189" data-name="Rectangle 2189" width="2" height="8" transform="translate(19 8)" fill="#414141"/>
      </g>
      <g id="Group_4690" data-name="Group 4690">
        <g id="Group_4666-3" data-name="Group 4666-3">
          <rect id="Rectangle_2190" data-name="Rectangle 2190" width="2" height="2" transform="translate(11.056 18)" fill="#414141"/>
        </g>
        <rect id="Rectangle_2191" data-name="Rectangle 2191" width="2" height="8" transform="translate(11 8)" fill="#414141"/>
      </g>
    </g>
  </g>
</svg>
