<svg xmlns="http://www.w3.org/2000/svg" width="32" height="32" viewBox="0 0 32 32">
  <g id="Level4MarkerA-16-color" transform="translate(-560 -3421)">
    <rect id="Rectangle_974" data-name="Rectangle 974" width="32" height="32" transform="translate(560 3421)" fill="rgba(0,0,0,0)"/>
    <path id="Path_2972" data-name="Path 2972" d="M16,30.992l-4.831-8.453-.076-.134-.138-.067A11.5,11.5,0,0,1,4.5,12,11.5,11.5,0,1,1,21.045,22.338l-.138.067-.076.134Z" transform="translate(560 3421)" fill="#fff"/>
    <g id="Group_5802" data-name="Group 5802">
      <path id="Path_2973" data-name="Path 2973" d="M16,29.984l4.4-7.693.153-.267.276-.136a11,11,0,1,0-9.65,0l.276.136.153.267L16,29.984M16,32l-5.265-9.213a12,12,0,1,1,10.53,0Z" transform="translate(560 3421)" fill="#e68c17"/>
      <g id="Group_4686" data-name="Group 4686" transform="translate(560 3419)">
        <g id="Group_4666" data-name="Group 4666">
          <rect id="Rectangle_2144" data-name="Rectangle 2144" width="2" height="2" transform="translate(13.056 18)" fill="#e68c17"/>
        </g>
        <rect id="Rectangle_2145" data-name="Rectangle 2145" width="2" height="8" transform="translate(13 8)" fill="#e68c17"/>
      </g>
      <g id="Group_4687" data-name="Group 4687" transform="translate(560 3419)">
        <g id="Group_4666-2" data-name="Group 4666-2">
          <rect id="Rectangle_2146" data-name="Rectangle 2146" width="2" height="2" transform="translate(17.056 18)" fill="#e68c17"/>
        </g>
        <rect id="Rectangle_2147" data-name="Rectangle 2147" width="2" height="8" transform="translate(17 8)" fill="#e68c17"/>
      </g>
    </g>
  </g>
</svg>
