<svg xmlns="http://www.w3.org/2000/svg" width="32" height="32" viewBox="0 0 32 32">
  <g id="Level5-unsuccess-16" transform="translate(-337 -681)">
    <rect id="Rectangle_1007" data-name="Rectangle 1007" width="32" height="32" transform="translate(337 681)" fill="none"/>
    <g id="Group_4696" transform="translate(-365 -2484)">
      <g id="Group_4666" transform="translate(2348 2790) rotate(90)">
        <rect id="Rectangle_2047" data-name="Rectangle 2047" width="2" height="2" transform="translate(395 1628.9)" fill="#414141"/>
      </g>
      <rect id="Rectangle_2048" data-name="Rectangle 2048" width="2" height="8" transform="translate(717 3175)" fill="#414141"/>
    </g>
    <g id="Group_4697" transform="translate(-361 -2484)">
      <g id="Group_4666-2" transform="translate(2348 2790) rotate(90)">
        <rect id="Rectangle_2049" data-name="Rectangle 2049" width="2" height="2" transform="translate(395 1628.9)" fill="#414141"/>
      </g>
      <rect id="Rectangle_2050" data-name="Rectangle 2050" width="2" height="8" transform="translate(717 3175)" fill="#414141"/>
    </g>
    <g id="Group_4698" transform="translate(-369 -2484)">
      <g id="Group_4666-3" transform="translate(2348 2790) rotate(90)">
        <rect id="Rectangle_2051" data-name="Rectangle 2051" width="2" height="2" transform="translate(395 1628.9)" fill="#414141"/>
      </g>
      <rect id="Rectangle_2052" data-name="Rectangle 2052" width="2" height="8" transform="translate(717 3175)" fill="#414141"/>
    </g>
    <g id="Ellipse_269" data-name="Ellipse 269" transform="translate(337 681)">
      <circle id="Ellipse_257" data-name="Ellipse 257" cx="12" cy="12" r="12" transform="translate(4 4)" fill="none"/>
      <path id="Path_2675" data-name="Path 2675" d="M16,28A12,12,0,1,1,28,16,12.013,12.013,0,0,1,16,28ZM16,5A11,11,0,1,0,27,16,11.013,11.013,0,0,0,16,5Z" fill="#414141"/>
    </g>
  </g>
</svg>
