<svg xmlns="http://www.w3.org/2000/svg" width="32" height="32" viewBox="0 0 32 32">
  <g id="Level4-16-color" transform="translate(-233 -340)">
    <rect id="Rectangle_999" data-name="Rectangle 999" width="32" height="32" transform="translate(233 340)" fill="none"/>
    <g id="Group_5636" data-name="Group 5636">
      <g id="Group_4686" transform="translate(-471 -2825)">
        <g id="Group_4666" transform="translate(2348 2790) rotate(90)">
          <rect id="Rectangle_2030" data-name="Rectangle 2030" width="2" height="2" transform="translate(395 1628.9)" fill="#e68c17"/>
        </g>
        <rect id="Rectangle_2031" data-name="Rectangle 2031" width="2" height="8" transform="translate(717 3175)" fill="#e68c17"/>
      </g>
      <g id="Group_4687" transform="translate(-467 -2825)">
        <g id="Group_4666-2" transform="translate(2348 2790) rotate(90)">
          <rect id="Rectangle_2032" data-name="Rectangle 2032" width="2" height="2" transform="translate(395 1628.9)" fill="#e68c17"/>
        </g>
        <rect id="Rectangle_2033" data-name="Rectangle 2033" width="2" height="8" transform="translate(717 3175)" fill="#e68c17"/>
      </g>
    </g>
    <path id="Path_2678" data-name="Path 2678" d="M16,28A12,12,0,1,1,28,16,12.013,12.013,0,0,1,16,28ZM16,5A11,11,0,1,0,27,16,11.013,11.013,0,0,0,16,5Z" transform="translate(233 340)" fill="#e68c17"/>
  </g>
</svg>
