<svg xmlns="http://www.w3.org/2000/svg" width="32" height="32" viewBox="0 0 32 32">
  <g id="Level5-unsuccess-16-color" transform="translate(-233 -404)">
    <rect id="Rectangle_1007" data-name="Rectangle 1007" width="32" height="32" transform="translate(233 404)" fill="none"/>
    <g id="Group_5637" data-name="Group 5637">
      <g id="Group_4688" transform="translate(-469 -2761)">
        <g id="Group_4666" transform="translate(2348 2790) rotate(90)">
          <rect id="Rectangle_2034" data-name="Rectangle 2034" width="2" height="2" transform="translate(395 1628.9)" fill="#d13f3f"/>
        </g>
        <rect id="Rectangle_2035" data-name="Rectangle 2035" width="2" height="8" transform="translate(717 3175)" fill="#d13f3f"/>
      </g>
      <g id="Group_4689" transform="translate(-465 -2761)">
        <g id="Group_4666-2" transform="translate(2348 2790) rotate(90)">
          <rect id="Rectangle_2036" data-name="Rectangle 2036" width="2" height="2" transform="translate(395 1628.9)" fill="#d13f3f"/>
        </g>
        <rect id="Rectangle_2037" data-name="Rectangle 2037" width="2" height="8" transform="translate(717 3175)" fill="#d13f3f"/>
      </g>
      <g id="Group_4690" transform="translate(-473 -2761)">
        <g id="Group_4666-3" transform="translate(2348 2790) rotate(90)">
          <rect id="Rectangle_2038" data-name="Rectangle 2038" width="2" height="2" transform="translate(395 1628.9)" fill="#d13f3f"/>
        </g>
        <rect id="Rectangle_2039" data-name="Rectangle 2039" width="2" height="8" transform="translate(717 3175)" fill="#d13f3f"/>
      </g>
    </g>
    <path id="Path_2679" data-name="Path 2679" d="M16,28A12,12,0,1,1,28,16,12.013,12.013,0,0,1,16,28ZM16,5A11,11,0,1,0,27,16,11.013,11.013,0,0,0,16,5Z" transform="translate(233 404)" fill="#d13f3f"/>
  </g>
</svg>
