<svg xmlns="http://www.w3.org/2000/svg" width="32" height="32" viewBox="0 0 32 32">
  <g id="Level0-success-MarkerB-16-color" transform="translate(-709 -3420)">
    <rect id="Rectangle_974" data-name="Rectangle 974" width="32" height="32" transform="translate(709 3420)" fill="none"/>
    <path id="Path_2974" data-name="Path 2974" d="M16,30.992l-4.137-7.241-.144-.251H4.5V.5h23v23H20.282l-.144.251Z" transform="translate(709 3420)" fill="#fff"/>
    <g id="Group_5804" data-name="Group 5804">
      <path id="Path_2975" data-name="Path 2975" d="M16,29.984,19.7,23.5l.287-.5H27V1H5V23h7.009l.288.5L16,29.984M16,32l-4.571-8H4V0H28V24H20.572Z" transform="translate(709 3420)" fill="#63a621"/>
      <path id="Path_2984" data-name="Path 2984" d="M14.049,17.963l-3.756-3.756,1.414-1.414,2.244,2.244,6.3-7.2,1.506,1.317Z" transform="translate(709 3420)" fill="#63a621"/>
    </g>
  </g>
</svg>
