<svg xmlns="http://www.w3.org/2000/svg" width="32" height="32" viewBox="0 0 32 32">
  <g id="Move-16" transform="translate(-533 -411)">
    <rect id="Rectangle_724" data-name="Rectangle 724" width="32" height="32" transform="translate(533 411)" fill="none"/>
    <path id="Path_1908" data-name="Path 1908" d="M553.6,423.8l-.7.7,2,2h-5.4v-5.4l2,2,.7-.7-3.2-3.1-3.1,3.1.7.7,1.9-1.9v5.3h-5.3l2-2-.7-.7-3.2,3.2,3.2,3.2.7-.7-2-2h5.3v5.3l-1.9-2-.7.7,3.1,3.2,3.2-3.2-.7-.7-2,2v-5.3h5.3l-1.9,2,.7.7,3.2-3.2Z" fill="#414141"/>
  </g>
</svg>
