<svg xmlns="http://www.w3.org/2000/svg" width="32" height="32" viewBox="0 0 32 32">
  <g id="Settings-16" transform="translate(-435.5 -990.5)">
    <rect id="Rectangle_1010" data-name="Rectangle 1010" width="32" height="32" transform="translate(435.5 990.5)" fill="none"/>
    <g id="Group_3901" transform="translate(-42)">
      <circle id="Ellipse_212" data-name="Ellipse 212" cx="6" cy="6" r="6" transform="translate(487.5 1000.5)" fill="none"/>
      <path id="Path_1907" data-name="Path 1907" d="M501.5,1007v-1h-2a6.061,6.061,0,0,0-1.4-3.4l1.4-1.4-.7-.7-1.4,1.4a5.784,5.784,0,0,0-3.4-1.4v-2h-1v2a6.06,6.06,0,0,0-3.4,1.4l-1.5-1.5-.7.7,1.5,1.5a5.784,5.784,0,0,0-1.4,3.4h-2v1h2a6.061,6.061,0,0,0,1.4,3.4l-1.4,1.4.7.7,1.4-1.4a5.784,5.784,0,0,0,3.4,1.4v2h1v-2a6.06,6.06,0,0,0,3.4-1.4l1.4,1.4.7-.7-1.4-1.4a5.784,5.784,0,0,0,1.4-3.4Zm-8-5.5a5.127,5.127,0,0,1,3.4,1.3l.3.3a5.127,5.127,0,0,1,1.3,3.4,4.689,4.689,0,0,1-1.3,3.3l-.4.4a4.958,4.958,0,0,1-6.8-.1l-.2-.2a5.27,5.27,0,0,1-1.4-3.5A5.083,5.083,0,0,1,493.5,1001.5Z" fill="#414141"/>
    </g>
  </g>
</svg>
