<svg xmlns="http://www.w3.org/2000/svg" width="32" height="32" viewBox="0 0 32 32">
  <g id="PaginationOtherPage-12" transform="translate(-758 -857)">
    <rect id="Rectangle_1215" data-name="Rectangle 1215" width="32" height="32" transform="translate(758 857)" fill="none"/>
    <g id="Group_2481" data-name="Group 2481" transform="translate(768 879) rotate(-90)">
      <g id="Group_50" data-name="Group 50">
        <g id="Path_56" data-name="Path 56" transform="translate(-12 -775.1)">
          <path id="Path_1997" data-name="Path 1997" d="M18,786.6a5.5,5.5,0,1,1,5.5-5.5A5.506,5.506,0,0,1,18,786.6Z" fill="#fff"/>
          <path id="Path_1998" data-name="Path 1998" d="M18,786.1a5,5,0,1,0-5-5,5.006,5.006,0,0,0,5,5m0,1a6,6,0,1,1,6-6A6.018,6.018,0,0,1,18,787.1Z" fill="#414141"/>
        </g>
      </g>
    </g>
  </g>
</svg>
