<svg xmlns="http://www.w3.org/2000/svg" width="112" height="112" viewBox="0 0 112 112">
  <g id="Ghost-96" transform="translate(-627 -356)">
    <rect id="Rectangle_724" data-name="Rectangle 724" width="112" height="112" transform="translate(627 356)" fill="none"/>
    <g id="Path_1217" data-name="Path 1217" transform="translate(627 356)">
      <path id="Path_3026" data-name="Path 3026" d="M56,8A36,36,0,0,1,92,44v60L80,92,68,104,56,92,44.11,104,32,92,20,104V44A36,36,0,0,1,56,8Z" fill="none"/>
      <path id="Path_3027" data-name="Path 3027" d="M56,14A30.034,30.034,0,0,0,26,44V89.515l1.757-1.758,4.224-4.223,4.242,4.2,7.848,7.777,7.667-7.738L55.98,83.5l4.263,4.262L68,95.515l7.757-7.758L80,83.515l4.243,4.242L86,89.515V44A30.034,30.034,0,0,0,56,14m0-6A36,36,0,0,1,92,44v60L80,92,68,104,56,92,44.11,104,32,92,20,104V44A36,36,0,0,1,56,8Z" fill="#414141"/>
    </g>
    <rect id="Rectangle_2260" data-name="Rectangle 2260" width="12" height="12" transform="translate(665 400)" fill="#414141"/>
    <rect id="Rectangle_2261" data-name="Rectangle 2261" width="12" height="12" transform="translate(689 400)" fill="#414141"/>
  </g>
</svg>
