<?xml version="1.0" encoding="utf-8"?>
<!-- Generator: Adobe Illustrator 23.0.6, SVG Export Plug-In . SVG Version: 6.00 Build 0)  -->
<svg version="1.1" id="bd420639-0b34-4463-a44b-7782b70e6125"
	 xmlns="http://www.w3.org/2000/svg" xmlns:xlink="http://www.w3.org/1999/xlink" x="0px" y="0px" viewBox="0 0 850.31 567.9"
	 enable-background="new 0 0 850.31 567.9" xml:space="preserve">
<g opacity="0.5">
	<g>
		<g opacity="0.2">
			<g opacity="0.1">
				<polygon fill="#AAAAAA" points="587.33,526.03 624.55,547.76 644.03,495.83 				"/>
				<polygon fill="#AAAAAA" points="757.58,522.6 727.7,433.78 806.72,504.09 				"/>
				<polygon fill="#AAAAAA" points="833.98,429.67 770.55,365.35 881.86,426.32 				"/>
				<polygon fill="#AAAAAA" points="781.9,246.86 829.98,228.07 810.75,157.59 				"/>
				<polygon fill="#AAAAAA" points="600.88,327.36 652.43,403.94 701.72,409 				"/>
				<polygon fill="#AAAAAA" points="613.14,646.16 693.06,616.14 704.62,507.27 				"/>
				<polygon fill="#AAAAAA" points="464.85,600.9 514.61,572.77 428.21,510.44 				"/>
				<polygon fill="#AAAAAA" points="448.38,388.16 507.7,484.97 488.95,503.77 				"/>
				<polygon fill="#AAAAAA" points="516.77,371.19 601.81,435.5 579.8,385.56 				"/>
				<polygon fill="#AAAAAA" points="265.5,433.22 364.86,430.88 358.84,366.8 				"/>
				<polygon fill="#AAAAAA" points="126.07,560.37 162.23,450.41 193.51,488.84 				"/>
				<polygon fill="#AAAAAA" points="272.42,596.97 273.05,506.64 308.64,628.46 				"/>
				<polygon fill="#AAAAAA" points="22.49,690.7 106.01,647.98 126.07,560.37 				"/>
				<polygon fill="#AAAAAA" points="-116.46,552.83 -96.97,636.02 22.49,690.7 				"/>
				<polygon fill="#AAAAAA" points="732.34,205.8 781.9,246.86 713.3,318.77 				"/>
			</g>
			<g>
				<polyline fill="none" stroke="#AAAAAA" stroke-width="0.58" stroke-miterlimit="10" points="428.21,510.44 464.85,600.9 
					514.61,572.77 				"/>
				<polyline fill="none" stroke="#AAAAAA" stroke-width="0.58" stroke-miterlimit="10" points="732.34,205.8 713.3,318.77 
					781.9,246.86 811.09,323.48 713.3,318.77 727.7,433.78 806.72,504.09 704.62,507.27 752.39,583.4 806.72,504.09 801.95,624.46 
									"/>
				<polyline fill="none" stroke="#AAAAAA" stroke-width="0.58" stroke-miterlimit="10" points="781.9,246.86 770.55,365.35 
					881.86,426.32 811.09,323.48 770.55,365.35 833.98,429.67 881.86,426.32 				"/>
				<polyline fill="none" stroke="#AAAAAA" stroke-width="0.58" stroke-miterlimit="10" points="810.75,157.59 755.32,167.89 
					847.12,97.23 921.15,184.1 810.75,157.59 752.62,89.38 755.32,167.89 732.34,205.8 781.9,246.86 755.32,167.89 671.77,172.06 
					713.3,318.77 587.23,243.07 732.34,205.8 				"/>
				<polyline fill="none" stroke="#AAAAAA" stroke-width="0.58" stroke-miterlimit="10" points="1019.68,257.49 1006.5,156.83 
					921.15,184.1 1019.68,257.49 1136.3,244.87 1006.5,156.83 810.75,157.59 781.9,246.86 829.98,228.07 				"/>
				<polyline fill="none" stroke="#AAAAAA" stroke-width="0.58" stroke-miterlimit="10" points="882.96,258.31 811.09,323.48 
					810.75,157.59 882.96,258.31 921.15,184.1 986.48,209.54 882.96,258.31 				"/>
				<polyline fill="none" stroke="#AAAAAA" stroke-width="0.58" stroke-miterlimit="10" points="704.62,507.27 652.43,403.94 
					727.7,433.78 770.55,365.35 713.3,318.77 652.43,403.94 701.72,409 704.62,507.27 693.06,616.14 752.39,583.4 				"/>
				<polyline fill="none" stroke="#AAAAAA" stroke-width="0.58" stroke-miterlimit="10" points="727.7,433.78 757.58,522.6 
					806.72,504.09 865.3,551.85 801.95,624.46 857.71,676.07 778.97,662.37 752.39,583.4 801.95,624.46 778.97,662.37 				"/>
				<polyline fill="none" stroke="#AAAAAA" stroke-width="0.58" stroke-miterlimit="10" points="704.62,507.27 613.14,646.16 
					693.06,616.14 723.54,672.67 				"/>
				
					<line fill="none" stroke="#AAAAAA" stroke-width="0.58" stroke-miterlimit="10" x1="771.19" y1="438.1" x2="806.72" y2="504.09"/>
				<polyline fill="none" stroke="#AAAAAA" stroke-width="0.58" stroke-miterlimit="10" points="810.75,157.59 829.98,228.07 
					882.96,258.31 				"/>
				<polyline fill="none" stroke="#AAAAAA" stroke-width="0.58" stroke-miterlimit="10" points="358.84,366.8 265.5,433.22 
					364.86,430.88 331.31,505.7 265.5,433.22 194.36,524.73 200.51,630.32 126.07,560.37 106.01,647.99 200.51,630.32 
					112.03,712.07 				"/>
				<polyline fill="none" stroke="#AAAAAA" stroke-width="0.58" stroke-miterlimit="10" points="364.86,430.88 273.05,506.64 
					308.64,628.46 331.31,505.7 273.05,506.64 272.42,596.97 308.64,628.46 				"/>
				<polyline fill="none" stroke="#AAAAAA" stroke-width="0.58" stroke-miterlimit="10" points="448.38,388.16 401.9,356.25 
					516.77,371.19 507.7,484.97 448.38,388.16 455.5,298.83 401.9,356.25 358.84,366.8 364.86,430.88 401.9,356.25 339.87,300.11 
					265.5,433.22 229.88,290.55 358.84,366.8 				"/>
				<polyline fill="none" stroke="#AAAAAA" stroke-width="0.58" stroke-miterlimit="10" points="152.68,608.66 106.01,647.99 
					22.49,690.7 -116.46,552.83 -145.99,398.79 -54.6,472.33 -36.83,593.9 -116.46,552.83 -54.6,472.33 				"/>
				<polyline fill="none" stroke="#AAAAAA" stroke-width="0.58" stroke-miterlimit="10" points="106.01,647.99 40.92,629.18 
					126.07,560.37 193.51,488.84 162.23,450.41 265.5,433.22 273.05,506.64 194.36,524.73 162.23,450.41 126.07,560.37 22.49,690.7 
					-45.91,707.67 -150.92,673.82 -116.46,552.83 -96.97,636.02 -45.91,707.67 				"/>
				<polyline fill="none" stroke="#AAAAAA" stroke-width="0.58" stroke-miterlimit="10" points="194.36,524.73 152.68,608.66 
					200.51,630.32 208.17,705.52 112.03,712.07 114.96,787.98 68.97,722.62 106.01,647.99 112.03,712.07 68.97,722.62 15.37,780.04 
					22.49,690.7 -36.83,593.9 -45.91,707.67 68.97,722.62 22.49,690.7 				"/>
				<polyline fill="none" stroke="#AAAAAA" stroke-width="0.58" stroke-miterlimit="10" points="193.51,488.84 273.05,506.64 
					200.51,630.32 272.42,596.97 222.06,558.53 273.05,506.64 				"/>
				<polyline fill="none" stroke="#AAAAAA" stroke-width="0.58" stroke-miterlimit="10" points="222.06,558.53 200.51,630.32 
					173,675.72 208.17,705.52 114.96,787.98 15.37,780.04 				"/>
				<polyline fill="none" stroke="#AAAAAA" stroke-width="0.58" stroke-miterlimit="10" points="448.38,388.16 412.14,451.59 
					428.22,510.44 514.61,572.77 527.79,673.43 613.14,646.16 514.61,572.77 397.98,585.39 527.79,673.43 723.54,672.67 
					752.39,583.4 757.58,522.6 				"/>
				<polyline fill="none" stroke="#AAAAAA" stroke-width="0.58" stroke-miterlimit="10" points="587.33,526.03 514.61,572.77 
					507.7,484.97 601.81,435.5 704.62,507.27 587.33,526.03 507.7,484.97 428.22,510.44 448.38,388.16 331.31,505.7 428.22,510.44 
									"/>
				<polyline fill="none" stroke="#AAAAAA" stroke-width="0.58" stroke-miterlimit="10" points="601.81,435.5 644.03,495.83 
					704.62,507.27 				"/>
				<polyline fill="none" stroke="#AAAAAA" stroke-width="0.58" stroke-miterlimit="10" points="516.77,371.19 600.88,327.36 
					652.43,403.94 601.81,435.5 516.77,371.19 587.33,526.03 613.14,646.16 572.93,588.12 514.61,572.77 				"/>
				<polyline fill="none" stroke="#AAAAAA" stroke-width="0.58" stroke-miterlimit="10" points="601.81,435.5 600.88,327.36 
					701.72,409 770.55,365.35 806.72,504.09 833.98,429.67 771.19,438.1 770.55,365.35 				"/>
				<polyline fill="none" stroke="#AAAAAA" stroke-width="0.58" stroke-miterlimit="10" points="428.22,510.44 397.98,585.39 
					308.64,628.46 				"/>
				
					<line fill="none" stroke="#AAAAAA" stroke-width="0.58" stroke-miterlimit="10" x1="331.31" y1="505.7" x2="397.98" y2="585.39"/>
				<polyline fill="none" stroke="#AAAAAA" stroke-width="0.58" stroke-miterlimit="10" points="693.06,616.14 644.03,495.83 
					587.33,526.03 624.55,547.76 644.03,495.83 				"/>
				
					<line fill="none" stroke="#AAAAAA" stroke-width="0.58" stroke-miterlimit="10" x1="624.55" y1="547.76" x2="613.14" y2="646.16"/>
				<polyline fill="none" stroke="#AAAAAA" stroke-width="0.58" stroke-miterlimit="10" points="-150.92,673.82 -96.97,636.02 
					22.49,690.7 40.92,629.18 -36.83,593.9 126.07,560.37 194.36,524.73 				"/>
				
					<line fill="none" stroke="#AAAAAA" stroke-width="0.58" stroke-miterlimit="10" x1="-7.95" y1="555.53" x2="126.07" y2="560.37"/>
				<polyline fill="none" stroke="#AAAAAA" stroke-width="0.58" stroke-miterlimit="10" points="448.38,388.16 488.95,503.77 
					507.7,484.97 				"/>
				
					<line fill="none" stroke="#AAAAAA" stroke-width="0.58" stroke-miterlimit="10" x1="488.95" y1="503.77" x2="587.33" y2="526.03"/>
				<polyline fill="none" stroke="#AAAAAA" stroke-width="0.58" stroke-miterlimit="10" points="516.77,371.19 579.8,385.56 
					601.81,435.5 				"/>
				
					<line fill="none" stroke="#AAAAAA" stroke-width="0.58" stroke-miterlimit="10" x1="579.8" y1="385.56" x2="600.88" y2="327.36"/>
			</g>
			<g>
				<path fill="#333333" d="M754,91c0.92-0.76,1.05-2.12,0.29-3.04s-2.12-1.05-3.04-0.29c-0.92,0.76-1.05,2.12-0.29,3.04
					c0.01,0.02,0.03,0.03,0.04,0.05C751.77,91.65,753.1,91.76,754,91z"/>
				<path fill="#333333" d="M756.72,169.53c0.92-0.76,1.05-2.12,0.29-3.04s-2.12-1.05-3.04-0.29s-1.05,2.12-0.29,3.04
					c0.01,0.02,0.03,0.03,0.04,0.05C754.49,170.17,755.82,170.28,756.72,169.53z"/>
				<path fill="#333333" d="M783.3,248.5c0.92-0.76,1.05-2.12,0.3-3.04c-0.76-0.92-2.12-1.05-3.04-0.3
					c-0.92,0.76-1.05,2.12-0.3,3.04c0.01,0.02,0.03,0.03,0.04,0.05C781.07,249.13,782.4,249.24,783.3,248.5z"/>
				<path fill="#333333" d="M831.38,229.71c0.92-0.76,1.05-2.12,0.29-3.04s-2.12-1.05-3.04-0.29s-1.05,2.12-0.29,3.04
					c0.01,0.02,0.03,0.03,0.04,0.05C829.15,230.35,830.48,230.45,831.38,229.71z"/>
				<path fill="#333333" d="M812.9,325.6c1.17-1,1.31-2.76,0.31-3.93c-1-1.17-2.76-1.31-3.93-0.31s-1.31,2.76-0.31,3.93c0,0,0,0,0,0
					c0.99,1.17,2.75,1.31,3.92,0.32C812.89,325.61,812.9,325.6,812.9,325.6z"/>
				<path fill="#333333" d="M772.36,367.47c1.17-1,1.3-2.75,0.31-3.92s-2.75-1.3-3.92-0.31c-1.16,0.99-1.3,2.74-0.32,3.91
					C769.43,368.32,771.19,368.47,772.36,367.47z"/>
				<path fill="#333333" d="M835.67,431.65c1.1-0.93,1.24-2.59,0.31-3.69s-2.59-1.24-3.69-0.31l0,0c-1.1,0.93-1.24,2.59-0.31,3.69
					S834.57,432.58,835.67,431.65z"/>
				<path fill="#333333" d="M714.93,320.69c1.06-0.9,1.19-2.49,0.28-3.55c-0.9-1.06-2.49-1.19-3.55-0.28
					c-1.06,0.9-1.19,2.49-0.28,3.55c0,0,0,0,0,0C712.29,321.46,713.87,321.59,714.93,320.69z"/>
				<path fill="#333333" d="M673.4,174c1.06-0.9,1.19-2.49,0.28-3.55c-0.9-1.06-2.49-1.19-3.55-0.28c-1.06,0.9-1.19,2.49-0.28,3.55
					c0,0,0,0,0,0C670.75,174.78,672.34,174.9,673.4,174z"/>
				<path fill="#333333" d="M848.52,98.87c0.92-0.76,1.05-2.12,0.29-3.04s-2.12-1.05-3.04-0.29c-0.92,0.76-1.05,2.12-0.29,3.04
					c0.01,0.02,0.03,0.03,0.04,0.05C846.29,99.51,847.62,99.62,848.52,98.87z"/>
				<path fill="#333333" d="M812.8,160c1.33-1.13,1.49-3.13,0.35-4.45c-1.13-1.33-3.13-1.49-4.45-0.35
					c-1.33,1.13-1.49,3.12-0.36,4.45C809.47,160.97,811.47,161.13,812.8,160z"/>
				<path fill="#333333" d="M734.27,208.07c1.26-1.07,1.42-2.96,0.35-4.23c-1.07-1.26-2.96-1.42-4.23-0.35s-1.42,2.96-0.35,4.23
					c0.01,0.01,0.01,0.01,0.02,0.02C731.14,208.99,733.01,209.13,734.27,208.07z"/>
				<path fill="#333333" d="M588.94,245.07c1.11-0.94,1.24-2.6,0.3-3.71s-2.6-1.24-3.71-0.3c-1.1,0.94-1.24,2.6-0.3,3.7
					C586.17,245.87,587.83,246.01,588.94,245.07z"/>
				<path fill="#333333" d="M702,504.23c-1.69,1.43-1.9,3.95-0.47,5.64s3.95,1.9,5.64,0.47c1.69-1.43,1.9-3.95,0.47-5.64
					c-0.01-0.01-0.01-0.01-0.02-0.02C706.19,503.01,703.68,502.81,702,504.23z"/>
				<path fill="#333333" d="M726,431.79c-1.1,0.93-1.23,2.58-0.3,3.68c0.93,1.1,2.58,1.23,3.68,0.3c1.1-0.93,1.23-2.58,0.3-3.68
					C728.74,431,727.1,430.86,726,431.79z"/>
				<path fill="#333333" d="M700.13,407.14c-1.03,0.88-1.15,2.42-0.27,3.45c0.88,1.03,2.42,1.15,3.45,0.27
					c1.03-0.88,1.15-2.42,0.28-3.45C702.72,406.39,701.17,406.26,700.13,407.14C700.13,407.14,700.13,407.14,700.13,407.14z"/>
				<path fill="#333333" d="M805.32,502.45c-0.91,0.76-1.03,2.12-0.27,3.03c0.76,0.91,2.12,1.03,3.03,0.27
					c0.91-0.76,1.03-2.12,0.27-3.03c-0.01-0.01-0.02-0.02-0.03-0.03C807.55,501.81,806.22,501.7,805.32,502.45z"/>
				<path fill="#333333" d="M756.18,521c-0.92,0.76-1.05,2.12-0.29,3.04s2.12,1.05,3.04,0.29s1.05-2.12,0.29-3.04
					c-0.01-0.02-0.03-0.03-0.04-0.05C758.41,520.36,757.08,520.25,756.18,521z"/>
				<path fill="#333333" d="M769.79,436.46c-0.92,0.76-1.05,2.12-0.29,3.04c0.76,0.92,2.12,1.05,3.04,0.29s1.05-2.12,0.29-3.04
					c-0.01-0.02-0.03-0.03-0.04-0.05C772.02,435.82,770.69,435.71,769.79,436.46z"/>
				<path fill="#333333" d="M651,402.3c-0.92,0.76-1.05,2.12-0.29,3.04c0.76,0.92,2.12,1.05,3.04,0.29s1.05-2.12,0.29-3.04
					c-0.01-0.02-0.03-0.03-0.04-0.05C653.23,401.66,651.9,401.55,651,402.3z"/>
				<path fill="#333333" d="M487.56,502.13c-0.92,0.76-1.05,2.12-0.3,3.04c0.76,0.92,2.12,1.05,3.04,0.3
					c0.92-0.76,1.05-2.12,0.3-3.04c-0.01-0.02-0.03-0.03-0.04-0.05C489.79,501.5,488.46,501.39,487.56,502.13z"/>
				<path fill="#333333" d="M599.18,432.41c-1.71,1.46-1.91,4.02-0.45,5.72c1.46,1.71,4.02,1.91,5.72,0.45
					c1.7-1.45,1.91-4.01,0.46-5.72C603.46,431.16,600.9,430.95,599.18,432.41C599.18,432.41,599.18,432.41,599.18,432.41z"/>
				<path fill="#333333" d="M455.33,301c1.19,0.08,2.22-0.81,2.31-2c0.08-1.19-0.81-2.22-2-2.31c-1.19-0.08-2.22,0.8-2.31,1.99
					c-0.09,1.19,0.8,2.23,1.99,2.32C455.32,301,455.33,301,455.33,301z"/>
				<path fill="#333333" d="M401.73,358.4c1.19,0.08,2.22-0.81,2.31-2c0.08-1.19-0.81-2.22-2-2.31c-1.18-0.08-2.21,0.8-2.31,1.98
					C399.64,357.26,400.53,358.31,401.73,358.4C401.73,358.4,401.73,358.4,401.73,358.4z"/>
				<path fill="#333333" d="M364.69,433c1.19,0.08,2.22-0.81,2.31-2c0.08-1.19-0.81-2.22-2-2.31c-1.19-0.08-2.22,0.8-2.31,1.99
					C362.6,431.87,363.5,432.91,364.69,433z"/>
				<path fill="#333333" d="M412,453.74c1.19,0.08,2.22-0.81,2.31-2c0.08-1.19-0.81-2.22-2-2.31c-1.19-0.08-2.22,0.8-2.31,1.99
					c-0.09,1.19,0.8,2.23,1.99,2.32C411.99,453.74,412,453.74,412,453.74z"/>
				<path fill="#333333" d="M331.09,508.48c1.53,0.12,2.87-1.02,2.99-2.55s-1.02-2.87-2.55-2.99c-1.53-0.12-2.87,1.02-2.99,2.54
					C328.41,507.01,329.55,508.35,331.09,508.48C331.08,508.48,331.09,508.48,331.09,508.48z"/>
				<path fill="#333333" d="M272.82,509.42c1.53,0.12,2.87-1.02,2.99-2.55s-1.02-2.87-2.55-2.99c-1.53-0.12-2.87,1.02-2.99,2.54
					C270.14,507.95,271.28,509.29,272.82,509.42C272.81,509.42,272.82,509.42,272.82,509.42z"/>
				<path fill="#333333" d="M265.3,435.73c1.39,0.12,2.61-0.91,2.72-2.3c0.12-1.39-0.91-2.61-2.3-2.72
					c-1.38-0.12-2.6,0.91-2.72,2.29c-0.13,1.38,0.89,2.6,2.27,2.73C265.28,435.73,265.29,435.73,265.3,435.73z"/>
				<path fill="#333333" d="M339.67,302.62c1.39,0.11,2.6-0.92,2.71-2.31s-0.92-2.6-2.31-2.71c-1.39-0.11-2.6,0.92-2.71,2.31
					c0,0,0,0,0,0c-0.12,1.38,0.9,2.59,2.27,2.71C339.65,302.62,339.66,302.62,339.67,302.62z"/>
				<path fill="#333333" d="M516.61,373.34c1.19,0.08,2.22-0.81,2.31-2c0.08-1.19-0.81-2.22-2-2.31c-1.19-0.08-2.22,0.8-2.31,1.99
					c-0.09,1.19,0.8,2.23,1.99,2.32C516.6,373.34,516.61,373.34,516.61,373.34z"/>
				<path fill="#333333" d="M579.63,387.71c1.19,0.08,2.22-0.81,2.31-2c0.08-1.19-0.81-2.22-2-2.31c-1.19-0.08-2.22,0.8-2.31,1.99
					c-0.1,1.18,0.78,2.22,1.97,2.32C579.61,387.71,579.62,387.71,579.63,387.71z"/>
				<path fill="#333333" d="M448.12,391.31c1.74,0.14,3.28-1.15,3.42-2.9c0.14-1.74-1.15-3.28-2.9-3.42
					c-1.74-0.14-3.28,1.15-3.42,2.9c0,0.01,0,0.01,0,0.02C445.08,389.65,446.38,391.17,448.12,391.31z"/>
				<path fill="#333333" d="M587.08,529.19c1.74,0.13,3.26-1.17,3.39-2.91c0.13-1.74-1.17-3.26-2.91-3.39
					c-1.73-0.13-3.25,1.16-3.39,2.89C584.03,527.53,585.33,529.05,587.08,529.19z"/>
				<path fill="#333333" d="M643.78,499c1.74,0.14,3.26-1.16,3.4-2.9c0.14-1.74-1.16-3.26-2.9-3.4c-1.74-0.14-3.26,1.16-3.4,2.89
					c-0.14,1.74,1.15,3.27,2.89,3.41C643.77,499,643.78,499,643.78,499z"/>
				<path fill="#333333" d="M624.33,550.47c1.5,0.12,2.81-0.99,2.93-2.49c0.12-1.5-0.99-2.81-2.49-2.93
					c-1.5-0.12-2.81,0.99-2.93,2.49c0,0,0,0,0,0C621.72,549.04,622.83,550.35,624.33,550.47z"/>
				<path fill="#333333" d="M600.63,330.52c1.74,0.14,3.28-1.15,3.42-2.9s-1.15-3.28-2.9-3.42c-1.74-0.14-3.28,1.15-3.42,2.9
					c0,0,0,0.01,0,0.01C597.6,328.85,598.89,330.37,600.63,330.52z"/>
				<path fill="#333333" d="M507.46,487.94c1.65,0.14,3.1-1.09,3.24-2.74c0.14-1.65-1.09-3.1-2.74-3.24
					c-1.65-0.14-3.1,1.09-3.24,2.74c0,0.01,0,0.02,0,0.03C504.6,486.37,505.82,487.8,507.46,487.94z"/>
				<path fill="#333333" d="M427.88,514.67c2.33,0.18,4.37-1.57,4.55-3.9c0.18-2.33-1.57-4.37-3.9-4.55
					c-2.33-0.18-4.36,1.56-4.55,3.88C423.8,512.44,425.54,514.48,427.88,514.67z"/>
				<path fill="#333333" d="M358.6,369.78c1.65,0.14,3.1-1.09,3.24-2.74c0.14-1.65-1.09-3.1-2.74-3.24
					c-1.65-0.14-3.1,1.09-3.24,2.74c0,0.01,0,0.01,0,0.02C355.73,368.2,356.96,369.64,358.6,369.78z"/>
				<path fill="#333333" d="M229.67,293.17c1.45,0.12,2.72-0.96,2.83-2.41c0.12-1.45-0.96-2.72-2.41-2.83
					c-1.45-0.12-2.72,0.96-2.83,2.41c0,0,0,0,0,0C227.14,291.79,228.22,293.05,229.67,293.17z"/>
				<path fill="#333333" d="M126.29,557.6c-1.53-0.12-2.87,1.02-2.99,2.55c-0.12,1.53,1.02,2.87,2.55,2.99
					c1.53,0.12,2.87-1.02,2.99-2.54C128.97,559.07,127.83,557.73,126.29,557.6C126.3,557.6,126.29,557.6,126.29,557.6z"/>
				<path fill="#333333" d="M194.57,522.13c-1.44-0.12-2.7,0.95-2.81,2.39c-0.12,1.44,0.95,2.7,2.39,2.81
					c1.44,0.12,2.7-0.95,2.81-2.39c0,0,0,0,0,0C197.07,523.51,196,522.25,194.57,522.13z"/>
				<path fill="#333333" d="M193.7,486.4c-1.35-0.08-2.51,0.95-2.59,2.3c-0.08,1.35,0.95,2.51,2.3,2.59
					c1.35,0.08,2.51-0.94,2.59-2.29c0.09-1.34-0.93-2.51-2.27-2.6C193.72,486.4,193.71,486.4,193.7,486.4z"/>
				<path fill="#333333" d="M222.23,556.39c-1.18-0.08-2.21,0.82-2.29,2c-0.08,1.18,0.82,2.21,2,2.29c1.17,0.08,2.19-0.8,2.29-1.97
					c0.1-1.18-0.78-2.22-1.97-2.32C222.25,556.39,222.24,556.39,222.23,556.39z"/>
				<path fill="#333333" d="M162.4,448.26c-1.18-0.08-2.21,0.82-2.29,2s0.82,2.21,2,2.29c1.17,0.08,2.19-0.8,2.29-1.97
					c0.1-1.18-0.78-2.22-1.97-2.32C162.42,448.26,162.41,448.26,162.4,448.26z"/>
			</g>
		</g>
		<g>
			<g opacity="0.1">
				<polygon fill="#AAAAAA" points="611.43,483.41 648.65,505.13 668.14,453.21 				"/>
				<polygon fill="#AAAAAA" points="781.68,479.97 751.81,391.15 830.82,461.46 				"/>
				<polygon fill="#AAAAAA" points="858.09,387.04 794.66,322.72 905.97,383.69 				"/>
				<polygon fill="#AAAAAA" points="806.01,204.23 854.09,185.44 834.86,114.96 				"/>
				<polygon fill="#AAAAAA" points="624.99,284.73 676.53,361.31 725.83,366.38 				"/>
				<polygon fill="#AAAAAA" points="747.64,630.04 803.07,619.74 776.49,540.77 				"/>
				<polygon fill="#AAAAAA" points="637.24,603.53 717.17,573.51 728.72,464.64 				"/>
				<polygon fill="#AAAAAA" points="488.95,558.27 538.72,530.14 452.32,467.81 				"/>
				<polygon fill="#AAAAAA" points="472.48,345.53 531.81,442.34 513.06,461.15 				"/>
				<polygon fill="#AAAAAA" points="540.88,328.57 625.92,392.88 603.91,342.93 				"/>
				<polygon fill="#AAAAAA" points="289.6,390.6 388.96,388.25 382.94,324.17 				"/>
				<polygon fill="#AAAAAA" points="150.18,517.75 186.33,407.78 217.61,446.21 				"/>
				<polygon fill="#AAAAAA" points="296.52,554.35 297.15,464.01 332.75,585.83 				"/>
				<polygon fill="#AAAAAA" points="46.6,648.08 130.12,605.36 150.18,517.75 				"/>
				<polygon fill="#AAAAAA" points="-12.73,551.27 -30.5,429.7 16.15,512.9 				"/>
				<polygon fill="#AAAAAA" points="-92.35,510.2 -72.86,593.39 46.6,648.08 				"/>
				<polygon fill="#AAAAAA" points="756.44,163.17 806.01,204.23 737.4,276.14 				"/>
			</g>
			<g>
				
					<line fill="none" stroke="#AAAAAA" stroke-width="0.58" stroke-miterlimit="10" x1="551.89" y1="630.8" x2="597.04" y2="545.49"/>
				<polyline fill="none" stroke="#AAAAAA" stroke-width="0.58" stroke-miterlimit="10" points="452.32,467.81 488.95,558.27 
					538.72,530.14 				"/>
				
					<line fill="none" stroke="#AAAAAA" stroke-width="0.58" stroke-miterlimit="10" x1="422.09" y1="542.76" x2="488.95" y2="558.27"/>
				<polyline fill="none" stroke="#AAAAAA" stroke-width="0.58" stroke-miterlimit="10" points="756.44,163.17 737.4,276.14 
					806.01,204.23 835.2,280.86 737.4,276.14 751.81,391.15 830.82,461.46 728.72,464.64 776.49,540.77 830.82,461.46 
					826.06,581.83 				"/>
				<polyline fill="none" stroke="#AAAAAA" stroke-width="0.58" stroke-miterlimit="10" points="806.01,204.23 794.66,322.72 
					905.97,383.69 835.2,280.86 794.66,322.72 858.09,387.04 905.97,383.69 				"/>
				<polyline fill="none" stroke="#AAAAAA" stroke-width="0.58" stroke-miterlimit="10" points="834.86,114.96 779.43,125.26 
					871.22,54.6 945.26,141.47 834.86,114.96 776.73,46.76 779.43,125.26 756.44,163.17 806.01,204.23 779.43,125.26 695.88,129.43 
					737.4,276.14 611.34,200.44 756.44,163.17 				"/>
				<polyline fill="none" stroke="#AAAAAA" stroke-width="0.58" stroke-miterlimit="10" points="1043.78,214.87 1030.61,114.2 
					945.26,141.47 1043.78,214.87 1160.41,202.24 1030.61,114.2 834.86,114.96 806.01,204.23 854.09,185.44 				"/>
				<polyline fill="none" stroke="#AAAAAA" stroke-width="0.58" stroke-miterlimit="10" points="907.06,215.68 835.2,280.86 
					834.86,114.96 907.06,215.68 945.26,141.47 1010.59,166.91 907.06,215.68 				"/>
				<polyline fill="none" stroke="#AAAAAA" stroke-width="0.58" stroke-miterlimit="10" points="728.72,464.64 676.53,361.31 
					751.81,391.15 794.66,322.72 737.4,276.14 676.53,361.31 725.83,366.38 728.72,464.64 717.17,573.51 776.49,540.77 				"/>
				<polyline fill="none" stroke="#AAAAAA" stroke-width="0.58" stroke-miterlimit="10" points="751.81,391.15 781.68,479.97 
					830.82,461.46 889.41,509.22 826.06,581.83 881.82,633.44 803.07,619.74 776.49,540.77 826.06,581.83 803.07,619.74 				"/>
				<polyline fill="none" stroke="#AAAAAA" stroke-width="0.58" stroke-miterlimit="10" points="728.72,464.64 637.24,603.53 
					717.17,573.51 747.64,630.04 				"/>
				
					<line fill="none" stroke="#AAAAAA" stroke-width="0.58" stroke-miterlimit="10" x1="795.3" y1="395.47" x2="830.82" y2="461.46"/>
				<polyline fill="none" stroke="#AAAAAA" stroke-width="0.58" stroke-miterlimit="10" points="834.86,114.96 854.09,185.44 
					907.06,215.68 				"/>
				<polyline fill="none" stroke="#AAAAAA" stroke-width="0.58" stroke-miterlimit="10" points="382.94,324.17 289.6,390.59 
					388.96,388.25 355.42,463.07 289.6,390.59 218.47,482.1 224.62,587.69 150.18,517.75 130.12,605.36 224.62,587.69 
					136.14,669.44 				"/>
				<polyline fill="none" stroke="#AAAAAA" stroke-width="0.58" stroke-miterlimit="10" points="388.96,388.25 297.15,464.01 
					332.75,585.83 355.42,463.07 297.15,464.01 296.52,554.35 332.75,585.83 				"/>
				<polyline fill="none" stroke="#AAAAAA" stroke-width="0.58" stroke-miterlimit="10" points="472.48,345.53 426.01,313.62 
					540.88,328.57 531.81,442.34 472.48,345.53 479.61,256.2 426.01,313.62 382.94,324.17 388.96,388.25 426.01,313.62 
					363.98,257.49 289.6,390.59 253.99,247.92 382.94,324.17 				"/>
				<polyline fill="none" stroke="#AAAAAA" stroke-width="0.58" stroke-miterlimit="10" points="176.78,566.03 130.12,605.36 
					46.6,648.08 -92.35,510.2 -121.89,356.16 -30.5,429.7 -12.73,551.27 -92.35,510.2 -30.5,429.7 				"/>
				<polyline fill="none" stroke="#AAAAAA" stroke-width="0.58" stroke-miterlimit="10" points="130.12,605.36 65.02,586.56 
					150.18,517.75 217.61,446.21 186.33,407.78 289.6,390.59 297.15,464.01 218.47,482.1 186.33,407.78 150.18,517.75 46.6,648.08 
					-21.8,665.04 -126.82,631.2 -92.35,510.2 -72.86,593.39 -21.8,665.04 				"/>
				<polyline fill="none" stroke="#AAAAAA" stroke-width="0.58" stroke-miterlimit="10" points="218.47,482.1 176.78,566.03 
					224.62,587.69 232.28,662.89 136.14,669.44 139.07,745.36 93.08,679.99 130.12,605.36 136.14,669.44 93.08,679.99 39.47,737.41 
					46.6,648.08 -12.73,551.27 -21.8,665.04 93.08,679.99 46.6,648.08 				"/>
				<polyline fill="none" stroke="#AAAAAA" stroke-width="0.58" stroke-miterlimit="10" points="217.61,446.21 297.15,464.01 
					224.62,587.69 296.52,554.35 246.16,515.91 297.15,464.01 				"/>
				<polyline fill="none" stroke="#AAAAAA" stroke-width="0.58" stroke-miterlimit="10" points="246.16,515.91 224.62,587.69 
					197.11,633.1 232.28,662.89 139.07,745.36 39.47,737.41 				"/>
				<polyline fill="none" stroke="#AAAAAA" stroke-width="0.58" stroke-miterlimit="10" points="472.48,345.53 436.24,408.96 
					452.32,467.81 538.72,530.14 551.89,630.8 637.24,603.53 538.72,530.14 422.09,542.76 551.89,630.8 747.64,630.04 
					776.49,540.77 781.68,479.97 				"/>
				<polyline fill="none" stroke="#AAAAAA" stroke-width="0.58" stroke-miterlimit="10" points="611.43,483.41 538.72,530.14 
					531.81,442.34 625.92,392.88 728.72,464.64 611.43,483.41 531.81,442.34 452.32,467.81 472.48,345.53 355.42,463.07 
					452.32,467.81 				"/>
				<polyline fill="none" stroke="#AAAAAA" stroke-width="0.58" stroke-miterlimit="10" points="625.92,392.88 668.14,453.21 
					728.72,464.64 				"/>
				<polyline fill="none" stroke="#AAAAAA" stroke-width="0.58" stroke-miterlimit="10" points="540.88,328.57 624.99,284.73 
					676.53,361.31 625.92,392.88 540.88,328.57 611.43,483.41 637.24,603.53 597.04,545.49 538.72,530.14 				"/>
				<polyline fill="none" stroke="#AAAAAA" stroke-width="0.58" stroke-miterlimit="10" points="625.92,392.88 624.99,284.73 
					725.83,366.38 794.66,322.72 830.82,461.46 858.09,387.04 795.3,395.47 794.66,322.72 				"/>
				<polyline fill="none" stroke="#AAAAAA" stroke-width="0.58" stroke-miterlimit="10" points="452.32,467.81 422.09,542.76 
					332.75,585.83 				"/>
				
					<line fill="none" stroke="#AAAAAA" stroke-width="0.58" stroke-miterlimit="10" x1="355.42" y1="463.08" x2="422.09" y2="542.76"/>
				<polyline fill="none" stroke="#AAAAAA" stroke-width="0.58" stroke-miterlimit="10" points="717.17,573.51 668.14,453.21 
					611.43,483.41 648.65,505.13 668.14,453.21 				"/>
				
					<line fill="none" stroke="#AAAAAA" stroke-width="0.58" stroke-miterlimit="10" x1="648.65" y1="505.13" x2="637.24" y2="603.54"/>
				<polyline fill="none" stroke="#AAAAAA" stroke-width="0.58" stroke-miterlimit="10" points="-126.82,631.2 -72.86,593.39 
					46.6,648.08 65.02,586.56 -12.73,551.27 150.18,517.75 218.47,482.1 				"/>
				<polyline fill="none" stroke="#AAAAAA" stroke-width="0.58" stroke-miterlimit="10" points="-30.5,429.7 16.15,512.9 
					-12.73,551.27 				"/>
				
					<line fill="none" stroke="#AAAAAA" stroke-width="0.58" stroke-miterlimit="10" x1="16.15" y1="512.91" x2="150.18" y2="517.75"/>
				<polyline fill="none" stroke="#AAAAAA" stroke-width="0.58" stroke-miterlimit="10" points="472.48,345.53 513.06,461.15 
					531.81,442.34 				"/>
				
					<line fill="none" stroke="#AAAAAA" stroke-width="0.58" stroke-miterlimit="10" x1="513.06" y1="461.15" x2="611.43" y2="483.41"/>
				<polyline fill="none" stroke="#AAAAAA" stroke-width="0.58" stroke-miterlimit="10" points="540.88,328.57 603.91,342.93 
					625.92,392.88 				"/>
				
					<line fill="none" stroke="#AAAAAA" stroke-width="0.58" stroke-miterlimit="10" x1="603.91" y1="342.93" x2="624.99" y2="284.73"/>
			</g>
			<g>
				<path fill="#CC0000" d="M778.12,48.4c0.91-0.76,1.03-2.12,0.27-3.03s-2.12-1.03-3.03-0.27c-0.91,0.76-1.03,2.12-0.27,3.03
					c0.01,0.01,0.02,0.02,0.03,0.03C775.89,49.04,777.22,49.14,778.12,48.4z"/>
				<path fill="#CC0000" d="M780.82,126.9c0.91-0.76,1.03-2.12,0.27-3.03s-2.12-1.03-3.03-0.27c-0.91,0.76-1.03,2.12-0.27,3.03
					c0.01,0.01,0.02,0.02,0.03,0.03C778.59,127.54,779.92,127.64,780.82,126.9z"/>
				<path fill="#CC0000" d="M807.4,205.87c0.91-0.76,1.03-2.12,0.27-3.03s-2.12-1.03-3.03-0.27c-0.91,0.76-1.03,2.12-0.27,3.03
					c0.01,0.01,0.02,0.02,0.03,0.03C805.17,206.51,806.5,206.61,807.4,205.87z"/>
				<path fill="#CC0000" d="M837,283c1.17-1,1.3-2.75,0.31-3.92s-2.75-1.3-3.92-0.31c-1.16,0.99-1.3,2.74-0.32,3.91
					C834.07,283.85,835.83,284,837,283z"/>
				<path fill="#CC0000" d="M796.46,324.84c1.17-1,1.31-2.75,0.31-3.92c-1-1.17-2.75-1.31-3.92-0.31c-1.17,1-1.31,2.75-0.31,3.92
					C793.54,325.69,795.29,325.83,796.46,324.84z"/>
				<path fill="#CC0000" d="M739,278.06c1.06-0.9,1.19-2.49,0.28-3.55c-0.9-1.06-2.49-1.19-3.55-0.28c-1.06,0.9-1.19,2.49-0.28,3.55
					c0,0,0,0,0,0c0.9,1.06,2.48,1.19,3.54,0.29C738.99,278.07,739,278.06,739,278.06z"/>
				<path fill="#CC0000" d="M697.51,131.35c1.06-0.9,1.18-2.49,0.28-3.55c-0.9-1.06-2.49-1.18-3.55-0.28
					c-1.06,0.9-1.18,2.48-0.29,3.54C694.85,132.12,696.44,132.26,697.51,131.35C697.5,131.35,697.51,131.35,697.51,131.35z"/>
				<path fill="#CC0000" d="M836.91,117.37c1.33-1.13,1.49-3.14,0.36-4.47c-1.13-1.33-3.14-1.49-4.47-0.36s-1.49,3.14-0.36,4.47
					c0,0,0.01,0.01,0.01,0.01C833.59,118.34,835.58,118.5,836.91,117.37z"/>
				<path fill="#CC0000" d="M758.38,165.45c1.27-1.07,1.43-2.96,0.36-4.23c-1.07-1.27-2.96-1.43-4.23-0.36s-1.43,2.96-0.36,4.23
					c0.01,0.01,0.01,0.01,0.02,0.02C755.24,166.36,757.12,166.51,758.38,165.45z"/>
				<path fill="#CC0000" d="M613,202.44c1.11-0.94,1.24-2.6,0.3-3.71c-0.94-1.11-2.6-1.24-3.71-0.3c-1.11,0.94-1.24,2.6-0.3,3.71
					c0,0,0,0.01,0.01,0.01C610.24,203.25,611.89,203.38,613,202.44C613,202.44,613,202.44,613,202.44z"/>
				<path fill="#CC0000" d="M775.09,539.13c-0.92,0.76-1.05,2.12-0.3,3.04c0.76,0.92,2.12,1.05,3.04,0.3
					c0.92-0.76,1.05-2.12,0.3-3.04c-0.01-0.02-0.03-0.03-0.04-0.05C777.32,538.5,775.99,538.39,775.09,539.13z"/>
				<path fill="#CC0000" d="M726.13,461.6c-1.68,1.43-1.89,3.95-0.46,5.64c1.43,1.68,3.95,1.89,5.64,0.46
					c1.68-1.43,1.89-3.95,0.46-5.64c0,0-0.01-0.01-0.01-0.01C730.33,460.37,727.81,460.17,726.13,461.6z"/>
				<path fill="#CC0000" d="M750.12,389.17c-1.09,0.93-1.22,2.57-0.29,3.67c0.93,1.09,2.57,1.22,3.67,0.29
					c1.09-0.93,1.22-2.57,0.29-3.66c-0.92-1.09-2.56-1.23-3.65-0.31C750.13,389.16,750.13,389.16,750.12,389.17z"/>
				<path fill="#CC0000" d="M724.24,364.51c-1.03,0.88-1.16,2.42-0.28,3.45c0.88,1.03,2.42,1.16,3.45,0.28
					c1.03-0.88,1.16-2.42,0.28-3.45c0,0,0,0,0,0C726.81,363.76,725.27,363.64,724.24,364.51z"/>
				<path fill="#CC0000" d="M829.42,459.82c-0.86,0.83-0.89,2.19-0.06,3.05c0.76,0.79,1.99,0.89,2.86,0.23
					c0.86-0.83,0.89-2.19,0.06-3.05C831.52,459.26,830.29,459.16,829.42,459.82z"/>
				<path fill="#CC0000" d="M780.28,478.33c-0.92,0.76-1.05,2.12-0.29,3.04c0.76,0.92,2.12,1.05,3.04,0.29s1.05-2.12,0.29-3.04
					c-0.01-0.02-0.03-0.03-0.04-0.05C782.51,477.69,781.18,477.59,780.28,478.33z"/>
				<path fill="#CC0000" d="M793.9,393.83c-0.92,0.76-1.05,2.12-0.29,3.04c0.76,0.92,2.12,1.05,3.04,0.29s1.05-2.12,0.29-3.04
					c-0.01-0.02-0.03-0.03-0.04-0.05C796.13,393.19,794.8,393.08,793.9,393.83z"/>
				<path fill="#CC0000" d="M675.13,359.67c-0.92,0.76-1.05,2.12-0.3,3.04c0.76,0.92,2.12,1.05,3.04,0.3
					c0.92-0.76,1.05-2.12,0.3-3.04c-0.01-0.02-0.03-0.03-0.04-0.05C677.36,359.04,676.03,358.93,675.13,359.67z"/>
				<path fill="#CC0000" d="M537.32,528.5c-0.91,0.76-1.03,2.12-0.27,3.03s2.12,1.03,3.03,0.27c0.91-0.76,1.03-2.12,0.27-3.03
					c-0.01-0.01-0.02-0.02-0.03-0.03C539.55,527.86,538.22,527.76,537.32,528.5z"/>
				<path fill="#CC0000" d="M511.66,459.51c-0.92,0.76-1.05,2.12-0.29,3.04s2.12,1.05,3.04,0.29s1.05-2.12,0.29-3.04
					c-0.01-0.02-0.03-0.03-0.04-0.05C513.89,458.87,512.56,458.76,511.66,459.51z"/>
				<path fill="#CC0000" d="M420.69,541.12c-0.92,0.76-1.05,2.12-0.29,3.04s2.12,1.05,3.04,0.29c0.92-0.76,1.05-2.12,0.29-3.04
					c-0.01-0.02-0.03-0.03-0.04-0.05C422.92,540.48,421.59,540.37,420.69,541.12z"/>
				<path fill="#CC0000" d="M486.9,555.86c-1.34,1.13-1.5,3.13-0.37,4.47s3.13,1.5,4.47,0.37c1.34-1.13,1.5-3.13,0.37-4.47
					c0,0-0.01-0.01-0.01-0.01C490.23,554.89,488.23,554.73,486.9,555.86z"/>
				<path fill="#CC0000" d="M594.4,542.4c-1.71,1.45-1.92,4.02-0.47,5.74c1.45,1.71,4.02,1.92,5.74,0.47
					c1.71-1.45,1.92-4.02,0.47-5.74c0,0,0-0.01-0.01-0.01C598.68,541.15,596.12,540.94,594.4,542.4
					C594.4,542.4,594.4,542.4,594.4,542.4z"/>
				<path fill="#CC0000" d="M623.28,389.78c-1.71,1.45-1.92,4.02-0.47,5.74c1.45,1.71,4.02,1.92,5.74,0.47
					c1.71-1.45,1.92-4.02,0.47-5.74c0,0,0-0.01-0.01-0.01C627.55,388.53,624.99,388.33,623.28,389.78z"/>
				<path fill="#CC0000" d="M479.44,258.35c1.19,0.08,2.22-0.81,2.31-2c0.08-1.19-0.81-2.22-2-2.31c-1.19-0.08-2.22,0.8-2.31,1.99
					C477.35,257.22,478.25,258.26,479.44,258.35z"/>
				<path fill="#CC0000" d="M425.83,315.77c1.19,0.08,2.22-0.81,2.31-2c0.08-1.19-0.81-2.22-2-2.31c-1.19-0.08-2.22,0.8-2.31,1.99
					C423.74,314.64,424.64,315.68,425.83,315.77z"/>
				<path fill="#CC0000" d="M388.79,390.4c1.19,0.03,2.18-0.92,2.21-2.11c0.03-1.1-0.78-2.04-1.87-2.19
					c-1.18-0.16-2.27,0.67-2.43,1.85c-0.16,1.18,0.67,2.27,1.85,2.43C388.63,390.39,388.71,390.4,388.79,390.4z"/>
				<path fill="#CC0000" d="M436.07,411.11c1.18,0.08,2.21-0.82,2.29-2c0.08-1.18-0.82-2.21-2-2.29c-1.17-0.08-2.19,0.8-2.29,1.97
					c-0.1,1.18,0.77,2.21,1.95,2.32C436.04,411.11,436.05,411.11,436.07,411.11z"/>
				<path fill="#CC0000" d="M355.2,465.85c1.53,0.12,2.87-1.03,2.98-2.56s-1.03-2.87-2.56-2.98c-1.52-0.12-2.86,1.02-2.98,2.54
					c-0.13,1.53,1.01,2.87,2.54,3C355.19,465.85,355.19,465.85,355.2,465.85z"/>
				<path fill="#CC0000" d="M296.93,466.79c1.53,0.12,2.87-1.03,2.98-2.56s-1.03-2.87-2.56-2.98c-1.52-0.12-2.86,1.02-2.98,2.54
					C294.25,465.33,295.39,466.67,296.93,466.79z"/>
				<path fill="#CC0000" d="M296.32,556.94c1.43,0.11,2.68-0.96,2.79-2.39c0.11-1.43-0.96-2.68-2.39-2.79
					c-1.43-0.11-2.68,0.96-2.79,2.38C293.82,555.57,294.88,556.82,296.32,556.94C296.32,556.94,296.32,556.94,296.32,556.94z"/>
				<path fill="#CC0000" d="M289.4,393.11c1.39,0.11,2.6-0.92,2.71-2.31c0.11-1.39-0.92-2.6-2.31-2.71c-1.38-0.11-2.6,0.92-2.71,2.3
					C286.98,391.78,288.01,392.99,289.4,393.11z"/>
				<path fill="#CC0000" d="M363.78,260c1.39,0.11,2.6-0.93,2.7-2.32c0.11-1.39-0.93-2.6-2.32-2.7c-1.39-0.11-2.6,0.93-2.7,2.32
					C361.35,258.68,362.39,259.89,363.78,260C363.78,260,363.78,260,363.78,260z"/>
				<path fill="#CC0000" d="M540.71,330.71c1.18,0.08,2.21-0.82,2.29-2s-0.82-2.21-2-2.29c-1.18-0.08-2.2,0.8-2.29,1.98
					c-0.09,1.18,0.79,2.22,1.98,2.31C540.7,330.71,540.7,330.71,540.71,330.71z"/>
				<path fill="#CC0000" d="M603.74,345.08c1.19,0.08,2.22-0.81,2.31-2c0.08-1.19-0.81-2.22-2-2.31c-1.19-0.08-2.22,0.8-2.31,1.99
					C601.65,343.95,602.55,344.99,603.74,345.08z"/>
				<path fill="#CC0000" d="M472.23,348.69c1.74,0.14,3.26-1.16,3.4-2.9c0.14-1.74-1.16-3.26-2.9-3.4c-1.74-0.14-3.26,1.16-3.4,2.89
					C469.19,347.02,470.49,348.55,472.23,348.69z"/>
				<path fill="#CC0000" d="M611.18,486.56c1.74,0.14,3.28-1.15,3.42-2.9c0.14-1.74-1.15-3.28-2.9-3.42
					c-1.74-0.14-3.28,1.15-3.42,2.9c0,0.01,0,0.01,0,0.02C608.14,484.9,609.44,486.42,611.18,486.56z"/>
				<path fill="#CC0000" d="M667.88,456.36c1.74,0.16,3.28-1.13,3.44-2.87c0.16-1.74-1.13-3.28-2.87-3.44
					c-1.74-0.16-3.28,1.13-3.44,2.87c0,0.03,0,0.05-0.01,0.08C664.88,454.72,666.17,456.21,667.88,456.36z"/>
				<path fill="#CC0000" d="M648.44,507.84c1.5,0.12,2.81-1,2.92-2.5c0.12-1.5-1-2.81-2.5-2.92c-1.5-0.12-2.81,1-2.92,2.5
					c0,0,0,0,0,0c-0.12,1.49,0.99,2.8,2.48,2.92C648.43,507.84,648.43,507.84,648.44,507.84z"/>
				<path fill="#CC0000" d="M624.74,287.89c1.74,0.13,3.26-1.17,3.39-2.91s-1.17-3.26-2.91-3.39c-1.73-0.13-3.25,1.16-3.39,2.89
					c-0.15,1.73,1.14,3.26,2.87,3.41C624.71,287.89,624.73,287.89,624.74,287.89z"/>
				<path fill="#CC0000" d="M531.57,445.32c1.65,0.14,3.1-1.09,3.24-2.74c0.14-1.65-1.09-3.1-2.74-3.24
					c-1.65-0.14-3.1,1.09-3.24,2.74c0,0.01,0,0.01,0,0.02C528.7,443.74,529.93,445.18,531.57,445.32z"/>
				<path fill="#CC0000" d="M452,472c2.33,0.19,4.38-1.56,4.56-3.89s-1.56-4.38-3.89-4.56c-2.33-0.19-4.37,1.55-4.56,3.88
					C447.92,469.76,449.66,471.81,452,472C452,472,452,472,452,472z"/>
				<path fill="#CC0000" d="M382.71,327.15c1.65,0.14,3.1-1.09,3.24-2.74c0.14-1.65-1.09-3.1-2.74-3.24
					c-1.65-0.14-3.1,1.09-3.24,2.74c0,0.01,0,0.02,0,0.03C379.85,325.58,381.07,327.01,382.71,327.15z"/>
				<path fill="#CC0000" d="M253.78,250.54c1.45,0.12,2.72-0.96,2.83-2.41c0.12-1.45-0.96-2.72-2.41-2.83s-2.72,0.96-2.83,2.41
					c0,0,0,0,0,0c-0.12,1.44,0.95,2.71,2.39,2.83C253.77,250.54,253.77,250.54,253.78,250.54z"/>
				<path fill="#CC0000" d="M150.4,515c-1.53-0.12-2.87,1.02-2.99,2.55s1.02,2.87,2.55,2.99c1.53,0.12,2.87-1.02,2.99-2.54
					C153.08,516.47,151.94,515.13,150.4,515C150.41,515,150.4,515,150.4,515z"/>
				<path fill="#CC0000" d="M218.67,479.51c-1.43-0.11-2.68,0.96-2.79,2.39c-0.11,1.43,0.96,2.68,2.39,2.79
					c1.43,0.11,2.68-0.96,2.79-2.38c0.12-1.43-0.94-2.68-2.36-2.8C218.69,479.51,218.68,479.51,218.67,479.51z"/>
				<path fill="#CC0000" d="M217.8,443.78c-1.34-0.1-2.51,0.91-2.62,2.25c-0.1,1.34,0.91,2.51,2.25,2.62
					c1.34,0.1,2.51-0.9,2.61-2.24c0.11-1.34-0.89-2.52-2.24-2.63C217.81,443.78,217.8,443.78,217.8,443.78z"/>
				<path fill="#CC0000" d="M177,563.88c-1.19-0.03-2.18,0.92-2.21,2.11c-0.03,1.1,0.78,2.04,1.87,2.19
					c1.19,0.03,2.18-0.92,2.21-2.11C178.9,564.97,178.09,564.03,177,563.88z"/>
				<path fill="#CC0000" d="M246.33,513.76c-1.19-0.08-2.22,0.81-2.31,2c-0.08,1.19,0.81,2.22,2,2.31c1.19,0.08,2.22-0.8,2.31-1.99
					C248.42,514.89,247.52,513.85,246.33,513.76z"/>
				<path fill="#CC0000" d="M186.5,405.63c-1.19-0.08-2.22,0.81-2.31,2s0.81,2.22,2,2.31c1.19,0.08,2.22-0.8,2.31-1.99
					c0.1-1.18-0.77-2.21-1.95-2.32C186.53,405.63,186.52,405.63,186.5,405.63z"/>
				<path fill="#CC0000" d="M16.37,510.21c-1.49-0.12-2.79,0.99-2.9,2.48c-0.12,1.49,0.99,2.79,2.48,2.9
					c1.48,0.12,2.78-0.99,2.9-2.47C18.97,511.63,17.86,510.33,16.37,510.21C16.37,510.21,16.37,510.21,16.37,510.21z"/>
			</g>
		</g>
	</g>
</g>
</svg>
